<?xml version="1.0" encoding="UTF-8" standalone="no"?>
<!DOCTYPE svg PUBLIC "-//W3C//DTD SVG 1.1//EN"
 "http://www.w3.org/Graphics/SVG/1.1/DTD/svg11.dtd">
<!-- Generated by graphviz version 9.0.0 (20230911.1827)
 -->
<!-- Pages: 1 -->
<svg width="1472pt" height="99pt"
 viewBox="0.00 0.00 1471.75 98.61" xmlns="http://www.w3.org/2000/svg" xmlns:xlink="http://www.w3.org/1999/xlink">
<g id="graph0" class="graph" transform="scale(1 1) rotate(0) translate(4 94.61)">
<polygon fill="white" stroke="none" points="-4,4 -4,-94.61 1467.75,-94.61 1467.75,4 -4,4"/>
<!-- &#45;1 -->
<g id="node1" class="node">
<title>&#45;1</title>
<polygon fill="lightgray" stroke="black" points="291.5,-90.61 268,-90.61 268,-71.36 291.5,-71.36 291.5,-90.61"/>
<text text-anchor="middle" x="279.75" y="-78.06" font-family="Times New Roman,serif" font-size="9.00">&#45;1</text>
</g>
<!-- 5 -->
<g id="node39" class="node">
<title>5</title>
<ellipse fill="lightblue" stroke="black" cx="201.75" cy="-17.68" rx="14.5" ry="14.5"/>
<text text-anchor="middle" x="201.75" y="-14.75" font-family="Times New Roman,serif" font-size="9.00">5</text>
</g>
<!-- &#45;1&#45;&gt;5 -->
<g id="edge22" class="edge">
<title>&#45;1&#45;&gt;5</title>
<path fill="none" stroke="red" stroke-width="0.35" d="M268.24,-70.93C255.77,-61.13 235.67,-45.34 220.83,-33.68"/>
<polygon fill="red" stroke="red" stroke-width="0.35" points="223.25,-31.12 213.22,-27.69 218.92,-36.63 223.25,-31.12"/>
</g>
<!-- 7 -->
<g id="node41" class="node">
<title>7</title>
<ellipse fill="lightblue" stroke="black" cx="248.75" cy="-17.68" rx="14.5" ry="14.5"/>
<text text-anchor="middle" x="248.75" y="-14.75" font-family="Times New Roman,serif" font-size="9.00">7</text>
</g>
<!-- &#45;1&#45;&gt;7 -->
<g id="edge50" class="edge">
<title>&#45;1&#45;&gt;7</title>
<path fill="none" stroke="green" stroke-width="0.17" stroke-dasharray="1,5" d="M275.18,-70.93C271.1,-62.88 264.98,-50.77 259.65,-40.23"/>
<polygon fill="green" stroke="green" stroke-width="0.17" points="262.81,-38.73 255.18,-31.39 256.57,-41.89 262.81,-38.73"/>
</g>
<!-- 8 -->
<g id="node42" class="node">
<title>8</title>
<ellipse fill="lightblue" stroke="black" cx="460.75" cy="-17.68" rx="14.5" ry="14.5"/>
<text text-anchor="middle" x="460.75" y="-14.75" font-family="Times New Roman,serif" font-size="9.00">8</text>
</g>
<!-- &#45;1&#45;&gt;8 -->
<g id="edge21" class="edge">
<title>&#45;1&#45;&gt;8</title>
<path fill="none" stroke="red" stroke-width="0.11" d="M291.64,-74.78C294.59,-73.58 297.76,-72.36 300.75,-71.36 360.02,-51.44 380,-61.59 436.75,-35.36 438.33,-34.62 439.92,-33.79 441.49,-32.89"/>
<polygon fill="red" stroke="red" stroke-width="0.11" points="443.4,-35.82 449.87,-27.43 439.58,-29.96 443.4,-35.82"/>
</g>
<!-- 9 -->
<g id="node43" class="node">
<title>9</title>
<ellipse fill="lightblue" stroke="black" cx="1031.75" cy="-17.68" rx="14.5" ry="14.5"/>
<text text-anchor="middle" x="1031.75" y="-14.75" font-family="Times New Roman,serif" font-size="9.00">9</text>
</g>
<!-- &#45;1&#45;&gt;9 -->
<g id="edge47" class="edge">
<title>&#45;1&#45;&gt;9</title>
<path fill="none" stroke="red" stroke-width="0.15" d="M291.96,-74.16C294.79,-73.04 297.83,-72.01 300.75,-71.36 602.98,-3.55 696.49,-111.44 996.75,-35.36 1001.35,-34.19 1006.07,-32.4 1010.5,-30.42"/>
<polygon fill="red" stroke="red" stroke-width="0.15" points="1011.95,-33.61 1019.37,-26.04 1008.85,-27.33 1011.95,-33.61"/>
</g>
<!-- &#45;2 -->
<g id="node2" class="node">
<title>&#45;2</title>
<polygon fill="lightgray" stroke="black" points="23.5,-90.61 0,-90.61 0,-71.36 23.5,-71.36 23.5,-90.61"/>
<text text-anchor="middle" x="11.75" y="-78.06" font-family="Times New Roman,serif" font-size="9.00">&#45;2</text>
</g>
<!-- &#45;2&#45;&gt;5 -->
<g id="edge77" class="edge">
<title>&#45;2&#45;&gt;5</title>
<path fill="none" stroke="red" stroke-width="0.53" stroke-dasharray="1,5" d="M23.67,-74.87C26.62,-73.67 29.78,-72.42 32.75,-71.36 83.92,-52.91 145.12,-34.79 178.02,-25.36"/>
<polygon fill="red" stroke="red" stroke-width="0.53" points="178.6,-28.84 187.26,-22.73 176.68,-22.1 178.6,-28.84"/>
</g>
<!-- &#45;3 -->
<g id="node3" class="node">
<title>&#45;3</title>
<polygon fill="lightgray" stroke="black" points="1371.5,-90.61 1348,-90.61 1348,-71.36 1371.5,-71.36 1371.5,-90.61"/>
<text text-anchor="middle" x="1359.75" y="-78.06" font-family="Times New Roman,serif" font-size="9.00">&#45;3</text>
</g>
<!-- &#45;4 -->
<g id="node4" class="node">
<title>&#45;4</title>
<polygon fill="lightgray" stroke="black" points="425.5,-90.61 402,-90.61 402,-71.36 425.5,-71.36 425.5,-90.61"/>
<text text-anchor="middle" x="413.75" y="-78.06" font-family="Times New Roman,serif" font-size="9.00">&#45;4</text>
</g>
<!-- 0 -->
<g id="node34" class="node">
<title>0</title>
<ellipse fill="lightblue" stroke="black" cx="507.75" cy="-17.68" rx="14.5" ry="14.5"/>
<text text-anchor="middle" x="507.75" y="-14.75" font-family="Times New Roman,serif" font-size="9.00">0</text>
</g>
<!-- &#45;4&#45;&gt;0 -->
<g id="edge52" class="edge">
<title>&#45;4&#45;&gt;0</title>
<path fill="none" stroke="green" stroke-width="0.23" d="M425.98,-72.39C440.03,-63.62 463.72,-48.69 483.75,-35.36 485.02,-34.51 486.32,-33.64 487.62,-32.75"/>
<polygon fill="green" stroke="green" stroke-width="0.23" points="489.55,-35.67 495.8,-27.12 485.58,-29.91 489.55,-35.67"/>
</g>
<!-- 4 -->
<g id="node38" class="node">
<title>4</title>
<ellipse fill="lightblue" stroke="black" cx="413.75" cy="-17.68" rx="14.5" ry="14.5"/>
<text text-anchor="middle" x="413.75" y="-14.75" font-family="Times New Roman,serif" font-size="9.00">4</text>
</g>
<!-- &#45;4&#45;&gt;4 -->
<g id="edge81" class="edge">
<title>&#45;4&#45;&gt;4</title>
<path fill="none" stroke="red" stroke-width="0.14" stroke-dasharray="1,5" d="M413.75,-70.93C413.75,-63.5 413.75,-52.61 413.75,-42.7"/>
<polygon fill="red" stroke="red" stroke-width="0.14" points="417.25,-42.74 413.75,-32.74 410.25,-42.74 417.25,-42.74"/>
</g>
<!-- &#45;4&#45;&gt;7 -->
<g id="edge51" class="edge">
<title>&#45;4&#45;&gt;7</title>
<path fill="none" stroke="red" stroke-width="0.2" d="M401.83,-74.85C398.89,-73.65 395.72,-72.41 392.75,-71.36 340.27,-52.76 322.9,-59.54 272.75,-35.36 271.18,-34.6 269.6,-33.74 268.04,-32.83"/>
<polygon fill="red" stroke="red" stroke-width="0.2" points="270.07,-29.98 259.79,-27.42 266.23,-35.83 270.07,-29.98"/>
</g>
<!-- 12 -->
<g id="node46" class="node">
<title>12</title>
<ellipse fill="lightblue" stroke="black" cx="592.75" cy="-17.68" rx="17.68" ry="17.68"/>
<text text-anchor="middle" x="592.75" y="-14.75" font-family="Times New Roman,serif" font-size="9.00">12</text>
</g>
<!-- &#45;4&#45;&gt;12 -->
<g id="edge20" class="edge">
<title>&#45;4&#45;&gt;12</title>
<path fill="none" stroke="red" stroke-width="0.11" d="M425.69,-74.91C428.64,-73.71 431.79,-72.45 434.75,-71.36 480.73,-54.27 535.15,-36.7 566.64,-26.78"/>
<polygon fill="red" stroke="red" stroke-width="0.11" points="567.36,-30.23 575.86,-23.89 565.27,-23.55 567.36,-30.23"/>
</g>
<!-- &#45;5 -->
<g id="node5" class="node">
<title>&#45;5</title>
<polygon fill="lightgray" stroke="black" points="65.5,-90.61 42,-90.61 42,-71.36 65.5,-71.36 65.5,-90.61"/>
<text text-anchor="middle" x="53.75" y="-78.06" font-family="Times New Roman,serif" font-size="9.00">&#45;5</text>
</g>
<!-- &#45;5&#45;&gt;5 -->
<g id="edge40" class="edge">
<title>&#45;5&#45;&gt;5</title>
<path fill="none" stroke="red" stroke-width="0.55" d="M65.86,-74.96C90.55,-64.74 147.03,-41.34 178.86,-28.16"/>
<polygon fill="red" stroke="red" stroke-width="0.55" points="179.96,-31.49 187.85,-24.43 177.28,-25.03 179.96,-31.49"/>
</g>
<!-- &#45;6 -->
<g id="node6" class="node">
<title>&#45;6</title>
<polygon fill="lightgray" stroke="black" points="559.5,-90.61 536,-90.61 536,-71.36 559.5,-71.36 559.5,-90.61"/>
<text text-anchor="middle" x="547.75" y="-78.06" font-family="Times New Roman,serif" font-size="9.00">&#45;6</text>
</g>
<!-- &#45;6&#45;&gt;8 -->
<g id="edge23" class="edge">
<title>&#45;6&#45;&gt;8</title>
<path fill="none" stroke="red" stroke-width="0.3" d="M535.65,-71.46C521.42,-61.43 497.58,-44.63 480.62,-32.68"/>
<polygon fill="red" stroke="red" stroke-width="0.3" points="483.02,-30.09 472.83,-27.19 478.99,-35.81 483.02,-30.09"/>
</g>
<!-- &#45;6&#45;&gt;12 -->
<g id="edge54" class="edge">
<title>&#45;6&#45;&gt;12</title>
<path fill="none" stroke="red" stroke-width="0.13" d="M554.39,-70.93C560.25,-62.95 569.04,-50.97 576.73,-40.5"/>
<polygon fill="red" stroke="red" stroke-width="0.13" points="579.37,-42.82 582.47,-32.69 573.73,-38.68 579.37,-42.82"/>
</g>
<!-- &#45;7 -->
<g id="node7" class="node">
<title>&#45;7</title>
<polygon fill="lightgray" stroke="black" points="1329.5,-90.61 1306,-90.61 1306,-71.36 1329.5,-71.36 1329.5,-90.61"/>
<text text-anchor="middle" x="1317.75" y="-78.06" font-family="Times New Roman,serif" font-size="9.00">&#45;7</text>
</g>
<!-- 10 -->
<g id="node44" class="node">
<title>10</title>
<ellipse fill="lightblue" stroke="black" cx="1091.75" cy="-17.68" rx="17.68" ry="17.68"/>
<text text-anchor="middle" x="1091.75" y="-14.75" font-family="Times New Roman,serif" font-size="9.00">10</text>
</g>
<!-- &#45;7&#45;&gt;10 -->
<g id="edge57" class="edge">
<title>&#45;7&#45;&gt;10</title>
<path fill="none" stroke="green" stroke-width="0.28" stroke-dasharray="1,5" d="M1305.86,-74.76C1302.92,-73.56 1299.74,-72.35 1296.75,-71.36 1279.83,-65.74 1170.69,-38.35 1118.92,-25.44"/>
<polygon fill="green" stroke="green" stroke-width="0.28" points="1120.05,-22.11 1109.5,-23.09 1118.36,-28.9 1120.05,-22.11"/>
</g>
<!-- &#45;8 -->
<g id="node8" class="node">
<title>&#45;8</title>
<polygon fill="lightgray" stroke="black" points="1103.5,-90.61 1080,-90.61 1080,-71.36 1103.5,-71.36 1103.5,-90.61"/>
<text text-anchor="middle" x="1091.75" y="-78.06" font-family="Times New Roman,serif" font-size="9.00">&#45;8</text>
</g>
<!-- 3 -->
<g id="node37" class="node">
<title>3</title>
<ellipse fill="lightblue" stroke="black" cx="955.75" cy="-17.68" rx="14.5" ry="14.5"/>
<text text-anchor="middle" x="955.75" y="-14.75" font-family="Times New Roman,serif" font-size="9.00">3</text>
</g>
<!-- &#45;8&#45;&gt;3 -->
<g id="edge12" class="edge">
<title>&#45;8&#45;&gt;3</title>
<path fill="none" stroke="green" stroke-width="0.25" d="M1079.68,-74.54C1056.89,-64.26 1007.18,-41.86 978.12,-28.76"/>
<polygon fill="green" stroke="green" stroke-width="0.25" points="979.68,-25.63 969.13,-24.71 976.81,-32.01 979.68,-25.63"/>
</g>
<!-- &#45;8&#45;&gt;10 -->
<g id="edge62" class="edge">
<title>&#45;8&#45;&gt;10</title>
<path fill="none" stroke="green" stroke-width="0.31" stroke-dasharray="1,5" d="M1091.75,-70.93C1091.75,-64.23 1091.75,-54.72 1091.75,-45.65"/>
<polygon fill="green" stroke="green" stroke-width="0.31" points="1095.25,-45.87 1091.75,-35.87 1088.25,-45.87 1095.25,-45.87"/>
</g>
<!-- &#45;9 -->
<g id="node9" class="node">
<title>&#45;9</title>
<polygon fill="lightgray" stroke="black" points="693.5,-90.61 670,-90.61 670,-71.36 693.5,-71.36 693.5,-90.61"/>
<text text-anchor="middle" x="681.75" y="-78.06" font-family="Times New Roman,serif" font-size="9.00">&#45;9</text>
</g>
<!-- 1 -->
<g id="node35" class="node">
<title>1</title>
<ellipse fill="lightblue" stroke="black" cx="657.75" cy="-17.68" rx="14.5" ry="14.5"/>
<text text-anchor="middle" x="657.75" y="-14.75" font-family="Times New Roman,serif" font-size="9.00">1</text>
</g>
<!-- &#45;9&#45;&gt;1 -->
<g id="edge49" class="edge">
<title>&#45;9&#45;&gt;1</title>
<path fill="none" stroke="red" stroke-width="0.47" stroke-dasharray="1,5" d="M678.21,-70.93C675.16,-63.14 670.62,-51.56 666.6,-41.27"/>
<polygon fill="red" stroke="red" stroke-width="0.47" points="669.98,-40.31 663.07,-32.27 663.46,-42.86 669.98,-40.31"/>
</g>
<!-- &#45;9&#45;&gt;4 -->
<g id="edge8" class="edge">
<title>&#45;9&#45;&gt;4</title>
<path fill="none" stroke="red" stroke-width="0.31" d="M669.92,-74.57C666.97,-73.37 663.78,-72.21 660.75,-71.36 564.12,-44.11 530.85,-72.94 437.75,-35.36 436.13,-34.7 434.52,-33.92 432.93,-33.07"/>
<polygon fill="red" stroke="red" stroke-width="0.31" points="435.09,-30.29 424.78,-27.84 431.31,-36.18 435.09,-30.29"/>
</g>
<!-- 6 -->
<g id="node40" class="node">
<title>6</title>
<ellipse fill="lightblue" stroke="black" cx="771.75" cy="-17.68" rx="14.5" ry="14.5"/>
<text text-anchor="middle" x="771.75" y="-14.75" font-family="Times New Roman,serif" font-size="9.00">6</text>
</g>
<!-- &#45;9&#45;&gt;6 -->
<g id="edge16" class="edge">
<title>&#45;9&#45;&gt;6</title>
<path fill="none" stroke="red" stroke-width="0.66" stroke-dasharray="1,5" d="M693.89,-71.71C708.54,-61.73 733.42,-44.78 751.11,-32.74"/>
<polygon fill="red" stroke="red" stroke-width="0.66" points="752.96,-35.71 759.26,-27.19 749.02,-29.92 752.96,-35.71"/>
</g>
<!-- &#45;10 -->
<g id="node10" class="node">
<title>&#45;10</title>
<polygon fill="lightgray" stroke="black" points="471.75,-90.61 443.75,-90.61 443.75,-71.36 471.75,-71.36 471.75,-90.61"/>
<text text-anchor="middle" x="457.75" y="-78.06" font-family="Times New Roman,serif" font-size="9.00">&#45;10</text>
</g>
<!-- &#45;10&#45;&gt;0 -->
<g id="edge66" class="edge">
<title>&#45;10&#45;&gt;0</title>
<path fill="none" stroke="red" stroke-width="0.16" d="M465.13,-70.93C472.31,-62.12 483.45,-48.47 492.54,-37.32"/>
<polygon fill="red" stroke="red" stroke-width="0.16" points="495.23,-39.57 498.84,-29.6 489.8,-35.14 495.23,-39.57"/>
</g>
<!-- &#45;10&#45;&gt;4 -->
<g id="edge76" class="edge">
<title>&#45;10&#45;&gt;4</title>
<path fill="none" stroke="red" stroke-width="0.46" d="M451.26,-70.93C445.13,-62.4 435.74,-49.32 427.89,-38.38"/>
<polygon fill="red" stroke="red" stroke-width="0.46" points="430.85,-36.5 422.17,-30.41 425.16,-40.58 430.85,-36.5"/>
</g>
<!-- &#45;10&#45;&gt;7 -->
<g id="edge13" class="edge">
<title>&#45;10&#45;&gt;7</title>
<path fill="none" stroke="green" stroke-width="0.29" stroke-dasharray="1,5" d="M443.25,-74.19C440.46,-73.18 437.53,-72.18 434.75,-71.36 364.05,-50.36 340.31,-64.96 272.75,-35.36 271.15,-34.66 269.55,-33.84 267.98,-32.96"/>
<polygon fill="green" stroke="green" stroke-width="0.29" points="270.11,-30.17 259.82,-27.68 266.31,-36.05 270.11,-30.17"/>
</g>
<!-- &#45;10&#45;&gt;8 -->
<g id="edge28" class="edge">
<title>&#45;10&#45;&gt;8</title>
<path fill="none" stroke="green" stroke-width="0.41" d="M458.19,-70.93C458.55,-63.58 459.08,-52.84 459.56,-43.01"/>
<polygon fill="green" stroke="green" stroke-width="0.41" points="463.05,-43.31 460.04,-33.15 456.06,-42.97 463.05,-43.31"/>
</g>
<!-- &#45;10&#45;&gt;12 -->
<g id="edge33" class="edge">
<title>&#45;10&#45;&gt;12</title>
<path fill="none" stroke="green" stroke-width="0.29" d="M472.2,-73.42C494.95,-63.09 539.44,-42.88 567.55,-30.12"/>
<polygon fill="green" stroke="green" stroke-width="0.29" points="568.68,-33.45 576.34,-26.13 565.78,-27.08 568.68,-33.45"/>
</g>
<!-- &#45;11 -->
<g id="node11" class="node">
<title>&#45;11</title>
<polygon fill="lightgray" stroke="black" points="1417.75,-90.61 1389.75,-90.61 1389.75,-71.36 1417.75,-71.36 1417.75,-90.61"/>
<text text-anchor="middle" x="1403.75" y="-78.06" font-family="Times New Roman,serif" font-size="9.00">&#45;11</text>
</g>
<!-- &#45;12 -->
<g id="node12" class="node">
<title>&#45;12</title>
<polygon fill="lightgray" stroke="black" points="1241.75,-90.61 1213.75,-90.61 1213.75,-71.36 1241.75,-71.36 1241.75,-90.61"/>
<text text-anchor="middle" x="1227.75" y="-78.06" font-family="Times New Roman,serif" font-size="9.00">&#45;12</text>
</g>
<!-- 11 -->
<g id="node45" class="node">
<title>11</title>
<ellipse fill="lightblue" stroke="black" cx="1185.75" cy="-17.68" rx="17.68" ry="17.68"/>
<text text-anchor="middle" x="1185.75" y="-14.75" font-family="Times New Roman,serif" font-size="9.00">11</text>
</g>
<!-- &#45;12&#45;&gt;11 -->
<g id="edge58" class="edge">
<title>&#45;12&#45;&gt;11</title>
<path fill="none" stroke="red" stroke-width="0.47" stroke-dasharray="1,5" d="M1221.55,-70.93C1216.19,-63.1 1208.2,-51.44 1201.13,-41.13"/>
<polygon fill="red" stroke="red" stroke-width="0.47" points="1204.18,-39.39 1195.64,-33.12 1198.41,-43.34 1204.18,-39.39"/>
</g>
<!-- &#45;12&#45;&gt;12 -->
<g id="edge78" class="edge">
<title>&#45;12&#45;&gt;12</title>
<path fill="none" stroke="green" stroke-width="0.19" d="M1213.34,-73.84C1210.54,-72.86 1207.59,-71.96 1204.75,-71.36 956.54,-18.21 882.44,-90.88 634.75,-35.36 629.1,-34.09 623.23,-32.17 617.72,-30.08"/>
<polygon fill="green" stroke="green" stroke-width="0.19" points="619.18,-26.89 608.6,-26.33 616.52,-33.37 619.18,-26.89"/>
</g>
<!-- &#45;13 -->
<g id="node13" class="node">
<title>&#45;13</title>
<polygon fill="lightgray" stroke="black" points="337.75,-90.61 309.75,-90.61 309.75,-71.36 337.75,-71.36 337.75,-90.61"/>
<text text-anchor="middle" x="323.75" y="-78.06" font-family="Times New Roman,serif" font-size="9.00">&#45;13</text>
</g>
<!-- &#45;13&#45;&gt;0 -->
<g id="edge14" class="edge">
<title>&#45;13&#45;&gt;0</title>
<path fill="none" stroke="green" stroke-width="0.26" d="M337.78,-74.46C340.72,-73.38 343.82,-72.29 346.75,-71.36 406.75,-52.28 426.58,-61.72 483.75,-35.36 485.33,-34.62 486.93,-33.79 488.49,-32.89"/>
<polygon fill="green" stroke="green" stroke-width="0.26" points="490.21,-35.95 496.68,-27.56 486.39,-30.08 490.21,-35.95"/>
</g>
<!-- &#45;13&#45;&gt;4 -->
<g id="edge75" class="edge">
<title>&#45;13&#45;&gt;4</title>
<path fill="none" stroke="red" stroke-width="0.83" d="M337.72,-70.91C351.35,-62 372.62,-47.96 390.75,-35.36 391.72,-34.68 392.71,-33.98 393.71,-33.28"/>
<polygon fill="red" stroke="red" stroke-width="0.83" points="395.48,-36.32 401.57,-27.64 391.4,-30.63 395.48,-36.32"/>
</g>
<!-- 13 -->
<g id="node47" class="node">
<title>13</title>
<ellipse fill="lightblue" stroke="black" cx="345.75" cy="-17.68" rx="17.68" ry="17.68"/>
<text text-anchor="middle" x="345.75" y="-14.75" font-family="Times New Roman,serif" font-size="9.00">13</text>
</g>
<!-- &#45;13&#45;&gt;13 -->
<g id="edge17" class="edge">
<title>&#45;13&#45;&gt;13</title>
<path fill="none" stroke="green" stroke-width="0.24" d="M327,-70.93C329.55,-63.82 333.24,-53.53 336.67,-43.97"/>
<polygon fill="green" stroke="green" stroke-width="0.24" points="339.89,-45.36 339.98,-34.76 333.31,-42.99 339.89,-45.36"/>
</g>
<!-- &#45;14 -->
<g id="node14" class="node">
<title>&#45;14</title>
<polygon fill="lightgray" stroke="black" points="157.75,-90.61 129.75,-90.61 129.75,-71.36 157.75,-71.36 157.75,-90.61"/>
<text text-anchor="middle" x="143.75" y="-78.06" font-family="Times New Roman,serif" font-size="9.00">&#45;14</text>
</g>
<!-- 2 -->
<g id="node36" class="node">
<title>2</title>
<ellipse fill="lightblue" stroke="black" cx="295.75" cy="-17.68" rx="14.5" ry="14.5"/>
<text text-anchor="middle" x="295.75" y="-14.75" font-family="Times New Roman,serif" font-size="9.00">2</text>
</g>
<!-- &#45;14&#45;&gt;2 -->
<g id="edge6" class="edge">
<title>&#45;14&#45;&gt;2</title>
<path fill="none" stroke="red" stroke-width="0.21" stroke-dasharray="1,5" d="M157.84,-74.63C160.78,-73.53 163.86,-72.39 166.75,-71.36 213.18,-54.69 227.74,-57.64 271.75,-35.36 273.11,-34.67 274.48,-33.91 275.84,-33.11"/>
<polygon fill="red" stroke="red" stroke-width="0.21" points="277.71,-36.07 284.17,-27.67 273.88,-30.21 277.71,-36.07"/>
</g>
<!-- &#45;14&#45;&gt;7 -->
<g id="edge4" class="edge">
<title>&#45;14&#45;&gt;7</title>
<path fill="none" stroke="green" stroke-width="0.51" d="M158.05,-72.68C174.44,-64.18 201.97,-49.49 224.75,-35.36 225.91,-34.63 227.1,-33.88 228.29,-33.1"/>
<polygon fill="green" stroke="green" stroke-width="0.51" points="230.24,-36.01 236.55,-27.5 226.31,-30.22 230.24,-36.01"/>
</g>
<!-- &#45;15 -->
<g id="node15" class="node">
<title>&#45;15</title>
<polygon fill="lightgray" stroke="black" points="1015.75,-90.61 987.75,-90.61 987.75,-71.36 1015.75,-71.36 1015.75,-90.61"/>
<text text-anchor="middle" x="1001.75" y="-78.06" font-family="Times New Roman,serif" font-size="9.00">&#45;15</text>
</g>
<!-- &#45;15&#45;&gt;3 -->
<g id="edge30" class="edge">
<title>&#45;15&#45;&gt;3</title>
<path fill="none" stroke="green" stroke-width="0.87" d="M994.96,-70.93C988.62,-62.49 978.94,-49.58 970.78,-38.71"/>
<polygon fill="green" stroke="green" stroke-width="0.87" points="973.72,-36.79 964.91,-30.89 968.12,-40.99 973.72,-36.79"/>
</g>
<!-- &#45;15&#45;&gt;4 -->
<g id="edge3" class="edge">
<title>&#45;15&#45;&gt;4</title>
<path fill="none" stroke="green" stroke-width="0.4" stroke-dasharray="1,5" d="M987.34,-73.85C984.54,-72.86 981.58,-71.97 978.75,-71.36 743.2,-20.51 665.18,-115.01 437.75,-35.36 436.1,-34.78 434.47,-34.06 432.87,-33.24"/>
<polygon fill="green" stroke="green" stroke-width="0.4" points="435.13,-30.52 424.8,-28.16 431.4,-36.45 435.13,-30.52"/>
</g>
<!-- &#45;15&#45;&gt;11 -->
<g id="edge56" class="edge">
<title>&#45;15&#45;&gt;11</title>
<path fill="none" stroke="red" stroke-width="0.39" stroke-dasharray="1,5" d="M1015.83,-74.59C1018.77,-73.5 1021.85,-72.37 1024.75,-71.36 1071.62,-54.91 1126.73,-37.23 1158.8,-27.11"/>
<polygon fill="red" stroke="red" stroke-width="0.39" points="1159.69,-30.5 1168.18,-24.16 1157.59,-23.82 1159.69,-30.5"/>
</g>
<!-- &#45;16 -->
<g id="node16" class="node">
<title>&#45;16</title>
<polygon fill="lightgray" stroke="black" points="969.75,-90.61 941.75,-90.61 941.75,-71.36 969.75,-71.36 969.75,-90.61"/>
<text text-anchor="middle" x="955.75" y="-78.06" font-family="Times New Roman,serif" font-size="9.00">&#45;16</text>
</g>
<!-- &#45;16&#45;&gt;2 -->
<g id="edge74" class="edge">
<title>&#45;16&#45;&gt;2</title>
<path fill="none" stroke="green" stroke-width="0.43" d="M941.35,-73.83C938.54,-72.85 935.59,-71.96 932.75,-71.36 799.04,-43.04 447.47,-81.32 318.75,-35.36 317.5,-34.91 316.25,-34.37 315.03,-33.76"/>
<polygon fill="green" stroke="green" stroke-width="0.43" points="317.12,-30.94 306.79,-28.56 313.37,-36.86 317.12,-30.94"/>
</g>
<!-- &#45;16&#45;&gt;3 -->
<g id="edge11" class="edge">
<title>&#45;16&#45;&gt;3</title>
<path fill="none" stroke="green" stroke-width="0.17" d="M955.75,-70.93C955.75,-63.5 955.75,-52.61 955.75,-42.7"/>
<polygon fill="green" stroke="green" stroke-width="0.17" points="959.25,-42.79 955.75,-32.79 952.25,-42.79 959.25,-42.79"/>
</g>
<!-- &#45;16&#45;&gt;9 -->
<g id="edge64" class="edge">
<title>&#45;16&#45;&gt;9</title>
<path fill="none" stroke="green" stroke-width="0.22" d="M966.96,-70.93C979.04,-61.19 998.47,-45.52 1012.91,-33.88"/>
<polygon fill="green" stroke="green" stroke-width="0.22" points="1014.89,-36.77 1020.48,-27.77 1010.49,-31.33 1014.89,-36.77"/>
</g>
<!-- &#45;16&#45;&gt;10 -->
<g id="edge60" class="edge">
<title>&#45;16&#45;&gt;10</title>
<path fill="none" stroke="red" stroke-width="0.91" d="M970.05,-73.54C992.79,-63.29 1037.52,-43.12 1065.96,-30.3"/>
<polygon fill="red" stroke="red" stroke-width="0.91" points="1067.05,-33.65 1074.73,-26.35 1064.17,-27.27 1067.05,-33.65"/>
</g>
<!-- &#45;16&#45;&gt;12 -->
<g id="edge39" class="edge">
<title>&#45;16&#45;&gt;12</title>
<path fill="none" stroke="red" stroke-width="0.4" d="M941.31,-73.97C938.51,-72.97 935.57,-72.04 932.75,-71.36 803.15,-39.71 764.04,-68.25 634.75,-35.36 629.38,-33.99 623.77,-32.1 618.46,-30.09"/>
<polygon fill="red" stroke="red" stroke-width="0.4" points="619.92,-26.91 609.34,-26.4 617.29,-33.4 619.92,-26.91"/>
</g>
<!-- &#45;17 -->
<g id="node17" class="node">
<title>&#45;17</title>
<polygon fill="lightgray" stroke="black" points="1061.75,-90.61 1033.75,-90.61 1033.75,-71.36 1061.75,-71.36 1061.75,-90.61"/>
<text text-anchor="middle" x="1047.75" y="-78.06" font-family="Times New Roman,serif" font-size="9.00">&#45;17</text>
</g>
<!-- &#45;17&#45;&gt;3 -->
<g id="edge42" class="edge">
<title>&#45;17&#45;&gt;3</title>
<path fill="none" stroke="green" stroke-width="0.76" d="M1034.18,-70.93C1018.99,-60.82 994.22,-44.31 976.58,-32.56"/>
<polygon fill="green" stroke="green" stroke-width="0.76" points="978.84,-29.86 968.58,-27.23 974.96,-35.68 978.84,-29.86"/>
</g>
<!-- &#45;17&#45;&gt;9 -->
<g id="edge84" class="edge">
<title>&#45;17&#45;&gt;9</title>
<path fill="none" stroke="red" stroke-width="0.43" d="M1045.39,-70.93C1043.42,-63.4 1040.53,-52.33 1037.92,-42.31"/>
<polygon fill="red" stroke="red" stroke-width="0.43" points="1041.32,-41.5 1035.41,-32.71 1034.55,-43.27 1041.32,-41.5"/>
</g>
<!-- &#45;18 -->
<g id="node18" class="node">
<title>&#45;18</title>
<polygon fill="lightgray" stroke="black" points="1463.75,-90.61 1435.75,-90.61 1435.75,-71.36 1463.75,-71.36 1463.75,-90.61"/>
<text text-anchor="middle" x="1449.75" y="-78.06" font-family="Times New Roman,serif" font-size="9.00">&#45;18</text>
</g>
<!-- &#45;19 -->
<g id="node19" class="node">
<title>&#45;19</title>
<polygon fill="lightgray" stroke="black" points="831.75,-90.61 803.75,-90.61 803.75,-71.36 831.75,-71.36 831.75,-90.61"/>
<text text-anchor="middle" x="817.75" y="-78.06" font-family="Times New Roman,serif" font-size="9.00">&#45;19</text>
</g>
<!-- &#45;19&#45;&gt;0 -->
<g id="edge80" class="edge">
<title>&#45;19&#45;&gt;0</title>
<path fill="none" stroke="green" stroke-width="0.44" d="M803.29,-74.05C800.49,-73.05 797.55,-72.09 794.75,-71.36 695.12,-45.13 666.34,-57.63 565.75,-35.36 554.36,-32.83 541.91,-29.35 531.47,-26.22"/>
<polygon fill="green" stroke="green" stroke-width="0.44" points="532.67,-22.93 522.09,-23.33 530.62,-29.62 532.67,-22.93"/>
</g>
<!-- &#45;19&#45;&gt;1 -->
<g id="edge83" class="edge">
<title>&#45;19&#45;&gt;1</title>
<path fill="none" stroke="green" stroke-width="0.61" d="M803.27,-74.43C775.5,-63.79 714.57,-40.45 681.03,-27.6"/>
<polygon fill="green" stroke="green" stroke-width="0.61" points="682.63,-24.46 672.04,-24.15 680.13,-31 682.63,-24.46"/>
</g>
<!-- &#45;19&#45;&gt;6 -->
<g id="edge1" class="edge">
<title>&#45;19&#45;&gt;6</title>
<path fill="none" stroke="green" stroke-width="0.19" d="M810.96,-70.93C804.49,-62.32 794.55,-49.06 786.29,-38.05"/>
<polygon fill="green" stroke="green" stroke-width="0.19" points="789.1,-35.97 780.3,-30.07 783.5,-40.17 789.1,-35.97"/>
</g>
<!-- &#45;19&#45;&gt;10 -->
<g id="edge41" class="edge">
<title>&#45;19&#45;&gt;10</title>
<path fill="none" stroke="green" stroke-width="0.54" d="M832.21,-74.08C835.01,-73.07 837.95,-72.11 840.75,-71.36 933.89,-46.31 962.47,-63.4 1054.75,-35.36 1058.62,-34.18 1062.61,-32.69 1066.48,-31.09"/>
<polygon fill="green" stroke="green" stroke-width="0.54" points="1067.8,-34.34 1075.51,-27.07 1064.95,-27.94 1067.8,-34.34"/>
</g>
<!-- &#45;20 -->
<g id="node20" class="node">
<title>&#45;20</title>
<polygon fill="lightgray" stroke="black" points="517.75,-90.61 489.75,-90.61 489.75,-71.36 517.75,-71.36 517.75,-90.61"/>
<text text-anchor="middle" x="503.75" y="-78.06" font-family="Times New Roman,serif" font-size="9.00">&#45;20</text>
</g>
<!-- &#45;20&#45;&gt;0 -->
<g id="edge18" class="edge">
<title>&#45;20&#45;&gt;0</title>
<path fill="none" stroke="green" stroke-width="0.64" stroke-dasharray="1,5" d="M504.34,-70.93C504.82,-63.66 505.51,-53.07 506.14,-43.33"/>
<polygon fill="green" stroke="green" stroke-width="0.64" points="509.62,-43.7 506.78,-33.5 502.64,-43.25 509.62,-43.7"/>
</g>
<!-- &#45;20&#45;&gt;2 -->
<g id="edge27" class="edge">
<title>&#45;20&#45;&gt;2</title>
<path fill="none" stroke="red" stroke-width="1.32" d="M489.25,-74.19C486.46,-73.18 483.53,-72.18 480.75,-71.36 410.05,-50.36 386,-65.63 318.75,-35.36 317.94,-34.99 317.13,-34.6 316.33,-34.17"/>
<polygon fill="red" stroke="red" stroke-width="1.32" points="318.39,-31.34 308.09,-28.88 314.61,-37.23 318.39,-31.34"/>
</g>
<!-- &#45;20&#45;&gt;6 -->
<g id="edge29" class="edge">
<title>&#45;20&#45;&gt;6</title>
<path fill="none" stroke="green" stroke-width="0.26" d="M518.24,-74.18C521.04,-73.16 523.97,-72.17 526.75,-71.36 568.44,-59.13 694.22,-33.91 747.49,-23.42"/>
<polygon fill="green" stroke="green" stroke-width="0.26" points="747.9,-26.91 757.04,-21.55 746.55,-20.04 747.9,-26.91"/>
</g>
<!-- &#45;20&#45;&gt;8 -->
<g id="edge65" class="edge">
<title>&#45;20&#45;&gt;8</title>
<path fill="none" stroke="green" stroke-width="0.15" stroke-dasharray="1,5" d="M497.41,-70.93C491.36,-62.32 482.06,-49.06 474.34,-38.05"/>
<polygon fill="green" stroke="green" stroke-width="0.15" points="477.32,-36.2 468.71,-30.02 471.58,-40.22 477.32,-36.2"/>
</g>
<!-- &#45;20&#45;&gt;12 -->
<g id="edge79" class="edge">
<title>&#45;20&#45;&gt;12</title>
<path fill="none" stroke="green" stroke-width="0.52" d="M516.88,-70.93C530.75,-61.38 552.9,-46.13 569.69,-34.56"/>
<polygon fill="green" stroke="green" stroke-width="0.52" points="571.49,-37.57 577.74,-29.02 567.52,-31.81 571.49,-37.57"/>
</g>
<!-- &#45;20&#45;&gt;13 -->
<g id="edge44" class="edge">
<title>&#45;20&#45;&gt;13</title>
<path fill="none" stroke="red" stroke-width="0.13" d="M489.45,-74.43C462.76,-64.08 405.04,-41.68 371.44,-28.65"/>
<polygon fill="red" stroke="red" stroke-width="0.13" points="373.02,-25.5 362.43,-25.15 370.49,-32.03 373.02,-25.5"/>
</g>
<!-- &#45;21 -->
<g id="node21" class="node">
<title>&#45;21</title>
<polygon fill="lightgray" stroke="black" points="1195.75,-90.61 1167.75,-90.61 1167.75,-71.36 1195.75,-71.36 1195.75,-90.61"/>
<text text-anchor="middle" x="1181.75" y="-78.06" font-family="Times New Roman,serif" font-size="9.00">&#45;21</text>
</g>
<!-- &#45;21&#45;&gt;10 -->
<g id="edge34" class="edge">
<title>&#45;21&#45;&gt;10</title>
<path fill="none" stroke="green" stroke-width="0.6" d="M1168.47,-70.93C1154.44,-61.38 1132.05,-46.13 1115.07,-34.56"/>
<polygon fill="green" stroke="green" stroke-width="0.6" points="1117.26,-31.82 1107.03,-29.08 1113.32,-37.61 1117.26,-31.82"/>
</g>
<!-- &#45;22 -->
<g id="node22" class="node">
<title>&#45;22</title>
<polygon fill="lightgray" stroke="black" points="111.75,-90.61 83.75,-90.61 83.75,-71.36 111.75,-71.36 111.75,-90.61"/>
<text text-anchor="middle" x="97.75" y="-78.06" font-family="Times New Roman,serif" font-size="9.00">&#45;22</text>
</g>
<!-- &#45;22&#45;&gt;5 -->
<g id="edge48" class="edge">
<title>&#45;22&#45;&gt;5</title>
<path fill="none" stroke="red" stroke-width="0.27" d="M112.21,-71.46C129.94,-61 160.14,-43.2 180.51,-31.2"/>
<polygon fill="red" stroke="red" stroke-width="0.27" points="182.18,-34.28 189.01,-26.18 178.62,-28.25 182.18,-34.28"/>
</g>
<!-- &#45;23 -->
<g id="node23" class="node">
<title>&#45;23</title>
<polygon fill="lightgray" stroke="black" points="383.75,-90.61 355.75,-90.61 355.75,-71.36 383.75,-71.36 383.75,-90.61"/>
<text text-anchor="middle" x="369.75" y="-78.06" font-family="Times New Roman,serif" font-size="9.00">&#45;23</text>
</g>
<!-- &#45;23&#45;&gt;0 -->
<g id="edge55" class="edge">
<title>&#45;23&#45;&gt;0</title>
<path fill="none" stroke="red" stroke-width="0.34" stroke-dasharray="1,5" d="M384.09,-74.58C412.62,-63.81 474.56,-40.26 483.75,-35.36 485.09,-34.64 486.45,-33.86 487.8,-33.05"/>
<polygon fill="red" stroke="red" stroke-width="0.34" points="489.53,-36.1 495.95,-27.67 485.68,-30.26 489.53,-36.1"/>
</g>
<!-- &#45;23&#45;&gt;4 -->
<g id="edge43" class="edge">
<title>&#45;23&#45;&gt;4</title>
<path fill="none" stroke="green" stroke-width="0.1" d="M376.24,-70.93C382.43,-62.32 391.95,-49.06 399.84,-38.05"/>
<polygon fill="green" stroke="green" stroke-width="0.1" points="402.66,-40.14 405.64,-29.97 396.97,-36.05 402.66,-40.14"/>
</g>
<!-- &#45;24 -->
<g id="node24" class="node">
<title>&#45;24</title>
<polygon fill="lightgray" stroke="black" points="877.75,-90.61 849.75,-90.61 849.75,-71.36 877.75,-71.36 877.75,-90.61"/>
<text text-anchor="middle" x="863.75" y="-78.06" font-family="Times New Roman,serif" font-size="9.00">&#45;24</text>
</g>
<!-- &#45;24&#45;&gt;3 -->
<g id="edge32" class="edge">
<title>&#45;24&#45;&gt;3</title>
<path fill="none" stroke="red" stroke-width="0.13" d="M877.32,-70.93C892.65,-60.72 917.74,-44.01 935.4,-32.23"/>
<polygon fill="red" stroke="red" stroke-width="0.13" points="937.33,-35.16 943.71,-26.7 933.44,-29.34 937.33,-35.16"/>
</g>
<!-- &#45;24&#45;&gt;6 -->
<g id="edge38" class="edge">
<title>&#45;24&#45;&gt;6</title>
<path fill="none" stroke="red" stroke-width="0.32" stroke-dasharray="1,5" d="M850.18,-70.93C834.85,-60.72 809.76,-44.01 792.1,-32.23"/>
<polygon fill="red" stroke="red" stroke-width="0.32" points="794.29,-29.49 784.03,-26.86 790.41,-35.32 794.29,-29.49"/>
</g>
<!-- &#45;24&#45;&gt;12 -->
<g id="edge85" class="edge">
<title>&#45;24&#45;&gt;12</title>
<path fill="none" stroke="green" stroke-width="0.51" d="M849.28,-74.09C846.48,-73.08 843.55,-72.12 840.75,-71.36 751.07,-46.93 724.19,-60.64 634.75,-35.36 629.41,-33.85 623.82,-31.9 618.52,-29.87"/>
<polygon fill="green" stroke="green" stroke-width="0.51" points="620.14,-26.75 609.56,-26.25 617.52,-33.24 620.14,-26.75"/>
</g>
<!-- &#45;25 -->
<g id="node25" class="node">
<title>&#45;25</title>
<polygon fill="lightgray" stroke="black" points="249.75,-90.61 221.75,-90.61 221.75,-71.36 249.75,-71.36 249.75,-90.61"/>
<text text-anchor="middle" x="235.75" y="-78.06" font-family="Times New Roman,serif" font-size="9.00">&#45;25</text>
</g>
<!-- &#45;25&#45;&gt;4 -->
<g id="edge63" class="edge">
<title>&#45;25&#45;&gt;4</title>
<path fill="none" stroke="red" stroke-width="0.27" d="M249.79,-74.48C252.73,-73.39 255.83,-72.3 258.75,-71.36 316.61,-52.66 335.91,-61.63 390.75,-35.36 392.08,-34.72 393.42,-34 394.74,-33.23"/>
<polygon fill="red" stroke="red" stroke-width="0.27" points="396.33,-36.38 402.69,-27.91 392.43,-30.56 396.33,-36.38"/>
</g>
<!-- &#45;25&#45;&gt;5 -->
<g id="edge26" class="edge">
<title>&#45;25&#45;&gt;5</title>
<path fill="none" stroke="red" stroke-width="0.16" d="M230.73,-70.93C226.16,-62.69 219.24,-50.21 213.3,-39.51"/>
<polygon fill="red" stroke="red" stroke-width="0.16" points="216.46,-37.98 208.55,-30.93 210.34,-41.38 216.46,-37.98"/>
</g>
<!-- &#45;25&#45;&gt;7 -->
<g id="edge68" class="edge">
<title>&#45;25&#45;&gt;7</title>
<path fill="none" stroke="green" stroke-width="0.52" d="M237.67,-70.93C239.27,-63.4 241.61,-52.33 243.74,-42.31"/>
<polygon fill="green" stroke="green" stroke-width="0.52" points="247.1,-43.34 245.75,-32.83 240.25,-41.89 247.1,-43.34"/>
</g>
<!-- &#45;25&#45;&gt;8 -->
<g id="edge5" class="edge">
<title>&#45;25&#45;&gt;8</title>
<path fill="none" stroke="red" stroke-width="0.36" stroke-dasharray="1,5" d="M250.23,-74.15C253.03,-73.14 255.96,-72.15 258.75,-71.36 336.34,-49.11 362.52,-67.04 436.75,-35.36 438.35,-34.67 439.96,-33.87 441.54,-32.99"/>
<polygon fill="red" stroke="red" stroke-width="0.36" points="443.11,-36.14 449.62,-27.78 439.32,-30.26 443.11,-36.14"/>
</g>
<!-- &#45;25&#45;&gt;13 -->
<g id="edge9" class="edge">
<title>&#45;25&#45;&gt;13</title>
<path fill="none" stroke="green" stroke-width="0.23" d="M249.99,-72.66C266.64,-64.02 294.94,-49.09 318.75,-35.36 319.88,-34.7 321.03,-34.03 322.18,-33.35"/>
<polygon fill="green" stroke="green" stroke-width="0.23" points="323.95,-36.37 330.69,-28.2 320.32,-30.38 323.95,-36.37"/>
</g>
<!-- &#45;26 -->
<g id="node26" class="node">
<title>&#45;26</title>
<polygon fill="lightgray" stroke="black" points="605.75,-90.61 577.75,-90.61 577.75,-71.36 605.75,-71.36 605.75,-90.61"/>
<text text-anchor="middle" x="591.75" y="-78.06" font-family="Times New Roman,serif" font-size="9.00">&#45;26</text>
</g>
<!-- &#45;26&#45;&gt;1 -->
<g id="edge69" class="edge">
<title>&#45;26&#45;&gt;1</title>
<path fill="none" stroke="green" stroke-width="0.18" d="M601.49,-70.93C611.61,-61.54 627.66,-46.62 640.04,-35.13"/>
<polygon fill="green" stroke="green" stroke-width="0.18" points="642.39,-37.72 647.33,-28.35 637.62,-32.59 642.39,-37.72"/>
</g>
<!-- &#45;26&#45;&gt;13 -->
<g id="edge31" class="edge">
<title>&#45;26&#45;&gt;13</title>
<path fill="none" stroke="green" stroke-width="0.53" stroke-dasharray="1,5" d="M577.27,-74.15C574.47,-73.14 571.54,-72.15 568.75,-71.36 491.16,-49.11 468.38,-57.45 390.75,-35.36 384.49,-33.57 377.85,-31.32 371.66,-29.06"/>
<polygon fill="green" stroke="green" stroke-width="0.53" points="373.14,-25.88 362.55,-25.6 370.65,-32.42 373.14,-25.88"/>
</g>
<!-- &#45;27 -->
<g id="node27" class="node">
<title>&#45;27</title>
<polygon fill="lightgray" stroke="black" points="203.75,-90.61 175.75,-90.61 175.75,-71.36 203.75,-71.36 203.75,-90.61"/>
<text text-anchor="middle" x="189.75" y="-78.06" font-family="Times New Roman,serif" font-size="9.00">&#45;27</text>
</g>
<!-- &#45;27&#45;&gt;2 -->
<g id="edge59" class="edge">
<title>&#45;27&#45;&gt;2</title>
<path fill="none" stroke="red" stroke-width="0.21" d="M204.24,-72.7C220.84,-64.23 248.72,-49.57 271.75,-35.36 273.05,-34.56 274.37,-33.72 275.69,-32.85"/>
<polygon fill="red" stroke="red" stroke-width="0.21" points="277.63,-35.77 283.94,-27.26 273.7,-29.97 277.63,-35.77"/>
</g>
<!-- &#45;27&#45;&gt;7 -->
<g id="edge2" class="edge">
<title>&#45;27&#45;&gt;7</title>
<path fill="none" stroke="green" stroke-width="0.12" d="M198.46,-70.93C207.31,-61.73 221.25,-47.25 232.21,-35.86"/>
<polygon fill="green" stroke="green" stroke-width="0.12" points="234.69,-38.34 239.1,-28.71 229.64,-33.48 234.69,-38.34"/>
</g>
<!-- &#45;28 -->
<g id="node28" class="node">
<title>&#45;28</title>
<polygon fill="lightgray" stroke="black" points="923.75,-90.61 895.75,-90.61 895.75,-71.36 923.75,-71.36 923.75,-90.61"/>
<text text-anchor="middle" x="909.75" y="-78.06" font-family="Times New Roman,serif" font-size="9.00">&#45;28</text>
</g>
<!-- &#45;28&#45;&gt;5 -->
<g id="edge7" class="edge">
<title>&#45;28&#45;&gt;5</title>
<path fill="none" stroke="red" stroke-width="0.16" d="M895.35,-73.82C892.54,-72.84 889.59,-71.95 886.75,-71.36 742.77,-41.18 364.88,-83.14 225.75,-35.36 224.1,-34.79 222.46,-34.07 220.86,-33.26"/>
<polygon fill="red" stroke="red" stroke-width="0.16" points="222.81,-30.35 212.48,-28 219.09,-36.28 222.81,-30.35"/>
</g>
<!-- &#45;28&#45;&gt;6 -->
<g id="edge19" class="edge">
<title>&#45;28&#45;&gt;6</title>
<path fill="none" stroke="green" stroke-width="1.12" d="M895.5,-73.65C871.79,-63.12 824.01,-41.89 795.25,-29.12"/>
<polygon fill="green" stroke="green" stroke-width="1.12" points="797.01,-26.07 786.45,-25.21 794.17,-32.47 797.01,-26.07"/>
</g>
<!-- &#45;28&#45;&gt;10 -->
<g id="edge82" class="edge">
<title>&#45;28&#45;&gt;10</title>
<path fill="none" stroke="red" stroke-width="0.19" d="M923.8,-74.53C926.74,-73.44 929.84,-72.33 932.75,-71.36 986.36,-53.42 1001.75,-55.02 1054.75,-35.36 1058.76,-33.87 1062.96,-32.15 1067.02,-30.39"/>
<polygon fill="red" stroke="red" stroke-width="0.19" points="1068.15,-33.71 1075.84,-26.42 1065.28,-27.33 1068.15,-33.71"/>
</g>
<!-- &#45;29 -->
<g id="node29" class="node">
<title>&#45;29</title>
<polygon fill="lightgray" stroke="black" points="1149.75,-90.61 1121.75,-90.61 1121.75,-71.36 1149.75,-71.36 1149.75,-90.61"/>
<text text-anchor="middle" x="1135.75" y="-78.06" font-family="Times New Roman,serif" font-size="9.00">&#45;29</text>
</g>
<!-- &#45;29&#45;&gt;8 -->
<g id="edge46" class="edge">
<title>&#45;29&#45;&gt;8</title>
<path fill="none" stroke="green" stroke-width="0.36" d="M1121.35,-73.83C1118.54,-72.84 1115.59,-71.95 1112.75,-71.36 975.98,-42.49 616.89,-80.95 484.75,-35.36 483.1,-34.79 481.46,-34.07 479.86,-33.25"/>
<polygon fill="green" stroke="green" stroke-width="0.36" points="482.07,-30.51 471.74,-28.16 478.35,-36.44 482.07,-30.51"/>
</g>
<!-- &#45;29&#45;&gt;10 -->
<g id="edge70" class="edge">
<title>&#45;29&#45;&gt;10</title>
<path fill="none" stroke="green" stroke-width="0.23" stroke-dasharray="1,5" d="M1129.26,-70.93C1123.58,-63.02 1115.1,-51.21 1107.64,-40.81"/>
<polygon fill="green" stroke="green" stroke-width="0.23" points="1110.57,-38.9 1101.9,-32.82 1104.89,-42.98 1110.57,-38.9"/>
</g>
<!-- &#45;29&#45;&gt;11 -->
<g id="edge72" class="edge">
<title>&#45;29&#45;&gt;11</title>
<path fill="none" stroke="red" stroke-width="0.25" d="M1143.13,-70.93C1149.73,-62.84 1159.67,-50.66 1168.29,-40.09"/>
<polygon fill="red" stroke="red" stroke-width="0.25" points="1170.98,-42.33 1174.58,-32.37 1165.55,-37.9 1170.98,-42.33"/>
</g>
<!-- &#45;30 -->
<g id="node30" class="node">
<title>&#45;30</title>
<polygon fill="lightgray" stroke="black" points="785.75,-90.61 757.75,-90.61 757.75,-71.36 785.75,-71.36 785.75,-90.61"/>
<text text-anchor="middle" x="771.75" y="-78.06" font-family="Times New Roman,serif" font-size="9.00">&#45;30</text>
</g>
<!-- &#45;30&#45;&gt;0 -->
<g id="edge67" class="edge">
<title>&#45;30&#45;&gt;0</title>
<path fill="none" stroke="green" stroke-width="0.17" d="M757.27,-74.14C754.47,-73.13 751.54,-72.15 748.75,-71.36 669.01,-48.73 646.32,-54.83 565.75,-35.36 554.29,-32.59 541.7,-29.03 531.19,-25.91"/>
<polygon fill="green" stroke="green" stroke-width="0.17" points="532.33,-22.6 521.74,-23.06 530.31,-29.3 532.33,-22.6"/>
</g>
<!-- &#45;30&#45;&gt;3 -->
<g id="edge73" class="edge">
<title>&#45;30&#45;&gt;3</title>
<path fill="none" stroke="red" stroke-width="0.13" d="M785.83,-74.59C788.77,-73.5 791.85,-72.37 794.75,-71.36 843.37,-54.29 900.84,-35.91 932.29,-26.01"/>
<polygon fill="red" stroke="red" stroke-width="0.13" points="933.22,-29.39 941.71,-23.05 931.12,-22.71 933.22,-29.39"/>
</g>
<!-- &#45;31 -->
<g id="node31" class="node">
<title>&#45;31</title>
<polygon fill="lightgray" stroke="black" points="1287.75,-90.61 1259.75,-90.61 1259.75,-71.36 1287.75,-71.36 1287.75,-90.61"/>
<text text-anchor="middle" x="1273.75" y="-78.06" font-family="Times New Roman,serif" font-size="9.00">&#45;31</text>
</g>
<!-- &#45;31&#45;&gt;9 -->
<g id="edge35" class="edge">
<title>&#45;31&#45;&gt;9</title>
<path fill="none" stroke="green" stroke-width="0.27" d="M1259.27,-74.13C1256.47,-73.12 1253.54,-72.14 1250.75,-71.36 1169.71,-48.49 1144.42,-62.61 1064.75,-35.36 1060.83,-34.01 1056.79,-32.29 1052.94,-30.46"/>
<polygon fill="green" stroke="green" stroke-width="0.27" points="1054.79,-27.47 1044.29,-26.04 1051.6,-33.71 1054.79,-27.47"/>
</g>
<!-- &#45;31&#45;&gt;11 -->
<g id="edge25" class="edge">
<title>&#45;31&#45;&gt;11</title>
<path fill="none" stroke="red" stroke-width="0.46" stroke-dasharray="1,5" d="M1260.77,-70.93C1247.05,-61.38 1225.15,-46.13 1208.55,-34.56"/>
<polygon fill="red" stroke="red" stroke-width="0.46" points="1210.73,-31.82 1200.53,-28.97 1206.73,-37.56 1210.73,-31.82"/>
</g>
<!-- &#45;32 -->
<g id="node32" class="node">
<title>&#45;32</title>
<polygon fill="lightgray" stroke="black" points="739.75,-90.61 711.75,-90.61 711.75,-71.36 739.75,-71.36 739.75,-90.61"/>
<text text-anchor="middle" x="725.75" y="-78.06" font-family="Times New Roman,serif" font-size="9.00">&#45;32</text>
</g>
<!-- &#45;32&#45;&gt;6 -->
<g id="edge24" class="edge">
<title>&#45;32&#45;&gt;6</title>
<path fill="none" stroke="green" stroke-width="0.39" stroke-dasharray="1,5" d="M732.54,-70.93C739.01,-62.32 748.95,-49.06 757.21,-38.05"/>
<polygon fill="green" stroke="green" stroke-width="0.39" points="759.81,-40.42 763.02,-30.32 754.21,-36.22 759.81,-40.42"/>
</g>
<!-- &#45;32&#45;&gt;8 -->
<g id="edge36" class="edge">
<title>&#45;32&#45;&gt;8</title>
<path fill="none" stroke="red" stroke-width="0.12" stroke-dasharray="1,5" d="M711.29,-74.07C708.49,-73.06 705.55,-72.1 702.75,-71.36 607.88,-45.99 575.74,-72.28 484.75,-35.36 483.13,-34.7 481.52,-33.92 479.93,-33.06"/>
<polygon fill="red" stroke="red" stroke-width="0.12" points="481.85,-30.13 471.54,-27.68 478.07,-36.02 481.85,-30.13"/>
</g>
<!-- &#45;33 -->
<g id="node33" class="node">
<title>&#45;33</title>
<polygon fill="lightgray" stroke="black" points="651.75,-90.61 623.75,-90.61 623.75,-71.36 651.75,-71.36 651.75,-90.61"/>
<text text-anchor="middle" x="637.75" y="-78.06" font-family="Times New Roman,serif" font-size="9.00">&#45;33</text>
</g>
<!-- &#45;33&#45;&gt;0 -->
<g id="edge53" class="edge">
<title>&#45;33&#45;&gt;0</title>
<path fill="none" stroke="green" stroke-width="0.28" d="M623.34,-73.19C600.71,-62.52 556.68,-41.75 529.98,-29.16"/>
<polygon fill="green" stroke="green" stroke-width="0.28" points="531.59,-26.05 521.05,-24.95 528.6,-32.38 531.59,-26.05"/>
</g>
<!-- &#45;33&#45;&gt;1 -->
<g id="edge37" class="edge">
<title>&#45;33&#45;&gt;1</title>
<path fill="none" stroke="red" stroke-width="0.11" d="M640.7,-70.93C643.24,-63.14 647.02,-51.56 650.38,-41.27"/>
<polygon fill="red" stroke="red" stroke-width="0.11" points="653.7,-42.36 653.48,-31.77 647.05,-40.19 653.7,-42.36"/>
</g>
<!-- &#45;33&#45;&gt;3 -->
<g id="edge45" class="edge">
<title>&#45;33&#45;&gt;3</title>
<path fill="none" stroke="red" stroke-width="0.17" d="M652.22,-74.1C655.02,-73.09 657.95,-72.12 660.75,-71.36 759.14,-44.36 879.9,-27.81 931.02,-21.55"/>
<polygon fill="red" stroke="red" stroke-width="0.17" points="931.34,-25.03 940.85,-20.36 930.51,-18.08 931.34,-25.03"/>
</g>
<!-- &#45;33&#45;&gt;5 -->
<g id="edge10" class="edge">
<title>&#45;33&#45;&gt;5</title>
<path fill="none" stroke="green" stroke-width="0.86" d="M623.33,-73.91C620.52,-72.92 617.58,-72 614.75,-71.36 445.52,-32.53 388.86,-94.86 225.75,-35.36 224.41,-34.87 223.07,-34.28 221.76,-33.63"/>
<polygon fill="green" stroke="green" stroke-width="0.86" points="223.76,-30.76 213.42,-28.46 220.07,-36.7 223.76,-30.76"/>
</g>
<!-- &#45;33&#45;&gt;12 -->
<g id="edge71" class="edge">
<title>&#45;33&#45;&gt;12</title>
<path fill="none" stroke="red" stroke-width="0.42" d="M631.11,-70.93C625.3,-63.02 616.63,-51.21 609,-40.81"/>
<polygon fill="red" stroke="red" stroke-width="0.42" points="612.03,-39.03 603.3,-33.04 606.39,-43.18 612.03,-39.03"/>
</g>
<!-- 3&#45;&gt;3 -->
<g id="edge61" class="edge">
<title>3&#45;&gt;3</title>
<path fill="none" stroke="red" stroke-width="0.26" d="M967.07,-27.43C977.3,-32.18 988.25,-28.93 988.25,-17.68 988.25,-10.12 983.3,-6.17 976.96,-5.83"/>
<polygon fill="red" stroke="red" stroke-width="0.26" points="976.51,-2.35 967.45,-7.84 977.96,-9.2 976.51,-2.35"/>
</g>
<!-- 13&#45;&gt;13 -->
<g id="edge15" class="edge">
<title>13&#45;&gt;13</title>
<path fill="none" stroke="green" stroke-width="0.49" d="M360.41,-28.27C370.94,-31.72 381.43,-28.19 381.43,-17.68 381.43,-10.78 376.91,-6.89 370.83,-6"/>
<polygon fill="green" stroke="green" stroke-width="0.49" points="370.73,-2.5 361.15,-7.01 371.45,-9.46 370.73,-2.5"/>
</g>
</g>
</svg>
