<?xml version="1.0" encoding="UTF-8" standalone="no"?>
<!DOCTYPE svg PUBLIC "-//W3C//DTD SVG 1.1//EN"
 "http://www.w3.org/Graphics/SVG/1.1/DTD/svg11.dtd">
<!-- Generated by graphviz version 9.0.0 (20230911.1827)
 -->
<!-- Pages: 1 -->
<svg width="1737pt" height="189pt"
 viewBox="0.00 0.00 1737.35 189.05" xmlns="http://www.w3.org/2000/svg" xmlns:xlink="http://www.w3.org/1999/xlink">
<g id="graph0" class="graph" transform="scale(1 1) rotate(0) translate(4 185.05)">
<polygon fill="white" stroke="none" points="-4,4 -4,-185.05 1733.35,-185.05 1733.35,4 -4,4"/>
<!-- &#45;1 -->
<g id="node1" class="node">
<title>&#45;1</title>
<polygon fill="lightgray" stroke="black" points="530.1,-108.2 506.6,-108.2 506.6,-88.95 530.1,-88.95 530.1,-108.2"/>
<text text-anchor="middle" x="518.35" y="-95.65" font-family="Times New Roman,serif" font-size="9.00">&#45;1</text>
</g>
<!-- 3 -->
<g id="node37" class="node">
<title>3</title>
<ellipse fill="lightblue" stroke="black" cx="256.35" cy="-17.68" rx="14.5" ry="14.5"/>
<text text-anchor="middle" x="256.35" y="-14.75" font-family="Times New Roman,serif" font-size="9.00">3</text>
</g>
<!-- &#45;1&#45;&gt;3 -->
<g id="edge69" class="edge">
<title>&#45;1&#45;&gt;3</title>
<path fill="none" stroke="green" stroke-width="0.66" stroke-dasharray="1,5" d="M513.43,-88.71C509.75,-82.89 504.19,-75.6 497.35,-71.36 428.05,-28.35 328.5,-20.18 282.04,-18.81"/>
<polygon fill="green" stroke="green" stroke-width="0.66" points="282.25,-15.32 272.18,-18.61 282.11,-22.31 282.25,-15.32"/>
</g>
<!-- 7 -->
<g id="node41" class="node">
<title>7</title>
<ellipse fill="lightblue" stroke="black" cx="432.35" cy="-17.68" rx="14.5" ry="14.5"/>
<text text-anchor="middle" x="432.35" y="-14.75" font-family="Times New Roman,serif" font-size="9.00">7</text>
</g>
<!-- &#45;1&#45;&gt;7 -->
<g id="edge77" class="edge">
<title>&#45;1&#45;&gt;7</title>
<path fill="none" stroke="red" stroke-width="0.49" d="M512.16,-88.92C508.19,-83.62 502.77,-76.82 497.35,-71.36 483.37,-57.29 465.82,-43.25 452.48,-33.21"/>
<polygon fill="red" stroke="red" stroke-width="0.49" points="454.72,-30.51 444.6,-27.37 450.55,-36.14 454.72,-30.51"/>
</g>
<!-- 8 -->
<g id="node42" class="node">
<title>8</title>
<ellipse fill="lightblue" stroke="black" cx="752.35" cy="-17.68" rx="14.5" ry="14.5"/>
<text text-anchor="middle" x="752.35" y="-14.75" font-family="Times New Roman,serif" font-size="9.00">8</text>
</g>
<!-- &#45;1&#45;&gt;8 -->
<g id="edge65" class="edge">
<title>&#45;1&#45;&gt;8</title>
<path fill="none" stroke="green" stroke-width="0.51" d="M530.37,-91.7C542.16,-86.06 560.74,-77.52 577.35,-71.36 630.26,-51.72 694.14,-33.94 728.19,-24.91"/>
<polygon fill="green" stroke="green" stroke-width="0.51" points="729.01,-28.32 737.79,-22.39 727.23,-21.55 729.01,-28.32"/>
</g>
<!-- 11 -->
<g id="node45" class="node">
<title>11</title>
<ellipse fill="lightblue" stroke="black" cx="558.35" cy="-17.68" rx="17.68" ry="17.68"/>
<text text-anchor="middle" x="558.35" y="-14.75" font-family="Times New Roman,serif" font-size="9.00">11</text>
</g>
<!-- &#45;1&#45;&gt;11 -->
<g id="edge43" class="edge">
<title>&#45;1&#45;&gt;11</title>
<path fill="none" stroke="red" stroke-width="0.13" d="M522.94,-88.53C528.54,-77.47 538.25,-58.31 546.09,-42.86"/>
<polygon fill="red" stroke="red" stroke-width="0.13" points="549.18,-44.49 550.58,-33.99 542.94,-41.33 549.18,-44.49"/>
</g>
<!-- 12 -->
<g id="node46" class="node">
<title>12</title>
<ellipse fill="lightblue" stroke="black" cx="975.35" cy="-17.68" rx="17.68" ry="17.68"/>
<text text-anchor="middle" x="975.35" y="-14.75" font-family="Times New Roman,serif" font-size="9.00">12</text>
</g>
<!-- &#45;1&#45;&gt;12 -->
<g id="edge63" class="edge">
<title>&#45;1&#45;&gt;12</title>
<path fill="none" stroke="green" stroke-width="0.83" d="M530.58,-90.74C542.23,-84.57 560.44,-75.81 577.35,-71.36 737.55,-29.17 791.36,-88.26 948.35,-35.36 949.47,-34.98 950.59,-34.54 951.71,-34.07"/>
<polygon fill="green" stroke="green" stroke-width="0.83" points="953.05,-37.32 960.26,-29.56 949.79,-31.13 953.05,-37.32"/>
</g>
<!-- &#45;2 -->
<g id="node2" class="node">
<title>&#45;2</title>
<polygon fill="lightgray" stroke="black" points="1054.1,-108.2 1030.6,-108.2 1030.6,-88.95 1054.1,-88.95 1054.1,-108.2"/>
<text text-anchor="middle" x="1042.35" y="-95.65" font-family="Times New Roman,serif" font-size="9.00">&#45;2</text>
</g>
<!-- 0 -->
<g id="node34" class="node">
<title>0</title>
<ellipse fill="lightblue" stroke="black" cx="822.35" cy="-17.68" rx="14.5" ry="14.5"/>
<text text-anchor="middle" x="822.35" y="-14.75" font-family="Times New Roman,serif" font-size="9.00">0</text>
</g>
<!-- &#45;2&#45;&gt;0 -->
<g id="edge4" class="edge">
<title>&#45;2&#45;&gt;0</title>
<path fill="none" stroke="green" stroke-width="0.36" d="M1037.21,-88.55C1033.51,-82.81 1027.99,-75.68 1021.35,-71.36 1006.59,-61.75 896.6,-35.71 846.76,-24.24"/>
<polygon fill="green" stroke="green" stroke-width="0.36" points="847.62,-20.84 837.09,-22.02 846.06,-27.66 847.62,-20.84"/>
</g>
<!-- 5 -->
<g id="node39" class="node">
<title>5</title>
<ellipse fill="lightblue" stroke="black" cx="925.35" cy="-17.68" rx="14.5" ry="14.5"/>
<text text-anchor="middle" x="925.35" y="-14.75" font-family="Times New Roman,serif" font-size="9.00">5</text>
</g>
<!-- &#45;2&#45;&gt;5 -->
<g id="edge16" class="edge">
<title>&#45;2&#45;&gt;5</title>
<path fill="none" stroke="green" stroke-width="0.13" stroke-dasharray="1,5" d="M1036.56,-88.48C1032.74,-83 1027.35,-76.18 1021.35,-71.36 993.15,-48.7 979.32,-54.04 948.35,-35.36 947.08,-34.59 945.79,-33.78 944.51,-32.93"/>
<polygon fill="green" stroke="green" stroke-width="0.13" points="946.68,-30.18 936.48,-27.32 942.67,-35.92 946.68,-30.18"/>
</g>
<!-- 9 -->
<g id="node43" class="node">
<title>9</title>
<ellipse fill="lightblue" stroke="black" cx="1131.35" cy="-17.68" rx="14.5" ry="14.5"/>
<text text-anchor="middle" x="1131.35" y="-14.75" font-family="Times New Roman,serif" font-size="9.00">9</text>
</g>
<!-- &#45;2&#45;&gt;9 -->
<g id="edge42" class="edge">
<title>&#45;2&#45;&gt;9</title>
<path fill="none" stroke="green" stroke-width="0.21" d="M1048.49,-88.88C1052.45,-83.56 1057.86,-76.76 1063.35,-71.36 1078.33,-56.61 1097.4,-42.15 1111.53,-32.12"/>
<polygon fill="green" stroke="green" stroke-width="0.21" points="1113.14,-35.26 1119.34,-26.67 1109.14,-29.52 1113.14,-35.26"/>
</g>
<!-- &#45;3 -->
<g id="node3" class="node">
<title>&#45;3</title>
<polygon fill="lightgray" stroke="black" points="652.1,-108.2 628.6,-108.2 628.6,-88.95 652.1,-88.95 652.1,-108.2"/>
<text text-anchor="middle" x="640.35" y="-95.65" font-family="Times New Roman,serif" font-size="9.00">&#45;3</text>
</g>
<!-- 1 -->
<g id="node35" class="node">
<title>1</title>
<ellipse fill="lightblue" stroke="black" cx="121.35" cy="-17.68" rx="14.5" ry="14.5"/>
<text text-anchor="middle" x="121.35" y="-14.75" font-family="Times New Roman,serif" font-size="9.00">1</text>
</g>
<!-- &#45;3&#45;&gt;1 -->
<g id="edge26" class="edge">
<title>&#45;3&#45;&gt;1</title>
<path fill="none" stroke="green" stroke-width="0.52" d="M635.77,-88.65C632.17,-82.65 626.57,-75.17 619.35,-71.36 525.93,-22.04 244.88,-70.74 145.35,-35.36 143.85,-34.82 142.37,-34.17 140.91,-33.44"/>
<polygon fill="green" stroke="green" stroke-width="0.52" points="142.9,-30.56 132.56,-28.23 139.19,-36.5 142.9,-30.56"/>
</g>
<!-- &#45;3&#45;&gt;8 -->
<g id="edge67" class="edge">
<title>&#45;3&#45;&gt;8</title>
<path fill="none" stroke="red" stroke-width="0.53" d="M646.25,-88.61C650.11,-83.19 655.51,-76.37 661.35,-71.36 682.23,-53.4 710.11,-38.31 729.48,-28.95"/>
<polygon fill="red" stroke="red" stroke-width="0.53" points="730.73,-32.23 738.29,-24.81 727.75,-25.89 730.73,-32.23"/>
</g>
<!-- &#45;3&#45;&gt;9 -->
<g id="edge27" class="edge">
<title>&#45;3&#45;&gt;9</title>
<path fill="none" stroke="green" stroke-width="0.18" d="M644.94,-88.68C648.54,-82.69 654.15,-75.21 661.35,-71.36 742.78,-27.8 984.63,-52.62 1075.35,-35.36 1086.29,-33.27 1098.16,-29.91 1108.13,-26.74"/>
<polygon fill="green" stroke="green" stroke-width="0.18" points="1109.07,-30.12 1117.47,-23.66 1106.88,-23.47 1109.07,-30.12"/>
</g>
<!-- &#45;4 -->
<g id="node4" class="node">
<title>&#45;4</title>
<polygon fill="lightgray" stroke="black" points="610.1,-108.2 586.6,-108.2 586.6,-88.95 610.1,-88.95 610.1,-108.2"/>
<text text-anchor="middle" x="598.35" y="-95.65" font-family="Times New Roman,serif" font-size="9.00">&#45;4</text>
</g>
<!-- &#45;4&#45;&gt;3 -->
<g id="edge50" class="edge">
<title>&#45;4&#45;&gt;3</title>
<path fill="none" stroke="green" stroke-width="0.58" d="M586.46,-91.3C574.77,-85.37 556.26,-76.61 539.35,-71.36 446.78,-42.61 332.03,-27.18 281.85,-21.39"/>
<polygon fill="green" stroke="green" stroke-width="0.58" points="282.27,-17.92 271.94,-20.28 281.49,-24.88 282.27,-17.92"/>
</g>
<!-- &#45;4&#45;&gt;8 -->
<g id="edge78" class="edge">
<title>&#45;4&#45;&gt;8</title>
<path fill="none" stroke="red" stroke-width="0.49" d="M603.83,-88.55C607.6,-82.97 613.06,-76 619.35,-71.36 652.85,-46.6 699.55,-31.67 727.77,-24.32"/>
<polygon fill="red" stroke="red" stroke-width="0.49" points="728.38,-27.77 737.24,-21.96 726.69,-20.98 728.38,-27.77"/>
</g>
<!-- 13 -->
<g id="node47" class="node">
<title>13</title>
<ellipse fill="lightblue" stroke="black" cx="1048.35" cy="-17.68" rx="17.68" ry="17.68"/>
<text text-anchor="middle" x="1048.35" y="-14.75" font-family="Times New Roman,serif" font-size="9.00">13</text>
</g>
<!-- &#45;4&#45;&gt;13 -->
<g id="edge74" class="edge">
<title>&#45;4&#45;&gt;13</title>
<path fill="none" stroke="red" stroke-width="0.56" stroke-dasharray="1,5" d="M602.95,-88.69C606.55,-82.71 612.16,-75.23 619.35,-71.36 694.59,-30.77 918.94,-54.08 1002.35,-35.36 1009.09,-33.84 1016.2,-31.61 1022.75,-29.26"/>
<polygon fill="red" stroke="red" stroke-width="0.56" points="1023.57,-32.69 1031.67,-25.87 1021.08,-26.15 1023.57,-32.69"/>
</g>
<!-- &#45;5 -->
<g id="node5" class="node">
<title>&#45;5</title>
<polygon fill="lightgray" stroke="black" points="224.1,-108.2 200.6,-108.2 200.6,-88.95 224.1,-88.95 224.1,-108.2"/>
<text text-anchor="middle" x="212.35" y="-95.65" font-family="Times New Roman,serif" font-size="9.00">&#45;5</text>
</g>
<!-- &#45;5&#45;&gt;3 -->
<g id="edge82" class="edge">
<title>&#45;5&#45;&gt;3</title>
<path fill="none" stroke="green" stroke-width="0.47" d="M217.39,-88.53C223.94,-76.8 235.55,-55.96 244.41,-40.09"/>
<polygon fill="green" stroke="green" stroke-width="0.47" points="247.33,-42.03 249.15,-31.59 241.22,-38.62 247.33,-42.03"/>
</g>
<!-- &#45;6 -->
<g id="node6" class="node">
<title>&#45;6</title>
<polygon fill="lightgray" stroke="black" points="1188.1,-108.2 1164.6,-108.2 1164.6,-88.95 1188.1,-88.95 1188.1,-108.2"/>
<text text-anchor="middle" x="1176.35" y="-95.65" font-family="Times New Roman,serif" font-size="9.00">&#45;6</text>
</g>
<!-- &#45;6&#45;&gt;8 -->
<g id="edge57" class="edge">
<title>&#45;6&#45;&gt;8</title>
<path fill="none" stroke="green" stroke-width="0.25" d="M1171.74,-88.71C1168.13,-82.73 1162.52,-75.26 1155.35,-71.36 1015.65,4.63 954.51,-70.2 799.35,-35.36 791.33,-33.56 782.8,-30.8 775.24,-28.04"/>
<polygon fill="green" stroke="green" stroke-width="0.25" points="776.61,-24.82 766.02,-24.51 774.1,-31.35 776.61,-24.82"/>
</g>
<!-- 10 -->
<g id="node44" class="node">
<title>10</title>
<ellipse fill="lightblue" stroke="black" cx="1198.35" cy="-17.68" rx="17.68" ry="17.68"/>
<text text-anchor="middle" x="1198.35" y="-14.75" font-family="Times New Roman,serif" font-size="9.00">10</text>
</g>
<!-- &#45;6&#45;&gt;10 -->
<g id="edge84" class="edge">
<title>&#45;6&#45;&gt;10</title>
<path fill="none" stroke="red" stroke-width="0.47" stroke-dasharray="1,5" d="M1178.87,-88.53C1181.79,-78.04 1186.75,-60.28 1190.93,-45.29"/>
<polygon fill="red" stroke="red" stroke-width="0.47" points="1194.29,-46.27 1193.6,-35.7 1187.54,-44.39 1194.29,-46.27"/>
</g>
<!-- &#45;7 -->
<g id="node7" class="node">
<title>&#45;7</title>
<polygon fill="lightgray" stroke="black" points="44.1,-108.2 20.6,-108.2 20.6,-88.95 44.1,-88.95 44.1,-108.2"/>
<text text-anchor="middle" x="32.35" y="-95.65" font-family="Times New Roman,serif" font-size="9.00">&#45;7</text>
</g>
<!-- &#45;7&#45;&gt;1 -->
<g id="edge79" class="edge">
<title>&#45;7&#45;&gt;1</title>
<path fill="none" stroke="green" stroke-width="0.72" d="M38.49,-88.88C42.45,-83.56 47.86,-76.76 53.35,-71.36 68.05,-56.89 86.68,-42.7 100.72,-32.7"/>
<polygon fill="green" stroke="green" stroke-width="0.72" points="102.52,-35.71 108.71,-27.11 98.51,-29.97 102.52,-35.71"/>
</g>
<!-- 6 -->
<g id="node40" class="node">
<title>6</title>
<ellipse fill="lightblue" stroke="black" cx="168.35" cy="-17.68" rx="14.5" ry="14.5"/>
<text text-anchor="middle" x="168.35" y="-14.75" font-family="Times New Roman,serif" font-size="9.00">6</text>
</g>
<!-- &#45;7&#45;&gt;6 -->
<g id="edge10" class="edge">
<title>&#45;7&#45;&gt;6</title>
<path fill="none" stroke="red" stroke-width="0.31" d="M37.83,-88.55C41.6,-82.97 47.06,-76 53.35,-71.36 88.33,-45.52 106.01,-55.9 144.35,-35.36 145.69,-34.64 147.05,-33.86 148.4,-33.04"/>
<polygon fill="red" stroke="red" stroke-width="0.31" points="150.16,-36.07 156.58,-27.64 146.31,-30.23 150.16,-36.07"/>
</g>
<!-- &#45;8 -->
<g id="node8" class="node">
<title>&#45;8</title>
<polygon fill="lightgray" stroke="black" points="1637.1,-181.05 1613.6,-181.05 1613.6,-161.8 1637.1,-161.8 1637.1,-181.05"/>
<text text-anchor="middle" x="1625.35" y="-168.5" font-family="Times New Roman,serif" font-size="9.00">&#45;8</text>
</g>
<!-- 2 -->
<g id="node36" class="node">
<title>2</title>
<ellipse fill="lightblue" stroke="black" cx="1625.35" cy="-98.58" rx="14.5" ry="14.5"/>
<text text-anchor="middle" x="1625.35" y="-95.65" font-family="Times New Roman,serif" font-size="9.00">2</text>
</g>
<!-- &#45;8&#45;&gt;2 -->
<g id="edge25" class="edge">
<title>&#45;8&#45;&gt;2</title>
<path fill="none" stroke="green" stroke-width="0.3" d="M1625.35,-161.45C1625.35,-151.97 1625.35,-136.61 1625.35,-123.57"/>
<polygon fill="green" stroke="green" stroke-width="0.3" points="1628.85,-123.79 1625.35,-113.79 1621.85,-123.79 1628.85,-123.79"/>
</g>
<!-- &#45;9 -->
<g id="node9" class="node">
<title>&#45;9</title>
<polygon fill="lightgray" stroke="black" points="404.1,-108.2 380.6,-108.2 380.6,-88.95 404.1,-88.95 404.1,-108.2"/>
<text text-anchor="middle" x="392.35" y="-95.65" font-family="Times New Roman,serif" font-size="9.00">&#45;9</text>
</g>
<!-- &#45;9&#45;&gt;7 -->
<g id="edge39" class="edge">
<title>&#45;9&#45;&gt;7</title>
<path fill="none" stroke="red" stroke-width="0.42" d="M396.94,-88.53C402.85,-76.86 413.32,-56.2 421.35,-40.36"/>
<polygon fill="red" stroke="red" stroke-width="0.42" points="424.28,-42.32 425.68,-31.82 418.04,-39.16 424.28,-42.32"/>
</g>
<!-- &#45;10 -->
<g id="node10" class="node">
<title>&#45;10</title>
<polygon fill="lightgray" stroke="black" points="966.35,-108.2 938.35,-108.2 938.35,-88.95 966.35,-88.95 966.35,-108.2"/>
<text text-anchor="middle" x="952.35" y="-95.65" font-family="Times New Roman,serif" font-size="9.00">&#45;10</text>
</g>
<!-- &#45;10&#45;&gt;0 -->
<g id="edge3" class="edge">
<title>&#45;10&#45;&gt;0</title>
<path fill="none" stroke="red" stroke-width="0.37" d="M945.85,-88.51C941.61,-83.04 935.69,-76.22 929.35,-71.36 903.39,-51.45 868.72,-36.05 845.98,-27.18"/>
<polygon fill="red" stroke="red" stroke-width="0.37" points="847.27,-23.92 836.68,-23.66 844.79,-30.47 847.27,-23.92"/>
</g>
<!-- &#45;10&#45;&gt;5 -->
<g id="edge49" class="edge">
<title>&#45;10&#45;&gt;5</title>
<path fill="none" stroke="green" stroke-width="0.56" d="M949.25,-88.53C945.38,-77.21 938.61,-57.44 933.26,-41.81"/>
<polygon fill="green" stroke="green" stroke-width="0.56" points="936.66,-40.93 930.11,-32.6 930.04,-43.2 936.66,-40.93"/>
</g>
<!-- &#45;10&#45;&gt;8 -->
<g id="edge2" class="edge">
<title>&#45;10&#45;&gt;8</title>
<path fill="none" stroke="green" stroke-width="0.18" d="M946.52,-88.58C942.38,-82.86 936.32,-75.73 929.35,-71.36 878.57,-39.49 856.52,-53.39 799.35,-35.36 791.51,-32.88 783.03,-29.95 775.46,-27.24"/>
<polygon fill="green" stroke="green" stroke-width="0.18" points="776.68,-23.97 766.09,-23.84 774.29,-30.55 776.68,-23.97"/>
</g>
<!-- &#45;10&#45;&gt;10 -->
<g id="edge35" class="edge">
<title>&#45;10&#45;&gt;10</title>
<path fill="none" stroke="green" stroke-width="0.34" stroke-dasharray="1,5" d="M957.89,-88.67C962,-82.83 968.11,-75.54 975.35,-71.36 1045.58,-30.71 1076.37,-57.81 1154.35,-35.36 1160.38,-33.62 1166.76,-31.42 1172.73,-29.19"/>
<polygon fill="green" stroke="green" stroke-width="0.34" points="1173.72,-32.57 1181.78,-25.69 1171.19,-26.04 1173.72,-32.57"/>
</g>
<!-- &#45;10&#45;&gt;11 -->
<g id="edge33" class="edge">
<title>&#45;10&#45;&gt;11</title>
<path fill="none" stroke="red" stroke-width="0.11" d="M946.88,-88.54C942.81,-82.64 936.7,-75.33 929.35,-71.36 899.16,-55.02 666.65,-29.82 585.88,-21.47"/>
<polygon fill="red" stroke="red" stroke-width="0.11" points="586.42,-18.01 576.12,-20.47 585.71,-24.97 586.42,-18.01"/>
</g>
<!-- &#45;10&#45;&gt;12 -->
<g id="edge73" class="edge">
<title>&#45;10&#45;&gt;12</title>
<path fill="none" stroke="green" stroke-width="0.34" d="M954.99,-88.53C958.07,-77.94 963.32,-59.93 967.72,-44.85"/>
<polygon fill="green" stroke="green" stroke-width="0.34" points="971,-46.09 970.44,-35.51 964.28,-44.13 971,-46.09"/>
</g>
<!-- &#45;11 -->
<g id="node11" class="node">
<title>&#45;11</title>
<polygon fill="lightgray" stroke="black" points="1280.35,-108.2 1252.35,-108.2 1252.35,-88.95 1280.35,-88.95 1280.35,-108.2"/>
<text text-anchor="middle" x="1266.35" y="-95.65" font-family="Times New Roman,serif" font-size="9.00">&#45;11</text>
</g>
<!-- &#45;11&#45;&gt;10 -->
<g id="edge30" class="edge">
<title>&#45;11&#45;&gt;10</title>
<path fill="none" stroke="green" stroke-width="0.52" stroke-dasharray="1,5" d="M1258.55,-88.53C1248.33,-76.67 1230.1,-55.52 1216.36,-39.58"/>
<polygon fill="green" stroke="green" stroke-width="0.52" points="1219.36,-37.69 1210.18,-32.4 1214.05,-42.26 1219.36,-37.69"/>
</g>
<!-- &#45;11&#45;&gt;12 -->
<g id="edge40" class="edge">
<title>&#45;11&#45;&gt;12</title>
<path fill="none" stroke="red" stroke-width="0.31" d="M1260.85,-88.58C1256.77,-82.71 1250.66,-75.4 1243.35,-71.36 1155.91,-22.93 1118.09,-60.5 1021.35,-35.36 1014.76,-33.64 1007.8,-31.37 1001.34,-29.06"/>
<polygon fill="red" stroke="red" stroke-width="0.31" points="1002.75,-25.85 992.16,-25.62 1000.3,-32.41 1002.75,-25.85"/>
</g>
<!-- &#45;12 -->
<g id="node12" class="node">
<title>&#45;12</title>
<polygon fill="lightgray" stroke="black" points="1100.35,-108.2 1072.35,-108.2 1072.35,-88.95 1100.35,-88.95 1100.35,-108.2"/>
<text text-anchor="middle" x="1086.35" y="-95.65" font-family="Times New Roman,serif" font-size="9.00">&#45;12</text>
</g>
<!-- &#45;12&#45;&gt;5 -->
<g id="edge46" class="edge">
<title>&#45;12&#45;&gt;5</title>
<path fill="none" stroke="red" stroke-width="0.24" d="M1080.47,-88.66C1076.31,-82.97 1070.25,-75.85 1063.35,-71.36 1018.46,-42.14 996.21,-59.39 948.35,-35.36 947.02,-34.69 945.7,-33.95 944.38,-33.17"/>
<polygon fill="red" stroke="red" stroke-width="0.24" points="946.66,-30.48 936.41,-27.79 942.74,-36.29 946.66,-30.48"/>
</g>
<!-- &#45;12&#45;&gt;12 -->
<g id="edge53" class="edge">
<title>&#45;12&#45;&gt;12</title>
<path fill="none" stroke="red" stroke-width="0.42" d="M1079.71,-88.68C1075.41,-83.29 1069.49,-76.47 1063.35,-71.36 1043.96,-55.19 1019.06,-40.78 1000.7,-31.13"/>
<polygon fill="red" stroke="red" stroke-width="0.42" points="1002.32,-28.02 991.82,-26.57 999.12,-34.25 1002.32,-28.02"/>
</g>
<!-- &#45;12&#45;&gt;13 -->
<g id="edge45" class="edge">
<title>&#45;12&#45;&gt;13</title>
<path fill="none" stroke="green" stroke-width="0.51" d="M1081.99,-88.53C1076.74,-77.64 1067.72,-58.9 1060.34,-43.58"/>
<polygon fill="green" stroke="green" stroke-width="0.51" points="1063.61,-42.3 1056.11,-34.81 1057.3,-45.33 1063.61,-42.3"/>
</g>
<!-- &#45;13 -->
<g id="node13" class="node">
<title>&#45;13</title>
<polygon fill="lightgray" stroke="black" points="1683.35,-181.05 1655.35,-181.05 1655.35,-161.8 1683.35,-161.8 1683.35,-181.05"/>
<text text-anchor="middle" x="1669.35" y="-168.5" font-family="Times New Roman,serif" font-size="9.00">&#45;13</text>
</g>
<!-- &#45;14 -->
<g id="node14" class="node">
<title>&#45;14</title>
<polygon fill="lightgray" stroke="black" points="1482.35,-108.2 1454.35,-108.2 1454.35,-88.95 1482.35,-88.95 1482.35,-108.2"/>
<text text-anchor="middle" x="1468.35" y="-95.65" font-family="Times New Roman,serif" font-size="9.00">&#45;14</text>
</g>
<!-- 4 -->
<g id="node38" class="node">
<title>4</title>
<ellipse fill="lightblue" stroke="black" cx="1468.35" cy="-17.68" rx="14.5" ry="14.5"/>
<text text-anchor="middle" x="1468.35" y="-14.75" font-family="Times New Roman,serif" font-size="9.00">4</text>
</g>
<!-- &#45;14&#45;&gt;4 -->
<g id="edge75" class="edge">
<title>&#45;14&#45;&gt;4</title>
<path fill="none" stroke="red" stroke-width="0.14" d="M1468.35,-88.53C1468.35,-77.41 1468.35,-58.12 1468.35,-42.63"/>
<polygon fill="red" stroke="red" stroke-width="0.14" points="1471.85,-42.86 1468.35,-32.86 1464.85,-42.86 1471.85,-42.86"/>
</g>
<!-- &#45;14&#45;&gt;9 -->
<g id="edge52" class="edge">
<title>&#45;14&#45;&gt;9</title>
<path fill="none" stroke="green" stroke-width="0.25" d="M1462.89,-88.51C1458.83,-82.61 1452.72,-75.29 1445.35,-71.36 1337.02,-13.47 1289.95,-67.27 1171.35,-35.36 1165.3,-33.73 1158.95,-31.39 1153.14,-28.99"/>
<polygon fill="green" stroke="green" stroke-width="0.25" points="1154.92,-25.95 1144.36,-25.12 1152.1,-32.35 1154.92,-25.95"/>
</g>
<!-- &#45;15 -->
<g id="node15" class="node">
<title>&#45;15</title>
<polygon fill="lightgray" stroke="black" points="182.35,-108.2 154.35,-108.2 154.35,-88.95 182.35,-88.95 182.35,-108.2"/>
<text text-anchor="middle" x="168.35" y="-95.65" font-family="Times New Roman,serif" font-size="9.00">&#45;15</text>
</g>
<!-- &#45;15&#45;&gt;3 -->
<g id="edge62" class="edge">
<title>&#45;15&#45;&gt;3</title>
<path fill="none" stroke="green" stroke-width="0.59" d="M175.66,-88.5C180.01,-83.28 185.76,-76.73 191.35,-71.36 205.64,-57.61 223.17,-43.55 236.42,-33.41"/>
<polygon fill="green" stroke="green" stroke-width="0.59" points="238.23,-36.43 244.11,-27.61 234.01,-30.84 238.23,-36.43"/>
</g>
<!-- &#45;15&#45;&gt;6 -->
<g id="edge81" class="edge">
<title>&#45;15&#45;&gt;6</title>
<path fill="none" stroke="green" stroke-width="0.65" d="M168.35,-88.53C168.35,-77.63 168.35,-58.86 168.35,-43.53"/>
<polygon fill="green" stroke="green" stroke-width="0.65" points="171.85,-43.64 168.35,-33.64 164.85,-43.64 171.85,-43.64"/>
</g>
<!-- &#45;15&#45;&gt;11 -->
<g id="edge76" class="edge">
<title>&#45;15&#45;&gt;11</title>
<path fill="none" stroke="red" stroke-width="0.21" d="M173.81,-88.52C177.88,-82.62 183.99,-75.31 191.35,-71.36 295.66,-15.29 338.22,-52.82 455.35,-35.36 480.98,-31.53 510.13,-26.77 530.86,-23.32"/>
<polygon fill="red" stroke="red" stroke-width="0.21" points="531.27,-26.8 540.56,-21.7 530.11,-19.9 531.27,-26.8"/>
</g>
<!-- &#45;16 -->
<g id="node16" class="node">
<title>&#45;16</title>
<polygon fill="lightgray" stroke="black" points="1234.35,-108.2 1206.35,-108.2 1206.35,-88.95 1234.35,-88.95 1234.35,-108.2"/>
<text text-anchor="middle" x="1220.35" y="-95.65" font-family="Times New Roman,serif" font-size="9.00">&#45;16</text>
</g>
<!-- &#45;16&#45;&gt;0 -->
<g id="edge34" class="edge">
<title>&#45;16&#45;&gt;0</title>
<path fill="none" stroke="red" stroke-width="0.12" d="M1214.9,-88.49C1210.84,-82.57 1204.74,-75.26 1197.35,-71.36 1080.56,-9.65 1032.67,-56.85 902.35,-35.36 883.28,-32.21 861.87,-27.69 845.99,-24.15"/>
<polygon fill="red" stroke="red" stroke-width="0.12" points="847.15,-20.83 836.63,-22.03 845.61,-27.65 847.15,-20.83"/>
</g>
<!-- &#45;16&#45;&gt;9 -->
<g id="edge87" class="edge">
<title>&#45;16&#45;&gt;9</title>
<path fill="none" stroke="red" stroke-width="0.39" d="M1213.05,-88.48C1208.7,-83.26 1202.95,-76.71 1197.35,-71.36 1182.56,-57.24 1164.3,-42.87 1150.73,-32.71"/>
<polygon fill="red" stroke="red" stroke-width="0.39" points="1153.18,-30.17 1143.06,-27.04 1149.02,-35.8 1153.18,-30.17"/>
</g>
<!-- &#45;16&#45;&gt;10 -->
<g id="edge17" class="edge">
<title>&#45;16&#45;&gt;10</title>
<path fill="none" stroke="red" stroke-width="0.14" d="M1217.82,-88.53C1214.84,-77.84 1209.75,-59.59 1205.52,-44.42"/>
<polygon fill="red" stroke="red" stroke-width="0.14" points="1209.01,-43.9 1202.96,-35.21 1202.27,-45.78 1209.01,-43.9"/>
</g>
<!-- &#45;17 -->
<g id="node17" class="node">
<title>&#45;17</title>
<polygon fill="lightgray" stroke="black" points="1146.35,-108.2 1118.35,-108.2 1118.35,-88.95 1146.35,-88.95 1146.35,-108.2"/>
<text text-anchor="middle" x="1132.35" y="-95.65" font-family="Times New Roman,serif" font-size="9.00">&#45;17</text>
</g>
<!-- &#45;17&#45;&gt;3 -->
<g id="edge83" class="edge">
<title>&#45;17&#45;&gt;3</title>
<path fill="none" stroke="green" stroke-width="0.32" d="M1127.16,-88.58C1123.14,-82.55 1116.98,-75.05 1109.35,-71.36 1039.26,-37.4 486.98,-41.58 409.35,-35.36 363.8,-31.7 310.84,-25.49 280.68,-21.77"/>
<polygon fill="green" stroke="green" stroke-width="0.32" points="281.51,-18.34 271.15,-20.58 280.64,-25.29 281.51,-18.34"/>
</g>
<!-- &#45;17&#45;&gt;4 -->
<g id="edge51" class="edge">
<title>&#45;17&#45;&gt;4</title>
<path fill="none" stroke="red" stroke-width="0.26" d="M1137.85,-88.6C1141.93,-82.73 1148.05,-75.43 1155.35,-71.36 1205.05,-43.63 1378.31,-26.35 1443.39,-20.71"/>
<polygon fill="red" stroke="red" stroke-width="0.26" points="1443.48,-24.22 1453.15,-19.88 1442.89,-17.24 1443.48,-24.22"/>
</g>
<!-- &#45;17&#45;&gt;13 -->
<g id="edge56" class="edge">
<title>&#45;17&#45;&gt;13</title>
<path fill="none" stroke="green" stroke-width="0.37" d="M1124.97,-88.56C1120.6,-83.37 1114.85,-76.82 1109.35,-71.36 1096.88,-58.98 1081.97,-46.08 1070.01,-36.14"/>
<polygon fill="green" stroke="green" stroke-width="0.37" points="1072.29,-33.48 1062.34,-29.83 1067.84,-38.88 1072.29,-33.48"/>
</g>
<!-- &#45;18 -->
<g id="node18" class="node">
<title>&#45;18</title>
<polygon fill="lightgray" stroke="black" points="698.35,-108.2 670.35,-108.2 670.35,-88.95 698.35,-88.95 698.35,-108.2"/>
<text text-anchor="middle" x="684.35" y="-95.65" font-family="Times New Roman,serif" font-size="9.00">&#45;18</text>
</g>
<!-- &#45;18&#45;&gt;0 -->
<g id="edge70" class="edge">
<title>&#45;18&#45;&gt;0</title>
<path fill="none" stroke="red" stroke-width="0.34" d="M690.42,-88.94C694.66,-83.37 700.74,-76.27 707.35,-71.36 722.64,-59.96 770.11,-39.78 799.06,-27.98"/>
<polygon fill="red" stroke="red" stroke-width="0.34" points="800.36,-31.23 808.32,-24.24 797.74,-24.74 800.36,-31.23"/>
</g>
<!-- &#45;18&#45;&gt;7 -->
<g id="edge48" class="edge">
<title>&#45;18&#45;&gt;7</title>
<path fill="none" stroke="red" stroke-width="0.38" d="M678.58,-88.48C674.47,-82.72 668.42,-75.58 661.35,-71.36 643.74,-60.84 512.43,-34.33 456.96,-23.45"/>
<polygon fill="red" stroke="red" stroke-width="0.38" points="457.69,-20.02 447.2,-21.54 456.35,-26.89 457.69,-20.02"/>
</g>
<!-- &#45;18&#45;&gt;8 -->
<g id="edge41" class="edge">
<title>&#45;18&#45;&gt;8</title>
<path fill="none" stroke="green" stroke-width="0.39" d="M692.15,-88.53C702.9,-76.05 722.53,-53.28 736.45,-37.13"/>
<polygon fill="green" stroke="green" stroke-width="0.39" points="738.87,-39.68 742.74,-29.82 733.56,-35.11 738.87,-39.68"/>
</g>
<!-- &#45;18&#45;&gt;9 -->
<g id="edge7" class="edge">
<title>&#45;18&#45;&gt;9</title>
<path fill="none" stroke="green" stroke-width="0.2" d="M689.59,-88.69C693.63,-82.71 699.8,-75.23 707.35,-71.36 780.45,-33.84 994.71,-51.15 1075.35,-35.36 1086.28,-33.21 1098.14,-29.84 1108.12,-26.68"/>
<polygon fill="green" stroke="green" stroke-width="0.2" points="1109.03,-30.07 1117.44,-23.63 1106.85,-23.42 1109.03,-30.07"/>
</g>
<!-- &#45;19 -->
<g id="node19" class="node">
<title>&#45;19</title>
<polygon fill="lightgray" stroke="black" points="1729.35,-181.05 1701.35,-181.05 1701.35,-161.8 1729.35,-161.8 1729.35,-181.05"/>
<text text-anchor="middle" x="1715.35" y="-168.5" font-family="Times New Roman,serif" font-size="9.00">&#45;19</text>
</g>
<!-- &#45;20 -->
<g id="node20" class="node">
<title>&#45;20</title>
<polygon fill="lightgray" stroke="black" points="1012.35,-108.2 984.35,-108.2 984.35,-88.95 1012.35,-88.95 1012.35,-108.2"/>
<text text-anchor="middle" x="998.35" y="-95.65" font-family="Times New Roman,serif" font-size="9.00">&#45;20</text>
</g>
<!-- &#45;20&#45;&gt;8 -->
<g id="edge86" class="edge">
<title>&#45;20&#45;&gt;8</title>
<path fill="none" stroke="red" stroke-width="0.17" d="M992.8,-88.68C988.69,-82.85 982.57,-75.55 975.35,-71.36 906.31,-31.25 876.27,-56.76 799.35,-35.36 791.43,-33.15 782.93,-30.29 775.36,-27.56"/>
<polygon fill="red" stroke="red" stroke-width="0.17" points="776.59,-24.29 766,-24.09 774.16,-30.85 776.59,-24.29"/>
</g>
<!-- &#45;20&#45;&gt;9 -->
<g id="edge85" class="edge">
<title>&#45;20&#45;&gt;9</title>
<path fill="none" stroke="red" stroke-width="0.17" d="M1004.82,-88.48C1009.06,-83.01 1014.98,-76.18 1021.35,-71.36 1048.39,-50.85 1084.69,-35.37 1108.05,-26.66"/>
<polygon fill="red" stroke="red" stroke-width="0.17" points="1109.05,-30.03 1117.26,-23.34 1106.67,-23.44 1109.05,-30.03"/>
</g>
<!-- &#45;20&#45;&gt;11 -->
<g id="edge60" class="edge">
<title>&#45;20&#45;&gt;11</title>
<path fill="none" stroke="green" stroke-width="0.67" d="M992.9,-88.5C988.83,-82.59 982.73,-75.28 975.35,-71.36 958.12,-62.2 678.62,-31.58 587.1,-21.74"/>
<polygon fill="green" stroke="green" stroke-width="0.67" points="587.52,-18.27 577.2,-20.68 586.77,-25.23 587.52,-18.27"/>
</g>
<!-- &#45;20&#45;&gt;13 -->
<g id="edge6" class="edge">
<title>&#45;20&#45;&gt;13</title>
<path fill="none" stroke="red" stroke-width="0.66" d="M1004.08,-88.53C1011.18,-77.33 1023.52,-57.85 1033.38,-42.3"/>
<polygon fill="red" stroke="red" stroke-width="0.66" points="1036.19,-44.4 1038.59,-34.08 1030.28,-40.65 1036.19,-44.4"/>
</g>
<!-- &#45;21 -->
<g id="node21" class="node">
<title>&#45;21</title>
<polygon fill="lightgray" stroke="black" points="316.35,-108.2 288.35,-108.2 288.35,-88.95 316.35,-88.95 316.35,-108.2"/>
<text text-anchor="middle" x="302.35" y="-95.65" font-family="Times New Roman,serif" font-size="9.00">&#45;21</text>
</g>
<!-- &#45;21&#45;&gt;0 -->
<g id="edge22" class="edge">
<title>&#45;21&#45;&gt;0</title>
<path fill="none" stroke="red" stroke-width="0.28" d="M307.57,-88.65C311.6,-82.65 317.77,-75.16 325.35,-71.36 415,-26.34 677.24,-56.31 775.35,-35.36 783.38,-33.64 791.91,-30.91 799.47,-28.14"/>
<polygon fill="red" stroke="red" stroke-width="0.28" points="800.58,-31.47 808.65,-24.6 798.06,-24.94 800.58,-31.47"/>
</g>
<!-- &#45;21&#45;&gt;1 -->
<g id="edge59" class="edge">
<title>&#45;21&#45;&gt;1</title>
<path fill="none" stroke="green" stroke-width="0.46" d="M296.53,-88.56C292.39,-82.84 286.34,-75.71 279.35,-71.36 226.99,-38.77 201.27,-61.34 145.35,-35.36 143.91,-34.69 142.46,-33.93 141.04,-33.13"/>
<polygon fill="green" stroke="green" stroke-width="0.46" points="142.97,-30.21 132.67,-27.7 139.16,-36.08 142.97,-30.21"/>
</g>
<!-- &#45;21&#45;&gt;7 -->
<g id="edge71" class="edge">
<title>&#45;21&#45;&gt;7</title>
<path fill="none" stroke="red" stroke-width="0.66" d="M308.84,-88.51C313.09,-83.04 319,-76.22 325.35,-71.36 351.19,-51.54 385.66,-36.19 408.41,-27.3"/>
<polygon fill="red" stroke="red" stroke-width="0.66" points="409.5,-30.63 417.61,-23.81 407.02,-24.08 409.5,-30.63"/>
</g>
<!-- &#45;22 -->
<g id="node22" class="node">
<title>&#45;22</title>
<polygon fill="lightgray" stroke="black" points="744.35,-108.2 716.35,-108.2 716.35,-88.95 744.35,-88.95 744.35,-108.2"/>
<text text-anchor="middle" x="730.35" y="-95.65" font-family="Times New Roman,serif" font-size="9.00">&#45;22</text>
</g>
<!-- &#45;22&#45;&gt;7 -->
<g id="edge1" class="edge">
<title>&#45;22&#45;&gt;7</title>
<path fill="none" stroke="red" stroke-width="0.14" d="M724.81,-88.65C720.72,-82.8 714.6,-75.51 707.35,-71.36 696.38,-65.08 521.82,-34.25 456.64,-22.89"/>
<polygon fill="red" stroke="red" stroke-width="0.14" points="457.47,-19.48 447.02,-21.22 456.28,-26.38 457.47,-19.48"/>
</g>
<!-- &#45;22&#45;&gt;8 -->
<g id="edge64" class="edge">
<title>&#45;22&#45;&gt;8</title>
<path fill="none" stroke="green" stroke-width="0.53" d="M732.87,-88.53C736.01,-77.28 741.48,-57.67 745.82,-42.08"/>
<polygon fill="green" stroke="green" stroke-width="0.53" points="749.08,-43.43 748.39,-32.85 742.34,-41.55 749.08,-43.43"/>
</g>
<!-- &#45;22&#45;&gt;10 -->
<g id="edge24" class="edge">
<title>&#45;22&#45;&gt;10</title>
<path fill="none" stroke="red" stroke-width="0.39" d="M735.58,-88.67C739.62,-82.68 745.79,-75.2 753.35,-71.36 833.11,-30.82 1067.15,-55.4 1154.35,-35.36 1160.47,-33.95 1166.88,-31.88 1172.86,-29.68"/>
<polygon fill="red" stroke="red" stroke-width="0.39" points="1173.81,-33.07 1181.83,-26.15 1171.25,-26.55 1173.81,-33.07"/>
</g>
<!-- &#45;23 -->
<g id="node23" class="node">
<title>&#45;23</title>
<polygon fill="lightgray" stroke="black" points="836.35,-108.2 808.35,-108.2 808.35,-88.95 836.35,-88.95 836.35,-108.2"/>
<text text-anchor="middle" x="822.35" y="-95.65" font-family="Times New Roman,serif" font-size="9.00">&#45;23</text>
</g>
<!-- &#45;23&#45;&gt;0 -->
<g id="edge38" class="edge">
<title>&#45;23&#45;&gt;0</title>
<path fill="none" stroke="green" stroke-width="0.13" d="M822.35,-88.53C822.35,-77.41 822.35,-58.12 822.35,-42.63"/>
<polygon fill="green" stroke="green" stroke-width="0.13" points="825.85,-42.86 822.35,-32.86 818.85,-42.86 825.85,-42.86"/>
</g>
<!-- &#45;23&#45;&gt;8 -->
<g id="edge11" class="edge">
<title>&#45;23&#45;&gt;8</title>
<path fill="none" stroke="red" stroke-width="0.33" d="M814.7,-88.82C810.23,-83.72 804.48,-77.16 799.35,-71.36 789.2,-59.88 777.75,-47.05 768.7,-36.93"/>
<polygon fill="red" stroke="red" stroke-width="0.33" points="771.35,-34.64 762.07,-29.52 766.13,-39.31 771.35,-34.64"/>
</g>
<!-- &#45;24 -->
<g id="node24" class="node">
<title>&#45;24</title>
<polygon fill="lightgray" stroke="black" points="136.35,-108.2 108.35,-108.2 108.35,-88.95 136.35,-88.95 136.35,-108.2"/>
<text text-anchor="middle" x="122.35" y="-95.65" font-family="Times New Roman,serif" font-size="9.00">&#45;24</text>
</g>
<!-- &#45;24&#45;&gt;1 -->
<g id="edge20" class="edge">
<title>&#45;24&#45;&gt;1</title>
<path fill="none" stroke="red" stroke-width="0.59" stroke-dasharray="1,5" d="M122.23,-88.53C122.09,-77.63 121.86,-58.86 121.66,-43.53"/>
<polygon fill="red" stroke="red" stroke-width="0.59" points="125.16,-43.5 121.54,-33.55 118.16,-43.59 125.16,-43.5"/>
</g>
<!-- &#45;24&#45;&gt;11 -->
<g id="edge72" class="edge">
<title>&#45;24&#45;&gt;11</title>
<path fill="none" stroke="red" stroke-width="0.63" d="M127.79,-88.48C131.84,-82.56 137.95,-75.24 145.35,-71.36 268.17,-6.91 317.96,-54.45 455.35,-35.36 480.78,-31.82 509.63,-27.09 530.31,-23.57"/>
<polygon fill="red" stroke="red" stroke-width="0.63" points="530.69,-27.05 539.95,-21.91 529.51,-20.15 530.69,-27.05"/>
</g>
<!-- &#45;25 -->
<g id="node25" class="node">
<title>&#45;25</title>
<polygon fill="lightgray" stroke="black" points="920.35,-108.2 892.35,-108.2 892.35,-88.95 920.35,-88.95 920.35,-108.2"/>
<text text-anchor="middle" x="906.35" y="-95.65" font-family="Times New Roman,serif" font-size="9.00">&#45;25</text>
</g>
<!-- &#45;25&#45;&gt;5 -->
<g id="edge14" class="edge">
<title>&#45;25&#45;&gt;5</title>
<path fill="none" stroke="red" stroke-width="0.32" d="M908.53,-88.53C911.23,-77.28 915.96,-57.67 919.71,-42.08"/>
<polygon fill="red" stroke="red" stroke-width="0.32" points="923.06,-43.1 922,-32.56 916.26,-41.46 923.06,-43.1"/>
</g>
<!-- &#45;25&#45;&gt;11 -->
<g id="edge12" class="edge">
<title>&#45;25&#45;&gt;11</title>
<path fill="none" stroke="red" stroke-width="1.13" d="M892.15,-90.39C880,-84.5 861.9,-76.36 845.35,-71.36 753.32,-43.52 640.01,-28 587.55,-21.84"/>
<polygon fill="red" stroke="red" stroke-width="1.13" points="588.18,-18.39 577.84,-20.73 587.38,-25.34 588.18,-18.39"/>
</g>
<!-- &#45;25&#45;&gt;12 -->
<g id="edge19" class="edge">
<title>&#45;25&#45;&gt;12</title>
<path fill="none" stroke="green" stroke-width="0.17" d="M914.26,-88.53C924.79,-76.49 943.69,-54.88 957.69,-38.87"/>
<polygon fill="green" stroke="green" stroke-width="0.17" points="959.99,-41.55 963.94,-31.72 954.72,-36.95 959.99,-41.55"/>
</g>
<!-- &#45;26 -->
<g id="node26" class="node">
<title>&#45;26</title>
<polygon fill="lightgray" stroke="black" points="1020.35,-181.05 992.35,-181.05 992.35,-161.8 1020.35,-161.8 1020.35,-181.05"/>
<text text-anchor="middle" x="1006.35" y="-168.5" font-family="Times New Roman,serif" font-size="9.00">&#45;26</text>
</g>
<!-- &#45;26&#45;&gt;1 -->
<g id="edge23" class="edge">
<title>&#45;26&#45;&gt;1</title>
<path fill="none" stroke="red" stroke-width="0.44" d="M992.06,-170.34C872.86,-169.57 46.82,-162.91 11.35,-125.8 -5.38,-108.31 -1.55,-91.83 11.35,-71.36 29.91,-41.88 70.04,-28.54 96.35,-22.76"/>
<polygon fill="red" stroke="red" stroke-width="0.44" points="96.9,-26.22 106.03,-20.85 95.54,-19.35 96.9,-26.22"/>
</g>
<!-- &#45;26&#45;&gt;9 -->
<g id="edge29" class="edge">
<title>&#45;26&#45;&gt;9</title>
<path fill="none" stroke="green" stroke-width="0.34" stroke-dasharray="1,5" d="M1020.52,-169.73C1083.8,-166.49 1338.33,-151.89 1361.35,-125.8 1377.36,-107.66 1376.78,-89.99 1361.35,-71.36 1306.52,-5.17 1253.68,-60.03 1171.35,-35.36 1165.58,-33.63 1159.51,-31.35 1153.89,-29.04"/>
<polygon fill="green" stroke="green" stroke-width="0.34" points="1155.46,-25.9 1144.9,-25.15 1152.68,-32.33 1155.46,-25.9"/>
</g>
<!-- &#45;26&#45;&gt;11 -->
<g id="edge68" class="edge">
<title>&#45;26&#45;&gt;11</title>
<path fill="none" stroke="green" stroke-width="0.15" d="M992.28,-169.95C921.7,-167.45 608.46,-154.75 577.35,-125.8 555.67,-105.63 553.42,-69.98 554.93,-45.38"/>
<polygon fill="green" stroke="green" stroke-width="0.15" points="558.41,-45.76 555.78,-35.5 551.43,-45.16 558.41,-45.76"/>
</g>
<!-- 11417 -->
<g id="node49" class="node">
<title>11417</title>
<ellipse fill="white" stroke="black" cx="1325.35" cy="-98.58" rx="27.22" ry="27.22"/>
<text text-anchor="middle" x="1325.35" y="-95.65" font-family="Times New Roman,serif" font-size="9.00">11417</text>
</g>
<!-- &#45;26&#45;&gt;11417 -->
<g id="edge90" class="edge">
<title>&#45;26&#45;&gt;11417</title>
<path fill="none" stroke="green" stroke-width="0.37" d="M1020.82,-170.5C1063.62,-170.23 1192.63,-165.9 1289.35,-125.8 1291.72,-124.82 1294.09,-123.65 1296.41,-122.35"/>
<polygon fill="green" stroke="green" stroke-width="0.37" points="1297.98,-125.5 1304.56,-117.2 1294.24,-119.58 1297.98,-125.5"/>
</g>
<!-- &#45;27 -->
<g id="node27" class="node">
<title>&#45;27</title>
<polygon fill="lightgray" stroke="black" points="270.35,-108.2 242.35,-108.2 242.35,-88.95 270.35,-88.95 270.35,-108.2"/>
<text text-anchor="middle" x="256.35" y="-95.65" font-family="Times New Roman,serif" font-size="9.00">&#45;27</text>
</g>
<!-- &#45;27&#45;&gt;1 -->
<g id="edge66" class="edge">
<title>&#45;27&#45;&gt;1</title>
<path fill="none" stroke="red" stroke-width="0.66" d="M250.34,-88.85C246.12,-83.24 240.05,-76.14 233.35,-71.36 198.94,-46.82 182.48,-55.53 145.35,-35.36 144.14,-34.7 142.93,-34 141.71,-33.27"/>
<polygon fill="red" stroke="red" stroke-width="0.66" points="143.85,-30.48 133.57,-27.9 140,-36.33 143.85,-30.48"/>
</g>
<!-- &#45;27&#45;&gt;3 -->
<g id="edge18" class="edge">
<title>&#45;27&#45;&gt;3</title>
<path fill="none" stroke="green" stroke-width="0.41" stroke-dasharray="1,5" d="M256.35,-88.53C256.35,-77.52 256.35,-58.49 256.35,-43.08"/>
<polygon fill="green" stroke="green" stroke-width="0.41" points="259.85,-43.27 256.35,-33.27 252.85,-43.27 259.85,-43.27"/>
</g>
<!-- &#45;27&#45;&gt;7 -->
<g id="edge31" class="edge">
<title>&#45;27&#45;&gt;7</title>
<path fill="none" stroke="green" stroke-width="0.38" d="M262.45,-88.47C266.62,-82.85 272.61,-75.88 279.35,-71.36 320.03,-44.04 376.31,-29.49 408.04,-23"/>
<polygon fill="green" stroke="green" stroke-width="0.38" points="408.46,-26.48 417.61,-21.13 407.12,-19.61 408.46,-26.48"/>
</g>
<!-- &#45;27&#45;&gt;12 -->
<g id="edge55" class="edge">
<title>&#45;27&#45;&gt;12</title>
<path fill="none" stroke="red" stroke-width="0.14" d="M261.54,-88.59C265.56,-82.56 271.72,-75.06 279.35,-71.36 413.26,-6.29 806.27,-79.86 948.35,-35.36 949.76,-34.91 951.17,-34.38 952.57,-33.78"/>
<polygon fill="red" stroke="red" stroke-width="0.14" points="954.02,-36.97 961.23,-29.2 950.75,-30.78 954.02,-36.97"/>
</g>
<!-- &#45;28 -->
<g id="node28" class="node">
<title>&#45;28</title>
<polygon fill="lightgray" stroke="black" points="1196.35,-181.05 1168.35,-181.05 1168.35,-161.8 1196.35,-161.8 1196.35,-181.05"/>
<text text-anchor="middle" x="1182.35" y="-168.5" font-family="Times New Roman,serif" font-size="9.00">&#45;28</text>
</g>
<!-- &#45;28&#45;&gt;0 -->
<g id="edge5" class="edge">
<title>&#45;28&#45;&gt;0</title>
<path fill="none" stroke="green" stroke-width="0.2" d="M1168.02,-169.92C1115.02,-167.81 930.65,-158.21 883.35,-125.8 867.79,-115.14 844.75,-68.4 831.89,-40.3"/>
<polygon fill="green" stroke="green" stroke-width="0.2" points="835.23,-39.18 827.93,-31.5 828.85,-42.06 835.23,-39.18"/>
</g>
<!-- &#45;28&#45;&gt;4 -->
<g id="edge54" class="edge">
<title>&#45;28&#45;&gt;4</title>
<path fill="none" stroke="red" stroke-width="0.15" stroke-dasharray="1,5" d="M1196.64,-170.7C1252.17,-171.44 1452.32,-170.87 1491.35,-125.8 1512.45,-101.43 1495.53,-62.37 1481.68,-38.76"/>
<polygon fill="red" stroke="red" stroke-width="0.15" points="1484.77,-37.11 1476.54,-30.43 1478.82,-40.78 1484.77,-37.11"/>
</g>
<!-- &#45;28&#45;&gt;7 -->
<g id="edge21" class="edge">
<title>&#45;28&#45;&gt;7</title>
<path fill="none" stroke="red" stroke-width="0.12" d="M1168.14,-169.62C1066.6,-163.84 454.83,-128.91 451.35,-125.8 428.26,-105.22 426.93,-67.13 428.98,-42.36"/>
<polygon fill="red" stroke="red" stroke-width="0.12" points="432.45,-42.83 430.03,-32.51 425.49,-42.09 432.45,-42.83"/>
</g>
<!-- 11061 -->
<g id="node48" class="node">
<title>11061</title>
<ellipse fill="white" stroke="black" cx="1565.35" cy="-98.58" rx="27.22" ry="27.22"/>
<text text-anchor="middle" x="1565.35" y="-95.65" font-family="Times New Roman,serif" font-size="9.00">11061</text>
</g>
<!-- &#45;28&#45;&gt;11061 -->
<g id="edge88" class="edge">
<title>&#45;28&#45;&gt;11061</title>
<path fill="none" stroke="red" stroke-width="0.23" d="M1196.55,-170.75C1244.38,-171.39 1403.39,-169.87 1524.35,-125.8 1527.89,-124.51 1531.44,-122.87 1534.9,-121.05"/>
<polygon fill="red" stroke="red" stroke-width="0.23" points="1536.55,-124.14 1543.42,-116.07 1533.02,-118.09 1536.55,-124.14"/>
</g>
<!-- &#45;29 -->
<g id="node29" class="node">
<title>&#45;29</title>
<polygon fill="lightgray" stroke="black" points="362.35,-108.2 334.35,-108.2 334.35,-88.95 362.35,-88.95 362.35,-108.2"/>
<text text-anchor="middle" x="348.35" y="-95.65" font-family="Times New Roman,serif" font-size="9.00">&#45;29</text>
</g>
<!-- &#45;29&#45;&gt;7 -->
<g id="edge28" class="edge">
<title>&#45;29&#45;&gt;7</title>
<path fill="none" stroke="red" stroke-width="0.97" d="M355.72,-88.56C360.09,-83.37 365.84,-76.82 371.35,-71.36 384.49,-58.32 400.33,-44.69 412.58,-34.56"/>
<polygon fill="red" stroke="red" stroke-width="0.97" points="414.48,-37.53 420.01,-28.49 410.05,-32.11 414.48,-37.53"/>
</g>
<!-- &#45;30 -->
<g id="node30" class="node">
<title>&#45;30</title>
<polygon fill="lightgray" stroke="black" points="488.35,-108.2 460.35,-108.2 460.35,-88.95 488.35,-88.95 488.35,-108.2"/>
<text text-anchor="middle" x="474.35" y="-95.65" font-family="Times New Roman,serif" font-size="9.00">&#45;30</text>
</g>
<!-- &#45;30&#45;&gt;0 -->
<g id="edge61" class="edge">
<title>&#45;30&#45;&gt;0</title>
<path fill="none" stroke="red" stroke-width="0.61" d="M479.8,-88.51C483.86,-82.6 489.97,-75.29 497.35,-71.36 607.29,-12.74 654.18,-64.35 775.35,-35.36 783.15,-33.49 791.47,-30.78 798.91,-28.1"/>
<polygon fill="red" stroke="red" stroke-width="0.61" points="800.02,-31.42 808.13,-24.6 797.54,-24.87 800.02,-31.42"/>
</g>
<!-- &#45;30&#45;&gt;5 -->
<g id="edge80" class="edge">
<title>&#45;30&#45;&gt;5</title>
<path fill="none" stroke="red" stroke-width="0.48" stroke-dasharray="1,5" d="M479.59,-88.7C483.64,-82.73 489.81,-75.25 497.35,-71.36 566.42,-35.67 768.52,-47.3 845.35,-35.36 864.25,-32.41 885.45,-27.94 901.26,-24.37"/>
<polygon fill="red" stroke="red" stroke-width="0.48" points="901.6,-27.88 910.56,-22.23 900.03,-21.06 901.6,-27.88"/>
</g>
<!-- &#45;30&#45;&gt;6 -->
<g id="edge15" class="edge">
<title>&#45;30&#45;&gt;6</title>
<path fill="none" stroke="red" stroke-width="0.18" d="M460.12,-90.46C447.96,-84.61 429.86,-76.49 413.35,-71.36 335.45,-47.11 312.89,-53.5 233.35,-35.36 219.73,-32.25 204.61,-28.39 192.39,-25.17"/>
<polygon fill="red" stroke="red" stroke-width="0.18" points="193.33,-21.8 182.76,-22.61 191.53,-28.57 193.33,-21.8"/>
</g>
<!-- &#45;30&#45;&gt;7 -->
<g id="edge8" class="edge">
<title>&#45;30&#45;&gt;7</title>
<path fill="none" stroke="green" stroke-width="0.12" stroke-dasharray="1,5" d="M469.53,-88.53C463.22,-76.68 451.98,-55.57 443.51,-39.64"/>
<polygon fill="green" stroke="green" stroke-width="0.12" points="446.76,-38.31 438.98,-31.13 440.59,-41.6 446.76,-38.31"/>
</g>
<!-- &#45;31 -->
<g id="node31" class="node">
<title>&#45;31</title>
<polygon fill="lightgray" stroke="black" points="90.35,-108.2 62.35,-108.2 62.35,-88.95 90.35,-88.95 90.35,-108.2"/>
<text text-anchor="middle" x="76.35" y="-95.65" font-family="Times New Roman,serif" font-size="9.00">&#45;31</text>
</g>
<!-- &#45;31&#45;&gt;1 -->
<g id="edge47" class="edge">
<title>&#45;31&#45;&gt;1</title>
<path fill="none" stroke="red" stroke-width="0.19" d="M81.51,-88.53C88.3,-76.62 100.44,-55.33 109.54,-39.37"/>
<polygon fill="red" stroke="red" stroke-width="0.19" points="112.43,-41.37 114.35,-30.95 106.35,-37.9 112.43,-41.37"/>
</g>
<!-- &#45;31&#45;&gt;3 -->
<g id="edge37" class="edge">
<title>&#45;31&#45;&gt;3</title>
<path fill="none" stroke="red" stroke-width="0.28" stroke-dasharray="1,5" d="M82.25,-88.7C86.43,-83.03 92.49,-75.92 99.35,-71.36 121.61,-56.54 194.41,-35.44 232.55,-25.01"/>
<polygon fill="red" stroke="red" stroke-width="0.28" points="233.17,-28.47 241.91,-22.48 231.34,-21.72 233.17,-28.47"/>
</g>
<!-- &#45;32 -->
<g id="node32" class="node">
<title>&#45;32</title>
<polygon fill="lightgray" stroke="black" points="1436.35,-108.2 1408.35,-108.2 1408.35,-88.95 1436.35,-88.95 1436.35,-108.2"/>
<text text-anchor="middle" x="1422.35" y="-95.65" font-family="Times New Roman,serif" font-size="9.00">&#45;32</text>
</g>
<!-- &#45;32&#45;&gt;4 -->
<g id="edge13" class="edge">
<title>&#45;32&#45;&gt;4</title>
<path fill="none" stroke="red" stroke-width="0.22" d="M1427.62,-88.53C1434.57,-76.62 1446.98,-55.33 1456.28,-39.37"/>
<polygon fill="red" stroke="red" stroke-width="0.22" points="1459.15,-41.4 1461.16,-31 1453.1,-37.87 1459.15,-41.4"/>
</g>
<!-- &#45;32&#45;&gt;10 -->
<g id="edge58" class="edge">
<title>&#45;32&#45;&gt;10</title>
<path fill="none" stroke="red" stroke-width="0.16" d="M1414.88,-88.6C1409.67,-82.88 1402.26,-75.76 1394.35,-71.36 1339.34,-40.76 1265.67,-27.22 1226.17,-21.82"/>
<polygon fill="red" stroke="red" stroke-width="0.16" points="1226.8,-18.37 1216.43,-20.57 1225.9,-25.32 1226.8,-18.37"/>
</g>
<!-- &#45;32&#45;&gt;12 -->
<g id="edge36" class="edge">
<title>&#45;32&#45;&gt;12</title>
<path fill="none" stroke="green" stroke-width="0.14" d="M1408.24,-90.06C1396.14,-83.98 1378.08,-75.73 1361.35,-71.36 1214.33,-32.91 1169.42,-69.5 1021.35,-35.36 1014.56,-33.79 1007.41,-31.52 1000.81,-29.15"/>
<polygon fill="green" stroke="green" stroke-width="0.14" points="1002.46,-26.03 991.86,-25.76 999.98,-32.58 1002.46,-26.03"/>
</g>
<!-- &#45;33 -->
<g id="node33" class="node">
<title>&#45;33</title>
<polygon fill="lightgray" stroke="black" points="790.35,-108.2 762.35,-108.2 762.35,-88.95 790.35,-88.95 790.35,-108.2"/>
<text text-anchor="middle" x="776.35" y="-95.65" font-family="Times New Roman,serif" font-size="9.00">&#45;33</text>
</g>
<!-- &#45;33&#45;&gt;0 -->
<g id="edge9" class="edge">
<title>&#45;33&#45;&gt;0</title>
<path fill="none" stroke="green" stroke-width="0.3" d="M781.62,-88.53C788.57,-76.62 800.98,-55.33 810.28,-39.37"/>
<polygon fill="green" stroke="green" stroke-width="0.3" points="813.09,-41.5 815.1,-31.1 807.04,-37.98 813.09,-41.5"/>
</g>
<!-- &#45;33&#45;&gt;8 -->
<g id="edge32" class="edge">
<title>&#45;33&#45;&gt;8</title>
<path fill="none" stroke="red" stroke-width="0.18" d="M773.59,-88.53C770.14,-77.17 764.09,-57.29 759.33,-41.63"/>
<polygon fill="red" stroke="red" stroke-width="0.18" points="762.76,-40.89 756.5,-32.34 756.06,-42.93 762.76,-40.89"/>
</g>
<!-- 4&#45;&gt;4 -->
<g id="edge44" class="edge">
<title>4&#45;&gt;4</title>
<path fill="none" stroke="green" stroke-width="0.12" d="M1477.99,-29.05C1488.66,-36.64 1500.84,-32.85 1500.84,-17.68 1500.84,-6.77 1494.55,-1.75 1487.05,-2.6"/>
<polygon fill="green" stroke="green" stroke-width="0.12" points="1486.09,0.79 1478.16,-6.23 1488.74,-5.69 1486.09,0.79"/>
</g>
<!-- 11061&#45;&gt;4 -->
<g id="edge89" class="edge">
<title>11061&#45;&gt;4</title>
<path fill="none" stroke="red" stroke-width="0.58" d="M1544.78,-80.85C1527.88,-67.11 1504.13,-47.79 1487.61,-34.35"/>
<polygon fill="red" stroke="red" stroke-width="0.58" points="1489.91,-31.71 1479.94,-28.11 1485.49,-37.14 1489.91,-31.71"/>
</g>
<!-- 11417&#45;&gt;9 -->
<g id="edge91" class="edge">
<title>11417&#45;&gt;9</title>
<path fill="none" stroke="green" stroke-width="0.17" d="M1304.4,-80.54C1299.63,-77.18 1294.47,-73.91 1289.35,-71.36 1240.28,-46.87 1222.94,-53.93 1171.35,-35.36 1165.54,-33.27 1159.35,-30.8 1153.62,-28.42"/>
<polygon fill="green" stroke="green" stroke-width="0.17" points="1155.37,-25.36 1144.79,-24.67 1152.63,-31.8 1155.37,-25.36"/>
</g>
</g>
</svg>
