<?xml version="1.0" encoding="UTF-8" standalone="no"?>
<!DOCTYPE svg PUBLIC "-//W3C//DTD SVG 1.1//EN"
 "http://www.w3.org/Graphics/SVG/1.1/DTD/svg11.dtd">
<!-- Generated by graphviz version 9.0.0 (20230911.1827)
 -->
<!-- Pages: 1 -->
<svg width="1426pt" height="192pt"
 viewBox="0.00 0.00 1426.50 192.43" xmlns="http://www.w3.org/2000/svg" xmlns:xlink="http://www.w3.org/1999/xlink">
<g id="graph0" class="graph" transform="scale(1 1) rotate(0) translate(4 188.43)">
<polygon fill="white" stroke="none" points="-4,4 -4,-188.43 1422.5,-188.43 1422.5,4 -4,4"/>
<!-- &#45;1 -->
<g id="node1" class="node">
<title>&#45;1</title>
<polygon fill="lightgray" stroke="black" points="69.75,-105.02 46.25,-105.02 46.25,-85.77 69.75,-85.77 69.75,-105.02"/>
<text text-anchor="middle" x="58" y="-92.47" font-family="Times New Roman,serif" font-size="9.00">&#45;1</text>
</g>
<!-- 12 -->
<g id="node46" class="node">
<title>12</title>
<ellipse fill="lightblue" stroke="black" cx="79" cy="-17.68" rx="17.68" ry="17.68"/>
<text text-anchor="middle" x="79" y="-14.75" font-family="Times New Roman,serif" font-size="9.00">12</text>
</g>
<!-- &#45;1&#45;&gt;12 -->
<g id="edge41" class="edge">
<title>&#45;1&#45;&gt;12</title>
<path fill="none" stroke="green" stroke-width="0.22" d="M60.49,-85.41C63.25,-75.45 67.84,-58.92 71.75,-44.81"/>
<polygon fill="green" stroke="green" stroke-width="0.22" points="75.06,-45.98 74.36,-35.4 68.32,-44.11 75.06,-45.98"/>
</g>
<!-- &#45;2 -->
<g id="node2" class="node">
<title>&#45;2</title>
<polygon fill="lightgray" stroke="black" points="1049.75,-179.56 1026.25,-179.56 1026.25,-160.31 1049.75,-160.31 1049.75,-179.56"/>
<text text-anchor="middle" x="1038" y="-167.01" font-family="Times New Roman,serif" font-size="9.00">&#45;2</text>
</g>
<!-- &#45;3 -->
<g id="node3" class="node">
<title>&#45;3</title>
<polygon fill="lightgray" stroke="black" points="1007.75,-179.56 984.25,-179.56 984.25,-160.31 1007.75,-160.31 1007.75,-179.56"/>
<text text-anchor="middle" x="996" y="-167.01" font-family="Times New Roman,serif" font-size="9.00">&#45;3</text>
</g>
<!-- 6 -->
<g id="node40" class="node">
<title>6</title>
<ellipse fill="lightblue" stroke="black" cx="996" cy="-17.68" rx="14.5" ry="14.5"/>
<text text-anchor="middle" x="996" y="-14.75" font-family="Times New Roman,serif" font-size="9.00">6</text>
</g>
<!-- &#45;3&#45;&gt;6 -->
<g id="edge18" class="edge">
<title>&#45;3&#45;&gt;6</title>
<path fill="none" stroke="green" stroke-width="0.35" stroke-dasharray="1,5" d="M997.68,-159.85C999.41,-149.96 1002,-133.64 1003,-119.44 1004.5,-98.12 1004.41,-92.68 1003,-71.36 1002.37,-61.8 1001.1,-51.33 999.81,-42.27"/>
<polygon fill="green" stroke="green" stroke-width="0.35" points="1003.3,-41.95 998.35,-32.58 996.38,-42.99 1003.3,-41.95"/>
</g>
<!-- 1325 -->
<g id="node48" class="node">
<title>1325</title>
<ellipse fill="white" stroke="black" cx="970" cy="-95.4" rx="24.04" ry="24.04"/>
<text text-anchor="middle" x="970" y="-92.47" font-family="Times New Roman,serif" font-size="9.00">1325</text>
</g>
<!-- &#45;3&#45;&gt;1325 -->
<g id="edge42" class="edge">
<title>&#45;3&#45;&gt;1325</title>
<path fill="none" stroke="green" stroke-width="0.3" d="M992.81,-160.04C989.93,-152 985.51,-139.67 981.33,-128"/>
<polygon fill="green" stroke="green" stroke-width="0.3" points="984.73,-127.12 978.06,-118.88 978.14,-129.48 984.73,-127.12"/>
</g>
<!-- &#45;4 -->
<g id="node4" class="node">
<title>&#45;4</title>
<polygon fill="lightgray" stroke="black" points="337.75,-105.02 314.25,-105.02 314.25,-85.77 337.75,-85.77 337.75,-105.02"/>
<text text-anchor="middle" x="326" y="-92.47" font-family="Times New Roman,serif" font-size="9.00">&#45;4</text>
</g>
<!-- 0 -->
<g id="node34" class="node">
<title>0</title>
<ellipse fill="lightblue" stroke="black" cx="211" cy="-17.68" rx="14.5" ry="14.5"/>
<text text-anchor="middle" x="211" y="-14.75" font-family="Times New Roman,serif" font-size="9.00">0</text>
</g>
<!-- &#45;4&#45;&gt;0 -->
<g id="edge40" class="edge">
<title>&#45;4&#45;&gt;0</title>
<path fill="none" stroke="green" stroke-width="0.15" d="M319.2,-85.67C315.35,-81.07 310.26,-75.53 305,-71.36 292.77,-61.64 256.5,-42.18 232.75,-29.83"/>
<polygon fill="green" stroke="green" stroke-width="0.15" points="234.44,-26.76 223.95,-25.28 231.23,-32.98 234.44,-26.76"/>
</g>
<!-- 4 -->
<g id="node38" class="node">
<title>4</title>
<ellipse fill="lightblue" stroke="black" cx="447" cy="-17.68" rx="14.5" ry="14.5"/>
<text text-anchor="middle" x="447" y="-14.75" font-family="Times New Roman,serif" font-size="9.00">4</text>
</g>
<!-- &#45;4&#45;&gt;4 -->
<g id="edge16" class="edge">
<title>&#45;4&#45;&gt;4</title>
<path fill="none" stroke="green" stroke-width="0.12" d="M332.76,-85.61C336.6,-81 341.69,-75.46 347,-71.36 371.25,-52.6 403.16,-37.11 424.33,-27.89"/>
<polygon fill="green" stroke="green" stroke-width="0.12" points="425.5,-31.2 433.34,-24.07 422.77,-24.76 425.5,-31.2"/>
</g>
<!-- &#45;5 -->
<g id="node5" class="node">
<title>&#45;5</title>
<polygon fill="lightgray" stroke="black" points="651.75,-105.02 628.25,-105.02 628.25,-85.77 651.75,-85.77 651.75,-105.02"/>
<text text-anchor="middle" x="640" y="-92.47" font-family="Times New Roman,serif" font-size="9.00">&#45;5</text>
</g>
<!-- 8 -->
<g id="node42" class="node">
<title>8</title>
<ellipse fill="lightblue" stroke="black" cx="694" cy="-17.68" rx="14.5" ry="14.5"/>
<text text-anchor="middle" x="694" y="-14.75" font-family="Times New Roman,serif" font-size="9.00">8</text>
</g>
<!-- &#45;5&#45;&gt;8 -->
<g id="edge28" class="edge">
<title>&#45;5&#45;&gt;8</title>
<path fill="none" stroke="red" stroke-width="0.48" d="M646.41,-85.41C654.55,-73.99 668.85,-53.95 679.65,-38.8"/>
<polygon fill="red" stroke="red" stroke-width="0.48" points="682.46,-40.88 685.42,-30.71 676.76,-36.82 682.46,-40.88"/>
</g>
<!-- 10 -->
<g id="node44" class="node">
<title>10</title>
<ellipse fill="lightblue" stroke="black" cx="497" cy="-17.68" rx="17.68" ry="17.68"/>
<text text-anchor="middle" x="497" y="-14.75" font-family="Times New Roman,serif" font-size="9.00">10</text>
</g>
<!-- &#45;5&#45;&gt;10 -->
<g id="edge39" class="edge">
<title>&#45;5&#45;&gt;10</title>
<path fill="none" stroke="red" stroke-width="0.31" stroke-dasharray="1,5" d="M633.44,-85.34C629.66,-80.64 624.56,-75.12 619,-71.36 581.27,-45.8 563.74,-55.77 523,-35.36 522.02,-34.86 521.02,-34.34 520.03,-33.8"/>
<polygon fill="red" stroke="red" stroke-width="0.31" points="522.05,-30.93 511.66,-28.83 518.47,-36.95 522.05,-30.93"/>
</g>
<!-- &#45;6 -->
<g id="node6" class="node">
<title>&#45;6</title>
<polygon fill="lightgray" stroke="black" points="111.75,-105.02 88.25,-105.02 88.25,-85.77 111.75,-85.77 111.75,-105.02"/>
<text text-anchor="middle" x="100" y="-92.47" font-family="Times New Roman,serif" font-size="9.00">&#45;6</text>
</g>
<!-- &#45;6&#45;&gt;12 -->
<g id="edge22" class="edge">
<title>&#45;6&#45;&gt;12</title>
<path fill="none" stroke="green" stroke-width="0.66" stroke-dasharray="1,5" d="M97.51,-85.41C94.8,-75.65 90.34,-59.56 86.48,-45.63"/>
<polygon fill="green" stroke="green" stroke-width="0.66" points="89.86,-44.75 83.82,-36.05 83.12,-46.62 89.86,-44.75"/>
</g>
<!-- &#45;7 -->
<g id="node7" class="node">
<title>&#45;7</title>
<polygon fill="lightgray" stroke="black" points="1073.75,-105.02 1050.25,-105.02 1050.25,-85.77 1073.75,-85.77 1073.75,-105.02"/>
<text text-anchor="middle" x="1062" y="-92.47" font-family="Times New Roman,serif" font-size="9.00">&#45;7</text>
</g>
<!-- &#45;7&#45;&gt;6 -->
<g id="edge30" class="edge">
<title>&#45;7&#45;&gt;6</title>
<path fill="none" stroke="green" stroke-width="0.18" d="M1054.17,-85.41C1043.76,-73.47 1025.12,-52.09 1011.75,-36.74"/>
<polygon fill="green" stroke="green" stroke-width="0.18" points="1014.69,-34.8 1005.48,-29.56 1009.41,-39.39 1014.69,-34.8"/>
</g>
<!-- &#45;8 -->
<g id="node8" class="node">
<title>&#45;8</title>
<polygon fill="lightgray" stroke="black" points="379.75,-105.02 356.25,-105.02 356.25,-85.77 379.75,-85.77 379.75,-105.02"/>
<text text-anchor="middle" x="368" y="-92.47" font-family="Times New Roman,serif" font-size="9.00">&#45;8</text>
</g>
<!-- 9 -->
<g id="node43" class="node">
<title>9</title>
<ellipse fill="lightblue" stroke="black" cx="368" cy="-17.68" rx="14.5" ry="14.5"/>
<text text-anchor="middle" x="368" y="-14.75" font-family="Times New Roman,serif" font-size="9.00">9</text>
</g>
<!-- &#45;8&#45;&gt;9 -->
<g id="edge33" class="edge">
<title>&#45;8&#45;&gt;9</title>
<path fill="none" stroke="red" stroke-width="0.4" d="M368,-85.41C368,-74.99 368,-57.37 368,-42.85"/>
<polygon fill="red" stroke="red" stroke-width="0.4" points="371.5,-43.13 368,-33.13 364.5,-43.13 371.5,-43.13"/>
</g>
<!-- &#45;8&#45;&gt;10 -->
<g id="edge15" class="edge">
<title>&#45;8&#45;&gt;10</title>
<path fill="none" stroke="red" stroke-width="0.48" d="M374.65,-85.47C378.46,-80.81 383.56,-75.28 389,-71.36 420.95,-48.31 435.16,-53.75 470,-35.36 471.15,-34.75 472.32,-34.11 473.49,-33.45"/>
<polygon fill="red" stroke="red" stroke-width="0.48" points="474.89,-36.69 481.72,-28.59 471.33,-30.66 474.89,-36.69"/>
</g>
<!-- &#45;9 -->
<g id="node9" class="node">
<title>&#45;9</title>
<polygon fill="lightgray" stroke="black" points="1115.75,-105.02 1092.25,-105.02 1092.25,-85.77 1115.75,-85.77 1115.75,-105.02"/>
<text text-anchor="middle" x="1104" y="-92.47" font-family="Times New Roman,serif" font-size="9.00">&#45;9</text>
</g>
<!-- 3 -->
<g id="node37" class="node">
<title>3</title>
<ellipse fill="lightblue" stroke="black" cx="1104" cy="-17.68" rx="14.5" ry="14.5"/>
<text text-anchor="middle" x="1104" y="-14.75" font-family="Times New Roman,serif" font-size="9.00">3</text>
</g>
<!-- &#45;9&#45;&gt;3 -->
<g id="edge10" class="edge">
<title>&#45;9&#45;&gt;3</title>
<path fill="none" stroke="red" stroke-width="0.19" d="M1104,-85.41C1104,-74.88 1104,-57.02 1104,-42.42"/>
<polygon fill="red" stroke="red" stroke-width="0.19" points="1107.5,-42.81 1104,-32.81 1100.5,-42.81 1107.5,-42.81"/>
</g>
<!-- &#45;10 -->
<g id="node10" class="node">
<title>&#45;10</title>
<polygon fill="lightgray" stroke="black" points="1096,-179.56 1068,-179.56 1068,-160.31 1096,-160.31 1096,-179.56"/>
<text text-anchor="middle" x="1082" y="-167.01" font-family="Times New Roman,serif" font-size="9.00">&#45;10</text>
</g>
<!-- &#45;11 -->
<g id="node11" class="node">
<title>&#45;11</title>
<polygon fill="lightgray" stroke="black" points="250,-105.02 222,-105.02 222,-85.77 250,-85.77 250,-105.02"/>
<text text-anchor="middle" x="236" y="-92.47" font-family="Times New Roman,serif" font-size="9.00">&#45;11</text>
</g>
<!-- 13 -->
<g id="node47" class="node">
<title>13</title>
<ellipse fill="lightblue" stroke="black" cx="272" cy="-17.68" rx="17.68" ry="17.68"/>
<text text-anchor="middle" x="272" y="-14.75" font-family="Times New Roman,serif" font-size="9.00">13</text>
</g>
<!-- &#45;11&#45;&gt;13 -->
<g id="edge13" class="edge">
<title>&#45;11&#45;&gt;13</title>
<path fill="none" stroke="green" stroke-width="0.16" d="M240.27,-85.41C245.19,-75.07 253.48,-57.63 260.35,-43.18"/>
<polygon fill="green" stroke="green" stroke-width="0.16" points="263.37,-44.97 264.51,-34.44 257.05,-41.97 263.37,-44.97"/>
</g>
<!-- &#45;12 -->
<g id="node12" class="node">
<title>&#45;12</title>
<polygon fill="lightgray" stroke="black" points="1142,-179.56 1114,-179.56 1114,-160.31 1142,-160.31 1142,-179.56"/>
<text text-anchor="middle" x="1128" y="-167.01" font-family="Times New Roman,serif" font-size="9.00">&#45;12</text>
</g>
<!-- &#45;13 -->
<g id="node13" class="node">
<title>&#45;13</title>
<polygon fill="lightgray" stroke="black" points="836,-105.02 808,-105.02 808,-85.77 836,-85.77 836,-105.02"/>
<text text-anchor="middle" x="822" y="-92.47" font-family="Times New Roman,serif" font-size="9.00">&#45;13</text>
</g>
<!-- 2 -->
<g id="node36" class="node">
<title>2</title>
<ellipse fill="lightblue" stroke="black" cx="600" cy="-17.68" rx="14.5" ry="14.5"/>
<text text-anchor="middle" x="600" y="-14.75" font-family="Times New Roman,serif" font-size="9.00">2</text>
</g>
<!-- &#45;13&#45;&gt;2 -->
<g id="edge31" class="edge">
<title>&#45;13&#45;&gt;2</title>
<path fill="none" stroke="red" stroke-width="0.38" d="M815.28,-85.45C811.12,-80.55 805.37,-74.79 799,-71.36 729.11,-33.66 696.98,-66.65 624,-35.36 622.4,-34.67 620.79,-33.86 619.21,-32.99"/>
<polygon fill="red" stroke="red" stroke-width="0.38" points="621.47,-30.28 611.17,-27.8 617.67,-36.16 621.47,-30.28"/>
</g>
<!-- &#45;13&#45;&gt;3 -->
<g id="edge14" class="edge">
<title>&#45;13&#45;&gt;3</title>
<path fill="none" stroke="green" stroke-width="0.3" d="M828.72,-85.45C832.88,-80.54 838.63,-74.78 845,-71.36 850.23,-68.54 1016.38,-35.83 1079.76,-23.42"/>
<polygon fill="green" stroke="green" stroke-width="0.3" points="1080.09,-26.92 1089.24,-21.56 1078.75,-20.05 1080.09,-26.92"/>
</g>
<!-- &#45;14 -->
<g id="node14" class="node">
<title>&#45;14</title>
<polygon fill="lightgray" stroke="black" points="790,-105.02 762,-105.02 762,-85.77 790,-85.77 790,-105.02"/>
<text text-anchor="middle" x="776" y="-92.47" font-family="Times New Roman,serif" font-size="9.00">&#45;14</text>
</g>
<!-- 1 -->
<g id="node35" class="node">
<title>1</title>
<ellipse fill="lightblue" stroke="black" cx="647" cy="-17.68" rx="14.5" ry="14.5"/>
<text text-anchor="middle" x="647" y="-14.75" font-family="Times New Roman,serif" font-size="9.00">1</text>
</g>
<!-- &#45;14&#45;&gt;1 -->
<g id="edge20" class="edge">
<title>&#45;14&#45;&gt;1</title>
<path fill="none" stroke="red" stroke-width="0.2" d="M768.57,-85.49C764.36,-80.84 758.78,-75.31 753,-71.36 720.15,-48.88 705.73,-54.8 671,-35.36 669.67,-34.61 668.33,-33.81 666.98,-32.98"/>
<polygon fill="red" stroke="red" stroke-width="0.2" points="668.94,-30.08 658.68,-27.46 665.07,-35.91 668.94,-30.08"/>
</g>
<!-- 5 -->
<g id="node39" class="node">
<title>5</title>
<ellipse fill="lightblue" stroke="black" cx="776" cy="-17.68" rx="14.5" ry="14.5"/>
<text text-anchor="middle" x="776" y="-14.75" font-family="Times New Roman,serif" font-size="9.00">5</text>
</g>
<!-- &#45;14&#45;&gt;5 -->
<g id="edge4" class="edge">
<title>&#45;14&#45;&gt;5</title>
<path fill="none" stroke="green" stroke-width="0.11" d="M776,-85.41C776,-74.88 776,-57.02 776,-42.42"/>
<polygon fill="green" stroke="green" stroke-width="0.11" points="779.5,-42.69 776,-32.69 772.5,-42.69 779.5,-42.69"/>
</g>
<!-- &#45;15 -->
<g id="node15" class="node">
<title>&#45;15</title>
<polygon fill="lightgray" stroke="black" points="1188,-179.56 1160,-179.56 1160,-160.31 1188,-160.31 1188,-179.56"/>
<text text-anchor="middle" x="1174" y="-167.01" font-family="Times New Roman,serif" font-size="9.00">&#45;15</text>
</g>
<!-- &#45;16 -->
<g id="node16" class="node">
<title>&#45;16</title>
<polygon fill="lightgray" stroke="black" points="204,-105.02 176,-105.02 176,-85.77 204,-85.77 204,-105.02"/>
<text text-anchor="middle" x="190" y="-92.47" font-family="Times New Roman,serif" font-size="9.00">&#45;16</text>
</g>
<!-- &#45;16&#45;&gt;0 -->
<g id="edge25" class="edge">
<title>&#45;16&#45;&gt;0</title>
<path fill="none" stroke="green" stroke-width="0.32" d="M192.49,-85.41C195.45,-74.76 200.48,-56.59 204.56,-41.9"/>
<polygon fill="green" stroke="green" stroke-width="0.32" points="207.88,-43.02 207.18,-32.45 201.14,-41.15 207.88,-43.02"/>
</g>
<!-- &#45;16&#45;&gt;9 -->
<g id="edge36" class="edge">
<title>&#45;16&#45;&gt;9</title>
<path fill="none" stroke="red" stroke-width="0.11" d="M197.29,-85.29C201.47,-80.58 207.05,-75.06 213,-71.36 235.38,-57.42 306.75,-36.01 344.33,-25.28"/>
<polygon fill="red" stroke="red" stroke-width="0.11" points="345.14,-28.69 353.81,-22.6 343.23,-21.96 345.14,-28.69"/>
</g>
<!-- &#45;16&#45;&gt;12 -->
<g id="edge19" class="edge">
<title>&#45;16&#45;&gt;12</title>
<path fill="none" stroke="red" stroke-width="0.24" d="M181.95,-85.33C177.73,-80.85 172.35,-75.53 167,-71.36 147.01,-55.75 122.03,-41.21 103.8,-31.37"/>
<polygon fill="red" stroke="red" stroke-width="0.24" points="105.49,-28.31 95.01,-26.72 102.21,-34.49 105.49,-28.31"/>
</g>
<!-- &#45;16&#45;&gt;13 -->
<g id="edge17" class="edge">
<title>&#45;16&#45;&gt;13</title>
<path fill="none" stroke="green" stroke-width="0.12" d="M198.84,-85.3C203.07,-81.01 208.24,-75.86 213,-71.36 225.64,-59.4 240.23,-46.37 251.74,-36.26"/>
<polygon fill="green" stroke="green" stroke-width="0.12" points="253.79,-39.11 259.01,-29.89 249.18,-33.84 253.79,-39.11"/>
</g>
<!-- &#45;17 -->
<g id="node17" class="node">
<title>&#45;17</title>
<polygon fill="lightgray" stroke="black" points="928,-105.02 900,-105.02 900,-85.77 928,-85.77 928,-105.02"/>
<text text-anchor="middle" x="914" y="-92.47" font-family="Times New Roman,serif" font-size="9.00">&#45;17</text>
</g>
<!-- &#45;17&#45;&gt;5 -->
<g id="edge6" class="edge">
<title>&#45;17&#45;&gt;5</title>
<path fill="none" stroke="red" stroke-width="0.54" d="M906.55,-85.53C902.33,-80.89 896.75,-75.36 891,-71.36 861.93,-51.12 823.84,-35.47 799.63,-26.66"/>
<polygon fill="red" stroke="red" stroke-width="0.54" points="800.94,-23.41 790.34,-23.38 798.6,-30.01 800.94,-23.41"/>
</g>
<!-- &#45;18 -->
<g id="node18" class="node">
<title>&#45;18</title>
<polygon fill="lightgray" stroke="black" points="1162,-105.02 1134,-105.02 1134,-85.77 1162,-85.77 1162,-105.02"/>
<text text-anchor="middle" x="1148" y="-92.47" font-family="Times New Roman,serif" font-size="9.00">&#45;18</text>
</g>
<!-- &#45;18&#45;&gt;3 -->
<g id="edge12" class="edge">
<title>&#45;18&#45;&gt;3</title>
<path fill="none" stroke="green" stroke-width="0.11" d="M1142.78,-85.41C1136.22,-74.12 1124.76,-54.4 1115.99,-39.31"/>
<polygon fill="green" stroke="green" stroke-width="0.11" points="1119.09,-37.67 1111.03,-30.78 1113.03,-41.19 1119.09,-37.67"/>
</g>
<!-- &#45;19 -->
<g id="node19" class="node">
<title>&#45;19</title>
<polygon fill="lightgray" stroke="black" points="158,-105.02 130,-105.02 130,-85.77 158,-85.77 158,-105.02"/>
<text text-anchor="middle" x="144" y="-92.47" font-family="Times New Roman,serif" font-size="9.00">&#45;19</text>
</g>
<!-- &#45;19&#45;&gt;0 -->
<g id="edge8" class="edge">
<title>&#45;19&#45;&gt;0</title>
<path fill="none" stroke="red" stroke-width="0.29" d="M151.95,-85.41C162.48,-73.51 181.3,-52.25 194.87,-36.91"/>
<polygon fill="red" stroke="red" stroke-width="0.29" points="197.48,-39.23 201.49,-29.43 192.24,-34.6 197.48,-39.23"/>
</g>
<!-- &#45;20 -->
<g id="node20" class="node">
<title>&#45;20</title>
<polygon fill="lightgray" stroke="black" points="698,-105.02 670,-105.02 670,-85.77 698,-85.77 698,-105.02"/>
<text text-anchor="middle" x="684" y="-92.47" font-family="Times New Roman,serif" font-size="9.00">&#45;20</text>
</g>
<!-- &#45;20&#45;&gt;8 -->
<g id="edge11" class="edge">
<title>&#45;20&#45;&gt;8</title>
<path fill="none" stroke="red" stroke-width="0.48" d="M685.19,-85.41C686.56,-74.99 688.89,-57.37 690.81,-42.85"/>
<polygon fill="red" stroke="red" stroke-width="0.48" points="694.24,-43.61 692.08,-33.24 687.3,-42.7 694.24,-43.61"/>
</g>
<!-- 11 -->
<g id="node45" class="node">
<title>11</title>
<ellipse fill="lightblue" stroke="black" cx="550" cy="-17.68" rx="17.68" ry="17.68"/>
<text text-anchor="middle" x="550" y="-14.75" font-family="Times New Roman,serif" font-size="9.00">11</text>
</g>
<!-- &#45;20&#45;&gt;11 -->
<g id="edge9" class="edge">
<title>&#45;20&#45;&gt;11</title>
<path fill="none" stroke="red" stroke-width="0.5" d="M676.59,-85.47C672.38,-80.82 666.8,-75.29 661,-71.36 627.38,-48.57 613.04,-54.08 577,-35.36 575.97,-34.82 574.93,-34.26 573.89,-33.69"/>
<polygon fill="red" stroke="red" stroke-width="0.5" points="575.68,-30.68 565.28,-28.64 572.14,-36.72 575.68,-30.68"/>
</g>
<!-- &#45;21 -->
<g id="node21" class="node">
<title>&#45;21</title>
<polygon fill="lightgray" stroke="black" points="1234,-179.56 1206,-179.56 1206,-160.31 1234,-160.31 1234,-179.56"/>
<text text-anchor="middle" x="1220" y="-167.01" font-family="Times New Roman,serif" font-size="9.00">&#45;21</text>
</g>
<!-- &#45;22 -->
<g id="node22" class="node">
<title>&#45;22</title>
<polygon fill="lightgray" stroke="black" points="744,-105.02 716,-105.02 716,-85.77 744,-85.77 744,-105.02"/>
<text text-anchor="middle" x="730" y="-92.47" font-family="Times New Roman,serif" font-size="9.00">&#45;22</text>
</g>
<!-- &#45;22&#45;&gt;5 -->
<g id="edge3" class="edge">
<title>&#45;22&#45;&gt;5</title>
<path fill="none" stroke="green" stroke-width="0.53" d="M735.46,-85.41C742.25,-74.23 754.07,-54.77 763.2,-39.74"/>
<polygon fill="green" stroke="green" stroke-width="0.53" points="766.12,-41.69 768.32,-31.32 760.13,-38.05 766.12,-41.69"/>
</g>
<!-- &#45;22&#45;&gt;11 -->
<g id="edge26" class="edge">
<title>&#45;22&#45;&gt;11</title>
<path fill="none" stroke="green" stroke-width="0.26" d="M723.19,-85.61C719,-80.76 713.25,-75 707,-71.36 655.22,-41.14 631.94,-59.35 577,-35.36 575.81,-34.83 574.6,-34.27 573.4,-33.67"/>
<polygon fill="green" stroke="green" stroke-width="0.26" points="575.22,-30.67 564.78,-28.83 571.79,-36.78 575.22,-30.67"/>
</g>
<!-- &#45;23 -->
<g id="node23" class="node">
<title>&#45;23</title>
<polygon fill="lightgray" stroke="black" points="426,-105.02 398,-105.02 398,-85.77 426,-85.77 426,-105.02"/>
<text text-anchor="middle" x="412" y="-92.47" font-family="Times New Roman,serif" font-size="9.00">&#45;23</text>
</g>
<!-- &#45;23&#45;&gt;0 -->
<g id="edge2" class="edge">
<title>&#45;23&#45;&gt;0</title>
<path fill="none" stroke="red" stroke-width="0.21" d="M405.22,-85.55C401.04,-80.68 395.29,-74.92 389,-71.36 331.61,-38.83 306.96,-58.01 245,-35.36 240.9,-33.86 236.64,-32.01 232.58,-30.11"/>
<polygon fill="red" stroke="red" stroke-width="0.21" points="234.43,-27.12 223.92,-25.81 231.32,-33.39 234.43,-27.12"/>
</g>
<!-- &#45;23&#45;&gt;2 -->
<g id="edge5" class="edge">
<title>&#45;23&#45;&gt;2</title>
<path fill="none" stroke="red" stroke-width="0.13" d="M418.78,-85.56C422.96,-80.69 428.71,-74.93 435,-71.36 491.59,-39.16 518.03,-62.96 577,-35.36 578.34,-34.73 579.68,-34.02 581.01,-33.26"/>
<polygon fill="red" stroke="red" stroke-width="0.13" points="582.76,-36.29 589.14,-27.83 578.88,-30.47 582.76,-36.29"/>
</g>
<!-- &#45;24 -->
<g id="node24" class="node">
<title>&#45;24</title>
<polygon fill="lightgray" stroke="black" points="1280,-179.56 1252,-179.56 1252,-160.31 1280,-160.31 1280,-179.56"/>
<text text-anchor="middle" x="1266" y="-167.01" font-family="Times New Roman,serif" font-size="9.00">&#45;24</text>
</g>
<!-- &#45;25 -->
<g id="node25" class="node">
<title>&#45;25</title>
<polygon fill="lightgray" stroke="black" points="882,-105.02 854,-105.02 854,-85.77 882,-85.77 882,-105.02"/>
<text text-anchor="middle" x="868" y="-92.47" font-family="Times New Roman,serif" font-size="9.00">&#45;25</text>
</g>
<!-- &#45;25&#45;&gt;6 -->
<g id="edge24" class="edge">
<title>&#45;25&#45;&gt;6</title>
<path fill="none" stroke="green" stroke-width="0.39" d="M875.51,-85.61C879.75,-80.99 885.32,-75.46 891,-71.36 917.12,-52.49 950.99,-36.85 973.09,-27.63"/>
<polygon fill="green" stroke="green" stroke-width="0.39" points="974.15,-30.98 982.09,-23.97 971.51,-24.5 974.15,-30.98"/>
</g>
<!-- &#45;25&#45;&gt;8 -->
<g id="edge27" class="edge">
<title>&#45;25&#45;&gt;8</title>
<path fill="none" stroke="green" stroke-width="0.78" d="M860.69,-85.31C856.52,-80.61 850.93,-75.08 845,-71.36 823.38,-57.77 754.85,-36.51 718,-25.62"/>
<polygon fill="green" stroke="green" stroke-width="0.78" points="719.38,-22.37 708.8,-22.92 717.41,-29.09 719.38,-22.37"/>
</g>
<!-- &#45;26 -->
<g id="node26" class="node">
<title>&#45;26</title>
<polygon fill="lightgray" stroke="black" points="518,-105.02 490,-105.02 490,-85.77 518,-85.77 518,-105.02"/>
<text text-anchor="middle" x="504" y="-92.47" font-family="Times New Roman,serif" font-size="9.00">&#45;26</text>
</g>
<!-- &#45;26&#45;&gt;9 -->
<g id="edge21" class="edge">
<title>&#45;26&#45;&gt;9</title>
<path fill="none" stroke="red" stroke-width="0.22" d="M496.54,-85.54C492.32,-80.91 486.74,-75.38 481,-71.36 452.43,-51.34 415.05,-35.65 391.28,-26.77"/>
<polygon fill="red" stroke="red" stroke-width="0.22" points="392.6,-23.52 382,-23.4 390.2,-30.1 392.6,-23.52"/>
</g>
<!-- &#45;26&#45;&gt;11 -->
<g id="edge1" class="edge">
<title>&#45;26&#45;&gt;11</title>
<path fill="none" stroke="green" stroke-width="0.28" d="M509.46,-85.41C515.92,-74.77 526.94,-56.64 535.86,-41.96"/>
<polygon fill="green" stroke="green" stroke-width="0.28" points="538.66,-44.09 540.86,-33.73 532.68,-40.45 538.66,-44.09"/>
</g>
<!-- &#45;27 -->
<g id="node27" class="node">
<title>&#45;27</title>
<polygon fill="lightgray" stroke="black" points="1326,-179.56 1298,-179.56 1298,-160.31 1326,-160.31 1326,-179.56"/>
<text text-anchor="middle" x="1312" y="-167.01" font-family="Times New Roman,serif" font-size="9.00">&#45;27</text>
</g>
<!-- &#45;28 -->
<g id="node28" class="node">
<title>&#45;28</title>
<polygon fill="lightgray" stroke="black" points="296,-105.02 268,-105.02 268,-85.77 296,-85.77 296,-105.02"/>
<text text-anchor="middle" x="282" y="-92.47" font-family="Times New Roman,serif" font-size="9.00">&#45;28</text>
</g>
<!-- &#45;28&#45;&gt;13 -->
<g id="edge32" class="edge">
<title>&#45;28&#45;&gt;13</title>
<path fill="none" stroke="green" stroke-width="0.47" stroke-dasharray="1,5" d="M280.81,-85.41C279.54,-75.77 277.45,-59.97 275.63,-46.16"/>
<polygon fill="green" stroke="green" stroke-width="0.47" points="279.12,-45.84 274.34,-36.38 272.18,-46.75 279.12,-45.84"/>
</g>
<!-- &#45;29 -->
<g id="node29" class="node">
<title>&#45;29</title>
<polygon fill="lightgray" stroke="black" points="472,-105.02 444,-105.02 444,-85.77 472,-85.77 472,-105.02"/>
<text text-anchor="middle" x="458" y="-92.47" font-family="Times New Roman,serif" font-size="9.00">&#45;29</text>
</g>
<!-- &#45;29&#45;&gt;4 -->
<g id="edge7" class="edge">
<title>&#45;29&#45;&gt;4</title>
<path fill="none" stroke="red" stroke-width="0.21" d="M456.69,-85.41C455.17,-74.88 452.57,-57.02 450.45,-42.42"/>
<polygon fill="red" stroke="red" stroke-width="0.21" points="453.96,-42.22 449.06,-32.83 447.03,-43.23 453.96,-42.22"/>
</g>
<!-- &#45;29&#45;&gt;11 -->
<g id="edge34" class="edge">
<title>&#45;29&#45;&gt;11</title>
<path fill="none" stroke="green" stroke-width="0.14" d="M466.26,-85.58C470.52,-81.17 475.9,-75.82 481,-71.36 496.02,-58.2 513.98,-44.55 527.81,-34.44"/>
<polygon fill="green" stroke="green" stroke-width="0.14" points="529.61,-37.46 535.66,-28.76 525.5,-31.79 529.61,-37.46"/>
</g>
<!-- &#45;29&#45;&gt;13 -->
<g id="edge38" class="edge">
<title>&#45;29&#45;&gt;13</title>
<path fill="none" stroke="red" stroke-width="0.47" d="M451.13,-85.71C446.92,-80.89 441.17,-75.13 435,-71.36 411.94,-57.24 339.41,-36.6 299.31,-25.83"/>
<polygon fill="red" stroke="red" stroke-width="0.47" points="300.42,-22.5 289.86,-23.31 298.62,-29.26 300.42,-22.5"/>
</g>
<!-- &#45;30 -->
<g id="node30" class="node">
<title>&#45;30</title>
<polygon fill="lightgray" stroke="black" points="564,-105.02 536,-105.02 536,-85.77 564,-85.77 564,-105.02"/>
<text text-anchor="middle" x="550" y="-92.47" font-family="Times New Roman,serif" font-size="9.00">&#45;30</text>
</g>
<!-- &#45;30&#45;&gt;11 -->
<g id="edge37" class="edge">
<title>&#45;30&#45;&gt;11</title>
<path fill="none" stroke="red" stroke-width="0.1" d="M550,-85.41C550,-75.67 550,-59.66 550,-45.76"/>
<polygon fill="red" stroke="red" stroke-width="0.1" points="553.5,-45.83 550,-35.83 546.5,-45.83 553.5,-45.83"/>
</g>
<!-- &#45;31 -->
<g id="node31" class="node">
<title>&#45;31</title>
<polygon fill="lightgray" stroke="black" points="610,-105.02 582,-105.02 582,-85.77 610,-85.77 610,-105.02"/>
<text text-anchor="middle" x="596" y="-92.47" font-family="Times New Roman,serif" font-size="9.00">&#45;31</text>
</g>
<!-- &#45;31&#45;&gt;1 -->
<g id="edge23" class="edge">
<title>&#45;31&#45;&gt;1</title>
<path fill="none" stroke="green" stroke-width="0.37" d="M602.05,-85.41C609.7,-74.06 623.09,-54.17 633.28,-39.05"/>
<polygon fill="green" stroke="green" stroke-width="0.37" points="636.13,-41.09 638.81,-30.84 630.32,-37.18 636.13,-41.09"/>
</g>
<!-- &#45;31&#45;&gt;4 -->
<g id="edge29" class="edge">
<title>&#45;31&#45;&gt;4</title>
<path fill="none" stroke="red" stroke-width="0.31" d="M588.69,-85.31C584.52,-80.61 578.93,-75.09 573,-71.36 531.95,-45.54 512.97,-57.83 470,-35.36 468.82,-34.74 467.63,-34.07 466.45,-33.36"/>
<polygon fill="red" stroke="red" stroke-width="0.31" points="468.44,-30.48 458.2,-27.77 464.52,-36.28 468.44,-30.48"/>
</g>
<!-- &#45;32 -->
<g id="node32" class="node">
<title>&#45;32</title>
<polygon fill="lightgray" stroke="black" points="28,-105.02 0,-105.02 0,-85.77 28,-85.77 28,-105.02"/>
<text text-anchor="middle" x="14" y="-92.47" font-family="Times New Roman,serif" font-size="9.00">&#45;32</text>
</g>
<!-- &#45;32&#45;&gt;12 -->
<g id="edge35" class="edge">
<title>&#45;32&#45;&gt;12</title>
<path fill="none" stroke="red" stroke-width="0.64" d="M21.71,-85.41C31.27,-74.28 47.87,-54.94 60.75,-39.94"/>
<polygon fill="red" stroke="red" stroke-width="0.64" points="63.33,-42.31 67.19,-32.44 58.02,-37.75 63.33,-42.31"/>
</g>
<!-- &#45;33 -->
<g id="node33" class="node">
<title>&#45;33</title>
<polygon fill="lightgray" stroke="black" points="1372,-179.56 1344,-179.56 1344,-160.31 1372,-160.31 1372,-179.56"/>
<text text-anchor="middle" x="1358" y="-167.01" font-family="Times New Roman,serif" font-size="9.00">&#45;33</text>
</g>
<!-- 7 -->
<g id="node41" class="node">
<title>7</title>
<ellipse fill="lightblue" stroke="black" cx="1404" cy="-169.93" rx="14.5" ry="14.5"/>
<text text-anchor="middle" x="1404" y="-167.01" font-family="Times New Roman,serif" font-size="9.00">7</text>
</g>
<!-- 1325&#45;&gt;6 -->
<g id="edge43" class="edge">
<title>1325&#45;&gt;6</title>
<path fill="none" stroke="green" stroke-width="0.18" d="M977.66,-72.09C981,-62.38 984.9,-51.01 988.24,-41.26"/>
<polygon fill="green" stroke="green" stroke-width="0.18" points="991.45,-42.69 991.39,-32.1 984.83,-40.42 991.45,-42.69"/>
</g>
</g>
</svg>
