<?xml version="1.0" encoding="UTF-8" standalone="no"?>
<!DOCTYPE svg PUBLIC "-//W3C//DTD SVG 1.1//EN"
 "http://www.w3.org/Graphics/SVG/1.1/DTD/svg11.dtd">
<!-- Generated by graphviz version 9.0.0 (20230911.1827)
 -->
<!-- Pages: 1 -->
<svg width="2002pt" height="224pt"
 viewBox="0.00 0.00 2001.75 224.25" xmlns="http://www.w3.org/2000/svg" xmlns:xlink="http://www.w3.org/1999/xlink">
<g id="graph0" class="graph" transform="scale(1 1) rotate(0) translate(4 220.25)">
<polygon fill="white" stroke="none" points="-4,4 -4,-220.25 1997.75,-220.25 1997.75,4 -4,4"/>
<!-- &#45;1 -->
<g id="node1" class="node">
<title>&#45;1</title>
<polygon fill="lightgray" stroke="black" points="23.5,-108.2 0,-108.2 0,-88.95 23.5,-88.95 23.5,-108.2"/>
<text text-anchor="middle" x="11.75" y="-95.65" font-family="Times New Roman,serif" font-size="9.00">&#45;1</text>
</g>
<!-- 5 -->
<g id="node39" class="node">
<title>5</title>
<ellipse fill="lightblue" stroke="black" cx="147.75" cy="-17.68" rx="14.5" ry="14.5"/>
<text text-anchor="middle" x="147.75" y="-14.75" font-family="Times New Roman,serif" font-size="9.00">5</text>
</g>
<!-- &#45;1&#45;&gt;5 -->
<g id="edge17" class="edge">
<title>&#45;1&#45;&gt;5</title>
<path fill="none" stroke="red" stroke-width="0.74" stroke-dasharray="1,5" d="M17.14,-88.91C20.96,-83.33 26.5,-76.23 32.75,-71.36 60.55,-49.66 98.72,-34.46 123.31,-26.14"/>
<polygon fill="red" stroke="red" stroke-width="0.74" points="124.38,-29.47 132.81,-23.05 122.22,-22.81 124.38,-29.47"/>
</g>
<!-- &#45;2 -->
<g id="node2" class="node">
<title>&#45;2</title>
<polygon fill="lightgray" stroke="black" points="553.5,-108.2 530,-108.2 530,-88.95 553.5,-88.95 553.5,-108.2"/>
<text text-anchor="middle" x="541.75" y="-95.65" font-family="Times New Roman,serif" font-size="9.00">&#45;2</text>
</g>
<!-- 1 -->
<g id="node35" class="node">
<title>1</title>
<ellipse fill="lightblue" stroke="black" cx="539.75" cy="-17.68" rx="14.5" ry="14.5"/>
<text text-anchor="middle" x="539.75" y="-14.75" font-family="Times New Roman,serif" font-size="9.00">1</text>
</g>
<!-- &#45;2&#45;&gt;1 -->
<g id="edge81" class="edge">
<title>&#45;2&#45;&gt;1</title>
<path fill="none" stroke="red" stroke-width="0.15" d="M541.52,-88.53C541.24,-77.41 540.75,-58.12 540.36,-42.63"/>
<polygon fill="red" stroke="red" stroke-width="0.15" points="543.86,-42.8 540.11,-32.89 536.86,-42.98 543.86,-42.8"/>
</g>
<!-- 12 -->
<g id="node46" class="node">
<title>12</title>
<ellipse fill="lightblue" stroke="black" cx="673.75" cy="-17.68" rx="17.68" ry="17.68"/>
<text text-anchor="middle" x="673.75" y="-14.75" font-family="Times New Roman,serif" font-size="9.00">12</text>
</g>
<!-- &#45;2&#45;&gt;12 -->
<g id="edge2" class="edge">
<title>&#45;2&#45;&gt;12</title>
<path fill="none" stroke="green" stroke-width="0.16" d="M547.17,-88.94C550.99,-83.37 556.53,-76.28 562.75,-71.36 576.74,-60.29 619.84,-41.19 648.04,-29.28"/>
<polygon fill="green" stroke="green" stroke-width="0.16" points="649.21,-32.59 657.09,-25.49 646.51,-26.13 649.21,-32.59"/>
</g>
<!-- &#45;3 -->
<g id="node3" class="node">
<title>&#45;3</title>
<polygon fill="lightgray" stroke="black" points="1291.5,-108.2 1268,-108.2 1268,-88.95 1291.5,-88.95 1291.5,-108.2"/>
<text text-anchor="middle" x="1279.75" y="-95.65" font-family="Times New Roman,serif" font-size="9.00">&#45;3</text>
</g>
<!-- 7 -->
<g id="node41" class="node">
<title>7</title>
<ellipse fill="lightblue" stroke="black" cx="1279.75" cy="-17.68" rx="14.5" ry="14.5"/>
<text text-anchor="middle" x="1279.75" y="-14.75" font-family="Times New Roman,serif" font-size="9.00">7</text>
</g>
<!-- &#45;3&#45;&gt;7 -->
<g id="edge45" class="edge">
<title>&#45;3&#45;&gt;7</title>
<path fill="none" stroke="red" stroke-width="0.11" stroke-dasharray="1,5" d="M1279.75,-88.53C1279.75,-77.41 1279.75,-58.12 1279.75,-42.63"/>
<polygon fill="red" stroke="red" stroke-width="0.11" points="1283.25,-42.82 1279.75,-32.82 1276.25,-42.82 1283.25,-42.82"/>
</g>
<!-- 8 -->
<g id="node42" class="node">
<title>8</title>
<ellipse fill="lightblue" stroke="black" cx="1183.75" cy="-17.68" rx="14.5" ry="14.5"/>
<text text-anchor="middle" x="1183.75" y="-14.75" font-family="Times New Roman,serif" font-size="9.00">8</text>
</g>
<!-- &#45;3&#45;&gt;8 -->
<g id="edge87" class="edge">
<title>&#45;3&#45;&gt;8</title>
<path fill="none" stroke="red" stroke-width="0.36" d="M1273.69,-88.79C1269.77,-83.43 1264.36,-76.63 1258.75,-71.36 1242.23,-55.84 1220.87,-41.28 1205.18,-31.42"/>
<polygon fill="red" stroke="red" stroke-width="0.36" points="1207.05,-28.46 1196.69,-26.2 1203.38,-34.42 1207.05,-28.46"/>
</g>
<!-- &#45;4 -->
<g id="node4" class="node">
<title>&#45;4</title>
<polygon fill="lightgray" stroke="black" points="1161.5,-108.2 1138,-108.2 1138,-88.95 1161.5,-88.95 1161.5,-108.2"/>
<text text-anchor="middle" x="1149.75" y="-95.65" font-family="Times New Roman,serif" font-size="9.00">&#45;4</text>
</g>
<!-- 6 -->
<g id="node40" class="node">
<title>6</title>
<ellipse fill="lightblue" stroke="black" cx="586.75" cy="-17.68" rx="14.5" ry="14.5"/>
<text text-anchor="middle" x="586.75" y="-14.75" font-family="Times New Roman,serif" font-size="9.00">6</text>
</g>
<!-- &#45;4&#45;&gt;6 -->
<g id="edge71" class="edge">
<title>&#45;4&#45;&gt;6</title>
<path fill="none" stroke="green" stroke-width="0.83" d="M1145.17,-88.65C1141.58,-82.65 1135.97,-75.16 1128.75,-71.36 1033.73,-21.27 752.56,-53.83 646.75,-35.36 634.86,-33.28 621.93,-29.84 611.13,-26.63"/>
<polygon fill="green" stroke="green" stroke-width="0.83" points="612.18,-23.29 601.59,-23.67 610.11,-29.97 612.18,-23.29"/>
</g>
<!-- &#45;4&#45;&gt;8 -->
<g id="edge66" class="edge">
<title>&#45;4&#45;&gt;8</title>
<path fill="none" stroke="red" stroke-width="0.12" d="M1153.65,-88.53C1158.65,-76.93 1167.48,-56.44 1174.29,-40.64"/>
<polygon fill="red" stroke="red" stroke-width="0.12" points="1177.4,-42.27 1178.14,-31.7 1170.97,-39.5 1177.4,-42.27"/>
</g>
<!-- 13 -->
<g id="node47" class="node">
<title>13</title>
<ellipse fill="lightblue" stroke="black" cx="1111.75" cy="-17.68" rx="17.68" ry="17.68"/>
<text text-anchor="middle" x="1111.75" y="-14.75" font-family="Times New Roman,serif" font-size="9.00">13</text>
</g>
<!-- &#45;4&#45;&gt;13 -->
<g id="edge30" class="edge">
<title>&#45;4&#45;&gt;13</title>
<path fill="none" stroke="red" stroke-width="0.21" d="M1145.39,-88.53C1140.1,-77.53 1130.95,-58.54 1123.53,-43.14"/>
<polygon fill="red" stroke="red" stroke-width="0.21" points="1126.82,-41.9 1119.32,-34.41 1120.51,-44.93 1126.82,-41.9"/>
</g>
<!-- &#45;5 -->
<g id="node5" class="node">
<title>&#45;5</title>
<polygon fill="lightgray" stroke="black" points="817.5,-108.2 794,-108.2 794,-88.95 817.5,-88.95 817.5,-108.2"/>
<text text-anchor="middle" x="805.75" y="-95.65" font-family="Times New Roman,serif" font-size="9.00">&#45;5</text>
</g>
<!-- &#45;5&#45;&gt;1 -->
<g id="edge21" class="edge">
<title>&#45;5&#45;&gt;1</title>
<path fill="none" stroke="green" stroke-width="0.22" stroke-dasharray="1,5" d="M800.91,-88.59C797.26,-82.72 791.7,-75.41 784.75,-71.36 698.81,-21.17 656,-72.67 563.75,-35.36 562.13,-34.7 560.52,-33.92 558.93,-33.06"/>
<polygon fill="green" stroke="green" stroke-width="0.22" points="560.97,-30.21 550.67,-27.77 557.2,-36.11 560.97,-30.21"/>
</g>
<!-- 4 -->
<g id="node38" class="node">
<title>4</title>
<ellipse fill="lightblue" stroke="black" cx="1008.75" cy="-17.68" rx="14.5" ry="14.5"/>
<text text-anchor="middle" x="1008.75" y="-14.75" font-family="Times New Roman,serif" font-size="9.00">4</text>
</g>
<!-- &#45;5&#45;&gt;4 -->
<g id="edge36" class="edge">
<title>&#45;5&#45;&gt;4</title>
<path fill="none" stroke="green" stroke-width="0.38" d="M810.92,-88.6C814.64,-82.89 820.15,-75.76 826.75,-71.36 852.8,-53.97 940.8,-33.3 984.17,-23.85"/>
<polygon fill="green" stroke="green" stroke-width="0.38" points="984.8,-27.3 993.85,-21.77 983.33,-20.45 984.8,-27.3"/>
</g>
<!-- &#45;5&#45;&gt;5 -->
<g id="edge49" class="edge">
<title>&#45;5&#45;&gt;5</title>
<path fill="none" stroke="red" stroke-width="0.1" d="M801.18,-88.64C797.58,-82.64 791.98,-75.15 784.75,-71.36 685.73,-19.35 394.06,-46.22 282.75,-35.36 243.95,-31.57 199.05,-25.73 172.05,-22.06"/>
<polygon fill="red" stroke="red" stroke-width="0.1" points="172.84,-18.64 162.46,-20.75 171.89,-25.57 172.84,-18.64"/>
</g>
<!-- 9 -->
<g id="node43" class="node">
<title>9</title>
<ellipse fill="lightblue" stroke="black" cx="1371.75" cy="-17.68" rx="14.5" ry="14.5"/>
<text text-anchor="middle" x="1371.75" y="-14.75" font-family="Times New Roman,serif" font-size="9.00">9</text>
</g>
<!-- &#45;5&#45;&gt;9 -->
<g id="edge28" class="edge">
<title>&#45;5&#45;&gt;9</title>
<path fill="none" stroke="red" stroke-width="0.26" d="M810.33,-88.65C813.92,-82.65 819.53,-75.17 826.75,-71.36 920.57,-21.85 1197.96,-51.87 1302.75,-35.36 1318.02,-32.95 1334.9,-28.89 1348.14,-25.39"/>
<polygon fill="red" stroke="red" stroke-width="0.26" points="1348.76,-28.84 1357.49,-22.84 1346.92,-22.09 1348.76,-28.84"/>
</g>
<!-- &#45;6 -->
<g id="node6" class="node">
<title>&#45;6</title>
<polygon fill="lightgray" stroke="black" points="1119.5,-108.2 1096,-108.2 1096,-88.95 1119.5,-88.95 1119.5,-108.2"/>
<text text-anchor="middle" x="1107.75" y="-95.65" font-family="Times New Roman,serif" font-size="9.00">&#45;6</text>
</g>
<!-- &#45;6&#45;&gt;4 -->
<g id="edge41" class="edge">
<title>&#45;6&#45;&gt;4</title>
<path fill="none" stroke="red" stroke-width="0.98" d="M1099.43,-88.47C1094.49,-83.24 1087.99,-76.69 1081.75,-71.36 1065.25,-57.24 1045.15,-42.93 1030.23,-32.8"/>
<polygon fill="red" stroke="red" stroke-width="0.98" points="1032.32,-29.98 1022.06,-27.33 1028.42,-35.8 1032.32,-29.98"/>
</g>
<!-- &#45;6&#45;&gt;13 -->
<g id="edge51" class="edge">
<title>&#45;6&#45;&gt;13</title>
<path fill="none" stroke="green" stroke-width="0.13" stroke-dasharray="1,5" d="M1108.21,-88.53C1108.74,-78.07 1109.64,-60.38 1110.39,-45.42"/>
<polygon fill="green" stroke="green" stroke-width="0.13" points="1113.87,-45.98 1110.88,-35.82 1106.88,-45.63 1113.87,-45.98"/>
</g>
<!-- &#45;7 -->
<g id="node7" class="node">
<title>&#45;7</title>
<polygon fill="lightgray" stroke="black" points="1783.5,-198.65 1760,-198.65 1760,-179.4 1783.5,-179.4 1783.5,-198.65"/>
<text text-anchor="middle" x="1771.75" y="-186.1" font-family="Times New Roman,serif" font-size="9.00">&#45;7</text>
</g>
<!-- 11 -->
<g id="node45" class="node">
<title>11</title>
<ellipse fill="lightblue" stroke="black" cx="1827.75" cy="-98.58" rx="17.68" ry="17.68"/>
<text text-anchor="middle" x="1827.75" y="-95.65" font-family="Times New Roman,serif" font-size="9.00">11</text>
</g>
<!-- &#45;7&#45;&gt;11 -->
<g id="edge37" class="edge">
<title>&#45;7&#45;&gt;11</title>
<path fill="none" stroke="green" stroke-width="0.83" d="M1777.32,-179.22C1785.45,-166.39 1800.84,-142.08 1812.49,-123.68"/>
<polygon fill="green" stroke="green" stroke-width="0.83" points="1815.44,-125.57 1817.83,-115.24 1809.52,-121.82 1815.44,-125.57"/>
</g>
<!-- &#45;8 -->
<g id="node8" class="node">
<title>&#45;8</title>
<polygon fill="lightgray" stroke="black" points="1203.5,-108.2 1180,-108.2 1180,-88.95 1203.5,-88.95 1203.5,-108.2"/>
<text text-anchor="middle" x="1191.75" y="-95.65" font-family="Times New Roman,serif" font-size="9.00">&#45;8</text>
</g>
<!-- &#45;8&#45;&gt;8 -->
<g id="edge33" class="edge">
<title>&#45;8&#45;&gt;8</title>
<path fill="none" stroke="red" stroke-width="0.74" d="M1190.83,-88.53C1189.72,-77.56 1187.8,-58.64 1186.24,-43.26"/>
<polygon fill="red" stroke="red" stroke-width="0.74" points="1189.74,-43.09 1185.25,-33.49 1182.78,-43.79 1189.74,-43.09"/>
</g>
<!-- &#45;8&#45;&gt;13 -->
<g id="edge42" class="edge">
<title>&#45;8&#45;&gt;13</title>
<path fill="none" stroke="red" stroke-width="0.6" d="M1185.1,-88.53C1181.14,-83.33 1175.89,-76.77 1170.75,-71.36 1159.01,-58.97 1144.76,-46.19 1133.2,-36.32"/>
<polygon fill="red" stroke="red" stroke-width="0.6" points="1135.57,-33.74 1125.67,-29.97 1131.06,-39.09 1135.57,-33.74"/>
</g>
<!-- &#45;9 -->
<g id="node9" class="node">
<title>&#45;9</title>
<polygon fill="lightgray" stroke="black" points="1659.5,-108.2 1636,-108.2 1636,-88.95 1659.5,-88.95 1659.5,-108.2"/>
<text text-anchor="middle" x="1647.75" y="-95.65" font-family="Times New Roman,serif" font-size="9.00">&#45;9</text>
</g>
<!-- 0 -->
<g id="node34" class="node">
<title>0</title>
<ellipse fill="lightblue" stroke="black" cx="1603.75" cy="-17.68" rx="14.5" ry="14.5"/>
<text text-anchor="middle" x="1603.75" y="-14.75" font-family="Times New Roman,serif" font-size="9.00">0</text>
</g>
<!-- &#45;9&#45;&gt;0 -->
<g id="edge3" class="edge">
<title>&#45;9&#45;&gt;0</title>
<path fill="none" stroke="green" stroke-width="1.3" d="M1642.7,-88.53C1636.28,-77.02 1624.98,-56.74 1616.2,-40.99"/>
<polygon fill="green" stroke="green" stroke-width="1.3" points="1619.49,-39.72 1611.56,-32.69 1613.38,-43.13 1619.49,-39.72"/>
</g>
<!-- &#45;10 -->
<g id="node10" class="node">
<title>&#45;10</title>
<polygon fill="lightgray" stroke="black" points="955.75,-108.2 927.75,-108.2 927.75,-88.95 955.75,-88.95 955.75,-108.2"/>
<text text-anchor="middle" x="941.75" y="-95.65" font-family="Times New Roman,serif" font-size="9.00">&#45;10</text>
</g>
<!-- 2 -->
<g id="node36" class="node">
<title>2</title>
<ellipse fill="lightblue" stroke="black" cx="897.75" cy="-17.68" rx="14.5" ry="14.5"/>
<text text-anchor="middle" x="897.75" y="-14.75" font-family="Times New Roman,serif" font-size="9.00">2</text>
</g>
<!-- &#45;10&#45;&gt;2 -->
<g id="edge19" class="edge">
<title>&#45;10&#45;&gt;2</title>
<path fill="none" stroke="red" stroke-width="0.39" d="M936.7,-88.53C930.16,-76.8 918.54,-55.96 909.69,-40.09"/>
<polygon fill="red" stroke="red" stroke-width="0.39" points="912.82,-38.52 904.89,-31.49 906.71,-41.93 912.82,-38.52"/>
</g>
<!-- &#45;10&#45;&gt;4 -->
<g id="edge54" class="edge">
<title>&#45;10&#45;&gt;4</title>
<path fill="none" stroke="green" stroke-width="0.36" d="M949.44,-88.53C960.03,-76.05 979.37,-53.28 993.08,-37.13"/>
<polygon fill="green" stroke="green" stroke-width="0.36" points="995.5,-39.68 999.31,-29.8 990.17,-35.15 995.5,-39.68"/>
</g>
<!-- &#45;10&#45;&gt;8 -->
<g id="edge40" class="edge">
<title>&#45;10&#45;&gt;8</title>
<path fill="none" stroke="red" stroke-width="0.6" d="M947.28,-88.64C951.37,-82.79 957.49,-75.49 964.75,-71.36 1040.18,-28.36 1075.78,-66.7 1156.75,-35.36 1158.75,-34.58 1160.77,-33.65 1162.76,-32.64"/>
<polygon fill="red" stroke="red" stroke-width="0.6" points="1164.5,-35.67 1171.37,-27.6 1160.97,-29.63 1164.5,-35.67"/>
</g>
<!-- &#45;10&#45;&gt;9 -->
<g id="edge35" class="edge">
<title>&#45;10&#45;&gt;9</title>
<path fill="none" stroke="red" stroke-width="0.43" stroke-dasharray="1,5" d="M947,-88.71C951.05,-82.74 957.22,-75.26 964.75,-71.36 1098.86,-1.8 1153.9,-61.16 1302.75,-35.36 1317.83,-32.74 1334.53,-28.74 1347.71,-25.31"/>
<polygon fill="red" stroke="red" stroke-width="0.43" points="1348.47,-28.73 1357.23,-22.77 1346.67,-21.96 1348.47,-28.73"/>
</g>
<!-- 10 -->
<g id="node44" class="node">
<title>10</title>
<ellipse fill="lightblue" stroke="black" cx="761.75" cy="-17.68" rx="17.68" ry="17.68"/>
<text text-anchor="middle" x="761.75" y="-14.75" font-family="Times New Roman,serif" font-size="9.00">10</text>
</g>
<!-- &#45;10&#45;&gt;10 -->
<g id="edge57" class="edge">
<title>&#45;10&#45;&gt;10</title>
<path fill="none" stroke="red" stroke-width="0.88" d="M935.85,-88.7C931.67,-83.03 925.61,-75.92 918.75,-71.36 878.46,-44.54 823.28,-30.21 790.2,-23.55"/>
<polygon fill="red" stroke="red" stroke-width="0.88" points="790.87,-20.11 780.39,-21.67 789.56,-26.99 790.87,-20.11"/>
</g>
<!-- &#45;10&#45;&gt;12 -->
<g id="edge12" class="edge">
<title>&#45;10&#45;&gt;12</title>
<path fill="none" stroke="red" stroke-width="0.41" d="M936.21,-88.66C932.11,-82.82 925.99,-75.52 918.75,-71.36 846.52,-29.81 815.88,-54.36 734.75,-35.36 723.53,-32.73 711.25,-29.45 700.67,-26.5"/>
<polygon fill="red" stroke="red" stroke-width="0.41" points="701.93,-23.22 691.35,-23.86 700.02,-29.95 701.93,-23.22"/>
</g>
<!-- &#45;11 -->
<g id="node11" class="node">
<title>&#45;11</title>
<polygon fill="lightgray" stroke="black" points="909.75,-108.2 881.75,-108.2 881.75,-88.95 909.75,-88.95 909.75,-108.2"/>
<text text-anchor="middle" x="895.75" y="-95.65" font-family="Times New Roman,serif" font-size="9.00">&#45;11</text>
</g>
<!-- &#45;11&#45;&gt;6 -->
<g id="edge29" class="edge">
<title>&#45;11&#45;&gt;6</title>
<path fill="none" stroke="red" stroke-width="0.38" stroke-dasharray="1,5" d="M890.26,-88.57C886.18,-82.7 880.07,-75.39 872.75,-71.36 783.7,-22.2 746.13,-57.01 646.75,-35.36 634.71,-32.73 621.49,-29.14 610.54,-25.96"/>
<polygon fill="red" stroke="red" stroke-width="0.38" points="611.6,-22.62 601.02,-23.13 609.61,-29.33 611.6,-22.62"/>
</g>
<!-- &#45;11&#45;&gt;8 -->
<g id="edge16" class="edge">
<title>&#45;11&#45;&gt;8</title>
<path fill="none" stroke="green" stroke-width="0.26" stroke-dasharray="1,5" d="M901.23,-88.56C905.31,-82.67 911.42,-75.37 918.75,-71.36 1012.61,-20.02 1056.32,-72.21 1156.75,-35.36 1159.06,-34.51 1161.39,-33.45 1163.66,-32.27"/>
<polygon fill="green" stroke="green" stroke-width="0.26" points="1165.28,-35.38 1172.11,-27.27 1161.72,-29.35 1165.28,-35.38"/>
</g>
<!-- &#45;12 -->
<g id="node12" class="node">
<title>&#45;12</title>
<polygon fill="lightgray" stroke="black" points="317.75,-108.2 289.75,-108.2 289.75,-88.95 317.75,-88.95 317.75,-108.2"/>
<text text-anchor="middle" x="303.75" y="-95.65" font-family="Times New Roman,serif" font-size="9.00">&#45;12</text>
</g>
<!-- &#45;12&#45;&gt;1 -->
<g id="edge55" class="edge">
<title>&#45;12&#45;&gt;1</title>
<path fill="none" stroke="red" stroke-width="0.35" d="M309.54,-88.52C313.66,-82.77 319.71,-75.64 326.75,-71.36 387.41,-34.44 472.67,-23.36 514.54,-20.06"/>
<polygon fill="red" stroke="red" stroke-width="0.35" points="514.65,-23.56 524.38,-19.37 514.16,-16.57 514.65,-23.56"/>
</g>
<!-- &#45;12&#45;&gt;5 -->
<g id="edge56" class="edge">
<title>&#45;12&#45;&gt;5</title>
<path fill="none" stroke="green" stroke-width="0.38" d="M289.35,-90.3C261.87,-76.4 201.81,-46.02 169.44,-29.65"/>
<polygon fill="green" stroke="green" stroke-width="0.38" points="171.37,-26.7 160.86,-25.31 168.21,-32.95 171.37,-26.7"/>
</g>
<!-- &#45;12&#45;&gt;6 -->
<g id="edge14" class="edge">
<title>&#45;12&#45;&gt;6</title>
<path fill="none" stroke="red" stroke-width="0.19" d="M309.23,-88.56C313.31,-82.68 319.42,-75.37 326.75,-71.36 419.81,-20.39 464.19,-74.65 562.75,-35.36 564.37,-34.71 565.99,-33.94 567.57,-33.08"/>
<polygon fill="red" stroke="red" stroke-width="0.19" points="569.34,-36.11 575.88,-27.77 565.57,-30.21 569.34,-36.11"/>
</g>
<!-- &#45;13 -->
<g id="node13" class="node">
<title>&#45;13</title>
<polygon fill="lightgray" stroke="black" points="599.75,-108.2 571.75,-108.2 571.75,-88.95 599.75,-88.95 599.75,-108.2"/>
<text text-anchor="middle" x="585.75" y="-95.65" font-family="Times New Roman,serif" font-size="9.00">&#45;13</text>
</g>
<!-- &#45;13&#45;&gt;1 -->
<g id="edge43" class="edge">
<title>&#45;13&#45;&gt;1</title>
<path fill="none" stroke="green" stroke-width="0.58" d="M580.47,-88.53C573.59,-76.73 561.35,-55.72 552.08,-39.82"/>
<polygon fill="green" stroke="green" stroke-width="0.58" points="555.26,-38.34 547.2,-31.46 549.22,-41.86 555.26,-38.34"/>
</g>
<!-- &#45;13&#45;&gt;6 -->
<g id="edge32" class="edge">
<title>&#45;13&#45;&gt;6</title>
<path fill="none" stroke="red" stroke-width="0.27" stroke-dasharray="1,5" d="M585.86,-88.53C586.01,-77.41 586.25,-58.12 586.45,-42.63"/>
<polygon fill="red" stroke="red" stroke-width="0.27" points="589.94,-43.11 586.57,-33.06 582.94,-43.02 589.94,-43.11"/>
</g>
<!-- &#45;13&#45;&gt;10 -->
<g id="edge27" class="edge">
<title>&#45;13&#45;&gt;10</title>
<path fill="none" stroke="red" stroke-width="0.48" d="M591.64,-88.69C595.82,-83.01 601.88,-75.89 608.75,-71.36 651.68,-43.01 670.31,-52.66 718.75,-35.36 724.31,-33.37 730.24,-31.14 735.86,-28.98"/>
<polygon fill="red" stroke="red" stroke-width="0.48" points="736.77,-32.38 744.81,-25.49 734.23,-25.86 736.77,-32.38"/>
</g>
<!-- &#45;14 -->
<g id="node14" class="node">
<title>&#45;14</title>
<polygon fill="lightgray" stroke="black" points="1249.75,-108.2 1221.75,-108.2 1221.75,-88.95 1249.75,-88.95 1249.75,-108.2"/>
<text text-anchor="middle" x="1235.75" y="-95.65" font-family="Times New Roman,serif" font-size="9.00">&#45;14</text>
</g>
<!-- &#45;14&#45;&gt;8 -->
<g id="edge6" class="edge">
<title>&#45;14&#45;&gt;8</title>
<path fill="none" stroke="red" stroke-width="0.35" stroke-dasharray="1,5" d="M1229.78,-88.53C1221.89,-76.55 1207.74,-55.08 1197.21,-39.1"/>
<polygon fill="red" stroke="red" stroke-width="0.35" points="1200.21,-37.3 1191.79,-30.87 1194.37,-41.15 1200.21,-37.3"/>
</g>
<!-- &#45;15 -->
<g id="node15" class="node">
<title>&#45;15</title>
<polygon fill="lightgray" stroke="black" points="1901.75,-198.65 1873.75,-198.65 1873.75,-179.4 1901.75,-179.4 1901.75,-198.65"/>
<text text-anchor="middle" x="1887.75" y="-186.1" font-family="Times New Roman,serif" font-size="9.00">&#45;15</text>
</g>
<!-- &#45;16 -->
<g id="node16" class="node">
<title>&#45;16</title>
<polygon fill="lightgray" stroke="black" points="1947.75,-198.65 1919.75,-198.65 1919.75,-179.4 1947.75,-179.4 1947.75,-198.65"/>
<text text-anchor="middle" x="1933.75" y="-186.1" font-family="Times New Roman,serif" font-size="9.00">&#45;16</text>
</g>
<!-- &#45;17 -->
<g id="node17" class="node">
<title>&#45;17</title>
<polygon fill="lightgray" stroke="black" points="1993.75,-198.65 1965.75,-198.65 1965.75,-179.4 1993.75,-179.4 1993.75,-198.65"/>
<text text-anchor="middle" x="1979.75" y="-186.1" font-family="Times New Roman,serif" font-size="9.00">&#45;17</text>
</g>
<!-- &#45;18 -->
<g id="node18" class="node">
<title>&#45;18</title>
<polygon fill="lightgray" stroke="black" points="1617.75,-108.2 1589.75,-108.2 1589.75,-88.95 1617.75,-88.95 1617.75,-108.2"/>
<text text-anchor="middle" x="1603.75" y="-95.65" font-family="Times New Roman,serif" font-size="9.00">&#45;18</text>
</g>
<!-- &#45;18&#45;&gt;0 -->
<g id="edge9" class="edge">
<title>&#45;18&#45;&gt;0</title>
<path fill="none" stroke="green" stroke-width="0.25" stroke-dasharray="1,5" d="M1603.75,-88.53C1603.75,-77.41 1603.75,-58.12 1603.75,-42.63"/>
<polygon fill="green" stroke="green" stroke-width="0.25" points="1607.25,-43.03 1603.75,-33.03 1600.25,-43.03 1607.25,-43.03"/>
</g>
<!-- &#45;18&#45;&gt;9 -->
<g id="edge60" class="edge">
<title>&#45;18&#45;&gt;9</title>
<path fill="none" stroke="red" stroke-width="0.25" d="M1597.96,-88.53C1593.83,-82.78 1587.78,-75.65 1580.75,-71.36 1521.39,-35.05 1437.99,-23.7 1396.8,-20.2"/>
<polygon fill="red" stroke="red" stroke-width="0.25" points="1397.2,-16.72 1386.96,-19.45 1396.67,-23.7 1397.2,-16.72"/>
</g>
<!-- &#45;19 -->
<g id="node19" class="node">
<title>&#45;19</title>
<polygon fill="lightgray" stroke="black" points="161.75,-108.2 133.75,-108.2 133.75,-88.95 161.75,-88.95 161.75,-108.2"/>
<text text-anchor="middle" x="147.75" y="-95.65" font-family="Times New Roman,serif" font-size="9.00">&#45;19</text>
</g>
<!-- 3 -->
<g id="node37" class="node">
<title>3</title>
<ellipse fill="lightblue" stroke="black" cx="305.75" cy="-17.68" rx="14.5" ry="14.5"/>
<text text-anchor="middle" x="305.75" y="-14.75" font-family="Times New Roman,serif" font-size="9.00">3</text>
</g>
<!-- &#45;19&#45;&gt;3 -->
<g id="edge76" class="edge">
<title>&#45;19&#45;&gt;3</title>
<path fill="none" stroke="green" stroke-width="0.23" d="M153.73,-88.81C157.94,-83.19 164.01,-76.08 170.75,-71.36 205.64,-46.9 253.45,-31.74 281.82,-24.29"/>
<polygon fill="green" stroke="green" stroke-width="0.23" points="282.49,-27.73 291.33,-21.89 280.78,-20.94 282.49,-27.73"/>
</g>
<!-- &#45;19&#45;&gt;5 -->
<g id="edge18" class="edge">
<title>&#45;19&#45;&gt;5</title>
<path fill="none" stroke="red" stroke-width="1.35" d="M147.75,-88.53C147.75,-77.84 147.75,-59.6 147.75,-44.43"/>
<polygon fill="red" stroke="red" stroke-width="1.35" points="151.25,-44.7 147.75,-34.7 144.25,-44.7 151.25,-44.7"/>
</g>
<!-- &#45;20 -->
<g id="node20" class="node">
<title>&#45;20</title>
<polygon fill="lightgray" stroke="black" points="863.75,-108.2 835.75,-108.2 835.75,-88.95 863.75,-88.95 863.75,-108.2"/>
<text text-anchor="middle" x="849.75" y="-95.65" font-family="Times New Roman,serif" font-size="9.00">&#45;20</text>
</g>
<!-- &#45;20&#45;&gt;10 -->
<g id="edge48" class="edge">
<title>&#45;20&#45;&gt;10</title>
<path fill="none" stroke="green" stroke-width="0.12" d="M842.44,-88.5C838.09,-83.28 832.34,-76.73 826.75,-71.36 813.18,-58.3 796.69,-44.97 783.71,-34.98"/>
<polygon fill="green" stroke="green" stroke-width="0.12" points="785.99,-32.31 775.91,-29.04 781.75,-37.88 785.99,-32.31"/>
</g>
<!-- &#45;20&#45;&gt;12 -->
<g id="edge65" class="edge">
<title>&#45;20&#45;&gt;12</title>
<path fill="none" stroke="red" stroke-width="0.55" stroke-dasharray="1,5" d="M843.65,-88.47C839.47,-82.85 833.49,-75.88 826.75,-71.36 805.89,-57.35 739.5,-37.21 701.38,-26.33"/>
<polygon fill="red" stroke="red" stroke-width="0.55" points="702.36,-22.97 691.79,-23.62 700.46,-29.71 702.36,-22.97"/>
</g>
<!-- &#45;20&#45;&gt;13 -->
<g id="edge53" class="edge">
<title>&#45;20&#45;&gt;13</title>
<path fill="none" stroke="green" stroke-width="0.14" stroke-dasharray="1,5" d="M855.3,-88.67C859.4,-82.84 865.52,-75.55 872.75,-71.36 942.19,-31.07 971.62,-53.79 1049.75,-35.36 1061.34,-32.62 1074.06,-29.26 1084.94,-26.28"/>
<polygon fill="green" stroke="green" stroke-width="0.14" points="1085.81,-29.67 1094.51,-23.62 1083.94,-22.93 1085.81,-29.67"/>
</g>
<!-- &#45;21 -->
<g id="node21" class="node">
<title>&#45;21</title>
<polygon fill="lightgray" stroke="black" points="1741.75,-198.65 1713.75,-198.65 1713.75,-179.4 1741.75,-179.4 1741.75,-198.65"/>
<text text-anchor="middle" x="1727.75" y="-186.1" font-family="Times New Roman,serif" font-size="9.00">&#45;21</text>
</g>
<!-- &#45;21&#45;&gt;0 -->
<g id="edge61" class="edge">
<title>&#45;21&#45;&gt;0</title>
<path fill="none" stroke="green" stroke-width="0.51" d="M1731.62,-179.18C1740.07,-158.33 1757.7,-105.32 1734.75,-71.36 1711.04,-36.26 1659.66,-24.54 1628.76,-20.63"/>
<polygon fill="green" stroke="green" stroke-width="0.51" points="1629.48,-17.19 1619.17,-19.6 1628.74,-24.15 1629.48,-17.19"/>
</g>
<!-- 4794 -->
<g id="node48" class="node">
<title>4794</title>
<ellipse fill="white" stroke="black" cx="1701.75" cy="-98.58" rx="24.04" ry="24.04"/>
<text text-anchor="middle" x="1701.75" y="-95.65" font-family="Times New Roman,serif" font-size="9.00">4794</text>
</g>
<!-- &#45;21&#45;&gt;4794 -->
<g id="edge73" class="edge">
<title>&#45;21&#45;&gt;4794</title>
<path fill="none" stroke="red" stroke-width="0.4" stroke-dasharray="1,5" d="M1725.16,-179.22C1721.95,-168.29 1716.29,-149.04 1711.34,-132.2"/>
<polygon fill="red" stroke="red" stroke-width="0.4" points="1714.72,-131.31 1708.55,-122.7 1708.01,-133.28 1714.72,-131.31"/>
</g>
<!-- &#45;22 -->
<g id="node22" class="node">
<title>&#45;22</title>
<polygon fill="lightgray" stroke="black" points="1525.75,-108.2 1497.75,-108.2 1497.75,-88.95 1525.75,-88.95 1525.75,-108.2"/>
<text text-anchor="middle" x="1511.75" y="-95.65" font-family="Times New Roman,serif" font-size="9.00">&#45;22</text>
</g>
<!-- &#45;22&#45;&gt;0 -->
<g id="edge52" class="edge">
<title>&#45;22&#45;&gt;0</title>
<path fill="none" stroke="red" stroke-width="0.27" d="M1518.6,-88.92C1522.98,-83.61 1528.91,-76.81 1534.75,-71.36 1550.25,-56.87 1569.57,-42.39 1583.82,-32.28"/>
<polygon fill="red" stroke="red" stroke-width="0.27" points="1585.44,-35.42 1591.63,-26.83 1581.43,-29.68 1585.44,-35.42"/>
</g>
<!-- &#45;22&#45;&gt;8 -->
<g id="edge38" class="edge">
<title>&#45;22&#45;&gt;8</title>
<path fill="none" stroke="red" stroke-width="0.34" d="M1497.55,-90.4C1485.39,-84.52 1467.3,-76.38 1450.75,-71.36 1366.84,-45.88 1342.63,-53.12 1256.75,-35.36 1240.42,-31.98 1222.12,-27.79 1207.93,-24.46"/>
<polygon fill="red" stroke="red" stroke-width="0.34" points="1209.02,-21.13 1198.48,-22.23 1207.41,-27.94 1209.02,-21.13"/>
</g>
<!-- &#45;23 -->
<g id="node23" class="node">
<title>&#45;23</title>
<polygon fill="lightgray" stroke="black" points="1441.75,-108.2 1413.75,-108.2 1413.75,-88.95 1441.75,-88.95 1441.75,-108.2"/>
<text text-anchor="middle" x="1427.75" y="-95.65" font-family="Times New Roman,serif" font-size="9.00">&#45;23</text>
</g>
<!-- &#45;23&#45;&gt;0 -->
<g id="edge77" class="edge">
<title>&#45;23&#45;&gt;0</title>
<path fill="none" stroke="green" stroke-width="0.5" d="M1442.15,-91.12C1472.77,-77.4 1544.52,-45.23 1581.24,-28.77"/>
<polygon fill="green" stroke="green" stroke-width="0.5" points="1582.21,-32.17 1589.91,-24.88 1579.35,-25.78 1582.21,-32.17"/>
</g>
<!-- &#45;23&#45;&gt;4 -->
<g id="edge82" class="edge">
<title>&#45;23&#45;&gt;4</title>
<path fill="none" stroke="red" stroke-width="0.29" d="M1422.32,-88.47C1418.26,-82.54 1412.16,-75.22 1404.75,-71.36 1277.9,-5.09 1225.95,-58.73 1084.75,-35.36 1067.27,-32.46 1047.75,-28.16 1032.87,-24.64"/>
<polygon fill="red" stroke="red" stroke-width="0.29" points="1033.92,-21.29 1023.37,-22.36 1032.28,-28.1 1033.92,-21.29"/>
</g>
<!-- &#45;23&#45;&gt;9 -->
<g id="edge26" class="edge">
<title>&#45;23&#45;&gt;9</title>
<path fill="none" stroke="red" stroke-width="0.29" d="M1421.33,-88.53C1412.7,-76.37 1397.13,-54.44 1385.73,-38.38"/>
<polygon fill="red" stroke="red" stroke-width="0.29" points="1388.8,-36.66 1380.16,-30.53 1383.09,-40.71 1388.8,-36.66"/>
</g>
<!-- &#45;24 -->
<g id="node24" class="node">
<title>&#45;24</title>
<polygon fill="lightgray" stroke="black" points="1001.75,-108.2 973.75,-108.2 973.75,-88.95 1001.75,-88.95 1001.75,-108.2"/>
<text text-anchor="middle" x="987.75" y="-95.65" font-family="Times New Roman,serif" font-size="9.00">&#45;24</text>
</g>
<!-- &#45;24&#45;&gt;2 -->
<g id="edge50" class="edge">
<title>&#45;24&#45;&gt;2</title>
<path fill="none" stroke="red" stroke-width="0.24" d="M980.47,-88.47C976.13,-83.24 970.38,-76.69 964.75,-71.36 949.77,-57.16 931.23,-42.8 917.45,-32.67"/>
<polygon fill="red" stroke="red" stroke-width="0.24" points="919.62,-29.91 909.47,-26.88 915.51,-35.58 919.62,-29.91"/>
</g>
<!-- &#45;24&#45;&gt;4 -->
<g id="edge58" class="edge">
<title>&#45;24&#45;&gt;4</title>
<path fill="none" stroke="red" stroke-width="0.22" d="M990.16,-88.53C993.18,-77.17 998.47,-57.29 1002.64,-41.63"/>
<polygon fill="red" stroke="red" stroke-width="0.22" points="1005.9,-42.98 1005.09,-32.42 999.14,-41.18 1005.9,-42.98"/>
</g>
<!-- &#45;25 -->
<g id="node25" class="node">
<title>&#45;25</title>
<polygon fill="lightgray" stroke="black" points="69.75,-108.2 41.75,-108.2 41.75,-88.95 69.75,-88.95 69.75,-108.2"/>
<text text-anchor="middle" x="55.75" y="-95.65" font-family="Times New Roman,serif" font-size="9.00">&#45;25</text>
</g>
<!-- &#45;25&#45;&gt;5 -->
<g id="edge69" class="edge">
<title>&#45;25&#45;&gt;5</title>
<path fill="none" stroke="green" stroke-width="0.4" d="M62.6,-88.92C66.98,-83.61 72.91,-76.81 78.75,-71.36 94.11,-57.01 113.21,-42.66 127.42,-32.57"/>
<polygon fill="green" stroke="green" stroke-width="0.4" points="129.27,-35.54 135.46,-26.94 125.26,-29.81 129.27,-35.54"/>
</g>
<!-- &#45;26 -->
<g id="node26" class="node">
<title>&#45;26</title>
<polygon fill="lightgray" stroke="black" points="775.75,-108.2 747.75,-108.2 747.75,-88.95 775.75,-88.95 775.75,-108.2"/>
<text text-anchor="middle" x="761.75" y="-95.65" font-family="Times New Roman,serif" font-size="9.00">&#45;26</text>
</g>
<!-- &#45;26&#45;&gt;2 -->
<g id="edge25" class="edge">
<title>&#45;26&#45;&gt;2</title>
<path fill="none" stroke="red" stroke-width="0.87" d="M768.21,-88.46C772.44,-82.97 778.36,-76.15 784.75,-71.36 812.28,-50.71 849.2,-35.39 873.23,-26.74"/>
<polygon fill="red" stroke="red" stroke-width="0.87" points="874.34,-30.06 882.64,-23.47 872.05,-23.45 874.34,-30.06"/>
</g>
<!-- &#45;26&#45;&gt;3 -->
<g id="edge10" class="edge">
<title>&#45;26&#45;&gt;3</title>
<path fill="none" stroke="red" stroke-width="0.16" d="M756.3,-88.49C752.25,-82.57 746.14,-75.26 738.75,-71.36 702.43,-52.17 416.59,-27.66 330.32,-20.64"/>
<polygon fill="red" stroke="red" stroke-width="0.16" points="330.66,-17.15 320.41,-19.84 330.09,-24.13 330.66,-17.15"/>
</g>
<!-- &#45;26&#45;&gt;4 -->
<g id="edge4" class="edge">
<title>&#45;26&#45;&gt;4</title>
<path fill="none" stroke="red" stroke-width="0.25" d="M767.52,-88.49C771.64,-82.73 777.69,-75.6 784.75,-71.36 801.93,-61.04 929.82,-34.53 984.29,-23.55"/>
<polygon fill="red" stroke="red" stroke-width="0.25" points="984.96,-26.99 994.08,-21.59 983.58,-20.12 984.96,-26.99"/>
</g>
<!-- &#45;26&#45;&gt;5 -->
<g id="edge7" class="edge">
<title>&#45;26&#45;&gt;5</title>
<path fill="none" stroke="red" stroke-width="0.18" stroke-dasharray="1,5" d="M756.53,-88.65C752.5,-82.64 746.33,-75.16 738.75,-71.36 647.88,-25.79 383.88,-45.59 282.75,-35.36 244.13,-31.45 199.46,-25.68 172.42,-22.06"/>
<polygon fill="red" stroke="red" stroke-width="0.18" points="172.96,-18.6 162.58,-20.73 172.02,-25.54 172.96,-18.6"/>
</g>
<!-- &#45;26&#45;&gt;8 -->
<g id="edge22" class="edge">
<title>&#45;26&#45;&gt;8</title>
<path fill="none" stroke="green" stroke-width="0.25" d="M766.99,-88.69C771.03,-82.7 777.21,-75.22 784.75,-71.36 932.57,4.41 999.33,-88.38 1156.75,-35.36 1159.08,-34.57 1161.43,-33.55 1163.71,-32.4"/>
<polygon fill="green" stroke="green" stroke-width="0.25" points="1165.33,-35.5 1172.18,-27.42 1161.79,-29.47 1165.33,-35.5"/>
</g>
<!-- &#45;26&#45;&gt;10 -->
<g id="edge90" class="edge">
<title>&#45;26&#45;&gt;10</title>
<path fill="none" stroke="red" stroke-width="0.42" d="M761.75,-88.53C761.75,-78.17 761.75,-60.72 761.75,-45.85"/>
<polygon fill="red" stroke="red" stroke-width="0.42" points="765.25,-46.26 761.75,-36.26 758.25,-46.26 765.25,-46.26"/>
</g>
<!-- &#45;27 -->
<g id="node27" class="node">
<title>&#45;27</title>
<polygon fill="lightgray" stroke="black" points="1385.75,-198.65 1357.75,-198.65 1357.75,-179.4 1385.75,-179.4 1385.75,-198.65"/>
<text text-anchor="middle" x="1371.75" y="-186.1" font-family="Times New Roman,serif" font-size="9.00">&#45;27</text>
</g>
<!-- &#45;27&#45;&gt;4 -->
<g id="edge8" class="edge">
<title>&#45;27&#45;&gt;4</title>
<path fill="none" stroke="green" stroke-width="0.85" stroke-dasharray="1,5" d="M1357.35,-188.34C1313.11,-188.65 1176.66,-184.48 1086.75,-125.8 1078.01,-120.1 1042.46,-68.64 1022.51,-39.17"/>
<polygon fill="green" stroke="green" stroke-width="0.85" points="1025.61,-37.52 1017.12,-31.18 1019.81,-41.43 1025.61,-37.52"/>
</g>
<!-- &#45;27&#45;&gt;9 -->
<g id="edge13" class="edge">
<title>&#45;27&#45;&gt;9</title>
<path fill="none" stroke="green" stroke-width="0.21" d="M1386.14,-181.69C1405.03,-172.49 1437.33,-153.45 1450.75,-125.8 1461.32,-104.03 1462.17,-92.69 1450.75,-71.36 1439.01,-49.43 1413.67,-35.05 1394.83,-26.94"/>
<polygon fill="green" stroke="green" stroke-width="0.21" points="1396.3,-23.75 1385.72,-23.28 1393.7,-30.25 1396.3,-23.75"/>
</g>
<!-- 9282 -->
<g id="node49" class="node">
<title>9282</title>
<ellipse fill="white" stroke="black" cx="1371.75" cy="-98.58" rx="24.04" ry="24.04"/>
<text text-anchor="middle" x="1371.75" y="-95.65" font-family="Times New Roman,serif" font-size="9.00">9282</text>
</g>
<!-- &#45;27&#45;&gt;9282 -->
<g id="edge79" class="edge">
<title>&#45;27&#45;&gt;9282</title>
<path fill="none" stroke="red" stroke-width="0.46" d="M1371.75,-179.22C1371.75,-168.54 1371.75,-149.9 1371.75,-133.34"/>
<polygon fill="red" stroke="red" stroke-width="0.46" points="1375.25,-133.56 1371.75,-123.56 1368.25,-133.56 1375.25,-133.56"/>
</g>
<!-- &#45;28 -->
<g id="node28" class="node">
<title>&#45;28</title>
<polygon fill="lightgray" stroke="black" points="363.75,-108.2 335.75,-108.2 335.75,-88.95 363.75,-88.95 363.75,-108.2"/>
<text text-anchor="middle" x="349.75" y="-95.65" font-family="Times New Roman,serif" font-size="9.00">&#45;28</text>
</g>
<!-- &#45;28&#45;&gt;3 -->
<g id="edge68" class="edge">
<title>&#45;28&#45;&gt;3</title>
<path fill="none" stroke="red" stroke-width="0.72" d="M344.7,-88.53C338.22,-76.91 326.76,-56.35 317.94,-40.54"/>
<polygon fill="red" stroke="red" stroke-width="0.72" points="321.06,-38.95 313.14,-31.92 314.95,-42.36 321.06,-38.95"/>
</g>
<!-- &#45;28&#45;&gt;6 -->
<g id="edge31" class="edge">
<title>&#45;28&#45;&gt;6</title>
<path fill="none" stroke="green" stroke-width="0.3" d="M364.02,-90.61C376.21,-84.85 394.33,-76.78 410.75,-71.36 476.67,-49.56 499.36,-63.66 562.75,-35.36 564.34,-34.64 565.94,-33.82 567.51,-32.94"/>
<polygon fill="green" stroke="green" stroke-width="0.3" points="569.18,-36.03 575.66,-27.65 565.36,-30.16 569.18,-36.03"/>
</g>
<!-- &#45;29 -->
<g id="node29" class="node">
<title>&#45;29</title>
<polygon fill="lightgray" stroke="black" points="1571.75,-108.2 1543.75,-108.2 1543.75,-88.95 1571.75,-88.95 1571.75,-108.2"/>
<text text-anchor="middle" x="1557.75" y="-95.65" font-family="Times New Roman,serif" font-size="9.00">&#45;29</text>
</g>
<!-- &#45;29&#45;&gt;0 -->
<g id="edge20" class="edge">
<title>&#45;29&#45;&gt;0</title>
<path fill="none" stroke="red" stroke-width="0.18" stroke-dasharray="1,5" d="M1563.03,-88.53C1569.97,-76.62 1582.38,-55.33 1591.69,-39.37"/>
<polygon fill="red" stroke="red" stroke-width="0.18" points="1594.59,-41.34 1596.6,-30.94 1588.54,-37.81 1594.59,-41.34"/>
</g>
<!-- &#45;29&#45;&gt;8 -->
<g id="edge75" class="edge">
<title>&#45;29&#45;&gt;8</title>
<path fill="none" stroke="green" stroke-width="0.18" d="M1552.3,-88.51C1548.23,-82.6 1542.12,-75.29 1534.75,-71.36 1424.81,-12.74 1379.4,-57.25 1256.75,-35.36 1240.33,-32.42 1222.03,-28.24 1207.87,-24.8"/>
<polygon fill="green" stroke="green" stroke-width="0.18" points="1208.75,-21.41 1198.21,-22.41 1207.07,-28.21 1208.75,-21.41"/>
</g>
<!-- &#45;30 -->
<g id="node30" class="node">
<title>&#45;30</title>
<polygon fill="lightgray" stroke="black" points="115.75,-108.2 87.75,-108.2 87.75,-88.95 115.75,-88.95 115.75,-108.2"/>
<text text-anchor="middle" x="101.75" y="-95.65" font-family="Times New Roman,serif" font-size="9.00">&#45;30</text>
</g>
<!-- &#45;30&#45;&gt;5 -->
<g id="edge59" class="edge">
<title>&#45;30&#45;&gt;5</title>
<path fill="none" stroke="green" stroke-width="0.62" stroke-dasharray="1,5" d="M107.03,-88.53C113.91,-76.73 126.15,-55.72 135.42,-39.82"/>
<polygon fill="green" stroke="green" stroke-width="0.62" points="138.26,-41.91 140.27,-31.51 132.21,-38.39 138.26,-41.91"/>
</g>
<!-- &#45;31 -->
<g id="node31" class="node">
<title>&#45;31</title>
<polygon fill="lightgray" stroke="black" points="645.75,-108.2 617.75,-108.2 617.75,-88.95 645.75,-88.95 645.75,-108.2"/>
<text text-anchor="middle" x="631.75" y="-95.65" font-family="Times New Roman,serif" font-size="9.00">&#45;31</text>
</g>
<!-- &#45;31&#45;&gt;3 -->
<g id="edge70" class="edge">
<title>&#45;31&#45;&gt;3</title>
<path fill="none" stroke="green" stroke-width="0.23" stroke-dasharray="1,5" d="M626.24,-88.61C622.15,-82.75 616.04,-75.45 608.75,-71.36 560.87,-44.48 394.38,-26.79 330.74,-20.87"/>
<polygon fill="green" stroke="green" stroke-width="0.23" points="331.07,-17.39 320.79,-19.96 330.43,-24.36 331.07,-17.39"/>
</g>
<!-- &#45;31&#45;&gt;6 -->
<g id="edge15" class="edge">
<title>&#45;31&#45;&gt;6</title>
<path fill="none" stroke="green" stroke-width="0.6" stroke-dasharray="1,5" d="M626.59,-88.53C619.86,-76.73 607.88,-55.72 598.81,-39.82"/>
<polygon fill="green" stroke="green" stroke-width="0.6" points="602.05,-38.44 594.06,-31.49 595.97,-41.91 602.05,-38.44"/>
</g>
<!-- &#45;31&#45;&gt;8 -->
<g id="edge39" class="edge">
<title>&#45;31&#45;&gt;8</title>
<path fill="none" stroke="green" stroke-width="0.27" d="M645.83,-89.94C657.9,-83.79 675.96,-75.49 692.75,-71.36 893.58,-21.84 960.11,-99.51 1156.75,-35.36 1159.09,-34.59 1161.44,-33.58 1163.72,-32.44"/>
<polygon fill="green" stroke="green" stroke-width="0.27" points="1165.32,-35.56 1172.17,-27.48 1161.78,-29.53 1165.32,-35.56"/>
</g>
<!-- &#45;31&#45;&gt;12 -->
<g id="edge63" class="edge">
<title>&#45;31&#45;&gt;12</title>
<path fill="none" stroke="red" stroke-width="0.13" d="M636.57,-88.53C642.51,-77.36 652.84,-57.95 661.11,-42.42"/>
<polygon fill="red" stroke="red" stroke-width="0.13" points="663.99,-44.46 665.6,-33.99 657.81,-41.17 663.99,-44.46"/>
</g>
<!-- &#45;32 -->
<g id="node32" class="node">
<title>&#45;32</title>
<polygon fill="lightgray" stroke="black" points="729.75,-108.2 701.75,-108.2 701.75,-88.95 729.75,-88.95 729.75,-108.2"/>
<text text-anchor="middle" x="715.75" y="-95.65" font-family="Times New Roman,serif" font-size="9.00">&#45;32</text>
</g>
<!-- &#45;32&#45;&gt;2 -->
<g id="edge23" class="edge">
<title>&#45;32&#45;&gt;2</title>
<path fill="none" stroke="green" stroke-width="0.32" d="M721.65,-88.69C725.82,-83.02 731.89,-75.91 738.75,-71.36 781.43,-43.06 840.63,-28.77 873.42,-22.6"/>
<polygon fill="green" stroke="green" stroke-width="0.32" points="873.77,-26.09 883,-20.9 872.54,-19.2 873.77,-26.09"/>
</g>
<!-- &#45;32&#45;&gt;6 -->
<g id="edge84" class="edge">
<title>&#45;32&#45;&gt;6</title>
<path fill="none" stroke="green" stroke-width="0.34" d="M701.45,-88.83C678.67,-74.9 634.01,-47.58 607.64,-31.45"/>
<polygon fill="green" stroke="green" stroke-width="0.34" points="609.63,-28.57 599.27,-26.34 605.98,-34.54 609.63,-28.57"/>
</g>
<!-- &#45;32&#45;&gt;10 -->
<g id="edge1" class="edge">
<title>&#45;32&#45;&gt;10</title>
<path fill="none" stroke="green" stroke-width="0.24" d="M721.03,-88.53C727.58,-77.29 738.99,-57.72 748.07,-42.14"/>
<polygon fill="green" stroke="green" stroke-width="0.24" points="750.9,-44.24 752.91,-33.84 744.85,-40.72 750.9,-44.24"/>
</g>
<!-- &#45;33 -->
<g id="node33" class="node">
<title>&#45;33</title>
<polygon fill="lightgray" stroke="black" points="488.75,-198.65 460.75,-198.65 460.75,-179.4 488.75,-179.4 488.75,-198.65"/>
<text text-anchor="middle" x="474.75" y="-186.1" font-family="Times New Roman,serif" font-size="9.00">&#45;33</text>
</g>
<!-- &#45;33&#45;&gt;1 -->
<g id="edge72" class="edge">
<title>&#45;33&#45;&gt;1</title>
<path fill="none" stroke="red" stroke-width="0.44" d="M460.29,-179.15C444.7,-168.63 420.76,-149.5 410.75,-125.8 401.33,-103.51 397.26,-91.44 410.75,-71.36 433.94,-36.84 484.15,-24.93 514.63,-20.82"/>
<polygon fill="red" stroke="red" stroke-width="0.44" points="514.7,-24.34 524.23,-19.71 513.9,-17.38 514.7,-24.34"/>
</g>
<!-- &#45;33&#45;&gt;3 -->
<g id="edge44" class="edge">
<title>&#45;33&#45;&gt;3</title>
<path fill="none" stroke="green" stroke-width="0.1" stroke-dasharray="1,5" d="M460.35,-188.57C423.14,-189.09 323.69,-184.67 280.75,-125.8 261.77,-99.79 278.64,-61.57 292.37,-38.51"/>
<polygon fill="green" stroke="green" stroke-width="0.1" points="295.15,-40.65 297.49,-30.32 289.22,-36.94 295.15,-40.65"/>
</g>
<!-- &#45;33&#45;&gt;4 -->
<g id="edge67" class="edge">
<title>&#45;33&#45;&gt;4</title>
<path fill="none" stroke="red" stroke-width="0.5" stroke-dasharray="1,5" d="M489.1,-187.48C570.82,-184.2 974.92,-166.03 1010.75,-125.8 1031.03,-103.04 1024.52,-65.51 1017.21,-41.46"/>
<polygon fill="red" stroke="red" stroke-width="0.5" points="1020.6,-40.55 1014.13,-32.17 1013.96,-42.76 1020.6,-40.55"/>
</g>
<!-- &#45;33&#45;&gt;6 -->
<g id="edge78" class="edge">
<title>&#45;33&#45;&gt;6</title>
<path fill="none" stroke="green" stroke-width="0.35" stroke-dasharray="1,5" d="M476.61,-179.06C481.22,-158.4 494.74,-106.55 520.75,-71.36 527.46,-62.27 550.02,-45.03 566.91,-32.75"/>
<polygon fill="green" stroke="green" stroke-width="0.35" points="568.6,-35.84 574.67,-27.16 564.51,-30.16 568.6,-35.84"/>
</g>
<!-- &#45;33&#45;&gt;9 -->
<g id="edge34" class="edge">
<title>&#45;33&#45;&gt;9</title>
<path fill="none" stroke="red" stroke-width="0.26" stroke-dasharray="1,5" d="M489.04,-187.7C592.75,-185.25 1227.87,-168.54 1300.75,-125.8 1305.15,-123.22 1339.57,-69.55 1358.82,-39.18"/>
<polygon fill="red" stroke="red" stroke-width="0.26" points="1361.65,-41.24 1364.04,-30.92 1355.74,-37.5 1361.65,-41.24"/>
</g>
<!-- &#45;33&#45;&gt;12 -->
<g id="edge5" class="edge">
<title>&#45;33&#45;&gt;12</title>
<path fill="none" stroke="red" stroke-width="0.47" stroke-dasharray="1,5" d="M489.1,-187.69C523.52,-186.06 611.16,-176.85 654.75,-125.8 673.49,-103.85 676.63,-69.94 676.11,-46.17"/>
<polygon fill="red" stroke="red" stroke-width="0.47" points="679.62,-46.26 675.67,-36.43 672.63,-46.58 679.62,-46.26"/>
</g>
<!-- 14550 -->
<g id="node51" class="node">
<title>14550</title>
<ellipse fill="white" stroke="black" cx="206.75" cy="-98.58" rx="27.22" ry="27.22"/>
<text text-anchor="middle" x="206.75" y="-95.65" font-family="Times New Roman,serif" font-size="9.00">14550</text>
</g>
<!-- &#45;33&#45;&gt;14550 -->
<g id="edge88" class="edge">
<title>&#45;33&#45;&gt;14550</title>
<path fill="none" stroke="green" stroke-width="0.42" d="M460.43,-185.65C423.81,-179.26 324.3,-159.83 247.75,-125.8 244.41,-124.32 241.02,-122.58 237.7,-120.73"/>
<polygon fill="green" stroke="green" stroke-width="0.42" points="239.54,-117.75 229.17,-115.61 235.94,-123.75 239.54,-117.75"/>
</g>
<!-- 14194 -->
<g id="node52" class="node">
<title>14194</title>
<ellipse fill="white" stroke="black" cx="446.75" cy="-98.58" rx="27.22" ry="27.22"/>
<text text-anchor="middle" x="446.75" y="-95.65" font-family="Times New Roman,serif" font-size="9.00">14194</text>
</g>
<!-- &#45;33&#45;&gt;14194 -->
<g id="edge85" class="edge">
<title>&#45;33&#45;&gt;14194</title>
<path fill="none" stroke="green" stroke-width="0.27" d="M471.96,-179.22C468.66,-168.8 462.97,-150.81 457.82,-134.56"/>
<polygon fill="green" stroke="green" stroke-width="0.27" points="461.19,-133.61 454.84,-125.13 454.52,-135.72 461.19,-133.61"/>
</g>
<!-- 0&#45;&gt;0 -->
<g id="edge64" class="edge">
<title>0&#45;&gt;0</title>
<path fill="none" stroke="red" stroke-width="0.91" d="M1613.4,-29.05C1624.06,-36.64 1636.25,-32.85 1636.25,-17.68 1636.25,-7.49 1630.74,-2.43 1623.9,-2.51"/>
<polygon fill="red" stroke="red" stroke-width="0.91" points="1622.91,0.85 1614.69,-5.83 1625.29,-5.73 1622.91,0.85"/>
</g>
<!-- 3&#45;&gt;3 -->
<g id="edge47" class="edge">
<title>3&#45;&gt;3</title>
<path fill="none" stroke="red" stroke-width="0.36" d="M315.4,-29.05C326.06,-36.64 338.25,-32.85 338.25,-17.68 338.25,-7.01 332.22,-1.97 324.94,-2.55"/>
<polygon fill="red" stroke="red" stroke-width="0.36" points="323.94,0.81 315.91,-6.1 326.5,-5.7 323.94,0.81"/>
</g>
<!-- 4&#45;&gt;4 -->
<g id="edge62" class="edge">
<title>4&#45;&gt;4</title>
<path fill="none" stroke="red" stroke-width="0.18" d="M1018.4,-29.05C1029.06,-36.64 1041.25,-32.85 1041.25,-17.68 1041.25,-7.01 1035.22,-1.97 1027.94,-2.55"/>
<polygon fill="red" stroke="red" stroke-width="0.18" points="1026.68,0.71 1018.65,-6.2 1029.24,-5.8 1026.68,0.71"/>
</g>
<!-- 6&#45;&gt;6 -->
<g id="edge11" class="edge">
<title>6&#45;&gt;6</title>
<path fill="none" stroke="red" stroke-width="0.56" d="M596.4,-29.05C607.06,-36.64 619.25,-32.85 619.25,-17.68 619.25,-7.25 613.49,-2.2 606.42,-2.52"/>
<polygon fill="red" stroke="red" stroke-width="0.56" points="605.32,0.8 597.2,-6 607.79,-5.75 605.32,0.8"/>
</g>
<!-- 12&#45;&gt;12 -->
<g id="edge46" class="edge">
<title>12&#45;&gt;12</title>
<path fill="none" stroke="green" stroke-width="0.33" stroke-dasharray="1,5" d="M686.55,-30.34C697.67,-36.12 709.43,-31.9 709.43,-17.68 709.43,-7.68 703.61,-2.62 696.3,-2.51"/>
<polygon fill="green" stroke="green" stroke-width="0.33" points="695.85,0.99 687.03,-4.89 697.59,-5.79 695.85,0.99"/>
</g>
<!-- 13&#45;&gt;13 -->
<g id="edge24" class="edge">
<title>13&#45;&gt;13</title>
<path fill="none" stroke="green" stroke-width="0.79" d="M1124.55,-30.34C1135.67,-36.12 1147.43,-31.9 1147.43,-17.68 1147.43,-8.12 1142.12,-3.08 1135.26,-2.55"/>
<polygon fill="green" stroke="green" stroke-width="0.79" points="1134.69,0.9 1125.73,-4.74 1136.25,-5.92 1134.69,0.9"/>
</g>
<!-- 4794&#45;&gt;0 -->
<g id="edge74" class="edge">
<title>4794&#45;&gt;0</title>
<path fill="none" stroke="green" stroke-width="0.34" d="M1683.32,-82.74C1665.97,-68.77 1640.12,-47.96 1622.63,-33.88"/>
<polygon fill="green" stroke="green" stroke-width="0.34" points="1625.18,-31.44 1615.19,-27.89 1620.79,-36.89 1625.18,-31.44"/>
</g>
<!-- 9282&#45;&gt;9 -->
<g id="edge80" class="edge">
<title>9282&#45;&gt;9</title>
<path fill="none" stroke="red" stroke-width="0.19" d="M1371.75,-74.33C1371.75,-64.32 1371.75,-52.62 1371.75,-42.54"/>
<polygon fill="red" stroke="red" stroke-width="0.19" points="1375.25,-42.67 1371.75,-32.67 1368.25,-42.67 1375.25,-42.67"/>
</g>
<!-- 14021 -->
<g id="node50" class="node">
<title>14021</title>
<ellipse fill="white" stroke="black" cx="1828.75" cy="-189.03" rx="27.22" ry="27.22"/>
<text text-anchor="middle" x="1828.75" y="-186.1" font-family="Times New Roman,serif" font-size="9.00">14021</text>
</g>
<!-- 14021&#45;&gt;11 -->
<g id="edge83" class="edge">
<title>14021&#45;&gt;11</title>
<path fill="none" stroke="green" stroke-width="0.13" d="M1828.45,-161.49C1828.33,-150.46 1828.18,-137.68 1828.06,-126.6"/>
<polygon fill="green" stroke="green" stroke-width="0.13" points="1831.56,-126.77 1827.94,-116.81 1824.56,-126.85 1831.56,-126.77"/>
</g>
<!-- 14550&#45;&gt;3 -->
<g id="edge89" class="edge">
<title>14550&#45;&gt;3</title>
<path fill="none" stroke="green" stroke-width="0.36" d="M227.75,-80.85C245.15,-66.98 269.67,-47.43 286.56,-33.97"/>
<polygon fill="green" stroke="green" stroke-width="0.36" points="288.54,-36.87 294.18,-27.9 284.18,-31.39 288.54,-36.87"/>
</g>
<!-- 14194&#45;&gt;6 -->
<g id="edge86" class="edge">
<title>14194&#45;&gt;6</title>
<path fill="none" stroke="red" stroke-width="0.2" d="M469.01,-82.65C475,-78.82 481.55,-74.81 487.75,-71.36 520.05,-53.36 530.8,-53.96 562.75,-35.36 564.07,-34.59 565.4,-33.77 566.74,-32.93"/>
<polygon fill="red" stroke="red" stroke-width="0.2" points="568.67,-35.85 575.03,-27.37 564.77,-30.03 568.67,-35.85"/>
</g>
</g>
</svg>
