<?xml version="1.0" encoding="UTF-8" standalone="no"?>
<!DOCTYPE svg PUBLIC "-//W3C//DTD SVG 1.1//EN"
 "http://www.w3.org/Graphics/SVG/1.1/DTD/svg11.dtd">
<!-- Generated by graphviz version 9.0.0 (20230911.1827)
 -->
<!-- Pages: 1 -->
<svg width="1472pt" height="99pt"
 viewBox="0.00 0.00 1472.00 98.61" xmlns="http://www.w3.org/2000/svg" xmlns:xlink="http://www.w3.org/1999/xlink">
<g id="graph0" class="graph" transform="scale(1 1) rotate(0) translate(4 94.61)">
<polygon fill="white" stroke="none" points="-4,4 -4,-94.61 1468,-94.61 1468,4 -4,4"/>
<!-- &#45;1 -->
<g id="node1" class="node">
<title>&#45;1</title>
<polygon fill="lightgray" stroke="black" points="203.75,-90.61 180.25,-90.61 180.25,-71.36 203.75,-71.36 203.75,-90.61"/>
<text text-anchor="middle" x="192" y="-78.06" font-family="Times New Roman,serif" font-size="9.00">&#45;1</text>
</g>
<!-- 3 -->
<g id="node37" class="node">
<title>3</title>
<ellipse fill="lightblue" stroke="black" cx="60" cy="-17.68" rx="14.5" ry="14.5"/>
<text text-anchor="middle" x="60" y="-14.75" font-family="Times New Roman,serif" font-size="9.00">3</text>
</g>
<!-- &#45;1&#45;&gt;3 -->
<g id="edge43" class="edge">
<title>&#45;1&#45;&gt;3</title>
<path fill="none" stroke="red" stroke-width="0.24" d="M179.76,-74.94C151.72,-63.4 85.12,-35.97 84,-35.36 82.66,-34.63 81.31,-33.84 79.96,-33.02"/>
<polygon fill="red" stroke="red" stroke-width="0.24" points="81.96,-30.14 71.69,-27.54 78.1,-35.98 81.96,-30.14"/>
</g>
<!-- 7 -->
<g id="node41" class="node">
<title>7</title>
<ellipse fill="lightblue" stroke="black" cx="293" cy="-17.68" rx="14.5" ry="14.5"/>
<text text-anchor="middle" x="293" y="-14.75" font-family="Times New Roman,serif" font-size="9.00">7</text>
</g>
<!-- &#45;1&#45;&gt;7 -->
<g id="edge8" class="edge">
<title>&#45;1&#45;&gt;7</title>
<path fill="none" stroke="red" stroke-width="0.59" d="M203.98,-72.71C220.6,-62.62 250.91,-44.23 271.5,-31.73"/>
<polygon fill="red" stroke="red" stroke-width="0.59" points="273.22,-34.78 279.95,-26.6 269.59,-28.79 273.22,-34.78"/>
</g>
<!-- &#45;2 -->
<g id="node2" class="node">
<title>&#45;2</title>
<polygon fill="lightgray" stroke="black" points="965.75,-90.61 942.25,-90.61 942.25,-71.36 965.75,-71.36 965.75,-90.61"/>
<text text-anchor="middle" x="954" y="-78.06" font-family="Times New Roman,serif" font-size="9.00">&#45;2</text>
</g>
<!-- &#45;3 -->
<g id="node3" class="node">
<title>&#45;3</title>
<polygon fill="lightgray" stroke="black" points="785.75,-90.61 762.25,-90.61 762.25,-71.36 785.75,-71.36 785.75,-90.61"/>
<text text-anchor="middle" x="774" y="-78.06" font-family="Times New Roman,serif" font-size="9.00">&#45;3</text>
</g>
<!-- 13 -->
<g id="node47" class="node">
<title>13</title>
<ellipse fill="lightblue" stroke="black" cx="714" cy="-17.68" rx="17.68" ry="17.68"/>
<text text-anchor="middle" x="714" y="-14.75" font-family="Times New Roman,serif" font-size="9.00">13</text>
</g>
<!-- &#45;3&#45;&gt;13 -->
<g id="edge41" class="edge">
<title>&#45;3&#45;&gt;13</title>
<path fill="none" stroke="red" stroke-width="0.71" d="M765.15,-70.93C756.83,-62.44 744.11,-49.45 733.44,-38.54"/>
<polygon fill="red" stroke="red" stroke-width="0.71" points="736.03,-36.18 726.53,-31.48 731.02,-41.08 736.03,-36.18"/>
</g>
<!-- &#45;4 -->
<g id="node4" class="node">
<title>&#45;4</title>
<polygon fill="lightgray" stroke="black" points="655.75,-90.61 632.25,-90.61 632.25,-71.36 655.75,-71.36 655.75,-90.61"/>
<text text-anchor="middle" x="644" y="-78.06" font-family="Times New Roman,serif" font-size="9.00">&#45;4</text>
</g>
<!-- 5 -->
<g id="node39" class="node">
<title>5</title>
<ellipse fill="lightblue" stroke="black" cx="420" cy="-17.68" rx="14.5" ry="14.5"/>
<text text-anchor="middle" x="420" y="-14.75" font-family="Times New Roman,serif" font-size="9.00">5</text>
</g>
<!-- &#45;4&#45;&gt;5 -->
<g id="edge16" class="edge">
<title>&#45;4&#45;&gt;5</title>
<path fill="none" stroke="red" stroke-width="0.46" d="M632.11,-74.77C629.16,-73.57 625.99,-72.35 623,-71.36 559.5,-50.18 482.5,-32.25 444.15,-23.83"/>
<polygon fill="red" stroke="red" stroke-width="0.46" points="445.16,-20.47 434.65,-21.76 443.68,-27.31 445.16,-20.47"/>
</g>
<!-- &#45;4&#45;&gt;13 -->
<g id="edge21" class="edge">
<title>&#45;4&#45;&gt;13</title>
<path fill="none" stroke="red" stroke-width="0.66" d="M654.33,-70.93C664.46,-62.06 680.21,-48.27 692.99,-37.08"/>
<polygon fill="red" stroke="red" stroke-width="0.66" points="695.29,-39.72 700.5,-30.5 690.68,-34.45 695.29,-39.72"/>
</g>
<!-- &#45;5 -->
<g id="node5" class="node">
<title>&#45;5</title>
<polygon fill="lightgray" stroke="black" points="1007.75,-90.61 984.25,-90.61 984.25,-71.36 1007.75,-71.36 1007.75,-90.61"/>
<text text-anchor="middle" x="996" y="-78.06" font-family="Times New Roman,serif" font-size="9.00">&#45;5</text>
</g>
<!-- &#45;6 -->
<g id="node6" class="node">
<title>&#45;6</title>
<polygon fill="lightgray" stroke="black" points="613.75,-90.61 590.25,-90.61 590.25,-71.36 613.75,-71.36 613.75,-90.61"/>
<text text-anchor="middle" x="602" y="-78.06" font-family="Times New Roman,serif" font-size="9.00">&#45;6</text>
</g>
<!-- 2 -->
<g id="node36" class="node">
<title>2</title>
<ellipse fill="lightblue" stroke="black" cx="627" cy="-17.68" rx="14.5" ry="14.5"/>
<text text-anchor="middle" x="627" y="-14.75" font-family="Times New Roman,serif" font-size="9.00">2</text>
</g>
<!-- &#45;6&#45;&gt;2 -->
<g id="edge37" class="edge">
<title>&#45;6&#45;&gt;2</title>
<path fill="none" stroke="red" stroke-width="0.65" d="M605.69,-70.93C608.83,-63.22 613.49,-51.8 617.65,-41.6"/>
<polygon fill="red" stroke="red" stroke-width="0.65" points="620.82,-43.1 621.35,-32.52 614.34,-40.46 620.82,-43.1"/>
</g>
<!-- 12 -->
<g id="node46" class="node">
<title>12</title>
<ellipse fill="lightblue" stroke="black" cx="558" cy="-17.68" rx="17.68" ry="17.68"/>
<text text-anchor="middle" x="558" y="-14.75" font-family="Times New Roman,serif" font-size="9.00">12</text>
</g>
<!-- &#45;6&#45;&gt;12 -->
<g id="edge20" class="edge">
<title>&#45;6&#45;&gt;12</title>
<path fill="none" stroke="green" stroke-width="0.46" d="M595.51,-70.93C589.89,-63.1 581.52,-51.44 574.11,-41.13"/>
<polygon fill="green" stroke="green" stroke-width="0.46" points="577.02,-39.18 568.35,-33.09 571.34,-43.26 577.02,-39.18"/>
</g>
<!-- &#45;7 -->
<g id="node7" class="node">
<title>&#45;7</title>
<polygon fill="lightgray" stroke="black" points="743.75,-90.61 720.25,-90.61 720.25,-71.36 743.75,-71.36 743.75,-90.61"/>
<text text-anchor="middle" x="732" y="-78.06" font-family="Times New Roman,serif" font-size="9.00">&#45;7</text>
</g>
<!-- &#45;7&#45;&gt;2 -->
<g id="edge13" class="edge">
<title>&#45;7&#45;&gt;2</title>
<path fill="none" stroke="red" stroke-width="0.4" stroke-dasharray="1,5" d="M719.96,-72.95C702.48,-62.75 669.85,-43.69 648.27,-31.1"/>
<polygon fill="red" stroke="red" stroke-width="0.4" points="650.16,-28.14 639.75,-26.12 646.63,-34.19 650.16,-28.14"/>
</g>
<!-- 6 -->
<g id="node40" class="node">
<title>6</title>
<ellipse fill="lightblue" stroke="black" cx="818" cy="-17.68" rx="14.5" ry="14.5"/>
<text text-anchor="middle" x="818" y="-14.75" font-family="Times New Roman,serif" font-size="9.00">6</text>
</g>
<!-- &#45;7&#45;&gt;6 -->
<g id="edge29" class="edge">
<title>&#45;7&#45;&gt;6</title>
<path fill="none" stroke="red" stroke-width="0.45" d="M743.96,-71.46C757.9,-61.52 781.16,-44.94 797.89,-33.01"/>
<polygon fill="red" stroke="red" stroke-width="0.45" points="799.75,-35.99 805.86,-27.33 795.68,-30.29 799.75,-35.99"/>
</g>
<!-- &#45;7&#45;&gt;13 -->
<g id="edge28" class="edge">
<title>&#45;7&#45;&gt;13</title>
<path fill="none" stroke="red" stroke-width="0.52" d="M729.34,-70.93C727.33,-64.06 724.44,-54.24 721.72,-44.97"/>
<polygon fill="red" stroke="red" stroke-width="0.52" points="725.16,-44.27 718.99,-35.67 718.45,-46.25 725.16,-44.27"/>
</g>
<!-- &#45;8 -->
<g id="node8" class="node">
<title>&#45;8</title>
<polygon fill="lightgray" stroke="black" points="1049.75,-90.61 1026.25,-90.61 1026.25,-71.36 1049.75,-71.36 1049.75,-90.61"/>
<text text-anchor="middle" x="1038" y="-78.06" font-family="Times New Roman,serif" font-size="9.00">&#45;8</text>
</g>
<!-- &#45;9 -->
<g id="node9" class="node">
<title>&#45;9</title>
<polygon fill="lightgray" stroke="black" points="115.75,-90.61 92.25,-90.61 92.25,-71.36 115.75,-71.36 115.75,-90.61"/>
<text text-anchor="middle" x="104" y="-78.06" font-family="Times New Roman,serif" font-size="9.00">&#45;9</text>
</g>
<!-- 0 -->
<g id="node34" class="node">
<title>0</title>
<ellipse fill="lightblue" stroke="black" cx="177" cy="-17.68" rx="14.5" ry="14.5"/>
<text text-anchor="middle" x="177" y="-14.75" font-family="Times New Roman,serif" font-size="9.00">0</text>
</g>
<!-- &#45;9&#45;&gt;0 -->
<g id="edge7" class="edge">
<title>&#45;9&#45;&gt;0</title>
<path fill="none" stroke="green" stroke-width="0.44" d="M114.77,-70.93C126.2,-61.34 144.48,-45.99 158.28,-34.4"/>
<polygon fill="green" stroke="green" stroke-width="0.44" points="160.26,-37.3 165.67,-28.19 155.76,-31.94 160.26,-37.3"/>
</g>
<!-- 9 -->
<g id="node43" class="node">
<title>9</title>
<ellipse fill="lightblue" stroke="black" cx="107" cy="-17.68" rx="14.5" ry="14.5"/>
<text text-anchor="middle" x="107" y="-14.75" font-family="Times New Roman,serif" font-size="9.00">9</text>
</g>
<!-- &#45;9&#45;&gt;9 -->
<g id="edge5" class="edge">
<title>&#45;9&#45;&gt;9</title>
<path fill="none" stroke="red" stroke-width="0.14" stroke-dasharray="1,5" d="M104.44,-70.93C104.81,-63.5 105.34,-52.61 105.82,-42.7"/>
<polygon fill="red" stroke="red" stroke-width="0.14" points="109.32,-42.9 106.31,-32.74 102.33,-42.56 109.32,-42.9"/>
</g>
<!-- &#45;10 -->
<g id="node10" class="node">
<title>&#45;10</title>
<polygon fill="lightgray" stroke="black" points="74,-90.61 46,-90.61 46,-71.36 74,-71.36 74,-90.61"/>
<text text-anchor="middle" x="60" y="-78.06" font-family="Times New Roman,serif" font-size="9.00">&#45;10</text>
</g>
<!-- &#45;10&#45;&gt;3 -->
<g id="edge26" class="edge">
<title>&#45;10&#45;&gt;3</title>
<path fill="none" stroke="red" stroke-width="0.44" d="M60,-70.93C60,-63.58 60,-52.84 60,-43.01"/>
<polygon fill="red" stroke="red" stroke-width="0.44" points="63.5,-43.19 60,-33.19 56.5,-43.19 63.5,-43.19"/>
</g>
<!-- &#45;10&#45;&gt;9 -->
<g id="edge1" class="edge">
<title>&#45;10&#45;&gt;9</title>
<path fill="none" stroke="red" stroke-width="0.52" d="M66.94,-70.93C73.48,-62.4 83.51,-49.32 91.89,-38.38"/>
<polygon fill="red" stroke="red" stroke-width="0.52" points="94.65,-40.54 97.96,-30.47 89.1,-36.28 94.65,-40.54"/>
</g>
<!-- &#45;11 -->
<g id="node11" class="node">
<title>&#45;11</title>
<polygon fill="lightgray" stroke="black" points="162,-90.61 134,-90.61 134,-71.36 162,-71.36 162,-90.61"/>
<text text-anchor="middle" x="148" y="-78.06" font-family="Times New Roman,serif" font-size="9.00">&#45;11</text>
</g>
<!-- &#45;11&#45;&gt;0 -->
<g id="edge42" class="edge">
<title>&#45;11&#45;&gt;0</title>
<path fill="none" stroke="green" stroke-width="0.22" d="M152.28,-70.93C156.09,-62.88 161.82,-50.77 166.8,-40.23"/>
<polygon fill="green" stroke="green" stroke-width="0.22" points="169.84,-41.99 170.95,-31.46 163.51,-39 169.84,-41.99"/>
</g>
<!-- &#45;12 -->
<g id="node12" class="node">
<title>&#45;12</title>
<polygon fill="lightgray" stroke="black" points="1096,-90.61 1068,-90.61 1068,-71.36 1096,-71.36 1096,-90.61"/>
<text text-anchor="middle" x="1082" y="-78.06" font-family="Times New Roman,serif" font-size="9.00">&#45;12</text>
</g>
<!-- 4 -->
<g id="node38" class="node">
<title>4</title>
<ellipse fill="lightblue" stroke="black" cx="1082" cy="-17.68" rx="14.5" ry="14.5"/>
<text text-anchor="middle" x="1082" y="-14.75" font-family="Times New Roman,serif" font-size="9.00">4</text>
</g>
<!-- &#45;12&#45;&gt;4 -->
<g id="edge36" class="edge">
<title>&#45;12&#45;&gt;4</title>
<path fill="none" stroke="green" stroke-width="0.18" d="M1082,-70.93C1082,-63.5 1082,-52.61 1082,-42.7"/>
<polygon fill="green" stroke="green" stroke-width="0.18" points="1085.5,-42.81 1082,-32.81 1078.5,-42.81 1085.5,-42.81"/>
</g>
<!-- &#45;13 -->
<g id="node13" class="node">
<title>&#45;13</title>
<polygon fill="lightgray" stroke="black" points="832,-90.61 804,-90.61 804,-71.36 832,-71.36 832,-90.61"/>
<text text-anchor="middle" x="818" y="-78.06" font-family="Times New Roman,serif" font-size="9.00">&#45;13</text>
</g>
<!-- &#45;13&#45;&gt;6 -->
<g id="edge32" class="edge">
<title>&#45;13&#45;&gt;6</title>
<path fill="none" stroke="red" stroke-width="0.32" d="M818,-70.93C818,-63.5 818,-52.61 818,-42.7"/>
<polygon fill="red" stroke="red" stroke-width="0.32" points="821.5,-43.01 818,-33.01 814.5,-43.01 821.5,-43.01"/>
</g>
<!-- &#45;14 -->
<g id="node14" class="node">
<title>&#45;14</title>
<polygon fill="lightgray" stroke="black" points="1142,-90.61 1114,-90.61 1114,-71.36 1142,-71.36 1142,-90.61"/>
<text text-anchor="middle" x="1128" y="-78.06" font-family="Times New Roman,serif" font-size="9.00">&#45;14</text>
</g>
<!-- &#45;15 -->
<g id="node15" class="node">
<title>&#45;15</title>
<polygon fill="lightgray" stroke="black" points="480,-90.61 452,-90.61 452,-71.36 480,-71.36 480,-90.61"/>
<text text-anchor="middle" x="466" y="-78.06" font-family="Times New Roman,serif" font-size="9.00">&#45;15</text>
</g>
<!-- &#45;15&#45;&gt;5 -->
<g id="edge4" class="edge">
<title>&#45;15&#45;&gt;5</title>
<path fill="none" stroke="green" stroke-width="0.49" d="M459.21,-70.93C452.81,-62.4 442.99,-49.32 434.78,-38.38"/>
<polygon fill="green" stroke="green" stroke-width="0.49" points="437.63,-36.34 428.82,-30.44 432.03,-40.54 437.63,-36.34"/>
</g>
<!-- 11 -->
<g id="node45" class="node">
<title>11</title>
<ellipse fill="lightblue" stroke="black" cx="361" cy="-17.68" rx="17.68" ry="17.68"/>
<text text-anchor="middle" x="361" y="-14.75" font-family="Times New Roman,serif" font-size="9.00">11</text>
</g>
<!-- &#45;15&#45;&gt;11 -->
<g id="edge25" class="edge">
<title>&#45;15&#45;&gt;11</title>
<path fill="none" stroke="red" stroke-width="0.41" d="M451.84,-71.71C434.73,-61.73 405.68,-44.77 385.04,-32.72"/>
<polygon fill="red" stroke="red" stroke-width="0.41" points="386.89,-29.74 376.49,-27.72 383.36,-35.78 386.89,-29.74"/>
</g>
<!-- &#45;15&#45;&gt;13 -->
<g id="edge38" class="edge">
<title>&#45;15&#45;&gt;13</title>
<path fill="none" stroke="green" stroke-width="0.29" d="M480.5,-74.2C483.3,-73.18 486.22,-72.18 489,-71.36 559.27,-50.43 578.73,-52.6 650,-35.36 662.22,-32.4 675.69,-28.92 687.11,-25.91"/>
<polygon fill="green" stroke="green" stroke-width="0.29" points="687.74,-29.36 696.51,-23.41 685.94,-22.6 687.74,-29.36"/>
</g>
<!-- &#45;16 -->
<g id="node16" class="node">
<title>&#45;16</title>
<polygon fill="lightgray" stroke="black" points="250,-90.61 222,-90.61 222,-71.36 250,-71.36 250,-90.61"/>
<text text-anchor="middle" x="236" y="-78.06" font-family="Times New Roman,serif" font-size="9.00">&#45;16</text>
</g>
<!-- &#45;16&#45;&gt;0 -->
<g id="edge9" class="edge">
<title>&#45;16&#45;&gt;0</title>
<path fill="none" stroke="green" stroke-width="0.22" d="M227.29,-70.93C218.44,-61.73 204.5,-47.25 193.54,-35.86"/>
<polygon fill="green" stroke="green" stroke-width="0.22" points="196.21,-33.59 186.75,-28.81 191.16,-38.44 196.21,-33.59"/>
</g>
<!-- &#45;16&#45;&gt;2 -->
<g id="edge6" class="edge">
<title>&#45;16&#45;&gt;2</title>
<path fill="none" stroke="green" stroke-width="0.5" d="M250.43,-73.95C253.23,-72.95 256.18,-72.03 259,-71.36 400.78,-37.5 443.55,-70.57 585,-35.36 591.44,-33.75 598.21,-31.39 604.38,-28.94"/>
<polygon fill="green" stroke="green" stroke-width="0.5" points="605.5,-32.27 613.36,-25.16 602.78,-25.82 605.5,-32.27"/>
</g>
<!-- &#45;16&#45;&gt;3 -->
<g id="edge19" class="edge">
<title>&#45;16&#45;&gt;3</title>
<path fill="none" stroke="green" stroke-width="0.59" d="M221.96,-74.49C219.02,-73.41 215.92,-72.31 213,-71.36 156.41,-52.89 137.86,-60.69 84,-35.36 82.57,-34.68 81.12,-33.92 79.7,-33.11"/>
<polygon fill="green" stroke="green" stroke-width="0.59" points="81.8,-30.3 71.51,-27.79 77.99,-36.17 81.8,-30.3"/>
</g>
<!-- 8 -->
<g id="node42" class="node">
<title>8</title>
<ellipse fill="lightblue" stroke="black" cx="241" cy="-17.68" rx="14.5" ry="14.5"/>
<text text-anchor="middle" x="241" y="-14.75" font-family="Times New Roman,serif" font-size="9.00">8</text>
</g>
<!-- &#45;16&#45;&gt;8 -->
<g id="edge27" class="edge">
<title>&#45;16&#45;&gt;8</title>
<path fill="none" stroke="green" stroke-width="0.26" d="M236.74,-70.93C237.34,-63.5 238.23,-52.61 239.04,-42.7"/>
<polygon fill="green" stroke="green" stroke-width="0.26" points="242.51,-43.18 239.84,-32.92 235.54,-42.61 242.51,-43.18"/>
</g>
<!-- &#45;16&#45;&gt;11 -->
<g id="edge33" class="edge">
<title>&#45;16&#45;&gt;11</title>
<path fill="none" stroke="red" stroke-width="0.7" stroke-dasharray="1,5" d="M250.34,-72.95C271.08,-62.78 309.78,-43.8 335.47,-31.2"/>
<polygon fill="red" stroke="red" stroke-width="0.7" points="336.88,-34.41 344.32,-26.86 333.8,-28.12 336.88,-34.41"/>
</g>
<!-- &#45;17 -->
<g id="node17" class="node">
<title>&#45;17</title>
<polygon fill="lightgray" stroke="black" points="526,-90.61 498,-90.61 498,-71.36 526,-71.36 526,-90.61"/>
<text text-anchor="middle" x="512" y="-78.06" font-family="Times New Roman,serif" font-size="9.00">&#45;17</text>
</g>
<!-- &#45;17&#45;&gt;6 -->
<g id="edge12" class="edge">
<title>&#45;17&#45;&gt;6</title>
<path fill="none" stroke="red" stroke-width="0.47" d="M526.47,-74.09C529.27,-73.08 532.2,-72.12 535,-71.36 624.68,-46.93 649.79,-53.2 741,-35.36 758.72,-31.89 778.63,-27.57 793.77,-24.19"/>
<polygon fill="red" stroke="red" stroke-width="0.47" points="794.16,-27.69 803.15,-22.08 792.63,-20.86 794.16,-27.69"/>
</g>
<!-- &#45;17&#45;&gt;7 -->
<g id="edge40" class="edge">
<title>&#45;17&#45;&gt;7</title>
<path fill="none" stroke="green" stroke-width="0.45" d="M497.99,-74.39C495.04,-73.31 491.94,-72.24 489,-71.36 421.3,-50.9 401.41,-56.75 334,-35.36 328.05,-33.47 321.75,-31.1 315.91,-28.74"/>
<polygon fill="green" stroke="green" stroke-width="0.45" points="317.3,-25.53 306.73,-24.89 314.6,-31.99 317.3,-25.53"/>
</g>
<!-- &#45;18 -->
<g id="node18" class="node">
<title>&#45;18</title>
<polygon fill="lightgray" stroke="black" points="388,-90.61 360,-90.61 360,-71.36 388,-71.36 388,-90.61"/>
<text text-anchor="middle" x="374" y="-78.06" font-family="Times New Roman,serif" font-size="9.00">&#45;18</text>
</g>
<!-- &#45;18&#45;&gt;11 -->
<g id="edge44" class="edge">
<title>&#45;18&#45;&gt;11</title>
<path fill="none" stroke="red" stroke-width="0.45" d="M372.08,-70.93C370.66,-64.23 368.64,-54.72 366.72,-45.65"/>
<polygon fill="red" stroke="red" stroke-width="0.45" points="370.19,-45.12 364.69,-36.07 363.34,-46.58 370.19,-45.12"/>
</g>
<!-- &#45;18&#45;&gt;12 -->
<g id="edge17" class="edge">
<title>&#45;18&#45;&gt;12</title>
<path fill="none" stroke="red" stroke-width="0.52" d="M388.08,-74.59C391.02,-73.5 394.1,-72.37 397,-71.36 443.87,-54.91 498.98,-37.23 531.05,-27.11"/>
<polygon fill="red" stroke="red" stroke-width="0.52" points="531.76,-30.55 540.25,-24.21 529.66,-23.88 531.76,-30.55"/>
</g>
<!-- &#45;19 -->
<g id="node19" class="node">
<title>&#45;19</title>
<polygon fill="lightgray" stroke="black" points="572,-90.61 544,-90.61 544,-71.36 572,-71.36 572,-90.61"/>
<text text-anchor="middle" x="558" y="-78.06" font-family="Times New Roman,serif" font-size="9.00">&#45;19</text>
</g>
<!-- &#45;19&#45;&gt;12 -->
<g id="edge39" class="edge">
<title>&#45;19&#45;&gt;12</title>
<path fill="none" stroke="green" stroke-width="0.67" d="M558,-70.93C558,-64.38 558,-55.14 558,-46.25"/>
<polygon fill="green" stroke="green" stroke-width="0.67" points="561.5,-46.41 558,-36.41 554.5,-46.41 561.5,-46.41"/>
</g>
<!-- &#45;20 -->
<g id="node20" class="node">
<title>&#45;20</title>
<polygon fill="lightgray" stroke="black" points="1188,-90.61 1160,-90.61 1160,-71.36 1188,-71.36 1188,-90.61"/>
<text text-anchor="middle" x="1174" y="-78.06" font-family="Times New Roman,serif" font-size="9.00">&#45;20</text>
</g>
<!-- &#45;21 -->
<g id="node21" class="node">
<title>&#45;21</title>
<polygon fill="lightgray" stroke="black" points="702,-90.61 674,-90.61 674,-71.36 702,-71.36 702,-90.61"/>
<text text-anchor="middle" x="688" y="-78.06" font-family="Times New Roman,serif" font-size="9.00">&#45;21</text>
</g>
<!-- &#45;21&#45;&gt;2 -->
<g id="edge2" class="edge">
<title>&#45;21&#45;&gt;2</title>
<path fill="none" stroke="red" stroke-width="0.22" d="M679,-70.93C669.84,-61.73 655.43,-47.25 644.1,-35.86"/>
<polygon fill="red" stroke="red" stroke-width="0.22" points="646.61,-33.43 637.08,-28.81 641.65,-38.36 646.61,-33.43"/>
</g>
<!-- &#45;22 -->
<g id="node22" class="node">
<title>&#45;22</title>
<polygon fill="lightgray" stroke="black" points="1234,-90.61 1206,-90.61 1206,-71.36 1234,-71.36 1234,-90.61"/>
<text text-anchor="middle" x="1220" y="-78.06" font-family="Times New Roman,serif" font-size="9.00">&#45;22</text>
</g>
<!-- 1 -->
<g id="node35" class="node">
<title>1</title>
<ellipse fill="lightblue" stroke="black" cx="1243" cy="-17.68" rx="14.5" ry="14.5"/>
<text text-anchor="middle" x="1243" y="-14.75" font-family="Times New Roman,serif" font-size="9.00">1</text>
</g>
<!-- &#45;22&#45;&gt;1 -->
<g id="edge10" class="edge">
<title>&#45;22&#45;&gt;1</title>
<path fill="none" stroke="red" stroke-width="0.12" d="M1223.39,-70.93C1226.35,-63.06 1230.76,-51.31 1234.64,-40.95"/>
<polygon fill="red" stroke="red" stroke-width="0.12" points="1237.85,-42.38 1238.08,-31.79 1231.29,-39.92 1237.85,-42.38"/>
</g>
<!-- &#45;23 -->
<g id="node23" class="node">
<title>&#45;23</title>
<polygon fill="lightgray" stroke="black" points="296,-90.61 268,-90.61 268,-71.36 296,-71.36 296,-90.61"/>
<text text-anchor="middle" x="282" y="-78.06" font-family="Times New Roman,serif" font-size="9.00">&#45;23</text>
</g>
<!-- &#45;23&#45;&gt;0 -->
<g id="edge34" class="edge">
<title>&#45;23&#45;&gt;0</title>
<path fill="none" stroke="green" stroke-width="0.3" d="M267.84,-71.71C249.96,-61.27 219.03,-43.22 198.3,-31.11"/>
<polygon fill="green" stroke="green" stroke-width="0.3" points="200.11,-28.11 189.71,-26.1 196.58,-34.16 200.11,-28.11"/>
</g>
<!-- &#45;23&#45;&gt;5 -->
<g id="edge22" class="edge">
<title>&#45;23&#45;&gt;5</title>
<path fill="none" stroke="green" stroke-width="0.17" d="M296.22,-74.42C316.72,-66.32 355.65,-50.56 388,-35.36 391.43,-33.74 395.03,-31.96 398.53,-30.17"/>
<polygon fill="green" stroke="green" stroke-width="0.17" points="399.87,-33.42 407.12,-25.7 396.63,-27.22 399.87,-33.42"/>
</g>
<!-- &#45;23&#45;&gt;8 -->
<g id="edge14" class="edge">
<title>&#45;23&#45;&gt;8</title>
<path fill="none" stroke="red" stroke-width="0.19" d="M275.95,-70.93C270.31,-62.5 261.71,-49.64 254.45,-38.78"/>
<polygon fill="red" stroke="red" stroke-width="0.19" points="257.38,-36.88 248.91,-30.51 251.56,-40.77 257.38,-36.88"/>
</g>
<!-- &#45;24 -->
<g id="node24" class="node">
<title>&#45;24</title>
<polygon fill="lightgray" stroke="black" points="1326,-90.61 1298,-90.61 1298,-71.36 1326,-71.36 1326,-90.61"/>
<text text-anchor="middle" x="1312" y="-78.06" font-family="Times New Roman,serif" font-size="9.00">&#45;24</text>
</g>
<!-- &#45;25 -->
<g id="node25" class="node">
<title>&#45;25</title>
<polygon fill="lightgray" stroke="black" points="342,-90.61 314,-90.61 314,-71.36 342,-71.36 342,-90.61"/>
<text text-anchor="middle" x="328" y="-78.06" font-family="Times New Roman,serif" font-size="9.00">&#45;25</text>
</g>
<!-- &#45;25&#45;&gt;5 -->
<g id="edge31" class="edge">
<title>&#45;25&#45;&gt;5</title>
<path fill="none" stroke="green" stroke-width="0.42" stroke-dasharray="1,5" d="M341.57,-70.93C356.9,-60.72 381.99,-44.01 399.65,-32.23"/>
<polygon fill="green" stroke="green" stroke-width="0.42" points="401.21,-35.4 407.6,-26.94 397.33,-29.58 401.21,-35.4"/>
</g>
<!-- &#45;25&#45;&gt;9 -->
<g id="edge15" class="edge">
<title>&#45;25&#45;&gt;9</title>
<path fill="none" stroke="green" stroke-width="0.25" d="M313.99,-74.41C311.04,-73.33 307.94,-72.25 305,-71.36 239.02,-51.2 220.16,-54.92 154,-35.36 146.12,-33.03 137.63,-30.13 130.06,-27.41"/>
<polygon fill="green" stroke="green" stroke-width="0.25" points="131.39,-24.17 120.8,-24.01 128.98,-30.74 131.39,-24.17"/>
</g>
<!-- &#45;25&#45;&gt;11 -->
<g id="edge23" class="edge">
<title>&#45;25&#45;&gt;11</title>
<path fill="none" stroke="red" stroke-width="0.31" d="M332.87,-70.93C336.89,-63.46 342.79,-52.51 348.15,-42.56"/>
<polygon fill="red" stroke="red" stroke-width="0.31" points="351.16,-44.34 352.82,-33.88 345,-41.03 351.16,-44.34"/>
</g>
<!-- &#45;26 -->
<g id="node26" class="node">
<title>&#45;26</title>
<polygon fill="lightgray" stroke="black" points="28,-90.61 0,-90.61 0,-71.36 28,-71.36 28,-90.61"/>
<text text-anchor="middle" x="14" y="-78.06" font-family="Times New Roman,serif" font-size="9.00">&#45;26</text>
</g>
<!-- &#45;26&#45;&gt;3 -->
<g id="edge3" class="edge">
<title>&#45;26&#45;&gt;3</title>
<path fill="none" stroke="red" stroke-width="0.74" d="M20.79,-70.93C27.13,-62.49 36.81,-49.58 44.97,-38.71"/>
<polygon fill="red" stroke="red" stroke-width="0.74" points="47.75,-40.83 50.95,-30.73 42.15,-36.63 47.75,-40.83"/>
</g>
<!-- &#45;27 -->
<g id="node27" class="node">
<title>&#45;27</title>
<polygon fill="lightgray" stroke="black" points="878,-90.61 850,-90.61 850,-71.36 878,-71.36 878,-90.61"/>
<text text-anchor="middle" x="864" y="-78.06" font-family="Times New Roman,serif" font-size="9.00">&#45;27</text>
</g>
<!-- &#45;27&#45;&gt;6 -->
<g id="edge24" class="edge">
<title>&#45;27&#45;&gt;6</title>
<path fill="none" stroke="green" stroke-width="0.16" d="M857.21,-70.93C850.68,-62.23 840.6,-48.79 832.29,-37.73"/>
<polygon fill="green" stroke="green" stroke-width="0.16" points="835.33,-35.94 826.52,-30.04 829.73,-40.14 835.33,-35.94"/>
</g>
<!-- &#45;28 -->
<g id="node28" class="node">
<title>&#45;28</title>
<polygon fill="lightgray" stroke="black" points="1280,-90.61 1252,-90.61 1252,-71.36 1280,-71.36 1280,-90.61"/>
<text text-anchor="middle" x="1266" y="-78.06" font-family="Times New Roman,serif" font-size="9.00">&#45;28</text>
</g>
<!-- &#45;28&#45;&gt;1 -->
<g id="edge11" class="edge">
<title>&#45;28&#45;&gt;1</title>
<path fill="none" stroke="green" stroke-width="0.41" d="M1262.61,-70.93C1259.68,-63.14 1255.34,-51.56 1251.48,-41.27"/>
<polygon fill="green" stroke="green" stroke-width="0.41" points="1254.86,-40.33 1248.07,-32.2 1248.31,-42.79 1254.86,-40.33"/>
</g>
<!-- &#45;29 -->
<g id="node29" class="node">
<title>&#45;29</title>
<polygon fill="lightgray" stroke="black" points="1372,-90.61 1344,-90.61 1344,-71.36 1372,-71.36 1372,-90.61"/>
<text text-anchor="middle" x="1358" y="-78.06" font-family="Times New Roman,serif" font-size="9.00">&#45;29</text>
</g>
<!-- &#45;30 -->
<g id="node30" class="node">
<title>&#45;30</title>
<polygon fill="lightgray" stroke="black" points="434,-90.61 406,-90.61 406,-71.36 434,-71.36 434,-90.61"/>
<text text-anchor="middle" x="420" y="-78.06" font-family="Times New Roman,serif" font-size="9.00">&#45;30</text>
</g>
<!-- &#45;30&#45;&gt;5 -->
<g id="edge30" class="edge">
<title>&#45;30&#45;&gt;5</title>
<path fill="none" stroke="red" stroke-width="0.27" d="M420,-70.93C420,-63.5 420,-52.61 420,-42.7"/>
<polygon fill="red" stroke="red" stroke-width="0.27" points="423.5,-42.94 420,-32.94 416.5,-42.94 423.5,-42.94"/>
</g>
<!-- &#45;31 -->
<g id="node31" class="node">
<title>&#45;31</title>
<polygon fill="lightgray" stroke="black" points="1418,-90.61 1390,-90.61 1390,-71.36 1418,-71.36 1418,-90.61"/>
<text text-anchor="middle" x="1404" y="-78.06" font-family="Times New Roman,serif" font-size="9.00">&#45;31</text>
</g>
<!-- &#45;32 -->
<g id="node32" class="node">
<title>&#45;32</title>
<polygon fill="lightgray" stroke="black" points="924,-90.61 896,-90.61 896,-71.36 924,-71.36 924,-90.61"/>
<text text-anchor="middle" x="910" y="-78.06" font-family="Times New Roman,serif" font-size="9.00">&#45;32</text>
</g>
<!-- &#45;32&#45;&gt;6 -->
<g id="edge35" class="edge">
<title>&#45;32&#45;&gt;6</title>
<path fill="none" stroke="green" stroke-width="0.16" d="M896.43,-70.93C881.1,-60.72 856.01,-44.01 838.35,-32.23"/>
<polygon fill="green" stroke="green" stroke-width="0.16" points="840.34,-29.36 830.08,-26.73 836.46,-35.18 840.34,-29.36"/>
</g>
<!-- 10 -->
<g id="node44" class="node">
<title>10</title>
<ellipse fill="lightblue" stroke="black" cx="910" cy="-17.68" rx="17.68" ry="17.68"/>
<text text-anchor="middle" x="910" y="-14.75" font-family="Times New Roman,serif" font-size="9.00">10</text>
</g>
<!-- &#45;32&#45;&gt;10 -->
<g id="edge18" class="edge">
<title>&#45;32&#45;&gt;10</title>
<path fill="none" stroke="red" stroke-width="0.13" d="M910,-70.93C910,-64.16 910,-54.52 910,-45.36"/>
<polygon fill="red" stroke="red" stroke-width="0.13" points="913.5,-45.6 910,-35.6 906.5,-45.6 913.5,-45.6"/>
</g>
<!-- &#45;33 -->
<g id="node33" class="node">
<title>&#45;33</title>
<polygon fill="lightgray" stroke="black" points="1464,-90.61 1436,-90.61 1436,-71.36 1464,-71.36 1464,-90.61"/>
<text text-anchor="middle" x="1450" y="-78.06" font-family="Times New Roman,serif" font-size="9.00">&#45;33</text>
</g>
</g>
</svg>
