<?xml version="1.0" encoding="UTF-8" standalone="no"?>
<!DOCTYPE svg PUBLIC "-//W3C//DTD SVG 1.1//EN"
 "http://www.w3.org/Graphics/SVG/1.1/DTD/svg11.dtd">
<!-- Generated by graphviz version 9.0.0 (20230911.1827)
 -->
<!-- Pages: 1 -->
<svg width="1472pt" height="99pt"
 viewBox="0.00 0.00 1471.50 98.61" xmlns="http://www.w3.org/2000/svg" xmlns:xlink="http://www.w3.org/1999/xlink">
<g id="graph0" class="graph" transform="scale(1 1) rotate(0) translate(4 94.61)">
<polygon fill="white" stroke="none" points="-4,4 -4,-94.61 1467.5,-94.61 1467.5,4 -4,4"/>
<!-- &#45;1 -->
<g id="node1" class="node">
<title>&#45;1</title>
<polygon fill="lightgray" stroke="black" points="1149.5,-90.61 1126,-90.61 1126,-71.36 1149.5,-71.36 1149.5,-90.61"/>
<text text-anchor="middle" x="1137.75" y="-78.06" font-family="Times New Roman,serif" font-size="9.00">&#45;1</text>
</g>
<!-- 1 -->
<g id="node35" class="node">
<title>1</title>
<ellipse fill="lightblue" stroke="black" cx="978.75" cy="-17.68" rx="14.5" ry="14.5"/>
<text text-anchor="middle" x="978.75" y="-14.75" font-family="Times New Roman,serif" font-size="9.00">1</text>
</g>
<!-- &#45;1&#45;&gt;1 -->
<g id="edge51" class="edge">
<title>&#45;1&#45;&gt;1</title>
<path fill="none" stroke="red" stroke-width="0.59" d="M1125.78,-75C1122.83,-73.79 1119.68,-72.52 1116.75,-71.36 1076.55,-55.43 1029.44,-37.63 1001.96,-27.33"/>
<polygon fill="red" stroke="red" stroke-width="0.59" points="1003.55,-24.19 992.95,-23.97 1001.09,-30.75 1003.55,-24.19"/>
</g>
<!-- 9 -->
<g id="node43" class="node">
<title>9</title>
<ellipse fill="lightblue" stroke="black" cx="1296.75" cy="-17.68" rx="14.5" ry="14.5"/>
<text text-anchor="middle" x="1296.75" y="-14.75" font-family="Times New Roman,serif" font-size="9.00">9</text>
</g>
<!-- &#45;1&#45;&gt;9 -->
<g id="edge60" class="edge">
<title>&#45;1&#45;&gt;9</title>
<path fill="none" stroke="red" stroke-width="0.17" stroke-dasharray="1,5" d="M1149.72,-75C1152.67,-73.79 1155.82,-72.52 1158.75,-71.36 1199.13,-55.36 1246.48,-37.47 1273.91,-27.2"/>
<polygon fill="red" stroke="red" stroke-width="0.17" points="1275,-30.53 1283.14,-23.74 1272.55,-23.97 1275,-30.53"/>
</g>
<!-- 11 -->
<g id="node45" class="node">
<title>11</title>
<ellipse fill="lightblue" stroke="black" cx="1063.75" cy="-17.68" rx="17.68" ry="17.68"/>
<text text-anchor="middle" x="1063.75" y="-14.75" font-family="Times New Roman,serif" font-size="9.00">11</text>
</g>
<!-- &#45;1&#45;&gt;11 -->
<g id="edge45" class="edge">
<title>&#45;1&#45;&gt;11</title>
<path fill="none" stroke="green" stroke-width="0.28" stroke-dasharray="1,5" d="M1126.83,-70.93C1115.91,-61.89 1098.82,-47.73 1085.19,-36.44"/>
<polygon fill="green" stroke="green" stroke-width="0.28" points="1087.49,-33.8 1077.55,-30.11 1083.02,-39.19 1087.49,-33.8"/>
</g>
<!-- 12 -->
<g id="node46" class="node">
<title>12</title>
<ellipse fill="lightblue" stroke="black" cx="329.75" cy="-17.68" rx="17.68" ry="17.68"/>
<text text-anchor="middle" x="329.75" y="-14.75" font-family="Times New Roman,serif" font-size="9.00">12</text>
</g>
<!-- &#45;1&#45;&gt;12 -->
<g id="edge6" class="edge">
<title>&#45;1&#45;&gt;12</title>
<path fill="none" stroke="red" stroke-width="0.1" d="M1125.54,-74.15C1122.71,-73.03 1119.67,-72.01 1116.75,-71.36 789.68,1.35 688.22,-118.87 363.75,-35.36 360.5,-34.52 357.2,-33.35 353.99,-32.03"/>
<polygon fill="red" stroke="red" stroke-width="0.1" points="355.48,-28.86 344.95,-27.77 352.51,-35.19 355.48,-28.86"/>
</g>
<!-- &#45;2 -->
<g id="node2" class="node">
<title>&#45;2</title>
<polygon fill="lightgray" stroke="black" points="1463.5,-90.61 1440,-90.61 1440,-71.36 1463.5,-71.36 1463.5,-90.61"/>
<text text-anchor="middle" x="1451.75" y="-78.06" font-family="Times New Roman,serif" font-size="9.00">&#45;2</text>
</g>
<!-- &#45;3 -->
<g id="node3" class="node">
<title>&#45;3</title>
<polygon fill="lightgray" stroke="black" points="923.5,-90.61 900,-90.61 900,-71.36 923.5,-71.36 923.5,-90.61"/>
<text text-anchor="middle" x="911.75" y="-78.06" font-family="Times New Roman,serif" font-size="9.00">&#45;3</text>
</g>
<!-- 5 -->
<g id="node39" class="node">
<title>5</title>
<ellipse fill="lightblue" stroke="black" cx="685.75" cy="-17.68" rx="14.5" ry="14.5"/>
<text text-anchor="middle" x="685.75" y="-14.75" font-family="Times New Roman,serif" font-size="9.00">5</text>
</g>
<!-- &#45;3&#45;&gt;5 -->
<g id="edge7" class="edge">
<title>&#45;3&#45;&gt;5</title>
<path fill="none" stroke="red" stroke-width="0.15" d="M899.86,-74.76C896.92,-73.56 893.74,-72.35 890.75,-71.36 826.52,-50.03 748.6,-32.12 709.93,-23.75"/>
<polygon fill="red" stroke="red" stroke-width="0.15" points="710.84,-20.37 700.33,-21.7 709.37,-27.21 710.84,-20.37"/>
</g>
<!-- &#45;4 -->
<g id="node4" class="node">
<title>&#45;4</title>
<polygon fill="lightgray" stroke="black" points="23.5,-90.61 0,-90.61 0,-71.36 23.5,-71.36 23.5,-90.61"/>
<text text-anchor="middle" x="11.75" y="-78.06" font-family="Times New Roman,serif" font-size="9.00">&#45;4</text>
</g>
<!-- 3 -->
<g id="node37" class="node">
<title>3</title>
<ellipse fill="lightblue" stroke="black" cx="185.75" cy="-17.68" rx="14.5" ry="14.5"/>
<text text-anchor="middle" x="185.75" y="-14.75" font-family="Times New Roman,serif" font-size="9.00">3</text>
</g>
<!-- &#45;4&#45;&gt;3 -->
<g id="edge16" class="edge">
<title>&#45;4&#45;&gt;3</title>
<path fill="none" stroke="green" stroke-width="0.22" d="M23.7,-74.93C26.64,-73.73 29.8,-72.47 32.75,-71.36 78.37,-54.15 132.45,-36.07 162.55,-26.2"/>
<polygon fill="green" stroke="green" stroke-width="0.22" points="163.41,-29.6 171.83,-23.17 161.23,-22.95 163.41,-29.6"/>
</g>
<!-- &#45;5 -->
<g id="node5" class="node">
<title>&#45;5</title>
<polygon fill="lightgray" stroke="black" points="1375.5,-90.61 1352,-90.61 1352,-71.36 1375.5,-71.36 1375.5,-90.61"/>
<text text-anchor="middle" x="1363.75" y="-78.06" font-family="Times New Roman,serif" font-size="9.00">&#45;5</text>
</g>
<!-- 4 -->
<g id="node38" class="node">
<title>4</title>
<ellipse fill="lightblue" stroke="black" cx="1113.75" cy="-17.68" rx="14.5" ry="14.5"/>
<text text-anchor="middle" x="1113.75" y="-14.75" font-family="Times New Roman,serif" font-size="9.00">4</text>
</g>
<!-- &#45;5&#45;&gt;4 -->
<g id="edge14" class="edge">
<title>&#45;5&#45;&gt;4</title>
<path fill="none" stroke="green" stroke-width="0.12" d="M1351.9,-74.64C1348.95,-73.44 1345.77,-72.26 1342.75,-71.36 1262.94,-47.41 1238.97,-57.91 1158.75,-35.36 1151.25,-33.25 1143.23,-30.45 1136.06,-27.76"/>
<polygon fill="green" stroke="green" stroke-width="0.12" points="1137.71,-24.64 1127.12,-24.28 1135.17,-31.17 1137.71,-24.64"/>
</g>
<!-- &#45;5&#45;&gt;9 -->
<g id="edge29" class="edge">
<title>&#45;5&#45;&gt;9</title>
<path fill="none" stroke="red" stroke-width="0.28" d="M1353.86,-70.93C1343.59,-61.54 1327.29,-46.62 1314.73,-35.13"/>
<polygon fill="red" stroke="red" stroke-width="0.28" points="1317.17,-32.62 1307.43,-28.45 1312.45,-37.78 1317.17,-32.62"/>
</g>
<!-- &#45;6 -->
<g id="node6" class="node">
<title>&#45;6</title>
<polygon fill="lightgray" stroke="black" points="697.5,-90.61 674,-90.61 674,-71.36 697.5,-71.36 697.5,-90.61"/>
<text text-anchor="middle" x="685.75" y="-78.06" font-family="Times New Roman,serif" font-size="9.00">&#45;6</text>
</g>
<!-- &#45;6&#45;&gt;5 -->
<g id="edge49" class="edge">
<title>&#45;6&#45;&gt;5</title>
<path fill="none" stroke="green" stroke-width="0.35" d="M685.75,-70.93C685.75,-63.58 685.75,-52.84 685.75,-43.01"/>
<polygon fill="green" stroke="green" stroke-width="0.35" points="689.25,-43.05 685.75,-33.05 682.25,-43.05 689.25,-43.05"/>
</g>
<!-- &#45;7 -->
<g id="node7" class="node">
<title>&#45;7</title>
<polygon fill="lightgray" stroke="black" points="65.5,-90.61 42,-90.61 42,-71.36 65.5,-71.36 65.5,-90.61"/>
<text text-anchor="middle" x="53.75" y="-78.06" font-family="Times New Roman,serif" font-size="9.00">&#45;7</text>
</g>
<!-- &#45;7&#45;&gt;3 -->
<g id="edge80" class="edge">
<title>&#45;7&#45;&gt;3</title>
<path fill="none" stroke="green" stroke-width="0.37" d="M65.93,-74.32C88.1,-64.03 135.33,-42.09 163.42,-29.05"/>
<polygon fill="green" stroke="green" stroke-width="0.37" points="164.71,-32.31 172.31,-24.92 161.77,-25.96 164.71,-32.31"/>
</g>
<!-- &#45;8 -->
<g id="node8" class="node">
<title>&#45;8</title>
<polygon fill="lightgray" stroke="black" points="241.5,-90.61 218,-90.61 218,-71.36 241.5,-71.36 241.5,-90.61"/>
<text text-anchor="middle" x="229.75" y="-78.06" font-family="Times New Roman,serif" font-size="9.00">&#45;8</text>
</g>
<!-- &#45;8&#45;&gt;3 -->
<g id="edge22" class="edge">
<title>&#45;8&#45;&gt;3</title>
<path fill="none" stroke="green" stroke-width="0.36" d="M223.26,-70.93C217.13,-62.4 207.74,-49.32 199.89,-38.38"/>
<polygon fill="green" stroke="green" stroke-width="0.36" points="202.76,-36.37 194.08,-30.29 197.07,-40.45 202.76,-36.37"/>
</g>
<!-- 6 -->
<g id="node40" class="node">
<title>6</title>
<ellipse fill="lightblue" stroke="black" cx="279.75" cy="-17.68" rx="14.5" ry="14.5"/>
<text text-anchor="middle" x="279.75" y="-14.75" font-family="Times New Roman,serif" font-size="9.00">6</text>
</g>
<!-- &#45;8&#45;&gt;6 -->
<g id="edge68" class="edge">
<title>&#45;8&#45;&gt;6</title>
<path fill="none" stroke="red" stroke-width="0.19" d="M237.13,-70.93C244.31,-62.12 255.45,-48.47 264.54,-37.32"/>
<polygon fill="red" stroke="red" stroke-width="0.19" points="267.2,-39.6 270.81,-29.64 261.78,-35.17 267.2,-39.6"/>
</g>
<!-- 10 -->
<g id="node44" class="node">
<title>10</title>
<ellipse fill="lightblue" stroke="black" cx="450.75" cy="-17.68" rx="17.68" ry="17.68"/>
<text text-anchor="middle" x="450.75" y="-14.75" font-family="Times New Roman,serif" font-size="9.00">10</text>
</g>
<!-- &#45;8&#45;&gt;10 -->
<g id="edge20" class="edge">
<title>&#45;8&#45;&gt;10</title>
<path fill="none" stroke="red" stroke-width="0.15" stroke-dasharray="1,5" d="M241.62,-74.7C244.57,-73.5 247.74,-72.31 250.75,-71.36 319.84,-49.52 340.63,-57.08 409.75,-35.36 414.84,-33.75 420.19,-31.79 425.28,-29.79"/>
<polygon fill="red" stroke="red" stroke-width="0.15" points="426.49,-33.08 434.41,-26.04 423.83,-26.6 426.49,-33.08"/>
</g>
<!-- 13 -->
<g id="node47" class="node">
<title>13</title>
<ellipse fill="lightblue" stroke="black" cx="798.75" cy="-17.68" rx="17.68" ry="17.68"/>
<text text-anchor="middle" x="798.75" y="-14.75" font-family="Times New Roman,serif" font-size="9.00">13</text>
</g>
<!-- &#45;8&#45;&gt;13 -->
<g id="edge82" class="edge">
<title>&#45;8&#45;&gt;13</title>
<path fill="none" stroke="red" stroke-width="0.35" d="M241.97,-74.21C244.8,-73.09 247.84,-72.05 250.75,-71.36 457.2,-22.45 517.02,-67.39 726.75,-35.36 741.76,-33.06 758.28,-29.32 771.71,-25.97"/>
<polygon fill="red" stroke="red" stroke-width="0.35" points="772.4,-29.4 781.21,-23.52 770.66,-22.63 772.4,-29.4"/>
</g>
<!-- &#45;9 -->
<g id="node9" class="node">
<title>&#45;9</title>
<polygon fill="lightgray" stroke="black" points="107.5,-90.61 84,-90.61 84,-71.36 107.5,-71.36 107.5,-90.61"/>
<text text-anchor="middle" x="95.75" y="-78.06" font-family="Times New Roman,serif" font-size="9.00">&#45;9</text>
</g>
<!-- 8 -->
<g id="node42" class="node">
<title>8</title>
<ellipse fill="lightblue" stroke="black" cx="232.75" cy="-17.68" rx="14.5" ry="14.5"/>
<text text-anchor="middle" x="232.75" y="-14.75" font-family="Times New Roman,serif" font-size="9.00">8</text>
</g>
<!-- &#45;9&#45;&gt;8 -->
<g id="edge30" class="edge">
<title>&#45;9&#45;&gt;8</title>
<path fill="none" stroke="red" stroke-width="0.48" d="M107.73,-75.02C110.68,-73.81 113.82,-72.53 116.75,-71.36 157.5,-55.01 170.01,-56.03 208.75,-35.36 210.09,-34.64 211.45,-33.86 212.8,-33.05"/>
<polygon fill="red" stroke="red" stroke-width="0.48" points="214.35,-36.22 220.77,-27.79 210.49,-30.38 214.35,-36.22"/>
</g>
<!-- &#45;10 -->
<g id="node10" class="node">
<title>&#45;10</title>
<polygon fill="lightgray" stroke="black" points="1061.75,-90.61 1033.75,-90.61 1033.75,-71.36 1061.75,-71.36 1061.75,-90.61"/>
<text text-anchor="middle" x="1047.75" y="-78.06" font-family="Times New Roman,serif" font-size="9.00">&#45;10</text>
</g>
<!-- &#45;10&#45;&gt;4 -->
<g id="edge44" class="edge">
<title>&#45;10&#45;&gt;4</title>
<path fill="none" stroke="red" stroke-width="0.35" d="M1057.49,-70.93C1067.61,-61.54 1083.66,-46.62 1096.04,-35.13"/>
<polygon fill="red" stroke="red" stroke-width="0.35" points="1098.21,-37.89 1103.15,-28.52 1093.44,-32.76 1098.21,-37.89"/>
</g>
<!-- &#45;10&#45;&gt;10 -->
<g id="edge10" class="edge">
<title>&#45;10&#45;&gt;10</title>
<path fill="none" stroke="red" stroke-width="0.27" d="M1033.34,-73.86C1030.53,-72.87 1027.58,-71.98 1024.75,-71.36 807.97,-23.91 746.36,-67.22 526.75,-35.36 510.29,-32.97 492.09,-29.02 477.62,-25.56"/>
<polygon fill="red" stroke="red" stroke-width="0.27" points="478.77,-22.24 468.22,-23.26 477.1,-29.04 478.77,-22.24"/>
</g>
<!-- &#45;11 -->
<g id="node11" class="node">
<title>&#45;11</title>
<polygon fill="lightgray" stroke="black" points="1241.75,-90.61 1213.75,-90.61 1213.75,-71.36 1241.75,-71.36 1241.75,-90.61"/>
<text text-anchor="middle" x="1227.75" y="-78.06" font-family="Times New Roman,serif" font-size="9.00">&#45;11</text>
</g>
<!-- 0 -->
<g id="node34" class="node">
<title>0</title>
<ellipse fill="lightblue" stroke="black" cx="1181.75" cy="-17.68" rx="14.5" ry="14.5"/>
<text text-anchor="middle" x="1181.75" y="-14.75" font-family="Times New Roman,serif" font-size="9.00">0</text>
</g>
<!-- &#45;11&#45;&gt;0 -->
<g id="edge13" class="edge">
<title>&#45;11&#45;&gt;0</title>
<path fill="none" stroke="green" stroke-width="0.21" stroke-dasharray="1,5" d="M1220.96,-70.93C1214.49,-62.32 1204.55,-49.06 1196.29,-38.05"/>
<polygon fill="green" stroke="green" stroke-width="0.21" points="1199.12,-36 1190.32,-30.1 1193.52,-40.2 1199.12,-36"/>
</g>
<!-- &#45;12 -->
<g id="node12" class="node">
<title>&#45;12</title>
<polygon fill="lightgray" stroke="black" points="425.75,-90.61 397.75,-90.61 397.75,-71.36 425.75,-71.36 425.75,-90.61"/>
<text text-anchor="middle" x="411.75" y="-78.06" font-family="Times New Roman,serif" font-size="9.00">&#45;12</text>
</g>
<!-- &#45;12&#45;&gt;10 -->
<g id="edge52" class="edge">
<title>&#45;12&#45;&gt;10</title>
<path fill="none" stroke="red" stroke-width="0.22" d="M417.5,-70.93C422.42,-63.21 429.71,-51.75 436.21,-41.53"/>
<polygon fill="red" stroke="red" stroke-width="0.22" points="439.04,-43.6 441.46,-33.28 433.14,-39.84 439.04,-43.6"/>
</g>
<!-- &#45;13 -->
<g id="node13" class="node">
<title>&#45;13</title>
<polygon fill="lightgray" stroke="black" points="881.75,-90.61 853.75,-90.61 853.75,-71.36 881.75,-71.36 881.75,-90.61"/>
<text text-anchor="middle" x="867.75" y="-78.06" font-family="Times New Roman,serif" font-size="9.00">&#45;13</text>
</g>
<!-- &#45;13&#45;&gt;5 -->
<g id="edge38" class="edge">
<title>&#45;13&#45;&gt;5</title>
<path fill="none" stroke="green" stroke-width="0.46" stroke-dasharray="1,5" d="M853.67,-74.6C850.73,-73.51 847.65,-72.38 844.75,-71.36 796.92,-54.47 740.45,-36.14 709.32,-26.17"/>
<polygon fill="green" stroke="green" stroke-width="0.46" points="710.68,-22.93 700.09,-23.22 708.55,-29.6 710.68,-22.93"/>
</g>
<!-- &#45;13&#45;&gt;6 -->
<g id="edge33" class="edge">
<title>&#45;13&#45;&gt;6</title>
<path fill="none" stroke="green" stroke-width="0.19" d="M853.34,-73.85C850.54,-72.86 847.58,-71.97 844.75,-71.36 608.76,-20.43 529.79,-117.42 302.75,-35.36 301.36,-34.85 299.98,-34.24 298.62,-33.55"/>
<polygon fill="green" stroke="green" stroke-width="0.19" points="300.8,-30.79 290.5,-28.35 297.03,-36.68 300.8,-30.79"/>
</g>
<!-- &#45;13&#45;&gt;9 -->
<g id="edge46" class="edge">
<title>&#45;13&#45;&gt;9</title>
<path fill="none" stroke="red" stroke-width="0.48" stroke-dasharray="1,5" d="M882.18,-73.96C884.99,-72.96 887.93,-72.03 890.75,-71.36 1027.31,-38.45 1065.79,-55.89 1204.75,-35.36 1227.62,-31.97 1253.52,-27.19 1272,-23.62"/>
<polygon fill="red" stroke="red" stroke-width="0.48" points="1272.61,-27.06 1281.75,-21.71 1271.26,-20.19 1272.61,-27.06"/>
</g>
<!-- &#45;14 -->
<g id="node14" class="node">
<title>&#45;14</title>
<polygon fill="lightgray" stroke="black" points="287.75,-90.61 259.75,-90.61 259.75,-71.36 287.75,-71.36 287.75,-90.61"/>
<text text-anchor="middle" x="273.75" y="-78.06" font-family="Times New Roman,serif" font-size="9.00">&#45;14</text>
</g>
<!-- &#45;14&#45;&gt;3 -->
<g id="edge9" class="edge">
<title>&#45;14&#45;&gt;3</title>
<path fill="none" stroke="green" stroke-width="0.44" d="M260.77,-70.93C246.32,-60.87 222.81,-44.5 205.96,-32.76"/>
<polygon fill="green" stroke="green" stroke-width="0.44" points="208.13,-30 197.93,-27.16 204.13,-35.75 208.13,-30"/>
</g>
<!-- &#45;14&#45;&gt;5 -->
<g id="edge40" class="edge">
<title>&#45;14&#45;&gt;5</title>
<path fill="none" stroke="green" stroke-width="0.11" stroke-dasharray="1,5" d="M288.19,-73.99C290.99,-72.99 293.94,-72.06 296.75,-71.36 416.78,-41.44 450.22,-52.39 572.75,-35.36 603.27,-31.11 638.37,-25.88 661.25,-22.41"/>
<polygon fill="green" stroke="green" stroke-width="0.11" points="661.61,-25.9 670.98,-20.94 660.56,-18.98 661.61,-25.9"/>
</g>
<!-- &#45;14&#45;&gt;6 -->
<g id="edge50" class="edge">
<title>&#45;14&#45;&gt;6</title>
<path fill="none" stroke="red" stroke-width="0.19" stroke-dasharray="1,5" d="M274.64,-70.93C275.36,-63.5 276.43,-52.61 277.4,-42.7"/>
<polygon fill="red" stroke="red" stroke-width="0.19" points="280.88,-43.11 278.37,-32.82 273.91,-42.43 280.88,-43.11"/>
</g>
<!-- &#45;14&#45;&gt;8 -->
<g id="edge65" class="edge">
<title>&#45;14&#45;&gt;8</title>
<path fill="none" stroke="red" stroke-width="0.23" d="M267.7,-70.93C262.06,-62.5 253.46,-49.64 246.2,-38.78"/>
<polygon fill="red" stroke="red" stroke-width="0.23" points="249.17,-36.94 240.7,-30.57 243.35,-40.83 249.17,-36.94"/>
</g>
<!-- &#45;14&#45;&gt;10 -->
<g id="edge74" class="edge">
<title>&#45;14&#45;&gt;10</title>
<path fill="none" stroke="red" stroke-width="0.1" stroke-dasharray="1,5" d="M287.82,-74.58C290.76,-73.48 293.85,-72.36 296.75,-71.36 346.55,-54.1 360.19,-53.3 409.75,-35.36 414.77,-33.54 420.08,-31.48 425.16,-29.44"/>
<polygon fill="red" stroke="red" stroke-width="0.1" points="426.43,-32.71 434.36,-25.68 423.78,-26.23 426.43,-32.71"/>
</g>
<!-- &#45;14&#45;&gt;11 -->
<g id="edge41" class="edge">
<title>&#45;14&#45;&gt;11</title>
<path fill="none" stroke="green" stroke-width="0.37" d="M288.15,-73.81C290.96,-72.83 293.91,-71.95 296.75,-71.36 603.93,-7.52 691.86,-84.38 1001.75,-35.36 1013.39,-33.51 1026,-30.35 1036.78,-27.27"/>
<polygon fill="green" stroke="green" stroke-width="0.37" points="1037.73,-30.63 1046.32,-24.42 1035.73,-23.93 1037.73,-30.63"/>
</g>
<!-- &#45;14&#45;&gt;12 -->
<g id="edge73" class="edge">
<title>&#45;14&#45;&gt;12</title>
<path fill="none" stroke="red" stroke-width="0.46" d="M282.01,-70.93C289.67,-62.55 301.35,-49.77 311.23,-38.95"/>
<polygon fill="red" stroke="red" stroke-width="0.46" points="313.71,-41.42 317.88,-31.68 308.55,-36.7 313.71,-41.42"/>
</g>
<!-- &#45;15 -->
<g id="node15" class="node">
<title>&#45;15</title>
<polygon fill="lightgray" stroke="black" points="743.75,-90.61 715.75,-90.61 715.75,-71.36 743.75,-71.36 743.75,-90.61"/>
<text text-anchor="middle" x="729.75" y="-78.06" font-family="Times New Roman,serif" font-size="9.00">&#45;15</text>
</g>
<!-- &#45;15&#45;&gt;5 -->
<g id="edge5" class="edge">
<title>&#45;15&#45;&gt;5</title>
<path fill="none" stroke="red" stroke-width="0.21" d="M723.26,-70.93C717.07,-62.32 707.55,-49.06 699.66,-38.05"/>
<polygon fill="red" stroke="red" stroke-width="0.21" points="702.63,-36.19 693.95,-30.11 696.94,-40.27 702.63,-36.19"/>
</g>
<!-- &#45;16 -->
<g id="node16" class="node">
<title>&#45;16</title>
<polygon fill="lightgray" stroke="black" points="517.75,-90.61 489.75,-90.61 489.75,-71.36 517.75,-71.36 517.75,-90.61"/>
<text text-anchor="middle" x="503.75" y="-78.06" font-family="Times New Roman,serif" font-size="9.00">&#45;16</text>
</g>
<!-- &#45;16&#45;&gt;5 -->
<g id="edge54" class="edge">
<title>&#45;16&#45;&gt;5</title>
<path fill="none" stroke="red" stroke-width="0.83" d="M517.83,-74.6C520.77,-73.51 523.85,-72.38 526.75,-71.36 574.16,-54.62 630.07,-36.46 661.36,-26.43"/>
<polygon fill="red" stroke="red" stroke-width="0.83" points="662.41,-29.77 670.87,-23.39 660.28,-23.1 662.41,-29.77"/>
</g>
<!-- 7 -->
<g id="node41" class="node">
<title>7</title>
<ellipse fill="lightblue" stroke="black" cx="549.75" cy="-17.68" rx="14.5" ry="14.5"/>
<text text-anchor="middle" x="549.75" y="-14.75" font-family="Times New Roman,serif" font-size="9.00">7</text>
</g>
<!-- &#45;16&#45;&gt;7 -->
<g id="edge69" class="edge">
<title>&#45;16&#45;&gt;7</title>
<path fill="none" stroke="red" stroke-width="0.12" d="M510.54,-70.93C517.07,-62.23 527.15,-48.79 535.46,-37.73"/>
<polygon fill="red" stroke="red" stroke-width="0.12" points="538.06,-40.09 541.26,-29.99 532.46,-35.89 538.06,-40.09"/>
</g>
<!-- &#45;16&#45;&gt;8 -->
<g id="edge79" class="edge">
<title>&#45;16&#45;&gt;8</title>
<path fill="none" stroke="red" stroke-width="0.3" d="M489.29,-74.06C486.49,-73.05 483.55,-72.1 480.75,-71.36 383.28,-45.52 350.27,-73.07 256.75,-35.36 255.13,-34.7 253.52,-33.93 251.93,-33.07"/>
<polygon fill="red" stroke="red" stroke-width="0.3" points="254.07,-30.28 243.77,-27.84 250.3,-36.18 254.07,-30.28"/>
</g>
<!-- &#45;17 -->
<g id="node17" class="node">
<title>&#45;17</title>
<polygon fill="lightgray" stroke="black" points="1015.75,-90.61 987.75,-90.61 987.75,-71.36 1015.75,-71.36 1015.75,-90.61"/>
<text text-anchor="middle" x="1001.75" y="-78.06" font-family="Times New Roman,serif" font-size="9.00">&#45;17</text>
</g>
<!-- &#45;17&#45;&gt;1 -->
<g id="edge8" class="edge">
<title>&#45;17&#45;&gt;1</title>
<path fill="none" stroke="green" stroke-width="0.31" stroke-dasharray="1,5" d="M998.36,-70.93C995.43,-63.14 991.09,-51.56 987.23,-41.27"/>
<polygon fill="green" stroke="green" stroke-width="0.31" points="990.56,-40.19 983.77,-32.05 984,-42.64 990.56,-40.19"/>
</g>
<!-- &#45;17&#45;&gt;8 -->
<g id="edge26" class="edge">
<title>&#45;17&#45;&gt;8</title>
<path fill="none" stroke="red" stroke-width="0.29" d="M987.35,-73.81C984.54,-72.83 981.59,-71.94 978.75,-71.36 821.45,-38.76 408.8,-87.19 256.75,-35.36 255.1,-34.79 253.46,-34.08 251.86,-33.27"/>
<polygon fill="red" stroke="red" stroke-width="0.29" points="253.98,-30.47 243.65,-28.12 250.26,-36.4 253.98,-30.47"/>
</g>
<!-- &#45;17&#45;&gt;11 -->
<g id="edge27" class="edge">
<title>&#45;17&#45;&gt;11</title>
<path fill="none" stroke="red" stroke-width="0.93" stroke-dasharray="1,5" d="M1010.9,-70.93C1019.49,-62.44 1032.63,-49.45 1043.66,-38.54"/>
<polygon fill="red" stroke="red" stroke-width="0.93" points="1045.92,-41.23 1050.57,-31.71 1041,-36.25 1045.92,-41.23"/>
</g>
<!-- &#45;18 -->
<g id="node18" class="node">
<title>&#45;18</title>
<polygon fill="lightgray" stroke="black" points="563.75,-90.61 535.75,-90.61 535.75,-71.36 563.75,-71.36 563.75,-90.61"/>
<text text-anchor="middle" x="549.75" y="-78.06" font-family="Times New Roman,serif" font-size="9.00">&#45;18</text>
</g>
<!-- &#45;18&#45;&gt;5 -->
<g id="edge25" class="edge">
<title>&#45;18&#45;&gt;5</title>
<path fill="none" stroke="green" stroke-width="0.27" d="M564.05,-73.54C587.74,-62.86 635.3,-41.42 663.43,-28.74"/>
<polygon fill="green" stroke="green" stroke-width="0.27" points="664.79,-31.96 672.47,-24.66 661.91,-25.58 664.79,-31.96"/>
</g>
<!-- &#45;18&#45;&gt;6 -->
<g id="edge57" class="edge">
<title>&#45;18&#45;&gt;6</title>
<path fill="none" stroke="red" stroke-width="0.2" stroke-dasharray="1,5" d="M535.29,-74.06C532.49,-73.05 529.55,-72.1 526.75,-71.36 429.28,-45.52 395.88,-74 302.75,-35.36 301.38,-34.79 300.02,-34.12 298.68,-33.4"/>
<polygon fill="red" stroke="red" stroke-width="0.2" points="300.88,-30.65 290.6,-28.11 297.06,-36.51 300.88,-30.65"/>
</g>
<!-- &#45;18&#45;&gt;7 -->
<g id="edge42" class="edge">
<title>&#45;18&#45;&gt;7</title>
<path fill="none" stroke="green" stroke-width="0.13" d="M549.75,-70.93C549.75,-63.5 549.75,-52.61 549.75,-42.7"/>
<polygon fill="green" stroke="green" stroke-width="0.13" points="553.25,-42.73 549.75,-32.73 546.25,-42.73 553.25,-42.73"/>
</g>
<!-- &#45;19 -->
<g id="node19" class="node">
<title>&#45;19</title>
<polygon fill="lightgray" stroke="black" points="471.75,-90.61 443.75,-90.61 443.75,-71.36 471.75,-71.36 471.75,-90.61"/>
<text text-anchor="middle" x="457.75" y="-78.06" font-family="Times New Roman,serif" font-size="9.00">&#45;19</text>
</g>
<!-- &#45;19&#45;&gt;7 -->
<g id="edge70" class="edge">
<title>&#45;19&#45;&gt;7</title>
<path fill="none" stroke="green" stroke-width="0.26" stroke-dasharray="1,5" d="M471.32,-70.93C486.65,-60.72 511.74,-44.01 529.4,-32.23"/>
<polygon fill="green" stroke="green" stroke-width="0.26" points="531.16,-35.27 537.54,-26.81 527.28,-29.44 531.16,-35.27"/>
</g>
<!-- &#45;19&#45;&gt;10 -->
<g id="edge2" class="edge">
<title>&#45;19&#45;&gt;10</title>
<path fill="none" stroke="red" stroke-width="0.63" d="M456.72,-70.93C455.97,-64.38 454.91,-55.14 453.9,-46.25"/>
<polygon fill="red" stroke="red" stroke-width="0.63" points="457.38,-45.89 452.77,-36.35 450.42,-46.68 457.38,-45.89"/>
</g>
<!-- &#45;19&#45;&gt;12 -->
<g id="edge83" class="edge">
<title>&#45;19&#45;&gt;12</title>
<path fill="none" stroke="green" stroke-width="0.13" d="M443.39,-73.23C424.93,-64.54 391.9,-48.94 363.75,-35.36 360.73,-33.9 357.56,-32.36 354.43,-30.83"/>
<polygon fill="green" stroke="green" stroke-width="0.13" points="356,-27.7 345.48,-26.45 352.92,-33.99 356,-27.7"/>
</g>
<!-- &#45;20 -->
<g id="node20" class="node">
<title>&#45;20</title>
<polygon fill="lightgray" stroke="black" points="1333.75,-90.61 1305.75,-90.61 1305.75,-71.36 1333.75,-71.36 1333.75,-90.61"/>
<text text-anchor="middle" x="1319.75" y="-78.06" font-family="Times New Roman,serif" font-size="9.00">&#45;20</text>
</g>
<!-- &#45;20&#45;&gt;9 -->
<g id="edge31" class="edge">
<title>&#45;20&#45;&gt;9</title>
<path fill="none" stroke="green" stroke-width="0.98" d="M1316.36,-70.93C1313.52,-63.39 1309.36,-52.28 1305.59,-42.24"/>
<polygon fill="green" stroke="green" stroke-width="0.98" points="1308.91,-41.13 1302.12,-33 1302.36,-43.59 1308.91,-41.13"/>
</g>
<!-- &#45;20&#45;&gt;11 -->
<g id="edge72" class="edge">
<title>&#45;20&#45;&gt;11</title>
<path fill="none" stroke="red" stroke-width="0.69" stroke-dasharray="1,5" d="M1305.28,-74.09C1302.48,-73.08 1299.55,-72.12 1296.75,-71.36 1207.07,-46.93 1177.63,-68.37 1090.75,-35.36 1089.64,-34.93 1088.53,-34.47 1087.42,-33.96"/>
<polygon fill="red" stroke="red" stroke-width="0.69" points="1089.17,-30.93 1078.71,-29.24 1085.84,-37.09 1089.17,-30.93"/>
</g>
<!-- &#45;21 -->
<g id="node21" class="node">
<title>&#45;21</title>
<polygon fill="lightgray" stroke="black" points="609.75,-90.61 581.75,-90.61 581.75,-71.36 609.75,-71.36 609.75,-90.61"/>
<text text-anchor="middle" x="595.75" y="-78.06" font-family="Times New Roman,serif" font-size="9.00">&#45;21</text>
</g>
<!-- &#45;21&#45;&gt;5 -->
<g id="edge39" class="edge">
<title>&#45;21&#45;&gt;5</title>
<path fill="none" stroke="green" stroke-width="0.83" stroke-dasharray="1,5" d="M609.03,-70.93C623.66,-60.97 647.4,-44.8 664.6,-33.08"/>
<polygon fill="green" stroke="green" stroke-width="0.83" points="666.52,-36.01 672.82,-27.49 662.58,-30.22 666.52,-36.01"/>
</g>
<!-- &#45;21&#45;&gt;7 -->
<g id="edge53" class="edge">
<title>&#45;21&#45;&gt;7</title>
<path fill="none" stroke="red" stroke-width="0.69" d="M588.96,-70.93C582.56,-62.4 572.74,-49.32 564.53,-38.38"/>
<polygon fill="red" stroke="red" stroke-width="0.69" points="567.56,-36.58 558.76,-30.68 561.96,-40.78 567.56,-36.58"/>
</g>
<!-- &#45;22 -->
<g id="node22" class="node">
<title>&#45;22</title>
<polygon fill="lightgray" stroke="black" points="1421.75,-90.61 1393.75,-90.61 1393.75,-71.36 1421.75,-71.36 1421.75,-90.61"/>
<text text-anchor="middle" x="1407.75" y="-78.06" font-family="Times New Roman,serif" font-size="9.00">&#45;22</text>
</g>
<!-- &#45;22&#45;&gt;9 -->
<g id="edge28" class="edge">
<title>&#45;22&#45;&gt;9</title>
<path fill="none" stroke="green" stroke-width="0.36" d="M1393.69,-72.22C1374.69,-61.72 1340.62,-42.9 1318.35,-30.61"/>
<polygon fill="green" stroke="green" stroke-width="0.36" points="1320.25,-27.66 1309.8,-25.89 1316.86,-33.78 1320.25,-27.66"/>
</g>
<!-- &#45;23 -->
<g id="node23" class="node">
<title>&#45;23</title>
<polygon fill="lightgray" stroke="black" points="379.75,-90.61 351.75,-90.61 351.75,-71.36 379.75,-71.36 379.75,-90.61"/>
<text text-anchor="middle" x="365.75" y="-78.06" font-family="Times New Roman,serif" font-size="9.00">&#45;23</text>
</g>
<!-- 2 -->
<g id="node36" class="node">
<title>2</title>
<ellipse fill="lightblue" stroke="black" cx="386.75" cy="-17.68" rx="14.5" ry="14.5"/>
<text text-anchor="middle" x="386.75" y="-14.75" font-family="Times New Roman,serif" font-size="9.00">2</text>
</g>
<!-- &#45;23&#45;&gt;2 -->
<g id="edge47" class="edge">
<title>&#45;23&#45;&gt;2</title>
<path fill="none" stroke="red" stroke-width="0.47" d="M368.85,-70.93C371.49,-63.22 375.4,-51.8 378.9,-41.6"/>
<polygon fill="red" stroke="red" stroke-width="0.47" points="382.16,-42.88 382.09,-32.28 375.54,-40.61 382.16,-42.88"/>
</g>
<!-- &#45;23&#45;&gt;6 -->
<g id="edge61" class="edge">
<title>&#45;23&#45;&gt;6</title>
<path fill="none" stroke="green" stroke-width="0.5" d="M353.17,-71.13C340.43,-62.16 320.18,-47.85 302.75,-35.36 301.67,-34.58 300.56,-33.78 299.44,-32.98"/>
<polygon fill="green" stroke="green" stroke-width="0.5" points="301.73,-30.31 291.58,-27.29 297.63,-35.99 301.73,-30.31"/>
</g>
<!-- &#45;24 -->
<g id="node24" class="node">
<title>&#45;24</title>
<polygon fill="lightgray" stroke="black" points="153.75,-90.61 125.75,-90.61 125.75,-71.36 153.75,-71.36 153.75,-90.61"/>
<text text-anchor="middle" x="139.75" y="-78.06" font-family="Times New Roman,serif" font-size="9.00">&#45;24</text>
</g>
<!-- &#45;24&#45;&gt;6 -->
<g id="edge77" class="edge">
<title>&#45;24&#45;&gt;6</title>
<path fill="none" stroke="green" stroke-width="0.13" d="M154.19,-74.53C184.22,-63.18 251.03,-37.86 255.75,-35.36 257.23,-34.57 258.73,-33.71 260.21,-32.81"/>
<polygon fill="green" stroke="green" stroke-width="0.13" points="261.82,-35.95 268.23,-27.51 257.96,-30.11 261.82,-35.95"/>
</g>
<!-- &#45;24&#45;&gt;8 -->
<g id="edge18" class="edge">
<title>&#45;24&#45;&gt;8</title>
<path fill="none" stroke="red" stroke-width="0.34" stroke-dasharray="1,5" d="M154.11,-70.89C168.13,-61.97 190.03,-47.91 208.75,-35.36 210.01,-34.51 211.31,-33.63 212.62,-32.74"/>
<polygon fill="red" stroke="red" stroke-width="0.34" points="214.42,-35.75 220.66,-27.19 210.45,-29.99 214.42,-35.75"/>
</g>
<!-- &#45;24&#45;&gt;12 -->
<g id="edge81" class="edge">
<title>&#45;24&#45;&gt;12</title>
<path fill="none" stroke="green" stroke-width="0.33" d="M153.78,-74.45C156.72,-73.36 159.82,-72.28 162.75,-71.36 224.03,-52.05 243.64,-60.52 302.75,-35.36 303.95,-34.85 305.15,-34.29 306.36,-33.7"/>
<polygon fill="green" stroke="green" stroke-width="0.33" points="307.87,-36.86 314.9,-28.93 304.46,-30.75 307.87,-36.86"/>
</g>
<!-- &#45;25 -->
<g id="node25" class="node">
<title>&#45;25</title>
<polygon fill="lightgray" stroke="black" points="655.75,-90.61 627.75,-90.61 627.75,-71.36 655.75,-71.36 655.75,-90.61"/>
<text text-anchor="middle" x="641.75" y="-78.06" font-family="Times New Roman,serif" font-size="9.00">&#45;25</text>
</g>
<!-- &#45;25&#45;&gt;5 -->
<g id="edge37" class="edge">
<title>&#45;25&#45;&gt;5</title>
<path fill="none" stroke="green" stroke-width="0.34" d="M648.24,-70.93C654.43,-62.32 663.95,-49.06 671.84,-38.05"/>
<polygon fill="green" stroke="green" stroke-width="0.34" points="674.45,-40.42 677.44,-30.26 668.77,-36.34 674.45,-40.42"/>
</g>
<!-- &#45;25&#45;&gt;8 -->
<g id="edge75" class="edge">
<title>&#45;25&#45;&gt;8</title>
<path fill="none" stroke="green" stroke-width="0.14" d="M627.33,-73.92C624.52,-72.93 621.57,-72.01 618.75,-71.36 461.29,-34.66 408.45,-91.28 256.75,-35.36 255.11,-34.75 253.48,-34.01 251.89,-33.18"/>
<polygon fill="green" stroke="green" stroke-width="0.14" points="253.82,-30.26 243.5,-27.87 250.08,-36.17 253.82,-30.26"/>
</g>
<!-- &#45;25&#45;&gt;13 -->
<g id="edge23" class="edge">
<title>&#45;25&#45;&gt;13</title>
<path fill="none" stroke="red" stroke-width="0.34" d="M656.24,-74.32C682.79,-63.95 739.59,-41.78 772.9,-28.77"/>
<polygon fill="red" stroke="red" stroke-width="0.34" points="773.91,-32.13 781.96,-25.24 771.37,-25.61 773.91,-32.13"/>
</g>
<!-- &#45;26 -->
<g id="node26" class="node">
<title>&#45;26</title>
<polygon fill="lightgray" stroke="black" points="333.75,-90.61 305.75,-90.61 305.75,-71.36 333.75,-71.36 333.75,-90.61"/>
<text text-anchor="middle" x="319.75" y="-78.06" font-family="Times New Roman,serif" font-size="9.00">&#45;26</text>
</g>
<!-- &#45;26&#45;&gt;12 -->
<g id="edge43" class="edge">
<title>&#45;26&#45;&gt;12</title>
<path fill="none" stroke="red" stroke-width="0.28" d="M321.23,-70.93C322.32,-64.23 323.87,-54.72 325.35,-45.65"/>
<polygon fill="red" stroke="red" stroke-width="0.28" points="328.8,-46.26 326.95,-35.82 321.89,-45.13 328.8,-46.26"/>
</g>
<!-- &#45;27 -->
<g id="node27" class="node">
<title>&#45;27</title>
<polygon fill="lightgray" stroke="black" points="969.75,-90.61 941.75,-90.61 941.75,-71.36 969.75,-71.36 969.75,-90.61"/>
<text text-anchor="middle" x="955.75" y="-78.06" font-family="Times New Roman,serif" font-size="9.00">&#45;27</text>
</g>
<!-- &#45;27&#45;&gt;1 -->
<g id="edge11" class="edge">
<title>&#45;27&#45;&gt;1</title>
<path fill="none" stroke="green" stroke-width="0.13" d="M959.14,-70.93C962.1,-63.06 966.51,-51.31 970.39,-40.95"/>
<polygon fill="green" stroke="green" stroke-width="0.13" points="973.59,-42.39 973.83,-31.8 967.04,-39.93 973.59,-42.39"/>
</g>
<!-- &#45;27&#45;&gt;4 -->
<g id="edge48" class="edge">
<title>&#45;27&#45;&gt;4</title>
<path fill="none" stroke="green" stroke-width="0.14" stroke-dasharray="1,5" d="M969.82,-74.58C972.76,-73.49 975.85,-72.36 978.75,-71.36 1028.13,-54.17 1044.11,-59 1090.75,-35.36 1092.07,-34.69 1093.4,-33.94 1094.71,-33.16"/>
<polygon fill="green" stroke="green" stroke-width="0.14" points="1096.48,-36.19 1102.8,-27.69 1092.56,-30.39 1096.48,-36.19"/>
</g>
<!-- &#45;27&#45;&gt;5 -->
<g id="edge12" class="edge">
<title>&#45;27&#45;&gt;5</title>
<path fill="none" stroke="red" stroke-width="0.68" stroke-dasharray="1,5" d="M941.26,-74.17C938.46,-73.16 935.53,-72.17 932.75,-71.36 890.9,-59.12 764.97,-34.1 710.88,-23.54"/>
<polygon fill="red" stroke="red" stroke-width="0.68" points="711.7,-20.14 701.21,-21.66 710.36,-27.01 711.7,-20.14"/>
</g>
<!-- &#45;27&#45;&gt;12 -->
<g id="edge59" class="edge">
<title>&#45;27&#45;&gt;12</title>
<path fill="none" stroke="red" stroke-width="0.32" d="M941.34,-73.84C938.54,-72.86 935.59,-71.96 932.75,-71.36 684.97,-18.29 608.65,-100.4 363.75,-35.36 360.61,-34.52 357.42,-33.39 354.31,-32.1"/>
<polygon fill="red" stroke="red" stroke-width="0.32" points="355.8,-28.94 345.26,-27.86 352.83,-35.28 355.8,-28.94"/>
</g>
<!-- &#45;27&#45;&gt;13 -->
<g id="edge67" class="edge">
<title>&#45;27&#45;&gt;13</title>
<path fill="none" stroke="red" stroke-width="0.36" d="M941.26,-74.32C914.71,-63.95 857.91,-41.78 824.6,-28.77"/>
<polygon fill="red" stroke="red" stroke-width="0.36" points="826.17,-25.63 815.58,-25.25 823.62,-32.15 826.17,-25.63"/>
</g>
<!-- &#45;28 -->
<g id="node28" class="node">
<title>&#45;28</title>
<polygon fill="lightgray" stroke="black" points="1107.75,-90.61 1079.75,-90.61 1079.75,-71.36 1107.75,-71.36 1107.75,-90.61"/>
<text text-anchor="middle" x="1093.75" y="-78.06" font-family="Times New Roman,serif" font-size="9.00">&#45;28</text>
</g>
<!-- &#45;28&#45;&gt;0 -->
<g id="edge3" class="edge">
<title>&#45;28&#45;&gt;0</title>
<path fill="none" stroke="green" stroke-width="0.85" d="M1106.73,-70.93C1121.04,-60.97 1144.25,-44.8 1161.07,-33.08"/>
<polygon fill="green" stroke="green" stroke-width="0.85" points="1162.86,-36.1 1169.07,-27.51 1158.86,-30.36 1162.86,-36.1"/>
</g>
<!-- &#45;28&#45;&gt;3 -->
<g id="edge78" class="edge">
<title>&#45;28&#45;&gt;3</title>
<path fill="none" stroke="red" stroke-width="0.38" d="M1079.35,-73.79C1076.55,-72.81 1073.59,-71.93 1070.75,-71.36 883.08,-33.26 391.25,-96.42 209.75,-35.36 208.1,-34.8 206.46,-34.09 204.85,-33.28"/>
<polygon fill="red" stroke="red" stroke-width="0.38" points="207.08,-30.55 196.75,-28.21 203.37,-36.48 207.08,-30.55"/>
</g>
<!-- &#45;28&#45;&gt;4 -->
<g id="edge56" class="edge">
<title>&#45;28&#45;&gt;4</title>
<path fill="none" stroke="red" stroke-width="0.43" d="M1096.7,-70.93C1099.22,-63.22 1102.94,-51.8 1106.27,-41.6"/>
<polygon fill="red" stroke="red" stroke-width="0.43" points="1109.55,-42.82 1109.33,-32.23 1102.9,-40.65 1109.55,-42.82"/>
</g>
<!-- &#45;29 -->
<g id="node29" class="node">
<title>&#45;29</title>
<polygon fill="lightgray" stroke="black" points="1287.75,-90.61 1259.75,-90.61 1259.75,-71.36 1287.75,-71.36 1287.75,-90.61"/>
<text text-anchor="middle" x="1273.75" y="-78.06" font-family="Times New Roman,serif" font-size="9.00">&#45;29</text>
</g>
<!-- &#45;29&#45;&gt;9 -->
<g id="edge35" class="edge">
<title>&#45;29&#45;&gt;9</title>
<path fill="none" stroke="green" stroke-width="0.27" stroke-dasharray="1,5" d="M1277.14,-70.93C1280.07,-63.14 1284.41,-51.56 1288.27,-41.27"/>
<polygon fill="green" stroke="green" stroke-width="0.27" points="1291.52,-42.58 1291.76,-31.99 1284.97,-40.12 1291.52,-42.58"/>
</g>
<!-- &#45;29&#45;&gt;13 -->
<g id="edge55" class="edge">
<title>&#45;29&#45;&gt;13</title>
<path fill="none" stroke="green" stroke-width="1.42" d="M1259.32,-73.96C1256.51,-72.97 1253.57,-72.04 1250.75,-71.36 1230.13,-66.37 925.74,-32.65 828.43,-21.94"/>
<polygon fill="green" stroke="green" stroke-width="1.42" points="829.08,-18.49 818.75,-20.87 828.31,-25.44 829.08,-18.49"/>
</g>
<!-- &#45;30 -->
<g id="node30" class="node">
<title>&#45;30</title>
<polygon fill="lightgray" stroke="black" points="789.75,-90.61 761.75,-90.61 761.75,-71.36 789.75,-71.36 789.75,-90.61"/>
<text text-anchor="middle" x="775.75" y="-78.06" font-family="Times New Roman,serif" font-size="9.00">&#45;30</text>
</g>
<!-- &#45;30&#45;&gt;2 -->
<g id="edge36" class="edge">
<title>&#45;30&#45;&gt;2</title>
<path fill="none" stroke="green" stroke-width="0.4" d="M761.32,-73.95C758.52,-72.95 755.57,-72.03 752.75,-71.36 609.66,-37.27 565.66,-74.06 423.75,-35.36 418.75,-33.99 413.56,-32.03 408.71,-29.93"/>
<polygon fill="green" stroke="green" stroke-width="0.4" points="410.49,-26.9 399.95,-25.83 407.52,-33.24 410.49,-26.9"/>
</g>
<!-- &#45;30&#45;&gt;5 -->
<g id="edge32" class="edge">
<title>&#45;30&#45;&gt;5</title>
<path fill="none" stroke="green" stroke-width="0.12" d="M762.47,-70.93C747.56,-60.78 723.21,-44.19 705.94,-32.43"/>
<polygon fill="green" stroke="green" stroke-width="0.12" points="708.04,-29.62 697.8,-26.89 704.09,-35.41 708.04,-29.62"/>
</g>
<!-- &#45;30&#45;&gt;13 -->
<g id="edge24" class="edge">
<title>&#45;30&#45;&gt;13</title>
<path fill="none" stroke="red" stroke-width="0.62" d="M779.14,-70.93C781.76,-63.97 785.51,-53.96 789.03,-44.57"/>
<polygon fill="red" stroke="red" stroke-width="0.62" points="792.28,-45.9 792.51,-35.31 785.72,-43.44 792.28,-45.9"/>
</g>
<!-- &#45;31 -->
<g id="node31" class="node">
<title>&#45;31</title>
<polygon fill="lightgray" stroke="black" points="835.75,-90.61 807.75,-90.61 807.75,-71.36 835.75,-71.36 835.75,-90.61"/>
<text text-anchor="middle" x="821.75" y="-78.06" font-family="Times New Roman,serif" font-size="9.00">&#45;31</text>
</g>
<!-- &#45;31&#45;&gt;1 -->
<g id="edge62" class="edge">
<title>&#45;31&#45;&gt;1</title>
<path fill="none" stroke="red" stroke-width="0.12" d="M836.24,-74.32C863.62,-63.63 923.15,-40.39 955.94,-27.58"/>
<polygon fill="red" stroke="red" stroke-width="0.12" points="956.98,-30.93 965.02,-24.04 954.44,-24.41 956.98,-30.93"/>
</g>
<!-- &#45;31&#45;&gt;7 -->
<g id="edge34" class="edge">
<title>&#45;31&#45;&gt;7</title>
<path fill="none" stroke="red" stroke-width="0.73" d="M807.26,-74.17C804.46,-73.16 801.53,-72.17 798.75,-71.36 718.34,-47.92 620.49,-30.31 575.11,-22.74"/>
<polygon fill="red" stroke="red" stroke-width="0.73" points="575.78,-19.31 565.35,-21.14 574.65,-26.21 575.78,-19.31"/>
</g>
<!-- &#45;31&#45;&gt;10 -->
<g id="edge66" class="edge">
<title>&#45;31&#45;&gt;10</title>
<path fill="none" stroke="green" stroke-width="0.76" d="M807.31,-74C804.5,-73 801.56,-72.06 798.75,-71.36 680.45,-41.76 646.86,-56.44 526.75,-35.36 510.69,-32.54 492.87,-28.67 478.53,-25.36"/>
<polygon fill="green" stroke="green" stroke-width="0.76" points="479.53,-22 469,-23.13 477.93,-28.82 479.53,-22"/>
</g>
<!-- &#45;31&#45;&gt;13 -->
<g id="edge71" class="edge">
<title>&#45;31&#45;&gt;13</title>
<path fill="none" stroke="green" stroke-width="0.22" d="M818.36,-70.93C815.69,-63.82 811.83,-53.53 808.24,-43.97"/>
<polygon fill="green" stroke="green" stroke-width="0.22" points="811.57,-42.88 804.78,-34.74 805.01,-45.34 811.57,-42.88"/>
</g>
<!-- &#45;32 -->
<g id="node32" class="node">
<title>&#45;32</title>
<polygon fill="lightgray" stroke="black" points="199.75,-90.61 171.75,-90.61 171.75,-71.36 199.75,-71.36 199.75,-90.61"/>
<text text-anchor="middle" x="185.75" y="-78.06" font-family="Times New Roman,serif" font-size="9.00">&#45;32</text>
</g>
<!-- &#45;32&#45;&gt;3 -->
<g id="edge84" class="edge">
<title>&#45;32&#45;&gt;3</title>
<path fill="none" stroke="red" stroke-width="0.24" d="M185.75,-70.93C185.75,-63.5 185.75,-52.61 185.75,-42.7"/>
<polygon fill="red" stroke="red" stroke-width="0.24" points="189.25,-42.9 185.75,-32.9 182.25,-42.9 189.25,-42.9"/>
</g>
<!-- &#45;32&#45;&gt;6 -->
<g id="edge19" class="edge">
<title>&#45;32&#45;&gt;6</title>
<path fill="none" stroke="green" stroke-width="0.26" stroke-dasharray="1,5" d="M200.07,-71.09C214.29,-62.19 236.68,-48.06 255.75,-35.36 257.02,-34.51 258.32,-33.64 259.62,-32.75"/>
<polygon fill="green" stroke="green" stroke-width="0.26" points="261.52,-35.69 267.77,-27.14 257.55,-29.93 261.52,-35.69"/>
</g>
<!-- &#45;32&#45;&gt;8 -->
<g id="edge58" class="edge">
<title>&#45;32&#45;&gt;8</title>
<path fill="none" stroke="green" stroke-width="0.58" d="M192.69,-70.93C199.23,-62.4 209.26,-49.32 217.64,-38.38"/>
<polygon fill="green" stroke="green" stroke-width="0.58" points="220.35,-40.61 223.66,-30.54 214.79,-36.35 220.35,-40.61"/>
</g>
<!-- &#45;32&#45;&gt;12 -->
<g id="edge76" class="edge">
<title>&#45;32&#45;&gt;12</title>
<path fill="none" stroke="red" stroke-width="0.25" d="M199.85,-74.68C229.89,-63.39 297.9,-37.75 302.75,-35.36 303.92,-34.78 305.1,-34.17 306.28,-33.53"/>
<polygon fill="red" stroke="red" stroke-width="0.25" points="307.96,-36.6 314.86,-28.56 304.45,-30.55 307.96,-36.6"/>
</g>
<!-- &#45;32&#45;&gt;13 -->
<g id="edge4" class="edge">
<title>&#45;32&#45;&gt;13</title>
<path fill="none" stroke="red" stroke-width="0.28" d="M200.16,-73.85C202.97,-72.87 205.92,-71.97 208.75,-71.36 434.26,-22.33 498.51,-69.5 726.75,-35.36 741.77,-33.11 758.29,-29.37 771.72,-26.01"/>
<polygon fill="red" stroke="red" stroke-width="0.28" points="772.52,-29.42 781.33,-23.53 770.77,-22.64 772.52,-29.42"/>
</g>
<!-- &#45;33 -->
<g id="node33" class="node">
<title>&#45;33</title>
<polygon fill="lightgray" stroke="black" points="1195.75,-90.61 1167.75,-90.61 1167.75,-71.36 1195.75,-71.36 1195.75,-90.61"/>
<text text-anchor="middle" x="1181.75" y="-78.06" font-family="Times New Roman,serif" font-size="9.00">&#45;33</text>
</g>
<!-- &#45;33&#45;&gt;0 -->
<g id="edge15" class="edge">
<title>&#45;33&#45;&gt;0</title>
<path fill="none" stroke="green" stroke-width="0.79" stroke-dasharray="1,5" d="M1181.75,-70.93C1181.75,-63.74 1181.75,-53.3 1181.75,-43.65"/>
<polygon fill="green" stroke="green" stroke-width="0.79" points="1185.25,-43.72 1181.75,-33.72 1178.25,-43.72 1185.25,-43.72"/>
</g>
<!-- &#45;33&#45;&gt;4 -->
<g id="edge1" class="edge">
<title>&#45;33&#45;&gt;4</title>
<path fill="none" stroke="red" stroke-width="0.49" d="M1171.72,-70.93C1161.29,-61.54 1144.75,-46.62 1132,-35.13"/>
<polygon fill="red" stroke="red" stroke-width="0.49" points="1134.59,-32.75 1124.82,-28.66 1129.9,-37.95 1134.59,-32.75"/>
</g>
<!-- &#45;33&#45;&gt;11 -->
<g id="edge21" class="edge">
<title>&#45;33&#45;&gt;11</title>
<path fill="none" stroke="red" stroke-width="0.52" d="M1167.34,-73.45C1149.21,-65.1 1117.24,-49.99 1090.75,-35.36 1089.74,-34.8 1088.71,-34.22 1087.67,-33.62"/>
<polygon fill="red" stroke="red" stroke-width="0.52" points="1089.51,-30.64 1079.13,-28.52 1085.92,-36.65 1089.51,-30.64"/>
</g>
<!-- &#45;33&#45;&gt;13 -->
<g id="edge17" class="edge">
<title>&#45;33&#45;&gt;13</title>
<path fill="none" stroke="green" stroke-width="0.83" d="M1167.3,-74.03C1164.5,-73.03 1161.56,-72.08 1158.75,-71.36 1095.75,-55.13 901.07,-30.91 827.39,-22.07"/>
<polygon fill="green" stroke="green" stroke-width="0.83" points="828.24,-18.64 817.9,-20.93 827.41,-25.59 828.24,-18.64"/>
</g>
<!-- 5&#45;&gt;5 -->
<g id="edge63" class="edge">
<title>5&#45;&gt;5</title>
<path fill="none" stroke="green" stroke-width="0.34" stroke-dasharray="1,5" d="M697.07,-27.43C707.3,-32.18 718.25,-28.93 718.25,-17.68 718.25,-10.12 713.3,-6.17 706.96,-5.83"/>
<polygon fill="green" stroke="green" stroke-width="0.34" points="706.63,-2.32 697.57,-7.82 708.08,-9.17 706.63,-2.32"/>
</g>
<!-- 9&#45;&gt;9 -->
<g id="edge64" class="edge">
<title>9&#45;&gt;9</title>
<path fill="none" stroke="green" stroke-width="0.28" stroke-dasharray="1,5" d="M1308.07,-27.43C1318.3,-32.18 1329.25,-28.93 1329.25,-17.68 1329.25,-10.12 1324.3,-6.17 1317.96,-5.83"/>
<polygon fill="green" stroke="green" stroke-width="0.28" points="1317.56,-2.34 1308.5,-7.83 1319,-9.19 1317.56,-2.34"/>
</g>
</g>
</svg>
