<?xml version="1.0" encoding="UTF-8" standalone="no"?>
<!DOCTYPE svg PUBLIC "-//W3C//DTD SVG 1.1//EN"
 "http://www.w3.org/Graphics/SVG/1.1/DTD/svg11.dtd">
<!-- Generated by graphviz version 9.0.0 (20230911.1827)
 -->
<!-- Pages: 1 -->
<svg width="201pt" height="217pt"
 viewBox="0.00 0.00 200.86 216.63" xmlns="http://www.w3.org/2000/svg" xmlns:xlink="http://www.w3.org/1999/xlink">
<g id="graph0" class="graph" transform="scale(1 1) rotate(0) translate(4 212.63)">
<polygon fill="white" stroke="none" points="-4,4 -4,-212.63 196.86,-212.63 196.86,4 -4,4"/>
<!-- A -->
<g id="node1" class="node">
<title>A</title>
<polygon fill="lightgray" stroke="black" points="50.23,-208.63 27.48,-208.63 27.48,-189.38 50.23,-189.38 50.23,-208.63"/>
<text text-anchor="middle" x="38.86" y="-196.08" font-family="Times New Roman,serif" font-size="9.00">A</text>
</g>
<!-- 665 -->
<g id="node6" class="node">
<title>665</title>
<ellipse fill="white" stroke="black" cx="20.86" cy="-20.86" rx="20.86" ry="20.86"/>
<text text-anchor="middle" x="20.86" y="-17.93" font-family="Times New Roman,serif" font-size="9.00">665</text>
</g>
<!-- A&#45;&gt;665 -->
<g id="edge4" class="edge">
<title>A&#45;&gt;665</title>
<path fill="none" stroke="green" stroke-width="0.44" stroke-dasharray="1,5" d="M32.54,-188.95C26.9,-180.27 19.06,-166.59 15.86,-153.38 7.62,-119.42 11.01,-79.1 15.08,-52.14"/>
<polygon fill="green" stroke="green" stroke-width="0.44" points="18.5,-52.9 16.66,-42.46 11.59,-51.77 18.5,-52.9"/>
</g>
<!-- 746 -->
<g id="node7" class="node">
<title>746</title>
<ellipse fill="white" stroke="black" cx="45.86" cy="-115.55" rx="20.86" ry="20.86"/>
<text text-anchor="middle" x="45.86" y="-112.62" font-family="Times New Roman,serif" font-size="9.00">746</text>
</g>
<!-- A&#45;&gt;746 -->
<g id="edge5" class="edge">
<title>A&#45;&gt;746</title>
<path fill="none" stroke="green" stroke-width="0.27" d="M39.64,-188.98C40.51,-178.81 41.97,-161.76 43.26,-146.75"/>
<polygon fill="green" stroke="green" stroke-width="0.27" points="46.72,-147.46 44.09,-137.2 39.74,-146.86 46.72,-147.46"/>
</g>
<!-- B -->
<g id="node2" class="node">
<title>B</title>
<polygon fill="lightgray" stroke="black" points="112.86,-208.63 90.86,-208.63 90.86,-189.38 112.86,-189.38 112.86,-208.63"/>
<text text-anchor="middle" x="101.86" y="-196.08" font-family="Times New Roman,serif" font-size="9.00">B</text>
</g>
<!-- OUTPUT -->
<g id="node5" class="node">
<title>OUTPUT</title>
<ellipse fill="lightblue" stroke="black" cx="135.86" cy="-115.55" rx="37.83" ry="37.83"/>
<text text-anchor="middle" x="135.86" y="-112.62" font-family="Times New Roman,serif" font-size="9.00">OUTPUT</text>
</g>
<!-- B&#45;&gt;OUTPUT -->
<g id="edge1" class="edge">
<title>B&#45;&gt;OUTPUT</title>
<path fill="none" stroke="green" stroke-width="0.29" d="M105.63,-188.98C108.62,-181.8 113.05,-171.19 117.6,-160.29"/>
<polygon fill="green" stroke="green" stroke-width="0.29" points="120.81,-161.69 121.43,-151.11 114.35,-158.99 120.81,-161.69"/>
</g>
<!-- C -->
<g id="node3" class="node">
<title>C</title>
<polygon fill="lightgray" stroke="black" points="192.86,-208.63 170.86,-208.63 170.86,-189.38 192.86,-189.38 192.86,-208.63"/>
<text text-anchor="middle" x="181.86" y="-196.08" font-family="Times New Roman,serif" font-size="9.00">C</text>
</g>
<!-- D -->
<g id="node4" class="node">
<title>D</title>
<polygon fill="lightgray" stroke="black" points="153.23,-208.63 130.48,-208.63 130.48,-189.38 153.23,-189.38 153.23,-208.63"/>
<text text-anchor="middle" x="141.86" y="-196.08" font-family="Times New Roman,serif" font-size="9.00">D</text>
</g>
<!-- D&#45;&gt;OUTPUT -->
<g id="edge2" class="edge">
<title>D&#45;&gt;OUTPUT</title>
<path fill="none" stroke="red" stroke-width="0.32" d="M141.19,-188.98C140.73,-182.65 140.07,-173.65 139.37,-164.14"/>
<polygon fill="red" stroke="red" stroke-width="0.32" points="142.86,-163.92 138.63,-154.2 135.88,-164.43 142.86,-163.92"/>
</g>
<!-- OUTPUT&#45;&gt;OUTPUT -->
<g id="edge3" class="edge">
<title>OUTPUT&#45;&gt;OUTPUT</title>
<path fill="none" stroke="green" stroke-width="0.82" d="M170.75,-131.2C182.38,-131.2 191.69,-125.98 191.69,-115.55 191.69,-108.7 187.68,-104.1 181.64,-101.75"/>
<polygon fill="green" stroke="green" stroke-width="0.82" points="182.42,-98.33 171.97,-100.11 181.24,-105.23 182.42,-98.33"/>
</g>
<!-- 746&#45;&gt;665 -->
<g id="edge6" class="edge">
<title>746&#45;&gt;665</title>
<path fill="none" stroke="red" stroke-width="0.24" d="M40.56,-94.89C37.14,-82.23 32.64,-65.55 28.81,-51.32"/>
<polygon fill="red" stroke="red" stroke-width="0.24" points="32.23,-50.58 26.25,-41.83 25.47,-52.4 32.23,-50.58"/>
</g>
</g>
</svg>
