<?xml version="1.0" encoding="UTF-8" standalone="no"?>
<!DOCTYPE svg PUBLIC "-//W3C//DTD SVG 1.1//EN"
 "http://www.w3.org/Graphics/SVG/1.1/DTD/svg11.dtd">
<!-- Generated by graphviz version 9.0.0 (20230911.1827)
 -->
<!-- Pages: 1 -->
<svg width="217pt" height="372pt"
 viewBox="0.00 0.00 216.72 372.07" xmlns="http://www.w3.org/2000/svg" xmlns:xlink="http://www.w3.org/1999/xlink">
<g id="graph0" class="graph" transform="scale(1 1) rotate(0) translate(4 368.07)">
<polygon fill="white" stroke="none" points="-4,4 -4,-368.07 212.72,-368.07 212.72,4 -4,4"/>
<!-- A -->
<g id="node1" class="node">
<title>A</title>
<polygon fill="lightgray" stroke="black" points="32.23,-364.07 9.48,-364.07 9.48,-344.82 32.23,-344.82 32.23,-364.07"/>
<text text-anchor="middle" x="20.86" y="-351.52" font-family="Times New Roman,serif" font-size="9.00">A</text>
</g>
<!-- 664 -->
<g id="node9" class="node">
<title>664</title>
<ellipse fill="white" stroke="black" cx="20.86" cy="-287.96" rx="20.86" ry="20.86"/>
<text text-anchor="middle" x="20.86" y="-285.03" font-family="Times New Roman,serif" font-size="9.00">664</text>
</g>
<!-- A&#45;&gt;664 -->
<g id="edge11" class="edge">
<title>A&#45;&gt;664</title>
<path fill="none" stroke="red" stroke-width="0.31" d="M20.86,-344.48C20.86,-337.96 20.86,-328.73 20.86,-319.66"/>
<polygon fill="red" stroke="red" stroke-width="0.31" points="24.36,-319.73 20.86,-309.73 17.36,-319.73 24.36,-319.73"/>
</g>
<!-- B -->
<g id="node2" class="node">
<title>B</title>
<polygon fill="lightgray" stroke="black" points="110.86,-142.15 88.86,-142.15 88.86,-122.9 110.86,-122.9 110.86,-142.15"/>
<text text-anchor="middle" x="99.86" y="-129.6" font-family="Times New Roman,serif" font-size="9.00">B</text>
</g>
<!-- OUTPUT -->
<g id="node5" class="node">
<title>OUTPUT</title>
<ellipse fill="lightblue" stroke="black" cx="74.86" cy="-37.83" rx="37.83" ry="37.83"/>
<text text-anchor="middle" x="74.86" y="-34.91" font-family="Times New Roman,serif" font-size="9.00">OUTPUT</text>
</g>
<!-- B&#45;&gt;OUTPUT -->
<g id="edge1" class="edge">
<title>B&#45;&gt;OUTPUT</title>
<path fill="none" stroke="red" stroke-width="0.34" stroke-dasharray="1,5" d="M97.46,-122.63C95.04,-113.65 91.1,-99.06 87.19,-84.55"/>
<polygon fill="red" stroke="red" stroke-width="0.34" points="90.62,-83.83 84.64,-75.09 83.86,-85.66 90.62,-83.83"/>
</g>
<!-- C -->
<g id="node3" class="node">
<title>C</title>
<polygon fill="lightgray" stroke="black" points="80.86,-364.07 58.86,-364.07 58.86,-344.82 80.86,-344.82 80.86,-364.07"/>
<text text-anchor="middle" x="69.86" y="-351.52" font-family="Times New Roman,serif" font-size="9.00">C</text>
</g>
<!-- C&#45;&gt;OUTPUT -->
<g id="edge2" class="edge">
<title>C&#45;&gt;OUTPUT</title>
<path fill="none" stroke="red" stroke-width="0.82" d="M74.76,-344.55C91.68,-312.65 145.27,-201.14 119.86,-111.66 116.5,-99.84 110.62,-88.05 104.19,-77.52"/>
<polygon fill="red" stroke="red" stroke-width="0.82" points="107.23,-75.77 98.87,-69.27 101.35,-79.57 107.23,-75.77"/>
</g>
<!-- 329 -->
<g id="node6" class="node">
<title>329</title>
<ellipse fill="white" stroke="black" cx="20.86" cy="-210.24" rx="20.86" ry="20.86"/>
<text text-anchor="middle" x="20.86" y="-207.31" font-family="Times New Roman,serif" font-size="9.00">329</text>
</g>
<!-- C&#45;&gt;329 -->
<g id="edge4" class="edge">
<title>C&#45;&gt;329</title>
<path fill="none" stroke="green" stroke-width="0.2" d="M68.71,-344.39C66.49,-328.4 60.94,-294.3 50.86,-267.1 47.07,-256.88 41.73,-246.21 36.6,-236.97"/>
<polygon fill="green" stroke="green" stroke-width="0.2" points="39.77,-235.46 31.75,-228.53 33.7,-238.94 39.77,-235.46"/>
</g>
<!-- C&#45;&gt;664 -->
<g id="edge7" class="edge">
<title>C&#45;&gt;664</title>
<path fill="none" stroke="green" stroke-width="0.74" d="M63.05,-344.48C57.05,-336.58 48.02,-324.7 39.85,-313.95"/>
<polygon fill="green" stroke="green" stroke-width="0.74" points="42.79,-312.04 33.96,-306.19 37.22,-316.27 42.79,-312.04"/>
</g>
<!-- D -->
<g id="node4" class="node">
<title>D</title>
<polygon fill="lightgray" stroke="black" points="121.23,-364.07 98.48,-364.07 98.48,-344.82 121.23,-344.82 121.23,-364.07"/>
<text text-anchor="middle" x="109.86" y="-351.52" font-family="Times New Roman,serif" font-size="9.00">D</text>
</g>
<!-- OUTPUT&#45;&gt;329 -->
<g id="edge6" class="edge">
<title>OUTPUT&#45;&gt;329</title>
<path fill="none" stroke="red" stroke-width="0.33" d="M53.38,-69.2C43.96,-81.37 34.05,-96.19 28.86,-111.66 21.59,-133.35 22.27,-159.3 23.21,-178.98"/>
<polygon fill="red" stroke="red" stroke-width="0.33" points="19.7,-178.9 23.69,-188.71 26.69,-178.55 19.7,-178.9"/>
</g>
<!-- 329&#45;&gt;OUTPUT -->
<g id="edge5" class="edge">
<title>329&#45;&gt;OUTPUT</title>
<path fill="none" stroke="red" stroke-width="0.54" d="M10.82,-191.79C5.03,-171.84 1.87,-138.49 10.86,-111.66 16.15,-95.89 26.35,-80.8 37.17,-68.49"/>
<polygon fill="red" stroke="red" stroke-width="0.54" points="39.5,-71.12 43.76,-61.42 34.38,-66.35 39.5,-71.12"/>
</g>
<!-- 790 -->
<g id="node8" class="node">
<title>790</title>
<ellipse fill="white" stroke="black" cx="49.86" cy="-132.52" rx="20.86" ry="20.86"/>
<text text-anchor="middle" x="49.86" y="-129.6" font-family="Times New Roman,serif" font-size="9.00">790</text>
</g>
<!-- 329&#45;&gt;790 -->
<g id="edge9" class="edge">
<title>329&#45;&gt;790</title>
<path fill="none" stroke="green" stroke-width="0.51" d="M28.03,-190.52C31.28,-182.03 35.2,-171.8 38.81,-162.36"/>
<polygon fill="green" stroke="green" stroke-width="0.51" points="41.99,-163.85 42.3,-153.26 35.45,-161.35 41.99,-163.85"/>
</g>
<!-- 300 -->
<g id="node7" class="node">
<title>300</title>
<ellipse fill="white" stroke="black" cx="187.86" cy="-132.52" rx="20.86" ry="20.86"/>
<text text-anchor="middle" x="187.86" y="-129.6" font-family="Times New Roman,serif" font-size="9.00">300</text>
</g>
<!-- 300&#45;&gt;OUTPUT -->
<g id="edge3" class="edge">
<title>300&#45;&gt;OUTPUT</title>
<path fill="none" stroke="red" stroke-width="0.15" stroke-dasharray="1,5" d="M172.15,-118.63C156.55,-105.84 132.08,-85.77 111.59,-68.95"/>
<polygon fill="red" stroke="red" stroke-width="0.15" points="114.08,-66.47 104.12,-62.83 109.64,-71.88 114.08,-66.47"/>
</g>
<!-- 790&#45;&gt;OUTPUT -->
<g id="edge10" class="edge">
<title>790&#45;&gt;OUTPUT</title>
<path fill="none" stroke="red" stroke-width="0.48" d="M55.16,-111.86C57.31,-103.9 59.89,-94.35 62.46,-84.81"/>
<polygon fill="red" stroke="red" stroke-width="0.48" points="65.81,-85.82 65.04,-75.25 59.05,-84 65.81,-85.82"/>
</g>
<!-- 664&#45;&gt;329 -->
<g id="edge8" class="edge">
<title>664&#45;&gt;329</title>
<path fill="none" stroke="green" stroke-width="1.16" d="M20.86,-266.67C20.86,-259.45 20.86,-251.14 20.86,-243.19"/>
<polygon fill="green" stroke="green" stroke-width="1.16" points="24.36,-243.35 20.86,-233.35 17.36,-243.35 24.36,-243.35"/>
</g>
</g>
</svg>
