<?xml version="1.0" encoding="UTF-8" standalone="no"?>
<!DOCTYPE svg PUBLIC "-//W3C//DTD SVG 1.1//EN"
 "http://www.w3.org/Graphics/SVG/1.1/DTD/svg11.dtd">
<!-- Generated by graphviz version 9.0.0 (20230911.1827)
 -->
<!-- Pages: 1 -->
<svg width="199pt" height="301pt"
 viewBox="0.00 0.00 199.21 300.71" xmlns="http://www.w3.org/2000/svg" xmlns:xlink="http://www.w3.org/1999/xlink">
<g id="graph0" class="graph" transform="scale(1 1) rotate(0) translate(4 296.71)">
<polygon fill="white" stroke="none" points="-4,4 -4,-296.71 195.21,-296.71 195.21,4 -4,4"/>
<!-- A -->
<g id="node1" class="node">
<title>A</title>
<polygon fill="lightgray" stroke="black" points="29.21,-292.71 6.46,-292.71 6.46,-273.46 29.21,-273.46 29.21,-292.71"/>
<text text-anchor="middle" x="17.83" y="-280.16" font-family="Times New Roman,serif" font-size="9.00">A</text>
</g>
<!-- OUTPUT -->
<g id="node5" class="node">
<title>OUTPUT</title>
<ellipse fill="lightblue" stroke="black" cx="37.83" cy="-199.63" rx="37.83" ry="37.83"/>
<text text-anchor="middle" x="37.83" y="-196.71" font-family="Times New Roman,serif" font-size="9.00">OUTPUT</text>
</g>
<!-- A&#45;&gt;OUTPUT -->
<g id="edge1" class="edge">
<title>A&#45;&gt;OUTPUT</title>
<path fill="none" stroke="red" stroke-width="0.51" d="M20.05,-273.06C21.66,-266.48 23.99,-257.01 26.42,-247.08"/>
<polygon fill="red" stroke="red" stroke-width="0.51" points="29.81,-247.97 28.8,-237.42 23.01,-246.3 29.81,-247.97"/>
</g>
<!-- B -->
<g id="node2" class="node">
<title>B</title>
<polygon fill="lightgray" stroke="black" points="68.83,-292.71 46.83,-292.71 46.83,-273.46 68.83,-273.46 68.83,-292.71"/>
<text text-anchor="middle" x="57.83" y="-280.16" font-family="Times New Roman,serif" font-size="9.00">B</text>
</g>
<!-- B&#45;&gt;OUTPUT -->
<g id="edge5" class="edge">
<title>B&#45;&gt;OUTPUT</title>
<path fill="none" stroke="green" stroke-width="0.36" d="M55.61,-273.06C53.98,-266.41 51.62,-256.81 49.16,-246.77"/>
<polygon fill="green" stroke="green" stroke-width="0.36" points="52.59,-246.07 46.81,-237.19 45.79,-247.74 52.59,-246.07"/>
</g>
<!-- C -->
<g id="node3" class="node">
<title>C</title>
<polygon fill="lightgray" stroke="black" points="150.83,-292.71 128.83,-292.71 128.83,-273.46 150.83,-273.46 150.83,-292.71"/>
<text text-anchor="middle" x="139.83" y="-280.16" font-family="Times New Roman,serif" font-size="9.00">C</text>
</g>
<!-- 38 -->
<g id="node6" class="node">
<title>38</title>
<ellipse fill="white" stroke="black" cx="139.83" cy="-199.63" rx="17.68" ry="17.68"/>
<text text-anchor="middle" x="139.83" y="-196.71" font-family="Times New Roman,serif" font-size="9.00">38</text>
</g>
<!-- C&#45;&gt;38 -->
<g id="edge2" class="edge">
<title>C&#45;&gt;38</title>
<path fill="none" stroke="green" stroke-width="0.71" d="M139.83,-273.06C139.83,-262.33 139.83,-243.91 139.83,-228.33"/>
<polygon fill="green" stroke="green" stroke-width="0.71" points="143.33,-228.72 139.83,-218.72 136.33,-228.72 143.33,-228.72"/>
</g>
<!-- D -->
<g id="node4" class="node">
<title>D</title>
<polygon fill="lightgray" stroke="black" points="191.21,-292.71 168.46,-292.71 168.46,-273.46 191.21,-273.46 191.21,-292.71"/>
<text text-anchor="middle" x="179.83" y="-280.16" font-family="Times New Roman,serif" font-size="9.00">D</text>
</g>
<!-- OUTPUT&#45;&gt;OUTPUT -->
<g id="edge3" class="edge">
<title>OUTPUT&#45;&gt;OUTPUT</title>
<path fill="none" stroke="green" stroke-width="0.93" d="M72.72,-215.28C84.36,-215.28 93.66,-210.06 93.66,-199.63 93.66,-192.79 89.65,-188.19 83.61,-185.83"/>
<polygon fill="green" stroke="green" stroke-width="0.93" points="84.56,-182.44 74.11,-184.22 83.38,-189.35 84.56,-182.44"/>
</g>
<!-- 911 -->
<g id="node8" class="node">
<title>911</title>
<ellipse fill="white" stroke="black" cx="26.83" cy="-104.94" rx="20.86" ry="20.86"/>
<text text-anchor="middle" x="26.83" y="-102.02" font-family="Times New Roman,serif" font-size="9.00">911</text>
</g>
<!-- OUTPUT&#45;&gt;911 -->
<g id="edge10" class="edge">
<title>OUTPUT&#45;&gt;911</title>
<path fill="none" stroke="green" stroke-width="0.39" d="M33.45,-161.73C32.45,-153.33 31.41,-144.5 30.45,-136.41"/>
<polygon fill="green" stroke="green" stroke-width="0.39" points="33.93,-136.04 29.27,-126.52 26.98,-136.86 33.93,-136.04"/>
</g>
<!-- 38&#45;&gt;38 -->
<g id="edge4" class="edge">
<title>38&#45;&gt;38</title>
<path fill="none" stroke="red" stroke-width="0.39" stroke-dasharray="1,5" d="M152.26,-212.5C163.49,-218.75 175.51,-214.47 175.51,-199.63 175.51,-189.2 169.56,-183.99 162.13,-183.98"/>
<polygon fill="red" stroke="red" stroke-width="0.39" points="161.51,-180.52 152.84,-186.61 163.41,-187.26 161.51,-180.52"/>
</g>
<!-- 329 -->
<g id="node7" class="node">
<title>329</title>
<ellipse fill="white" stroke="black" cx="139.83" cy="-104.94" rx="20.86" ry="20.86"/>
<text text-anchor="middle" x="139.83" y="-102.02" font-family="Times New Roman,serif" font-size="9.00">329</text>
</g>
<!-- 38&#45;&gt;329 -->
<g id="edge6" class="edge">
<title>38&#45;&gt;329</title>
<path fill="none" stroke="red" stroke-width="0.14" d="M134.56,-182.49C133.04,-169.47 132.69,-150.82 133.51,-135.18"/>
<polygon fill="red" stroke="red" stroke-width="0.14" points="136.97,-135.88 134.19,-125.65 129.98,-135.37 136.97,-135.88"/>
</g>
<!-- 329&#45;&gt;38 -->
<g id="edge7" class="edge">
<title>329&#45;&gt;38</title>
<path fill="none" stroke="red" stroke-width="0.83" stroke-dasharray="1,5" d="M145.45,-125.44C146.73,-138.8 146.92,-156.71 146.04,-171.47"/>
<polygon fill="red" stroke="red" stroke-width="0.83" points="142.57,-170.97 145.2,-181.23 149.54,-171.56 142.57,-170.97"/>
</g>
<!-- 606 -->
<g id="node10" class="node">
<title>606</title>
<ellipse fill="white" stroke="black" cx="147.83" cy="-24.04" rx="20.86" ry="20.86"/>
<text text-anchor="middle" x="147.83" y="-21.12" font-family="Times New Roman,serif" font-size="9.00">606</text>
</g>
<!-- 329&#45;&gt;606 -->
<g id="edge8" class="edge">
<title>329&#45;&gt;606</title>
<path fill="none" stroke="green" stroke-width="0.12" d="M141.85,-84.03C142.73,-75.32 143.79,-64.9 144.77,-55.26"/>
<polygon fill="green" stroke="green" stroke-width="0.12" points="148.24,-55.71 145.77,-45.41 141.27,-55 148.24,-55.71"/>
</g>
<!-- 1015 -->
<g id="node9" class="node">
<title>1015</title>
<ellipse fill="white" stroke="black" cx="67.83" cy="-24.04" rx="24.04" ry="24.04"/>
<text text-anchor="middle" x="67.83" y="-21.12" font-family="Times New Roman,serif" font-size="9.00">1015</text>
</g>
<!-- 911&#45;&gt;1015 -->
<g id="edge11" class="edge">
<title>911&#45;&gt;1015</title>
<path fill="none" stroke="green" stroke-width="0.58" d="M36.13,-86.04C40.82,-77.01 46.64,-65.81 52.01,-55.48"/>
<polygon fill="green" stroke="green" stroke-width="0.58" points="55.06,-57.21 56.56,-46.72 48.85,-53.98 55.06,-57.21"/>
</g>
<!-- 1015&#45;&gt;OUTPUT -->
<g id="edge12" class="edge">
<title>1015&#45;&gt;OUTPUT</title>
<path fill="none" stroke="green" stroke-width="0.74" d="M66.26,-48.39C64.64,-68.91 61.67,-99.5 56.83,-125.8 55.23,-134.48 53.16,-143.65 50.96,-152.45"/>
<polygon fill="green" stroke="green" stroke-width="0.74" points="47.65,-151.29 48.54,-161.84 54.43,-153.04 47.65,-151.29"/>
</g>
<!-- 606&#45;&gt;38 -->
<g id="edge9" class="edge">
<title>606&#45;&gt;38</title>
<path fill="none" stroke="red" stroke-width="0.45" stroke-dasharray="1,5" d="M156.63,-43.44C161.59,-54.85 167.29,-69.98 169.83,-84.08 173.12,-102.33 173.43,-107.61 169.83,-125.8 166.5,-142.64 159.22,-160.48 152.67,-174.29"/>
<polygon fill="red" stroke="red" stroke-width="0.45" points="149.68,-172.42 148.4,-182.94 155.96,-175.52 149.68,-172.42"/>
</g>
</g>
</svg>
