<?xml version="1.0" encoding="utf-8" standalone="no"?>
<!DOCTYPE svg PUBLIC "-//W3C//DTD SVG 1.1//EN"
  "http://www.w3.org/Graphics/SVG/1.1/DTD/svg11.dtd">
<svg xmlns:xlink="http://www.w3.org/1999/xlink" width="460.8pt" height="345.6pt" viewBox="0 0 460.8 345.6" xmlns="http://www.w3.org/2000/svg" version="1.1">
 <metadata>
  <rdf:RDF xmlns:dc="http://purl.org/dc/elements/1.1/" xmlns:cc="http://creativecommons.org/ns#" xmlns:rdf="http://www.w3.org/1999/02/22-rdf-syntax-ns#">
   <cc:Work>
    <dc:type rdf:resource="http://purl.org/dc/dcmitype/StillImage"/>
    <dc:date>2023-12-06T10:35:26.252896</dc:date>
    <dc:format>image/svg+xml</dc:format>
    <dc:creator>
     <cc:Agent>
      <dc:title>Matplotlib v3.6.3, https://matplotlib.org/</dc:title>
     </cc:Agent>
    </dc:creator>
   </cc:Work>
  </rdf:RDF>
 </metadata>
 <defs>
  <style type="text/css">*{stroke-linejoin: round; stroke-linecap: butt}</style>
 </defs>
 <g id="figure_1">
  <g id="patch_1">
   <path d="M 0 345.6 
L 460.8 345.6 
L 460.8 0 
L 0 0 
z
" style="fill: #ffffff"/>
  </g>
  <g id="axes_1">
   <g id="patch_2">
    <path d="M 57.6 307.584 
L 414.72 307.584 
L 414.72 41.472 
L 57.6 41.472 
z
" style="fill: #ffffff"/>
   </g>
   <g id="PolyCollection_1">
    <path d="M 73.832727 233.766524 
L 73.832727 307.584 
L 80.45833 307.584 
L 87.083933 307.584 
L 93.709536 307.584 
L 100.335139 307.584 
L 106.960742 307.584 
L 113.586345 307.584 
L 120.211948 307.584 
L 126.837551 307.584 
L 133.463154 307.584 
L 140.088757 307.584 
L 146.71436 307.584 
L 153.339963 307.584 
L 159.965566 307.584 
L 166.591169 307.584 
L 173.216772 307.584 
L 179.842375 307.584 
L 186.467978 307.584 
L 193.093581 307.584 
L 199.719184 307.584 
L 206.344787 307.584 
L 212.97039 307.584 
L 219.595993 307.584 
L 226.221596 307.584 
L 232.847199 307.584 
L 239.472801 307.584 
L 246.098404 307.584 
L 252.724007 307.584 
L 259.34961 307.584 
L 265.975213 307.584 
L 272.600816 307.584 
L 279.226419 307.584 
L 285.852022 307.584 
L 292.477625 307.584 
L 299.103228 307.584 
L 305.728831 307.584 
L 312.354434 307.584 
L 318.980037 307.584 
L 325.60564 307.584 
L 332.231243 307.584 
L 338.856846 307.584 
L 345.482449 307.584 
L 352.108052 307.584 
L 358.733655 307.584 
L 365.359258 307.584 
L 371.984861 307.584 
L 378.610464 307.584 
L 385.236067 307.584 
L 391.86167 307.584 
L 398.487273 307.584 
L 398.487273 282.978175 
L 398.487273 282.978175 
L 391.86167 285.438757 
L 385.236067 287.89934 
L 378.610464 285.438757 
L 371.984861 280.517592 
L 365.359258 278.05701 
L 358.733655 280.517592 
L 352.108052 282.978175 
L 345.482449 278.05701 
L 338.856846 285.438757 
L 332.231243 282.978175 
L 325.60564 280.517592 
L 318.980037 282.978175 
L 312.354434 282.978175 
L 305.728831 280.517592 
L 299.103228 285.438757 
L 292.477625 287.89934 
L 285.852022 285.438757 
L 279.226419 282.978175 
L 272.600816 285.438757 
L 265.975213 280.517592 
L 259.34961 278.05701 
L 252.724007 280.517592 
L 246.098404 278.05701 
L 239.472801 282.978175 
L 232.847199 280.517592 
L 226.221596 282.978175 
L 219.595993 280.517592 
L 212.97039 278.05701 
L 206.344787 280.517592 
L 199.719184 278.05701 
L 193.093581 280.517592 
L 186.467978 282.978175 
L 179.842375 287.89934 
L 173.216772 287.89934 
L 166.591169 285.438757 
L 159.965566 285.438757 
L 153.339963 282.978175 
L 146.71436 280.517592 
L 140.088757 282.978175 
L 133.463154 280.517592 
L 126.837551 275.596427 
L 120.211948 273.135845 
L 113.586345 270.675262 
L 106.960742 263.293515 
L 100.335139 290.359922 
L 93.709536 236.227107 
L 87.083933 268.21468 
L 80.45833 292.820505 
L 73.832727 233.766524 
z
" clip-path="url(#p0fc5df3dbf)" style="fill: #1f77b4"/>
   </g>
   <g id="PolyCollection_2">
    <path d="M 73.832727 211.621282 
L 73.832727 233.766524 
L 80.45833 292.820505 
L 87.083933 268.21468 
L 93.709536 236.227107 
L 100.335139 290.359922 
L 106.960742 263.293515 
L 113.586345 270.675262 
L 120.211948 273.135845 
L 126.837551 275.596427 
L 133.463154 280.517592 
L 140.088757 282.978175 
L 146.71436 280.517592 
L 153.339963 282.978175 
L 159.965566 285.438757 
L 166.591169 285.438757 
L 173.216772 287.89934 
L 179.842375 287.89934 
L 186.467978 282.978175 
L 193.093581 280.517592 
L 199.719184 278.05701 
L 206.344787 280.517592 
L 212.97039 278.05701 
L 219.595993 280.517592 
L 226.221596 282.978175 
L 232.847199 280.517592 
L 239.472801 282.978175 
L 246.098404 278.05701 
L 252.724007 280.517592 
L 259.34961 278.05701 
L 265.975213 280.517592 
L 272.600816 285.438757 
L 279.226419 282.978175 
L 285.852022 285.438757 
L 292.477625 287.89934 
L 299.103228 285.438757 
L 305.728831 280.517592 
L 312.354434 282.978175 
L 318.980037 282.978175 
L 325.60564 280.517592 
L 332.231243 282.978175 
L 338.856846 285.438757 
L 345.482449 278.05701 
L 352.108052 282.978175 
L 358.733655 280.517592 
L 365.359258 278.05701 
L 371.984861 280.517592 
L 378.610464 285.438757 
L 385.236067 287.89934 
L 391.86167 285.438757 
L 398.487273 282.978175 
L 398.487273 265.754097 
L 398.487273 265.754097 
L 391.86167 280.517592 
L 385.236067 248.530019 
L 378.610464 248.530019 
L 371.984861 246.069437 
L 365.359258 241.148272 
L 358.733655 236.227107 
L 352.108052 246.069437 
L 345.482449 241.148272 
L 338.856846 253.451184 
L 332.231243 258.37235 
L 325.60564 250.990602 
L 318.980037 255.911767 
L 312.354434 253.451184 
L 305.728831 255.911767 
L 299.103228 260.832932 
L 292.477625 258.37235 
L 285.852022 265.754097 
L 279.226419 241.148272 
L 272.600816 243.608854 
L 265.975213 258.37235 
L 259.34961 250.990602 
L 252.724007 255.911767 
L 246.098404 255.911767 
L 239.472801 255.911767 
L 232.847199 248.530019 
L 226.221596 236.227107 
L 219.595993 260.832932 
L 212.97039 255.911767 
L 206.344787 260.832932 
L 199.719184 248.530019 
L 193.093581 250.990602 
L 186.467978 255.911767 
L 179.842375 263.293515 
L 173.216772 268.21468 
L 166.591169 278.05701 
L 159.965566 260.832932 
L 153.339963 248.530019 
L 146.71436 241.148272 
L 140.088757 255.911767 
L 133.463154 250.990602 
L 126.837551 248.530019 
L 120.211948 255.911767 
L 113.586345 211.621282 
L 106.960742 233.766524 
L 100.335139 241.148272 
L 93.709536 206.700117 
L 87.083933 223.924194 
L 80.45833 243.608854 
L 73.832727 211.621282 
z
" clip-path="url(#p0fc5df3dbf)" style="fill: #ff7f0e"/>
   </g>
   <g id="PolyCollection_3">
    <path d="M 73.832727 167.330796 
L 73.832727 211.621282 
L 80.45833 243.608854 
L 87.083933 223.924194 
L 93.709536 206.700117 
L 100.335139 241.148272 
L 106.960742 233.766524 
L 113.586345 211.621282 
L 120.211948 255.911767 
L 126.837551 248.530019 
L 133.463154 250.990602 
L 140.088757 255.911767 
L 146.71436 241.148272 
L 153.339963 248.530019 
L 159.965566 260.832932 
L 166.591169 278.05701 
L 173.216772 268.21468 
L 179.842375 263.293515 
L 186.467978 255.911767 
L 193.093581 250.990602 
L 199.719184 248.530019 
L 206.344787 260.832932 
L 212.97039 255.911767 
L 219.595993 260.832932 
L 226.221596 236.227107 
L 232.847199 248.530019 
L 239.472801 255.911767 
L 246.098404 255.911767 
L 252.724007 255.911767 
L 259.34961 250.990602 
L 265.975213 258.37235 
L 272.600816 243.608854 
L 279.226419 241.148272 
L 285.852022 265.754097 
L 292.477625 258.37235 
L 299.103228 260.832932 
L 305.728831 255.911767 
L 312.354434 253.451184 
L 318.980037 255.911767 
L 325.60564 250.990602 
L 332.231243 258.37235 
L 338.856846 253.451184 
L 345.482449 241.148272 
L 352.108052 246.069437 
L 358.733655 236.227107 
L 365.359258 241.148272 
L 371.984861 246.069437 
L 378.610464 248.530019 
L 385.236067 248.530019 
L 391.86167 280.517592 
L 398.487273 265.754097 
L 398.487273 233.766524 
L 398.487273 233.766524 
L 391.86167 243.608854 
L 385.236067 219.003029 
L 378.610464 219.003029 
L 371.984861 219.003029 
L 365.359258 216.542447 
L 358.733655 211.621282 
L 352.108052 214.081864 
L 345.482449 214.081864 
L 338.856846 223.924194 
L 332.231243 228.845359 
L 325.60564 223.924194 
L 318.980037 223.924194 
L 312.354434 219.003029 
L 305.728831 226.384777 
L 299.103228 228.845359 
L 292.477625 228.845359 
L 285.852022 236.227107 
L 279.226419 211.621282 
L 272.600816 209.160699 
L 265.975213 221.463612 
L 259.34961 216.542447 
L 252.724007 221.463612 
L 246.098404 228.845359 
L 239.472801 228.845359 
L 232.847199 228.845359 
L 226.221596 211.621282 
L 219.595993 231.305942 
L 212.97039 221.463612 
L 206.344787 228.845359 
L 199.719184 216.542447 
L 193.093581 214.081864 
L 186.467978 221.463612 
L 179.842375 226.384777 
L 173.216772 233.766524 
L 166.591169 238.687689 
L 159.965566 226.384777 
L 153.339963 216.542447 
L 146.71436 211.621282 
L 140.088757 223.924194 
L 133.463154 231.305942 
L 126.837551 216.542447 
L 120.211948 226.384777 
L 113.586345 184.554874 
L 106.960742 209.160699 
L 100.335139 209.160699 
L 93.709536 162.409631 
L 87.083933 199.318369 
L 80.45833 174.712544 
L 73.832727 167.330796 
z
" clip-path="url(#p0fc5df3dbf)" style="fill: #2ca02c"/>
   </g>
   <g id="PolyCollection_4">
    <path d="M 73.832727 127.961476 
L 73.832727 167.330796 
L 80.45833 174.712544 
L 87.083933 199.318369 
L 93.709536 162.409631 
L 100.335139 209.160699 
L 106.960742 209.160699 
L 113.586345 184.554874 
L 120.211948 226.384777 
L 126.837551 216.542447 
L 133.463154 231.305942 
L 140.088757 223.924194 
L 146.71436 211.621282 
L 153.339963 216.542447 
L 159.965566 226.384777 
L 166.591169 238.687689 
L 173.216772 233.766524 
L 179.842375 226.384777 
L 186.467978 221.463612 
L 193.093581 214.081864 
L 199.719184 216.542447 
L 206.344787 228.845359 
L 212.97039 221.463612 
L 219.595993 231.305942 
L 226.221596 211.621282 
L 232.847199 228.845359 
L 239.472801 228.845359 
L 246.098404 228.845359 
L 252.724007 221.463612 
L 259.34961 216.542447 
L 265.975213 221.463612 
L 272.600816 209.160699 
L 279.226419 211.621282 
L 285.852022 236.227107 
L 292.477625 228.845359 
L 299.103228 228.845359 
L 305.728831 226.384777 
L 312.354434 219.003029 
L 318.980037 223.924194 
L 325.60564 223.924194 
L 332.231243 228.845359 
L 338.856846 223.924194 
L 345.482449 214.081864 
L 352.108052 214.081864 
L 358.733655 211.621282 
L 365.359258 216.542447 
L 371.984861 219.003029 
L 378.610464 219.003029 
L 385.236067 219.003029 
L 391.86167 243.608854 
L 398.487273 233.766524 
L 398.487273 211.621282 
L 398.487273 211.621282 
L 391.86167 221.463612 
L 385.236067 194.397204 
L 378.610464 191.936621 
L 371.984861 196.857786 
L 365.359258 191.936621 
L 358.733655 189.476039 
L 352.108052 191.936621 
L 345.482449 194.397204 
L 338.856846 199.318369 
L 332.231243 201.778951 
L 325.60564 194.397204 
L 318.980037 199.318369 
L 312.354434 199.318369 
L 305.728831 204.239534 
L 299.103228 201.778951 
L 292.477625 194.397204 
L 285.852022 194.397204 
L 279.226419 191.936621 
L 272.600816 184.554874 
L 265.975213 196.857786 
L 259.34961 194.397204 
L 252.724007 191.936621 
L 246.098404 201.778951 
L 239.472801 204.239534 
L 232.847199 199.318369 
L 226.221596 177.173126 
L 219.595993 201.778951 
L 212.97039 191.936621 
L 206.344787 196.857786 
L 199.719184 187.015456 
L 193.093581 187.015456 
L 186.467978 189.476039 
L 179.842375 189.476039 
L 173.216772 199.318369 
L 166.591169 201.778951 
L 159.965566 194.397204 
L 153.339963 182.094291 
L 146.71436 174.712544 
L 140.088757 184.554874 
L 133.463154 189.476039 
L 126.837551 177.173126 
L 120.211948 189.476039 
L 113.586345 155.027883 
L 106.960742 189.476039 
L 100.335139 187.015456 
L 93.709536 132.882641 
L 87.083933 157.488466 
L 80.45833 147.646136 
L 73.832727 127.961476 
z
" clip-path="url(#p0fc5df3dbf)" style="fill: #d62728"/>
   </g>
   <g id="PolyCollection_5">
    <path d="M 73.832727 125.500893 
L 73.832727 127.961476 
L 80.45833 147.646136 
L 87.083933 157.488466 
L 93.709536 132.882641 
L 100.335139 187.015456 
L 106.960742 189.476039 
L 113.586345 155.027883 
L 120.211948 189.476039 
L 126.837551 177.173126 
L 133.463154 189.476039 
L 140.088757 184.554874 
L 146.71436 174.712544 
L 153.339963 182.094291 
L 159.965566 194.397204 
L 166.591169 201.778951 
L 173.216772 199.318369 
L 179.842375 189.476039 
L 186.467978 189.476039 
L 193.093581 187.015456 
L 199.719184 187.015456 
L 206.344787 196.857786 
L 212.97039 191.936621 
L 219.595993 201.778951 
L 226.221596 177.173126 
L 232.847199 199.318369 
L 239.472801 204.239534 
L 246.098404 201.778951 
L 252.724007 191.936621 
L 259.34961 194.397204 
L 265.975213 196.857786 
L 272.600816 184.554874 
L 279.226419 191.936621 
L 285.852022 194.397204 
L 292.477625 194.397204 
L 299.103228 201.778951 
L 305.728831 204.239534 
L 312.354434 199.318369 
L 318.980037 199.318369 
L 325.60564 194.397204 
L 332.231243 201.778951 
L 338.856846 199.318369 
L 345.482449 194.397204 
L 352.108052 191.936621 
L 358.733655 189.476039 
L 365.359258 191.936621 
L 371.984861 196.857786 
L 378.610464 191.936621 
L 385.236067 194.397204 
L 391.86167 221.463612 
L 398.487273 211.621282 
L 398.487273 172.251961 
L 398.487273 172.251961 
L 391.86167 184.554874 
L 385.236067 174.712544 
L 378.610464 169.791379 
L 371.984861 177.173126 
L 365.359258 177.173126 
L 358.733655 174.712544 
L 352.108052 167.330796 
L 345.482449 172.251961 
L 338.856846 174.712544 
L 332.231243 177.173126 
L 325.60564 169.791379 
L 318.980037 169.791379 
L 312.354434 174.712544 
L 305.728831 182.094291 
L 299.103228 179.633709 
L 292.477625 172.251961 
L 285.852022 179.633709 
L 279.226419 174.712544 
L 272.600816 164.870214 
L 265.975213 174.712544 
L 259.34961 169.791379 
L 252.724007 167.330796 
L 246.098404 174.712544 
L 239.472801 174.712544 
L 232.847199 172.251961 
L 226.221596 155.027883 
L 219.595993 182.094291 
L 212.97039 169.791379 
L 206.344787 172.251961 
L 199.719184 167.330796 
L 193.093581 162.409631 
L 186.467978 167.330796 
L 179.842375 169.791379 
L 173.216772 177.173126 
L 166.591169 187.015456 
L 159.965566 174.712544 
L 153.339963 164.870214 
L 146.71436 159.949049 
L 140.088757 174.712544 
L 133.463154 177.173126 
L 126.837551 169.791379 
L 120.211948 177.173126 
L 113.586345 142.724971 
L 106.960742 177.173126 
L 100.335139 177.173126 
L 93.709536 120.579728 
L 87.083933 142.724971 
L 80.45833 132.882641 
L 73.832727 125.500893 
z
" clip-path="url(#p0fc5df3dbf)" style="fill: #9467bd"/>
   </g>
   <g id="PolyCollection_6">
    <path d="M 73.832727 86.131573 
L 73.832727 125.500893 
L 80.45833 132.882641 
L 87.083933 142.724971 
L 93.709536 120.579728 
L 100.335139 177.173126 
L 106.960742 177.173126 
L 113.586345 142.724971 
L 120.211948 177.173126 
L 126.837551 169.791379 
L 133.463154 177.173126 
L 140.088757 174.712544 
L 146.71436 159.949049 
L 153.339963 164.870214 
L 159.965566 174.712544 
L 166.591169 187.015456 
L 173.216772 177.173126 
L 179.842375 169.791379 
L 186.467978 167.330796 
L 193.093581 162.409631 
L 199.719184 167.330796 
L 206.344787 172.251961 
L 212.97039 169.791379 
L 219.595993 182.094291 
L 226.221596 155.027883 
L 232.847199 172.251961 
L 239.472801 174.712544 
L 246.098404 174.712544 
L 252.724007 167.330796 
L 259.34961 169.791379 
L 265.975213 174.712544 
L 272.600816 164.870214 
L 279.226419 174.712544 
L 285.852022 179.633709 
L 292.477625 172.251961 
L 299.103228 179.633709 
L 305.728831 182.094291 
L 312.354434 174.712544 
L 318.980037 169.791379 
L 325.60564 169.791379 
L 332.231243 177.173126 
L 338.856846 174.712544 
L 345.482449 172.251961 
L 352.108052 167.330796 
L 358.733655 174.712544 
L 365.359258 177.173126 
L 371.984861 177.173126 
L 378.610464 169.791379 
L 385.236067 174.712544 
L 391.86167 184.554874 
L 398.487273 172.251961 
L 398.487273 150.106718 
L 398.487273 150.106718 
L 391.86167 162.409631 
L 385.236067 145.185553 
L 378.610464 150.106718 
L 371.984861 147.646136 
L 365.359258 152.567301 
L 358.733655 155.027883 
L 352.108052 152.567301 
L 345.482449 152.567301 
L 338.856846 147.646136 
L 332.231243 147.646136 
L 325.60564 142.724971 
L 318.980037 140.264388 
L 312.354434 147.646136 
L 305.728831 159.949049 
L 299.103228 152.567301 
L 292.477625 152.567301 
L 285.852022 150.106718 
L 279.226419 155.027883 
L 272.600816 147.646136 
L 265.975213 137.803806 
L 259.34961 132.882641 
L 252.724007 123.040311 
L 246.098404 127.961476 
L 239.472801 125.500893 
L 232.847199 130.422058 
L 226.221596 132.882641 
L 219.595993 137.803806 
L 212.97039 135.343223 
L 206.344787 137.803806 
L 199.719184 140.264388 
L 193.093581 140.264388 
L 186.467978 140.264388 
L 179.842375 140.264388 
L 173.216772 152.567301 
L 166.591169 167.330796 
L 159.965566 152.567301 
L 153.339963 155.027883 
L 146.71436 135.343223 
L 140.088757 142.724971 
L 133.463154 135.343223 
L 126.837551 145.185553 
L 120.211948 150.106718 
L 113.586345 113.197981 
L 106.960742 103.35565 
L 100.335139 115.658563 
L 93.709536 113.197981 
L 87.083933 105.816233 
L 80.45833 86.131573 
L 73.832727 86.131573 
z
" clip-path="url(#p0fc5df3dbf)" style="fill: #8c564b"/>
   </g>
   <g id="PolyCollection_7">
    <path d="M 73.832727 78.749825 
L 73.832727 86.131573 
L 80.45833 86.131573 
L 87.083933 105.816233 
L 93.709536 113.197981 
L 100.335139 115.658563 
L 106.960742 103.35565 
L 113.586345 113.197981 
L 120.211948 150.106718 
L 126.837551 145.185553 
L 133.463154 135.343223 
L 140.088757 142.724971 
L 146.71436 135.343223 
L 153.339963 155.027883 
L 159.965566 152.567301 
L 166.591169 167.330796 
L 173.216772 152.567301 
L 179.842375 140.264388 
L 186.467978 140.264388 
L 193.093581 140.264388 
L 199.719184 140.264388 
L 206.344787 137.803806 
L 212.97039 135.343223 
L 219.595993 137.803806 
L 226.221596 132.882641 
L 232.847199 130.422058 
L 239.472801 125.500893 
L 246.098404 127.961476 
L 252.724007 123.040311 
L 259.34961 132.882641 
L 265.975213 137.803806 
L 272.600816 147.646136 
L 279.226419 155.027883 
L 285.852022 150.106718 
L 292.477625 152.567301 
L 299.103228 152.567301 
L 305.728831 159.949049 
L 312.354434 147.646136 
L 318.980037 140.264388 
L 325.60564 142.724971 
L 332.231243 147.646136 
L 338.856846 147.646136 
L 345.482449 152.567301 
L 352.108052 152.567301 
L 358.733655 155.027883 
L 365.359258 152.567301 
L 371.984861 147.646136 
L 378.610464 150.106718 
L 385.236067 145.185553 
L 391.86167 162.409631 
L 398.487273 150.106718 
L 398.487273 125.500893 
L 398.487273 125.500893 
L 391.86167 140.264388 
L 385.236067 120.579728 
L 378.610464 123.040311 
L 371.984861 123.040311 
L 365.359258 127.961476 
L 358.733655 127.961476 
L 352.108052 123.040311 
L 345.482449 125.500893 
L 338.856846 123.040311 
L 332.231243 125.500893 
L 325.60564 103.35565 
L 318.980037 118.119146 
L 312.354434 123.040311 
L 305.728831 132.882641 
L 299.103228 123.040311 
L 292.477625 125.500893 
L 285.852022 123.040311 
L 279.226419 125.500893 
L 272.600816 118.119146 
L 265.975213 110.737398 
L 259.34961 108.276816 
L 252.724007 103.35565 
L 246.098404 98.434485 
L 239.472801 95.973903 
L 232.847199 103.35565 
L 226.221596 105.816233 
L 219.595993 100.895068 
L 212.97039 98.434485 
L 206.344787 105.816233 
L 199.719184 110.737398 
L 193.093581 93.51332 
L 186.467978 105.816233 
L 179.842375 108.276816 
L 173.216772 113.197981 
L 166.591169 105.816233 
L 159.965566 105.816233 
L 153.339963 110.737398 
L 146.71436 105.816233 
L 140.088757 115.658563 
L 133.463154 105.816233 
L 126.837551 93.51332 
L 120.211948 103.35565 
L 113.586345 103.35565 
L 106.960742 98.434485 
L 100.335139 108.276816 
L 93.709536 108.276816 
L 87.083933 100.895068 
L 80.45833 83.67099 
L 73.832727 78.749825 
z
" clip-path="url(#p0fc5df3dbf)" style="fill: #e377c2"/>
   </g>
   <g id="PolyCollection_8">
    <path d="M 73.832727 76.289243 
L 73.832727 78.749825 
L 80.45833 83.67099 
L 87.083933 100.895068 
L 93.709536 108.276816 
L 100.335139 108.276816 
L 106.960742 98.434485 
L 113.586345 103.35565 
L 120.211948 103.35565 
L 126.837551 93.51332 
L 133.463154 105.816233 
L 140.088757 115.658563 
L 146.71436 105.816233 
L 153.339963 110.737398 
L 159.965566 105.816233 
L 166.591169 105.816233 
L 173.216772 113.197981 
L 179.842375 108.276816 
L 186.467978 105.816233 
L 193.093581 93.51332 
L 199.719184 110.737398 
L 206.344787 105.816233 
L 212.97039 98.434485 
L 219.595993 100.895068 
L 226.221596 105.816233 
L 232.847199 103.35565 
L 239.472801 95.973903 
L 246.098404 98.434485 
L 252.724007 103.35565 
L 259.34961 108.276816 
L 265.975213 110.737398 
L 272.600816 118.119146 
L 279.226419 125.500893 
L 285.852022 123.040311 
L 292.477625 125.500893 
L 299.103228 123.040311 
L 305.728831 132.882641 
L 312.354434 123.040311 
L 318.980037 118.119146 
L 325.60564 103.35565 
L 332.231243 125.500893 
L 338.856846 123.040311 
L 345.482449 125.500893 
L 352.108052 123.040311 
L 358.733655 127.961476 
L 365.359258 127.961476 
L 371.984861 123.040311 
L 378.610464 123.040311 
L 385.236067 120.579728 
L 391.86167 140.264388 
L 398.487273 125.500893 
L 398.487273 103.35565 
L 398.487273 103.35565 
L 391.86167 103.35565 
L 385.236067 98.434485 
L 378.610464 98.434485 
L 371.984861 95.973903 
L 365.359258 95.973903 
L 358.733655 95.973903 
L 352.108052 95.973903 
L 345.482449 103.35565 
L 338.856846 105.816233 
L 332.231243 105.816233 
L 325.60564 98.434485 
L 318.980037 100.895068 
L 312.354434 95.973903 
L 305.728831 105.816233 
L 299.103228 100.895068 
L 292.477625 100.895068 
L 285.852022 105.816233 
L 279.226419 103.35565 
L 272.600816 98.434485 
L 265.975213 98.434485 
L 259.34961 93.51332 
L 252.724007 91.052738 
L 246.098404 88.592155 
L 239.472801 88.592155 
L 232.847199 98.434485 
L 226.221596 100.895068 
L 219.595993 95.973903 
L 212.97039 93.51332 
L 206.344787 98.434485 
L 199.719184 105.816233 
L 193.093581 86.131573 
L 186.467978 100.895068 
L 179.842375 103.35565 
L 173.216772 105.816233 
L 166.591169 100.895068 
L 159.965566 100.895068 
L 153.339963 105.816233 
L 146.71436 100.895068 
L 140.088757 108.276816 
L 133.463154 95.973903 
L 126.837551 88.592155 
L 120.211948 98.434485 
L 113.586345 98.434485 
L 106.960742 93.51332 
L 100.335139 100.895068 
L 93.709536 98.434485 
L 87.083933 93.51332 
L 80.45833 73.82866 
L 73.832727 76.289243 
z
" clip-path="url(#p0fc5df3dbf)" style="fill: #7f7f7f"/>
   </g>
   <g id="PolyCollection_9">
    <path d="M 73.832727 63.98633 
L 73.832727 76.289243 
L 80.45833 73.82866 
L 87.083933 93.51332 
L 93.709536 98.434485 
L 100.335139 100.895068 
L 106.960742 93.51332 
L 113.586345 98.434485 
L 120.211948 98.434485 
L 126.837551 88.592155 
L 133.463154 95.973903 
L 140.088757 108.276816 
L 146.71436 100.895068 
L 153.339963 105.816233 
L 159.965566 100.895068 
L 166.591169 100.895068 
L 173.216772 105.816233 
L 179.842375 103.35565 
L 186.467978 100.895068 
L 193.093581 86.131573 
L 199.719184 105.816233 
L 206.344787 98.434485 
L 212.97039 93.51332 
L 219.595993 95.973903 
L 226.221596 100.895068 
L 232.847199 98.434485 
L 239.472801 88.592155 
L 246.098404 88.592155 
L 252.724007 91.052738 
L 259.34961 93.51332 
L 265.975213 98.434485 
L 272.600816 98.434485 
L 279.226419 103.35565 
L 285.852022 105.816233 
L 292.477625 100.895068 
L 299.103228 100.895068 
L 305.728831 105.816233 
L 312.354434 95.973903 
L 318.980037 100.895068 
L 325.60564 98.434485 
L 332.231243 105.816233 
L 338.856846 105.816233 
L 345.482449 103.35565 
L 352.108052 95.973903 
L 358.733655 95.973903 
L 365.359258 95.973903 
L 371.984861 95.973903 
L 378.610464 98.434485 
L 385.236067 98.434485 
L 391.86167 103.35565 
L 398.487273 103.35565 
L 398.487273 73.82866 
L 398.487273 73.82866 
L 391.86167 78.749825 
L 385.236067 78.749825 
L 378.610464 78.749825 
L 371.984861 78.749825 
L 365.359258 76.289243 
L 358.733655 73.82866 
L 352.108052 73.82866 
L 345.482449 78.749825 
L 338.856846 76.289243 
L 332.231243 81.210408 
L 325.60564 71.368078 
L 318.980037 76.289243 
L 312.354434 73.82866 
L 305.728831 83.67099 
L 299.103228 73.82866 
L 292.477625 76.289243 
L 285.852022 83.67099 
L 279.226419 81.210408 
L 272.600816 73.82866 
L 265.975213 78.749825 
L 259.34961 66.446913 
L 252.724007 66.446913 
L 246.098404 66.446913 
L 239.472801 63.98633 
L 232.847199 66.446913 
L 226.221596 68.907495 
L 219.595993 71.368078 
L 212.97039 66.446913 
L 206.344787 66.446913 
L 199.719184 63.98633 
L 193.093581 63.98633 
L 186.467978 66.446913 
L 179.842375 71.368078 
L 173.216772 66.446913 
L 166.591169 66.446913 
L 159.965566 66.446913 
L 153.339963 68.907495 
L 146.71436 71.368078 
L 140.088757 68.907495 
L 133.463154 63.98633 
L 126.837551 61.525748 
L 120.211948 68.907495 
L 113.586345 68.907495 
L 106.960742 63.98633 
L 100.335139 61.525748 
L 93.709536 61.525748 
L 87.083933 63.98633 
L 80.45833 61.525748 
L 73.832727 63.98633 
z
" clip-path="url(#p0fc5df3dbf)" style="fill: #bcbd22"/>
   </g>
   <g id="PolyCollection_10">
    <path d="M 73.832727 61.525748 
L 73.832727 63.98633 
L 80.45833 61.525748 
L 87.083933 63.98633 
L 93.709536 61.525748 
L 100.335139 61.525748 
L 106.960742 63.98633 
L 113.586345 68.907495 
L 120.211948 68.907495 
L 126.837551 61.525748 
L 133.463154 63.98633 
L 140.088757 68.907495 
L 146.71436 71.368078 
L 153.339963 68.907495 
L 159.965566 66.446913 
L 166.591169 66.446913 
L 173.216772 66.446913 
L 179.842375 71.368078 
L 186.467978 66.446913 
L 193.093581 63.98633 
L 199.719184 63.98633 
L 206.344787 66.446913 
L 212.97039 66.446913 
L 219.595993 71.368078 
L 226.221596 68.907495 
L 232.847199 66.446913 
L 239.472801 63.98633 
L 246.098404 66.446913 
L 252.724007 66.446913 
L 259.34961 66.446913 
L 265.975213 78.749825 
L 272.600816 73.82866 
L 279.226419 81.210408 
L 285.852022 83.67099 
L 292.477625 76.289243 
L 299.103228 73.82866 
L 305.728831 83.67099 
L 312.354434 73.82866 
L 318.980037 76.289243 
L 325.60564 71.368078 
L 332.231243 81.210408 
L 338.856846 76.289243 
L 345.482449 78.749825 
L 352.108052 73.82866 
L 358.733655 73.82866 
L 365.359258 76.289243 
L 371.984861 78.749825 
L 378.610464 78.749825 
L 385.236067 78.749825 
L 391.86167 78.749825 
L 398.487273 73.82866 
L 398.487273 54.144 
L 398.487273 54.144 
L 391.86167 61.525748 
L 385.236067 63.98633 
L 378.610464 63.98633 
L 371.984861 63.98633 
L 365.359258 61.525748 
L 358.733655 61.525748 
L 352.108052 59.065165 
L 345.482449 63.98633 
L 338.856846 63.98633 
L 332.231243 61.525748 
L 325.60564 54.144 
L 318.980037 61.525748 
L 312.354434 61.525748 
L 305.728831 68.907495 
L 299.103228 61.525748 
L 292.477625 66.446913 
L 285.852022 68.907495 
L 279.226419 61.525748 
L 272.600816 59.065165 
L 265.975213 63.98633 
L 259.34961 54.144 
L 252.724007 56.604583 
L 246.098404 56.604583 
L 239.472801 54.144 
L 232.847199 56.604583 
L 226.221596 59.065165 
L 219.595993 61.525748 
L 212.97039 59.065165 
L 206.344787 61.525748 
L 199.719184 56.604583 
L 193.093581 59.065165 
L 186.467978 59.065165 
L 179.842375 66.446913 
L 173.216772 59.065165 
L 166.591169 61.525748 
L 159.965566 59.065165 
L 153.339963 63.98633 
L 146.71436 63.98633 
L 140.088757 63.98633 
L 133.463154 56.604583 
L 126.837551 56.604583 
L 120.211948 63.98633 
L 113.586345 63.98633 
L 106.960742 56.604583 
L 100.335139 56.604583 
L 93.709536 56.604583 
L 87.083933 56.604583 
L 80.45833 56.604583 
L 73.832727 61.525748 
z
" clip-path="url(#p0fc5df3dbf)" style="fill: #17becf"/>
   </g>
   <g id="matplotlib.axis_1">
    <g id="xtick_1">
     <g id="line2d_1">
      <defs>
       <path id="mb46eb5e494" d="M 0 0 
L 0 3.5 
" style="stroke: #000000; stroke-width: 0.8"/>
      </defs>
      <g>
       <use xlink:href="#mb46eb5e494" x="73.832727" y="307.584" style="stroke: #000000; stroke-width: 0.8"/>
      </g>
     </g>
     <g id="text_1">
      <!-- 0 -->
      <g transform="translate(70.651477 322.182437) scale(0.1 -0.1)">
       <defs>
        <path id="DejaVuSans-30" d="M 2034 4250 
Q 1547 4250 1301 3770 
Q 1056 3291 1056 2328 
Q 1056 1369 1301 889 
Q 1547 409 2034 409 
Q 2525 409 2770 889 
Q 3016 1369 3016 2328 
Q 3016 3291 2770 3770 
Q 2525 4250 2034 4250 
z
M 2034 4750 
Q 2819 4750 3233 4129 
Q 3647 3509 3647 2328 
Q 3647 1150 3233 529 
Q 2819 -91 2034 -91 
Q 1250 -91 836 529 
Q 422 1150 422 2328 
Q 422 3509 836 4129 
Q 1250 4750 2034 4750 
z
" transform="scale(0.015625)"/>
       </defs>
       <use xlink:href="#DejaVuSans-30"/>
      </g>
     </g>
    </g>
    <g id="xtick_2">
     <g id="line2d_2">
      <g>
       <use xlink:href="#mb46eb5e494" x="140.088757" y="307.584" style="stroke: #000000; stroke-width: 0.8"/>
      </g>
     </g>
     <g id="text_2">
      <!-- 10 -->
      <g transform="translate(133.726257 322.182437) scale(0.1 -0.1)">
       <defs>
        <path id="DejaVuSans-31" d="M 794 531 
L 1825 531 
L 1825 4091 
L 703 3866 
L 703 4441 
L 1819 4666 
L 2450 4666 
L 2450 531 
L 3481 531 
L 3481 0 
L 794 0 
L 794 531 
z
" transform="scale(0.015625)"/>
       </defs>
       <use xlink:href="#DejaVuSans-31"/>
       <use xlink:href="#DejaVuSans-30" x="63.623047"/>
      </g>
     </g>
    </g>
    <g id="xtick_3">
     <g id="line2d_3">
      <g>
       <use xlink:href="#mb46eb5e494" x="206.344787" y="307.584" style="stroke: #000000; stroke-width: 0.8"/>
      </g>
     </g>
     <g id="text_3">
      <!-- 20 -->
      <g transform="translate(199.982287 322.182437) scale(0.1 -0.1)">
       <defs>
        <path id="DejaVuSans-32" d="M 1228 531 
L 3431 531 
L 3431 0 
L 469 0 
L 469 531 
Q 828 903 1448 1529 
Q 2069 2156 2228 2338 
Q 2531 2678 2651 2914 
Q 2772 3150 2772 3378 
Q 2772 3750 2511 3984 
Q 2250 4219 1831 4219 
Q 1534 4219 1204 4116 
Q 875 4013 500 3803 
L 500 4441 
Q 881 4594 1212 4672 
Q 1544 4750 1819 4750 
Q 2544 4750 2975 4387 
Q 3406 4025 3406 3419 
Q 3406 3131 3298 2873 
Q 3191 2616 2906 2266 
Q 2828 2175 2409 1742 
Q 1991 1309 1228 531 
z
" transform="scale(0.015625)"/>
       </defs>
       <use xlink:href="#DejaVuSans-32"/>
       <use xlink:href="#DejaVuSans-30" x="63.623047"/>
      </g>
     </g>
    </g>
    <g id="xtick_4">
     <g id="line2d_4">
      <g>
       <use xlink:href="#mb46eb5e494" x="272.600816" y="307.584" style="stroke: #000000; stroke-width: 0.8"/>
      </g>
     </g>
     <g id="text_4">
      <!-- 30 -->
      <g transform="translate(266.238316 322.182437) scale(0.1 -0.1)">
       <defs>
        <path id="DejaVuSans-33" d="M 2597 2516 
Q 3050 2419 3304 2112 
Q 3559 1806 3559 1356 
Q 3559 666 3084 287 
Q 2609 -91 1734 -91 
Q 1441 -91 1130 -33 
Q 819 25 488 141 
L 488 750 
Q 750 597 1062 519 
Q 1375 441 1716 441 
Q 2309 441 2620 675 
Q 2931 909 2931 1356 
Q 2931 1769 2642 2001 
Q 2353 2234 1838 2234 
L 1294 2234 
L 1294 2753 
L 1863 2753 
Q 2328 2753 2575 2939 
Q 2822 3125 2822 3475 
Q 2822 3834 2567 4026 
Q 2313 4219 1838 4219 
Q 1578 4219 1281 4162 
Q 984 4106 628 3988 
L 628 4550 
Q 988 4650 1302 4700 
Q 1616 4750 1894 4750 
Q 2613 4750 3031 4423 
Q 3450 4097 3450 3541 
Q 3450 3153 3228 2886 
Q 3006 2619 2597 2516 
z
" transform="scale(0.015625)"/>
       </defs>
       <use xlink:href="#DejaVuSans-33"/>
       <use xlink:href="#DejaVuSans-30" x="63.623047"/>
      </g>
     </g>
    </g>
    <g id="xtick_5">
     <g id="line2d_5">
      <g>
       <use xlink:href="#mb46eb5e494" x="338.856846" y="307.584" style="stroke: #000000; stroke-width: 0.8"/>
      </g>
     </g>
     <g id="text_5">
      <!-- 40 -->
      <g transform="translate(332.494346 322.182437) scale(0.1 -0.1)">
       <defs>
        <path id="DejaVuSans-34" d="M 2419 4116 
L 825 1625 
L 2419 1625 
L 2419 4116 
z
M 2253 4666 
L 3047 4666 
L 3047 1625 
L 3713 1625 
L 3713 1100 
L 3047 1100 
L 3047 0 
L 2419 0 
L 2419 1100 
L 313 1100 
L 313 1709 
L 2253 4666 
z
" transform="scale(0.015625)"/>
       </defs>
       <use xlink:href="#DejaVuSans-34"/>
       <use xlink:href="#DejaVuSans-30" x="63.623047"/>
      </g>
     </g>
    </g>
    <g id="xtick_6">
     <g id="line2d_6">
      <g>
       <use xlink:href="#mb46eb5e494" x="405.112876" y="307.584" style="stroke: #000000; stroke-width: 0.8"/>
      </g>
     </g>
     <g id="text_6">
      <!-- 50 -->
      <g transform="translate(398.750376 322.182437) scale(0.1 -0.1)">
       <defs>
        <path id="DejaVuSans-35" d="M 691 4666 
L 3169 4666 
L 3169 4134 
L 1269 4134 
L 1269 2991 
Q 1406 3038 1543 3061 
Q 1681 3084 1819 3084 
Q 2600 3084 3056 2656 
Q 3513 2228 3513 1497 
Q 3513 744 3044 326 
Q 2575 -91 1722 -91 
Q 1428 -91 1123 -41 
Q 819 9 494 109 
L 494 744 
Q 775 591 1075 516 
Q 1375 441 1709 441 
Q 2250 441 2565 725 
Q 2881 1009 2881 1497 
Q 2881 1984 2565 2268 
Q 2250 2553 1709 2553 
Q 1456 2553 1204 2497 
Q 953 2441 691 2322 
L 691 4666 
z
" transform="scale(0.015625)"/>
       </defs>
       <use xlink:href="#DejaVuSans-35"/>
       <use xlink:href="#DejaVuSans-30" x="63.623047"/>
      </g>
     </g>
    </g>
    <g id="text_7">
     <!-- Generations -->
     <g transform="translate(205.662344 335.860562) scale(0.1 -0.1)">
      <defs>
       <path id="DejaVuSans-47" d="M 3809 666 
L 3809 1919 
L 2778 1919 
L 2778 2438 
L 4434 2438 
L 4434 434 
Q 4069 175 3628 42 
Q 3188 -91 2688 -91 
Q 1594 -91 976 548 
Q 359 1188 359 2328 
Q 359 3472 976 4111 
Q 1594 4750 2688 4750 
Q 3144 4750 3555 4637 
Q 3966 4525 4313 4306 
L 4313 3634 
Q 3963 3931 3569 4081 
Q 3175 4231 2741 4231 
Q 1884 4231 1454 3753 
Q 1025 3275 1025 2328 
Q 1025 1384 1454 906 
Q 1884 428 2741 428 
Q 3075 428 3337 486 
Q 3600 544 3809 666 
z
" transform="scale(0.015625)"/>
       <path id="DejaVuSans-65" d="M 3597 1894 
L 3597 1613 
L 953 1613 
Q 991 1019 1311 708 
Q 1631 397 2203 397 
Q 2534 397 2845 478 
Q 3156 559 3463 722 
L 3463 178 
Q 3153 47 2828 -22 
Q 2503 -91 2169 -91 
Q 1331 -91 842 396 
Q 353 884 353 1716 
Q 353 2575 817 3079 
Q 1281 3584 2069 3584 
Q 2775 3584 3186 3129 
Q 3597 2675 3597 1894 
z
M 3022 2063 
Q 3016 2534 2758 2815 
Q 2500 3097 2075 3097 
Q 1594 3097 1305 2825 
Q 1016 2553 972 2059 
L 3022 2063 
z
" transform="scale(0.015625)"/>
       <path id="DejaVuSans-6e" d="M 3513 2113 
L 3513 0 
L 2938 0 
L 2938 2094 
Q 2938 2591 2744 2837 
Q 2550 3084 2163 3084 
Q 1697 3084 1428 2787 
Q 1159 2491 1159 1978 
L 1159 0 
L 581 0 
L 581 3500 
L 1159 3500 
L 1159 2956 
Q 1366 3272 1645 3428 
Q 1925 3584 2291 3584 
Q 2894 3584 3203 3211 
Q 3513 2838 3513 2113 
z
" transform="scale(0.015625)"/>
       <path id="DejaVuSans-72" d="M 2631 2963 
Q 2534 3019 2420 3045 
Q 2306 3072 2169 3072 
Q 1681 3072 1420 2755 
Q 1159 2438 1159 1844 
L 1159 0 
L 581 0 
L 581 3500 
L 1159 3500 
L 1159 2956 
Q 1341 3275 1631 3429 
Q 1922 3584 2338 3584 
Q 2397 3584 2469 3576 
Q 2541 3569 2628 3553 
L 2631 2963 
z
" transform="scale(0.015625)"/>
       <path id="DejaVuSans-61" d="M 2194 1759 
Q 1497 1759 1228 1600 
Q 959 1441 959 1056 
Q 959 750 1161 570 
Q 1363 391 1709 391 
Q 2188 391 2477 730 
Q 2766 1069 2766 1631 
L 2766 1759 
L 2194 1759 
z
M 3341 1997 
L 3341 0 
L 2766 0 
L 2766 531 
Q 2569 213 2275 61 
Q 1981 -91 1556 -91 
Q 1019 -91 701 211 
Q 384 513 384 1019 
Q 384 1609 779 1909 
Q 1175 2209 1959 2209 
L 2766 2209 
L 2766 2266 
Q 2766 2663 2505 2880 
Q 2244 3097 1772 3097 
Q 1472 3097 1187 3025 
Q 903 2953 641 2809 
L 641 3341 
Q 956 3463 1253 3523 
Q 1550 3584 1831 3584 
Q 2591 3584 2966 3190 
Q 3341 2797 3341 1997 
z
" transform="scale(0.015625)"/>
       <path id="DejaVuSans-74" d="M 1172 4494 
L 1172 3500 
L 2356 3500 
L 2356 3053 
L 1172 3053 
L 1172 1153 
Q 1172 725 1289 603 
Q 1406 481 1766 481 
L 2356 481 
L 2356 0 
L 1766 0 
Q 1100 0 847 248 
Q 594 497 594 1153 
L 594 3053 
L 172 3053 
L 172 3500 
L 594 3500 
L 594 4494 
L 1172 4494 
z
" transform="scale(0.015625)"/>
       <path id="DejaVuSans-69" d="M 603 3500 
L 1178 3500 
L 1178 0 
L 603 0 
L 603 3500 
z
M 603 4863 
L 1178 4863 
L 1178 4134 
L 603 4134 
L 603 4863 
z
" transform="scale(0.015625)"/>
       <path id="DejaVuSans-6f" d="M 1959 3097 
Q 1497 3097 1228 2736 
Q 959 2375 959 1747 
Q 959 1119 1226 758 
Q 1494 397 1959 397 
Q 2419 397 2687 759 
Q 2956 1122 2956 1747 
Q 2956 2369 2687 2733 
Q 2419 3097 1959 3097 
z
M 1959 3584 
Q 2709 3584 3137 3096 
Q 3566 2609 3566 1747 
Q 3566 888 3137 398 
Q 2709 -91 1959 -91 
Q 1206 -91 779 398 
Q 353 888 353 1747 
Q 353 2609 779 3096 
Q 1206 3584 1959 3584 
z
" transform="scale(0.015625)"/>
       <path id="DejaVuSans-73" d="M 2834 3397 
L 2834 2853 
Q 2591 2978 2328 3040 
Q 2066 3103 1784 3103 
Q 1356 3103 1142 2972 
Q 928 2841 928 2578 
Q 928 2378 1081 2264 
Q 1234 2150 1697 2047 
L 1894 2003 
Q 2506 1872 2764 1633 
Q 3022 1394 3022 966 
Q 3022 478 2636 193 
Q 2250 -91 1575 -91 
Q 1294 -91 989 -36 
Q 684 19 347 128 
L 347 722 
Q 666 556 975 473 
Q 1284 391 1588 391 
Q 1994 391 2212 530 
Q 2431 669 2431 922 
Q 2431 1156 2273 1281 
Q 2116 1406 1581 1522 
L 1381 1569 
Q 847 1681 609 1914 
Q 372 2147 372 2553 
Q 372 3047 722 3315 
Q 1072 3584 1716 3584 
Q 2034 3584 2315 3537 
Q 2597 3491 2834 3397 
z
" transform="scale(0.015625)"/>
      </defs>
      <use xlink:href="#DejaVuSans-47"/>
      <use xlink:href="#DejaVuSans-65" x="77.490234"/>
      <use xlink:href="#DejaVuSans-6e" x="139.013672"/>
      <use xlink:href="#DejaVuSans-65" x="202.392578"/>
      <use xlink:href="#DejaVuSans-72" x="263.916016"/>
      <use xlink:href="#DejaVuSans-61" x="305.029297"/>
      <use xlink:href="#DejaVuSans-74" x="366.308594"/>
      <use xlink:href="#DejaVuSans-69" x="405.517578"/>
      <use xlink:href="#DejaVuSans-6f" x="433.300781"/>
      <use xlink:href="#DejaVuSans-6e" x="494.482422"/>
      <use xlink:href="#DejaVuSans-73" x="557.861328"/>
     </g>
    </g>
   </g>
   <g id="matplotlib.axis_2">
    <g id="ytick_1">
     <g id="line2d_7">
      <defs>
       <path id="m8c393e0dfa" d="M 0 0 
L -3.5 0 
" style="stroke: #000000; stroke-width: 0.8"/>
      </defs>
      <g>
       <use xlink:href="#m8c393e0dfa" x="57.6" y="307.584" style="stroke: #000000; stroke-width: 0.8"/>
      </g>
     </g>
     <g id="text_8">
      <!-- 0 -->
      <g transform="translate(44.2375 311.383219) scale(0.1 -0.1)">
       <use xlink:href="#DejaVuSans-30"/>
      </g>
     </g>
    </g>
    <g id="ytick_2">
     <g id="line2d_8">
      <g>
       <use xlink:href="#m8c393e0dfa" x="57.6" y="258.37235" style="stroke: #000000; stroke-width: 0.8"/>
      </g>
     </g>
     <g id="text_9">
      <!-- 20 -->
      <g transform="translate(37.875 262.171568) scale(0.1 -0.1)">
       <use xlink:href="#DejaVuSans-32"/>
       <use xlink:href="#DejaVuSans-30" x="63.623047"/>
      </g>
     </g>
    </g>
    <g id="ytick_3">
     <g id="line2d_9">
      <g>
       <use xlink:href="#m8c393e0dfa" x="57.6" y="209.160699" style="stroke: #000000; stroke-width: 0.8"/>
      </g>
     </g>
     <g id="text_10">
      <!-- 40 -->
      <g transform="translate(37.875 212.959918) scale(0.1 -0.1)">
       <use xlink:href="#DejaVuSans-34"/>
       <use xlink:href="#DejaVuSans-30" x="63.623047"/>
      </g>
     </g>
    </g>
    <g id="ytick_4">
     <g id="line2d_10">
      <g>
       <use xlink:href="#m8c393e0dfa" x="57.6" y="159.949049" style="stroke: #000000; stroke-width: 0.8"/>
      </g>
     </g>
     <g id="text_11">
      <!-- 60 -->
      <g transform="translate(37.875 163.748267) scale(0.1 -0.1)">
       <defs>
        <path id="DejaVuSans-36" d="M 2113 2584 
Q 1688 2584 1439 2293 
Q 1191 2003 1191 1497 
Q 1191 994 1439 701 
Q 1688 409 2113 409 
Q 2538 409 2786 701 
Q 3034 994 3034 1497 
Q 3034 2003 2786 2293 
Q 2538 2584 2113 2584 
z
M 3366 4563 
L 3366 3988 
Q 3128 4100 2886 4159 
Q 2644 4219 2406 4219 
Q 1781 4219 1451 3797 
Q 1122 3375 1075 2522 
Q 1259 2794 1537 2939 
Q 1816 3084 2150 3084 
Q 2853 3084 3261 2657 
Q 3669 2231 3669 1497 
Q 3669 778 3244 343 
Q 2819 -91 2113 -91 
Q 1303 -91 875 529 
Q 447 1150 447 2328 
Q 447 3434 972 4092 
Q 1497 4750 2381 4750 
Q 2619 4750 2861 4703 
Q 3103 4656 3366 4563 
z
" transform="scale(0.015625)"/>
       </defs>
       <use xlink:href="#DejaVuSans-36"/>
       <use xlink:href="#DejaVuSans-30" x="63.623047"/>
      </g>
     </g>
    </g>
    <g id="ytick_5">
     <g id="line2d_11">
      <g>
       <use xlink:href="#m8c393e0dfa" x="57.6" y="110.737398" style="stroke: #000000; stroke-width: 0.8"/>
      </g>
     </g>
     <g id="text_12">
      <!-- 80 -->
      <g transform="translate(37.875 114.536617) scale(0.1 -0.1)">
       <defs>
        <path id="DejaVuSans-38" d="M 2034 2216 
Q 1584 2216 1326 1975 
Q 1069 1734 1069 1313 
Q 1069 891 1326 650 
Q 1584 409 2034 409 
Q 2484 409 2743 651 
Q 3003 894 3003 1313 
Q 3003 1734 2745 1975 
Q 2488 2216 2034 2216 
z
M 1403 2484 
Q 997 2584 770 2862 
Q 544 3141 544 3541 
Q 544 4100 942 4425 
Q 1341 4750 2034 4750 
Q 2731 4750 3128 4425 
Q 3525 4100 3525 3541 
Q 3525 3141 3298 2862 
Q 3072 2584 2669 2484 
Q 3125 2378 3379 2068 
Q 3634 1759 3634 1313 
Q 3634 634 3220 271 
Q 2806 -91 2034 -91 
Q 1263 -91 848 271 
Q 434 634 434 1313 
Q 434 1759 690 2068 
Q 947 2378 1403 2484 
z
M 1172 3481 
Q 1172 3119 1398 2916 
Q 1625 2713 2034 2713 
Q 2441 2713 2670 2916 
Q 2900 3119 2900 3481 
Q 2900 3844 2670 4047 
Q 2441 4250 2034 4250 
Q 1625 4250 1398 4047 
Q 1172 3844 1172 3481 
z
" transform="scale(0.015625)"/>
       </defs>
       <use xlink:href="#DejaVuSans-38"/>
       <use xlink:href="#DejaVuSans-30" x="63.623047"/>
      </g>
     </g>
    </g>
    <g id="ytick_6">
     <g id="line2d_12">
      <g>
       <use xlink:href="#m8c393e0dfa" x="57.6" y="61.525748" style="stroke: #000000; stroke-width: 0.8"/>
      </g>
     </g>
     <g id="text_13">
      <!-- 100 -->
      <g transform="translate(31.5125 65.324966) scale(0.1 -0.1)">
       <use xlink:href="#DejaVuSans-31"/>
       <use xlink:href="#DejaVuSans-30" x="63.623047"/>
       <use xlink:href="#DejaVuSans-30" x="127.246094"/>
      </g>
     </g>
    </g>
    <g id="text_14">
     <!-- Size per Species -->
     <g transform="translate(25.432812 215.520969) rotate(-90) scale(0.1 -0.1)">
      <defs>
       <path id="DejaVuSans-53" d="M 3425 4513 
L 3425 3897 
Q 3066 4069 2747 4153 
Q 2428 4238 2131 4238 
Q 1616 4238 1336 4038 
Q 1056 3838 1056 3469 
Q 1056 3159 1242 3001 
Q 1428 2844 1947 2747 
L 2328 2669 
Q 3034 2534 3370 2195 
Q 3706 1856 3706 1288 
Q 3706 609 3251 259 
Q 2797 -91 1919 -91 
Q 1588 -91 1214 -16 
Q 841 59 441 206 
L 441 856 
Q 825 641 1194 531 
Q 1563 422 1919 422 
Q 2459 422 2753 634 
Q 3047 847 3047 1241 
Q 3047 1584 2836 1778 
Q 2625 1972 2144 2069 
L 1759 2144 
Q 1053 2284 737 2584 
Q 422 2884 422 3419 
Q 422 4038 858 4394 
Q 1294 4750 2059 4750 
Q 2388 4750 2728 4690 
Q 3069 4631 3425 4513 
z
" transform="scale(0.015625)"/>
       <path id="DejaVuSans-7a" d="M 353 3500 
L 3084 3500 
L 3084 2975 
L 922 459 
L 3084 459 
L 3084 0 
L 275 0 
L 275 525 
L 2438 3041 
L 353 3041 
L 353 3500 
z
" transform="scale(0.015625)"/>
       <path id="DejaVuSans-20" transform="scale(0.015625)"/>
       <path id="DejaVuSans-70" d="M 1159 525 
L 1159 -1331 
L 581 -1331 
L 581 3500 
L 1159 3500 
L 1159 2969 
Q 1341 3281 1617 3432 
Q 1894 3584 2278 3584 
Q 2916 3584 3314 3078 
Q 3713 2572 3713 1747 
Q 3713 922 3314 415 
Q 2916 -91 2278 -91 
Q 1894 -91 1617 61 
Q 1341 213 1159 525 
z
M 3116 1747 
Q 3116 2381 2855 2742 
Q 2594 3103 2138 3103 
Q 1681 3103 1420 2742 
Q 1159 2381 1159 1747 
Q 1159 1113 1420 752 
Q 1681 391 2138 391 
Q 2594 391 2855 752 
Q 3116 1113 3116 1747 
z
" transform="scale(0.015625)"/>
       <path id="DejaVuSans-63" d="M 3122 3366 
L 3122 2828 
Q 2878 2963 2633 3030 
Q 2388 3097 2138 3097 
Q 1578 3097 1268 2742 
Q 959 2388 959 1747 
Q 959 1106 1268 751 
Q 1578 397 2138 397 
Q 2388 397 2633 464 
Q 2878 531 3122 666 
L 3122 134 
Q 2881 22 2623 -34 
Q 2366 -91 2075 -91 
Q 1284 -91 818 406 
Q 353 903 353 1747 
Q 353 2603 823 3093 
Q 1294 3584 2113 3584 
Q 2378 3584 2631 3529 
Q 2884 3475 3122 3366 
z
" transform="scale(0.015625)"/>
      </defs>
      <use xlink:href="#DejaVuSans-53"/>
      <use xlink:href="#DejaVuSans-69" x="63.476562"/>
      <use xlink:href="#DejaVuSans-7a" x="91.259766"/>
      <use xlink:href="#DejaVuSans-65" x="143.75"/>
      <use xlink:href="#DejaVuSans-20" x="205.273438"/>
      <use xlink:href="#DejaVuSans-70" x="237.060547"/>
      <use xlink:href="#DejaVuSans-65" x="300.537109"/>
      <use xlink:href="#DejaVuSans-72" x="362.060547"/>
      <use xlink:href="#DejaVuSans-20" x="403.173828"/>
      <use xlink:href="#DejaVuSans-53" x="434.960938"/>
      <use xlink:href="#DejaVuSans-70" x="498.4375"/>
      <use xlink:href="#DejaVuSans-65" x="561.914062"/>
      <use xlink:href="#DejaVuSans-63" x="623.4375"/>
      <use xlink:href="#DejaVuSans-69" x="678.417969"/>
      <use xlink:href="#DejaVuSans-65" x="706.201172"/>
      <use xlink:href="#DejaVuSans-73" x="767.724609"/>
     </g>
    </g>
   </g>
   <g id="patch_3">
    <path d="M 57.6 307.584 
L 57.6 41.472 
" style="fill: none; stroke: #000000; stroke-width: 0.8; stroke-linejoin: miter; stroke-linecap: square"/>
   </g>
   <g id="patch_4">
    <path d="M 414.72 307.584 
L 414.72 41.472 
" style="fill: none; stroke: #000000; stroke-width: 0.8; stroke-linejoin: miter; stroke-linecap: square"/>
   </g>
   <g id="patch_5">
    <path d="M 57.6 307.584 
L 414.72 307.584 
" style="fill: none; stroke: #000000; stroke-width: 0.8; stroke-linejoin: miter; stroke-linecap: square"/>
   </g>
   <g id="patch_6">
    <path d="M 57.6 41.472 
L 414.72 41.472 
" style="fill: none; stroke: #000000; stroke-width: 0.8; stroke-linejoin: miter; stroke-linecap: square"/>
   </g>
   <g id="text_15">
    <!-- Speciation -->
    <g transform="translate(204.714375 35.472) scale(0.12 -0.12)">
     <use xlink:href="#DejaVuSans-53"/>
     <use xlink:href="#DejaVuSans-70" x="63.476562"/>
     <use xlink:href="#DejaVuSans-65" x="126.953125"/>
     <use xlink:href="#DejaVuSans-63" x="188.476562"/>
     <use xlink:href="#DejaVuSans-69" x="243.457031"/>
     <use xlink:href="#DejaVuSans-61" x="271.240234"/>
     <use xlink:href="#DejaVuSans-74" x="332.519531"/>
     <use xlink:href="#DejaVuSans-69" x="371.728516"/>
     <use xlink:href="#DejaVuSans-6f" x="399.511719"/>
     <use xlink:href="#DejaVuSans-6e" x="460.693359"/>
    </g>
   </g>
  </g>
 </g>
 <defs>
  <clipPath id="p0fc5df3dbf">
   <rect x="57.6" y="41.472" width="357.12" height="266.112"/>
  </clipPath>
 </defs>
</svg>
