<?xml version="1.0" encoding="utf-8" standalone="no"?>
<!DOCTYPE svg PUBLIC "-//W3C//DTD SVG 1.1//EN"
  "http://www.w3.org/Graphics/SVG/1.1/DTD/svg11.dtd">
<svg xmlns:xlink="http://www.w3.org/1999/xlink" width="460.8pt" height="345.6pt" viewBox="0 0 460.8 345.6" xmlns="http://www.w3.org/2000/svg" version="1.1">
 <metadata>
  <rdf:RDF xmlns:dc="http://purl.org/dc/elements/1.1/" xmlns:cc="http://creativecommons.org/ns#" xmlns:rdf="http://www.w3.org/1999/02/22-rdf-syntax-ns#">
   <cc:Work>
    <dc:type rdf:resource="http://purl.org/dc/dcmitype/StillImage"/>
    <dc:date>2023-12-08T17:36:54.779152</dc:date>
    <dc:format>image/svg+xml</dc:format>
    <dc:creator>
     <cc:Agent>
      <dc:title>Matplotlib v3.6.3, https://matplotlib.org/</dc:title>
     </cc:Agent>
    </dc:creator>
   </cc:Work>
  </rdf:RDF>
 </metadata>
 <defs>
  <style type="text/css">*{stroke-linejoin: round; stroke-linecap: butt}</style>
 </defs>
 <g id="figure_1">
  <g id="patch_1">
   <path d="M 0 345.6 
L 460.8 345.6 
L 460.8 0 
L 0 0 
z
" style="fill: #ffffff"/>
  </g>
  <g id="axes_1">
   <g id="patch_2">
    <path d="M 57.6 307.584 
L 414.72 307.584 
L 414.72 41.472 
L 57.6 41.472 
z
" style="fill: #ffffff"/>
   </g>
   <g id="PolyCollection_1">
    <path d="M 73.832727 228.073412 
L 73.832727 307.584 
L 77.112066 307.584 
L 80.391405 307.584 
L 83.670744 307.584 
L 86.950083 307.584 
L 90.229421 307.584 
L 93.50876 307.584 
L 96.788099 307.584 
L 100.067438 307.584 
L 103.346777 307.584 
L 106.626116 307.584 
L 109.905455 307.584 
L 113.184793 307.584 
L 116.464132 307.584 
L 119.743471 307.584 
L 123.02281 307.584 
L 126.302149 307.584 
L 129.581488 307.584 
L 132.860826 307.584 
L 136.140165 307.584 
L 139.419504 307.584 
L 142.698843 307.584 
L 145.978182 307.584 
L 149.257521 307.584 
L 152.53686 307.584 
L 155.816198 307.584 
L 159.095537 307.584 
L 162.374876 307.584 
L 165.654215 307.584 
L 168.933554 307.584 
L 172.212893 307.584 
L 175.492231 307.584 
L 178.77157 307.584 
L 182.050909 307.584 
L 185.330248 307.584 
L 188.609587 307.584 
L 191.888926 307.584 
L 195.168264 307.584 
L 198.447603 307.584 
L 201.726942 307.584 
L 205.006281 307.584 
L 208.28562 307.584 
L 211.564959 307.584 
L 214.844298 307.584 
L 218.123636 307.584 
L 221.402975 307.584 
L 224.682314 307.584 
L 227.961653 307.584 
L 231.240992 307.584 
L 234.520331 307.584 
L 237.799669 307.584 
L 241.079008 307.584 
L 244.358347 307.584 
L 247.637686 307.584 
L 250.917025 307.584 
L 254.196364 307.584 
L 257.475702 307.584 
L 260.755041 307.584 
L 264.03438 307.584 
L 267.313719 307.584 
L 270.593058 307.584 
L 273.872397 307.584 
L 277.151736 307.584 
L 280.431074 307.584 
L 283.710413 307.584 
L 286.989752 307.584 
L 290.269091 307.584 
L 293.54843 307.584 
L 296.827769 307.584 
L 300.107107 307.584 
L 303.386446 307.584 
L 306.665785 307.584 
L 309.945124 307.584 
L 313.224463 307.584 
L 316.503802 307.584 
L 319.78314 307.584 
L 323.062479 307.584 
L 326.341818 307.584 
L 329.621157 307.584 
L 332.900496 307.584 
L 336.179835 307.584 
L 339.459174 307.584 
L 342.738512 307.584 
L 346.017851 307.584 
L 349.29719 307.584 
L 352.576529 307.584 
L 355.855868 307.584 
L 359.135207 307.584 
L 362.414545 307.584 
L 365.693884 307.584 
L 368.973223 307.584 
L 372.252562 307.584 
L 375.531901 307.584 
L 378.81124 307.584 
L 382.090579 307.584 
L 385.369917 307.584 
L 388.649256 307.584 
L 391.928595 307.584 
L 395.207934 307.584 
L 398.487273 307.584 
L 398.487273 223.104 
L 398.487273 223.104 
L 395.207934 215.649882 
L 391.928595 225.588706 
L 388.649256 230.558118 
L 385.369917 242.981647 
L 382.090579 223.104 
L 378.81124 233.042824 
L 375.531901 233.042824 
L 372.252562 233.042824 
L 368.973223 228.073412 
L 365.693884 240.496941 
L 362.414545 235.527529 
L 359.135207 235.527529 
L 355.855868 228.073412 
L 352.576529 225.588706 
L 349.29719 228.073412 
L 346.017851 228.073412 
L 342.738512 210.680471 
L 339.459174 225.588706 
L 336.179835 215.649882 
L 332.900496 213.165176 
L 329.621157 233.042824 
L 326.341818 228.073412 
L 323.062479 247.951059 
L 319.78314 223.104 
L 316.503802 215.649882 
L 313.224463 208.195765 
L 309.945124 198.256941 
L 306.665785 188.318118 
L 303.386446 198.256941 
L 300.107107 208.195765 
L 296.827769 238.012235 
L 293.54843 230.558118 
L 290.269091 230.558118 
L 286.989752 238.012235 
L 283.710413 233.042824 
L 280.431074 230.558118 
L 277.151736 238.012235 
L 273.872397 235.527529 
L 270.593058 235.527529 
L 267.313719 235.527529 
L 264.03438 228.073412 
L 260.755041 218.134588 
L 257.475702 223.104 
L 254.196364 228.073412 
L 250.917025 238.012235 
L 247.637686 242.981647 
L 244.358347 252.920471 
L 241.079008 245.466353 
L 237.799669 228.073412 
L 234.520331 230.558118 
L 231.240992 233.042824 
L 227.961653 220.619294 
L 224.682314 242.981647 
L 221.402975 238.012235 
L 218.123636 230.558118 
L 214.844298 238.012235 
L 211.564959 242.981647 
L 208.28562 240.496941 
L 205.006281 225.588706 
L 201.726942 230.558118 
L 198.447603 238.012235 
L 195.168264 223.104 
L 191.888926 213.165176 
L 188.609587 190.802824 
L 185.330248 215.649882 
L 182.050909 198.256941 
L 178.77157 198.256941 
L 175.492231 173.409882 
L 172.212893 208.195765 
L 168.933554 188.318118 
L 165.654215 228.073412 
L 162.374876 230.558118 
L 159.095537 233.042824 
L 155.816198 230.558118 
L 152.53686 245.466353 
L 149.257521 238.012235 
L 145.978182 257.889882 
L 142.698843 210.680471 
L 139.419504 252.920471 
L 136.140165 245.466353 
L 132.860826 247.951059 
L 129.581488 257.889882 
L 126.302149 260.374588 
L 123.02281 252.920471 
L 119.743471 252.920471 
L 116.464132 235.527529 
L 113.184793 245.466353 
L 109.905455 242.981647 
L 106.626116 242.981647 
L 103.346777 252.920471 
L 100.067438 257.889882 
L 96.788099 245.466353 
L 93.50876 228.073412 
L 90.229421 233.042824 
L 86.950083 233.042824 
L 83.670744 228.073412 
L 80.391405 218.134588 
L 77.112066 225.588706 
L 73.832727 228.073412 
z
" clip-path="url(#pb1dac05505)" style="fill: #1f77b4"/>
   </g>
   <g id="PolyCollection_2">
    <path d="M 73.832727 228.073412 
L 73.832727 228.073412 
L 77.112066 225.588706 
L 80.391405 218.134588 
L 83.670744 228.073412 
L 86.950083 233.042824 
L 90.229421 233.042824 
L 93.50876 228.073412 
L 96.788099 245.466353 
L 100.067438 257.889882 
L 103.346777 252.920471 
L 106.626116 242.981647 
L 109.905455 242.981647 
L 113.184793 245.466353 
L 116.464132 235.527529 
L 119.743471 252.920471 
L 123.02281 252.920471 
L 126.302149 260.374588 
L 129.581488 257.889882 
L 132.860826 247.951059 
L 136.140165 245.466353 
L 139.419504 252.920471 
L 142.698843 210.680471 
L 145.978182 257.889882 
L 149.257521 238.012235 
L 152.53686 245.466353 
L 155.816198 230.558118 
L 159.095537 233.042824 
L 162.374876 230.558118 
L 165.654215 228.073412 
L 168.933554 188.318118 
L 172.212893 208.195765 
L 175.492231 173.409882 
L 178.77157 198.256941 
L 182.050909 198.256941 
L 185.330248 215.649882 
L 188.609587 190.802824 
L 191.888926 213.165176 
L 195.168264 223.104 
L 198.447603 238.012235 
L 201.726942 230.558118 
L 205.006281 225.588706 
L 208.28562 240.496941 
L 211.564959 242.981647 
L 214.844298 238.012235 
L 218.123636 230.558118 
L 221.402975 238.012235 
L 224.682314 242.981647 
L 227.961653 220.619294 
L 231.240992 233.042824 
L 234.520331 230.558118 
L 237.799669 228.073412 
L 241.079008 245.466353 
L 244.358347 252.920471 
L 247.637686 242.981647 
L 250.917025 238.012235 
L 254.196364 228.073412 
L 257.475702 223.104 
L 260.755041 218.134588 
L 264.03438 228.073412 
L 267.313719 235.527529 
L 270.593058 235.527529 
L 273.872397 235.527529 
L 277.151736 238.012235 
L 280.431074 230.558118 
L 283.710413 233.042824 
L 286.989752 238.012235 
L 290.269091 230.558118 
L 293.54843 230.558118 
L 296.827769 238.012235 
L 300.107107 208.195765 
L 303.386446 198.256941 
L 306.665785 188.318118 
L 309.945124 198.256941 
L 313.224463 208.195765 
L 316.503802 215.649882 
L 319.78314 223.104 
L 323.062479 247.951059 
L 326.341818 228.073412 
L 329.621157 233.042824 
L 332.900496 213.165176 
L 336.179835 215.649882 
L 339.459174 225.588706 
L 342.738512 210.680471 
L 346.017851 228.073412 
L 349.29719 228.073412 
L 352.576529 225.588706 
L 355.855868 228.073412 
L 359.135207 235.527529 
L 362.414545 235.527529 
L 365.693884 240.496941 
L 368.973223 228.073412 
L 372.252562 233.042824 
L 375.531901 233.042824 
L 378.81124 233.042824 
L 382.090579 223.104 
L 385.369917 242.981647 
L 388.649256 230.558118 
L 391.928595 225.588706 
L 395.207934 215.649882 
L 398.487273 223.104 
L 398.487273 223.104 
L 398.487273 223.104 
L 395.207934 215.649882 
L 391.928595 225.588706 
L 388.649256 230.558118 
L 385.369917 242.981647 
L 382.090579 223.104 
L 378.81124 233.042824 
L 375.531901 233.042824 
L 372.252562 233.042824 
L 368.973223 228.073412 
L 365.693884 240.496941 
L 362.414545 235.527529 
L 359.135207 235.527529 
L 355.855868 228.073412 
L 352.576529 225.588706 
L 349.29719 228.073412 
L 346.017851 228.073412 
L 342.738512 210.680471 
L 339.459174 225.588706 
L 336.179835 215.649882 
L 332.900496 213.165176 
L 329.621157 233.042824 
L 326.341818 228.073412 
L 323.062479 247.951059 
L 319.78314 223.104 
L 316.503802 215.649882 
L 313.224463 208.195765 
L 309.945124 198.256941 
L 306.665785 188.318118 
L 303.386446 198.256941 
L 300.107107 208.195765 
L 296.827769 238.012235 
L 293.54843 230.558118 
L 290.269091 230.558118 
L 286.989752 238.012235 
L 283.710413 233.042824 
L 280.431074 230.558118 
L 277.151736 238.012235 
L 273.872397 235.527529 
L 270.593058 235.527529 
L 267.313719 235.527529 
L 264.03438 228.073412 
L 260.755041 218.134588 
L 257.475702 223.104 
L 254.196364 228.073412 
L 250.917025 238.012235 
L 247.637686 242.981647 
L 244.358347 252.920471 
L 241.079008 245.466353 
L 237.799669 228.073412 
L 234.520331 230.558118 
L 231.240992 233.042824 
L 227.961653 220.619294 
L 224.682314 242.981647 
L 221.402975 238.012235 
L 218.123636 230.558118 
L 214.844298 238.012235 
L 211.564959 242.981647 
L 208.28562 240.496941 
L 205.006281 225.588706 
L 201.726942 230.558118 
L 198.447603 238.012235 
L 195.168264 223.104 
L 191.888926 213.165176 
L 188.609587 190.802824 
L 185.330248 215.649882 
L 182.050909 198.256941 
L 178.77157 198.256941 
L 175.492231 173.409882 
L 172.212893 208.195765 
L 168.933554 188.318118 
L 165.654215 228.073412 
L 162.374876 230.558118 
L 159.095537 233.042824 
L 155.816198 230.558118 
L 152.53686 245.466353 
L 149.257521 238.012235 
L 145.978182 257.889882 
L 142.698843 210.680471 
L 139.419504 252.920471 
L 136.140165 245.466353 
L 132.860826 247.951059 
L 129.581488 257.889882 
L 126.302149 260.374588 
L 123.02281 252.920471 
L 119.743471 252.920471 
L 116.464132 235.527529 
L 113.184793 245.466353 
L 109.905455 242.981647 
L 106.626116 242.981647 
L 103.346777 252.920471 
L 100.067438 257.889882 
L 96.788099 245.466353 
L 93.50876 228.073412 
L 90.229421 233.042824 
L 86.950083 233.042824 
L 83.670744 228.073412 
L 80.391405 218.134588 
L 77.112066 225.588706 
L 73.832727 228.073412 
z
" clip-path="url(#pb1dac05505)" style="fill: #ff7f0e"/>
   </g>
   <g id="PolyCollection_3">
    <path d="M 73.832727 131.169882 
L 73.832727 228.073412 
L 77.112066 225.588706 
L 80.391405 218.134588 
L 83.670744 228.073412 
L 86.950083 233.042824 
L 90.229421 233.042824 
L 93.50876 228.073412 
L 96.788099 245.466353 
L 100.067438 257.889882 
L 103.346777 252.920471 
L 106.626116 242.981647 
L 109.905455 242.981647 
L 113.184793 245.466353 
L 116.464132 235.527529 
L 119.743471 252.920471 
L 123.02281 252.920471 
L 126.302149 260.374588 
L 129.581488 257.889882 
L 132.860826 247.951059 
L 136.140165 245.466353 
L 139.419504 252.920471 
L 142.698843 210.680471 
L 145.978182 257.889882 
L 149.257521 238.012235 
L 152.53686 245.466353 
L 155.816198 230.558118 
L 159.095537 233.042824 
L 162.374876 230.558118 
L 165.654215 228.073412 
L 168.933554 188.318118 
L 172.212893 208.195765 
L 175.492231 173.409882 
L 178.77157 198.256941 
L 182.050909 198.256941 
L 185.330248 215.649882 
L 188.609587 190.802824 
L 191.888926 213.165176 
L 195.168264 223.104 
L 198.447603 238.012235 
L 201.726942 230.558118 
L 205.006281 225.588706 
L 208.28562 240.496941 
L 211.564959 242.981647 
L 214.844298 238.012235 
L 218.123636 230.558118 
L 221.402975 238.012235 
L 224.682314 242.981647 
L 227.961653 220.619294 
L 231.240992 233.042824 
L 234.520331 230.558118 
L 237.799669 228.073412 
L 241.079008 245.466353 
L 244.358347 252.920471 
L 247.637686 242.981647 
L 250.917025 238.012235 
L 254.196364 228.073412 
L 257.475702 223.104 
L 260.755041 218.134588 
L 264.03438 228.073412 
L 267.313719 235.527529 
L 270.593058 235.527529 
L 273.872397 235.527529 
L 277.151736 238.012235 
L 280.431074 230.558118 
L 283.710413 233.042824 
L 286.989752 238.012235 
L 290.269091 230.558118 
L 293.54843 230.558118 
L 296.827769 238.012235 
L 300.107107 208.195765 
L 303.386446 198.256941 
L 306.665785 188.318118 
L 309.945124 198.256941 
L 313.224463 208.195765 
L 316.503802 215.649882 
L 319.78314 223.104 
L 323.062479 247.951059 
L 326.341818 228.073412 
L 329.621157 233.042824 
L 332.900496 213.165176 
L 336.179835 215.649882 
L 339.459174 225.588706 
L 342.738512 210.680471 
L 346.017851 228.073412 
L 349.29719 228.073412 
L 352.576529 225.588706 
L 355.855868 228.073412 
L 359.135207 235.527529 
L 362.414545 235.527529 
L 365.693884 240.496941 
L 368.973223 228.073412 
L 372.252562 233.042824 
L 375.531901 233.042824 
L 378.81124 233.042824 
L 382.090579 223.104 
L 385.369917 242.981647 
L 388.649256 230.558118 
L 391.928595 225.588706 
L 395.207934 215.649882 
L 398.487273 223.104 
L 398.487273 138.624 
L 398.487273 138.624 
L 395.207934 141.108706 
L 391.928595 148.562824 
L 388.649256 148.562824 
L 385.369917 138.624 
L 382.090579 136.139294 
L 378.81124 141.108706 
L 375.531901 138.624 
L 372.252562 146.078118 
L 368.973223 146.078118 
L 365.693884 151.047529 
L 362.414545 148.562824 
L 359.135207 148.562824 
L 355.855868 146.078118 
L 352.576529 141.108706 
L 349.29719 141.108706 
L 346.017851 136.139294 
L 342.738512 131.169882 
L 339.459174 136.139294 
L 336.179835 136.139294 
L 332.900496 126.200471 
L 329.621157 136.139294 
L 326.341818 133.654588 
L 323.062479 131.169882 
L 319.78314 118.746353 
L 316.503802 113.776941 
L 313.224463 101.353412 
L 309.945124 78.991059 
L 306.665785 64.082824 
L 303.386446 59.113412 
L 300.107107 76.506353 
L 296.827769 143.593412 
L 293.54843 148.562824 
L 290.269091 153.532235 
L 286.989752 143.593412 
L 283.710413 156.016941 
L 280.431074 151.047529 
L 277.151736 151.047529 
L 273.872397 151.047529 
L 270.593058 158.501647 
L 267.313719 143.593412 
L 264.03438 138.624 
L 260.755041 151.047529 
L 257.475702 148.562824 
L 254.196364 158.501647 
L 250.917025 160.986353 
L 247.637686 175.894588 
L 244.358347 168.440471 
L 241.079008 153.532235 
L 237.799669 158.501647 
L 234.520331 153.532235 
L 231.240992 148.562824 
L 227.961653 146.078118 
L 224.682314 143.593412 
L 221.402975 146.078118 
L 218.123636 151.047529 
L 214.844298 156.016941 
L 211.564959 156.016941 
L 208.28562 151.047529 
L 205.006281 148.562824 
L 201.726942 146.078118 
L 198.447603 153.532235 
L 195.168264 123.715765 
L 191.888926 108.807529 
L 188.609587 98.868706 
L 185.330248 101.353412 
L 182.050909 101.353412 
L 178.77157 91.414588 
L 175.492231 76.506353 
L 172.212893 74.021647 
L 168.933554 69.052235 
L 165.654215 163.471059 
L 162.374876 165.955765 
L 159.095537 151.047529 
L 155.816198 156.016941 
L 152.53686 158.501647 
L 149.257521 151.047529 
L 145.978182 190.802824 
L 142.698843 123.715765 
L 139.419504 146.078118 
L 136.140165 173.409882 
L 132.860826 188.318118 
L 129.581488 210.680471 
L 126.302149 200.741647 
L 123.02281 183.348706 
L 119.743471 205.711059 
L 116.464132 178.379294 
L 113.184793 200.741647 
L 109.905455 188.318118 
L 106.626116 198.256941 
L 103.346777 185.833412 
L 100.067438 190.802824 
L 96.788099 153.532235 
L 93.50876 148.562824 
L 90.229421 143.593412 
L 86.950083 151.047529 
L 83.670744 136.139294 
L 80.391405 138.624 
L 77.112066 141.108706 
L 73.832727 131.169882 
z
" clip-path="url(#pb1dac05505)" style="fill: #2ca02c"/>
   </g>
   <g id="PolyCollection_4">
    <path d="M 73.832727 131.169882 
L 73.832727 131.169882 
L 77.112066 141.108706 
L 80.391405 138.624 
L 83.670744 136.139294 
L 86.950083 151.047529 
L 90.229421 143.593412 
L 93.50876 148.562824 
L 96.788099 153.532235 
L 100.067438 190.802824 
L 103.346777 185.833412 
L 106.626116 198.256941 
L 109.905455 188.318118 
L 113.184793 200.741647 
L 116.464132 178.379294 
L 119.743471 205.711059 
L 123.02281 183.348706 
L 126.302149 200.741647 
L 129.581488 210.680471 
L 132.860826 188.318118 
L 136.140165 173.409882 
L 139.419504 146.078118 
L 142.698843 123.715765 
L 145.978182 190.802824 
L 149.257521 151.047529 
L 152.53686 158.501647 
L 155.816198 156.016941 
L 159.095537 151.047529 
L 162.374876 165.955765 
L 165.654215 163.471059 
L 168.933554 69.052235 
L 172.212893 74.021647 
L 175.492231 76.506353 
L 178.77157 91.414588 
L 182.050909 101.353412 
L 185.330248 101.353412 
L 188.609587 98.868706 
L 191.888926 108.807529 
L 195.168264 123.715765 
L 198.447603 153.532235 
L 201.726942 146.078118 
L 205.006281 148.562824 
L 208.28562 151.047529 
L 211.564959 156.016941 
L 214.844298 156.016941 
L 218.123636 151.047529 
L 221.402975 146.078118 
L 224.682314 143.593412 
L 227.961653 146.078118 
L 231.240992 148.562824 
L 234.520331 153.532235 
L 237.799669 158.501647 
L 241.079008 153.532235 
L 244.358347 168.440471 
L 247.637686 175.894588 
L 250.917025 160.986353 
L 254.196364 158.501647 
L 257.475702 148.562824 
L 260.755041 151.047529 
L 264.03438 138.624 
L 267.313719 143.593412 
L 270.593058 158.501647 
L 273.872397 151.047529 
L 277.151736 151.047529 
L 280.431074 151.047529 
L 283.710413 156.016941 
L 286.989752 143.593412 
L 290.269091 153.532235 
L 293.54843 148.562824 
L 296.827769 143.593412 
L 300.107107 76.506353 
L 303.386446 59.113412 
L 306.665785 64.082824 
L 309.945124 78.991059 
L 313.224463 101.353412 
L 316.503802 113.776941 
L 319.78314 118.746353 
L 323.062479 131.169882 
L 326.341818 133.654588 
L 329.621157 136.139294 
L 332.900496 126.200471 
L 336.179835 136.139294 
L 339.459174 136.139294 
L 342.738512 131.169882 
L 346.017851 136.139294 
L 349.29719 141.108706 
L 352.576529 141.108706 
L 355.855868 146.078118 
L 359.135207 148.562824 
L 362.414545 148.562824 
L 365.693884 151.047529 
L 368.973223 146.078118 
L 372.252562 146.078118 
L 375.531901 138.624 
L 378.81124 141.108706 
L 382.090579 136.139294 
L 385.369917 138.624 
L 388.649256 148.562824 
L 391.928595 148.562824 
L 395.207934 141.108706 
L 398.487273 138.624 
L 398.487273 138.624 
L 398.487273 138.624 
L 395.207934 141.108706 
L 391.928595 148.562824 
L 388.649256 148.562824 
L 385.369917 138.624 
L 382.090579 136.139294 
L 378.81124 141.108706 
L 375.531901 138.624 
L 372.252562 146.078118 
L 368.973223 146.078118 
L 365.693884 151.047529 
L 362.414545 148.562824 
L 359.135207 148.562824 
L 355.855868 146.078118 
L 352.576529 141.108706 
L 349.29719 141.108706 
L 346.017851 136.139294 
L 342.738512 131.169882 
L 339.459174 136.139294 
L 336.179835 136.139294 
L 332.900496 126.200471 
L 329.621157 136.139294 
L 326.341818 133.654588 
L 323.062479 131.169882 
L 319.78314 118.746353 
L 316.503802 113.776941 
L 313.224463 101.353412 
L 309.945124 78.991059 
L 306.665785 64.082824 
L 303.386446 59.113412 
L 300.107107 76.506353 
L 296.827769 143.593412 
L 293.54843 148.562824 
L 290.269091 153.532235 
L 286.989752 143.593412 
L 283.710413 156.016941 
L 280.431074 151.047529 
L 277.151736 151.047529 
L 273.872397 151.047529 
L 270.593058 158.501647 
L 267.313719 143.593412 
L 264.03438 138.624 
L 260.755041 151.047529 
L 257.475702 148.562824 
L 254.196364 158.501647 
L 250.917025 160.986353 
L 247.637686 175.894588 
L 244.358347 168.440471 
L 241.079008 153.532235 
L 237.799669 158.501647 
L 234.520331 153.532235 
L 231.240992 148.562824 
L 227.961653 146.078118 
L 224.682314 143.593412 
L 221.402975 146.078118 
L 218.123636 151.047529 
L 214.844298 156.016941 
L 211.564959 156.016941 
L 208.28562 151.047529 
L 205.006281 148.562824 
L 201.726942 146.078118 
L 198.447603 153.532235 
L 195.168264 123.715765 
L 191.888926 108.807529 
L 188.609587 98.868706 
L 185.330248 101.353412 
L 182.050909 101.353412 
L 178.77157 91.414588 
L 175.492231 76.506353 
L 172.212893 74.021647 
L 168.933554 69.052235 
L 165.654215 163.471059 
L 162.374876 165.955765 
L 159.095537 151.047529 
L 155.816198 156.016941 
L 152.53686 158.501647 
L 149.257521 151.047529 
L 145.978182 190.802824 
L 142.698843 123.715765 
L 139.419504 146.078118 
L 136.140165 173.409882 
L 132.860826 188.318118 
L 129.581488 210.680471 
L 126.302149 200.741647 
L 123.02281 183.348706 
L 119.743471 205.711059 
L 116.464132 178.379294 
L 113.184793 200.741647 
L 109.905455 188.318118 
L 106.626116 198.256941 
L 103.346777 185.833412 
L 100.067438 190.802824 
L 96.788099 153.532235 
L 93.50876 148.562824 
L 90.229421 143.593412 
L 86.950083 151.047529 
L 83.670744 136.139294 
L 80.391405 138.624 
L 77.112066 141.108706 
L 73.832727 131.169882 
z
" clip-path="url(#pb1dac05505)" style="fill: #d62728"/>
   </g>
   <g id="PolyCollection_5">
    <path d="M 73.832727 113.776941 
L 73.832727 131.169882 
L 77.112066 141.108706 
L 80.391405 138.624 
L 83.670744 136.139294 
L 86.950083 151.047529 
L 90.229421 143.593412 
L 93.50876 148.562824 
L 96.788099 153.532235 
L 100.067438 190.802824 
L 103.346777 185.833412 
L 106.626116 198.256941 
L 109.905455 188.318118 
L 113.184793 200.741647 
L 116.464132 178.379294 
L 119.743471 205.711059 
L 123.02281 183.348706 
L 126.302149 200.741647 
L 129.581488 210.680471 
L 132.860826 188.318118 
L 136.140165 173.409882 
L 139.419504 146.078118 
L 142.698843 123.715765 
L 145.978182 190.802824 
L 149.257521 151.047529 
L 152.53686 158.501647 
L 155.816198 156.016941 
L 159.095537 151.047529 
L 162.374876 165.955765 
L 165.654215 163.471059 
L 168.933554 69.052235 
L 172.212893 74.021647 
L 175.492231 76.506353 
L 178.77157 91.414588 
L 182.050909 101.353412 
L 185.330248 101.353412 
L 188.609587 98.868706 
L 191.888926 108.807529 
L 195.168264 123.715765 
L 198.447603 153.532235 
L 201.726942 146.078118 
L 205.006281 148.562824 
L 208.28562 151.047529 
L 211.564959 156.016941 
L 214.844298 156.016941 
L 218.123636 151.047529 
L 221.402975 146.078118 
L 224.682314 143.593412 
L 227.961653 146.078118 
L 231.240992 148.562824 
L 234.520331 153.532235 
L 237.799669 158.501647 
L 241.079008 153.532235 
L 244.358347 168.440471 
L 247.637686 175.894588 
L 250.917025 160.986353 
L 254.196364 158.501647 
L 257.475702 148.562824 
L 260.755041 151.047529 
L 264.03438 138.624 
L 267.313719 143.593412 
L 270.593058 158.501647 
L 273.872397 151.047529 
L 277.151736 151.047529 
L 280.431074 151.047529 
L 283.710413 156.016941 
L 286.989752 143.593412 
L 290.269091 153.532235 
L 293.54843 148.562824 
L 296.827769 143.593412 
L 300.107107 76.506353 
L 303.386446 59.113412 
L 306.665785 64.082824 
L 309.945124 78.991059 
L 313.224463 101.353412 
L 316.503802 113.776941 
L 319.78314 118.746353 
L 323.062479 131.169882 
L 326.341818 133.654588 
L 329.621157 136.139294 
L 332.900496 126.200471 
L 336.179835 136.139294 
L 339.459174 136.139294 
L 342.738512 131.169882 
L 346.017851 136.139294 
L 349.29719 141.108706 
L 352.576529 141.108706 
L 355.855868 146.078118 
L 359.135207 148.562824 
L 362.414545 148.562824 
L 365.693884 151.047529 
L 368.973223 146.078118 
L 372.252562 146.078118 
L 375.531901 138.624 
L 378.81124 141.108706 
L 382.090579 136.139294 
L 385.369917 138.624 
L 388.649256 148.562824 
L 391.928595 148.562824 
L 395.207934 141.108706 
L 398.487273 138.624 
L 398.487273 138.624 
L 398.487273 138.624 
L 395.207934 141.108706 
L 391.928595 148.562824 
L 388.649256 148.562824 
L 385.369917 138.624 
L 382.090579 136.139294 
L 378.81124 141.108706 
L 375.531901 138.624 
L 372.252562 146.078118 
L 368.973223 146.078118 
L 365.693884 151.047529 
L 362.414545 148.562824 
L 359.135207 148.562824 
L 355.855868 146.078118 
L 352.576529 141.108706 
L 349.29719 141.108706 
L 346.017851 136.139294 
L 342.738512 131.169882 
L 339.459174 136.139294 
L 336.179835 136.139294 
L 332.900496 126.200471 
L 329.621157 136.139294 
L 326.341818 133.654588 
L 323.062479 131.169882 
L 319.78314 118.746353 
L 316.503802 113.776941 
L 313.224463 101.353412 
L 309.945124 78.991059 
L 306.665785 64.082824 
L 303.386446 59.113412 
L 300.107107 76.506353 
L 296.827769 143.593412 
L 293.54843 148.562824 
L 290.269091 153.532235 
L 286.989752 143.593412 
L 283.710413 156.016941 
L 280.431074 151.047529 
L 277.151736 151.047529 
L 273.872397 151.047529 
L 270.593058 158.501647 
L 267.313719 143.593412 
L 264.03438 138.624 
L 260.755041 151.047529 
L 257.475702 148.562824 
L 254.196364 158.501647 
L 250.917025 160.986353 
L 247.637686 175.894588 
L 244.358347 168.440471 
L 241.079008 153.532235 
L 237.799669 158.501647 
L 234.520331 153.532235 
L 231.240992 148.562824 
L 227.961653 146.078118 
L 224.682314 143.593412 
L 221.402975 146.078118 
L 218.123636 151.047529 
L 214.844298 156.016941 
L 211.564959 156.016941 
L 208.28562 151.047529 
L 205.006281 148.562824 
L 201.726942 146.078118 
L 198.447603 153.532235 
L 195.168264 123.715765 
L 191.888926 108.807529 
L 188.609587 98.868706 
L 185.330248 88.929882 
L 182.050909 88.929882 
L 178.77157 76.506353 
L 175.492231 64.082824 
L 172.212893 59.113412 
L 168.933554 54.144 
L 165.654215 160.986353 
L 162.374876 151.047529 
L 159.095537 138.624 
L 155.816198 141.108706 
L 152.53686 146.078118 
L 149.257521 141.108706 
L 145.978182 185.833412 
L 142.698843 108.807529 
L 139.419504 128.685176 
L 136.140165 160.986353 
L 132.860826 175.894588 
L 129.581488 198.256941 
L 126.302149 190.802824 
L 123.02281 170.925176 
L 119.743471 190.802824 
L 116.464132 163.471059 
L 113.184793 185.833412 
L 109.905455 170.925176 
L 106.626116 185.833412 
L 103.346777 173.409882 
L 100.067438 188.318118 
L 96.788099 138.624 
L 93.50876 136.139294 
L 90.229421 128.685176 
L 86.950083 133.654588 
L 83.670744 123.715765 
L 80.391405 126.200471 
L 77.112066 126.200471 
L 73.832727 113.776941 
z
" clip-path="url(#pb1dac05505)" style="fill: #9467bd"/>
   </g>
   <g id="PolyCollection_6">
    <path d="M 73.832727 96.384 
L 73.832727 113.776941 
L 77.112066 126.200471 
L 80.391405 126.200471 
L 83.670744 123.715765 
L 86.950083 133.654588 
L 90.229421 128.685176 
L 93.50876 136.139294 
L 96.788099 138.624 
L 100.067438 188.318118 
L 103.346777 173.409882 
L 106.626116 185.833412 
L 109.905455 170.925176 
L 113.184793 185.833412 
L 116.464132 163.471059 
L 119.743471 190.802824 
L 123.02281 170.925176 
L 126.302149 190.802824 
L 129.581488 198.256941 
L 132.860826 175.894588 
L 136.140165 160.986353 
L 139.419504 128.685176 
L 142.698843 108.807529 
L 145.978182 185.833412 
L 149.257521 141.108706 
L 152.53686 146.078118 
L 155.816198 141.108706 
L 159.095537 138.624 
L 162.374876 151.047529 
L 165.654215 160.986353 
L 168.933554 54.144 
L 172.212893 59.113412 
L 175.492231 64.082824 
L 178.77157 76.506353 
L 182.050909 88.929882 
L 185.330248 88.929882 
L 188.609587 98.868706 
L 191.888926 108.807529 
L 195.168264 123.715765 
L 198.447603 153.532235 
L 201.726942 146.078118 
L 205.006281 148.562824 
L 208.28562 151.047529 
L 211.564959 156.016941 
L 214.844298 156.016941 
L 218.123636 151.047529 
L 221.402975 146.078118 
L 224.682314 143.593412 
L 227.961653 146.078118 
L 231.240992 148.562824 
L 234.520331 153.532235 
L 237.799669 158.501647 
L 241.079008 153.532235 
L 244.358347 168.440471 
L 247.637686 175.894588 
L 250.917025 160.986353 
L 254.196364 158.501647 
L 257.475702 148.562824 
L 260.755041 151.047529 
L 264.03438 138.624 
L 267.313719 143.593412 
L 270.593058 158.501647 
L 273.872397 151.047529 
L 277.151736 151.047529 
L 280.431074 151.047529 
L 283.710413 156.016941 
L 286.989752 143.593412 
L 290.269091 153.532235 
L 293.54843 148.562824 
L 296.827769 143.593412 
L 300.107107 76.506353 
L 303.386446 59.113412 
L 306.665785 64.082824 
L 309.945124 78.991059 
L 313.224463 101.353412 
L 316.503802 113.776941 
L 319.78314 118.746353 
L 323.062479 131.169882 
L 326.341818 133.654588 
L 329.621157 136.139294 
L 332.900496 126.200471 
L 336.179835 136.139294 
L 339.459174 136.139294 
L 342.738512 131.169882 
L 346.017851 136.139294 
L 349.29719 141.108706 
L 352.576529 141.108706 
L 355.855868 146.078118 
L 359.135207 148.562824 
L 362.414545 148.562824 
L 365.693884 151.047529 
L 368.973223 146.078118 
L 372.252562 146.078118 
L 375.531901 138.624 
L 378.81124 141.108706 
L 382.090579 136.139294 
L 385.369917 138.624 
L 388.649256 148.562824 
L 391.928595 148.562824 
L 395.207934 141.108706 
L 398.487273 138.624 
L 398.487273 138.624 
L 398.487273 138.624 
L 395.207934 141.108706 
L 391.928595 148.562824 
L 388.649256 148.562824 
L 385.369917 138.624 
L 382.090579 136.139294 
L 378.81124 141.108706 
L 375.531901 138.624 
L 372.252562 146.078118 
L 368.973223 146.078118 
L 365.693884 151.047529 
L 362.414545 148.562824 
L 359.135207 148.562824 
L 355.855868 146.078118 
L 352.576529 141.108706 
L 349.29719 141.108706 
L 346.017851 136.139294 
L 342.738512 131.169882 
L 339.459174 136.139294 
L 336.179835 136.139294 
L 332.900496 126.200471 
L 329.621157 136.139294 
L 326.341818 133.654588 
L 323.062479 131.169882 
L 319.78314 118.746353 
L 316.503802 113.776941 
L 313.224463 101.353412 
L 309.945124 78.991059 
L 306.665785 64.082824 
L 303.386446 59.113412 
L 300.107107 76.506353 
L 296.827769 143.593412 
L 293.54843 148.562824 
L 290.269091 153.532235 
L 286.989752 143.593412 
L 283.710413 156.016941 
L 280.431074 151.047529 
L 277.151736 151.047529 
L 273.872397 151.047529 
L 270.593058 158.501647 
L 267.313719 143.593412 
L 264.03438 138.624 
L 260.755041 151.047529 
L 257.475702 148.562824 
L 254.196364 158.501647 
L 250.917025 160.986353 
L 247.637686 175.894588 
L 244.358347 168.440471 
L 241.079008 153.532235 
L 237.799669 158.501647 
L 234.520331 153.532235 
L 231.240992 148.562824 
L 227.961653 146.078118 
L 224.682314 143.593412 
L 221.402975 146.078118 
L 218.123636 151.047529 
L 214.844298 156.016941 
L 211.564959 156.016941 
L 208.28562 151.047529 
L 205.006281 148.562824 
L 201.726942 146.078118 
L 198.447603 153.532235 
L 195.168264 123.715765 
L 191.888926 108.807529 
L 188.609587 98.868706 
L 185.330248 88.929882 
L 182.050909 88.929882 
L 178.77157 76.506353 
L 175.492231 64.082824 
L 172.212893 59.113412 
L 168.933554 54.144 
L 165.654215 59.113412 
L 162.374876 61.598118 
L 159.095537 56.628706 
L 155.816198 56.628706 
L 152.53686 59.113412 
L 149.257521 59.113412 
L 145.978182 61.598118 
L 142.698843 61.598118 
L 139.419504 59.113412 
L 136.140165 103.838118 
L 132.860826 103.838118 
L 129.581488 93.899294 
L 126.302149 88.929882 
L 123.02281 101.353412 
L 119.743471 103.838118 
L 116.464132 106.322824 
L 113.184793 81.475765 
L 109.905455 88.929882 
L 106.626116 101.353412 
L 103.346777 101.353412 
L 100.067438 106.322824 
L 96.788099 118.746353 
L 93.50876 108.807529 
L 90.229421 106.322824 
L 86.950083 116.261647 
L 83.670744 111.292235 
L 80.391405 111.292235 
L 77.112066 108.807529 
L 73.832727 96.384 
z
" clip-path="url(#pb1dac05505)" style="fill: #8c564b"/>
   </g>
   <g id="PolyCollection_7">
    <path d="M 73.832727 56.628706 
L 73.832727 96.384 
L 77.112066 108.807529 
L 80.391405 111.292235 
L 83.670744 111.292235 
L 86.950083 116.261647 
L 90.229421 106.322824 
L 93.50876 108.807529 
L 96.788099 118.746353 
L 100.067438 106.322824 
L 103.346777 101.353412 
L 106.626116 101.353412 
L 109.905455 88.929882 
L 113.184793 81.475765 
L 116.464132 106.322824 
L 119.743471 103.838118 
L 123.02281 101.353412 
L 126.302149 88.929882 
L 129.581488 93.899294 
L 132.860826 103.838118 
L 136.140165 103.838118 
L 139.419504 59.113412 
L 142.698843 61.598118 
L 145.978182 61.598118 
L 149.257521 59.113412 
L 152.53686 59.113412 
L 155.816198 56.628706 
L 159.095537 56.628706 
L 162.374876 61.598118 
L 165.654215 59.113412 
L 168.933554 54.144 
L 172.212893 59.113412 
L 175.492231 64.082824 
L 178.77157 76.506353 
L 182.050909 88.929882 
L 185.330248 88.929882 
L 188.609587 98.868706 
L 191.888926 108.807529 
L 195.168264 123.715765 
L 198.447603 153.532235 
L 201.726942 146.078118 
L 205.006281 148.562824 
L 208.28562 151.047529 
L 211.564959 156.016941 
L 214.844298 156.016941 
L 218.123636 151.047529 
L 221.402975 146.078118 
L 224.682314 143.593412 
L 227.961653 146.078118 
L 231.240992 148.562824 
L 234.520331 153.532235 
L 237.799669 158.501647 
L 241.079008 153.532235 
L 244.358347 168.440471 
L 247.637686 175.894588 
L 250.917025 160.986353 
L 254.196364 158.501647 
L 257.475702 148.562824 
L 260.755041 151.047529 
L 264.03438 138.624 
L 267.313719 143.593412 
L 270.593058 158.501647 
L 273.872397 151.047529 
L 277.151736 151.047529 
L 280.431074 151.047529 
L 283.710413 156.016941 
L 286.989752 143.593412 
L 290.269091 153.532235 
L 293.54843 148.562824 
L 296.827769 143.593412 
L 300.107107 76.506353 
L 303.386446 59.113412 
L 306.665785 64.082824 
L 309.945124 78.991059 
L 313.224463 101.353412 
L 316.503802 113.776941 
L 319.78314 118.746353 
L 323.062479 131.169882 
L 326.341818 133.654588 
L 329.621157 136.139294 
L 332.900496 126.200471 
L 336.179835 136.139294 
L 339.459174 136.139294 
L 342.738512 131.169882 
L 346.017851 136.139294 
L 349.29719 141.108706 
L 352.576529 141.108706 
L 355.855868 146.078118 
L 359.135207 148.562824 
L 362.414545 148.562824 
L 365.693884 151.047529 
L 368.973223 146.078118 
L 372.252562 146.078118 
L 375.531901 138.624 
L 378.81124 141.108706 
L 382.090579 136.139294 
L 385.369917 138.624 
L 388.649256 148.562824 
L 391.928595 148.562824 
L 395.207934 141.108706 
L 398.487273 138.624 
L 398.487273 138.624 
L 398.487273 138.624 
L 395.207934 141.108706 
L 391.928595 148.562824 
L 388.649256 148.562824 
L 385.369917 138.624 
L 382.090579 136.139294 
L 378.81124 141.108706 
L 375.531901 138.624 
L 372.252562 146.078118 
L 368.973223 146.078118 
L 365.693884 151.047529 
L 362.414545 148.562824 
L 359.135207 148.562824 
L 355.855868 146.078118 
L 352.576529 141.108706 
L 349.29719 141.108706 
L 346.017851 136.139294 
L 342.738512 131.169882 
L 339.459174 136.139294 
L 336.179835 136.139294 
L 332.900496 126.200471 
L 329.621157 136.139294 
L 326.341818 133.654588 
L 323.062479 131.169882 
L 319.78314 118.746353 
L 316.503802 113.776941 
L 313.224463 101.353412 
L 309.945124 78.991059 
L 306.665785 64.082824 
L 303.386446 59.113412 
L 300.107107 76.506353 
L 296.827769 143.593412 
L 293.54843 148.562824 
L 290.269091 153.532235 
L 286.989752 143.593412 
L 283.710413 156.016941 
L 280.431074 151.047529 
L 277.151736 151.047529 
L 273.872397 151.047529 
L 270.593058 158.501647 
L 267.313719 143.593412 
L 264.03438 138.624 
L 260.755041 151.047529 
L 257.475702 148.562824 
L 254.196364 158.501647 
L 250.917025 160.986353 
L 247.637686 175.894588 
L 244.358347 168.440471 
L 241.079008 153.532235 
L 237.799669 158.501647 
L 234.520331 153.532235 
L 231.240992 148.562824 
L 227.961653 146.078118 
L 224.682314 143.593412 
L 221.402975 146.078118 
L 218.123636 151.047529 
L 214.844298 156.016941 
L 211.564959 156.016941 
L 208.28562 151.047529 
L 205.006281 148.562824 
L 201.726942 146.078118 
L 198.447603 153.532235 
L 195.168264 123.715765 
L 191.888926 108.807529 
L 188.609587 98.868706 
L 185.330248 88.929882 
L 182.050909 88.929882 
L 178.77157 76.506353 
L 175.492231 64.082824 
L 172.212893 59.113412 
L 168.933554 54.144 
L 165.654215 59.113412 
L 162.374876 61.598118 
L 159.095537 56.628706 
L 155.816198 56.628706 
L 152.53686 59.113412 
L 149.257521 59.113412 
L 145.978182 61.598118 
L 142.698843 61.598118 
L 139.419504 59.113412 
L 136.140165 59.113412 
L 132.860826 61.598118 
L 129.581488 59.113412 
L 126.302149 59.113412 
L 123.02281 61.598118 
L 119.743471 59.113412 
L 116.464132 59.113412 
L 113.184793 56.628706 
L 109.905455 59.113412 
L 106.626116 61.598118 
L 103.346777 54.144 
L 100.067438 56.628706 
L 96.788099 59.113412 
L 93.50876 59.113412 
L 90.229421 56.628706 
L 86.950083 59.113412 
L 83.670744 56.628706 
L 80.391405 56.628706 
L 77.112066 56.628706 
L 73.832727 56.628706 
z
" clip-path="url(#pb1dac05505)" style="fill: #e377c2"/>
   </g>
   <g id="PolyCollection_8">
    <path d="M 73.832727 56.628706 
L 73.832727 56.628706 
L 77.112066 56.628706 
L 80.391405 56.628706 
L 83.670744 56.628706 
L 86.950083 59.113412 
L 90.229421 56.628706 
L 93.50876 59.113412 
L 96.788099 59.113412 
L 100.067438 56.628706 
L 103.346777 54.144 
L 106.626116 61.598118 
L 109.905455 59.113412 
L 113.184793 56.628706 
L 116.464132 59.113412 
L 119.743471 59.113412 
L 123.02281 61.598118 
L 126.302149 59.113412 
L 129.581488 59.113412 
L 132.860826 61.598118 
L 136.140165 59.113412 
L 139.419504 59.113412 
L 142.698843 61.598118 
L 145.978182 61.598118 
L 149.257521 59.113412 
L 152.53686 59.113412 
L 155.816198 56.628706 
L 159.095537 56.628706 
L 162.374876 61.598118 
L 165.654215 59.113412 
L 168.933554 54.144 
L 172.212893 59.113412 
L 175.492231 64.082824 
L 178.77157 76.506353 
L 182.050909 88.929882 
L 185.330248 88.929882 
L 188.609587 98.868706 
L 191.888926 108.807529 
L 195.168264 123.715765 
L 198.447603 153.532235 
L 201.726942 146.078118 
L 205.006281 148.562824 
L 208.28562 151.047529 
L 211.564959 156.016941 
L 214.844298 156.016941 
L 218.123636 151.047529 
L 221.402975 146.078118 
L 224.682314 143.593412 
L 227.961653 146.078118 
L 231.240992 148.562824 
L 234.520331 153.532235 
L 237.799669 158.501647 
L 241.079008 153.532235 
L 244.358347 168.440471 
L 247.637686 175.894588 
L 250.917025 160.986353 
L 254.196364 158.501647 
L 257.475702 148.562824 
L 260.755041 151.047529 
L 264.03438 138.624 
L 267.313719 143.593412 
L 270.593058 158.501647 
L 273.872397 151.047529 
L 277.151736 151.047529 
L 280.431074 151.047529 
L 283.710413 156.016941 
L 286.989752 143.593412 
L 290.269091 153.532235 
L 293.54843 148.562824 
L 296.827769 143.593412 
L 300.107107 76.506353 
L 303.386446 59.113412 
L 306.665785 64.082824 
L 309.945124 78.991059 
L 313.224463 101.353412 
L 316.503802 113.776941 
L 319.78314 118.746353 
L 323.062479 131.169882 
L 326.341818 133.654588 
L 329.621157 136.139294 
L 332.900496 126.200471 
L 336.179835 136.139294 
L 339.459174 136.139294 
L 342.738512 131.169882 
L 346.017851 136.139294 
L 349.29719 141.108706 
L 352.576529 141.108706 
L 355.855868 146.078118 
L 359.135207 148.562824 
L 362.414545 148.562824 
L 365.693884 151.047529 
L 368.973223 146.078118 
L 372.252562 146.078118 
L 375.531901 138.624 
L 378.81124 141.108706 
L 382.090579 136.139294 
L 385.369917 138.624 
L 388.649256 148.562824 
L 391.928595 148.562824 
L 395.207934 141.108706 
L 398.487273 138.624 
L 398.487273 138.624 
L 398.487273 138.624 
L 395.207934 141.108706 
L 391.928595 148.562824 
L 388.649256 148.562824 
L 385.369917 138.624 
L 382.090579 136.139294 
L 378.81124 141.108706 
L 375.531901 138.624 
L 372.252562 146.078118 
L 368.973223 146.078118 
L 365.693884 151.047529 
L 362.414545 148.562824 
L 359.135207 148.562824 
L 355.855868 146.078118 
L 352.576529 141.108706 
L 349.29719 141.108706 
L 346.017851 136.139294 
L 342.738512 131.169882 
L 339.459174 136.139294 
L 336.179835 136.139294 
L 332.900496 126.200471 
L 329.621157 136.139294 
L 326.341818 133.654588 
L 323.062479 131.169882 
L 319.78314 118.746353 
L 316.503802 113.776941 
L 313.224463 101.353412 
L 309.945124 78.991059 
L 306.665785 64.082824 
L 303.386446 59.113412 
L 300.107107 76.506353 
L 296.827769 74.021647 
L 293.54843 69.052235 
L 290.269091 69.052235 
L 286.989752 69.052235 
L 283.710413 71.536941 
L 280.431074 71.536941 
L 277.151736 69.052235 
L 273.872397 74.021647 
L 270.593058 71.536941 
L 267.313719 76.506353 
L 264.03438 71.536941 
L 260.755041 69.052235 
L 257.475702 76.506353 
L 254.196364 74.021647 
L 250.917025 74.021647 
L 247.637686 78.991059 
L 244.358347 78.991059 
L 241.079008 74.021647 
L 237.799669 69.052235 
L 234.520331 83.960471 
L 231.240992 78.991059 
L 227.961653 71.536941 
L 224.682314 74.021647 
L 221.402975 74.021647 
L 218.123636 76.506353 
L 214.844298 74.021647 
L 211.564959 71.536941 
L 208.28562 78.991059 
L 205.006281 78.991059 
L 201.726942 78.991059 
L 198.447603 78.991059 
L 195.168264 69.052235 
L 191.888926 61.598118 
L 188.609587 61.598118 
L 185.330248 59.113412 
L 182.050909 56.628706 
L 178.77157 56.628706 
L 175.492231 56.628706 
L 172.212893 59.113412 
L 168.933554 54.144 
L 165.654215 59.113412 
L 162.374876 61.598118 
L 159.095537 56.628706 
L 155.816198 56.628706 
L 152.53686 59.113412 
L 149.257521 59.113412 
L 145.978182 61.598118 
L 142.698843 61.598118 
L 139.419504 59.113412 
L 136.140165 59.113412 
L 132.860826 61.598118 
L 129.581488 59.113412 
L 126.302149 59.113412 
L 123.02281 61.598118 
L 119.743471 59.113412 
L 116.464132 59.113412 
L 113.184793 56.628706 
L 109.905455 59.113412 
L 106.626116 61.598118 
L 103.346777 54.144 
L 100.067438 56.628706 
L 96.788099 59.113412 
L 93.50876 59.113412 
L 90.229421 56.628706 
L 86.950083 59.113412 
L 83.670744 56.628706 
L 80.391405 56.628706 
L 77.112066 56.628706 
L 73.832727 56.628706 
z
" clip-path="url(#pb1dac05505)" style="fill: #7f7f7f"/>
   </g>
   <g id="PolyCollection_9">
    <path d="M 73.832727 56.628706 
L 73.832727 56.628706 
L 77.112066 56.628706 
L 80.391405 56.628706 
L 83.670744 56.628706 
L 86.950083 59.113412 
L 90.229421 56.628706 
L 93.50876 59.113412 
L 96.788099 59.113412 
L 100.067438 56.628706 
L 103.346777 54.144 
L 106.626116 61.598118 
L 109.905455 59.113412 
L 113.184793 56.628706 
L 116.464132 59.113412 
L 119.743471 59.113412 
L 123.02281 61.598118 
L 126.302149 59.113412 
L 129.581488 59.113412 
L 132.860826 61.598118 
L 136.140165 59.113412 
L 139.419504 59.113412 
L 142.698843 61.598118 
L 145.978182 61.598118 
L 149.257521 59.113412 
L 152.53686 59.113412 
L 155.816198 56.628706 
L 159.095537 56.628706 
L 162.374876 61.598118 
L 165.654215 59.113412 
L 168.933554 54.144 
L 172.212893 59.113412 
L 175.492231 56.628706 
L 178.77157 56.628706 
L 182.050909 56.628706 
L 185.330248 59.113412 
L 188.609587 61.598118 
L 191.888926 61.598118 
L 195.168264 69.052235 
L 198.447603 78.991059 
L 201.726942 78.991059 
L 205.006281 78.991059 
L 208.28562 78.991059 
L 211.564959 71.536941 
L 214.844298 74.021647 
L 218.123636 76.506353 
L 221.402975 74.021647 
L 224.682314 74.021647 
L 227.961653 71.536941 
L 231.240992 78.991059 
L 234.520331 83.960471 
L 237.799669 69.052235 
L 241.079008 74.021647 
L 244.358347 78.991059 
L 247.637686 78.991059 
L 250.917025 74.021647 
L 254.196364 74.021647 
L 257.475702 76.506353 
L 260.755041 69.052235 
L 264.03438 71.536941 
L 267.313719 76.506353 
L 270.593058 71.536941 
L 273.872397 74.021647 
L 277.151736 69.052235 
L 280.431074 71.536941 
L 283.710413 71.536941 
L 286.989752 69.052235 
L 290.269091 69.052235 
L 293.54843 69.052235 
L 296.827769 74.021647 
L 300.107107 76.506353 
L 303.386446 59.113412 
L 306.665785 64.082824 
L 309.945124 78.991059 
L 313.224463 101.353412 
L 316.503802 113.776941 
L 319.78314 118.746353 
L 323.062479 131.169882 
L 326.341818 133.654588 
L 329.621157 136.139294 
L 332.900496 126.200471 
L 336.179835 136.139294 
L 339.459174 136.139294 
L 342.738512 131.169882 
L 346.017851 136.139294 
L 349.29719 141.108706 
L 352.576529 141.108706 
L 355.855868 146.078118 
L 359.135207 148.562824 
L 362.414545 148.562824 
L 365.693884 151.047529 
L 368.973223 146.078118 
L 372.252562 146.078118 
L 375.531901 138.624 
L 378.81124 141.108706 
L 382.090579 136.139294 
L 385.369917 138.624 
L 388.649256 148.562824 
L 391.928595 148.562824 
L 395.207934 141.108706 
L 398.487273 138.624 
L 398.487273 138.624 
L 398.487273 138.624 
L 395.207934 141.108706 
L 391.928595 148.562824 
L 388.649256 148.562824 
L 385.369917 138.624 
L 382.090579 136.139294 
L 378.81124 141.108706 
L 375.531901 138.624 
L 372.252562 146.078118 
L 368.973223 146.078118 
L 365.693884 151.047529 
L 362.414545 148.562824 
L 359.135207 148.562824 
L 355.855868 146.078118 
L 352.576529 141.108706 
L 349.29719 141.108706 
L 346.017851 136.139294 
L 342.738512 131.169882 
L 339.459174 136.139294 
L 336.179835 136.139294 
L 332.900496 126.200471 
L 329.621157 136.139294 
L 326.341818 133.654588 
L 323.062479 131.169882 
L 319.78314 118.746353 
L 316.503802 113.776941 
L 313.224463 101.353412 
L 309.945124 78.991059 
L 306.665785 64.082824 
L 303.386446 59.113412 
L 300.107107 59.113412 
L 296.827769 61.598118 
L 293.54843 56.628706 
L 290.269091 56.628706 
L 286.989752 56.628706 
L 283.710413 59.113412 
L 280.431074 56.628706 
L 277.151736 56.628706 
L 273.872397 61.598118 
L 270.593058 59.113412 
L 267.313719 61.598118 
L 264.03438 59.113412 
L 260.755041 56.628706 
L 257.475702 61.598118 
L 254.196364 56.628706 
L 250.917025 59.113412 
L 247.637686 61.598118 
L 244.358347 59.113412 
L 241.079008 61.598118 
L 237.799669 56.628706 
L 234.520331 61.598118 
L 231.240992 61.598118 
L 227.961653 59.113412 
L 224.682314 61.598118 
L 221.402975 59.113412 
L 218.123636 61.598118 
L 214.844298 61.598118 
L 211.564959 56.628706 
L 208.28562 61.598118 
L 205.006281 59.113412 
L 201.726942 59.113412 
L 198.447603 56.628706 
L 195.168264 61.598118 
L 191.888926 61.598118 
L 188.609587 61.598118 
L 185.330248 59.113412 
L 182.050909 56.628706 
L 178.77157 56.628706 
L 175.492231 56.628706 
L 172.212893 59.113412 
L 168.933554 54.144 
L 165.654215 59.113412 
L 162.374876 61.598118 
L 159.095537 56.628706 
L 155.816198 56.628706 
L 152.53686 59.113412 
L 149.257521 59.113412 
L 145.978182 61.598118 
L 142.698843 61.598118 
L 139.419504 59.113412 
L 136.140165 59.113412 
L 132.860826 61.598118 
L 129.581488 59.113412 
L 126.302149 59.113412 
L 123.02281 61.598118 
L 119.743471 59.113412 
L 116.464132 59.113412 
L 113.184793 56.628706 
L 109.905455 59.113412 
L 106.626116 61.598118 
L 103.346777 54.144 
L 100.067438 56.628706 
L 96.788099 59.113412 
L 93.50876 59.113412 
L 90.229421 56.628706 
L 86.950083 59.113412 
L 83.670744 56.628706 
L 80.391405 56.628706 
L 77.112066 56.628706 
L 73.832727 56.628706 
z
" clip-path="url(#pb1dac05505)" style="fill: #bcbd22"/>
   </g>
   <g id="PolyCollection_10">
    <path d="M 73.832727 56.628706 
L 73.832727 56.628706 
L 77.112066 56.628706 
L 80.391405 56.628706 
L 83.670744 56.628706 
L 86.950083 59.113412 
L 90.229421 56.628706 
L 93.50876 59.113412 
L 96.788099 59.113412 
L 100.067438 56.628706 
L 103.346777 54.144 
L 106.626116 61.598118 
L 109.905455 59.113412 
L 113.184793 56.628706 
L 116.464132 59.113412 
L 119.743471 59.113412 
L 123.02281 61.598118 
L 126.302149 59.113412 
L 129.581488 59.113412 
L 132.860826 61.598118 
L 136.140165 59.113412 
L 139.419504 59.113412 
L 142.698843 61.598118 
L 145.978182 61.598118 
L 149.257521 59.113412 
L 152.53686 59.113412 
L 155.816198 56.628706 
L 159.095537 56.628706 
L 162.374876 61.598118 
L 165.654215 59.113412 
L 168.933554 54.144 
L 172.212893 59.113412 
L 175.492231 56.628706 
L 178.77157 56.628706 
L 182.050909 56.628706 
L 185.330248 59.113412 
L 188.609587 61.598118 
L 191.888926 61.598118 
L 195.168264 61.598118 
L 198.447603 56.628706 
L 201.726942 59.113412 
L 205.006281 59.113412 
L 208.28562 61.598118 
L 211.564959 56.628706 
L 214.844298 61.598118 
L 218.123636 61.598118 
L 221.402975 59.113412 
L 224.682314 61.598118 
L 227.961653 59.113412 
L 231.240992 61.598118 
L 234.520331 61.598118 
L 237.799669 56.628706 
L 241.079008 61.598118 
L 244.358347 59.113412 
L 247.637686 61.598118 
L 250.917025 59.113412 
L 254.196364 56.628706 
L 257.475702 61.598118 
L 260.755041 56.628706 
L 264.03438 59.113412 
L 267.313719 61.598118 
L 270.593058 59.113412 
L 273.872397 61.598118 
L 277.151736 56.628706 
L 280.431074 56.628706 
L 283.710413 59.113412 
L 286.989752 56.628706 
L 290.269091 56.628706 
L 293.54843 56.628706 
L 296.827769 61.598118 
L 300.107107 59.113412 
L 303.386446 59.113412 
L 306.665785 64.082824 
L 309.945124 78.991059 
L 313.224463 101.353412 
L 316.503802 113.776941 
L 319.78314 118.746353 
L 323.062479 131.169882 
L 326.341818 133.654588 
L 329.621157 136.139294 
L 332.900496 126.200471 
L 336.179835 136.139294 
L 339.459174 136.139294 
L 342.738512 131.169882 
L 346.017851 136.139294 
L 349.29719 141.108706 
L 352.576529 141.108706 
L 355.855868 146.078118 
L 359.135207 148.562824 
L 362.414545 148.562824 
L 365.693884 151.047529 
L 368.973223 146.078118 
L 372.252562 146.078118 
L 375.531901 138.624 
L 378.81124 141.108706 
L 382.090579 136.139294 
L 385.369917 138.624 
L 388.649256 148.562824 
L 391.928595 148.562824 
L 395.207934 141.108706 
L 398.487273 138.624 
L 398.487273 59.113412 
L 398.487273 59.113412 
L 395.207934 56.628706 
L 391.928595 59.113412 
L 388.649256 61.598118 
L 385.369917 59.113412 
L 382.090579 59.113412 
L 378.81124 59.113412 
L 375.531901 59.113412 
L 372.252562 56.628706 
L 368.973223 61.598118 
L 365.693884 61.598118 
L 362.414545 61.598118 
L 359.135207 59.113412 
L 355.855868 56.628706 
L 352.576529 59.113412 
L 349.29719 59.113412 
L 346.017851 59.113412 
L 342.738512 59.113412 
L 339.459174 59.113412 
L 336.179835 59.113412 
L 332.900496 59.113412 
L 329.621157 59.113412 
L 326.341818 61.598118 
L 323.062479 59.113412 
L 319.78314 59.113412 
L 316.503802 59.113412 
L 313.224463 61.598118 
L 309.945124 59.113412 
L 306.665785 59.113412 
L 303.386446 59.113412 
L 300.107107 59.113412 
L 296.827769 61.598118 
L 293.54843 56.628706 
L 290.269091 56.628706 
L 286.989752 56.628706 
L 283.710413 59.113412 
L 280.431074 56.628706 
L 277.151736 56.628706 
L 273.872397 61.598118 
L 270.593058 59.113412 
L 267.313719 61.598118 
L 264.03438 59.113412 
L 260.755041 56.628706 
L 257.475702 61.598118 
L 254.196364 56.628706 
L 250.917025 59.113412 
L 247.637686 61.598118 
L 244.358347 59.113412 
L 241.079008 61.598118 
L 237.799669 56.628706 
L 234.520331 61.598118 
L 231.240992 61.598118 
L 227.961653 59.113412 
L 224.682314 61.598118 
L 221.402975 59.113412 
L 218.123636 61.598118 
L 214.844298 61.598118 
L 211.564959 56.628706 
L 208.28562 61.598118 
L 205.006281 59.113412 
L 201.726942 59.113412 
L 198.447603 56.628706 
L 195.168264 61.598118 
L 191.888926 61.598118 
L 188.609587 61.598118 
L 185.330248 59.113412 
L 182.050909 56.628706 
L 178.77157 56.628706 
L 175.492231 56.628706 
L 172.212893 59.113412 
L 168.933554 54.144 
L 165.654215 59.113412 
L 162.374876 61.598118 
L 159.095537 56.628706 
L 155.816198 56.628706 
L 152.53686 59.113412 
L 149.257521 59.113412 
L 145.978182 61.598118 
L 142.698843 61.598118 
L 139.419504 59.113412 
L 136.140165 59.113412 
L 132.860826 61.598118 
L 129.581488 59.113412 
L 126.302149 59.113412 
L 123.02281 61.598118 
L 119.743471 59.113412 
L 116.464132 59.113412 
L 113.184793 56.628706 
L 109.905455 59.113412 
L 106.626116 61.598118 
L 103.346777 54.144 
L 100.067438 56.628706 
L 96.788099 59.113412 
L 93.50876 59.113412 
L 90.229421 56.628706 
L 86.950083 59.113412 
L 83.670744 56.628706 
L 80.391405 56.628706 
L 77.112066 56.628706 
L 73.832727 56.628706 
z
" clip-path="url(#pb1dac05505)" style="fill: #17becf"/>
   </g>
   <g id="matplotlib.axis_1">
    <g id="xtick_1">
     <g id="line2d_1">
      <defs>
       <path id="mb250dbb95a" d="M 0 0 
L 0 3.5 
" style="stroke: #000000; stroke-width: 0.8"/>
      </defs>
      <g>
       <use xlink:href="#mb250dbb95a" x="73.832727" y="307.584" style="stroke: #000000; stroke-width: 0.8"/>
      </g>
     </g>
     <g id="text_1">
      <!-- 0 -->
      <g transform="translate(70.651477 322.182437) scale(0.1 -0.1)">
       <defs>
        <path id="DejaVuSans-30" d="M 2034 4250 
Q 1547 4250 1301 3770 
Q 1056 3291 1056 2328 
Q 1056 1369 1301 889 
Q 1547 409 2034 409 
Q 2525 409 2770 889 
Q 3016 1369 3016 2328 
Q 3016 3291 2770 3770 
Q 2525 4250 2034 4250 
z
M 2034 4750 
Q 2819 4750 3233 4129 
Q 3647 3509 3647 2328 
Q 3647 1150 3233 529 
Q 2819 -91 2034 -91 
Q 1250 -91 836 529 
Q 422 1150 422 2328 
Q 422 3509 836 4129 
Q 1250 4750 2034 4750 
z
" transform="scale(0.015625)"/>
       </defs>
       <use xlink:href="#DejaVuSans-30"/>
      </g>
     </g>
    </g>
    <g id="xtick_2">
     <g id="line2d_2">
      <g>
       <use xlink:href="#mb250dbb95a" x="139.419504" y="307.584" style="stroke: #000000; stroke-width: 0.8"/>
      </g>
     </g>
     <g id="text_2">
      <!-- 20 -->
      <g transform="translate(133.057004 322.182437) scale(0.1 -0.1)">
       <defs>
        <path id="DejaVuSans-32" d="M 1228 531 
L 3431 531 
L 3431 0 
L 469 0 
L 469 531 
Q 828 903 1448 1529 
Q 2069 2156 2228 2338 
Q 2531 2678 2651 2914 
Q 2772 3150 2772 3378 
Q 2772 3750 2511 3984 
Q 2250 4219 1831 4219 
Q 1534 4219 1204 4116 
Q 875 4013 500 3803 
L 500 4441 
Q 881 4594 1212 4672 
Q 1544 4750 1819 4750 
Q 2544 4750 2975 4387 
Q 3406 4025 3406 3419 
Q 3406 3131 3298 2873 
Q 3191 2616 2906 2266 
Q 2828 2175 2409 1742 
Q 1991 1309 1228 531 
z
" transform="scale(0.015625)"/>
       </defs>
       <use xlink:href="#DejaVuSans-32"/>
       <use xlink:href="#DejaVuSans-30" x="63.623047"/>
      </g>
     </g>
    </g>
    <g id="xtick_3">
     <g id="line2d_3">
      <g>
       <use xlink:href="#mb250dbb95a" x="205.006281" y="307.584" style="stroke: #000000; stroke-width: 0.8"/>
      </g>
     </g>
     <g id="text_3">
      <!-- 40 -->
      <g transform="translate(198.643781 322.182437) scale(0.1 -0.1)">
       <defs>
        <path id="DejaVuSans-34" d="M 2419 4116 
L 825 1625 
L 2419 1625 
L 2419 4116 
z
M 2253 4666 
L 3047 4666 
L 3047 1625 
L 3713 1625 
L 3713 1100 
L 3047 1100 
L 3047 0 
L 2419 0 
L 2419 1100 
L 313 1100 
L 313 1709 
L 2253 4666 
z
" transform="scale(0.015625)"/>
       </defs>
       <use xlink:href="#DejaVuSans-34"/>
       <use xlink:href="#DejaVuSans-30" x="63.623047"/>
      </g>
     </g>
    </g>
    <g id="xtick_4">
     <g id="line2d_4">
      <g>
       <use xlink:href="#mb250dbb95a" x="270.593058" y="307.584" style="stroke: #000000; stroke-width: 0.8"/>
      </g>
     </g>
     <g id="text_4">
      <!-- 60 -->
      <g transform="translate(264.230558 322.182437) scale(0.1 -0.1)">
       <defs>
        <path id="DejaVuSans-36" d="M 2113 2584 
Q 1688 2584 1439 2293 
Q 1191 2003 1191 1497 
Q 1191 994 1439 701 
Q 1688 409 2113 409 
Q 2538 409 2786 701 
Q 3034 994 3034 1497 
Q 3034 2003 2786 2293 
Q 2538 2584 2113 2584 
z
M 3366 4563 
L 3366 3988 
Q 3128 4100 2886 4159 
Q 2644 4219 2406 4219 
Q 1781 4219 1451 3797 
Q 1122 3375 1075 2522 
Q 1259 2794 1537 2939 
Q 1816 3084 2150 3084 
Q 2853 3084 3261 2657 
Q 3669 2231 3669 1497 
Q 3669 778 3244 343 
Q 2819 -91 2113 -91 
Q 1303 -91 875 529 
Q 447 1150 447 2328 
Q 447 3434 972 4092 
Q 1497 4750 2381 4750 
Q 2619 4750 2861 4703 
Q 3103 4656 3366 4563 
z
" transform="scale(0.015625)"/>
       </defs>
       <use xlink:href="#DejaVuSans-36"/>
       <use xlink:href="#DejaVuSans-30" x="63.623047"/>
      </g>
     </g>
    </g>
    <g id="xtick_5">
     <g id="line2d_5">
      <g>
       <use xlink:href="#mb250dbb95a" x="336.179835" y="307.584" style="stroke: #000000; stroke-width: 0.8"/>
      </g>
     </g>
     <g id="text_5">
      <!-- 80 -->
      <g transform="translate(329.817335 322.182437) scale(0.1 -0.1)">
       <defs>
        <path id="DejaVuSans-38" d="M 2034 2216 
Q 1584 2216 1326 1975 
Q 1069 1734 1069 1313 
Q 1069 891 1326 650 
Q 1584 409 2034 409 
Q 2484 409 2743 651 
Q 3003 894 3003 1313 
Q 3003 1734 2745 1975 
Q 2488 2216 2034 2216 
z
M 1403 2484 
Q 997 2584 770 2862 
Q 544 3141 544 3541 
Q 544 4100 942 4425 
Q 1341 4750 2034 4750 
Q 2731 4750 3128 4425 
Q 3525 4100 3525 3541 
Q 3525 3141 3298 2862 
Q 3072 2584 2669 2484 
Q 3125 2378 3379 2068 
Q 3634 1759 3634 1313 
Q 3634 634 3220 271 
Q 2806 -91 2034 -91 
Q 1263 -91 848 271 
Q 434 634 434 1313 
Q 434 1759 690 2068 
Q 947 2378 1403 2484 
z
M 1172 3481 
Q 1172 3119 1398 2916 
Q 1625 2713 2034 2713 
Q 2441 2713 2670 2916 
Q 2900 3119 2900 3481 
Q 2900 3844 2670 4047 
Q 2441 4250 2034 4250 
Q 1625 4250 1398 4047 
Q 1172 3844 1172 3481 
z
" transform="scale(0.015625)"/>
       </defs>
       <use xlink:href="#DejaVuSans-38"/>
       <use xlink:href="#DejaVuSans-30" x="63.623047"/>
      </g>
     </g>
    </g>
    <g id="xtick_6">
     <g id="line2d_6">
      <g>
       <use xlink:href="#mb250dbb95a" x="401.766612" y="307.584" style="stroke: #000000; stroke-width: 0.8"/>
      </g>
     </g>
     <g id="text_6">
      <!-- 100 -->
      <g transform="translate(392.222862 322.182437) scale(0.1 -0.1)">
       <defs>
        <path id="DejaVuSans-31" d="M 794 531 
L 1825 531 
L 1825 4091 
L 703 3866 
L 703 4441 
L 1819 4666 
L 2450 4666 
L 2450 531 
L 3481 531 
L 3481 0 
L 794 0 
L 794 531 
z
" transform="scale(0.015625)"/>
       </defs>
       <use xlink:href="#DejaVuSans-31"/>
       <use xlink:href="#DejaVuSans-30" x="63.623047"/>
       <use xlink:href="#DejaVuSans-30" x="127.246094"/>
      </g>
     </g>
    </g>
    <g id="text_7">
     <!-- Generations -->
     <g transform="translate(205.662344 335.860562) scale(0.1 -0.1)">
      <defs>
       <path id="DejaVuSans-47" d="M 3809 666 
L 3809 1919 
L 2778 1919 
L 2778 2438 
L 4434 2438 
L 4434 434 
Q 4069 175 3628 42 
Q 3188 -91 2688 -91 
Q 1594 -91 976 548 
Q 359 1188 359 2328 
Q 359 3472 976 4111 
Q 1594 4750 2688 4750 
Q 3144 4750 3555 4637 
Q 3966 4525 4313 4306 
L 4313 3634 
Q 3963 3931 3569 4081 
Q 3175 4231 2741 4231 
Q 1884 4231 1454 3753 
Q 1025 3275 1025 2328 
Q 1025 1384 1454 906 
Q 1884 428 2741 428 
Q 3075 428 3337 486 
Q 3600 544 3809 666 
z
" transform="scale(0.015625)"/>
       <path id="DejaVuSans-65" d="M 3597 1894 
L 3597 1613 
L 953 1613 
Q 991 1019 1311 708 
Q 1631 397 2203 397 
Q 2534 397 2845 478 
Q 3156 559 3463 722 
L 3463 178 
Q 3153 47 2828 -22 
Q 2503 -91 2169 -91 
Q 1331 -91 842 396 
Q 353 884 353 1716 
Q 353 2575 817 3079 
Q 1281 3584 2069 3584 
Q 2775 3584 3186 3129 
Q 3597 2675 3597 1894 
z
M 3022 2063 
Q 3016 2534 2758 2815 
Q 2500 3097 2075 3097 
Q 1594 3097 1305 2825 
Q 1016 2553 972 2059 
L 3022 2063 
z
" transform="scale(0.015625)"/>
       <path id="DejaVuSans-6e" d="M 3513 2113 
L 3513 0 
L 2938 0 
L 2938 2094 
Q 2938 2591 2744 2837 
Q 2550 3084 2163 3084 
Q 1697 3084 1428 2787 
Q 1159 2491 1159 1978 
L 1159 0 
L 581 0 
L 581 3500 
L 1159 3500 
L 1159 2956 
Q 1366 3272 1645 3428 
Q 1925 3584 2291 3584 
Q 2894 3584 3203 3211 
Q 3513 2838 3513 2113 
z
" transform="scale(0.015625)"/>
       <path id="DejaVuSans-72" d="M 2631 2963 
Q 2534 3019 2420 3045 
Q 2306 3072 2169 3072 
Q 1681 3072 1420 2755 
Q 1159 2438 1159 1844 
L 1159 0 
L 581 0 
L 581 3500 
L 1159 3500 
L 1159 2956 
Q 1341 3275 1631 3429 
Q 1922 3584 2338 3584 
Q 2397 3584 2469 3576 
Q 2541 3569 2628 3553 
L 2631 2963 
z
" transform="scale(0.015625)"/>
       <path id="DejaVuSans-61" d="M 2194 1759 
Q 1497 1759 1228 1600 
Q 959 1441 959 1056 
Q 959 750 1161 570 
Q 1363 391 1709 391 
Q 2188 391 2477 730 
Q 2766 1069 2766 1631 
L 2766 1759 
L 2194 1759 
z
M 3341 1997 
L 3341 0 
L 2766 0 
L 2766 531 
Q 2569 213 2275 61 
Q 1981 -91 1556 -91 
Q 1019 -91 701 211 
Q 384 513 384 1019 
Q 384 1609 779 1909 
Q 1175 2209 1959 2209 
L 2766 2209 
L 2766 2266 
Q 2766 2663 2505 2880 
Q 2244 3097 1772 3097 
Q 1472 3097 1187 3025 
Q 903 2953 641 2809 
L 641 3341 
Q 956 3463 1253 3523 
Q 1550 3584 1831 3584 
Q 2591 3584 2966 3190 
Q 3341 2797 3341 1997 
z
" transform="scale(0.015625)"/>
       <path id="DejaVuSans-74" d="M 1172 4494 
L 1172 3500 
L 2356 3500 
L 2356 3053 
L 1172 3053 
L 1172 1153 
Q 1172 725 1289 603 
Q 1406 481 1766 481 
L 2356 481 
L 2356 0 
L 1766 0 
Q 1100 0 847 248 
Q 594 497 594 1153 
L 594 3053 
L 172 3053 
L 172 3500 
L 594 3500 
L 594 4494 
L 1172 4494 
z
" transform="scale(0.015625)"/>
       <path id="DejaVuSans-69" d="M 603 3500 
L 1178 3500 
L 1178 0 
L 603 0 
L 603 3500 
z
M 603 4863 
L 1178 4863 
L 1178 4134 
L 603 4134 
L 603 4863 
z
" transform="scale(0.015625)"/>
       <path id="DejaVuSans-6f" d="M 1959 3097 
Q 1497 3097 1228 2736 
Q 959 2375 959 1747 
Q 959 1119 1226 758 
Q 1494 397 1959 397 
Q 2419 397 2687 759 
Q 2956 1122 2956 1747 
Q 2956 2369 2687 2733 
Q 2419 3097 1959 3097 
z
M 1959 3584 
Q 2709 3584 3137 3096 
Q 3566 2609 3566 1747 
Q 3566 888 3137 398 
Q 2709 -91 1959 -91 
Q 1206 -91 779 398 
Q 353 888 353 1747 
Q 353 2609 779 3096 
Q 1206 3584 1959 3584 
z
" transform="scale(0.015625)"/>
       <path id="DejaVuSans-73" d="M 2834 3397 
L 2834 2853 
Q 2591 2978 2328 3040 
Q 2066 3103 1784 3103 
Q 1356 3103 1142 2972 
Q 928 2841 928 2578 
Q 928 2378 1081 2264 
Q 1234 2150 1697 2047 
L 1894 2003 
Q 2506 1872 2764 1633 
Q 3022 1394 3022 966 
Q 3022 478 2636 193 
Q 2250 -91 1575 -91 
Q 1294 -91 989 -36 
Q 684 19 347 128 
L 347 722 
Q 666 556 975 473 
Q 1284 391 1588 391 
Q 1994 391 2212 530 
Q 2431 669 2431 922 
Q 2431 1156 2273 1281 
Q 2116 1406 1581 1522 
L 1381 1569 
Q 847 1681 609 1914 
Q 372 2147 372 2553 
Q 372 3047 722 3315 
Q 1072 3584 1716 3584 
Q 2034 3584 2315 3537 
Q 2597 3491 2834 3397 
z
" transform="scale(0.015625)"/>
      </defs>
      <use xlink:href="#DejaVuSans-47"/>
      <use xlink:href="#DejaVuSans-65" x="77.490234"/>
      <use xlink:href="#DejaVuSans-6e" x="139.013672"/>
      <use xlink:href="#DejaVuSans-65" x="202.392578"/>
      <use xlink:href="#DejaVuSans-72" x="263.916016"/>
      <use xlink:href="#DejaVuSans-61" x="305.029297"/>
      <use xlink:href="#DejaVuSans-74" x="366.308594"/>
      <use xlink:href="#DejaVuSans-69" x="405.517578"/>
      <use xlink:href="#DejaVuSans-6f" x="433.300781"/>
      <use xlink:href="#DejaVuSans-6e" x="494.482422"/>
      <use xlink:href="#DejaVuSans-73" x="557.861328"/>
     </g>
    </g>
   </g>
   <g id="matplotlib.axis_2">
    <g id="ytick_1">
     <g id="line2d_7">
      <defs>
       <path id="m1cc0dcde0b" d="M 0 0 
L -3.5 0 
" style="stroke: #000000; stroke-width: 0.8"/>
      </defs>
      <g>
       <use xlink:href="#m1cc0dcde0b" x="57.6" y="307.584" style="stroke: #000000; stroke-width: 0.8"/>
      </g>
     </g>
     <g id="text_8">
      <!-- 0 -->
      <g transform="translate(44.2375 311.383219) scale(0.1 -0.1)">
       <use xlink:href="#DejaVuSans-30"/>
      </g>
     </g>
    </g>
    <g id="ytick_2">
     <g id="line2d_8">
      <g>
       <use xlink:href="#m1cc0dcde0b" x="57.6" y="257.889882" style="stroke: #000000; stroke-width: 0.8"/>
      </g>
     </g>
     <g id="text_9">
      <!-- 20 -->
      <g transform="translate(37.875 261.689101) scale(0.1 -0.1)">
       <use xlink:href="#DejaVuSans-32"/>
       <use xlink:href="#DejaVuSans-30" x="63.623047"/>
      </g>
     </g>
    </g>
    <g id="ytick_3">
     <g id="line2d_9">
      <g>
       <use xlink:href="#m1cc0dcde0b" x="57.6" y="208.195765" style="stroke: #000000; stroke-width: 0.8"/>
      </g>
     </g>
     <g id="text_10">
      <!-- 40 -->
      <g transform="translate(37.875 211.994983) scale(0.1 -0.1)">
       <use xlink:href="#DejaVuSans-34"/>
       <use xlink:href="#DejaVuSans-30" x="63.623047"/>
      </g>
     </g>
    </g>
    <g id="ytick_4">
     <g id="line2d_10">
      <g>
       <use xlink:href="#m1cc0dcde0b" x="57.6" y="158.501647" style="stroke: #000000; stroke-width: 0.8"/>
      </g>
     </g>
     <g id="text_11">
      <!-- 60 -->
      <g transform="translate(37.875 162.300866) scale(0.1 -0.1)">
       <use xlink:href="#DejaVuSans-36"/>
       <use xlink:href="#DejaVuSans-30" x="63.623047"/>
      </g>
     </g>
    </g>
    <g id="ytick_5">
     <g id="line2d_11">
      <g>
       <use xlink:href="#m1cc0dcde0b" x="57.6" y="108.807529" style="stroke: #000000; stroke-width: 0.8"/>
      </g>
     </g>
     <g id="text_12">
      <!-- 80 -->
      <g transform="translate(37.875 112.606748) scale(0.1 -0.1)">
       <use xlink:href="#DejaVuSans-38"/>
       <use xlink:href="#DejaVuSans-30" x="63.623047"/>
      </g>
     </g>
    </g>
    <g id="ytick_6">
     <g id="line2d_12">
      <g>
       <use xlink:href="#m1cc0dcde0b" x="57.6" y="59.113412" style="stroke: #000000; stroke-width: 0.8"/>
      </g>
     </g>
     <g id="text_13">
      <!-- 100 -->
      <g transform="translate(31.5125 62.912631) scale(0.1 -0.1)">
       <use xlink:href="#DejaVuSans-31"/>
       <use xlink:href="#DejaVuSans-30" x="63.623047"/>
       <use xlink:href="#DejaVuSans-30" x="127.246094"/>
      </g>
     </g>
    </g>
    <g id="text_14">
     <!-- Size per Species -->
     <g transform="translate(25.432812 215.520969) rotate(-90) scale(0.1 -0.1)">
      <defs>
       <path id="DejaVuSans-53" d="M 3425 4513 
L 3425 3897 
Q 3066 4069 2747 4153 
Q 2428 4238 2131 4238 
Q 1616 4238 1336 4038 
Q 1056 3838 1056 3469 
Q 1056 3159 1242 3001 
Q 1428 2844 1947 2747 
L 2328 2669 
Q 3034 2534 3370 2195 
Q 3706 1856 3706 1288 
Q 3706 609 3251 259 
Q 2797 -91 1919 -91 
Q 1588 -91 1214 -16 
Q 841 59 441 206 
L 441 856 
Q 825 641 1194 531 
Q 1563 422 1919 422 
Q 2459 422 2753 634 
Q 3047 847 3047 1241 
Q 3047 1584 2836 1778 
Q 2625 1972 2144 2069 
L 1759 2144 
Q 1053 2284 737 2584 
Q 422 2884 422 3419 
Q 422 4038 858 4394 
Q 1294 4750 2059 4750 
Q 2388 4750 2728 4690 
Q 3069 4631 3425 4513 
z
" transform="scale(0.015625)"/>
       <path id="DejaVuSans-7a" d="M 353 3500 
L 3084 3500 
L 3084 2975 
L 922 459 
L 3084 459 
L 3084 0 
L 275 0 
L 275 525 
L 2438 3041 
L 353 3041 
L 353 3500 
z
" transform="scale(0.015625)"/>
       <path id="DejaVuSans-20" transform="scale(0.015625)"/>
       <path id="DejaVuSans-70" d="M 1159 525 
L 1159 -1331 
L 581 -1331 
L 581 3500 
L 1159 3500 
L 1159 2969 
Q 1341 3281 1617 3432 
Q 1894 3584 2278 3584 
Q 2916 3584 3314 3078 
Q 3713 2572 3713 1747 
Q 3713 922 3314 415 
Q 2916 -91 2278 -91 
Q 1894 -91 1617 61 
Q 1341 213 1159 525 
z
M 3116 1747 
Q 3116 2381 2855 2742 
Q 2594 3103 2138 3103 
Q 1681 3103 1420 2742 
Q 1159 2381 1159 1747 
Q 1159 1113 1420 752 
Q 1681 391 2138 391 
Q 2594 391 2855 752 
Q 3116 1113 3116 1747 
z
" transform="scale(0.015625)"/>
       <path id="DejaVuSans-63" d="M 3122 3366 
L 3122 2828 
Q 2878 2963 2633 3030 
Q 2388 3097 2138 3097 
Q 1578 3097 1268 2742 
Q 959 2388 959 1747 
Q 959 1106 1268 751 
Q 1578 397 2138 397 
Q 2388 397 2633 464 
Q 2878 531 3122 666 
L 3122 134 
Q 2881 22 2623 -34 
Q 2366 -91 2075 -91 
Q 1284 -91 818 406 
Q 353 903 353 1747 
Q 353 2603 823 3093 
Q 1294 3584 2113 3584 
Q 2378 3584 2631 3529 
Q 2884 3475 3122 3366 
z
" transform="scale(0.015625)"/>
      </defs>
      <use xlink:href="#DejaVuSans-53"/>
      <use xlink:href="#DejaVuSans-69" x="63.476562"/>
      <use xlink:href="#DejaVuSans-7a" x="91.259766"/>
      <use xlink:href="#DejaVuSans-65" x="143.75"/>
      <use xlink:href="#DejaVuSans-20" x="205.273438"/>
      <use xlink:href="#DejaVuSans-70" x="237.060547"/>
      <use xlink:href="#DejaVuSans-65" x="300.537109"/>
      <use xlink:href="#DejaVuSans-72" x="362.060547"/>
      <use xlink:href="#DejaVuSans-20" x="403.173828"/>
      <use xlink:href="#DejaVuSans-53" x="434.960938"/>
      <use xlink:href="#DejaVuSans-70" x="498.4375"/>
      <use xlink:href="#DejaVuSans-65" x="561.914062"/>
      <use xlink:href="#DejaVuSans-63" x="623.4375"/>
      <use xlink:href="#DejaVuSans-69" x="678.417969"/>
      <use xlink:href="#DejaVuSans-65" x="706.201172"/>
      <use xlink:href="#DejaVuSans-73" x="767.724609"/>
     </g>
    </g>
   </g>
   <g id="patch_3">
    <path d="M 57.6 307.584 
L 57.6 41.472 
" style="fill: none; stroke: #000000; stroke-width: 0.8; stroke-linejoin: miter; stroke-linecap: square"/>
   </g>
   <g id="patch_4">
    <path d="M 414.72 307.584 
L 414.72 41.472 
" style="fill: none; stroke: #000000; stroke-width: 0.8; stroke-linejoin: miter; stroke-linecap: square"/>
   </g>
   <g id="patch_5">
    <path d="M 57.6 307.584 
L 414.72 307.584 
" style="fill: none; stroke: #000000; stroke-width: 0.8; stroke-linejoin: miter; stroke-linecap: square"/>
   </g>
   <g id="patch_6">
    <path d="M 57.6 41.472 
L 414.72 41.472 
" style="fill: none; stroke: #000000; stroke-width: 0.8; stroke-linejoin: miter; stroke-linecap: square"/>
   </g>
   <g id="text_15">
    <!-- Speciation -->
    <g transform="translate(204.714375 35.472) scale(0.12 -0.12)">
     <use xlink:href="#DejaVuSans-53"/>
     <use xlink:href="#DejaVuSans-70" x="63.476562"/>
     <use xlink:href="#DejaVuSans-65" x="126.953125"/>
     <use xlink:href="#DejaVuSans-63" x="188.476562"/>
     <use xlink:href="#DejaVuSans-69" x="243.457031"/>
     <use xlink:href="#DejaVuSans-61" x="271.240234"/>
     <use xlink:href="#DejaVuSans-74" x="332.519531"/>
     <use xlink:href="#DejaVuSans-69" x="371.728516"/>
     <use xlink:href="#DejaVuSans-6f" x="399.511719"/>
     <use xlink:href="#DejaVuSans-6e" x="460.693359"/>
    </g>
   </g>
  </g>
 </g>
 <defs>
  <clipPath id="pb1dac05505">
   <rect x="57.6" y="41.472" width="357.12" height="266.112"/>
  </clipPath>
 </defs>
</svg>
