<?xml version="1.0" encoding="utf-8" standalone="no"?>
<!DOCTYPE svg PUBLIC "-//W3C//DTD SVG 1.1//EN"
  "http://www.w3.org/Graphics/SVG/1.1/DTD/svg11.dtd">
<svg xmlns:xlink="http://www.w3.org/1999/xlink" width="460.8pt" height="345.6pt" viewBox="0 0 460.8 345.6" xmlns="http://www.w3.org/2000/svg" version="1.1">
 <metadata>
  <rdf:RDF xmlns:dc="http://purl.org/dc/elements/1.1/" xmlns:cc="http://creativecommons.org/ns#" xmlns:rdf="http://www.w3.org/1999/02/22-rdf-syntax-ns#">
   <cc:Work>
    <dc:type rdf:resource="http://purl.org/dc/dcmitype/StillImage"/>
    <dc:date>2023-12-12T23:23:53.237449</dc:date>
    <dc:format>image/svg+xml</dc:format>
    <dc:creator>
     <cc:Agent>
      <dc:title>Matplotlib v3.6.3, https://matplotlib.org/</dc:title>
     </cc:Agent>
    </dc:creator>
   </cc:Work>
  </rdf:RDF>
 </metadata>
 <defs>
  <style type="text/css">*{stroke-linejoin: round; stroke-linecap: butt}</style>
 </defs>
 <g id="figure_1">
  <g id="patch_1">
   <path d="M 0 345.6 
L 460.8 345.6 
L 460.8 0 
L 0 0 
z
" style="fill: #ffffff"/>
  </g>
  <g id="axes_1">
   <g id="patch_2">
    <path d="M 57.6 307.584 
L 414.72 307.584 
L 414.72 41.472 
L 57.6 41.472 
z
" style="fill: #ffffff"/>
   </g>
   <g id="PolyCollection_1">
    <path d="M 73.832727 146.988356 
L 73.832727 307.584 
L 77.112066 307.584 
L 80.391405 307.584 
L 83.670744 307.584 
L 86.950083 307.584 
L 90.229421 307.584 
L 93.50876 307.584 
L 96.788099 307.584 
L 100.067438 307.584 
L 103.346777 307.584 
L 106.626116 307.584 
L 109.905455 307.584 
L 113.184793 307.584 
L 116.464132 307.584 
L 119.743471 307.584 
L 123.02281 307.584 
L 126.302149 307.584 
L 129.581488 307.584 
L 132.860826 307.584 
L 136.140165 307.584 
L 139.419504 307.584 
L 142.698843 307.584 
L 145.978182 307.584 
L 149.257521 307.584 
L 152.53686 307.584 
L 155.816198 307.584 
L 159.095537 307.584 
L 162.374876 307.584 
L 165.654215 307.584 
L 168.933554 307.584 
L 172.212893 307.584 
L 175.492231 307.584 
L 178.77157 307.584 
L 182.050909 307.584 
L 185.330248 307.584 
L 188.609587 307.584 
L 191.888926 307.584 
L 195.168264 307.584 
L 198.447603 307.584 
L 201.726942 307.584 
L 205.006281 307.584 
L 208.28562 307.584 
L 211.564959 307.584 
L 214.844298 307.584 
L 218.123636 307.584 
L 221.402975 307.584 
L 224.682314 307.584 
L 227.961653 307.584 
L 231.240992 307.584 
L 234.520331 307.584 
L 237.799669 307.584 
L 241.079008 307.584 
L 244.358347 307.584 
L 247.637686 307.584 
L 250.917025 307.584 
L 254.196364 307.584 
L 257.475702 307.584 
L 260.755041 307.584 
L 264.03438 307.584 
L 267.313719 307.584 
L 270.593058 307.584 
L 273.872397 307.584 
L 277.151736 307.584 
L 280.431074 307.584 
L 283.710413 307.584 
L 286.989752 307.584 
L 290.269091 307.584 
L 293.54843 307.584 
L 296.827769 307.584 
L 300.107107 307.584 
L 303.386446 307.584 
L 306.665785 307.584 
L 309.945124 307.584 
L 313.224463 307.584 
L 316.503802 307.584 
L 319.78314 307.584 
L 323.062479 307.584 
L 326.341818 307.584 
L 329.621157 307.584 
L 332.900496 307.584 
L 336.179835 307.584 
L 339.459174 307.584 
L 342.738512 307.584 
L 346.017851 307.584 
L 349.29719 307.584 
L 352.576529 307.584 
L 355.855868 307.584 
L 359.135207 307.584 
L 362.414545 307.584 
L 365.693884 307.584 
L 368.973223 307.584 
L 372.252562 307.584 
L 375.531901 307.584 
L 378.81124 307.584 
L 382.090579 307.584 
L 385.369917 307.584 
L 388.649256 307.584 
L 391.928595 307.584 
L 395.207934 307.584 
L 398.487273 307.584 
L 398.487273 159.534891 
L 398.487273 159.534891 
L 395.207934 179.609347 
L 391.928595 184.62796 
L 388.649256 184.62796 
L 385.369917 169.572119 
L 382.090579 141.969743 
L 378.81124 179.609347 
L 375.531901 179.609347 
L 372.252562 184.62796 
L 368.973223 169.572119 
L 365.693884 157.025584 
L 362.414545 217.24895 
L 359.135207 197.174495 
L 355.855868 182.118653 
L 352.576529 214.739644 
L 349.29719 219.758257 
L 346.017851 194.665188 
L 342.738512 184.62796 
L 339.459174 189.646574 
L 336.179835 174.590733 
L 332.900496 184.62796 
L 329.621157 182.118653 
L 326.341818 204.702416 
L 323.062479 189.646574 
L 319.78314 232.304792 
L 316.503802 209.72103 
L 313.224463 214.739644 
L 309.945124 242.34202 
L 306.665785 269.944396 
L 303.386446 174.590733 
L 300.107107 274.96301 
L 296.827769 217.24895 
L 293.54843 184.62796 
L 290.269091 207.211723 
L 286.989752 182.118653 
L 283.710413 136.951129 
L 280.431074 189.646574 
L 277.151736 212.230337 
L 273.872397 219.758257 
L 270.593058 149.497663 
L 267.313719 189.646574 
L 264.03438 184.62796 
L 260.755041 194.665188 
L 257.475702 189.646574 
L 254.196364 194.665188 
L 250.917025 204.702416 
L 247.637686 209.72103 
L 244.358347 217.24895 
L 241.079008 209.72103 
L 237.799669 199.683802 
L 234.520331 204.702416 
L 231.240992 192.155881 
L 227.961653 247.360634 
L 224.682314 234.814099 
L 221.402975 232.304792 
L 218.123636 234.814099 
L 214.844298 239.832713 
L 211.564959 237.323406 
L 208.28562 237.323406 
L 205.006281 239.832713 
L 201.726942 254.888554 
L 198.447603 247.360634 
L 195.168264 254.888554 
L 191.888926 254.888554 
L 188.609587 199.683802 
L 185.330248 189.646574 
L 182.050909 177.10004 
L 178.77157 194.665188 
L 175.492231 179.609347 
L 172.212893 259.907168 
L 168.933554 249.869941 
L 165.654215 267.435089 
L 162.374876 224.776871 
L 159.095537 199.683802 
L 155.816198 149.497663 
L 152.53686 129.423208 
L 149.257521 66.690535 
L 145.978182 232.304792 
L 142.698843 267.435089 
L 139.419504 292.528158 
L 136.140165 247.360634 
L 132.860826 182.118653 
L 129.581488 257.397861 
L 126.302149 214.739644 
L 123.02281 264.925782 
L 119.743471 269.944396 
L 116.464132 146.988356 
L 113.184793 164.553505 
L 109.905455 204.702416 
L 106.626116 157.025584 
L 103.346777 154.516277 
L 100.067438 119.38598 
L 96.788099 134.441822 
L 93.50876 124.404594 
L 90.229421 124.404594 
L 86.950083 121.895287 
L 83.670744 124.404594 
L 80.391405 111.858059 
L 77.112066 84.255683 
L 73.832727 146.988356 
z
" clip-path="url(#p376a430e14)" style="fill: #1f77b4"/>
   </g>
   <g id="PolyCollection_2">
    <path d="M 73.832727 56.653307 
L 73.832727 146.988356 
L 77.112066 84.255683 
L 80.391405 111.858059 
L 83.670744 124.404594 
L 86.950083 121.895287 
L 90.229421 124.404594 
L 93.50876 124.404594 
L 96.788099 134.441822 
L 100.067438 119.38598 
L 103.346777 154.516277 
L 106.626116 157.025584 
L 109.905455 204.702416 
L 113.184793 164.553505 
L 116.464132 146.988356 
L 119.743471 269.944396 
L 123.02281 264.925782 
L 126.302149 214.739644 
L 129.581488 257.397861 
L 132.860826 182.118653 
L 136.140165 247.360634 
L 139.419504 292.528158 
L 142.698843 267.435089 
L 145.978182 232.304792 
L 149.257521 66.690535 
L 152.53686 129.423208 
L 155.816198 149.497663 
L 159.095537 199.683802 
L 162.374876 224.776871 
L 165.654215 267.435089 
L 168.933554 249.869941 
L 172.212893 259.907168 
L 175.492231 179.609347 
L 178.77157 194.665188 
L 182.050909 177.10004 
L 185.330248 189.646574 
L 188.609587 199.683802 
L 191.888926 254.888554 
L 195.168264 254.888554 
L 198.447603 247.360634 
L 201.726942 254.888554 
L 205.006281 239.832713 
L 208.28562 237.323406 
L 211.564959 237.323406 
L 214.844298 239.832713 
L 218.123636 234.814099 
L 221.402975 232.304792 
L 224.682314 234.814099 
L 227.961653 247.360634 
L 231.240992 192.155881 
L 234.520331 204.702416 
L 237.799669 199.683802 
L 241.079008 209.72103 
L 244.358347 217.24895 
L 247.637686 209.72103 
L 250.917025 204.702416 
L 254.196364 194.665188 
L 257.475702 189.646574 
L 260.755041 194.665188 
L 264.03438 184.62796 
L 267.313719 189.646574 
L 270.593058 149.497663 
L 273.872397 219.758257 
L 277.151736 212.230337 
L 280.431074 189.646574 
L 283.710413 136.951129 
L 286.989752 182.118653 
L 290.269091 207.211723 
L 293.54843 184.62796 
L 296.827769 217.24895 
L 300.107107 274.96301 
L 303.386446 174.590733 
L 306.665785 269.944396 
L 309.945124 242.34202 
L 313.224463 214.739644 
L 316.503802 209.72103 
L 319.78314 232.304792 
L 323.062479 189.646574 
L 326.341818 204.702416 
L 329.621157 182.118653 
L 332.900496 184.62796 
L 336.179835 174.590733 
L 339.459174 189.646574 
L 342.738512 184.62796 
L 346.017851 194.665188 
L 349.29719 219.758257 
L 352.576529 214.739644 
L 355.855868 182.118653 
L 359.135207 197.174495 
L 362.414545 217.24895 
L 365.693884 157.025584 
L 368.973223 169.572119 
L 372.252562 184.62796 
L 375.531901 179.609347 
L 378.81124 179.609347 
L 382.090579 141.969743 
L 385.369917 169.572119 
L 388.649256 184.62796 
L 391.928595 184.62796 
L 395.207934 179.609347 
L 398.487273 159.534891 
L 398.487273 56.653307 
L 398.487273 56.653307 
L 395.207934 56.653307 
L 391.928595 56.653307 
L 388.649256 56.653307 
L 385.369917 56.653307 
L 382.090579 56.653307 
L 378.81124 56.653307 
L 375.531901 56.653307 
L 372.252562 56.653307 
L 368.973223 56.653307 
L 365.693884 56.653307 
L 362.414545 56.653307 
L 359.135207 56.653307 
L 355.855868 56.653307 
L 352.576529 56.653307 
L 349.29719 56.653307 
L 346.017851 56.653307 
L 342.738512 56.653307 
L 339.459174 56.653307 
L 336.179835 56.653307 
L 332.900496 56.653307 
L 329.621157 56.653307 
L 326.341818 56.653307 
L 323.062479 56.653307 
L 319.78314 56.653307 
L 316.503802 56.653307 
L 313.224463 56.653307 
L 309.945124 56.653307 
L 306.665785 56.653307 
L 303.386446 56.653307 
L 300.107107 56.653307 
L 296.827769 56.653307 
L 293.54843 56.653307 
L 290.269091 56.653307 
L 286.989752 56.653307 
L 283.710413 56.653307 
L 280.431074 56.653307 
L 277.151736 56.653307 
L 273.872397 56.653307 
L 270.593058 56.653307 
L 267.313719 56.653307 
L 264.03438 56.653307 
L 260.755041 56.653307 
L 257.475702 56.653307 
L 254.196364 56.653307 
L 250.917025 56.653307 
L 247.637686 56.653307 
L 244.358347 56.653307 
L 241.079008 56.653307 
L 237.799669 56.653307 
L 234.520331 56.653307 
L 231.240992 56.653307 
L 227.961653 144.47905 
L 224.682314 149.497663 
L 221.402975 144.47905 
L 218.123636 136.951129 
L 214.844298 141.969743 
L 211.564959 141.969743 
L 208.28562 134.441822 
L 205.006281 144.47905 
L 201.726942 154.516277 
L 198.447603 154.516277 
L 195.168264 159.534891 
L 191.888926 164.553505 
L 188.609587 167.062812 
L 185.330248 169.572119 
L 182.050909 167.062812 
L 178.77157 174.590733 
L 175.492231 167.062812 
L 172.212893 169.572119 
L 168.933554 184.62796 
L 165.654215 229.795485 
L 162.374876 169.572119 
L 159.095537 96.802218 
L 155.816198 71.709149 
L 152.53686 56.653307 
L 149.257521 56.653307 
L 145.978182 56.653307 
L 142.698843 56.653307 
L 139.419504 56.653307 
L 136.140165 56.653307 
L 132.860826 56.653307 
L 129.581488 56.653307 
L 126.302149 56.653307 
L 123.02281 56.653307 
L 119.743471 56.653307 
L 116.464132 56.653307 
L 113.184793 56.653307 
L 109.905455 56.653307 
L 106.626116 56.653307 
L 103.346777 56.653307 
L 100.067438 56.653307 
L 96.788099 56.653307 
L 93.50876 56.653307 
L 90.229421 56.653307 
L 86.950083 56.653307 
L 83.670744 56.653307 
L 80.391405 56.653307 
L 77.112066 56.653307 
L 73.832727 56.653307 
z
" clip-path="url(#p376a430e14)" style="fill: #ff7f0e"/>
   </g>
   <g id="PolyCollection_3">
    <path d="M 73.832727 56.653307 
L 73.832727 56.653307 
L 77.112066 56.653307 
L 80.391405 56.653307 
L 83.670744 56.653307 
L 86.950083 56.653307 
L 90.229421 56.653307 
L 93.50876 56.653307 
L 96.788099 56.653307 
L 100.067438 56.653307 
L 103.346777 56.653307 
L 106.626116 56.653307 
L 109.905455 56.653307 
L 113.184793 56.653307 
L 116.464132 56.653307 
L 119.743471 56.653307 
L 123.02281 56.653307 
L 126.302149 56.653307 
L 129.581488 56.653307 
L 132.860826 56.653307 
L 136.140165 56.653307 
L 139.419504 56.653307 
L 142.698843 56.653307 
L 145.978182 56.653307 
L 149.257521 56.653307 
L 152.53686 56.653307 
L 155.816198 71.709149 
L 159.095537 96.802218 
L 162.374876 169.572119 
L 165.654215 229.795485 
L 168.933554 184.62796 
L 172.212893 169.572119 
L 175.492231 167.062812 
L 178.77157 174.590733 
L 182.050909 167.062812 
L 185.330248 169.572119 
L 188.609587 167.062812 
L 191.888926 164.553505 
L 195.168264 159.534891 
L 198.447603 154.516277 
L 201.726942 154.516277 
L 205.006281 144.47905 
L 208.28562 134.441822 
L 211.564959 141.969743 
L 214.844298 141.969743 
L 218.123636 136.951129 
L 221.402975 144.47905 
L 224.682314 149.497663 
L 227.961653 144.47905 
L 231.240992 56.653307 
L 234.520331 56.653307 
L 237.799669 56.653307 
L 241.079008 56.653307 
L 244.358347 56.653307 
L 247.637686 56.653307 
L 250.917025 56.653307 
L 254.196364 56.653307 
L 257.475702 56.653307 
L 260.755041 56.653307 
L 264.03438 56.653307 
L 267.313719 56.653307 
L 270.593058 56.653307 
L 273.872397 56.653307 
L 277.151736 56.653307 
L 280.431074 56.653307 
L 283.710413 56.653307 
L 286.989752 56.653307 
L 290.269091 56.653307 
L 293.54843 56.653307 
L 296.827769 56.653307 
L 300.107107 56.653307 
L 303.386446 56.653307 
L 306.665785 56.653307 
L 309.945124 56.653307 
L 313.224463 56.653307 
L 316.503802 56.653307 
L 319.78314 56.653307 
L 323.062479 56.653307 
L 326.341818 56.653307 
L 329.621157 56.653307 
L 332.900496 56.653307 
L 336.179835 56.653307 
L 339.459174 56.653307 
L 342.738512 56.653307 
L 346.017851 56.653307 
L 349.29719 56.653307 
L 352.576529 56.653307 
L 355.855868 56.653307 
L 359.135207 56.653307 
L 362.414545 56.653307 
L 365.693884 56.653307 
L 368.973223 56.653307 
L 372.252562 56.653307 
L 375.531901 56.653307 
L 378.81124 56.653307 
L 382.090579 56.653307 
L 385.369917 56.653307 
L 388.649256 56.653307 
L 391.928595 56.653307 
L 395.207934 56.653307 
L 398.487273 56.653307 
L 398.487273 56.653307 
L 398.487273 56.653307 
L 395.207934 56.653307 
L 391.928595 56.653307 
L 388.649256 56.653307 
L 385.369917 56.653307 
L 382.090579 56.653307 
L 378.81124 56.653307 
L 375.531901 56.653307 
L 372.252562 56.653307 
L 368.973223 56.653307 
L 365.693884 56.653307 
L 362.414545 56.653307 
L 359.135207 56.653307 
L 355.855868 56.653307 
L 352.576529 56.653307 
L 349.29719 56.653307 
L 346.017851 56.653307 
L 342.738512 56.653307 
L 339.459174 56.653307 
L 336.179835 56.653307 
L 332.900496 56.653307 
L 329.621157 56.653307 
L 326.341818 56.653307 
L 323.062479 56.653307 
L 319.78314 56.653307 
L 316.503802 56.653307 
L 313.224463 56.653307 
L 309.945124 56.653307 
L 306.665785 56.653307 
L 303.386446 56.653307 
L 300.107107 56.653307 
L 296.827769 56.653307 
L 293.54843 56.653307 
L 290.269091 56.653307 
L 286.989752 56.653307 
L 283.710413 56.653307 
L 280.431074 56.653307 
L 277.151736 56.653307 
L 273.872397 56.653307 
L 270.593058 56.653307 
L 267.313719 56.653307 
L 264.03438 56.653307 
L 260.755041 56.653307 
L 257.475702 56.653307 
L 254.196364 56.653307 
L 250.917025 56.653307 
L 247.637686 56.653307 
L 244.358347 56.653307 
L 241.079008 56.653307 
L 237.799669 56.653307 
L 234.520331 56.653307 
L 231.240992 56.653307 
L 227.961653 56.653307 
L 224.682314 56.653307 
L 221.402975 54.144 
L 218.123636 54.144 
L 214.844298 56.653307 
L 211.564959 59.162614 
L 208.28562 54.144 
L 205.006281 56.653307 
L 201.726942 59.162614 
L 198.447603 56.653307 
L 195.168264 56.653307 
L 191.888926 56.653307 
L 188.609587 56.653307 
L 185.330248 56.653307 
L 182.050909 54.144 
L 178.77157 54.144 
L 175.492231 56.653307 
L 172.212893 56.653307 
L 168.933554 56.653307 
L 165.654215 56.653307 
L 162.374876 56.653307 
L 159.095537 56.653307 
L 155.816198 56.653307 
L 152.53686 56.653307 
L 149.257521 56.653307 
L 145.978182 56.653307 
L 142.698843 56.653307 
L 139.419504 56.653307 
L 136.140165 56.653307 
L 132.860826 56.653307 
L 129.581488 56.653307 
L 126.302149 56.653307 
L 123.02281 56.653307 
L 119.743471 56.653307 
L 116.464132 56.653307 
L 113.184793 56.653307 
L 109.905455 56.653307 
L 106.626116 56.653307 
L 103.346777 56.653307 
L 100.067438 56.653307 
L 96.788099 56.653307 
L 93.50876 56.653307 
L 90.229421 56.653307 
L 86.950083 56.653307 
L 83.670744 56.653307 
L 80.391405 56.653307 
L 77.112066 56.653307 
L 73.832727 56.653307 
z
" clip-path="url(#p376a430e14)" style="fill: #2ca02c"/>
   </g>
   <g id="matplotlib.axis_1">
    <g id="xtick_1">
     <g id="line2d_1">
      <defs>
       <path id="me6a8e24736" d="M 0 0 
L 0 3.5 
" style="stroke: #000000; stroke-width: 0.8"/>
      </defs>
      <g>
       <use xlink:href="#me6a8e24736" x="73.832727" y="307.584" style="stroke: #000000; stroke-width: 0.8"/>
      </g>
     </g>
     <g id="text_1">
      <!-- 0 -->
      <g transform="translate(70.651477 322.182437) scale(0.1 -0.1)">
       <defs>
        <path id="DejaVuSans-30" d="M 2034 4250 
Q 1547 4250 1301 3770 
Q 1056 3291 1056 2328 
Q 1056 1369 1301 889 
Q 1547 409 2034 409 
Q 2525 409 2770 889 
Q 3016 1369 3016 2328 
Q 3016 3291 2770 3770 
Q 2525 4250 2034 4250 
z
M 2034 4750 
Q 2819 4750 3233 4129 
Q 3647 3509 3647 2328 
Q 3647 1150 3233 529 
Q 2819 -91 2034 -91 
Q 1250 -91 836 529 
Q 422 1150 422 2328 
Q 422 3509 836 4129 
Q 1250 4750 2034 4750 
z
" transform="scale(0.015625)"/>
       </defs>
       <use xlink:href="#DejaVuSans-30"/>
      </g>
     </g>
    </g>
    <g id="xtick_2">
     <g id="line2d_2">
      <g>
       <use xlink:href="#me6a8e24736" x="139.419504" y="307.584" style="stroke: #000000; stroke-width: 0.8"/>
      </g>
     </g>
     <g id="text_2">
      <!-- 20 -->
      <g transform="translate(133.057004 322.182437) scale(0.1 -0.1)">
       <defs>
        <path id="DejaVuSans-32" d="M 1228 531 
L 3431 531 
L 3431 0 
L 469 0 
L 469 531 
Q 828 903 1448 1529 
Q 2069 2156 2228 2338 
Q 2531 2678 2651 2914 
Q 2772 3150 2772 3378 
Q 2772 3750 2511 3984 
Q 2250 4219 1831 4219 
Q 1534 4219 1204 4116 
Q 875 4013 500 3803 
L 500 4441 
Q 881 4594 1212 4672 
Q 1544 4750 1819 4750 
Q 2544 4750 2975 4387 
Q 3406 4025 3406 3419 
Q 3406 3131 3298 2873 
Q 3191 2616 2906 2266 
Q 2828 2175 2409 1742 
Q 1991 1309 1228 531 
z
" transform="scale(0.015625)"/>
       </defs>
       <use xlink:href="#DejaVuSans-32"/>
       <use xlink:href="#DejaVuSans-30" x="63.623047"/>
      </g>
     </g>
    </g>
    <g id="xtick_3">
     <g id="line2d_3">
      <g>
       <use xlink:href="#me6a8e24736" x="205.006281" y="307.584" style="stroke: #000000; stroke-width: 0.8"/>
      </g>
     </g>
     <g id="text_3">
      <!-- 40 -->
      <g transform="translate(198.643781 322.182437) scale(0.1 -0.1)">
       <defs>
        <path id="DejaVuSans-34" d="M 2419 4116 
L 825 1625 
L 2419 1625 
L 2419 4116 
z
M 2253 4666 
L 3047 4666 
L 3047 1625 
L 3713 1625 
L 3713 1100 
L 3047 1100 
L 3047 0 
L 2419 0 
L 2419 1100 
L 313 1100 
L 313 1709 
L 2253 4666 
z
" transform="scale(0.015625)"/>
       </defs>
       <use xlink:href="#DejaVuSans-34"/>
       <use xlink:href="#DejaVuSans-30" x="63.623047"/>
      </g>
     </g>
    </g>
    <g id="xtick_4">
     <g id="line2d_4">
      <g>
       <use xlink:href="#me6a8e24736" x="270.593058" y="307.584" style="stroke: #000000; stroke-width: 0.8"/>
      </g>
     </g>
     <g id="text_4">
      <!-- 60 -->
      <g transform="translate(264.230558 322.182437) scale(0.1 -0.1)">
       <defs>
        <path id="DejaVuSans-36" d="M 2113 2584 
Q 1688 2584 1439 2293 
Q 1191 2003 1191 1497 
Q 1191 994 1439 701 
Q 1688 409 2113 409 
Q 2538 409 2786 701 
Q 3034 994 3034 1497 
Q 3034 2003 2786 2293 
Q 2538 2584 2113 2584 
z
M 3366 4563 
L 3366 3988 
Q 3128 4100 2886 4159 
Q 2644 4219 2406 4219 
Q 1781 4219 1451 3797 
Q 1122 3375 1075 2522 
Q 1259 2794 1537 2939 
Q 1816 3084 2150 3084 
Q 2853 3084 3261 2657 
Q 3669 2231 3669 1497 
Q 3669 778 3244 343 
Q 2819 -91 2113 -91 
Q 1303 -91 875 529 
Q 447 1150 447 2328 
Q 447 3434 972 4092 
Q 1497 4750 2381 4750 
Q 2619 4750 2861 4703 
Q 3103 4656 3366 4563 
z
" transform="scale(0.015625)"/>
       </defs>
       <use xlink:href="#DejaVuSans-36"/>
       <use xlink:href="#DejaVuSans-30" x="63.623047"/>
      </g>
     </g>
    </g>
    <g id="xtick_5">
     <g id="line2d_5">
      <g>
       <use xlink:href="#me6a8e24736" x="336.179835" y="307.584" style="stroke: #000000; stroke-width: 0.8"/>
      </g>
     </g>
     <g id="text_5">
      <!-- 80 -->
      <g transform="translate(329.817335 322.182437) scale(0.1 -0.1)">
       <defs>
        <path id="DejaVuSans-38" d="M 2034 2216 
Q 1584 2216 1326 1975 
Q 1069 1734 1069 1313 
Q 1069 891 1326 650 
Q 1584 409 2034 409 
Q 2484 409 2743 651 
Q 3003 894 3003 1313 
Q 3003 1734 2745 1975 
Q 2488 2216 2034 2216 
z
M 1403 2484 
Q 997 2584 770 2862 
Q 544 3141 544 3541 
Q 544 4100 942 4425 
Q 1341 4750 2034 4750 
Q 2731 4750 3128 4425 
Q 3525 4100 3525 3541 
Q 3525 3141 3298 2862 
Q 3072 2584 2669 2484 
Q 3125 2378 3379 2068 
Q 3634 1759 3634 1313 
Q 3634 634 3220 271 
Q 2806 -91 2034 -91 
Q 1263 -91 848 271 
Q 434 634 434 1313 
Q 434 1759 690 2068 
Q 947 2378 1403 2484 
z
M 1172 3481 
Q 1172 3119 1398 2916 
Q 1625 2713 2034 2713 
Q 2441 2713 2670 2916 
Q 2900 3119 2900 3481 
Q 2900 3844 2670 4047 
Q 2441 4250 2034 4250 
Q 1625 4250 1398 4047 
Q 1172 3844 1172 3481 
z
" transform="scale(0.015625)"/>
       </defs>
       <use xlink:href="#DejaVuSans-38"/>
       <use xlink:href="#DejaVuSans-30" x="63.623047"/>
      </g>
     </g>
    </g>
    <g id="xtick_6">
     <g id="line2d_6">
      <g>
       <use xlink:href="#me6a8e24736" x="401.766612" y="307.584" style="stroke: #000000; stroke-width: 0.8"/>
      </g>
     </g>
     <g id="text_6">
      <!-- 100 -->
      <g transform="translate(392.222862 322.182437) scale(0.1 -0.1)">
       <defs>
        <path id="DejaVuSans-31" d="M 794 531 
L 1825 531 
L 1825 4091 
L 703 3866 
L 703 4441 
L 1819 4666 
L 2450 4666 
L 2450 531 
L 3481 531 
L 3481 0 
L 794 0 
L 794 531 
z
" transform="scale(0.015625)"/>
       </defs>
       <use xlink:href="#DejaVuSans-31"/>
       <use xlink:href="#DejaVuSans-30" x="63.623047"/>
       <use xlink:href="#DejaVuSans-30" x="127.246094"/>
      </g>
     </g>
    </g>
    <g id="text_7">
     <!-- Generations -->
     <g transform="translate(205.662344 335.860562) scale(0.1 -0.1)">
      <defs>
       <path id="DejaVuSans-47" d="M 3809 666 
L 3809 1919 
L 2778 1919 
L 2778 2438 
L 4434 2438 
L 4434 434 
Q 4069 175 3628 42 
Q 3188 -91 2688 -91 
Q 1594 -91 976 548 
Q 359 1188 359 2328 
Q 359 3472 976 4111 
Q 1594 4750 2688 4750 
Q 3144 4750 3555 4637 
Q 3966 4525 4313 4306 
L 4313 3634 
Q 3963 3931 3569 4081 
Q 3175 4231 2741 4231 
Q 1884 4231 1454 3753 
Q 1025 3275 1025 2328 
Q 1025 1384 1454 906 
Q 1884 428 2741 428 
Q 3075 428 3337 486 
Q 3600 544 3809 666 
z
" transform="scale(0.015625)"/>
       <path id="DejaVuSans-65" d="M 3597 1894 
L 3597 1613 
L 953 1613 
Q 991 1019 1311 708 
Q 1631 397 2203 397 
Q 2534 397 2845 478 
Q 3156 559 3463 722 
L 3463 178 
Q 3153 47 2828 -22 
Q 2503 -91 2169 -91 
Q 1331 -91 842 396 
Q 353 884 353 1716 
Q 353 2575 817 3079 
Q 1281 3584 2069 3584 
Q 2775 3584 3186 3129 
Q 3597 2675 3597 1894 
z
M 3022 2063 
Q 3016 2534 2758 2815 
Q 2500 3097 2075 3097 
Q 1594 3097 1305 2825 
Q 1016 2553 972 2059 
L 3022 2063 
z
" transform="scale(0.015625)"/>
       <path id="DejaVuSans-6e" d="M 3513 2113 
L 3513 0 
L 2938 0 
L 2938 2094 
Q 2938 2591 2744 2837 
Q 2550 3084 2163 3084 
Q 1697 3084 1428 2787 
Q 1159 2491 1159 1978 
L 1159 0 
L 581 0 
L 581 3500 
L 1159 3500 
L 1159 2956 
Q 1366 3272 1645 3428 
Q 1925 3584 2291 3584 
Q 2894 3584 3203 3211 
Q 3513 2838 3513 2113 
z
" transform="scale(0.015625)"/>
       <path id="DejaVuSans-72" d="M 2631 2963 
Q 2534 3019 2420 3045 
Q 2306 3072 2169 3072 
Q 1681 3072 1420 2755 
Q 1159 2438 1159 1844 
L 1159 0 
L 581 0 
L 581 3500 
L 1159 3500 
L 1159 2956 
Q 1341 3275 1631 3429 
Q 1922 3584 2338 3584 
Q 2397 3584 2469 3576 
Q 2541 3569 2628 3553 
L 2631 2963 
z
" transform="scale(0.015625)"/>
       <path id="DejaVuSans-61" d="M 2194 1759 
Q 1497 1759 1228 1600 
Q 959 1441 959 1056 
Q 959 750 1161 570 
Q 1363 391 1709 391 
Q 2188 391 2477 730 
Q 2766 1069 2766 1631 
L 2766 1759 
L 2194 1759 
z
M 3341 1997 
L 3341 0 
L 2766 0 
L 2766 531 
Q 2569 213 2275 61 
Q 1981 -91 1556 -91 
Q 1019 -91 701 211 
Q 384 513 384 1019 
Q 384 1609 779 1909 
Q 1175 2209 1959 2209 
L 2766 2209 
L 2766 2266 
Q 2766 2663 2505 2880 
Q 2244 3097 1772 3097 
Q 1472 3097 1187 3025 
Q 903 2953 641 2809 
L 641 3341 
Q 956 3463 1253 3523 
Q 1550 3584 1831 3584 
Q 2591 3584 2966 3190 
Q 3341 2797 3341 1997 
z
" transform="scale(0.015625)"/>
       <path id="DejaVuSans-74" d="M 1172 4494 
L 1172 3500 
L 2356 3500 
L 2356 3053 
L 1172 3053 
L 1172 1153 
Q 1172 725 1289 603 
Q 1406 481 1766 481 
L 2356 481 
L 2356 0 
L 1766 0 
Q 1100 0 847 248 
Q 594 497 594 1153 
L 594 3053 
L 172 3053 
L 172 3500 
L 594 3500 
L 594 4494 
L 1172 4494 
z
" transform="scale(0.015625)"/>
       <path id="DejaVuSans-69" d="M 603 3500 
L 1178 3500 
L 1178 0 
L 603 0 
L 603 3500 
z
M 603 4863 
L 1178 4863 
L 1178 4134 
L 603 4134 
L 603 4863 
z
" transform="scale(0.015625)"/>
       <path id="DejaVuSans-6f" d="M 1959 3097 
Q 1497 3097 1228 2736 
Q 959 2375 959 1747 
Q 959 1119 1226 758 
Q 1494 397 1959 397 
Q 2419 397 2687 759 
Q 2956 1122 2956 1747 
Q 2956 2369 2687 2733 
Q 2419 3097 1959 3097 
z
M 1959 3584 
Q 2709 3584 3137 3096 
Q 3566 2609 3566 1747 
Q 3566 888 3137 398 
Q 2709 -91 1959 -91 
Q 1206 -91 779 398 
Q 353 888 353 1747 
Q 353 2609 779 3096 
Q 1206 3584 1959 3584 
z
" transform="scale(0.015625)"/>
       <path id="DejaVuSans-73" d="M 2834 3397 
L 2834 2853 
Q 2591 2978 2328 3040 
Q 2066 3103 1784 3103 
Q 1356 3103 1142 2972 
Q 928 2841 928 2578 
Q 928 2378 1081 2264 
Q 1234 2150 1697 2047 
L 1894 2003 
Q 2506 1872 2764 1633 
Q 3022 1394 3022 966 
Q 3022 478 2636 193 
Q 2250 -91 1575 -91 
Q 1294 -91 989 -36 
Q 684 19 347 128 
L 347 722 
Q 666 556 975 473 
Q 1284 391 1588 391 
Q 1994 391 2212 530 
Q 2431 669 2431 922 
Q 2431 1156 2273 1281 
Q 2116 1406 1581 1522 
L 1381 1569 
Q 847 1681 609 1914 
Q 372 2147 372 2553 
Q 372 3047 722 3315 
Q 1072 3584 1716 3584 
Q 2034 3584 2315 3537 
Q 2597 3491 2834 3397 
z
" transform="scale(0.015625)"/>
      </defs>
      <use xlink:href="#DejaVuSans-47"/>
      <use xlink:href="#DejaVuSans-65" x="77.490234"/>
      <use xlink:href="#DejaVuSans-6e" x="139.013672"/>
      <use xlink:href="#DejaVuSans-65" x="202.392578"/>
      <use xlink:href="#DejaVuSans-72" x="263.916016"/>
      <use xlink:href="#DejaVuSans-61" x="305.029297"/>
      <use xlink:href="#DejaVuSans-74" x="366.308594"/>
      <use xlink:href="#DejaVuSans-69" x="405.517578"/>
      <use xlink:href="#DejaVuSans-6f" x="433.300781"/>
      <use xlink:href="#DejaVuSans-6e" x="494.482422"/>
      <use xlink:href="#DejaVuSans-73" x="557.861328"/>
     </g>
    </g>
   </g>
   <g id="matplotlib.axis_2">
    <g id="ytick_1">
     <g id="line2d_7">
      <defs>
       <path id="m8b00138999" d="M 0 0 
L -3.5 0 
" style="stroke: #000000; stroke-width: 0.8"/>
      </defs>
      <g>
       <use xlink:href="#m8b00138999" x="57.6" y="307.584" style="stroke: #000000; stroke-width: 0.8"/>
      </g>
     </g>
     <g id="text_8">
      <!-- 0 -->
      <g transform="translate(44.2375 311.383219) scale(0.1 -0.1)">
       <use xlink:href="#DejaVuSans-30"/>
      </g>
     </g>
    </g>
    <g id="ytick_2">
     <g id="line2d_8">
      <g>
       <use xlink:href="#m8b00138999" x="57.6" y="257.397861" style="stroke: #000000; stroke-width: 0.8"/>
      </g>
     </g>
     <g id="text_9">
      <!-- 20 -->
      <g transform="translate(37.875 261.19708) scale(0.1 -0.1)">
       <use xlink:href="#DejaVuSans-32"/>
       <use xlink:href="#DejaVuSans-30" x="63.623047"/>
      </g>
     </g>
    </g>
    <g id="ytick_3">
     <g id="line2d_9">
      <g>
       <use xlink:href="#m8b00138999" x="57.6" y="207.211723" style="stroke: #000000; stroke-width: 0.8"/>
      </g>
     </g>
     <g id="text_10">
      <!-- 40 -->
      <g transform="translate(37.875 211.010942) scale(0.1 -0.1)">
       <use xlink:href="#DejaVuSans-34"/>
       <use xlink:href="#DejaVuSans-30" x="63.623047"/>
      </g>
     </g>
    </g>
    <g id="ytick_4">
     <g id="line2d_10">
      <g>
       <use xlink:href="#m8b00138999" x="57.6" y="157.025584" style="stroke: #000000; stroke-width: 0.8"/>
      </g>
     </g>
     <g id="text_11">
      <!-- 60 -->
      <g transform="translate(37.875 160.824803) scale(0.1 -0.1)">
       <use xlink:href="#DejaVuSans-36"/>
       <use xlink:href="#DejaVuSans-30" x="63.623047"/>
      </g>
     </g>
    </g>
    <g id="ytick_5">
     <g id="line2d_11">
      <g>
       <use xlink:href="#m8b00138999" x="57.6" y="106.839446" style="stroke: #000000; stroke-width: 0.8"/>
      </g>
     </g>
     <g id="text_12">
      <!-- 80 -->
      <g transform="translate(37.875 110.638664) scale(0.1 -0.1)">
       <use xlink:href="#DejaVuSans-38"/>
       <use xlink:href="#DejaVuSans-30" x="63.623047"/>
      </g>
     </g>
    </g>
    <g id="ytick_6">
     <g id="line2d_12">
      <g>
       <use xlink:href="#m8b00138999" x="57.6" y="56.653307" style="stroke: #000000; stroke-width: 0.8"/>
      </g>
     </g>
     <g id="text_13">
      <!-- 100 -->
      <g transform="translate(31.5125 60.452526) scale(0.1 -0.1)">
       <use xlink:href="#DejaVuSans-31"/>
       <use xlink:href="#DejaVuSans-30" x="63.623047"/>
       <use xlink:href="#DejaVuSans-30" x="127.246094"/>
      </g>
     </g>
    </g>
    <g id="text_14">
     <!-- Size per Species -->
     <g transform="translate(25.432812 215.520969) rotate(-90) scale(0.1 -0.1)">
      <defs>
       <path id="DejaVuSans-53" d="M 3425 4513 
L 3425 3897 
Q 3066 4069 2747 4153 
Q 2428 4238 2131 4238 
Q 1616 4238 1336 4038 
Q 1056 3838 1056 3469 
Q 1056 3159 1242 3001 
Q 1428 2844 1947 2747 
L 2328 2669 
Q 3034 2534 3370 2195 
Q 3706 1856 3706 1288 
Q 3706 609 3251 259 
Q 2797 -91 1919 -91 
Q 1588 -91 1214 -16 
Q 841 59 441 206 
L 441 856 
Q 825 641 1194 531 
Q 1563 422 1919 422 
Q 2459 422 2753 634 
Q 3047 847 3047 1241 
Q 3047 1584 2836 1778 
Q 2625 1972 2144 2069 
L 1759 2144 
Q 1053 2284 737 2584 
Q 422 2884 422 3419 
Q 422 4038 858 4394 
Q 1294 4750 2059 4750 
Q 2388 4750 2728 4690 
Q 3069 4631 3425 4513 
z
" transform="scale(0.015625)"/>
       <path id="DejaVuSans-7a" d="M 353 3500 
L 3084 3500 
L 3084 2975 
L 922 459 
L 3084 459 
L 3084 0 
L 275 0 
L 275 525 
L 2438 3041 
L 353 3041 
L 353 3500 
z
" transform="scale(0.015625)"/>
       <path id="DejaVuSans-20" transform="scale(0.015625)"/>
       <path id="DejaVuSans-70" d="M 1159 525 
L 1159 -1331 
L 581 -1331 
L 581 3500 
L 1159 3500 
L 1159 2969 
Q 1341 3281 1617 3432 
Q 1894 3584 2278 3584 
Q 2916 3584 3314 3078 
Q 3713 2572 3713 1747 
Q 3713 922 3314 415 
Q 2916 -91 2278 -91 
Q 1894 -91 1617 61 
Q 1341 213 1159 525 
z
M 3116 1747 
Q 3116 2381 2855 2742 
Q 2594 3103 2138 3103 
Q 1681 3103 1420 2742 
Q 1159 2381 1159 1747 
Q 1159 1113 1420 752 
Q 1681 391 2138 391 
Q 2594 391 2855 752 
Q 3116 1113 3116 1747 
z
" transform="scale(0.015625)"/>
       <path id="DejaVuSans-63" d="M 3122 3366 
L 3122 2828 
Q 2878 2963 2633 3030 
Q 2388 3097 2138 3097 
Q 1578 3097 1268 2742 
Q 959 2388 959 1747 
Q 959 1106 1268 751 
Q 1578 397 2138 397 
Q 2388 397 2633 464 
Q 2878 531 3122 666 
L 3122 134 
Q 2881 22 2623 -34 
Q 2366 -91 2075 -91 
Q 1284 -91 818 406 
Q 353 903 353 1747 
Q 353 2603 823 3093 
Q 1294 3584 2113 3584 
Q 2378 3584 2631 3529 
Q 2884 3475 3122 3366 
z
" transform="scale(0.015625)"/>
      </defs>
      <use xlink:href="#DejaVuSans-53"/>
      <use xlink:href="#DejaVuSans-69" x="63.476562"/>
      <use xlink:href="#DejaVuSans-7a" x="91.259766"/>
      <use xlink:href="#DejaVuSans-65" x="143.75"/>
      <use xlink:href="#DejaVuSans-20" x="205.273438"/>
      <use xlink:href="#DejaVuSans-70" x="237.060547"/>
      <use xlink:href="#DejaVuSans-65" x="300.537109"/>
      <use xlink:href="#DejaVuSans-72" x="362.060547"/>
      <use xlink:href="#DejaVuSans-20" x="403.173828"/>
      <use xlink:href="#DejaVuSans-53" x="434.960938"/>
      <use xlink:href="#DejaVuSans-70" x="498.4375"/>
      <use xlink:href="#DejaVuSans-65" x="561.914062"/>
      <use xlink:href="#DejaVuSans-63" x="623.4375"/>
      <use xlink:href="#DejaVuSans-69" x="678.417969"/>
      <use xlink:href="#DejaVuSans-65" x="706.201172"/>
      <use xlink:href="#DejaVuSans-73" x="767.724609"/>
     </g>
    </g>
   </g>
   <g id="patch_3">
    <path d="M 57.6 307.584 
L 57.6 41.472 
" style="fill: none; stroke: #000000; stroke-width: 0.8; stroke-linejoin: miter; stroke-linecap: square"/>
   </g>
   <g id="patch_4">
    <path d="M 414.72 307.584 
L 414.72 41.472 
" style="fill: none; stroke: #000000; stroke-width: 0.8; stroke-linejoin: miter; stroke-linecap: square"/>
   </g>
   <g id="patch_5">
    <path d="M 57.6 307.584 
L 414.72 307.584 
" style="fill: none; stroke: #000000; stroke-width: 0.8; stroke-linejoin: miter; stroke-linecap: square"/>
   </g>
   <g id="patch_6">
    <path d="M 57.6 41.472 
L 414.72 41.472 
" style="fill: none; stroke: #000000; stroke-width: 0.8; stroke-linejoin: miter; stroke-linecap: square"/>
   </g>
   <g id="text_15">
    <!-- Speciation -->
    <g transform="translate(204.714375 35.472) scale(0.12 -0.12)">
     <use xlink:href="#DejaVuSans-53"/>
     <use xlink:href="#DejaVuSans-70" x="63.476562"/>
     <use xlink:href="#DejaVuSans-65" x="126.953125"/>
     <use xlink:href="#DejaVuSans-63" x="188.476562"/>
     <use xlink:href="#DejaVuSans-69" x="243.457031"/>
     <use xlink:href="#DejaVuSans-61" x="271.240234"/>
     <use xlink:href="#DejaVuSans-74" x="332.519531"/>
     <use xlink:href="#DejaVuSans-69" x="371.728516"/>
     <use xlink:href="#DejaVuSans-6f" x="399.511719"/>
     <use xlink:href="#DejaVuSans-6e" x="460.693359"/>
    </g>
   </g>
  </g>
 </g>
 <defs>
  <clipPath id="p376a430e14">
   <rect x="57.6" y="41.472" width="357.12" height="266.112"/>
  </clipPath>
 </defs>
</svg>
