<?xml version="1.0" encoding="utf-8" standalone="no"?>
<!DOCTYPE svg PUBLIC "-//W3C//DTD SVG 1.1//EN"
  "http://www.w3.org/Graphics/SVG/1.1/DTD/svg11.dtd">
<svg xmlns:xlink="http://www.w3.org/1999/xlink" width="460.8pt" height="345.6pt" viewBox="0 0 460.8 345.6" xmlns="http://www.w3.org/2000/svg" version="1.1">
 <metadata>
  <rdf:RDF xmlns:dc="http://purl.org/dc/elements/1.1/" xmlns:cc="http://creativecommons.org/ns#" xmlns:rdf="http://www.w3.org/1999/02/22-rdf-syntax-ns#">
   <cc:Work>
    <dc:type rdf:resource="http://purl.org/dc/dcmitype/StillImage"/>
    <dc:date>2023-12-07T17:42:10.709633</dc:date>
    <dc:format>image/svg+xml</dc:format>
    <dc:creator>
     <cc:Agent>
      <dc:title>Matplotlib v3.6.3, https://matplotlib.org/</dc:title>
     </cc:Agent>
    </dc:creator>
   </cc:Work>
  </rdf:RDF>
 </metadata>
 <defs>
  <style type="text/css">*{stroke-linejoin: round; stroke-linecap: butt}</style>
 </defs>
 <g id="figure_1">
  <g id="patch_1">
   <path d="M 0 345.6 
L 460.8 345.6 
L 460.8 0 
L 0 0 
z
" style="fill: #ffffff"/>
  </g>
  <g id="axes_1">
   <g id="patch_2">
    <path d="M 57.6 307.584 
L 414.72 307.584 
L 414.72 41.472 
L 57.6 41.472 
z
" style="fill: #ffffff"/>
   </g>
   <g id="PolyCollection_1">
    <path d="M 73.832727 302.575304 
L 73.832727 307.584 
L 87.36 307.584 
L 100.887273 307.584 
L 114.414545 307.584 
L 127.941818 307.584 
L 141.469091 307.584 
L 154.996364 307.584 
L 168.523636 307.584 
L 182.050909 307.584 
L 195.578182 307.584 
L 209.105455 307.584 
L 222.632727 307.584 
L 236.16 307.584 
L 249.687273 307.584 
L 263.214545 307.584 
L 276.741818 307.584 
L 290.269091 307.584 
L 303.796364 307.584 
L 317.323636 307.584 
L 330.850909 307.584 
L 344.378182 307.584 
L 357.905455 307.584 
L 371.432727 307.584 
L 384.96 307.584 
L 398.487273 307.584 
L 398.487273 307.584 
L 398.487273 307.584 
L 384.96 307.584 
L 371.432727 307.584 
L 357.905455 307.584 
L 344.378182 307.584 
L 330.850909 307.584 
L 317.323636 307.584 
L 303.796364 307.584 
L 290.269091 307.584 
L 276.741818 307.584 
L 263.214545 307.584 
L 249.687273 307.584 
L 236.16 307.584 
L 222.632727 307.584 
L 209.105455 302.575304 
L 195.578182 301.573565 
L 182.050909 302.575304 
L 168.523636 301.573565 
L 154.996364 300.571826 
L 141.469091 299.570087 
L 127.941818 301.573565 
L 114.414545 299.570087 
L 100.887273 301.573565 
L 87.36 306.582261 
L 73.832727 302.575304 
z
" clip-path="url(#p93c4b733f6)" style="fill: #1f77b4"/>
   </g>
   <g id="PolyCollection_2">
    <path d="M 73.832727 188.377043 
L 73.832727 302.575304 
L 87.36 306.582261 
L 100.887273 301.573565 
L 114.414545 299.570087 
L 127.941818 301.573565 
L 141.469091 299.570087 
L 154.996364 300.571826 
L 168.523636 301.573565 
L 182.050909 302.575304 
L 195.578182 301.573565 
L 209.105455 302.575304 
L 222.632727 307.584 
L 236.16 307.584 
L 249.687273 307.584 
L 263.214545 307.584 
L 276.741818 307.584 
L 290.269091 307.584 
L 303.796364 307.584 
L 317.323636 307.584 
L 330.850909 307.584 
L 344.378182 307.584 
L 357.905455 307.584 
L 371.432727 307.584 
L 384.96 307.584 
L 398.487273 307.584 
L 398.487273 307.584 
L 398.487273 307.584 
L 384.96 307.584 
L 371.432727 307.584 
L 357.905455 307.584 
L 344.378182 281.538783 
L 330.850909 272.52313 
L 317.323636 293.559652 
L 303.796364 257.497043 
L 290.269091 261.504 
L 276.741818 271.521391 
L 263.214545 277.531826 
L 249.687273 268.516174 
L 236.16 269.517913 
L 222.632727 256.495304 
L 209.105455 268.516174 
L 195.578182 270.519652 
L 182.050909 262.505739 
L 168.523636 271.521391 
L 154.996364 272.52313 
L 141.469091 276.530087 
L 127.941818 252.488348 
L 114.414545 255.493565 
L 100.887273 235.458783 
L 87.36 267.514435 
L 73.832727 188.377043 
z
" clip-path="url(#p93c4b733f6)" style="fill: #ff7f0e"/>
   </g>
   <g id="PolyCollection_3">
    <path d="M 73.832727 151.312696 
L 73.832727 188.377043 
L 87.36 267.514435 
L 100.887273 235.458783 
L 114.414545 255.493565 
L 127.941818 252.488348 
L 141.469091 276.530087 
L 154.996364 272.52313 
L 168.523636 271.521391 
L 182.050909 262.505739 
L 195.578182 270.519652 
L 209.105455 268.516174 
L 222.632727 256.495304 
L 236.16 269.517913 
L 249.687273 268.516174 
L 263.214545 277.531826 
L 276.741818 271.521391 
L 290.269091 261.504 
L 303.796364 257.497043 
L 317.323636 293.559652 
L 330.850909 272.52313 
L 344.378182 281.538783 
L 357.905455 307.584 
L 371.432727 307.584 
L 384.96 307.584 
L 398.487273 307.584 
L 398.487273 237.462261 
L 398.487273 237.462261 
L 384.96 224.439652 
L 371.432727 214.422261 
L 357.905455 219.430957 
L 344.378182 244.474435 
L 330.850909 245.476174 
L 317.323636 255.493565 
L 303.796364 222.436174 
L 290.269091 240.467478 
L 276.741818 243.472696 
L 263.214545 230.450087 
L 249.687273 218.429217 
L 236.16 245.476174 
L 222.632727 238.464 
L 209.105455 243.472696 
L 195.578182 244.474435 
L 182.050909 240.467478 
L 168.523636 255.493565 
L 154.996364 238.464 
L 141.469091 234.457043 
L 127.941818 226.44313 
L 114.414545 227.44487 
L 100.887273 219.430957 
L 87.36 238.464 
L 73.832727 151.312696 
z
" clip-path="url(#p93c4b733f6)" style="fill: #2ca02c"/>
   </g>
   <g id="PolyCollection_4">
    <path d="M 73.832727 149.309217 
L 73.832727 151.312696 
L 87.36 238.464 
L 100.887273 219.430957 
L 114.414545 227.44487 
L 127.941818 226.44313 
L 141.469091 234.457043 
L 154.996364 238.464 
L 168.523636 255.493565 
L 182.050909 240.467478 
L 195.578182 244.474435 
L 209.105455 243.472696 
L 222.632727 238.464 
L 236.16 245.476174 
L 249.687273 218.429217 
L 263.214545 230.450087 
L 276.741818 243.472696 
L 290.269091 240.467478 
L 303.796364 222.436174 
L 317.323636 255.493565 
L 330.850909 245.476174 
L 344.378182 244.474435 
L 357.905455 219.430957 
L 371.432727 214.422261 
L 384.96 224.439652 
L 398.487273 237.462261 
L 398.487273 237.462261 
L 398.487273 237.462261 
L 384.96 224.439652 
L 371.432727 214.422261 
L 357.905455 219.430957 
L 344.378182 244.474435 
L 330.850909 245.476174 
L 317.323636 255.493565 
L 303.796364 222.436174 
L 290.269091 240.467478 
L 276.741818 243.472696 
L 263.214545 230.450087 
L 249.687273 218.429217 
L 236.16 245.476174 
L 222.632727 238.464 
L 209.105455 238.464 
L 195.578182 239.465739 
L 182.050909 235.458783 
L 168.523636 250.48487 
L 154.996364 232.453565 
L 141.469091 226.44313 
L 127.941818 220.432696 
L 114.414545 220.432696 
L 100.887273 213.420522 
L 87.36 237.462261 
L 73.832727 149.309217 
z
" clip-path="url(#p93c4b733f6)" style="fill: #d62728"/>
   </g>
   <g id="PolyCollection_5">
    <path d="M 73.832727 124.265739 
L 73.832727 149.309217 
L 87.36 237.462261 
L 100.887273 213.420522 
L 114.414545 220.432696 
L 127.941818 220.432696 
L 141.469091 226.44313 
L 154.996364 232.453565 
L 168.523636 250.48487 
L 182.050909 235.458783 
L 195.578182 239.465739 
L 209.105455 238.464 
L 222.632727 238.464 
L 236.16 245.476174 
L 249.687273 218.429217 
L 263.214545 230.450087 
L 276.741818 243.472696 
L 290.269091 240.467478 
L 303.796364 222.436174 
L 317.323636 255.493565 
L 330.850909 245.476174 
L 344.378182 244.474435 
L 357.905455 219.430957 
L 371.432727 214.422261 
L 384.96 224.439652 
L 398.487273 237.462261 
L 398.487273 237.462261 
L 398.487273 237.462261 
L 384.96 224.439652 
L 371.432727 214.422261 
L 357.905455 219.430957 
L 344.378182 180.36313 
L 330.850909 181.36487 
L 317.323636 205.406609 
L 303.796364 163.333565 
L 290.269091 164.335304 
L 276.741818 173.350957 
L 263.214545 188.377043 
L 249.687273 174.352696 
L 236.16 216.425739 
L 222.632727 197.392696 
L 209.105455 185.371826 
L 195.578182 192.384 
L 182.050909 191.382261 
L 168.523636 169.344 
L 154.996364 152.314435 
L 141.469091 214.422261 
L 127.941818 211.417043 
L 114.414545 210.415304 
L 100.887273 201.399652 
L 87.36 231.451826 
L 73.832727 124.265739 
z
" clip-path="url(#p93c4b733f6)" style="fill: #9467bd"/>
   </g>
   <g id="PolyCollection_6">
    <path d="M 73.832727 123.264 
L 73.832727 124.265739 
L 87.36 231.451826 
L 100.887273 201.399652 
L 114.414545 210.415304 
L 127.941818 211.417043 
L 141.469091 214.422261 
L 154.996364 152.314435 
L 168.523636 169.344 
L 182.050909 191.382261 
L 195.578182 192.384 
L 209.105455 185.371826 
L 222.632727 197.392696 
L 236.16 216.425739 
L 249.687273 174.352696 
L 263.214545 188.377043 
L 276.741818 173.350957 
L 290.269091 164.335304 
L 303.796364 163.333565 
L 317.323636 205.406609 
L 330.850909 181.36487 
L 344.378182 180.36313 
L 357.905455 219.430957 
L 371.432727 214.422261 
L 384.96 224.439652 
L 398.487273 237.462261 
L 398.487273 199.396174 
L 398.487273 199.396174 
L 384.96 184.370087 
L 371.432727 185.371826 
L 357.905455 188.377043 
L 344.378182 155.319652 
L 330.850909 156.321391 
L 317.323636 186.373565 
L 303.796364 142.297043 
L 290.269091 138.290087 
L 276.741818 145.302261 
L 263.214545 166.338783 
L 249.687273 154.317913 
L 236.16 189.378783 
L 222.632727 179.361391 
L 209.105455 169.344 
L 195.578182 169.344 
L 182.050909 172.349217 
L 168.523636 146.304 
L 154.996364 127.270957 
L 141.469091 186.373565 
L 127.941818 186.373565 
L 114.414545 184.370087 
L 100.887273 171.347478 
L 87.36 187.375304 
L 73.832727 123.264 
z
" clip-path="url(#p93c4b733f6)" style="fill: #8c564b"/>
   </g>
   <g id="PolyCollection_7">
    <path d="M 73.832727 98.220522 
L 73.832727 123.264 
L 87.36 187.375304 
L 100.887273 171.347478 
L 114.414545 184.370087 
L 127.941818 186.373565 
L 141.469091 186.373565 
L 154.996364 127.270957 
L 168.523636 146.304 
L 182.050909 172.349217 
L 195.578182 169.344 
L 209.105455 169.344 
L 222.632727 179.361391 
L 236.16 189.378783 
L 249.687273 154.317913 
L 263.214545 166.338783 
L 276.741818 145.302261 
L 290.269091 138.290087 
L 303.796364 142.297043 
L 317.323636 186.373565 
L 330.850909 156.321391 
L 344.378182 155.319652 
L 357.905455 188.377043 
L 371.432727 185.371826 
L 384.96 184.370087 
L 398.487273 199.396174 
L 398.487273 199.396174 
L 398.487273 199.396174 
L 384.96 184.370087 
L 371.432727 185.371826 
L 357.905455 188.377043 
L 344.378182 155.319652 
L 330.850909 156.321391 
L 317.323636 186.373565 
L 303.796364 142.297043 
L 290.269091 138.290087 
L 276.741818 145.302261 
L 263.214545 130.276174 
L 249.687273 119.257043 
L 236.16 152.314435 
L 222.632727 145.302261 
L 209.105455 138.290087 
L 195.578182 145.302261 
L 182.050909 142.297043 
L 168.523636 126.269217 
L 154.996364 108.237913 
L 141.469091 132.279652 
L 127.941818 105.232696 
L 114.414545 99.222261 
L 100.887273 126.269217 
L 87.36 164.335304 
L 73.832727 98.220522 
z
" clip-path="url(#p93c4b733f6)" style="fill: #e377c2"/>
   </g>
   <g id="PolyCollection_8">
    <path d="M 73.832727 93.211826 
L 73.832727 98.220522 
L 87.36 164.335304 
L 100.887273 126.269217 
L 114.414545 99.222261 
L 127.941818 105.232696 
L 141.469091 132.279652 
L 154.996364 108.237913 
L 168.523636 126.269217 
L 182.050909 142.297043 
L 195.578182 145.302261 
L 209.105455 138.290087 
L 222.632727 145.302261 
L 236.16 152.314435 
L 249.687273 119.257043 
L 263.214545 130.276174 
L 276.741818 145.302261 
L 290.269091 138.290087 
L 303.796364 142.297043 
L 317.323636 186.373565 
L 330.850909 156.321391 
L 344.378182 155.319652 
L 357.905455 188.377043 
L 371.432727 185.371826 
L 384.96 184.370087 
L 398.487273 199.396174 
L 398.487273 199.396174 
L 398.487273 199.396174 
L 384.96 184.370087 
L 371.432727 185.371826 
L 357.905455 188.377043 
L 344.378182 155.319652 
L 330.850909 156.321391 
L 317.323636 186.373565 
L 303.796364 142.297043 
L 290.269091 138.290087 
L 276.741818 132.279652 
L 263.214545 121.260522 
L 249.687273 113.246609 
L 236.16 145.302261 
L 222.632727 140.293565 
L 209.105455 133.281391 
L 195.578182 140.293565 
L 182.050909 136.286609 
L 168.523636 121.260522 
L 154.996364 102.227478 
L 141.469091 119.257043 
L 127.941818 99.222261 
L 114.414545 95.215304 
L 100.887273 122.262261 
L 87.36 160.328348 
L 73.832727 93.211826 
z
" clip-path="url(#p93c4b733f6)" style="fill: #7f7f7f"/>
   </g>
   <g id="PolyCollection_9">
    <path d="M 73.832727 82.192696 
L 73.832727 93.211826 
L 87.36 160.328348 
L 100.887273 122.262261 
L 114.414545 95.215304 
L 127.941818 99.222261 
L 141.469091 119.257043 
L 154.996364 102.227478 
L 168.523636 121.260522 
L 182.050909 136.286609 
L 195.578182 140.293565 
L 209.105455 133.281391 
L 222.632727 140.293565 
L 236.16 145.302261 
L 249.687273 113.246609 
L 263.214545 121.260522 
L 276.741818 132.279652 
L 290.269091 138.290087 
L 303.796364 142.297043 
L 317.323636 186.373565 
L 330.850909 156.321391 
L 344.378182 155.319652 
L 357.905455 188.377043 
L 371.432727 185.371826 
L 384.96 184.370087 
L 398.487273 199.396174 
L 398.487273 199.396174 
L 398.487273 199.396174 
L 384.96 184.370087 
L 371.432727 185.371826 
L 357.905455 188.377043 
L 344.378182 155.319652 
L 330.850909 156.321391 
L 317.323636 186.373565 
L 303.796364 142.297043 
L 290.269091 138.290087 
L 276.741818 132.279652 
L 263.214545 121.260522 
L 249.687273 113.246609 
L 236.16 145.302261 
L 222.632727 135.28487 
L 209.105455 129.274435 
L 195.578182 135.28487 
L 182.050909 129.274435 
L 168.523636 115.250087 
L 154.996364 99.222261 
L 141.469091 111.24313 
L 127.941818 95.215304 
L 114.414545 94.213565 
L 100.887273 100.224 
L 87.36 123.264 
L 73.832727 82.192696 
z
" clip-path="url(#p93c4b733f6)" style="fill: #bcbd22"/>
   </g>
   <g id="PolyCollection_10">
    <path d="M 73.832727 63.159652 
L 73.832727 82.192696 
L 87.36 123.264 
L 100.887273 100.224 
L 114.414545 94.213565 
L 127.941818 95.215304 
L 141.469091 111.24313 
L 154.996364 99.222261 
L 168.523636 115.250087 
L 182.050909 129.274435 
L 195.578182 135.28487 
L 209.105455 129.274435 
L 222.632727 135.28487 
L 236.16 145.302261 
L 249.687273 113.246609 
L 263.214545 121.260522 
L 276.741818 132.279652 
L 290.269091 138.290087 
L 303.796364 142.297043 
L 317.323636 186.373565 
L 330.850909 156.321391 
L 344.378182 155.319652 
L 357.905455 188.377043 
L 371.432727 185.371826 
L 384.96 184.370087 
L 398.487273 199.396174 
L 398.487273 199.396174 
L 398.487273 199.396174 
L 384.96 184.370087 
L 371.432727 185.371826 
L 357.905455 188.377043 
L 344.378182 116.251826 
L 330.850909 109.239652 
L 317.323636 109.239652 
L 303.796364 105.232696 
L 290.269091 99.222261 
L 276.741818 102.227478 
L 263.214545 98.220522 
L 249.687273 95.215304 
L 236.16 94.213565 
L 222.632727 92.210087 
L 209.105455 90.206609 
L 195.578182 94.213565 
L 182.050909 92.210087 
L 168.523636 90.206609 
L 154.996364 89.20487 
L 141.469091 87.201391 
L 127.941818 83.194435 
L 114.414545 75.180522 
L 100.887273 73.177043 
L 87.36 67.166609 
L 73.832727 63.159652 
z
" clip-path="url(#p93c4b733f6)" style="fill: #17becf"/>
   </g>
   <g id="PolyCollection_11">
    <path d="M 73.832727 61.156174 
L 73.832727 63.159652 
L 87.36 67.166609 
L 100.887273 73.177043 
L 114.414545 75.180522 
L 127.941818 83.194435 
L 141.469091 87.201391 
L 154.996364 89.20487 
L 168.523636 90.206609 
L 182.050909 92.210087 
L 195.578182 94.213565 
L 209.105455 90.206609 
L 222.632727 92.210087 
L 236.16 94.213565 
L 249.687273 95.215304 
L 263.214545 98.220522 
L 276.741818 102.227478 
L 290.269091 99.222261 
L 303.796364 105.232696 
L 317.323636 109.239652 
L 330.850909 109.239652 
L 344.378182 116.251826 
L 357.905455 188.377043 
L 371.432727 185.371826 
L 384.96 184.370087 
L 398.487273 199.396174 
L 398.487273 135.28487 
L 398.487273 135.28487 
L 384.96 127.270957 
L 371.432727 131.277913 
L 357.905455 138.290087 
L 344.378182 99.222261 
L 330.850909 100.224 
L 317.323636 102.227478 
L 303.796364 97.218783 
L 290.269091 93.211826 
L 276.741818 97.218783 
L 263.214545 92.210087 
L 249.687273 89.20487 
L 236.16 88.20313 
L 222.632727 86.199652 
L 209.105455 84.196174 
L 195.578182 88.20313 
L 182.050909 87.201391 
L 168.523636 84.196174 
L 154.996364 84.196174 
L 141.469091 81.190957 
L 127.941818 78.185739 
L 114.414545 70.171826 
L 100.887273 68.168348 
L 87.36 65.16313 
L 73.832727 61.156174 
z
" clip-path="url(#p93c4b733f6)" style="fill: #1f77b4"/>
   </g>
   <g id="PolyCollection_12">
    <path d="M 73.832727 59.152696 
L 73.832727 61.156174 
L 87.36 65.16313 
L 100.887273 68.168348 
L 114.414545 70.171826 
L 127.941818 78.185739 
L 141.469091 81.190957 
L 154.996364 84.196174 
L 168.523636 84.196174 
L 182.050909 87.201391 
L 195.578182 88.20313 
L 209.105455 84.196174 
L 222.632727 86.199652 
L 236.16 88.20313 
L 249.687273 89.20487 
L 263.214545 92.210087 
L 276.741818 97.218783 
L 290.269091 93.211826 
L 303.796364 97.218783 
L 317.323636 102.227478 
L 330.850909 100.224 
L 344.378182 99.222261 
L 357.905455 138.290087 
L 371.432727 131.277913 
L 384.96 127.270957 
L 398.487273 135.28487 
L 398.487273 105.232696 
L 398.487273 105.232696 
L 384.96 96.217043 
L 371.432727 98.220522 
L 357.905455 101.225739 
L 344.378182 82.192696 
L 330.850909 85.197913 
L 317.323636 89.20487 
L 303.796364 79.187478 
L 290.269091 76.182261 
L 276.741818 78.185739 
L 263.214545 74.178783 
L 249.687273 74.178783 
L 236.16 75.180522 
L 222.632727 72.175304 
L 209.105455 70.171826 
L 195.578182 72.175304 
L 182.050909 72.175304 
L 168.523636 70.171826 
L 154.996364 69.170087 
L 141.469091 67.166609 
L 127.941818 65.16313 
L 114.414545 62.157913 
L 100.887273 63.159652 
L 87.36 62.157913 
L 73.832727 59.152696 
z
" clip-path="url(#p93c4b733f6)" style="fill: #ff7f0e"/>
   </g>
   <g id="PolyCollection_13">
    <path d="M 73.832727 57.149217 
L 73.832727 59.152696 
L 87.36 62.157913 
L 100.887273 63.159652 
L 114.414545 62.157913 
L 127.941818 65.16313 
L 141.469091 67.166609 
L 154.996364 69.170087 
L 168.523636 70.171826 
L 182.050909 72.175304 
L 195.578182 72.175304 
L 209.105455 70.171826 
L 222.632727 72.175304 
L 236.16 75.180522 
L 249.687273 74.178783 
L 263.214545 74.178783 
L 276.741818 78.185739 
L 290.269091 76.182261 
L 303.796364 79.187478 
L 317.323636 89.20487 
L 330.850909 85.197913 
L 344.378182 82.192696 
L 357.905455 101.225739 
L 371.432727 98.220522 
L 384.96 96.217043 
L 398.487273 105.232696 
L 398.487273 57.149217 
L 398.487273 57.149217 
L 384.96 57.149217 
L 371.432727 58.150957 
L 357.905455 57.149217 
L 344.378182 57.149217 
L 330.850909 58.150957 
L 317.323636 57.149217 
L 303.796364 56.147478 
L 290.269091 57.149217 
L 276.741818 57.149217 
L 263.214545 55.145739 
L 249.687273 56.147478 
L 236.16 59.152696 
L 222.632727 55.145739 
L 209.105455 56.147478 
L 195.578182 57.149217 
L 182.050909 57.149217 
L 168.523636 55.145739 
L 154.996364 56.147478 
L 141.469091 55.145739 
L 127.941818 54.144 
L 114.414545 55.145739 
L 100.887273 54.144 
L 87.36 57.149217 
L 73.832727 57.149217 
z
" clip-path="url(#p93c4b733f6)" style="fill: #2ca02c"/>
   </g>
   <g id="matplotlib.axis_1">
    <g id="xtick_1">
     <g id="line2d_1">
      <defs>
       <path id="m390ab8bde1" d="M 0 0 
L 0 3.5 
" style="stroke: #000000; stroke-width: 0.8"/>
      </defs>
      <g>
       <use xlink:href="#m390ab8bde1" x="73.832727" y="307.584" style="stroke: #000000; stroke-width: 0.8"/>
      </g>
     </g>
     <g id="text_1">
      <!-- 0 -->
      <g transform="translate(70.651477 322.182437) scale(0.1 -0.1)">
       <defs>
        <path id="DejaVuSans-30" d="M 2034 4250 
Q 1547 4250 1301 3770 
Q 1056 3291 1056 2328 
Q 1056 1369 1301 889 
Q 1547 409 2034 409 
Q 2525 409 2770 889 
Q 3016 1369 3016 2328 
Q 3016 3291 2770 3770 
Q 2525 4250 2034 4250 
z
M 2034 4750 
Q 2819 4750 3233 4129 
Q 3647 3509 3647 2328 
Q 3647 1150 3233 529 
Q 2819 -91 2034 -91 
Q 1250 -91 836 529 
Q 422 1150 422 2328 
Q 422 3509 836 4129 
Q 1250 4750 2034 4750 
z
" transform="scale(0.015625)"/>
       </defs>
       <use xlink:href="#DejaVuSans-30"/>
      </g>
     </g>
    </g>
    <g id="xtick_2">
     <g id="line2d_2">
      <g>
       <use xlink:href="#m390ab8bde1" x="141.469091" y="307.584" style="stroke: #000000; stroke-width: 0.8"/>
      </g>
     </g>
     <g id="text_2">
      <!-- 5 -->
      <g transform="translate(138.287841 322.182437) scale(0.1 -0.1)">
       <defs>
        <path id="DejaVuSans-35" d="M 691 4666 
L 3169 4666 
L 3169 4134 
L 1269 4134 
L 1269 2991 
Q 1406 3038 1543 3061 
Q 1681 3084 1819 3084 
Q 2600 3084 3056 2656 
Q 3513 2228 3513 1497 
Q 3513 744 3044 326 
Q 2575 -91 1722 -91 
Q 1428 -91 1123 -41 
Q 819 9 494 109 
L 494 744 
Q 775 591 1075 516 
Q 1375 441 1709 441 
Q 2250 441 2565 725 
Q 2881 1009 2881 1497 
Q 2881 1984 2565 2268 
Q 2250 2553 1709 2553 
Q 1456 2553 1204 2497 
Q 953 2441 691 2322 
L 691 4666 
z
" transform="scale(0.015625)"/>
       </defs>
       <use xlink:href="#DejaVuSans-35"/>
      </g>
     </g>
    </g>
    <g id="xtick_3">
     <g id="line2d_3">
      <g>
       <use xlink:href="#m390ab8bde1" x="209.105455" y="307.584" style="stroke: #000000; stroke-width: 0.8"/>
      </g>
     </g>
     <g id="text_3">
      <!-- 10 -->
      <g transform="translate(202.742955 322.182437) scale(0.1 -0.1)">
       <defs>
        <path id="DejaVuSans-31" d="M 794 531 
L 1825 531 
L 1825 4091 
L 703 3866 
L 703 4441 
L 1819 4666 
L 2450 4666 
L 2450 531 
L 3481 531 
L 3481 0 
L 794 0 
L 794 531 
z
" transform="scale(0.015625)"/>
       </defs>
       <use xlink:href="#DejaVuSans-31"/>
       <use xlink:href="#DejaVuSans-30" x="63.623047"/>
      </g>
     </g>
    </g>
    <g id="xtick_4">
     <g id="line2d_4">
      <g>
       <use xlink:href="#m390ab8bde1" x="276.741818" y="307.584" style="stroke: #000000; stroke-width: 0.8"/>
      </g>
     </g>
     <g id="text_4">
      <!-- 15 -->
      <g transform="translate(270.379318 322.182437) scale(0.1 -0.1)">
       <use xlink:href="#DejaVuSans-31"/>
       <use xlink:href="#DejaVuSans-35" x="63.623047"/>
      </g>
     </g>
    </g>
    <g id="xtick_5">
     <g id="line2d_5">
      <g>
       <use xlink:href="#m390ab8bde1" x="344.378182" y="307.584" style="stroke: #000000; stroke-width: 0.8"/>
      </g>
     </g>
     <g id="text_5">
      <!-- 20 -->
      <g transform="translate(338.015682 322.182437) scale(0.1 -0.1)">
       <defs>
        <path id="DejaVuSans-32" d="M 1228 531 
L 3431 531 
L 3431 0 
L 469 0 
L 469 531 
Q 828 903 1448 1529 
Q 2069 2156 2228 2338 
Q 2531 2678 2651 2914 
Q 2772 3150 2772 3378 
Q 2772 3750 2511 3984 
Q 2250 4219 1831 4219 
Q 1534 4219 1204 4116 
Q 875 4013 500 3803 
L 500 4441 
Q 881 4594 1212 4672 
Q 1544 4750 1819 4750 
Q 2544 4750 2975 4387 
Q 3406 4025 3406 3419 
Q 3406 3131 3298 2873 
Q 3191 2616 2906 2266 
Q 2828 2175 2409 1742 
Q 1991 1309 1228 531 
z
" transform="scale(0.015625)"/>
       </defs>
       <use xlink:href="#DejaVuSans-32"/>
       <use xlink:href="#DejaVuSans-30" x="63.623047"/>
      </g>
     </g>
    </g>
    <g id="xtick_6">
     <g id="line2d_6">
      <g>
       <use xlink:href="#m390ab8bde1" x="412.014545" y="307.584" style="stroke: #000000; stroke-width: 0.8"/>
      </g>
     </g>
     <g id="text_6">
      <!-- 25 -->
      <g transform="translate(405.652045 322.182437) scale(0.1 -0.1)">
       <use xlink:href="#DejaVuSans-32"/>
       <use xlink:href="#DejaVuSans-35" x="63.623047"/>
      </g>
     </g>
    </g>
    <g id="text_7">
     <!-- Generations -->
     <g transform="translate(205.662344 335.860562) scale(0.1 -0.1)">
      <defs>
       <path id="DejaVuSans-47" d="M 3809 666 
L 3809 1919 
L 2778 1919 
L 2778 2438 
L 4434 2438 
L 4434 434 
Q 4069 175 3628 42 
Q 3188 -91 2688 -91 
Q 1594 -91 976 548 
Q 359 1188 359 2328 
Q 359 3472 976 4111 
Q 1594 4750 2688 4750 
Q 3144 4750 3555 4637 
Q 3966 4525 4313 4306 
L 4313 3634 
Q 3963 3931 3569 4081 
Q 3175 4231 2741 4231 
Q 1884 4231 1454 3753 
Q 1025 3275 1025 2328 
Q 1025 1384 1454 906 
Q 1884 428 2741 428 
Q 3075 428 3337 486 
Q 3600 544 3809 666 
z
" transform="scale(0.015625)"/>
       <path id="DejaVuSans-65" d="M 3597 1894 
L 3597 1613 
L 953 1613 
Q 991 1019 1311 708 
Q 1631 397 2203 397 
Q 2534 397 2845 478 
Q 3156 559 3463 722 
L 3463 178 
Q 3153 47 2828 -22 
Q 2503 -91 2169 -91 
Q 1331 -91 842 396 
Q 353 884 353 1716 
Q 353 2575 817 3079 
Q 1281 3584 2069 3584 
Q 2775 3584 3186 3129 
Q 3597 2675 3597 1894 
z
M 3022 2063 
Q 3016 2534 2758 2815 
Q 2500 3097 2075 3097 
Q 1594 3097 1305 2825 
Q 1016 2553 972 2059 
L 3022 2063 
z
" transform="scale(0.015625)"/>
       <path id="DejaVuSans-6e" d="M 3513 2113 
L 3513 0 
L 2938 0 
L 2938 2094 
Q 2938 2591 2744 2837 
Q 2550 3084 2163 3084 
Q 1697 3084 1428 2787 
Q 1159 2491 1159 1978 
L 1159 0 
L 581 0 
L 581 3500 
L 1159 3500 
L 1159 2956 
Q 1366 3272 1645 3428 
Q 1925 3584 2291 3584 
Q 2894 3584 3203 3211 
Q 3513 2838 3513 2113 
z
" transform="scale(0.015625)"/>
       <path id="DejaVuSans-72" d="M 2631 2963 
Q 2534 3019 2420 3045 
Q 2306 3072 2169 3072 
Q 1681 3072 1420 2755 
Q 1159 2438 1159 1844 
L 1159 0 
L 581 0 
L 581 3500 
L 1159 3500 
L 1159 2956 
Q 1341 3275 1631 3429 
Q 1922 3584 2338 3584 
Q 2397 3584 2469 3576 
Q 2541 3569 2628 3553 
L 2631 2963 
z
" transform="scale(0.015625)"/>
       <path id="DejaVuSans-61" d="M 2194 1759 
Q 1497 1759 1228 1600 
Q 959 1441 959 1056 
Q 959 750 1161 570 
Q 1363 391 1709 391 
Q 2188 391 2477 730 
Q 2766 1069 2766 1631 
L 2766 1759 
L 2194 1759 
z
M 3341 1997 
L 3341 0 
L 2766 0 
L 2766 531 
Q 2569 213 2275 61 
Q 1981 -91 1556 -91 
Q 1019 -91 701 211 
Q 384 513 384 1019 
Q 384 1609 779 1909 
Q 1175 2209 1959 2209 
L 2766 2209 
L 2766 2266 
Q 2766 2663 2505 2880 
Q 2244 3097 1772 3097 
Q 1472 3097 1187 3025 
Q 903 2953 641 2809 
L 641 3341 
Q 956 3463 1253 3523 
Q 1550 3584 1831 3584 
Q 2591 3584 2966 3190 
Q 3341 2797 3341 1997 
z
" transform="scale(0.015625)"/>
       <path id="DejaVuSans-74" d="M 1172 4494 
L 1172 3500 
L 2356 3500 
L 2356 3053 
L 1172 3053 
L 1172 1153 
Q 1172 725 1289 603 
Q 1406 481 1766 481 
L 2356 481 
L 2356 0 
L 1766 0 
Q 1100 0 847 248 
Q 594 497 594 1153 
L 594 3053 
L 172 3053 
L 172 3500 
L 594 3500 
L 594 4494 
L 1172 4494 
z
" transform="scale(0.015625)"/>
       <path id="DejaVuSans-69" d="M 603 3500 
L 1178 3500 
L 1178 0 
L 603 0 
L 603 3500 
z
M 603 4863 
L 1178 4863 
L 1178 4134 
L 603 4134 
L 603 4863 
z
" transform="scale(0.015625)"/>
       <path id="DejaVuSans-6f" d="M 1959 3097 
Q 1497 3097 1228 2736 
Q 959 2375 959 1747 
Q 959 1119 1226 758 
Q 1494 397 1959 397 
Q 2419 397 2687 759 
Q 2956 1122 2956 1747 
Q 2956 2369 2687 2733 
Q 2419 3097 1959 3097 
z
M 1959 3584 
Q 2709 3584 3137 3096 
Q 3566 2609 3566 1747 
Q 3566 888 3137 398 
Q 2709 -91 1959 -91 
Q 1206 -91 779 398 
Q 353 888 353 1747 
Q 353 2609 779 3096 
Q 1206 3584 1959 3584 
z
" transform="scale(0.015625)"/>
       <path id="DejaVuSans-73" d="M 2834 3397 
L 2834 2853 
Q 2591 2978 2328 3040 
Q 2066 3103 1784 3103 
Q 1356 3103 1142 2972 
Q 928 2841 928 2578 
Q 928 2378 1081 2264 
Q 1234 2150 1697 2047 
L 1894 2003 
Q 2506 1872 2764 1633 
Q 3022 1394 3022 966 
Q 3022 478 2636 193 
Q 2250 -91 1575 -91 
Q 1294 -91 989 -36 
Q 684 19 347 128 
L 347 722 
Q 666 556 975 473 
Q 1284 391 1588 391 
Q 1994 391 2212 530 
Q 2431 669 2431 922 
Q 2431 1156 2273 1281 
Q 2116 1406 1581 1522 
L 1381 1569 
Q 847 1681 609 1914 
Q 372 2147 372 2553 
Q 372 3047 722 3315 
Q 1072 3584 1716 3584 
Q 2034 3584 2315 3537 
Q 2597 3491 2834 3397 
z
" transform="scale(0.015625)"/>
      </defs>
      <use xlink:href="#DejaVuSans-47"/>
      <use xlink:href="#DejaVuSans-65" x="77.490234"/>
      <use xlink:href="#DejaVuSans-6e" x="139.013672"/>
      <use xlink:href="#DejaVuSans-65" x="202.392578"/>
      <use xlink:href="#DejaVuSans-72" x="263.916016"/>
      <use xlink:href="#DejaVuSans-61" x="305.029297"/>
      <use xlink:href="#DejaVuSans-74" x="366.308594"/>
      <use xlink:href="#DejaVuSans-69" x="405.517578"/>
      <use xlink:href="#DejaVuSans-6f" x="433.300781"/>
      <use xlink:href="#DejaVuSans-6e" x="494.482422"/>
      <use xlink:href="#DejaVuSans-73" x="557.861328"/>
     </g>
    </g>
   </g>
   <g id="matplotlib.axis_2">
    <g id="ytick_1">
     <g id="line2d_7">
      <defs>
       <path id="me27cccec4b" d="M 0 0 
L -3.5 0 
" style="stroke: #000000; stroke-width: 0.8"/>
      </defs>
      <g>
       <use xlink:href="#me27cccec4b" x="57.6" y="307.584" style="stroke: #000000; stroke-width: 0.8"/>
      </g>
     </g>
     <g id="text_8">
      <!-- 0 -->
      <g transform="translate(44.2375 311.383219) scale(0.1 -0.1)">
       <use xlink:href="#DejaVuSans-30"/>
      </g>
     </g>
    </g>
    <g id="ytick_2">
     <g id="line2d_8">
      <g>
       <use xlink:href="#me27cccec4b" x="57.6" y="257.497043" style="stroke: #000000; stroke-width: 0.8"/>
      </g>
     </g>
     <g id="text_9">
      <!-- 50 -->
      <g transform="translate(37.875 261.296262) scale(0.1 -0.1)">
       <use xlink:href="#DejaVuSans-35"/>
       <use xlink:href="#DejaVuSans-30" x="63.623047"/>
      </g>
     </g>
    </g>
    <g id="ytick_3">
     <g id="line2d_9">
      <g>
       <use xlink:href="#me27cccec4b" x="57.6" y="207.410087" style="stroke: #000000; stroke-width: 0.8"/>
      </g>
     </g>
     <g id="text_10">
      <!-- 100 -->
      <g transform="translate(31.5125 211.209306) scale(0.1 -0.1)">
       <use xlink:href="#DejaVuSans-31"/>
       <use xlink:href="#DejaVuSans-30" x="63.623047"/>
       <use xlink:href="#DejaVuSans-30" x="127.246094"/>
      </g>
     </g>
    </g>
    <g id="ytick_4">
     <g id="line2d_10">
      <g>
       <use xlink:href="#me27cccec4b" x="57.6" y="157.32313" style="stroke: #000000; stroke-width: 0.8"/>
      </g>
     </g>
     <g id="text_11">
      <!-- 150 -->
      <g transform="translate(31.5125 161.122349) scale(0.1 -0.1)">
       <use xlink:href="#DejaVuSans-31"/>
       <use xlink:href="#DejaVuSans-35" x="63.623047"/>
       <use xlink:href="#DejaVuSans-30" x="127.246094"/>
      </g>
     </g>
    </g>
    <g id="ytick_5">
     <g id="line2d_11">
      <g>
       <use xlink:href="#me27cccec4b" x="57.6" y="107.236174" style="stroke: #000000; stroke-width: 0.8"/>
      </g>
     </g>
     <g id="text_12">
      <!-- 200 -->
      <g transform="translate(31.5125 111.035393) scale(0.1 -0.1)">
       <use xlink:href="#DejaVuSans-32"/>
       <use xlink:href="#DejaVuSans-30" x="63.623047"/>
       <use xlink:href="#DejaVuSans-30" x="127.246094"/>
      </g>
     </g>
    </g>
    <g id="ytick_6">
     <g id="line2d_12">
      <g>
       <use xlink:href="#me27cccec4b" x="57.6" y="57.149217" style="stroke: #000000; stroke-width: 0.8"/>
      </g>
     </g>
     <g id="text_13">
      <!-- 250 -->
      <g transform="translate(31.5125 60.948436) scale(0.1 -0.1)">
       <use xlink:href="#DejaVuSans-32"/>
       <use xlink:href="#DejaVuSans-35" x="63.623047"/>
       <use xlink:href="#DejaVuSans-30" x="127.246094"/>
      </g>
     </g>
    </g>
    <g id="text_14">
     <!-- Size per Species -->
     <g transform="translate(25.432812 215.520969) rotate(-90) scale(0.1 -0.1)">
      <defs>
       <path id="DejaVuSans-53" d="M 3425 4513 
L 3425 3897 
Q 3066 4069 2747 4153 
Q 2428 4238 2131 4238 
Q 1616 4238 1336 4038 
Q 1056 3838 1056 3469 
Q 1056 3159 1242 3001 
Q 1428 2844 1947 2747 
L 2328 2669 
Q 3034 2534 3370 2195 
Q 3706 1856 3706 1288 
Q 3706 609 3251 259 
Q 2797 -91 1919 -91 
Q 1588 -91 1214 -16 
Q 841 59 441 206 
L 441 856 
Q 825 641 1194 531 
Q 1563 422 1919 422 
Q 2459 422 2753 634 
Q 3047 847 3047 1241 
Q 3047 1584 2836 1778 
Q 2625 1972 2144 2069 
L 1759 2144 
Q 1053 2284 737 2584 
Q 422 2884 422 3419 
Q 422 4038 858 4394 
Q 1294 4750 2059 4750 
Q 2388 4750 2728 4690 
Q 3069 4631 3425 4513 
z
" transform="scale(0.015625)"/>
       <path id="DejaVuSans-7a" d="M 353 3500 
L 3084 3500 
L 3084 2975 
L 922 459 
L 3084 459 
L 3084 0 
L 275 0 
L 275 525 
L 2438 3041 
L 353 3041 
L 353 3500 
z
" transform="scale(0.015625)"/>
       <path id="DejaVuSans-20" transform="scale(0.015625)"/>
       <path id="DejaVuSans-70" d="M 1159 525 
L 1159 -1331 
L 581 -1331 
L 581 3500 
L 1159 3500 
L 1159 2969 
Q 1341 3281 1617 3432 
Q 1894 3584 2278 3584 
Q 2916 3584 3314 3078 
Q 3713 2572 3713 1747 
Q 3713 922 3314 415 
Q 2916 -91 2278 -91 
Q 1894 -91 1617 61 
Q 1341 213 1159 525 
z
M 3116 1747 
Q 3116 2381 2855 2742 
Q 2594 3103 2138 3103 
Q 1681 3103 1420 2742 
Q 1159 2381 1159 1747 
Q 1159 1113 1420 752 
Q 1681 391 2138 391 
Q 2594 391 2855 752 
Q 3116 1113 3116 1747 
z
" transform="scale(0.015625)"/>
       <path id="DejaVuSans-63" d="M 3122 3366 
L 3122 2828 
Q 2878 2963 2633 3030 
Q 2388 3097 2138 3097 
Q 1578 3097 1268 2742 
Q 959 2388 959 1747 
Q 959 1106 1268 751 
Q 1578 397 2138 397 
Q 2388 397 2633 464 
Q 2878 531 3122 666 
L 3122 134 
Q 2881 22 2623 -34 
Q 2366 -91 2075 -91 
Q 1284 -91 818 406 
Q 353 903 353 1747 
Q 353 2603 823 3093 
Q 1294 3584 2113 3584 
Q 2378 3584 2631 3529 
Q 2884 3475 3122 3366 
z
" transform="scale(0.015625)"/>
      </defs>
      <use xlink:href="#DejaVuSans-53"/>
      <use xlink:href="#DejaVuSans-69" x="63.476562"/>
      <use xlink:href="#DejaVuSans-7a" x="91.259766"/>
      <use xlink:href="#DejaVuSans-65" x="143.75"/>
      <use xlink:href="#DejaVuSans-20" x="205.273438"/>
      <use xlink:href="#DejaVuSans-70" x="237.060547"/>
      <use xlink:href="#DejaVuSans-65" x="300.537109"/>
      <use xlink:href="#DejaVuSans-72" x="362.060547"/>
      <use xlink:href="#DejaVuSans-20" x="403.173828"/>
      <use xlink:href="#DejaVuSans-53" x="434.960938"/>
      <use xlink:href="#DejaVuSans-70" x="498.4375"/>
      <use xlink:href="#DejaVuSans-65" x="561.914062"/>
      <use xlink:href="#DejaVuSans-63" x="623.4375"/>
      <use xlink:href="#DejaVuSans-69" x="678.417969"/>
      <use xlink:href="#DejaVuSans-65" x="706.201172"/>
      <use xlink:href="#DejaVuSans-73" x="767.724609"/>
     </g>
    </g>
   </g>
   <g id="patch_3">
    <path d="M 57.6 307.584 
L 57.6 41.472 
" style="fill: none; stroke: #000000; stroke-width: 0.8; stroke-linejoin: miter; stroke-linecap: square"/>
   </g>
   <g id="patch_4">
    <path d="M 414.72 307.584 
L 414.72 41.472 
" style="fill: none; stroke: #000000; stroke-width: 0.8; stroke-linejoin: miter; stroke-linecap: square"/>
   </g>
   <g id="patch_5">
    <path d="M 57.6 307.584 
L 414.72 307.584 
" style="fill: none; stroke: #000000; stroke-width: 0.8; stroke-linejoin: miter; stroke-linecap: square"/>
   </g>
   <g id="patch_6">
    <path d="M 57.6 41.472 
L 414.72 41.472 
" style="fill: none; stroke: #000000; stroke-width: 0.8; stroke-linejoin: miter; stroke-linecap: square"/>
   </g>
   <g id="text_15">
    <!-- Speciation -->
    <g transform="translate(204.714375 35.472) scale(0.12 -0.12)">
     <use xlink:href="#DejaVuSans-53"/>
     <use xlink:href="#DejaVuSans-70" x="63.476562"/>
     <use xlink:href="#DejaVuSans-65" x="126.953125"/>
     <use xlink:href="#DejaVuSans-63" x="188.476562"/>
     <use xlink:href="#DejaVuSans-69" x="243.457031"/>
     <use xlink:href="#DejaVuSans-61" x="271.240234"/>
     <use xlink:href="#DejaVuSans-74" x="332.519531"/>
     <use xlink:href="#DejaVuSans-69" x="371.728516"/>
     <use xlink:href="#DejaVuSans-6f" x="399.511719"/>
     <use xlink:href="#DejaVuSans-6e" x="460.693359"/>
    </g>
   </g>
  </g>
 </g>
 <defs>
  <clipPath id="p93c4b733f6">
   <rect x="57.6" y="41.472" width="357.12" height="266.112"/>
  </clipPath>
 </defs>
</svg>
