<?xml version="1.0" encoding="utf-8" standalone="no"?>
<!DOCTYPE svg PUBLIC "-//W3C//DTD SVG 1.1//EN"
  "http://www.w3.org/Graphics/SVG/1.1/DTD/svg11.dtd">
<svg xmlns:xlink="http://www.w3.org/1999/xlink" width="460.8pt" height="345.6pt" viewBox="0 0 460.8 345.6" xmlns="http://www.w3.org/2000/svg" version="1.1">
 <metadata>
  <rdf:RDF xmlns:dc="http://purl.org/dc/elements/1.1/" xmlns:cc="http://creativecommons.org/ns#" xmlns:rdf="http://www.w3.org/1999/02/22-rdf-syntax-ns#">
   <cc:Work>
    <dc:type rdf:resource="http://purl.org/dc/dcmitype/StillImage"/>
    <dc:date>2023-12-13T05:57:43.132794</dc:date>
    <dc:format>image/svg+xml</dc:format>
    <dc:creator>
     <cc:Agent>
      <dc:title>Matplotlib v3.6.3, https://matplotlib.org/</dc:title>
     </cc:Agent>
    </dc:creator>
   </cc:Work>
  </rdf:RDF>
 </metadata>
 <defs>
  <style type="text/css">*{stroke-linejoin: round; stroke-linecap: butt}</style>
 </defs>
 <g id="figure_1">
  <g id="patch_1">
   <path d="M 0 345.6 
L 460.8 345.6 
L 460.8 0 
L 0 0 
z
" style="fill: #ffffff"/>
  </g>
  <g id="axes_1">
   <g id="patch_2">
    <path d="M 57.6 307.584 
L 414.72 307.584 
L 414.72 41.472 
L 57.6 41.472 
z
" style="fill: #ffffff"/>
   </g>
   <g id="matplotlib.axis_1">
    <g id="xtick_1">
     <g id="line2d_1">
      <path d="M 73.832727 307.584 
L 73.832727 41.472 
" clip-path="url(#pff32ad8983)" style="fill: none; stroke: #b0b0b0; stroke-width: 0.8; stroke-linecap: square"/>
     </g>
     <g id="line2d_2">
      <defs>
       <path id="mdb44a0eff0" d="M 0 0 
L 0 3.5 
" style="stroke: #000000; stroke-width: 0.8"/>
      </defs>
      <g>
       <use xlink:href="#mdb44a0eff0" x="73.832727" y="307.584" style="stroke: #000000; stroke-width: 0.8"/>
      </g>
     </g>
     <g id="text_1">
      <!-- 0 -->
      <g transform="translate(70.651477 322.182437) scale(0.1 -0.1)">
       <defs>
        <path id="DejaVuSans-30" d="M 2034 4250 
Q 1547 4250 1301 3770 
Q 1056 3291 1056 2328 
Q 1056 1369 1301 889 
Q 1547 409 2034 409 
Q 2525 409 2770 889 
Q 3016 1369 3016 2328 
Q 3016 3291 2770 3770 
Q 2525 4250 2034 4250 
z
M 2034 4750 
Q 2819 4750 3233 4129 
Q 3647 3509 3647 2328 
Q 3647 1150 3233 529 
Q 2819 -91 2034 -91 
Q 1250 -91 836 529 
Q 422 1150 422 2328 
Q 422 3509 836 4129 
Q 1250 4750 2034 4750 
z
" transform="scale(0.015625)"/>
       </defs>
       <use xlink:href="#DejaVuSans-30"/>
      </g>
     </g>
    </g>
    <g id="xtick_2">
     <g id="line2d_3">
      <path d="M 141.752088 307.584 
L 141.752088 41.472 
" clip-path="url(#pff32ad8983)" style="fill: none; stroke: #b0b0b0; stroke-width: 0.8; stroke-linecap: square"/>
     </g>
     <g id="line2d_4">
      <g>
       <use xlink:href="#mdb44a0eff0" x="141.752088" y="307.584" style="stroke: #000000; stroke-width: 0.8"/>
      </g>
     </g>
     <g id="text_2">
      <!-- 50 -->
      <g transform="translate(135.389588 322.182437) scale(0.1 -0.1)">
       <defs>
        <path id="DejaVuSans-35" d="M 691 4666 
L 3169 4666 
L 3169 4134 
L 1269 4134 
L 1269 2991 
Q 1406 3038 1543 3061 
Q 1681 3084 1819 3084 
Q 2600 3084 3056 2656 
Q 3513 2228 3513 1497 
Q 3513 744 3044 326 
Q 2575 -91 1722 -91 
Q 1428 -91 1123 -41 
Q 819 9 494 109 
L 494 744 
Q 775 591 1075 516 
Q 1375 441 1709 441 
Q 2250 441 2565 725 
Q 2881 1009 2881 1497 
Q 2881 1984 2565 2268 
Q 2250 2553 1709 2553 
Q 1456 2553 1204 2497 
Q 953 2441 691 2322 
L 691 4666 
z
" transform="scale(0.015625)"/>
       </defs>
       <use xlink:href="#DejaVuSans-35"/>
       <use xlink:href="#DejaVuSans-30" x="63.623047"/>
      </g>
     </g>
    </g>
    <g id="xtick_3">
     <g id="line2d_5">
      <path d="M 209.671449 307.584 
L 209.671449 41.472 
" clip-path="url(#pff32ad8983)" style="fill: none; stroke: #b0b0b0; stroke-width: 0.8; stroke-linecap: square"/>
     </g>
     <g id="line2d_6">
      <g>
       <use xlink:href="#mdb44a0eff0" x="209.671449" y="307.584" style="stroke: #000000; stroke-width: 0.8"/>
      </g>
     </g>
     <g id="text_3">
      <!-- 100 -->
      <g transform="translate(200.127699 322.182437) scale(0.1 -0.1)">
       <defs>
        <path id="DejaVuSans-31" d="M 794 531 
L 1825 531 
L 1825 4091 
L 703 3866 
L 703 4441 
L 1819 4666 
L 2450 4666 
L 2450 531 
L 3481 531 
L 3481 0 
L 794 0 
L 794 531 
z
" transform="scale(0.015625)"/>
       </defs>
       <use xlink:href="#DejaVuSans-31"/>
       <use xlink:href="#DejaVuSans-30" x="63.623047"/>
       <use xlink:href="#DejaVuSans-30" x="127.246094"/>
      </g>
     </g>
    </g>
    <g id="xtick_4">
     <g id="line2d_7">
      <path d="M 277.59081 307.584 
L 277.59081 41.472 
" clip-path="url(#pff32ad8983)" style="fill: none; stroke: #b0b0b0; stroke-width: 0.8; stroke-linecap: square"/>
     </g>
     <g id="line2d_8">
      <g>
       <use xlink:href="#mdb44a0eff0" x="277.59081" y="307.584" style="stroke: #000000; stroke-width: 0.8"/>
      </g>
     </g>
     <g id="text_4">
      <!-- 150 -->
      <g transform="translate(268.04706 322.182437) scale(0.1 -0.1)">
       <use xlink:href="#DejaVuSans-31"/>
       <use xlink:href="#DejaVuSans-35" x="63.623047"/>
       <use xlink:href="#DejaVuSans-30" x="127.246094"/>
      </g>
     </g>
    </g>
    <g id="xtick_5">
     <g id="line2d_9">
      <path d="M 345.510171 307.584 
L 345.510171 41.472 
" clip-path="url(#pff32ad8983)" style="fill: none; stroke: #b0b0b0; stroke-width: 0.8; stroke-linecap: square"/>
     </g>
     <g id="line2d_10">
      <g>
       <use xlink:href="#mdb44a0eff0" x="345.510171" y="307.584" style="stroke: #000000; stroke-width: 0.8"/>
      </g>
     </g>
     <g id="text_5">
      <!-- 200 -->
      <g transform="translate(335.966421 322.182437) scale(0.1 -0.1)">
       <defs>
        <path id="DejaVuSans-32" d="M 1228 531 
L 3431 531 
L 3431 0 
L 469 0 
L 469 531 
Q 828 903 1448 1529 
Q 2069 2156 2228 2338 
Q 2531 2678 2651 2914 
Q 2772 3150 2772 3378 
Q 2772 3750 2511 3984 
Q 2250 4219 1831 4219 
Q 1534 4219 1204 4116 
Q 875 4013 500 3803 
L 500 4441 
Q 881 4594 1212 4672 
Q 1544 4750 1819 4750 
Q 2544 4750 2975 4387 
Q 3406 4025 3406 3419 
Q 3406 3131 3298 2873 
Q 3191 2616 2906 2266 
Q 2828 2175 2409 1742 
Q 1991 1309 1228 531 
z
" transform="scale(0.015625)"/>
       </defs>
       <use xlink:href="#DejaVuSans-32"/>
       <use xlink:href="#DejaVuSans-30" x="63.623047"/>
       <use xlink:href="#DejaVuSans-30" x="127.246094"/>
      </g>
     </g>
    </g>
    <g id="xtick_6">
     <g id="line2d_11">
      <path d="M 413.429532 307.584 
L 413.429532 41.472 
" clip-path="url(#pff32ad8983)" style="fill: none; stroke: #b0b0b0; stroke-width: 0.8; stroke-linecap: square"/>
     </g>
     <g id="line2d_12">
      <g>
       <use xlink:href="#mdb44a0eff0" x="413.429532" y="307.584" style="stroke: #000000; stroke-width: 0.8"/>
      </g>
     </g>
     <g id="text_6">
      <!-- 250 -->
      <g transform="translate(403.885782 322.182437) scale(0.1 -0.1)">
       <use xlink:href="#DejaVuSans-32"/>
       <use xlink:href="#DejaVuSans-35" x="63.623047"/>
       <use xlink:href="#DejaVuSans-30" x="127.246094"/>
      </g>
     </g>
    </g>
    <g id="text_7">
     <!-- Generations -->
     <g transform="translate(205.662344 335.860562) scale(0.1 -0.1)">
      <defs>
       <path id="DejaVuSans-47" d="M 3809 666 
L 3809 1919 
L 2778 1919 
L 2778 2438 
L 4434 2438 
L 4434 434 
Q 4069 175 3628 42 
Q 3188 -91 2688 -91 
Q 1594 -91 976 548 
Q 359 1188 359 2328 
Q 359 3472 976 4111 
Q 1594 4750 2688 4750 
Q 3144 4750 3555 4637 
Q 3966 4525 4313 4306 
L 4313 3634 
Q 3963 3931 3569 4081 
Q 3175 4231 2741 4231 
Q 1884 4231 1454 3753 
Q 1025 3275 1025 2328 
Q 1025 1384 1454 906 
Q 1884 428 2741 428 
Q 3075 428 3337 486 
Q 3600 544 3809 666 
z
" transform="scale(0.015625)"/>
       <path id="DejaVuSans-65" d="M 3597 1894 
L 3597 1613 
L 953 1613 
Q 991 1019 1311 708 
Q 1631 397 2203 397 
Q 2534 397 2845 478 
Q 3156 559 3463 722 
L 3463 178 
Q 3153 47 2828 -22 
Q 2503 -91 2169 -91 
Q 1331 -91 842 396 
Q 353 884 353 1716 
Q 353 2575 817 3079 
Q 1281 3584 2069 3584 
Q 2775 3584 3186 3129 
Q 3597 2675 3597 1894 
z
M 3022 2063 
Q 3016 2534 2758 2815 
Q 2500 3097 2075 3097 
Q 1594 3097 1305 2825 
Q 1016 2553 972 2059 
L 3022 2063 
z
" transform="scale(0.015625)"/>
       <path id="DejaVuSans-6e" d="M 3513 2113 
L 3513 0 
L 2938 0 
L 2938 2094 
Q 2938 2591 2744 2837 
Q 2550 3084 2163 3084 
Q 1697 3084 1428 2787 
Q 1159 2491 1159 1978 
L 1159 0 
L 581 0 
L 581 3500 
L 1159 3500 
L 1159 2956 
Q 1366 3272 1645 3428 
Q 1925 3584 2291 3584 
Q 2894 3584 3203 3211 
Q 3513 2838 3513 2113 
z
" transform="scale(0.015625)"/>
       <path id="DejaVuSans-72" d="M 2631 2963 
Q 2534 3019 2420 3045 
Q 2306 3072 2169 3072 
Q 1681 3072 1420 2755 
Q 1159 2438 1159 1844 
L 1159 0 
L 581 0 
L 581 3500 
L 1159 3500 
L 1159 2956 
Q 1341 3275 1631 3429 
Q 1922 3584 2338 3584 
Q 2397 3584 2469 3576 
Q 2541 3569 2628 3553 
L 2631 2963 
z
" transform="scale(0.015625)"/>
       <path id="DejaVuSans-61" d="M 2194 1759 
Q 1497 1759 1228 1600 
Q 959 1441 959 1056 
Q 959 750 1161 570 
Q 1363 391 1709 391 
Q 2188 391 2477 730 
Q 2766 1069 2766 1631 
L 2766 1759 
L 2194 1759 
z
M 3341 1997 
L 3341 0 
L 2766 0 
L 2766 531 
Q 2569 213 2275 61 
Q 1981 -91 1556 -91 
Q 1019 -91 701 211 
Q 384 513 384 1019 
Q 384 1609 779 1909 
Q 1175 2209 1959 2209 
L 2766 2209 
L 2766 2266 
Q 2766 2663 2505 2880 
Q 2244 3097 1772 3097 
Q 1472 3097 1187 3025 
Q 903 2953 641 2809 
L 641 3341 
Q 956 3463 1253 3523 
Q 1550 3584 1831 3584 
Q 2591 3584 2966 3190 
Q 3341 2797 3341 1997 
z
" transform="scale(0.015625)"/>
       <path id="DejaVuSans-74" d="M 1172 4494 
L 1172 3500 
L 2356 3500 
L 2356 3053 
L 1172 3053 
L 1172 1153 
Q 1172 725 1289 603 
Q 1406 481 1766 481 
L 2356 481 
L 2356 0 
L 1766 0 
Q 1100 0 847 248 
Q 594 497 594 1153 
L 594 3053 
L 172 3053 
L 172 3500 
L 594 3500 
L 594 4494 
L 1172 4494 
z
" transform="scale(0.015625)"/>
       <path id="DejaVuSans-69" d="M 603 3500 
L 1178 3500 
L 1178 0 
L 603 0 
L 603 3500 
z
M 603 4863 
L 1178 4863 
L 1178 4134 
L 603 4134 
L 603 4863 
z
" transform="scale(0.015625)"/>
       <path id="DejaVuSans-6f" d="M 1959 3097 
Q 1497 3097 1228 2736 
Q 959 2375 959 1747 
Q 959 1119 1226 758 
Q 1494 397 1959 397 
Q 2419 397 2687 759 
Q 2956 1122 2956 1747 
Q 2956 2369 2687 2733 
Q 2419 3097 1959 3097 
z
M 1959 3584 
Q 2709 3584 3137 3096 
Q 3566 2609 3566 1747 
Q 3566 888 3137 398 
Q 2709 -91 1959 -91 
Q 1206 -91 779 398 
Q 353 888 353 1747 
Q 353 2609 779 3096 
Q 1206 3584 1959 3584 
z
" transform="scale(0.015625)"/>
       <path id="DejaVuSans-73" d="M 2834 3397 
L 2834 2853 
Q 2591 2978 2328 3040 
Q 2066 3103 1784 3103 
Q 1356 3103 1142 2972 
Q 928 2841 928 2578 
Q 928 2378 1081 2264 
Q 1234 2150 1697 2047 
L 1894 2003 
Q 2506 1872 2764 1633 
Q 3022 1394 3022 966 
Q 3022 478 2636 193 
Q 2250 -91 1575 -91 
Q 1294 -91 989 -36 
Q 684 19 347 128 
L 347 722 
Q 666 556 975 473 
Q 1284 391 1588 391 
Q 1994 391 2212 530 
Q 2431 669 2431 922 
Q 2431 1156 2273 1281 
Q 2116 1406 1581 1522 
L 1381 1569 
Q 847 1681 609 1914 
Q 372 2147 372 2553 
Q 372 3047 722 3315 
Q 1072 3584 1716 3584 
Q 2034 3584 2315 3537 
Q 2597 3491 2834 3397 
z
" transform="scale(0.015625)"/>
      </defs>
      <use xlink:href="#DejaVuSans-47"/>
      <use xlink:href="#DejaVuSans-65" x="77.490234"/>
      <use xlink:href="#DejaVuSans-6e" x="139.013672"/>
      <use xlink:href="#DejaVuSans-65" x="202.392578"/>
      <use xlink:href="#DejaVuSans-72" x="263.916016"/>
      <use xlink:href="#DejaVuSans-61" x="305.029297"/>
      <use xlink:href="#DejaVuSans-74" x="366.308594"/>
      <use xlink:href="#DejaVuSans-69" x="405.517578"/>
      <use xlink:href="#DejaVuSans-6f" x="433.300781"/>
      <use xlink:href="#DejaVuSans-6e" x="494.482422"/>
      <use xlink:href="#DejaVuSans-73" x="557.861328"/>
     </g>
    </g>
   </g>
   <g id="matplotlib.axis_2">
    <g id="ytick_1">
     <g id="line2d_13">
      <path d="M 57.6 280.60993 
L 414.72 280.60993 
" clip-path="url(#pff32ad8983)" style="fill: none; stroke: #b0b0b0; stroke-width: 0.8; stroke-linecap: square"/>
     </g>
     <g id="line2d_14">
      <defs>
       <path id="mfe8481d507" d="M 0 0 
L -3.5 0 
" style="stroke: #000000; stroke-width: 0.8"/>
      </defs>
      <g>
       <use xlink:href="#mfe8481d507" x="57.6" y="280.60993" style="stroke: #000000; stroke-width: 0.8"/>
      </g>
     </g>
     <g id="text_8">
      <!-- −80 -->
      <g transform="translate(29.495313 284.409149) scale(0.1 -0.1)">
       <defs>
        <path id="DejaVuSans-2212" d="M 678 2272 
L 4684 2272 
L 4684 1741 
L 678 1741 
L 678 2272 
z
" transform="scale(0.015625)"/>
        <path id="DejaVuSans-38" d="M 2034 2216 
Q 1584 2216 1326 1975 
Q 1069 1734 1069 1313 
Q 1069 891 1326 650 
Q 1584 409 2034 409 
Q 2484 409 2743 651 
Q 3003 894 3003 1313 
Q 3003 1734 2745 1975 
Q 2488 2216 2034 2216 
z
M 1403 2484 
Q 997 2584 770 2862 
Q 544 3141 544 3541 
Q 544 4100 942 4425 
Q 1341 4750 2034 4750 
Q 2731 4750 3128 4425 
Q 3525 4100 3525 3541 
Q 3525 3141 3298 2862 
Q 3072 2584 2669 2484 
Q 3125 2378 3379 2068 
Q 3634 1759 3634 1313 
Q 3634 634 3220 271 
Q 2806 -91 2034 -91 
Q 1263 -91 848 271 
Q 434 634 434 1313 
Q 434 1759 690 2068 
Q 947 2378 1403 2484 
z
M 1172 3481 
Q 1172 3119 1398 2916 
Q 1625 2713 2034 2713 
Q 2441 2713 2670 2916 
Q 2900 3119 2900 3481 
Q 2900 3844 2670 4047 
Q 2441 4250 2034 4250 
Q 1625 4250 1398 4047 
Q 1172 3844 1172 3481 
z
" transform="scale(0.015625)"/>
       </defs>
       <use xlink:href="#DejaVuSans-2212"/>
       <use xlink:href="#DejaVuSans-38" x="83.789062"/>
       <use xlink:href="#DejaVuSans-30" x="147.412109"/>
      </g>
     </g>
    </g>
    <g id="ytick_2">
     <g id="line2d_15">
      <path d="M 57.6 250.549996 
L 414.72 250.549996 
" clip-path="url(#pff32ad8983)" style="fill: none; stroke: #b0b0b0; stroke-width: 0.8; stroke-linecap: square"/>
     </g>
     <g id="line2d_16">
      <g>
       <use xlink:href="#mfe8481d507" x="57.6" y="250.549996" style="stroke: #000000; stroke-width: 0.8"/>
      </g>
     </g>
     <g id="text_9">
      <!-- −75 -->
      <g transform="translate(29.495313 254.349215) scale(0.1 -0.1)">
       <defs>
        <path id="DejaVuSans-37" d="M 525 4666 
L 3525 4666 
L 3525 4397 
L 1831 0 
L 1172 0 
L 2766 4134 
L 525 4134 
L 525 4666 
z
" transform="scale(0.015625)"/>
       </defs>
       <use xlink:href="#DejaVuSans-2212"/>
       <use xlink:href="#DejaVuSans-37" x="83.789062"/>
       <use xlink:href="#DejaVuSans-35" x="147.412109"/>
      </g>
     </g>
    </g>
    <g id="ytick_3">
     <g id="line2d_17">
      <path d="M 57.6 220.490063 
L 414.72 220.490063 
" clip-path="url(#pff32ad8983)" style="fill: none; stroke: #b0b0b0; stroke-width: 0.8; stroke-linecap: square"/>
     </g>
     <g id="line2d_18">
      <g>
       <use xlink:href="#mfe8481d507" x="57.6" y="220.490063" style="stroke: #000000; stroke-width: 0.8"/>
      </g>
     </g>
     <g id="text_10">
      <!-- −70 -->
      <g transform="translate(29.495313 224.289281) scale(0.1 -0.1)">
       <use xlink:href="#DejaVuSans-2212"/>
       <use xlink:href="#DejaVuSans-37" x="83.789062"/>
       <use xlink:href="#DejaVuSans-30" x="147.412109"/>
      </g>
     </g>
    </g>
    <g id="ytick_4">
     <g id="line2d_19">
      <path d="M 57.6 190.430129 
L 414.72 190.430129 
" clip-path="url(#pff32ad8983)" style="fill: none; stroke: #b0b0b0; stroke-width: 0.8; stroke-linecap: square"/>
     </g>
     <g id="line2d_20">
      <g>
       <use xlink:href="#mfe8481d507" x="57.6" y="190.430129" style="stroke: #000000; stroke-width: 0.8"/>
      </g>
     </g>
     <g id="text_11">
      <!-- −65 -->
      <g transform="translate(29.495313 194.229347) scale(0.1 -0.1)">
       <defs>
        <path id="DejaVuSans-36" d="M 2113 2584 
Q 1688 2584 1439 2293 
Q 1191 2003 1191 1497 
Q 1191 994 1439 701 
Q 1688 409 2113 409 
Q 2538 409 2786 701 
Q 3034 994 3034 1497 
Q 3034 2003 2786 2293 
Q 2538 2584 2113 2584 
z
M 3366 4563 
L 3366 3988 
Q 3128 4100 2886 4159 
Q 2644 4219 2406 4219 
Q 1781 4219 1451 3797 
Q 1122 3375 1075 2522 
Q 1259 2794 1537 2939 
Q 1816 3084 2150 3084 
Q 2853 3084 3261 2657 
Q 3669 2231 3669 1497 
Q 3669 778 3244 343 
Q 2819 -91 2113 -91 
Q 1303 -91 875 529 
Q 447 1150 447 2328 
Q 447 3434 972 4092 
Q 1497 4750 2381 4750 
Q 2619 4750 2861 4703 
Q 3103 4656 3366 4563 
z
" transform="scale(0.015625)"/>
       </defs>
       <use xlink:href="#DejaVuSans-2212"/>
       <use xlink:href="#DejaVuSans-36" x="83.789062"/>
       <use xlink:href="#DejaVuSans-35" x="147.412109"/>
      </g>
     </g>
    </g>
    <g id="ytick_5">
     <g id="line2d_21">
      <path d="M 57.6 160.370195 
L 414.72 160.370195 
" clip-path="url(#pff32ad8983)" style="fill: none; stroke: #b0b0b0; stroke-width: 0.8; stroke-linecap: square"/>
     </g>
     <g id="line2d_22">
      <g>
       <use xlink:href="#mfe8481d507" x="57.6" y="160.370195" style="stroke: #000000; stroke-width: 0.8"/>
      </g>
     </g>
     <g id="text_12">
      <!-- −60 -->
      <g transform="translate(29.495313 164.169414) scale(0.1 -0.1)">
       <use xlink:href="#DejaVuSans-2212"/>
       <use xlink:href="#DejaVuSans-36" x="83.789062"/>
       <use xlink:href="#DejaVuSans-30" x="147.412109"/>
      </g>
     </g>
    </g>
    <g id="ytick_6">
     <g id="line2d_23">
      <path d="M 57.6 130.310261 
L 414.72 130.310261 
" clip-path="url(#pff32ad8983)" style="fill: none; stroke: #b0b0b0; stroke-width: 0.8; stroke-linecap: square"/>
     </g>
     <g id="line2d_24">
      <g>
       <use xlink:href="#mfe8481d507" x="57.6" y="130.310261" style="stroke: #000000; stroke-width: 0.8"/>
      </g>
     </g>
     <g id="text_13">
      <!-- −55 -->
      <g transform="translate(29.495313 134.10948) scale(0.1 -0.1)">
       <use xlink:href="#DejaVuSans-2212"/>
       <use xlink:href="#DejaVuSans-35" x="83.789062"/>
       <use xlink:href="#DejaVuSans-35" x="147.412109"/>
      </g>
     </g>
    </g>
    <g id="ytick_7">
     <g id="line2d_25">
      <path d="M 57.6 100.250327 
L 414.72 100.250327 
" clip-path="url(#pff32ad8983)" style="fill: none; stroke: #b0b0b0; stroke-width: 0.8; stroke-linecap: square"/>
     </g>
     <g id="line2d_26">
      <g>
       <use xlink:href="#mfe8481d507" x="57.6" y="100.250327" style="stroke: #000000; stroke-width: 0.8"/>
      </g>
     </g>
     <g id="text_14">
      <!-- −50 -->
      <g transform="translate(29.495313 104.049546) scale(0.1 -0.1)">
       <use xlink:href="#DejaVuSans-2212"/>
       <use xlink:href="#DejaVuSans-35" x="83.789062"/>
       <use xlink:href="#DejaVuSans-30" x="147.412109"/>
      </g>
     </g>
    </g>
    <g id="ytick_8">
     <g id="line2d_27">
      <path d="M 57.6 70.190393 
L 414.72 70.190393 
" clip-path="url(#pff32ad8983)" style="fill: none; stroke: #b0b0b0; stroke-width: 0.8; stroke-linecap: square"/>
     </g>
     <g id="line2d_28">
      <g>
       <use xlink:href="#mfe8481d507" x="57.6" y="70.190393" style="stroke: #000000; stroke-width: 0.8"/>
      </g>
     </g>
     <g id="text_15">
      <!-- −45 -->
      <g transform="translate(29.495313 73.989612) scale(0.1 -0.1)">
       <defs>
        <path id="DejaVuSans-34" d="M 2419 4116 
L 825 1625 
L 2419 1625 
L 2419 4116 
z
M 2253 4666 
L 3047 4666 
L 3047 1625 
L 3713 1625 
L 3713 1100 
L 3047 1100 
L 3047 0 
L 2419 0 
L 2419 1100 
L 313 1100 
L 313 1709 
L 2253 4666 
z
" transform="scale(0.015625)"/>
       </defs>
       <use xlink:href="#DejaVuSans-2212"/>
       <use xlink:href="#DejaVuSans-34" x="83.789062"/>
       <use xlink:href="#DejaVuSans-35" x="147.412109"/>
      </g>
     </g>
    </g>
    <g id="text_16">
     <!-- Fitness -->
     <g transform="translate(23.415625 191.845187) rotate(-90) scale(0.1 -0.1)">
      <defs>
       <path id="DejaVuSans-46" d="M 628 4666 
L 3309 4666 
L 3309 4134 
L 1259 4134 
L 1259 2759 
L 3109 2759 
L 3109 2228 
L 1259 2228 
L 1259 0 
L 628 0 
L 628 4666 
z
" transform="scale(0.015625)"/>
      </defs>
      <use xlink:href="#DejaVuSans-46"/>
      <use xlink:href="#DejaVuSans-69" x="50.269531"/>
      <use xlink:href="#DejaVuSans-74" x="78.052734"/>
      <use xlink:href="#DejaVuSans-6e" x="117.261719"/>
      <use xlink:href="#DejaVuSans-65" x="180.640625"/>
      <use xlink:href="#DejaVuSans-73" x="242.164062"/>
      <use xlink:href="#DejaVuSans-73" x="294.263672"/>
     </g>
    </g>
   </g>
   <g id="line2d_29">
    <path d="M 73.832727 266.740286 
L 75.191114 266.083231 
L 76.549502 263.111855 
L 77.907889 255.302167 
L 79.266276 251.466091 
L 80.624663 248.573063 
L 81.983051 249.914557 
L 83.341438 247.244797 
L 84.699825 247.626643 
L 86.058212 246.694632 
L 88.774987 247.673375 
L 90.133374 241.836315 
L 92.850148 242.708762 
L 94.208536 239.919132 
L 95.566923 236.78645 
L 96.92531 239.611147 
L 98.283697 238.373529 
L 99.642084 236.920893 
L 101.000472 237.118923 
L 102.358859 238.145057 
L 103.717246 241.79083 
L 105.075633 238.050234 
L 106.434021 235.638129 
L 107.792408 231.581802 
L 109.150795 232.834117 
L 110.509182 236.028774 
L 111.867569 231.812324 
L 113.225957 231.937093 
L 114.584344 229.855286 
L 115.942731 230.646129 
L 117.301118 231.713373 
L 118.659506 226.780642 
L 120.017893 230.017317 
L 121.37628 230.582164 
L 122.734667 227.116967 
L 124.093054 227.896966 
L 125.451442 230.985377 
L 126.809829 227.15415 
L 128.168216 228.944492 
L 129.526603 226.825004 
L 130.88499 230.067994 
L 132.243378 225.669616 
L 133.601765 228.573815 
L 134.960152 228.320273 
L 136.318539 232.622146 
L 137.676927 231.579794 
L 139.035314 231.157839 
L 140.393701 232.667428 
L 141.752088 230.324402 
L 143.110475 232.126993 
L 144.468863 234.736793 
L 145.82725 230.688109 
L 147.185637 231.100017 
L 149.902412 233.537927 
L 151.260799 232.583905 
L 152.619186 225.483437 
L 153.977573 227.662902 
L 155.33596 230.547233 
L 156.694348 230.046255 
L 158.052735 231.510625 
L 159.411122 231.287351 
L 160.769509 229.755026 
L 162.127897 228.742494 
L 163.486284 226.359155 
L 164.844671 226.899933 
L 166.203058 226.078559 
L 167.561445 223.947307 
L 168.919833 224.668725 
L 170.27822 221.95319 
L 171.636607 225.143125 
L 172.994994 223.496581 
L 174.353382 217.010599 
L 175.711769 217.880283 
L 177.070156 220.432288 
L 178.428543 215.069388 
L 179.78693 205.706208 
L 181.145318 207.734214 
L 182.503705 209.150099 
L 183.862092 213.505594 
L 185.220479 210.53383 
L 186.578866 205.4421 
L 187.937254 206.040233 
L 189.295641 205.306493 
L 190.654028 208.014856 
L 192.012415 202.844329 
L 193.370803 206.049098 
L 194.72919 202.084145 
L 196.087577 209.334571 
L 197.445964 203.21918 
L 198.804351 203.956044 
L 200.162739 207.103488 
L 201.521126 208.912271 
L 202.879513 196.473668 
L 204.2379 201.116334 
L 205.596288 200.503662 
L 206.954675 200.974978 
L 208.313062 205.881117 
L 209.671449 199.447416 
L 211.029836 206.462643 
L 212.388224 195.767263 
L 213.746611 196.33137 
L 215.104998 197.128232 
L 216.463385 199.326448 
L 217.821773 186.487104 
L 219.18016 197.126869 
L 220.538547 187.542332 
L 221.896934 198.706125 
L 223.255321 196.828251 
L 224.613709 194.551261 
L 225.972096 197.341235 
L 227.330483 206.890793 
L 228.68887 196.651396 
L 230.047258 188.795727 
L 231.405645 190.443982 
L 232.764032 199.866078 
L 234.122419 198.28652 
L 235.480806 197.22214 
L 236.839194 190.879633 
L 238.197581 194.033233 
L 239.555968 188.822857 
L 240.914355 197.712605 
L 242.272742 196.877503 
L 243.63113 183.629118 
L 244.989517 187.52748 
L 246.347904 186.878788 
L 247.706291 192.77791 
L 249.064679 186.268386 
L 250.423066 197.996454 
L 251.781453 195.203557 
L 253.13984 197.086391 
L 254.498227 187.459915 
L 255.856615 190.772852 
L 257.215002 193.151056 
L 258.573389 184.163051 
L 259.931776 195.261734 
L 261.290164 194.153926 
L 262.648551 184.189426 
L 264.006938 193.002082 
L 265.365325 183.069543 
L 266.723712 183.108256 
L 268.0821 189.41216 
L 269.440487 188.431471 
L 270.798874 193.73098 
L 272.157261 182.290029 
L 273.515649 189.326972 
L 274.874036 186.474644 
L 276.232423 172.311486 
L 277.59081 186.349157 
L 278.949197 185.200397 
L 280.307585 192.011145 
L 281.665972 195.568685 
L 283.024359 188.458927 
L 284.382746 190.258705 
L 285.741134 183.481497 
L 287.099521 192.552649 
L 288.457908 195.490425 
L 289.816295 192.153084 
L 291.174682 173.503905 
L 292.53307 181.849232 
L 293.891457 198.672154 
L 295.249844 191.63947 
L 296.608231 197.521147 
L 297.966618 197.379501 
L 299.325006 193.076584 
L 300.683393 199.640133 
L 302.04178 194.212697 
L 303.400167 197.980898 
L 304.758555 201.295018 
L 306.116942 213.718211 
L 307.475329 209.931634 
L 308.833716 205.678175 
L 310.192103 199.963389 
L 311.550491 195.273839 
L 312.908878 195.005093 
L 314.267265 202.874872 
L 315.625652 198.051773 
L 316.98404 195.506574 
L 318.342427 200.97158 
L 319.700814 200.614193 
L 321.059201 199.409666 
L 322.417588 197.376078 
L 323.775976 205.25066 
L 325.134363 195.619018 
L 326.49275 205.128723 
L 327.851137 205.439632 
L 329.209525 199.83317 
L 330.567912 198.588627 
L 331.926299 200.790666 
L 333.284686 206.373153 
L 334.643073 204.781129 
L 336.001461 192.85034 
L 337.359848 204.378303 
L 338.718235 200.042164 
L 340.076622 195.266726 
L 342.793397 207.387552 
L 344.151784 204.275855 
L 345.510171 200.821698 
L 346.868558 200.010718 
L 348.226946 194.680739 
L 350.94372 197.540271 
L 352.302107 205.634384 
L 353.660494 204.615113 
L 355.018882 202.625951 
L 356.377269 217.76477 
L 357.735656 215.576643 
L 359.094043 207.833319 
L 360.452431 208.282157 
L 361.810818 209.568832 
L 363.169205 207.843014 
L 364.527592 201.591617 
L 365.885979 211.793901 
L 367.244367 197.581493 
L 368.602754 198.992464 
L 369.961141 201.53137 
L 371.319528 200.779866 
L 372.677916 204.828594 
L 374.036303 209.637238 
L 375.39469 206.207576 
L 376.753077 199.170542 
L 378.111464 199.801655 
L 379.469852 214.706567 
L 380.828239 204.83397 
L 382.186626 199.423593 
L 383.545013 203.297386 
L 384.903401 196.475179 
L 386.261788 201.673756 
L 387.620175 191.253499 
L 388.978562 191.17971 
L 390.336949 203.617366 
L 391.695337 208.992668 
L 393.053724 208.30396 
L 394.412111 213.972643 
L 395.770498 197.800701 
L 397.128886 204.065051 
L 398.487273 200.467144 
L 398.487273 200.467144 
" clip-path="url(#pff32ad8983)" style="fill: none; stroke: #0000ff; stroke-width: 1.5; stroke-linecap: square"/>
   </g>
   <g id="line2d_30">
    <path d="M 73.832727 266.740286 
L 75.191114 270.632325 
L 76.549502 275.106721 
L 77.907889 271.570754 
L 79.266276 269.778016 
L 80.624663 270.285179 
L 81.983051 273.575661 
L 83.341438 270.934531 
L 84.699825 270.723763 
L 86.058212 271.410514 
L 87.416599 271.179564 
L 88.774987 272.05382 
L 90.133374 268.210843 
L 91.491761 268.462404 
L 92.850148 269.754263 
L 94.208536 265.820503 
L 95.566923 263.644576 
L 96.92531 267.059523 
L 98.283697 264.88755 
L 99.642084 264.008743 
L 101.000472 264.882487 
L 102.358859 264.74087 
L 103.717246 267.770529 
L 105.075633 264.491447 
L 106.434021 262.434578 
L 107.792408 258.58782 
L 109.150795 261.80672 
L 110.509182 264.275673 
L 111.867569 259.155265 
L 113.225957 260.045573 
L 114.584344 258.569349 
L 115.942731 259.717934 
L 117.301118 261.181215 
L 118.659506 254.786326 
L 120.017893 257.902913 
L 121.37628 258.996965 
L 122.734667 254.078374 
L 124.093054 256.727333 
L 125.451442 259.920639 
L 126.809829 255.862449 
L 128.168216 257.64762 
L 129.526603 254.365836 
L 130.88499 258.444613 
L 132.243378 253.988193 
L 133.601765 256.749356 
L 134.960152 255.597492 
L 136.318539 261.442962 
L 137.676927 258.858935 
L 139.035314 258.895988 
L 140.393701 259.359479 
L 141.752088 257.299992 
L 143.110475 258.287229 
L 144.468863 261.831432 
L 145.82725 256.828527 
L 147.185637 258.646522 
L 149.902412 261.065042 
L 151.260799 259.68441 
L 152.619186 251.538527 
L 153.977573 255.093085 
L 155.33596 257.694061 
L 156.694348 257.580104 
L 158.052735 259.896589 
L 159.411122 259.692084 
L 160.769509 256.849539 
L 162.127897 256.599946 
L 163.486284 255.414232 
L 164.844671 258.252815 
L 166.203058 257.364199 
L 167.561445 260.183198 
L 168.919833 265.384865 
L 170.27822 267.602825 
L 171.636607 272.323727 
L 172.994994 272.876816 
L 174.353382 271.330768 
L 175.711769 273.798217 
L 177.070156 273.756998 
L 178.428543 275.070327 
L 179.78693 271.002449 
L 181.145318 274.167602 
L 182.503705 276.413057 
L 183.862092 276.697107 
L 185.220479 276.816136 
L 186.578866 275.400081 
L 187.937254 275.222298 
L 189.295641 279.223936 
L 190.654028 280.425379 
L 192.012415 279.443469 
L 193.370803 281.970382 
L 194.72919 279.118027 
L 196.087577 286.88911 
L 197.445964 281.183639 
L 198.804351 283.318839 
L 200.162739 287.733501 
L 201.521126 289.162576 
L 202.879513 281.750997 
L 204.2379 283.95824 
L 205.596288 283.530971 
L 206.954675 284.313137 
L 208.313062 287.317403 
L 209.671449 282.085912 
L 211.029836 286.480881 
L 212.388224 279.135364 
L 213.746611 281.955942 
L 215.104998 281.576597 
L 216.463385 284.246204 
L 217.821773 276.273791 
L 219.18016 283.722254 
L 220.538547 276.585511 
L 221.896934 285.601617 
L 223.255321 284.223871 
L 224.613709 282.029559 
L 225.972096 284.722973 
L 227.330483 291.686374 
L 228.68887 283.698315 
L 230.047258 278.089714 
L 231.405645 278.02318 
L 232.764032 285.32472 
L 234.122419 283.833765 
L 235.480806 283.415556 
L 236.839194 279.156438 
L 238.197581 282.392434 
L 239.555968 278.6486 
L 240.914355 282.521557 
L 242.272742 282.573904 
L 243.63113 272.708156 
L 244.989517 276.377946 
L 246.347904 275.784206 
L 247.706291 281.859922 
L 249.064679 277.105301 
L 250.423066 285.389918 
L 251.781453 281.120294 
L 253.13984 284.94416 
L 254.498227 276.991996 
L 255.856615 277.510487 
L 257.215002 280.722832 
L 258.573389 272.974792 
L 259.931776 283.328676 
L 261.290164 281.90108 
L 262.648551 272.671471 
L 264.006938 280.796801 
L 265.365325 272.163176 
L 266.723712 272.95723 
L 268.0821 277.906112 
L 269.440487 276.7292 
L 270.798874 281.461601 
L 272.157261 271.51338 
L 273.515649 277.500331 
L 274.874036 277.280502 
L 276.232423 262.28467 
L 277.59081 275.611079 
L 278.949197 274.421655 
L 280.307585 278.937806 
L 281.665972 281.99777 
L 283.024359 274.34908 
L 284.382746 277.98574 
L 285.741134 270.778299 
L 287.099521 278.538692 
L 288.457908 280.544382 
L 289.816295 280.96674 
L 291.174682 262.651072 
L 292.53307 270.314794 
L 293.891457 283.46495 
L 295.249844 276.611499 
L 296.608231 280.240346 
L 297.966618 281.3528 
L 299.325006 278.493736 
L 300.683393 282.513295 
L 302.04178 279.990855 
L 303.400167 281.053227 
L 304.758555 281.598692 
L 306.116942 290.105855 
L 307.475329 290.41283 
L 308.833716 287.032083 
L 310.192103 285.374412 
L 311.550491 281.62917 
L 312.908878 280.114009 
L 314.267265 286.06123 
L 315.625652 283.830427 
L 316.98404 279.950365 
L 318.342427 285.226276 
L 319.700814 284.313271 
L 321.059201 284.580989 
L 322.417588 282.13999 
L 323.775976 286.783369 
L 325.134363 283.222284 
L 326.49275 289.055093 
L 327.851137 289.328815 
L 329.209525 282.790021 
L 330.567912 282.978109 
L 331.926299 285.273521 
L 333.284686 286.652903 
L 334.643073 287.520208 
L 336.001461 279.537636 
L 337.359848 288.332909 
L 338.718235 285.189681 
L 340.076622 280.580267 
L 341.43501 283.172205 
L 342.793397 286.009702 
L 344.151784 286.134016 
L 345.510171 284.320511 
L 346.868558 284.90335 
L 348.226946 281.240822 
L 349.585333 281.049712 
L 350.94372 282.288601 
L 352.302107 287.385788 
L 353.660494 287.847691 
L 355.018882 285.380506 
L 356.377269 293.471425 
L 357.735656 292.557735 
L 359.094043 287.693424 
L 363.169205 289.510841 
L 364.527592 285.437189 
L 365.885979 291.944797 
L 367.244367 283.344528 
L 368.602754 284.079723 
L 369.961141 285.073216 
L 371.319528 286.237301 
L 372.677916 288.338286 
L 374.036303 288.802264 
L 375.39469 287.022254 
L 376.753077 283.069604 
L 378.111464 283.186694 
L 379.469852 292.989292 
L 380.828239 286.650347 
L 382.186626 282.744516 
L 383.545013 285.921663 
L 384.903401 281.692443 
L 386.261788 286.205325 
L 387.620175 278.432508 
L 388.978562 275.501008 
L 390.336949 288.064554 
L 391.695337 287.338766 
L 393.053724 289.606809 
L 394.412111 295.488 
L 395.770498 282.214738 
L 397.128886 287.600199 
L 398.487273 284.923634 
L 398.487273 284.923634 
" clip-path="url(#pff32ad8983)" style="fill: none; stroke-dasharray: 9.6,2.4,1.5,2.4; stroke-dashoffset: 0; stroke: #008000; stroke-width: 1.5"/>
   </g>
   <g id="line2d_31">
    <path d="M 73.832727 266.740286 
L 75.191114 261.534138 
L 76.549502 251.11699 
L 77.907889 239.03358 
L 80.624663 226.860946 
L 81.983051 226.253453 
L 83.341438 223.555063 
L 84.699825 224.529523 
L 86.058212 221.97875 
L 87.416599 223.284517 
L 88.774987 223.29293 
L 90.133374 215.461787 
L 91.491761 216.164731 
L 92.850148 215.66326 
L 94.208536 214.017761 
L 95.566923 209.928323 
L 96.92531 212.162771 
L 98.283697 211.859509 
L 99.642084 209.833044 
L 101.000472 209.355359 
L 102.358859 211.549243 
L 103.717246 215.81113 
L 105.075633 211.609022 
L 106.434021 208.84168 
L 107.792408 204.575783 
L 109.150795 203.861514 
L 110.509182 207.781875 
L 111.867569 204.469383 
L 113.225957 203.828613 
L 114.584344 201.141223 
L 115.942731 201.574324 
L 117.301118 202.245531 
L 118.659506 198.774959 
L 120.017893 202.131722 
L 121.37628 202.167363 
L 122.734667 200.15556 
L 124.093054 199.0666 
L 125.451442 202.050116 
L 126.809829 198.445851 
L 128.168216 200.241363 
L 129.526603 199.284173 
L 130.88499 201.691376 
L 132.243378 197.351039 
L 133.601765 200.398275 
L 134.960152 201.043054 
L 136.318539 203.801331 
L 137.676927 204.300652 
L 139.035314 203.41969 
L 140.393701 205.975378 
L 141.752088 203.348811 
L 143.110475 205.966757 
L 144.468863 207.642154 
L 145.82725 204.547692 
L 147.185637 203.553512 
L 148.544024 204.697082 
L 149.902412 206.010813 
L 151.260799 205.4834 
L 152.619186 199.428348 
L 153.977573 200.232719 
L 155.33596 203.400404 
L 156.694348 202.512407 
L 158.052735 203.12466 
L 160.769509 202.660513 
L 162.127897 200.885041 
L 163.486284 197.304079 
L 164.844671 195.547051 
L 166.203058 194.79292 
L 167.561445 187.711416 
L 168.919833 183.952584 
L 170.27822 176.303554 
L 171.636607 177.962523 
L 172.994994 174.116346 
L 174.353382 162.690431 
L 175.711769 161.962348 
L 177.070156 167.107579 
L 178.428543 155.068449 
L 179.78693 140.409967 
L 181.145318 141.300825 
L 182.503705 141.887141 
L 183.862092 150.314081 
L 185.220479 144.251524 
L 186.578866 135.484118 
L 187.937254 136.858168 
L 189.295641 131.389049 
L 190.654028 135.604333 
L 192.012415 126.245189 
L 193.370803 130.127815 
L 194.72919 125.050263 
L 196.087577 131.780033 
L 197.445964 125.254721 
L 198.804351 124.593249 
L 200.162739 126.473476 
L 201.521126 128.661967 
L 202.879513 111.196338 
L 204.2379 118.274428 
L 205.596288 117.476354 
L 206.954675 117.636818 
L 208.313062 124.44483 
L 209.671449 116.80892 
L 211.029836 126.444405 
L 212.388224 112.399162 
L 213.746611 110.706798 
L 215.104998 112.679868 
L 216.463385 114.406693 
L 217.821773 96.700416 
L 219.18016 110.531485 
L 220.538547 98.499153 
L 221.896934 111.810633 
L 224.613709 107.072962 
L 225.972096 109.959498 
L 227.330483 122.095212 
L 228.68887 109.604476 
L 230.047258 99.50174 
L 231.405645 102.864785 
L 232.764032 114.407435 
L 235.480806 111.028723 
L 236.839194 102.602827 
L 238.197581 105.674031 
L 239.555968 98.997114 
L 240.914355 112.903652 
L 242.272742 111.181101 
L 243.63113 94.550081 
L 244.989517 98.677015 
L 246.347904 97.97337 
L 247.706291 103.695898 
L 249.064679 95.431472 
L 250.423066 110.60299 
L 251.781453 109.28682 
L 253.13984 109.228622 
L 254.498227 97.927834 
L 255.856615 104.035217 
L 257.215002 105.579279 
L 258.573389 95.351309 
L 259.931776 107.194791 
L 261.290164 106.406773 
L 262.648551 95.707381 
L 264.006938 105.207363 
L 265.365325 93.97591 
L 266.723712 93.259282 
L 268.0821 100.918208 
L 269.440487 100.133742 
L 270.798874 106.000359 
L 272.157261 93.066678 
L 273.515649 101.153613 
L 274.874036 95.668786 
L 276.232423 82.338303 
L 277.59081 97.087236 
L 278.949197 95.979139 
L 280.307585 105.084483 
L 281.665972 109.139599 
L 283.024359 102.568774 
L 284.382746 102.53167 
L 285.741134 96.184696 
L 287.099521 106.566606 
L 288.457908 110.436468 
L 289.816295 103.339428 
L 291.174682 84.356739 
L 292.53307 93.383671 
L 293.891457 113.879358 
L 295.249844 106.667441 
L 296.608231 114.801948 
L 297.966618 113.406202 
L 299.325006 107.659433 
L 300.683393 116.766972 
L 302.04178 108.43454 
L 304.758555 120.991344 
L 306.116942 137.330568 
L 307.475329 129.450438 
L 308.833716 124.324268 
L 310.192103 114.552365 
L 311.550491 108.918508 
L 312.908878 109.896178 
L 314.267265 119.688514 
L 315.625652 112.27312 
L 316.98404 111.062782 
L 318.342427 116.716884 
L 319.700814 116.915116 
L 321.059201 114.238343 
L 322.417588 112.612166 
L 323.775976 123.717951 
L 325.134363 108.015751 
L 326.49275 121.202352 
L 327.851137 121.550449 
L 329.209525 116.876319 
L 330.567912 114.199145 
L 331.926299 116.307811 
L 333.284686 126.093403 
L 334.643073 122.042049 
L 336.001461 106.163044 
L 337.359848 120.423697 
L 338.718235 114.894648 
L 340.076622 109.953184 
L 342.793397 128.765403 
L 344.151784 122.417694 
L 345.510171 117.322884 
L 346.868558 115.118087 
L 348.226946 108.120655 
L 349.585333 111.176375 
L 350.94372 112.79194 
L 352.302107 123.88298 
L 353.660494 121.382535 
L 355.018882 119.871396 
L 356.377269 142.058114 
L 357.735656 138.595551 
L 359.094043 127.973213 
L 360.452431 128.274313 
L 361.810818 130.209429 
L 363.169205 126.175188 
L 364.527592 117.746045 
L 365.885979 131.643006 
L 367.244367 111.818458 
L 368.602754 113.905206 
L 369.961141 117.989523 
L 371.319528 115.322431 
L 372.677916 121.318902 
L 374.036303 130.472212 
L 375.39469 125.392897 
L 376.753077 115.271479 
L 378.111464 116.416615 
L 379.469852 136.423843 
L 380.828239 123.017592 
L 382.186626 116.10267 
L 383.545013 120.673108 
L 384.903401 111.257915 
L 386.261788 117.142187 
L 387.620175 104.07449 
L 388.978562 106.858413 
L 391.695337 130.646569 
L 393.053724 127.001112 
L 394.412111 132.457286 
L 395.770498 113.386664 
L 397.128886 120.529903 
L 398.487273 116.010655 
L 398.487273 116.010655 
" clip-path="url(#pff32ad8983)" style="fill: none; stroke-dasharray: 9.6,2.4,1.5,2.4; stroke-dashoffset: 0; stroke: #008000; stroke-width: 1.5"/>
   </g>
   <g id="line2d_32">
    <path d="M 73.832727 266.740286 
L 75.191114 225.933024 
L 76.549502 203.547109 
L 77.907889 194.509311 
L 79.266276 194.509311 
L 80.624663 194.389827 
L 111.867569 194.389827 
L 113.225957 193.49762 
L 118.659506 193.49762 
L 121.37628 192.887749 
L 122.734667 192.887749 
L 124.093054 192.665378 
L 125.451442 191.086362 
L 130.88499 191.086362 
L 132.243378 189.734921 
L 136.318539 189.734921 
L 137.676927 186.948939 
L 140.393701 186.948939 
L 141.752088 186.430787 
L 155.33596 186.430787 
L 156.694348 181.724179 
L 158.052735 174.901144 
L 162.127897 174.901144 
L 163.486284 90.514821 
L 168.919833 90.482792 
L 170.27822 89.978144 
L 171.636607 83.758933 
L 172.994994 83.230603 
L 175.711769 83.13985 
L 178.428543 82.458599 
L 179.78693 69.723457 
L 182.503705 69.723457 
L 183.862092 68.898497 
L 185.220479 67.16393 
L 189.295641 67.144776 
L 190.654028 66.089993 
L 202.879513 66.089993 
L 204.2379 65.894061 
L 217.821773 65.894061 
L 219.18016 65.669759 
L 274.874036 65.669759 
L 276.232423 64.698834 
L 316.98404 64.698834 
L 318.342427 61.445107 
L 336.001461 61.35 
L 337.359848 60.862966 
L 365.885979 60.862966 
L 367.244367 54.143203 
L 386.261788 54.143203 
L 387.620175 53.568 
L 398.487273 53.568 
L 398.487273 53.568 
" clip-path="url(#pff32ad8983)" style="fill: none; stroke: #ff0000; stroke-width: 1.5; stroke-linecap: square"/>
   </g>
   <g id="patch_3">
    <path d="M 57.6 307.584 
L 57.6 41.472 
" style="fill: none; stroke: #000000; stroke-width: 0.8; stroke-linejoin: miter; stroke-linecap: square"/>
   </g>
   <g id="patch_4">
    <path d="M 414.72 307.584 
L 414.72 41.472 
" style="fill: none; stroke: #000000; stroke-width: 0.8; stroke-linejoin: miter; stroke-linecap: square"/>
   </g>
   <g id="patch_5">
    <path d="M 57.6 307.584 
L 414.72 307.584 
" style="fill: none; stroke: #000000; stroke-width: 0.8; stroke-linejoin: miter; stroke-linecap: square"/>
   </g>
   <g id="patch_6">
    <path d="M 57.6 41.472 
L 414.72 41.472 
" style="fill: none; stroke: #000000; stroke-width: 0.8; stroke-linejoin: miter; stroke-linecap: square"/>
   </g>
   <g id="text_17">
    <!-- Population's average and best fitness -->
    <g transform="translate(123.529687 35.472) scale(0.12 -0.12)">
     <defs>
      <path id="DejaVuSans-50" d="M 1259 4147 
L 1259 2394 
L 2053 2394 
Q 2494 2394 2734 2622 
Q 2975 2850 2975 3272 
Q 2975 3691 2734 3919 
Q 2494 4147 2053 4147 
L 1259 4147 
z
M 628 4666 
L 2053 4666 
Q 2838 4666 3239 4311 
Q 3641 3956 3641 3272 
Q 3641 2581 3239 2228 
Q 2838 1875 2053 1875 
L 1259 1875 
L 1259 0 
L 628 0 
L 628 4666 
z
" transform="scale(0.015625)"/>
      <path id="DejaVuSans-70" d="M 1159 525 
L 1159 -1331 
L 581 -1331 
L 581 3500 
L 1159 3500 
L 1159 2969 
Q 1341 3281 1617 3432 
Q 1894 3584 2278 3584 
Q 2916 3584 3314 3078 
Q 3713 2572 3713 1747 
Q 3713 922 3314 415 
Q 2916 -91 2278 -91 
Q 1894 -91 1617 61 
Q 1341 213 1159 525 
z
M 3116 1747 
Q 3116 2381 2855 2742 
Q 2594 3103 2138 3103 
Q 1681 3103 1420 2742 
Q 1159 2381 1159 1747 
Q 1159 1113 1420 752 
Q 1681 391 2138 391 
Q 2594 391 2855 752 
Q 3116 1113 3116 1747 
z
" transform="scale(0.015625)"/>
      <path id="DejaVuSans-75" d="M 544 1381 
L 544 3500 
L 1119 3500 
L 1119 1403 
Q 1119 906 1312 657 
Q 1506 409 1894 409 
Q 2359 409 2629 706 
Q 2900 1003 2900 1516 
L 2900 3500 
L 3475 3500 
L 3475 0 
L 2900 0 
L 2900 538 
Q 2691 219 2414 64 
Q 2138 -91 1772 -91 
Q 1169 -91 856 284 
Q 544 659 544 1381 
z
M 1991 3584 
L 1991 3584 
z
" transform="scale(0.015625)"/>
      <path id="DejaVuSans-6c" d="M 603 4863 
L 1178 4863 
L 1178 0 
L 603 0 
L 603 4863 
z
" transform="scale(0.015625)"/>
      <path id="DejaVuSans-27" d="M 1147 4666 
L 1147 2931 
L 616 2931 
L 616 4666 
L 1147 4666 
z
" transform="scale(0.015625)"/>
      <path id="DejaVuSans-20" transform="scale(0.015625)"/>
      <path id="DejaVuSans-76" d="M 191 3500 
L 800 3500 
L 1894 563 
L 2988 3500 
L 3597 3500 
L 2284 0 
L 1503 0 
L 191 3500 
z
" transform="scale(0.015625)"/>
      <path id="DejaVuSans-67" d="M 2906 1791 
Q 2906 2416 2648 2759 
Q 2391 3103 1925 3103 
Q 1463 3103 1205 2759 
Q 947 2416 947 1791 
Q 947 1169 1205 825 
Q 1463 481 1925 481 
Q 2391 481 2648 825 
Q 2906 1169 2906 1791 
z
M 3481 434 
Q 3481 -459 3084 -895 
Q 2688 -1331 1869 -1331 
Q 1566 -1331 1297 -1286 
Q 1028 -1241 775 -1147 
L 775 -588 
Q 1028 -725 1275 -790 
Q 1522 -856 1778 -856 
Q 2344 -856 2625 -561 
Q 2906 -266 2906 331 
L 2906 616 
Q 2728 306 2450 153 
Q 2172 0 1784 0 
Q 1141 0 747 490 
Q 353 981 353 1791 
Q 353 2603 747 3093 
Q 1141 3584 1784 3584 
Q 2172 3584 2450 3431 
Q 2728 3278 2906 2969 
L 2906 3500 
L 3481 3500 
L 3481 434 
z
" transform="scale(0.015625)"/>
      <path id="DejaVuSans-64" d="M 2906 2969 
L 2906 4863 
L 3481 4863 
L 3481 0 
L 2906 0 
L 2906 525 
Q 2725 213 2448 61 
Q 2172 -91 1784 -91 
Q 1150 -91 751 415 
Q 353 922 353 1747 
Q 353 2572 751 3078 
Q 1150 3584 1784 3584 
Q 2172 3584 2448 3432 
Q 2725 3281 2906 2969 
z
M 947 1747 
Q 947 1113 1208 752 
Q 1469 391 1925 391 
Q 2381 391 2643 752 
Q 2906 1113 2906 1747 
Q 2906 2381 2643 2742 
Q 2381 3103 1925 3103 
Q 1469 3103 1208 2742 
Q 947 2381 947 1747 
z
" transform="scale(0.015625)"/>
      <path id="DejaVuSans-62" d="M 3116 1747 
Q 3116 2381 2855 2742 
Q 2594 3103 2138 3103 
Q 1681 3103 1420 2742 
Q 1159 2381 1159 1747 
Q 1159 1113 1420 752 
Q 1681 391 2138 391 
Q 2594 391 2855 752 
Q 3116 1113 3116 1747 
z
M 1159 2969 
Q 1341 3281 1617 3432 
Q 1894 3584 2278 3584 
Q 2916 3584 3314 3078 
Q 3713 2572 3713 1747 
Q 3713 922 3314 415 
Q 2916 -91 2278 -91 
Q 1894 -91 1617 61 
Q 1341 213 1159 525 
L 1159 0 
L 581 0 
L 581 4863 
L 1159 4863 
L 1159 2969 
z
" transform="scale(0.015625)"/>
      <path id="DejaVuSans-66" d="M 2375 4863 
L 2375 4384 
L 1825 4384 
Q 1516 4384 1395 4259 
Q 1275 4134 1275 3809 
L 1275 3500 
L 2222 3500 
L 2222 3053 
L 1275 3053 
L 1275 0 
L 697 0 
L 697 3053 
L 147 3053 
L 147 3500 
L 697 3500 
L 697 3744 
Q 697 4328 969 4595 
Q 1241 4863 1831 4863 
L 2375 4863 
z
" transform="scale(0.015625)"/>
     </defs>
     <use xlink:href="#DejaVuSans-50"/>
     <use xlink:href="#DejaVuSans-6f" x="56.677734"/>
     <use xlink:href="#DejaVuSans-70" x="117.859375"/>
     <use xlink:href="#DejaVuSans-75" x="181.335938"/>
     <use xlink:href="#DejaVuSans-6c" x="244.714844"/>
     <use xlink:href="#DejaVuSans-61" x="272.498047"/>
     <use xlink:href="#DejaVuSans-74" x="333.777344"/>
     <use xlink:href="#DejaVuSans-69" x="372.986328"/>
     <use xlink:href="#DejaVuSans-6f" x="400.769531"/>
     <use xlink:href="#DejaVuSans-6e" x="461.951172"/>
     <use xlink:href="#DejaVuSans-27" x="525.330078"/>
     <use xlink:href="#DejaVuSans-73" x="552.820312"/>
     <use xlink:href="#DejaVuSans-20" x="604.919922"/>
     <use xlink:href="#DejaVuSans-61" x="636.707031"/>
     <use xlink:href="#DejaVuSans-76" x="697.986328"/>
     <use xlink:href="#DejaVuSans-65" x="757.166016"/>
     <use xlink:href="#DejaVuSans-72" x="818.689453"/>
     <use xlink:href="#DejaVuSans-61" x="859.802734"/>
     <use xlink:href="#DejaVuSans-67" x="921.082031"/>
     <use xlink:href="#DejaVuSans-65" x="984.558594"/>
     <use xlink:href="#DejaVuSans-20" x="1046.082031"/>
     <use xlink:href="#DejaVuSans-61" x="1077.869141"/>
     <use xlink:href="#DejaVuSans-6e" x="1139.148438"/>
     <use xlink:href="#DejaVuSans-64" x="1202.527344"/>
     <use xlink:href="#DejaVuSans-20" x="1266.003906"/>
     <use xlink:href="#DejaVuSans-62" x="1297.791016"/>
     <use xlink:href="#DejaVuSans-65" x="1361.267578"/>
     <use xlink:href="#DejaVuSans-73" x="1422.791016"/>
     <use xlink:href="#DejaVuSans-74" x="1474.890625"/>
     <use xlink:href="#DejaVuSans-20" x="1514.099609"/>
     <use xlink:href="#DejaVuSans-66" x="1545.886719"/>
     <use xlink:href="#DejaVuSans-69" x="1581.091797"/>
     <use xlink:href="#DejaVuSans-74" x="1608.875"/>
     <use xlink:href="#DejaVuSans-6e" x="1648.083984"/>
     <use xlink:href="#DejaVuSans-65" x="1711.462891"/>
     <use xlink:href="#DejaVuSans-73" x="1772.986328"/>
     <use xlink:href="#DejaVuSans-73" x="1825.085938"/>
    </g>
   </g>
   <g id="legend_1">
    <g id="patch_7">
     <path d="M 64.6 108.1845 
L 137.540625 108.1845 
Q 139.540625 108.1845 139.540625 106.1845 
L 139.540625 48.472 
Q 139.540625 46.472 137.540625 46.472 
L 64.6 46.472 
Q 62.6 46.472 62.6 48.472 
L 62.6 106.1845 
Q 62.6 108.1845 64.6 108.1845 
z
" style="fill: #ffffff; opacity: 0.8; stroke: #cccccc; stroke-linejoin: miter"/>
    </g>
    <g id="line2d_33">
     <path d="M 66.6 54.570438 
L 76.6 54.570438 
L 86.6 54.570438 
" style="fill: none; stroke: #0000ff; stroke-width: 1.5; stroke-linecap: square"/>
    </g>
    <g id="text_18">
     <!-- average -->
     <g transform="translate(94.6 58.070438) scale(0.1 -0.1)">
      <use xlink:href="#DejaVuSans-61"/>
      <use xlink:href="#DejaVuSans-76" x="61.279297"/>
      <use xlink:href="#DejaVuSans-65" x="120.458984"/>
      <use xlink:href="#DejaVuSans-72" x="181.982422"/>
      <use xlink:href="#DejaVuSans-61" x="223.095703"/>
      <use xlink:href="#DejaVuSans-67" x="284.375"/>
      <use xlink:href="#DejaVuSans-65" x="347.851562"/>
     </g>
    </g>
    <g id="line2d_34">
     <path d="M 66.6 69.248563 
L 76.6 69.248563 
L 86.6 69.248563 
" style="fill: none; stroke-dasharray: 9.6,2.4,1.5,2.4; stroke-dashoffset: 0; stroke: #008000; stroke-width: 1.5"/>
    </g>
    <g id="text_19">
     <!-- -1 sd -->
     <g transform="translate(94.6 72.748563) scale(0.1 -0.1)">
      <defs>
       <path id="DejaVuSans-2d" d="M 313 2009 
L 1997 2009 
L 1997 1497 
L 313 1497 
L 313 2009 
z
" transform="scale(0.015625)"/>
      </defs>
      <use xlink:href="#DejaVuSans-2d"/>
      <use xlink:href="#DejaVuSans-31" x="36.083984"/>
      <use xlink:href="#DejaVuSans-20" x="99.707031"/>
      <use xlink:href="#DejaVuSans-73" x="131.494141"/>
      <use xlink:href="#DejaVuSans-64" x="183.59375"/>
     </g>
    </g>
    <g id="line2d_35">
     <path d="M 66.6 83.926688 
L 76.6 83.926688 
L 86.6 83.926688 
" style="fill: none; stroke-dasharray: 9.6,2.4,1.5,2.4; stroke-dashoffset: 0; stroke: #008000; stroke-width: 1.5"/>
    </g>
    <g id="text_20">
     <!-- +1 sd -->
     <g transform="translate(94.6 87.426688) scale(0.1 -0.1)">
      <defs>
       <path id="DejaVuSans-2b" d="M 2944 4013 
L 2944 2272 
L 4684 2272 
L 4684 1741 
L 2944 1741 
L 2944 0 
L 2419 0 
L 2419 1741 
L 678 1741 
L 678 2272 
L 2419 2272 
L 2419 4013 
L 2944 4013 
z
" transform="scale(0.015625)"/>
      </defs>
      <use xlink:href="#DejaVuSans-2b"/>
      <use xlink:href="#DejaVuSans-31" x="83.789062"/>
      <use xlink:href="#DejaVuSans-20" x="147.412109"/>
      <use xlink:href="#DejaVuSans-73" x="179.199219"/>
      <use xlink:href="#DejaVuSans-64" x="231.298828"/>
     </g>
    </g>
    <g id="line2d_36">
     <path d="M 66.6 98.604813 
L 76.6 98.604813 
L 86.6 98.604813 
" style="fill: none; stroke: #ff0000; stroke-width: 1.5; stroke-linecap: square"/>
    </g>
    <g id="text_21">
     <!-- best -->
     <g transform="translate(94.6 102.104813) scale(0.1 -0.1)">
      <use xlink:href="#DejaVuSans-62"/>
      <use xlink:href="#DejaVuSans-65" x="63.476562"/>
      <use xlink:href="#DejaVuSans-73" x="125"/>
      <use xlink:href="#DejaVuSans-74" x="177.099609"/>
     </g>
    </g>
   </g>
  </g>
 </g>
 <defs>
  <clipPath id="pff32ad8983">
   <rect x="57.6" y="41.472" width="357.12" height="266.112"/>
  </clipPath>
 </defs>
</svg>
