<?xml version="1.0" encoding="UTF-8" standalone="no"?>
<!DOCTYPE svg PUBLIC "-//W3C//DTD SVG 1.1//EN"
 "http://www.w3.org/Graphics/SVG/1.1/DTD/svg11.dtd">
<!-- Generated by graphviz version 9.0.0 (20230911.1827)
 -->
<!-- Pages: 1 -->
<svg width="222pt" height="313pt"
 viewBox="0.00 0.00 222.40 313.44" xmlns="http://www.w3.org/2000/svg" xmlns:xlink="http://www.w3.org/1999/xlink">
<g id="graph0" class="graph" transform="scale(1 1) rotate(0) translate(4 309.44)">
<polygon fill="white" stroke="none" points="-4,4 -4,-309.44 218.4,-309.44 218.4,4 -4,4"/>
<!-- A -->
<g id="node1" class="node">
<title>A</title>
<polygon fill="lightgray" stroke="black" points="26.78,-235.77 4.03,-235.77 4.03,-216.52 26.78,-216.52 26.78,-235.77"/>
<text text-anchor="middle" x="15.4" y="-223.22" font-family="Times New Roman,serif" font-size="9.00">A</text>
</g>
<!-- OUTPUT -->
<g id="node5" class="node">
<title>OUTPUT</title>
<ellipse fill="lightblue" stroke="black" cx="69.4" cy="-37.83" rx="37.83" ry="37.83"/>
<text text-anchor="middle" x="69.4" y="-34.91" font-family="Times New Roman,serif" font-size="9.00">OUTPUT</text>
</g>
<!-- A&#45;&gt;OUTPUT -->
<g id="edge1" class="edge">
<title>A&#45;&gt;OUTPUT</title>
<path fill="none" stroke="red" stroke-width="0.17" stroke-dasharray="1,5" d="M12.22,-216.26C5.73,-196.65 -7.33,-148.52 6.4,-111.66 12.1,-96.37 22.61,-82.15 33.44,-70.41"/>
<polygon fill="red" stroke="red" stroke-width="0.17" points="35.93,-72.87 40.37,-63.25 30.9,-68 35.93,-72.87"/>
</g>
<!-- 10521 -->
<g id="node6" class="node">
<title>10521</title>
<ellipse fill="white" stroke="black" cx="42.4" cy="-138.88" rx="27.22" ry="27.22"/>
<text text-anchor="middle" x="42.4" y="-135.96" font-family="Times New Roman,serif" font-size="9.00">10521</text>
</g>
<!-- A&#45;&gt;10521 -->
<g id="edge7" class="edge">
<title>A&#45;&gt;10521</title>
<path fill="none" stroke="green" stroke-width="0.19" d="M18.29,-216.02C21.42,-206.16 26.59,-189.82 31.34,-174.8"/>
<polygon fill="green" stroke="green" stroke-width="0.19" points="34.61,-176.08 34.29,-165.49 27.94,-173.96 34.61,-176.08"/>
</g>
<!-- B -->
<g id="node2" class="node">
<title>B</title>
<polygon fill="lightgray" stroke="black" points="174.4,-305.44 152.4,-305.44 152.4,-286.19 174.4,-286.19 174.4,-305.44"/>
<text text-anchor="middle" x="163.4" y="-292.89" font-family="Times New Roman,serif" font-size="9.00">B</text>
</g>
<!-- C -->
<g id="node3" class="node">
<title>C</title>
<polygon fill="lightgray" stroke="black" points="214.4,-305.44 192.4,-305.44 192.4,-286.19 214.4,-286.19 214.4,-305.44"/>
<text text-anchor="middle" x="203.4" y="-292.89" font-family="Times New Roman,serif" font-size="9.00">C</text>
</g>
<!-- D -->
<g id="node4" class="node">
<title>D</title>
<polygon fill="lightgray" stroke="black" points="134.78,-305.44 112.03,-305.44 112.03,-286.19 134.78,-286.19 134.78,-305.44"/>
<text text-anchor="middle" x="123.4" y="-292.89" font-family="Times New Roman,serif" font-size="9.00">D</text>
</g>
<!-- 2850 -->
<g id="node7" class="node">
<title>2850</title>
<ellipse fill="white" stroke="black" cx="123.4" cy="-226.15" rx="24.04" ry="24.04"/>
<text text-anchor="middle" x="123.4" y="-223.22" font-family="Times New Roman,serif" font-size="9.00">2850</text>
</g>
<!-- D&#45;&gt;2850 -->
<g id="edge2" class="edge">
<title>D&#45;&gt;2850</title>
<path fill="none" stroke="green" stroke-width="0.1" d="M123.4,-285.97C123.4,-279.39 123.4,-269.97 123.4,-260.59"/>
<polygon fill="green" stroke="green" stroke-width="0.1" points="126.9,-260.71 123.4,-250.71 119.9,-260.71 126.9,-260.71"/>
</g>
<!-- 10521&#45;&gt;OUTPUT -->
<g id="edge8" class="edge">
<title>10521&#45;&gt;OUTPUT</title>
<path fill="none" stroke="red" stroke-width="0.31" d="M49.43,-112.12C51.74,-103.61 54.4,-93.87 57,-84.34"/>
<polygon fill="red" stroke="red" stroke-width="0.31" points="60.29,-85.56 59.55,-74.99 53.54,-83.71 60.29,-85.56"/>
</g>
<!-- 2850&#45;&gt;OUTPUT -->
<g id="edge3" class="edge">
<title>2850&#45;&gt;OUTPUT</title>
<path fill="none" stroke="green" stroke-width="1.2" d="M116.89,-202.67C108.52,-173.82 93.8,-123.01 82.96,-85.6"/>
<polygon fill="green" stroke="green" stroke-width="1.2" points="86.38,-84.84 80.23,-76.21 79.66,-86.78 86.38,-84.84"/>
</g>
<!-- 2850&#45;&gt;2850 -->
<g id="edge6" class="edge">
<title>2850&#45;&gt;2850</title>
<path fill="none" stroke="green" stroke-width="0.4" d="M144.17,-238.67C155.3,-240.8 165.44,-236.63 165.44,-226.15 165.44,-219.11 160.86,-214.92 154.48,-213.57"/>
<polygon fill="green" stroke="green" stroke-width="0.4" points="154.75,-210.06 144.77,-213.62 154.79,-217.06 154.75,-210.06"/>
</g>
<!-- 3784 -->
<g id="node8" class="node">
<title>3784</title>
<ellipse fill="white" stroke="black" cx="149.4" cy="-138.88" rx="24.04" ry="24.04"/>
<text text-anchor="middle" x="149.4" y="-135.96" font-family="Times New Roman,serif" font-size="9.00">3784</text>
</g>
<!-- 2850&#45;&gt;3784 -->
<g id="edge4" class="edge">
<title>2850&#45;&gt;3784</title>
<path fill="none" stroke="green" stroke-width="1.04" d="M130.23,-202.75C132.99,-193.71 136.22,-183.1 139.24,-173.2"/>
<polygon fill="green" stroke="green" stroke-width="1.04" points="142.5,-174.52 142.07,-163.93 135.8,-172.48 142.5,-174.52"/>
</g>
<!-- 3784&#45;&gt;OUTPUT -->
<g id="edge5" class="edge">
<title>3784&#45;&gt;OUTPUT</title>
<path fill="none" stroke="green" stroke-width="1.61" d="M134.73,-119.72C125.11,-107.8 112.17,-91.78 100.34,-77.14"/>
<polygon fill="green" stroke="green" stroke-width="1.61" points="103.31,-75.25 94.31,-69.67 97.87,-79.65 103.31,-75.25"/>
</g>
</g>
</svg>
