<?xml version="1.0" encoding="utf-8" standalone="no"?>
<!DOCTYPE svg PUBLIC "-//W3C//DTD SVG 1.1//EN"
  "http://www.w3.org/Graphics/SVG/1.1/DTD/svg11.dtd">
<svg xmlns:xlink="http://www.w3.org/1999/xlink" width="460.8pt" height="345.6pt" viewBox="0 0 460.8 345.6" xmlns="http://www.w3.org/2000/svg" version="1.1">
 <metadata>
  <rdf:RDF xmlns:dc="http://purl.org/dc/elements/1.1/" xmlns:cc="http://creativecommons.org/ns#" xmlns:rdf="http://www.w3.org/1999/02/22-rdf-syntax-ns#">
   <cc:Work>
    <dc:type rdf:resource="http://purl.org/dc/dcmitype/StillImage"/>
    <dc:date>2023-12-18T23:33:07.061831</dc:date>
    <dc:format>image/svg+xml</dc:format>
    <dc:creator>
     <cc:Agent>
      <dc:title>Matplotlib v3.6.3, https://matplotlib.org/</dc:title>
     </cc:Agent>
    </dc:creator>
   </cc:Work>
  </rdf:RDF>
 </metadata>
 <defs>
  <style type="text/css">*{stroke-linejoin: round; stroke-linecap: butt}</style>
 </defs>
 <g id="figure_1">
  <g id="patch_1">
   <path d="M 0 345.6 
L 460.8 345.6 
L 460.8 0 
L 0 0 
z
" style="fill: #ffffff"/>
  </g>
  <g id="axes_1">
   <g id="patch_2">
    <path d="M 57.6 307.584 
L 414.72 307.584 
L 414.72 41.472 
L 57.6 41.472 
z
" style="fill: #ffffff"/>
   </g>
   <g id="matplotlib.axis_1">
    <g id="xtick_1">
     <g id="line2d_1">
      <path d="M 73.832727 307.584 
L 73.832727 41.472 
" clip-path="url(#p2f25219287)" style="fill: none; stroke: #b0b0b0; stroke-width: 0.8; stroke-linecap: square"/>
     </g>
     <g id="line2d_2">
      <defs>
       <path id="m64690b6527" d="M 0 0 
L 0 3.5 
" style="stroke: #000000; stroke-width: 0.8"/>
      </defs>
      <g>
       <use xlink:href="#m64690b6527" x="73.832727" y="307.584" style="stroke: #000000; stroke-width: 0.8"/>
      </g>
     </g>
     <g id="text_1">
      <!-- 0 -->
      <g transform="translate(70.651477 322.182437) scale(0.1 -0.1)">
       <defs>
        <path id="DejaVuSans-30" d="M 2034 4250 
Q 1547 4250 1301 3770 
Q 1056 3291 1056 2328 
Q 1056 1369 1301 889 
Q 1547 409 2034 409 
Q 2525 409 2770 889 
Q 3016 1369 3016 2328 
Q 3016 3291 2770 3770 
Q 2525 4250 2034 4250 
z
M 2034 4750 
Q 2819 4750 3233 4129 
Q 3647 3509 3647 2328 
Q 3647 1150 3233 529 
Q 2819 -91 2034 -91 
Q 1250 -91 836 529 
Q 422 1150 422 2328 
Q 422 3509 836 4129 
Q 1250 4750 2034 4750 
z
" transform="scale(0.015625)"/>
       </defs>
       <use xlink:href="#DejaVuSans-30"/>
      </g>
     </g>
    </g>
    <g id="xtick_2">
     <g id="line2d_3">
      <path d="M 128.122785 307.584 
L 128.122785 41.472 
" clip-path="url(#p2f25219287)" style="fill: none; stroke: #b0b0b0; stroke-width: 0.8; stroke-linecap: square"/>
     </g>
     <g id="line2d_4">
      <g>
       <use xlink:href="#m64690b6527" x="128.122785" y="307.584" style="stroke: #000000; stroke-width: 0.8"/>
      </g>
     </g>
     <g id="text_2">
      <!-- 50 -->
      <g transform="translate(121.760285 322.182437) scale(0.1 -0.1)">
       <defs>
        <path id="DejaVuSans-35" d="M 691 4666 
L 3169 4666 
L 3169 4134 
L 1269 4134 
L 1269 2991 
Q 1406 3038 1543 3061 
Q 1681 3084 1819 3084 
Q 2600 3084 3056 2656 
Q 3513 2228 3513 1497 
Q 3513 744 3044 326 
Q 2575 -91 1722 -91 
Q 1428 -91 1123 -41 
Q 819 9 494 109 
L 494 744 
Q 775 591 1075 516 
Q 1375 441 1709 441 
Q 2250 441 2565 725 
Q 2881 1009 2881 1497 
Q 2881 1984 2565 2268 
Q 2250 2553 1709 2553 
Q 1456 2553 1204 2497 
Q 953 2441 691 2322 
L 691 4666 
z
" transform="scale(0.015625)"/>
       </defs>
       <use xlink:href="#DejaVuSans-35"/>
       <use xlink:href="#DejaVuSans-30" x="63.623047"/>
      </g>
     </g>
    </g>
    <g id="xtick_3">
     <g id="line2d_5">
      <path d="M 182.412843 307.584 
L 182.412843 41.472 
" clip-path="url(#p2f25219287)" style="fill: none; stroke: #b0b0b0; stroke-width: 0.8; stroke-linecap: square"/>
     </g>
     <g id="line2d_6">
      <g>
       <use xlink:href="#m64690b6527" x="182.412843" y="307.584" style="stroke: #000000; stroke-width: 0.8"/>
      </g>
     </g>
     <g id="text_3">
      <!-- 100 -->
      <g transform="translate(172.869093 322.182437) scale(0.1 -0.1)">
       <defs>
        <path id="DejaVuSans-31" d="M 794 531 
L 1825 531 
L 1825 4091 
L 703 3866 
L 703 4441 
L 1819 4666 
L 2450 4666 
L 2450 531 
L 3481 531 
L 3481 0 
L 794 0 
L 794 531 
z
" transform="scale(0.015625)"/>
       </defs>
       <use xlink:href="#DejaVuSans-31"/>
       <use xlink:href="#DejaVuSans-30" x="63.623047"/>
       <use xlink:href="#DejaVuSans-30" x="127.246094"/>
      </g>
     </g>
    </g>
    <g id="xtick_4">
     <g id="line2d_7">
      <path d="M 236.702901 307.584 
L 236.702901 41.472 
" clip-path="url(#p2f25219287)" style="fill: none; stroke: #b0b0b0; stroke-width: 0.8; stroke-linecap: square"/>
     </g>
     <g id="line2d_8">
      <g>
       <use xlink:href="#m64690b6527" x="236.702901" y="307.584" style="stroke: #000000; stroke-width: 0.8"/>
      </g>
     </g>
     <g id="text_4">
      <!-- 150 -->
      <g transform="translate(227.159151 322.182437) scale(0.1 -0.1)">
       <use xlink:href="#DejaVuSans-31"/>
       <use xlink:href="#DejaVuSans-35" x="63.623047"/>
       <use xlink:href="#DejaVuSans-30" x="127.246094"/>
      </g>
     </g>
    </g>
    <g id="xtick_5">
     <g id="line2d_9">
      <path d="M 290.992958 307.584 
L 290.992958 41.472 
" clip-path="url(#p2f25219287)" style="fill: none; stroke: #b0b0b0; stroke-width: 0.8; stroke-linecap: square"/>
     </g>
     <g id="line2d_10">
      <g>
       <use xlink:href="#m64690b6527" x="290.992958" y="307.584" style="stroke: #000000; stroke-width: 0.8"/>
      </g>
     </g>
     <g id="text_5">
      <!-- 200 -->
      <g transform="translate(281.449208 322.182437) scale(0.1 -0.1)">
       <defs>
        <path id="DejaVuSans-32" d="M 1228 531 
L 3431 531 
L 3431 0 
L 469 0 
L 469 531 
Q 828 903 1448 1529 
Q 2069 2156 2228 2338 
Q 2531 2678 2651 2914 
Q 2772 3150 2772 3378 
Q 2772 3750 2511 3984 
Q 2250 4219 1831 4219 
Q 1534 4219 1204 4116 
Q 875 4013 500 3803 
L 500 4441 
Q 881 4594 1212 4672 
Q 1544 4750 1819 4750 
Q 2544 4750 2975 4387 
Q 3406 4025 3406 3419 
Q 3406 3131 3298 2873 
Q 3191 2616 2906 2266 
Q 2828 2175 2409 1742 
Q 1991 1309 1228 531 
z
" transform="scale(0.015625)"/>
       </defs>
       <use xlink:href="#DejaVuSans-32"/>
       <use xlink:href="#DejaVuSans-30" x="63.623047"/>
       <use xlink:href="#DejaVuSans-30" x="127.246094"/>
      </g>
     </g>
    </g>
    <g id="xtick_6">
     <g id="line2d_11">
      <path d="M 345.283016 307.584 
L 345.283016 41.472 
" clip-path="url(#p2f25219287)" style="fill: none; stroke: #b0b0b0; stroke-width: 0.8; stroke-linecap: square"/>
     </g>
     <g id="line2d_12">
      <g>
       <use xlink:href="#m64690b6527" x="345.283016" y="307.584" style="stroke: #000000; stroke-width: 0.8"/>
      </g>
     </g>
     <g id="text_6">
      <!-- 250 -->
      <g transform="translate(335.739266 322.182437) scale(0.1 -0.1)">
       <use xlink:href="#DejaVuSans-32"/>
       <use xlink:href="#DejaVuSans-35" x="63.623047"/>
       <use xlink:href="#DejaVuSans-30" x="127.246094"/>
      </g>
     </g>
    </g>
    <g id="xtick_7">
     <g id="line2d_13">
      <path d="M 399.573074 307.584 
L 399.573074 41.472 
" clip-path="url(#p2f25219287)" style="fill: none; stroke: #b0b0b0; stroke-width: 0.8; stroke-linecap: square"/>
     </g>
     <g id="line2d_14">
      <g>
       <use xlink:href="#m64690b6527" x="399.573074" y="307.584" style="stroke: #000000; stroke-width: 0.8"/>
      </g>
     </g>
     <g id="text_7">
      <!-- 300 -->
      <g transform="translate(390.029324 322.182437) scale(0.1 -0.1)">
       <defs>
        <path id="DejaVuSans-33" d="M 2597 2516 
Q 3050 2419 3304 2112 
Q 3559 1806 3559 1356 
Q 3559 666 3084 287 
Q 2609 -91 1734 -91 
Q 1441 -91 1130 -33 
Q 819 25 488 141 
L 488 750 
Q 750 597 1062 519 
Q 1375 441 1716 441 
Q 2309 441 2620 675 
Q 2931 909 2931 1356 
Q 2931 1769 2642 2001 
Q 2353 2234 1838 2234 
L 1294 2234 
L 1294 2753 
L 1863 2753 
Q 2328 2753 2575 2939 
Q 2822 3125 2822 3475 
Q 2822 3834 2567 4026 
Q 2313 4219 1838 4219 
Q 1578 4219 1281 4162 
Q 984 4106 628 3988 
L 628 4550 
Q 988 4650 1302 4700 
Q 1616 4750 1894 4750 
Q 2613 4750 3031 4423 
Q 3450 4097 3450 3541 
Q 3450 3153 3228 2886 
Q 3006 2619 2597 2516 
z
" transform="scale(0.015625)"/>
       </defs>
       <use xlink:href="#DejaVuSans-33"/>
       <use xlink:href="#DejaVuSans-30" x="63.623047"/>
       <use xlink:href="#DejaVuSans-30" x="127.246094"/>
      </g>
     </g>
    </g>
    <g id="text_8">
     <!-- Generations -->
     <g transform="translate(205.662344 335.860562) scale(0.1 -0.1)">
      <defs>
       <path id="DejaVuSans-47" d="M 3809 666 
L 3809 1919 
L 2778 1919 
L 2778 2438 
L 4434 2438 
L 4434 434 
Q 4069 175 3628 42 
Q 3188 -91 2688 -91 
Q 1594 -91 976 548 
Q 359 1188 359 2328 
Q 359 3472 976 4111 
Q 1594 4750 2688 4750 
Q 3144 4750 3555 4637 
Q 3966 4525 4313 4306 
L 4313 3634 
Q 3963 3931 3569 4081 
Q 3175 4231 2741 4231 
Q 1884 4231 1454 3753 
Q 1025 3275 1025 2328 
Q 1025 1384 1454 906 
Q 1884 428 2741 428 
Q 3075 428 3337 486 
Q 3600 544 3809 666 
z
" transform="scale(0.015625)"/>
       <path id="DejaVuSans-65" d="M 3597 1894 
L 3597 1613 
L 953 1613 
Q 991 1019 1311 708 
Q 1631 397 2203 397 
Q 2534 397 2845 478 
Q 3156 559 3463 722 
L 3463 178 
Q 3153 47 2828 -22 
Q 2503 -91 2169 -91 
Q 1331 -91 842 396 
Q 353 884 353 1716 
Q 353 2575 817 3079 
Q 1281 3584 2069 3584 
Q 2775 3584 3186 3129 
Q 3597 2675 3597 1894 
z
M 3022 2063 
Q 3016 2534 2758 2815 
Q 2500 3097 2075 3097 
Q 1594 3097 1305 2825 
Q 1016 2553 972 2059 
L 3022 2063 
z
" transform="scale(0.015625)"/>
       <path id="DejaVuSans-6e" d="M 3513 2113 
L 3513 0 
L 2938 0 
L 2938 2094 
Q 2938 2591 2744 2837 
Q 2550 3084 2163 3084 
Q 1697 3084 1428 2787 
Q 1159 2491 1159 1978 
L 1159 0 
L 581 0 
L 581 3500 
L 1159 3500 
L 1159 2956 
Q 1366 3272 1645 3428 
Q 1925 3584 2291 3584 
Q 2894 3584 3203 3211 
Q 3513 2838 3513 2113 
z
" transform="scale(0.015625)"/>
       <path id="DejaVuSans-72" d="M 2631 2963 
Q 2534 3019 2420 3045 
Q 2306 3072 2169 3072 
Q 1681 3072 1420 2755 
Q 1159 2438 1159 1844 
L 1159 0 
L 581 0 
L 581 3500 
L 1159 3500 
L 1159 2956 
Q 1341 3275 1631 3429 
Q 1922 3584 2338 3584 
Q 2397 3584 2469 3576 
Q 2541 3569 2628 3553 
L 2631 2963 
z
" transform="scale(0.015625)"/>
       <path id="DejaVuSans-61" d="M 2194 1759 
Q 1497 1759 1228 1600 
Q 959 1441 959 1056 
Q 959 750 1161 570 
Q 1363 391 1709 391 
Q 2188 391 2477 730 
Q 2766 1069 2766 1631 
L 2766 1759 
L 2194 1759 
z
M 3341 1997 
L 3341 0 
L 2766 0 
L 2766 531 
Q 2569 213 2275 61 
Q 1981 -91 1556 -91 
Q 1019 -91 701 211 
Q 384 513 384 1019 
Q 384 1609 779 1909 
Q 1175 2209 1959 2209 
L 2766 2209 
L 2766 2266 
Q 2766 2663 2505 2880 
Q 2244 3097 1772 3097 
Q 1472 3097 1187 3025 
Q 903 2953 641 2809 
L 641 3341 
Q 956 3463 1253 3523 
Q 1550 3584 1831 3584 
Q 2591 3584 2966 3190 
Q 3341 2797 3341 1997 
z
" transform="scale(0.015625)"/>
       <path id="DejaVuSans-74" d="M 1172 4494 
L 1172 3500 
L 2356 3500 
L 2356 3053 
L 1172 3053 
L 1172 1153 
Q 1172 725 1289 603 
Q 1406 481 1766 481 
L 2356 481 
L 2356 0 
L 1766 0 
Q 1100 0 847 248 
Q 594 497 594 1153 
L 594 3053 
L 172 3053 
L 172 3500 
L 594 3500 
L 594 4494 
L 1172 4494 
z
" transform="scale(0.015625)"/>
       <path id="DejaVuSans-69" d="M 603 3500 
L 1178 3500 
L 1178 0 
L 603 0 
L 603 3500 
z
M 603 4863 
L 1178 4863 
L 1178 4134 
L 603 4134 
L 603 4863 
z
" transform="scale(0.015625)"/>
       <path id="DejaVuSans-6f" d="M 1959 3097 
Q 1497 3097 1228 2736 
Q 959 2375 959 1747 
Q 959 1119 1226 758 
Q 1494 397 1959 397 
Q 2419 397 2687 759 
Q 2956 1122 2956 1747 
Q 2956 2369 2687 2733 
Q 2419 3097 1959 3097 
z
M 1959 3584 
Q 2709 3584 3137 3096 
Q 3566 2609 3566 1747 
Q 3566 888 3137 398 
Q 2709 -91 1959 -91 
Q 1206 -91 779 398 
Q 353 888 353 1747 
Q 353 2609 779 3096 
Q 1206 3584 1959 3584 
z
" transform="scale(0.015625)"/>
       <path id="DejaVuSans-73" d="M 2834 3397 
L 2834 2853 
Q 2591 2978 2328 3040 
Q 2066 3103 1784 3103 
Q 1356 3103 1142 2972 
Q 928 2841 928 2578 
Q 928 2378 1081 2264 
Q 1234 2150 1697 2047 
L 1894 2003 
Q 2506 1872 2764 1633 
Q 3022 1394 3022 966 
Q 3022 478 2636 193 
Q 2250 -91 1575 -91 
Q 1294 -91 989 -36 
Q 684 19 347 128 
L 347 722 
Q 666 556 975 473 
Q 1284 391 1588 391 
Q 1994 391 2212 530 
Q 2431 669 2431 922 
Q 2431 1156 2273 1281 
Q 2116 1406 1581 1522 
L 1381 1569 
Q 847 1681 609 1914 
Q 372 2147 372 2553 
Q 372 3047 722 3315 
Q 1072 3584 1716 3584 
Q 2034 3584 2315 3537 
Q 2597 3491 2834 3397 
z
" transform="scale(0.015625)"/>
      </defs>
      <use xlink:href="#DejaVuSans-47"/>
      <use xlink:href="#DejaVuSans-65" x="77.490234"/>
      <use xlink:href="#DejaVuSans-6e" x="139.013672"/>
      <use xlink:href="#DejaVuSans-65" x="202.392578"/>
      <use xlink:href="#DejaVuSans-72" x="263.916016"/>
      <use xlink:href="#DejaVuSans-61" x="305.029297"/>
      <use xlink:href="#DejaVuSans-74" x="366.308594"/>
      <use xlink:href="#DejaVuSans-69" x="405.517578"/>
      <use xlink:href="#DejaVuSans-6f" x="433.300781"/>
      <use xlink:href="#DejaVuSans-6e" x="494.482422"/>
      <use xlink:href="#DejaVuSans-73" x="557.861328"/>
     </g>
    </g>
   </g>
   <g id="matplotlib.axis_2">
    <g id="ytick_1">
     <g id="line2d_15">
      <path d="M 57.6 274.083587 
L 414.72 274.083587 
" clip-path="url(#p2f25219287)" style="fill: none; stroke: #b0b0b0; stroke-width: 0.8; stroke-linecap: square"/>
     </g>
     <g id="line2d_16">
      <defs>
       <path id="m985f138db5" d="M 0 0 
L -3.5 0 
" style="stroke: #000000; stroke-width: 0.8"/>
      </defs>
      <g>
       <use xlink:href="#m985f138db5" x="57.6" y="274.083587" style="stroke: #000000; stroke-width: 0.8"/>
      </g>
     </g>
     <g id="text_9">
      <!-- −18.0 -->
      <g transform="translate(19.954687 277.882806) scale(0.1 -0.1)">
       <defs>
        <path id="DejaVuSans-2212" d="M 678 2272 
L 4684 2272 
L 4684 1741 
L 678 1741 
L 678 2272 
z
" transform="scale(0.015625)"/>
        <path id="DejaVuSans-38" d="M 2034 2216 
Q 1584 2216 1326 1975 
Q 1069 1734 1069 1313 
Q 1069 891 1326 650 
Q 1584 409 2034 409 
Q 2484 409 2743 651 
Q 3003 894 3003 1313 
Q 3003 1734 2745 1975 
Q 2488 2216 2034 2216 
z
M 1403 2484 
Q 997 2584 770 2862 
Q 544 3141 544 3541 
Q 544 4100 942 4425 
Q 1341 4750 2034 4750 
Q 2731 4750 3128 4425 
Q 3525 4100 3525 3541 
Q 3525 3141 3298 2862 
Q 3072 2584 2669 2484 
Q 3125 2378 3379 2068 
Q 3634 1759 3634 1313 
Q 3634 634 3220 271 
Q 2806 -91 2034 -91 
Q 1263 -91 848 271 
Q 434 634 434 1313 
Q 434 1759 690 2068 
Q 947 2378 1403 2484 
z
M 1172 3481 
Q 1172 3119 1398 2916 
Q 1625 2713 2034 2713 
Q 2441 2713 2670 2916 
Q 2900 3119 2900 3481 
Q 2900 3844 2670 4047 
Q 2441 4250 2034 4250 
Q 1625 4250 1398 4047 
Q 1172 3844 1172 3481 
z
" transform="scale(0.015625)"/>
        <path id="DejaVuSans-2e" d="M 684 794 
L 1344 794 
L 1344 0 
L 684 0 
L 684 794 
z
" transform="scale(0.015625)"/>
       </defs>
       <use xlink:href="#DejaVuSans-2212"/>
       <use xlink:href="#DejaVuSans-31" x="83.789062"/>
       <use xlink:href="#DejaVuSans-38" x="147.412109"/>
       <use xlink:href="#DejaVuSans-2e" x="211.035156"/>
       <use xlink:href="#DejaVuSans-30" x="242.822266"/>
      </g>
     </g>
    </g>
    <g id="ytick_2">
     <g id="line2d_17">
      <path d="M 57.6 225.147628 
L 414.72 225.147628 
" clip-path="url(#p2f25219287)" style="fill: none; stroke: #b0b0b0; stroke-width: 0.8; stroke-linecap: square"/>
     </g>
     <g id="line2d_18">
      <g>
       <use xlink:href="#m985f138db5" x="57.6" y="225.147628" style="stroke: #000000; stroke-width: 0.8"/>
      </g>
     </g>
     <g id="text_10">
      <!-- −17.5 -->
      <g transform="translate(19.954687 228.946846) scale(0.1 -0.1)">
       <defs>
        <path id="DejaVuSans-37" d="M 525 4666 
L 3525 4666 
L 3525 4397 
L 1831 0 
L 1172 0 
L 2766 4134 
L 525 4134 
L 525 4666 
z
" transform="scale(0.015625)"/>
       </defs>
       <use xlink:href="#DejaVuSans-2212"/>
       <use xlink:href="#DejaVuSans-31" x="83.789062"/>
       <use xlink:href="#DejaVuSans-37" x="147.412109"/>
       <use xlink:href="#DejaVuSans-2e" x="211.035156"/>
       <use xlink:href="#DejaVuSans-35" x="242.822266"/>
      </g>
     </g>
    </g>
    <g id="ytick_3">
     <g id="line2d_19">
      <path d="M 57.6 176.211668 
L 414.72 176.211668 
" clip-path="url(#p2f25219287)" style="fill: none; stroke: #b0b0b0; stroke-width: 0.8; stroke-linecap: square"/>
     </g>
     <g id="line2d_20">
      <g>
       <use xlink:href="#m985f138db5" x="57.6" y="176.211668" style="stroke: #000000; stroke-width: 0.8"/>
      </g>
     </g>
     <g id="text_11">
      <!-- −17.0 -->
      <g transform="translate(19.954687 180.010887) scale(0.1 -0.1)">
       <use xlink:href="#DejaVuSans-2212"/>
       <use xlink:href="#DejaVuSans-31" x="83.789062"/>
       <use xlink:href="#DejaVuSans-37" x="147.412109"/>
       <use xlink:href="#DejaVuSans-2e" x="211.035156"/>
       <use xlink:href="#DejaVuSans-30" x="242.822266"/>
      </g>
     </g>
    </g>
    <g id="ytick_4">
     <g id="line2d_21">
      <path d="M 57.6 127.275709 
L 414.72 127.275709 
" clip-path="url(#p2f25219287)" style="fill: none; stroke: #b0b0b0; stroke-width: 0.8; stroke-linecap: square"/>
     </g>
     <g id="line2d_22">
      <g>
       <use xlink:href="#m985f138db5" x="57.6" y="127.275709" style="stroke: #000000; stroke-width: 0.8"/>
      </g>
     </g>
     <g id="text_12">
      <!-- −16.5 -->
      <g transform="translate(19.954687 131.074927) scale(0.1 -0.1)">
       <defs>
        <path id="DejaVuSans-36" d="M 2113 2584 
Q 1688 2584 1439 2293 
Q 1191 2003 1191 1497 
Q 1191 994 1439 701 
Q 1688 409 2113 409 
Q 2538 409 2786 701 
Q 3034 994 3034 1497 
Q 3034 2003 2786 2293 
Q 2538 2584 2113 2584 
z
M 3366 4563 
L 3366 3988 
Q 3128 4100 2886 4159 
Q 2644 4219 2406 4219 
Q 1781 4219 1451 3797 
Q 1122 3375 1075 2522 
Q 1259 2794 1537 2939 
Q 1816 3084 2150 3084 
Q 2853 3084 3261 2657 
Q 3669 2231 3669 1497 
Q 3669 778 3244 343 
Q 2819 -91 2113 -91 
Q 1303 -91 875 529 
Q 447 1150 447 2328 
Q 447 3434 972 4092 
Q 1497 4750 2381 4750 
Q 2619 4750 2861 4703 
Q 3103 4656 3366 4563 
z
" transform="scale(0.015625)"/>
       </defs>
       <use xlink:href="#DejaVuSans-2212"/>
       <use xlink:href="#DejaVuSans-31" x="83.789062"/>
       <use xlink:href="#DejaVuSans-36" x="147.412109"/>
       <use xlink:href="#DejaVuSans-2e" x="211.035156"/>
       <use xlink:href="#DejaVuSans-35" x="242.822266"/>
      </g>
     </g>
    </g>
    <g id="ytick_5">
     <g id="line2d_23">
      <path d="M 57.6 78.339749 
L 414.72 78.339749 
" clip-path="url(#p2f25219287)" style="fill: none; stroke: #b0b0b0; stroke-width: 0.8; stroke-linecap: square"/>
     </g>
     <g id="line2d_24">
      <g>
       <use xlink:href="#m985f138db5" x="57.6" y="78.339749" style="stroke: #000000; stroke-width: 0.8"/>
      </g>
     </g>
     <g id="text_13">
      <!-- −16.0 -->
      <g transform="translate(19.954687 82.138968) scale(0.1 -0.1)">
       <use xlink:href="#DejaVuSans-2212"/>
       <use xlink:href="#DejaVuSans-31" x="83.789062"/>
       <use xlink:href="#DejaVuSans-36" x="147.412109"/>
       <use xlink:href="#DejaVuSans-2e" x="211.035156"/>
       <use xlink:href="#DejaVuSans-30" x="242.822266"/>
      </g>
     </g>
    </g>
    <g id="text_14">
     <!-- Fitness -->
     <g transform="translate(13.875 191.845187) rotate(-90) scale(0.1 -0.1)">
      <defs>
       <path id="DejaVuSans-46" d="M 628 4666 
L 3309 4666 
L 3309 4134 
L 1259 4134 
L 1259 2759 
L 3109 2759 
L 3109 2228 
L 1259 2228 
L 1259 0 
L 628 0 
L 628 4666 
z
" transform="scale(0.015625)"/>
      </defs>
      <use xlink:href="#DejaVuSans-46"/>
      <use xlink:href="#DejaVuSans-69" x="50.269531"/>
      <use xlink:href="#DejaVuSans-74" x="78.052734"/>
      <use xlink:href="#DejaVuSans-6e" x="117.261719"/>
      <use xlink:href="#DejaVuSans-65" x="180.640625"/>
      <use xlink:href="#DejaVuSans-73" x="242.164062"/>
      <use xlink:href="#DejaVuSans-73" x="294.263672"/>
     </g>
    </g>
   </g>
   <g id="line2d_25">
    <path d="M 73.832727 261.875461 
L 74.918528 246.112647 
L 76.00433 239.800105 
L 77.090131 228.684806 
L 78.175932 226.531415 
L 79.261733 227.174468 
L 80.347534 223.682091 
L 81.433335 221.340737 
L 82.519137 222.837078 
L 84.690739 212.338646 
L 85.77654 220.181551 
L 86.862341 216.155319 
L 87.948142 218.811328 
L 89.033943 220.928929 
L 90.119745 212.273264 
L 91.205546 219.38998 
L 93.377148 210.245583 
L 94.462949 207.79545 
L 95.54875 205.70591 
L 96.634552 208.479607 
L 97.720353 210.167164 
L 98.806154 202.741073 
L 99.891955 201.441346 
L 100.977756 199.184277 
L 102.063557 204.406934 
L 103.149358 197.521254 
L 104.23516 199.564692 
L 105.320961 195.471899 
L 106.406762 204.724662 
L 107.492563 199.353408 
L 108.578364 194.624029 
L 109.664165 198.812852 
L 110.749967 191.29716 
L 112.921569 198.780097 
L 114.00737 197.132151 
L 115.093171 201.574551 
L 116.178972 190.741529 
L 117.264773 193.418738 
L 118.350575 192.960898 
L 119.436376 194.995282 
L 120.522177 196.504052 
L 121.607978 194.48076 
L 122.693779 194.801919 
L 123.77958 196.000524 
L 124.865382 195.006822 
L 125.951183 192.887094 
L 127.036984 185.815475 
L 128.122785 195.054605 
L 129.208586 195.460293 
L 130.294387 196.389222 
L 131.380189 197.654177 
L 132.46599 193.596954 
L 133.551791 185.509697 
L 134.637592 190.904057 
L 135.723393 191.018474 
L 136.809194 189.696538 
L 137.894995 192.586798 
L 138.980797 189.392399 
L 140.066598 192.582397 
L 141.152399 190.877122 
L 142.2382 193.464793 
L 143.324001 191.806579 
L 144.409802 189.941942 
L 145.495604 186.228169 
L 146.581405 192.521963 
L 147.667206 185.092313 
L 148.753007 190.149441 
L 149.838808 191.948132 
L 150.924609 185.706625 
L 152.01041 185.04705 
L 153.096212 190.828366 
L 154.182013 193.894953 
L 155.267814 192.545248 
L 156.353615 187.634844 
L 157.439416 185.018645 
L 158.525217 189.444471 
L 159.611019 194.727774 
L 160.69682 193.67434 
L 161.782621 191.545798 
L 162.868422 193.120011 
L 163.954223 192.776398 
L 165.040024 185.645768 
L 166.125825 193.084238 
L 167.211627 192.842319 
L 168.297428 190.153168 
L 169.383229 185.747889 
L 170.46903 183.601671 
L 171.554831 182.025617 
L 172.640632 183.241598 
L 173.726434 186.173125 
L 174.812235 184.768303 
L 175.898036 184.511312 
L 176.983837 183.349137 
L 178.069638 180.474017 
L 179.155439 184.765359 
L 180.24124 190.098229 
L 181.327042 183.186421 
L 182.412843 182.08695 
L 183.498644 190.328378 
L 184.584445 180.55807 
L 185.670246 180.785296 
L 186.756047 187.745007 
L 187.841849 178.036522 
L 188.92765 177.949933 
L 190.013451 179.298915 
L 191.099252 182.747155 
L 192.185053 179.600468 
L 193.270854 177.120575 
L 194.356656 169.294446 
L 195.442457 177.782491 
L 196.528258 167.987574 
L 197.614059 172.532743 
L 198.69986 171.014766 
L 199.785661 168.291952 
L 200.871462 183.509412 
L 201.957264 175.832963 
L 203.043065 178.445344 
L 204.128866 176.406238 
L 205.214667 190.388114 
L 206.300468 179.915829 
L 207.386269 178.713185 
L 208.472071 169.592766 
L 209.557872 168.377769 
L 210.643673 175.249613 
L 211.729474 175.833505 
L 212.815275 173.208602 
L 213.901076 177.911733 
L 214.986877 171.959332 
L 216.072679 166.928318 
L 217.15848 168.860009 
L 218.244281 173.714528 
L 219.330082 172.735266 
L 220.415883 174.308484 
L 221.501684 176.957258 
L 222.587486 168.589565 
L 223.673287 174.840436 
L 224.759088 163.087001 
L 225.844889 170.222056 
L 226.93069 167.590625 
L 228.016491 163.418251 
L 229.102292 171.66301 
L 230.188094 167.049351 
L 231.273895 165.226073 
L 232.359696 164.289826 
L 233.445497 158.390034 
L 234.531298 165.54024 
L 235.617099 153.055355 
L 236.702901 159.473647 
L 237.788702 158.619826 
L 238.874503 169.224021 
L 239.960304 166.402364 
L 241.046105 152.277852 
L 242.131906 152.9127 
L 243.217708 153.11154 
L 244.303509 161.127683 
L 245.38931 157.045545 
L 246.475111 152.376213 
L 247.560912 164.231473 
L 248.646713 161.627779 
L 249.732514 159.785592 
L 250.818316 161.930397 
L 251.904117 149.84281 
L 252.989918 154.789437 
L 254.075719 147.142603 
L 255.16152 145.441511 
L 256.247321 143.038684 
L 257.333123 139.528094 
L 258.418924 139.190465 
L 259.504725 144.768136 
L 260.590526 143.993398 
L 261.676327 142.214629 
L 262.762128 142.045275 
L 263.847929 143.694918 
L 264.933731 135.78 
L 266.019532 137.563691 
L 267.105333 136.757543 
L 268.191134 134.062067 
L 269.276935 137.594354 
L 270.362736 138.985102 
L 271.448538 135.682325 
L 272.534339 141.784674 
L 273.62014 144.837734 
L 274.705941 143.698403 
L 275.791742 141.314726 
L 276.877543 141.830946 
L 277.963344 139.00767 
L 279.049146 133.642107 
L 280.134947 137.965365 
L 281.220748 137.419196 
L 282.306549 138.39257 
L 283.39235 136.09562 
L 284.478151 136.754384 
L 285.563953 139.728717 
L 286.649754 141.559017 
L 287.735555 140.027982 
L 288.821356 132.804143 
L 289.907157 134.719648 
L 290.992958 131.35931 
L 292.07876 143.362111 
L 294.250362 133.642316 
L 295.336163 130.804242 
L 296.421964 129.409789 
L 297.507765 129.430672 
L 298.593566 139.903578 
L 299.679368 127.787827 
L 300.765169 130.761638 
L 301.85097 140.540507 
L 302.936771 135.073448 
L 304.022572 133.576581 
L 305.108373 133.713255 
L 306.194175 131.528959 
L 307.279976 130.504143 
L 308.365777 127.644378 
L 309.451578 132.265319 
L 310.537379 131.982641 
L 311.62318 134.127595 
L 312.708981 135.277687 
L 313.794783 134.409449 
L 314.880584 131.665583 
L 315.966385 140.290321 
L 318.137987 132.830918 
L 319.223788 134.808852 
L 320.30959 139.947945 
L 321.395391 134.559741 
L 322.481192 146.656019 
L 323.566993 144.404332 
L 324.652794 139.783684 
L 325.738595 144.210187 
L 326.824396 140.208151 
L 327.910198 135.626184 
L 328.995999 133.148763 
L 330.0818 134.502007 
L 331.167601 134.790469 
L 332.253402 133.094462 
L 333.339203 136.052582 
L 334.425005 139.893877 
L 335.510806 134.242851 
L 336.596607 136.374839 
L 337.682408 137.228715 
L 338.768209 126.552516 
L 339.85401 132.123601 
L 340.939811 133.339223 
L 342.025613 135.318018 
L 343.111414 130.577805 
L 344.197215 135.669859 
L 345.283016 135.313975 
L 346.368817 130.670425 
L 347.454618 136.070915 
L 348.54042 135.368959 
L 349.626221 133.845808 
L 350.712022 135.279827 
L 351.797823 143.284433 
L 352.883624 134.458202 
L 353.969425 134.708134 
L 355.055227 134.107829 
L 356.141028 137.766033 
L 357.226829 128.347641 
L 358.31263 143.268481 
L 359.398431 140.443265 
L 360.484232 141.111788 
L 361.570033 142.309114 
L 362.655835 137.582434 
L 363.741636 256.09295 
L 364.827437 236.44786 
L 365.913238 229.741687 
L 366.999039 225.292968 
L 368.08484 224.201973 
L 369.170642 218.811119 
L 370.256443 212.142896 
L 371.342244 212.086312 
L 372.428045 211.386799 
L 373.513846 212.024487 
L 374.599647 208.641634 
L 375.685448 209.21853 
L 376.77125 211.508047 
L 377.857051 203.239344 
L 378.942852 212.491152 
L 380.028653 210.39671 
L 381.114454 201.488449 
L 382.200255 208.383613 
L 383.286057 206.721617 
L 384.371858 208.59672 
L 385.457659 203.994373 
L 386.54346 203.203171 
L 387.629261 201.434746 
L 388.715062 197.757855 
L 389.800863 203.388121 
L 391.972466 195.362002 
L 393.058267 191.984828 
L 394.144068 195.88714 
L 395.229869 198.17037 
L 396.31567 197.928753 
L 397.401472 194.523102 
L 398.487273 192.728956 
L 398.487273 192.728956 
" clip-path="url(#p2f25219287)" style="fill: none; stroke: #0000ff; stroke-width: 1.5; stroke-linecap: square"/>
   </g>
   <g id="line2d_26">
    <path d="M 73.832727 294.470254 
L 74.918528 275.751149 
L 76.00433 275.612862 
L 77.090131 259.518331 
L 78.175932 256.192504 
L 79.261733 263.250598 
L 80.347534 259.151505 
L 81.433335 251.994662 
L 82.519137 257.678968 
L 83.604938 248.5749 
L 84.690739 242.666801 
L 85.77654 251.957125 
L 86.862341 245.060028 
L 87.948142 253.649739 
L 89.033943 255.908126 
L 90.119745 245.365826 
L 91.205546 255.41878 
L 92.291347 251.330307 
L 94.462949 242.438032 
L 95.54875 241.543252 
L 96.634552 244.185118 
L 97.720353 250.646758 
L 98.806154 244.755887 
L 99.891955 239.572406 
L 100.977756 240.782609 
L 102.063557 246.671724 
L 103.149358 236.057242 
L 104.23516 239.173288 
L 105.320961 237.876332 
L 106.406762 248.677539 
L 107.492563 239.514314 
L 108.578364 234.541697 
L 109.664165 241.82631 
L 110.749967 231.567839 
L 111.835768 240.01906 
L 112.921569 244.310331 
L 114.00737 242.212942 
L 115.093171 246.044036 
L 116.178972 232.740375 
L 117.264773 236.437558 
L 118.350575 238.768563 
L 119.436376 235.502248 
L 120.522177 238.277428 
L 122.693779 232.493357 
L 123.77958 241.35088 
L 124.865382 233.332803 
L 125.951183 234.934246 
L 127.036984 231.490897 
L 128.122785 238.071232 
L 129.208586 237.882831 
L 130.294387 239.688815 
L 131.380189 241.84518 
L 132.46599 236.732503 
L 133.551791 222.928182 
L 134.637592 234.763416 
L 135.723393 233.857351 
L 136.809194 233.876111 
L 137.894995 237.262625 
L 138.980797 236.396915 
L 140.066598 240.307261 
L 141.152399 234.570967 
L 142.2382 242.284881 
L 143.324001 236.12035 
L 144.409802 232.82858 
L 145.495604 233.194512 
L 146.581405 239.978974 
L 147.667206 231.177611 
L 148.753007 233.232666 
L 149.838808 237.691524 
L 150.924609 228.512638 
L 152.01041 232.529607 
L 153.096212 239.421441 
L 154.182013 239.020689 
L 155.267814 237.621775 
L 156.353615 234.739361 
L 157.439416 229.813748 
L 158.525217 234.120278 
L 159.611019 240.372291 
L 160.69682 237.735542 
L 161.782621 237.927558 
L 162.868422 240.38357 
L 163.954223 237.106209 
L 165.040024 223.470268 
L 166.125825 239.923909 
L 167.211627 238.734161 
L 168.297428 234.139038 
L 169.383229 228.487073 
L 170.46903 229.950889 
L 171.554831 224.591315 
L 172.640632 228.025255 
L 173.726434 232.745027 
L 174.812235 225.874525 
L 175.898036 230.571577 
L 176.983837 232.253411 
L 178.069638 225.422724 
L 179.155439 233.040969 
L 180.24124 237.963578 
L 181.327042 227.550948 
L 182.412843 223.813681 
L 183.498644 238.746599 
L 184.584445 219.35632 
L 185.670246 223.153025 
L 186.756047 231.990239 
L 187.841849 219.808815 
L 188.92765 219.905882 
L 190.013451 223.951214 
L 191.099252 228.479757 
L 192.185053 220.473202 
L 193.270854 218.704155 
L 194.356656 209.299214 
L 195.442457 224.381854 
L 196.528258 209.337827 
L 197.614059 214.805636 
L 198.69986 212.20473 
L 199.785661 210.808687 
L 200.871462 224.398507 
L 201.957264 214.845001 
L 203.043065 221.689278 
L 204.128866 216.437321 
L 205.214667 236.367732 
L 206.300468 220.218984 
L 207.386269 219.195116 
L 208.472071 215.255687 
L 209.557872 209.016502 
L 210.643673 222.597593 
L 211.729474 215.15188 
L 212.815275 212.184974 
L 213.901076 224.518859 
L 214.986877 214.556647 
L 216.072679 208.093801 
L 217.15848 213.981139 
L 218.244281 221.271175 
L 219.330082 217.273757 
L 220.415883 215.321263 
L 221.501684 220.107808 
L 222.587486 215.218361 
L 223.673287 220.800106 
L 224.759088 203.117294 
L 225.844889 215.596102 
L 226.93069 210.552097 
L 228.016491 204.862513 
L 229.102292 223.337106 
L 231.273895 207.130381 
L 232.359696 208.268258 
L 233.445497 200.835404 
L 234.531298 211.453703 
L 235.617099 194.390197 
L 236.702901 198.143736 
L 237.788702 204.606449 
L 238.874503 218.835854 
L 239.960304 208.104794 
L 241.046105 190.30353 
L 242.131906 192.0257 
L 243.217708 194.980543 
L 244.303509 203.817638 
L 245.38931 193.75679 
L 246.475111 195.647711 
L 247.560912 206.437441 
L 248.646713 206.743638 
L 249.732514 206.511737 
L 250.818316 208.662941 
L 251.904117 188.249246 
L 252.989918 195.061096 
L 254.075719 185.028205 
L 255.16152 185.180507 
L 256.247321 182.42214 
L 257.333123 177.316122 
L 258.418924 175.644361 
L 259.504725 183.319435 
L 260.590526 186.973781 
L 261.676327 179.558117 
L 262.762128 179.701664 
L 263.847929 181.345762 
L 264.933731 171.172133 
L 266.019532 178.104932 
L 267.105333 173.313871 
L 268.191134 167.416281 
L 269.276935 175.669319 
L 270.362736 177.859448 
L 271.448538 173.763595 
L 272.534339 182.874095 
L 273.62014 182.036583 
L 274.705941 181.013906 
L 275.791742 180.98609 
L 276.877543 179.624551 
L 277.963344 182.761942 
L 279.049146 167.800109 
L 280.134947 176.367139 
L 281.220748 174.149847 
L 282.306549 177.326159 
L 283.39235 178.179721 
L 284.478151 173.628533 
L 285.563953 177.116426 
L 286.649754 183.321766 
L 287.735555 178.371007 
L 289.907157 171.221075 
L 290.992958 170.237402 
L 292.07876 183.692967 
L 294.250362 172.473135 
L 295.336163 166.166649 
L 296.421964 165.922239 
L 297.507765 161.544683 
L 298.593566 179.321547 
L 299.679368 160.345488 
L 300.765169 167.23967 
L 301.85097 182.159273 
L 302.936771 172.066209 
L 304.022572 169.65796 
L 305.108373 172.105651 
L 306.194175 170.7164 
L 307.279976 167.738193 
L 308.365777 161.974757 
L 309.451578 169.372971 
L 310.537379 165.833342 
L 311.62318 166.099422 
L 312.708981 173.115298 
L 314.880584 167.303524 
L 315.966385 181.961559 
L 317.052186 173.504001 
L 318.137987 173.0982 
L 319.223788 173.931398 
L 320.30959 177.049783 
L 321.395391 173.233014 
L 322.481192 190.326574 
L 323.566993 188.675024 
L 324.652794 178.111103 
L 325.738595 186.932963 
L 326.824396 179.104398 
L 327.910198 175.78698 
L 328.995999 170.308007 
L 330.0818 169.176488 
L 331.167601 172.937594 
L 332.253402 168.77888 
L 333.339203 173.192606 
L 334.425005 183.50338 
L 335.510806 172.031569 
L 336.596607 176.037274 
L 337.682408 175.828804 
L 338.768209 163.490708 
L 339.85401 170.90752 
L 340.939811 174.612079 
L 343.111414 167.169935 
L 344.197215 175.280224 
L 345.283016 175.01869 
L 346.368817 167.953382 
L 347.454618 177.165512 
L 348.54042 177.979493 
L 349.626221 173.73894 
L 350.712022 176.73081 
L 351.797823 182.333701 
L 352.883624 170.042851 
L 353.969425 170.768394 
L 355.055227 174.584345 
L 356.141028 177.837803 
L 357.226829 169.357316 
L 358.31263 182.300233 
L 359.398431 178.880327 
L 360.484232 176.463037 
L 361.570033 183.06216 
L 362.655835 178.583361 
L 363.741636 295.488 
L 364.827437 265.821031 
L 365.913238 259.344118 
L 366.999039 256.256209 
L 368.08484 254.978673 
L 369.170642 252.541802 
L 370.256443 242.750015 
L 371.342244 245.909672 
L 372.428045 245.510908 
L 373.513846 246.868733 
L 374.599647 241.286622 
L 375.685448 246.39993 
L 376.77125 243.482058 
L 377.857051 237.637798 
L 378.942852 248.926192 
L 380.028653 248.733115 
L 381.114454 234.160621 
L 382.200255 247.320393 
L 383.286057 245.023691 
L 384.371858 245.216805 
L 385.457659 245.87665 
L 386.54346 243.192473 
L 387.629261 243.602448 
L 388.715062 233.595726 
L 389.800863 242.737913 
L 390.886665 243.37868 
L 391.972466 236.911531 
L 393.058267 227.686846 
L 394.144068 239.312572 
L 395.229869 238.74477 
L 396.31567 238.502256 
L 397.401472 236.039772 
L 398.487273 235.966894 
L 398.487273 235.966894 
" clip-path="url(#p2f25219287)" style="fill: none; stroke-dasharray: 9.6,2.4,1.5,2.4; stroke-dashoffset: 0; stroke: #008000; stroke-width: 1.5"/>
   </g>
   <g id="line2d_27">
    <path d="M 73.832727 229.280669 
L 76.00433 203.987348 
L 77.090131 197.851281 
L 78.175932 196.870327 
L 79.261733 191.098338 
L 80.347534 188.212678 
L 81.433335 190.686813 
L 82.519137 187.995188 
L 83.604938 186.879093 
L 84.690739 182.01049 
L 85.77654 188.405976 
L 86.862341 187.25061 
L 87.948142 183.972917 
L 89.033943 185.949731 
L 90.119745 179.180702 
L 91.205546 183.36118 
L 93.377148 173.764476 
L 94.462949 173.152869 
L 95.54875 169.868568 
L 96.634552 172.774097 
L 97.720353 169.687571 
L 98.806154 160.72626 
L 99.891955 163.310285 
L 100.977756 157.585945 
L 102.063557 162.142144 
L 103.149358 158.985267 
L 104.23516 159.956096 
L 105.320961 153.067466 
L 106.406762 160.771785 
L 107.492563 159.192502 
L 108.578364 154.70636 
L 109.664165 155.799393 
L 110.749967 151.02648 
L 111.835768 150.255412 
L 112.921569 153.249863 
L 114.00737 152.051361 
L 115.093171 157.105065 
L 116.178972 148.742684 
L 117.264773 150.399918 
L 118.350575 147.153234 
L 119.436376 154.488316 
L 120.522177 154.730676 
L 121.607978 153.720757 
L 122.693779 157.110482 
L 123.77958 150.650169 
L 124.865382 156.680842 
L 125.951183 150.839943 
L 127.036984 140.140052 
L 128.122785 152.037977 
L 129.208586 153.037754 
L 130.294387 153.089629 
L 131.380189 153.463173 
L 132.46599 150.461406 
L 133.551791 148.091212 
L 134.637592 147.044697 
L 135.723393 148.179596 
L 136.809194 145.516965 
L 137.894995 147.910971 
L 138.980797 142.387882 
L 141.152399 147.183277 
L 142.2382 144.644705 
L 143.324001 147.492807 
L 144.409802 147.055304 
L 145.495604 139.261826 
L 146.581405 145.064952 
L 147.667206 139.007015 
L 148.753007 147.066216 
L 149.838808 146.204741 
L 150.924609 142.900612 
L 152.01041 137.564492 
L 153.096212 142.235291 
L 154.182013 148.769217 
L 155.267814 147.468721 
L 156.353615 140.530326 
L 157.439416 140.223542 
L 159.611019 149.083257 
L 160.69682 149.613139 
L 161.782621 145.164039 
L 162.868422 145.856453 
L 163.954223 148.446587 
L 165.040024 147.821269 
L 166.125825 146.244568 
L 167.211627 146.950477 
L 168.297428 146.167298 
L 169.383229 143.008705 
L 170.46903 137.252453 
L 171.554831 139.459919 
L 172.640632 138.457941 
L 173.726434 139.601223 
L 174.812235 143.66208 
L 175.898036 138.451047 
L 176.983837 134.444864 
L 179.155439 136.489749 
L 180.24124 142.23288 
L 181.327042 138.821895 
L 183.498644 141.910158 
L 184.584445 141.759821 
L 185.670246 138.417567 
L 186.756047 143.499776 
L 187.841849 136.26423 
L 188.92765 135.993984 
L 190.013451 134.646617 
L 191.099252 137.014552 
L 192.185053 138.727734 
L 193.270854 135.536996 
L 194.356656 129.289678 
L 195.442457 131.183129 
L 196.528258 126.637321 
L 197.614059 130.259851 
L 198.69986 129.824801 
L 199.785661 125.775217 
L 200.871462 142.620317 
L 201.957264 136.820926 
L 203.043065 135.20141 
L 204.128866 136.375156 
L 205.214667 144.408495 
L 206.300468 139.612674 
L 207.386269 138.231254 
L 208.472071 123.929845 
L 209.557872 127.739035 
L 210.643673 127.901632 
L 211.729474 136.51513 
L 212.815275 134.232229 
L 213.901076 131.304607 
L 214.986877 129.362018 
L 216.072679 125.762836 
L 217.15848 123.73888 
L 218.244281 126.157881 
L 219.330082 128.196775 
L 220.415883 133.295705 
L 221.501684 133.806708 
L 222.587486 121.960768 
L 223.673287 128.880767 
L 224.759088 123.056708 
L 225.844889 124.848011 
L 226.93069 124.629153 
L 228.016491 121.973989 
L 229.102292 119.988914 
L 230.188094 119.05641 
L 231.273895 123.321765 
L 232.359696 120.311395 
L 233.445497 115.944664 
L 234.531298 119.626778 
L 235.617099 111.720514 
L 236.702901 120.803558 
L 237.788702 112.633202 
L 238.874503 119.612189 
L 239.960304 124.699934 
L 241.046105 114.252174 
L 242.131906 113.7997 
L 243.217708 111.242538 
L 244.303509 118.437729 
L 245.38931 120.334301 
L 246.475111 109.104714 
L 247.560912 122.025504 
L 248.646713 116.51192 
L 249.732514 113.059446 
L 250.818316 115.197854 
L 251.904117 111.436375 
L 252.989918 114.517779 
L 254.075719 109.257001 
L 255.16152 105.702515 
L 257.333123 101.740067 
L 258.418924 102.736568 
L 259.504725 106.216838 
L 260.590526 101.013014 
L 261.676327 104.871142 
L 262.762128 104.388885 
L 263.847929 106.044075 
L 264.933731 100.387867 
L 266.019532 97.022451 
L 267.105333 100.201215 
L 268.191134 100.707852 
L 269.276935 99.51939 
L 270.362736 100.110756 
L 271.448538 97.601056 
L 272.534339 100.695252 
L 273.62014 107.638886 
L 274.705941 106.382899 
L 275.791742 101.643362 
L 276.877543 104.03734 
L 277.963344 95.253398 
L 279.049146 99.484106 
L 280.134947 99.563591 
L 281.220748 100.688546 
L 282.306549 99.458981 
L 283.39235 94.011518 
L 284.478151 99.880235 
L 285.563953 102.341007 
L 286.649754 99.796268 
L 287.735555 101.684957 
L 288.821356 90.895469 
L 289.907157 98.218222 
L 290.992958 92.481218 
L 292.07876 103.031256 
L 293.164561 99.185909 
L 294.250362 94.811497 
L 295.336163 95.441835 
L 296.421964 92.897339 
L 297.507765 97.31666 
L 298.593566 100.485609 
L 299.679368 95.230166 
L 300.765169 94.283607 
L 301.85097 98.921741 
L 302.936771 98.080688 
L 304.022572 97.495202 
L 305.108373 95.320858 
L 306.194175 92.341517 
L 307.279976 93.270093 
L 308.365777 93.313998 
L 309.451578 95.157668 
L 310.537379 98.131939 
L 311.62318 102.155768 
L 312.708981 97.440076 
L 313.794783 98.669751 
L 314.880584 96.027642 
L 315.966385 98.619084 
L 317.052186 99.803393 
L 318.137987 92.563636 
L 319.223788 95.686306 
L 320.30959 102.846107 
L 321.395391 95.886469 
L 322.481192 102.985465 
L 323.566993 100.133641 
L 324.652794 101.456265 
L 325.738595 101.487412 
L 326.824396 101.311905 
L 327.910198 95.465388 
L 328.995999 95.989519 
L 330.0818 99.827525 
L 331.167601 96.643344 
L 332.253402 97.410044 
L 333.339203 98.912559 
L 334.425005 96.284374 
L 336.596607 96.712404 
L 337.682408 98.628627 
L 338.768209 89.614324 
L 339.85401 93.339682 
L 340.939811 92.066366 
L 342.025613 99.604926 
L 343.111414 93.985675 
L 344.197215 96.059494 
L 345.283016 95.60926 
L 346.368817 93.387469 
L 347.454618 94.976319 
L 348.54042 92.758425 
L 349.626221 93.952675 
L 350.712022 93.828844 
L 351.797823 104.235165 
L 352.883624 98.873553 
L 353.969425 98.647874 
L 355.055227 93.631313 
L 356.141028 97.694264 
L 357.226829 87.337967 
L 358.31263 104.236729 
L 359.398431 102.006203 
L 360.484232 105.760539 
L 361.570033 101.556067 
L 362.655835 96.581506 
L 363.741636 216.697901 
L 364.827437 207.074689 
L 365.913238 200.139256 
L 366.999039 194.329727 
L 368.08484 193.425273 
L 369.170642 185.080435 
L 371.342244 178.262952 
L 372.428045 177.26269 
L 373.513846 177.180241 
L 374.599647 175.996646 
L 375.685448 172.03713 
L 376.77125 179.534035 
L 377.857051 168.84089 
L 378.942852 176.056113 
L 380.028653 172.060305 
L 381.114454 168.816278 
L 382.200255 169.446833 
L 383.286057 168.419542 
L 384.371858 171.976635 
L 385.457659 162.112096 
L 386.54346 163.213869 
L 387.629261 159.267044 
L 388.715062 161.919984 
L 389.800863 164.03833 
L 390.886665 155.065094 
L 391.972466 153.812473 
L 393.058267 156.282809 
L 394.144068 152.461709 
L 395.229869 157.595969 
L 396.31567 157.355251 
L 397.401472 153.006432 
L 398.487273 149.491018 
L 398.487273 149.491018 
" clip-path="url(#p2f25219287)" style="fill: none; stroke-dasharray: 9.6,2.4,1.5,2.4; stroke-dashoffset: 0; stroke: #008000; stroke-width: 1.5"/>
   </g>
   <g id="line2d_28">
    <path d="M 73.832727 171.514369 
L 74.918528 171.514369 
L 76.00433 146.367634 
L 78.175932 146.367634 
L 79.261733 134.012524 
L 93.377148 134.012524 
L 94.462949 128.674446 
L 97.720353 128.674446 
L 98.806154 120.65298 
L 100.977756 120.65298 
L 102.063557 117.725174 
L 104.23516 117.725174 
L 105.320961 100.858938 
L 107.492563 100.858938 
L 108.578364 85.030186 
L 144.409802 85.030186 
L 145.495604 79.37047 
L 199.785661 79.37047 
L 200.871462 95.361827 
L 201.957264 95.361827 
L 203.043065 89.479166 
L 205.214667 89.479166 
L 206.300468 70.730079 
L 260.590526 70.730079 
L 261.676327 72.497128 
L 262.762128 70.73948 
L 271.448538 70.73948 
L 272.534339 63.566798 
L 294.250362 63.566798 
L 295.336163 61.8537 
L 296.421964 54.578164 
L 307.279976 54.578164 
L 308.365777 53.568 
L 362.655835 53.568 
L 363.741636 167.209048 
L 366.999039 167.209048 
L 368.08484 165.829171 
L 369.170642 148.578648 
L 370.256443 148.578648 
L 371.342244 134.895157 
L 381.114454 134.895157 
L 382.200255 132.172425 
L 384.371858 132.172425 
L 385.457659 124.909365 
L 388.715062 124.909365 
L 389.800863 119.773724 
L 390.886665 119.668589 
L 391.972466 103.353606 
L 398.487273 103.353606 
L 398.487273 103.353606 
" clip-path="url(#p2f25219287)" style="fill: none; stroke: #ff0000; stroke-width: 1.5; stroke-linecap: square"/>
   </g>
   <g id="patch_3">
    <path d="M 57.6 307.584 
L 57.6 41.472 
" style="fill: none; stroke: #000000; stroke-width: 0.8; stroke-linejoin: miter; stroke-linecap: square"/>
   </g>
   <g id="patch_4">
    <path d="M 414.72 307.584 
L 414.72 41.472 
" style="fill: none; stroke: #000000; stroke-width: 0.8; stroke-linejoin: miter; stroke-linecap: square"/>
   </g>
   <g id="patch_5">
    <path d="M 57.6 307.584 
L 414.72 307.584 
" style="fill: none; stroke: #000000; stroke-width: 0.8; stroke-linejoin: miter; stroke-linecap: square"/>
   </g>
   <g id="patch_6">
    <path d="M 57.6 41.472 
L 414.72 41.472 
" style="fill: none; stroke: #000000; stroke-width: 0.8; stroke-linejoin: miter; stroke-linecap: square"/>
   </g>
   <g id="text_15">
    <!-- Population's average and best fitness -->
    <g transform="translate(123.529687 35.472) scale(0.12 -0.12)">
     <defs>
      <path id="DejaVuSans-50" d="M 1259 4147 
L 1259 2394 
L 2053 2394 
Q 2494 2394 2734 2622 
Q 2975 2850 2975 3272 
Q 2975 3691 2734 3919 
Q 2494 4147 2053 4147 
L 1259 4147 
z
M 628 4666 
L 2053 4666 
Q 2838 4666 3239 4311 
Q 3641 3956 3641 3272 
Q 3641 2581 3239 2228 
Q 2838 1875 2053 1875 
L 1259 1875 
L 1259 0 
L 628 0 
L 628 4666 
z
" transform="scale(0.015625)"/>
      <path id="DejaVuSans-70" d="M 1159 525 
L 1159 -1331 
L 581 -1331 
L 581 3500 
L 1159 3500 
L 1159 2969 
Q 1341 3281 1617 3432 
Q 1894 3584 2278 3584 
Q 2916 3584 3314 3078 
Q 3713 2572 3713 1747 
Q 3713 922 3314 415 
Q 2916 -91 2278 -91 
Q 1894 -91 1617 61 
Q 1341 213 1159 525 
z
M 3116 1747 
Q 3116 2381 2855 2742 
Q 2594 3103 2138 3103 
Q 1681 3103 1420 2742 
Q 1159 2381 1159 1747 
Q 1159 1113 1420 752 
Q 1681 391 2138 391 
Q 2594 391 2855 752 
Q 3116 1113 3116 1747 
z
" transform="scale(0.015625)"/>
      <path id="DejaVuSans-75" d="M 544 1381 
L 544 3500 
L 1119 3500 
L 1119 1403 
Q 1119 906 1312 657 
Q 1506 409 1894 409 
Q 2359 409 2629 706 
Q 2900 1003 2900 1516 
L 2900 3500 
L 3475 3500 
L 3475 0 
L 2900 0 
L 2900 538 
Q 2691 219 2414 64 
Q 2138 -91 1772 -91 
Q 1169 -91 856 284 
Q 544 659 544 1381 
z
M 1991 3584 
L 1991 3584 
z
" transform="scale(0.015625)"/>
      <path id="DejaVuSans-6c" d="M 603 4863 
L 1178 4863 
L 1178 0 
L 603 0 
L 603 4863 
z
" transform="scale(0.015625)"/>
      <path id="DejaVuSans-27" d="M 1147 4666 
L 1147 2931 
L 616 2931 
L 616 4666 
L 1147 4666 
z
" transform="scale(0.015625)"/>
      <path id="DejaVuSans-20" transform="scale(0.015625)"/>
      <path id="DejaVuSans-76" d="M 191 3500 
L 800 3500 
L 1894 563 
L 2988 3500 
L 3597 3500 
L 2284 0 
L 1503 0 
L 191 3500 
z
" transform="scale(0.015625)"/>
      <path id="DejaVuSans-67" d="M 2906 1791 
Q 2906 2416 2648 2759 
Q 2391 3103 1925 3103 
Q 1463 3103 1205 2759 
Q 947 2416 947 1791 
Q 947 1169 1205 825 
Q 1463 481 1925 481 
Q 2391 481 2648 825 
Q 2906 1169 2906 1791 
z
M 3481 434 
Q 3481 -459 3084 -895 
Q 2688 -1331 1869 -1331 
Q 1566 -1331 1297 -1286 
Q 1028 -1241 775 -1147 
L 775 -588 
Q 1028 -725 1275 -790 
Q 1522 -856 1778 -856 
Q 2344 -856 2625 -561 
Q 2906 -266 2906 331 
L 2906 616 
Q 2728 306 2450 153 
Q 2172 0 1784 0 
Q 1141 0 747 490 
Q 353 981 353 1791 
Q 353 2603 747 3093 
Q 1141 3584 1784 3584 
Q 2172 3584 2450 3431 
Q 2728 3278 2906 2969 
L 2906 3500 
L 3481 3500 
L 3481 434 
z
" transform="scale(0.015625)"/>
      <path id="DejaVuSans-64" d="M 2906 2969 
L 2906 4863 
L 3481 4863 
L 3481 0 
L 2906 0 
L 2906 525 
Q 2725 213 2448 61 
Q 2172 -91 1784 -91 
Q 1150 -91 751 415 
Q 353 922 353 1747 
Q 353 2572 751 3078 
Q 1150 3584 1784 3584 
Q 2172 3584 2448 3432 
Q 2725 3281 2906 2969 
z
M 947 1747 
Q 947 1113 1208 752 
Q 1469 391 1925 391 
Q 2381 391 2643 752 
Q 2906 1113 2906 1747 
Q 2906 2381 2643 2742 
Q 2381 3103 1925 3103 
Q 1469 3103 1208 2742 
Q 947 2381 947 1747 
z
" transform="scale(0.015625)"/>
      <path id="DejaVuSans-62" d="M 3116 1747 
Q 3116 2381 2855 2742 
Q 2594 3103 2138 3103 
Q 1681 3103 1420 2742 
Q 1159 2381 1159 1747 
Q 1159 1113 1420 752 
Q 1681 391 2138 391 
Q 2594 391 2855 752 
Q 3116 1113 3116 1747 
z
M 1159 2969 
Q 1341 3281 1617 3432 
Q 1894 3584 2278 3584 
Q 2916 3584 3314 3078 
Q 3713 2572 3713 1747 
Q 3713 922 3314 415 
Q 2916 -91 2278 -91 
Q 1894 -91 1617 61 
Q 1341 213 1159 525 
L 1159 0 
L 581 0 
L 581 4863 
L 1159 4863 
L 1159 2969 
z
" transform="scale(0.015625)"/>
      <path id="DejaVuSans-66" d="M 2375 4863 
L 2375 4384 
L 1825 4384 
Q 1516 4384 1395 4259 
Q 1275 4134 1275 3809 
L 1275 3500 
L 2222 3500 
L 2222 3053 
L 1275 3053 
L 1275 0 
L 697 0 
L 697 3053 
L 147 3053 
L 147 3500 
L 697 3500 
L 697 3744 
Q 697 4328 969 4595 
Q 1241 4863 1831 4863 
L 2375 4863 
z
" transform="scale(0.015625)"/>
     </defs>
     <use xlink:href="#DejaVuSans-50"/>
     <use xlink:href="#DejaVuSans-6f" x="56.677734"/>
     <use xlink:href="#DejaVuSans-70" x="117.859375"/>
     <use xlink:href="#DejaVuSans-75" x="181.335938"/>
     <use xlink:href="#DejaVuSans-6c" x="244.714844"/>
     <use xlink:href="#DejaVuSans-61" x="272.498047"/>
     <use xlink:href="#DejaVuSans-74" x="333.777344"/>
     <use xlink:href="#DejaVuSans-69" x="372.986328"/>
     <use xlink:href="#DejaVuSans-6f" x="400.769531"/>
     <use xlink:href="#DejaVuSans-6e" x="461.951172"/>
     <use xlink:href="#DejaVuSans-27" x="525.330078"/>
     <use xlink:href="#DejaVuSans-73" x="552.820312"/>
     <use xlink:href="#DejaVuSans-20" x="604.919922"/>
     <use xlink:href="#DejaVuSans-61" x="636.707031"/>
     <use xlink:href="#DejaVuSans-76" x="697.986328"/>
     <use xlink:href="#DejaVuSans-65" x="757.166016"/>
     <use xlink:href="#DejaVuSans-72" x="818.689453"/>
     <use xlink:href="#DejaVuSans-61" x="859.802734"/>
     <use xlink:href="#DejaVuSans-67" x="921.082031"/>
     <use xlink:href="#DejaVuSans-65" x="984.558594"/>
     <use xlink:href="#DejaVuSans-20" x="1046.082031"/>
     <use xlink:href="#DejaVuSans-61" x="1077.869141"/>
     <use xlink:href="#DejaVuSans-6e" x="1139.148438"/>
     <use xlink:href="#DejaVuSans-64" x="1202.527344"/>
     <use xlink:href="#DejaVuSans-20" x="1266.003906"/>
     <use xlink:href="#DejaVuSans-62" x="1297.791016"/>
     <use xlink:href="#DejaVuSans-65" x="1361.267578"/>
     <use xlink:href="#DejaVuSans-73" x="1422.791016"/>
     <use xlink:href="#DejaVuSans-74" x="1474.890625"/>
     <use xlink:href="#DejaVuSans-20" x="1514.099609"/>
     <use xlink:href="#DejaVuSans-66" x="1545.886719"/>
     <use xlink:href="#DejaVuSans-69" x="1581.091797"/>
     <use xlink:href="#DejaVuSans-74" x="1608.875"/>
     <use xlink:href="#DejaVuSans-6e" x="1648.083984"/>
     <use xlink:href="#DejaVuSans-65" x="1711.462891"/>
     <use xlink:href="#DejaVuSans-73" x="1772.986328"/>
     <use xlink:href="#DejaVuSans-73" x="1825.085938"/>
    </g>
   </g>
   <g id="legend_1">
    <g id="patch_7">
     <path d="M 199.689687 302.584 
L 272.630313 302.584 
Q 274.630313 302.584 274.630313 300.584 
L 274.630313 242.8715 
Q 274.630313 240.8715 272.630313 240.8715 
L 199.689687 240.8715 
Q 197.689687 240.8715 197.689687 242.8715 
L 197.689687 300.584 
Q 197.689687 302.584 199.689687 302.584 
z
" style="fill: #ffffff; opacity: 0.8; stroke: #cccccc; stroke-linejoin: miter"/>
    </g>
    <g id="line2d_29">
     <path d="M 201.689687 248.969937 
L 211.689687 248.969937 
L 221.689687 248.969937 
" style="fill: none; stroke: #0000ff; stroke-width: 1.5; stroke-linecap: square"/>
    </g>
    <g id="text_16">
     <!-- average -->
     <g transform="translate(229.689687 252.469937) scale(0.1 -0.1)">
      <use xlink:href="#DejaVuSans-61"/>
      <use xlink:href="#DejaVuSans-76" x="61.279297"/>
      <use xlink:href="#DejaVuSans-65" x="120.458984"/>
      <use xlink:href="#DejaVuSans-72" x="181.982422"/>
      <use xlink:href="#DejaVuSans-61" x="223.095703"/>
      <use xlink:href="#DejaVuSans-67" x="284.375"/>
      <use xlink:href="#DejaVuSans-65" x="347.851562"/>
     </g>
    </g>
    <g id="line2d_30">
     <path d="M 201.689687 263.648062 
L 211.689687 263.648062 
L 221.689687 263.648062 
" style="fill: none; stroke-dasharray: 9.6,2.4,1.5,2.4; stroke-dashoffset: 0; stroke: #008000; stroke-width: 1.5"/>
    </g>
    <g id="text_17">
     <!-- -1 sd -->
     <g transform="translate(229.689687 267.148062) scale(0.1 -0.1)">
      <defs>
       <path id="DejaVuSans-2d" d="M 313 2009 
L 1997 2009 
L 1997 1497 
L 313 1497 
L 313 2009 
z
" transform="scale(0.015625)"/>
      </defs>
      <use xlink:href="#DejaVuSans-2d"/>
      <use xlink:href="#DejaVuSans-31" x="36.083984"/>
      <use xlink:href="#DejaVuSans-20" x="99.707031"/>
      <use xlink:href="#DejaVuSans-73" x="131.494141"/>
      <use xlink:href="#DejaVuSans-64" x="183.59375"/>
     </g>
    </g>
    <g id="line2d_31">
     <path d="M 201.689687 278.326187 
L 211.689687 278.326187 
L 221.689687 278.326187 
" style="fill: none; stroke-dasharray: 9.6,2.4,1.5,2.4; stroke-dashoffset: 0; stroke: #008000; stroke-width: 1.5"/>
    </g>
    <g id="text_18">
     <!-- +1 sd -->
     <g transform="translate(229.689687 281.826187) scale(0.1 -0.1)">
      <defs>
       <path id="DejaVuSans-2b" d="M 2944 4013 
L 2944 2272 
L 4684 2272 
L 4684 1741 
L 2944 1741 
L 2944 0 
L 2419 0 
L 2419 1741 
L 678 1741 
L 678 2272 
L 2419 2272 
L 2419 4013 
L 2944 4013 
z
" transform="scale(0.015625)"/>
      </defs>
      <use xlink:href="#DejaVuSans-2b"/>
      <use xlink:href="#DejaVuSans-31" x="83.789062"/>
      <use xlink:href="#DejaVuSans-20" x="147.412109"/>
      <use xlink:href="#DejaVuSans-73" x="179.199219"/>
      <use xlink:href="#DejaVuSans-64" x="231.298828"/>
     </g>
    </g>
    <g id="line2d_32">
     <path d="M 201.689687 293.004312 
L 211.689687 293.004312 
L 221.689687 293.004312 
" style="fill: none; stroke: #ff0000; stroke-width: 1.5; stroke-linecap: square"/>
    </g>
    <g id="text_19">
     <!-- best -->
     <g transform="translate(229.689687 296.504312) scale(0.1 -0.1)">
      <use xlink:href="#DejaVuSans-62"/>
      <use xlink:href="#DejaVuSans-65" x="63.476562"/>
      <use xlink:href="#DejaVuSans-73" x="125"/>
      <use xlink:href="#DejaVuSans-74" x="177.099609"/>
     </g>
    </g>
   </g>
  </g>
 </g>
 <defs>
  <clipPath id="p2f25219287">
   <rect x="57.6" y="41.472" width="357.12" height="266.112"/>
  </clipPath>
 </defs>
</svg>
