<?xml version="1.0" encoding="utf-8" standalone="no"?>
<!DOCTYPE svg PUBLIC "-//W3C//DTD SVG 1.1//EN"
  "http://www.w3.org/Graphics/SVG/1.1/DTD/svg11.dtd">
<svg xmlns:xlink="http://www.w3.org/1999/xlink" width="460.8pt" height="345.6pt" viewBox="0 0 460.8 345.6" xmlns="http://www.w3.org/2000/svg" version="1.1">
 <metadata>
  <rdf:RDF xmlns:dc="http://purl.org/dc/elements/1.1/" xmlns:cc="http://creativecommons.org/ns#" xmlns:rdf="http://www.w3.org/1999/02/22-rdf-syntax-ns#">
   <cc:Work>
    <dc:type rdf:resource="http://purl.org/dc/dcmitype/StillImage"/>
    <dc:date>2023-12-19T16:53:25.013693</dc:date>
    <dc:format>image/svg+xml</dc:format>
    <dc:creator>
     <cc:Agent>
      <dc:title>Matplotlib v3.6.3, https://matplotlib.org/</dc:title>
     </cc:Agent>
    </dc:creator>
   </cc:Work>
  </rdf:RDF>
 </metadata>
 <defs>
  <style type="text/css">*{stroke-linejoin: round; stroke-linecap: butt}</style>
 </defs>
 <g id="figure_1">
  <g id="patch_1">
   <path d="M 0 345.6 
L 460.8 345.6 
L 460.8 0 
L 0 0 
z
" style="fill: #ffffff"/>
  </g>
  <g id="axes_1">
   <g id="patch_2">
    <path d="M 57.6 307.584 
L 414.72 307.584 
L 414.72 41.472 
L 57.6 41.472 
z
" style="fill: #ffffff"/>
   </g>
   <g id="matplotlib.axis_1">
    <g id="xtick_1">
     <g id="line2d_1">
      <path d="M 73.832727 307.584 
L 73.832727 41.472 
" clip-path="url(#pd76753141f)" style="fill: none; stroke: #b0b0b0; stroke-width: 0.8; stroke-linecap: square"/>
     </g>
     <g id="line2d_2">
      <defs>
       <path id="mbf7a7836c0" d="M 0 0 
L 0 3.5 
" style="stroke: #000000; stroke-width: 0.8"/>
      </defs>
      <g>
       <use xlink:href="#mbf7a7836c0" x="73.832727" y="307.584" style="stroke: #000000; stroke-width: 0.8"/>
      </g>
     </g>
     <g id="text_1">
      <!-- 0 -->
      <g transform="translate(70.651477 322.182437) scale(0.1 -0.1)">
       <defs>
        <path id="DejaVuSans-30" d="M 2034 4250 
Q 1547 4250 1301 3770 
Q 1056 3291 1056 2328 
Q 1056 1369 1301 889 
Q 1547 409 2034 409 
Q 2525 409 2770 889 
Q 3016 1369 3016 2328 
Q 3016 3291 2770 3770 
Q 2525 4250 2034 4250 
z
M 2034 4750 
Q 2819 4750 3233 4129 
Q 3647 3509 3647 2328 
Q 3647 1150 3233 529 
Q 2819 -91 2034 -91 
Q 1250 -91 836 529 
Q 422 1150 422 2328 
Q 422 3509 836 4129 
Q 1250 4750 2034 4750 
z
" transform="scale(0.015625)"/>
       </defs>
       <use xlink:href="#DejaVuSans-30"/>
      </g>
     </g>
    </g>
    <g id="xtick_2">
     <g id="line2d_3">
      <path d="M 128.122785 307.584 
L 128.122785 41.472 
" clip-path="url(#pd76753141f)" style="fill: none; stroke: #b0b0b0; stroke-width: 0.8; stroke-linecap: square"/>
     </g>
     <g id="line2d_4">
      <g>
       <use xlink:href="#mbf7a7836c0" x="128.122785" y="307.584" style="stroke: #000000; stroke-width: 0.8"/>
      </g>
     </g>
     <g id="text_2">
      <!-- 50 -->
      <g transform="translate(121.760285 322.182437) scale(0.1 -0.1)">
       <defs>
        <path id="DejaVuSans-35" d="M 691 4666 
L 3169 4666 
L 3169 4134 
L 1269 4134 
L 1269 2991 
Q 1406 3038 1543 3061 
Q 1681 3084 1819 3084 
Q 2600 3084 3056 2656 
Q 3513 2228 3513 1497 
Q 3513 744 3044 326 
Q 2575 -91 1722 -91 
Q 1428 -91 1123 -41 
Q 819 9 494 109 
L 494 744 
Q 775 591 1075 516 
Q 1375 441 1709 441 
Q 2250 441 2565 725 
Q 2881 1009 2881 1497 
Q 2881 1984 2565 2268 
Q 2250 2553 1709 2553 
Q 1456 2553 1204 2497 
Q 953 2441 691 2322 
L 691 4666 
z
" transform="scale(0.015625)"/>
       </defs>
       <use xlink:href="#DejaVuSans-35"/>
       <use xlink:href="#DejaVuSans-30" x="63.623047"/>
      </g>
     </g>
    </g>
    <g id="xtick_3">
     <g id="line2d_5">
      <path d="M 182.412843 307.584 
L 182.412843 41.472 
" clip-path="url(#pd76753141f)" style="fill: none; stroke: #b0b0b0; stroke-width: 0.8; stroke-linecap: square"/>
     </g>
     <g id="line2d_6">
      <g>
       <use xlink:href="#mbf7a7836c0" x="182.412843" y="307.584" style="stroke: #000000; stroke-width: 0.8"/>
      </g>
     </g>
     <g id="text_3">
      <!-- 100 -->
      <g transform="translate(172.869093 322.182437) scale(0.1 -0.1)">
       <defs>
        <path id="DejaVuSans-31" d="M 794 531 
L 1825 531 
L 1825 4091 
L 703 3866 
L 703 4441 
L 1819 4666 
L 2450 4666 
L 2450 531 
L 3481 531 
L 3481 0 
L 794 0 
L 794 531 
z
" transform="scale(0.015625)"/>
       </defs>
       <use xlink:href="#DejaVuSans-31"/>
       <use xlink:href="#DejaVuSans-30" x="63.623047"/>
       <use xlink:href="#DejaVuSans-30" x="127.246094"/>
      </g>
     </g>
    </g>
    <g id="xtick_4">
     <g id="line2d_7">
      <path d="M 236.702901 307.584 
L 236.702901 41.472 
" clip-path="url(#pd76753141f)" style="fill: none; stroke: #b0b0b0; stroke-width: 0.8; stroke-linecap: square"/>
     </g>
     <g id="line2d_8">
      <g>
       <use xlink:href="#mbf7a7836c0" x="236.702901" y="307.584" style="stroke: #000000; stroke-width: 0.8"/>
      </g>
     </g>
     <g id="text_4">
      <!-- 150 -->
      <g transform="translate(227.159151 322.182437) scale(0.1 -0.1)">
       <use xlink:href="#DejaVuSans-31"/>
       <use xlink:href="#DejaVuSans-35" x="63.623047"/>
       <use xlink:href="#DejaVuSans-30" x="127.246094"/>
      </g>
     </g>
    </g>
    <g id="xtick_5">
     <g id="line2d_9">
      <path d="M 290.992958 307.584 
L 290.992958 41.472 
" clip-path="url(#pd76753141f)" style="fill: none; stroke: #b0b0b0; stroke-width: 0.8; stroke-linecap: square"/>
     </g>
     <g id="line2d_10">
      <g>
       <use xlink:href="#mbf7a7836c0" x="290.992958" y="307.584" style="stroke: #000000; stroke-width: 0.8"/>
      </g>
     </g>
     <g id="text_5">
      <!-- 200 -->
      <g transform="translate(281.449208 322.182437) scale(0.1 -0.1)">
       <defs>
        <path id="DejaVuSans-32" d="M 1228 531 
L 3431 531 
L 3431 0 
L 469 0 
L 469 531 
Q 828 903 1448 1529 
Q 2069 2156 2228 2338 
Q 2531 2678 2651 2914 
Q 2772 3150 2772 3378 
Q 2772 3750 2511 3984 
Q 2250 4219 1831 4219 
Q 1534 4219 1204 4116 
Q 875 4013 500 3803 
L 500 4441 
Q 881 4594 1212 4672 
Q 1544 4750 1819 4750 
Q 2544 4750 2975 4387 
Q 3406 4025 3406 3419 
Q 3406 3131 3298 2873 
Q 3191 2616 2906 2266 
Q 2828 2175 2409 1742 
Q 1991 1309 1228 531 
z
" transform="scale(0.015625)"/>
       </defs>
       <use xlink:href="#DejaVuSans-32"/>
       <use xlink:href="#DejaVuSans-30" x="63.623047"/>
       <use xlink:href="#DejaVuSans-30" x="127.246094"/>
      </g>
     </g>
    </g>
    <g id="xtick_6">
     <g id="line2d_11">
      <path d="M 345.283016 307.584 
L 345.283016 41.472 
" clip-path="url(#pd76753141f)" style="fill: none; stroke: #b0b0b0; stroke-width: 0.8; stroke-linecap: square"/>
     </g>
     <g id="line2d_12">
      <g>
       <use xlink:href="#mbf7a7836c0" x="345.283016" y="307.584" style="stroke: #000000; stroke-width: 0.8"/>
      </g>
     </g>
     <g id="text_6">
      <!-- 250 -->
      <g transform="translate(335.739266 322.182437) scale(0.1 -0.1)">
       <use xlink:href="#DejaVuSans-32"/>
       <use xlink:href="#DejaVuSans-35" x="63.623047"/>
       <use xlink:href="#DejaVuSans-30" x="127.246094"/>
      </g>
     </g>
    </g>
    <g id="xtick_7">
     <g id="line2d_13">
      <path d="M 399.573074 307.584 
L 399.573074 41.472 
" clip-path="url(#pd76753141f)" style="fill: none; stroke: #b0b0b0; stroke-width: 0.8; stroke-linecap: square"/>
     </g>
     <g id="line2d_14">
      <g>
       <use xlink:href="#mbf7a7836c0" x="399.573074" y="307.584" style="stroke: #000000; stroke-width: 0.8"/>
      </g>
     </g>
     <g id="text_7">
      <!-- 300 -->
      <g transform="translate(390.029324 322.182437) scale(0.1 -0.1)">
       <defs>
        <path id="DejaVuSans-33" d="M 2597 2516 
Q 3050 2419 3304 2112 
Q 3559 1806 3559 1356 
Q 3559 666 3084 287 
Q 2609 -91 1734 -91 
Q 1441 -91 1130 -33 
Q 819 25 488 141 
L 488 750 
Q 750 597 1062 519 
Q 1375 441 1716 441 
Q 2309 441 2620 675 
Q 2931 909 2931 1356 
Q 2931 1769 2642 2001 
Q 2353 2234 1838 2234 
L 1294 2234 
L 1294 2753 
L 1863 2753 
Q 2328 2753 2575 2939 
Q 2822 3125 2822 3475 
Q 2822 3834 2567 4026 
Q 2313 4219 1838 4219 
Q 1578 4219 1281 4162 
Q 984 4106 628 3988 
L 628 4550 
Q 988 4650 1302 4700 
Q 1616 4750 1894 4750 
Q 2613 4750 3031 4423 
Q 3450 4097 3450 3541 
Q 3450 3153 3228 2886 
Q 3006 2619 2597 2516 
z
" transform="scale(0.015625)"/>
       </defs>
       <use xlink:href="#DejaVuSans-33"/>
       <use xlink:href="#DejaVuSans-30" x="63.623047"/>
       <use xlink:href="#DejaVuSans-30" x="127.246094"/>
      </g>
     </g>
    </g>
    <g id="text_8">
     <!-- Generations -->
     <g transform="translate(205.662344 335.860562) scale(0.1 -0.1)">
      <defs>
       <path id="DejaVuSans-47" d="M 3809 666 
L 3809 1919 
L 2778 1919 
L 2778 2438 
L 4434 2438 
L 4434 434 
Q 4069 175 3628 42 
Q 3188 -91 2688 -91 
Q 1594 -91 976 548 
Q 359 1188 359 2328 
Q 359 3472 976 4111 
Q 1594 4750 2688 4750 
Q 3144 4750 3555 4637 
Q 3966 4525 4313 4306 
L 4313 3634 
Q 3963 3931 3569 4081 
Q 3175 4231 2741 4231 
Q 1884 4231 1454 3753 
Q 1025 3275 1025 2328 
Q 1025 1384 1454 906 
Q 1884 428 2741 428 
Q 3075 428 3337 486 
Q 3600 544 3809 666 
z
" transform="scale(0.015625)"/>
       <path id="DejaVuSans-65" d="M 3597 1894 
L 3597 1613 
L 953 1613 
Q 991 1019 1311 708 
Q 1631 397 2203 397 
Q 2534 397 2845 478 
Q 3156 559 3463 722 
L 3463 178 
Q 3153 47 2828 -22 
Q 2503 -91 2169 -91 
Q 1331 -91 842 396 
Q 353 884 353 1716 
Q 353 2575 817 3079 
Q 1281 3584 2069 3584 
Q 2775 3584 3186 3129 
Q 3597 2675 3597 1894 
z
M 3022 2063 
Q 3016 2534 2758 2815 
Q 2500 3097 2075 3097 
Q 1594 3097 1305 2825 
Q 1016 2553 972 2059 
L 3022 2063 
z
" transform="scale(0.015625)"/>
       <path id="DejaVuSans-6e" d="M 3513 2113 
L 3513 0 
L 2938 0 
L 2938 2094 
Q 2938 2591 2744 2837 
Q 2550 3084 2163 3084 
Q 1697 3084 1428 2787 
Q 1159 2491 1159 1978 
L 1159 0 
L 581 0 
L 581 3500 
L 1159 3500 
L 1159 2956 
Q 1366 3272 1645 3428 
Q 1925 3584 2291 3584 
Q 2894 3584 3203 3211 
Q 3513 2838 3513 2113 
z
" transform="scale(0.015625)"/>
       <path id="DejaVuSans-72" d="M 2631 2963 
Q 2534 3019 2420 3045 
Q 2306 3072 2169 3072 
Q 1681 3072 1420 2755 
Q 1159 2438 1159 1844 
L 1159 0 
L 581 0 
L 581 3500 
L 1159 3500 
L 1159 2956 
Q 1341 3275 1631 3429 
Q 1922 3584 2338 3584 
Q 2397 3584 2469 3576 
Q 2541 3569 2628 3553 
L 2631 2963 
z
" transform="scale(0.015625)"/>
       <path id="DejaVuSans-61" d="M 2194 1759 
Q 1497 1759 1228 1600 
Q 959 1441 959 1056 
Q 959 750 1161 570 
Q 1363 391 1709 391 
Q 2188 391 2477 730 
Q 2766 1069 2766 1631 
L 2766 1759 
L 2194 1759 
z
M 3341 1997 
L 3341 0 
L 2766 0 
L 2766 531 
Q 2569 213 2275 61 
Q 1981 -91 1556 -91 
Q 1019 -91 701 211 
Q 384 513 384 1019 
Q 384 1609 779 1909 
Q 1175 2209 1959 2209 
L 2766 2209 
L 2766 2266 
Q 2766 2663 2505 2880 
Q 2244 3097 1772 3097 
Q 1472 3097 1187 3025 
Q 903 2953 641 2809 
L 641 3341 
Q 956 3463 1253 3523 
Q 1550 3584 1831 3584 
Q 2591 3584 2966 3190 
Q 3341 2797 3341 1997 
z
" transform="scale(0.015625)"/>
       <path id="DejaVuSans-74" d="M 1172 4494 
L 1172 3500 
L 2356 3500 
L 2356 3053 
L 1172 3053 
L 1172 1153 
Q 1172 725 1289 603 
Q 1406 481 1766 481 
L 2356 481 
L 2356 0 
L 1766 0 
Q 1100 0 847 248 
Q 594 497 594 1153 
L 594 3053 
L 172 3053 
L 172 3500 
L 594 3500 
L 594 4494 
L 1172 4494 
z
" transform="scale(0.015625)"/>
       <path id="DejaVuSans-69" d="M 603 3500 
L 1178 3500 
L 1178 0 
L 603 0 
L 603 3500 
z
M 603 4863 
L 1178 4863 
L 1178 4134 
L 603 4134 
L 603 4863 
z
" transform="scale(0.015625)"/>
       <path id="DejaVuSans-6f" d="M 1959 3097 
Q 1497 3097 1228 2736 
Q 959 2375 959 1747 
Q 959 1119 1226 758 
Q 1494 397 1959 397 
Q 2419 397 2687 759 
Q 2956 1122 2956 1747 
Q 2956 2369 2687 2733 
Q 2419 3097 1959 3097 
z
M 1959 3584 
Q 2709 3584 3137 3096 
Q 3566 2609 3566 1747 
Q 3566 888 3137 398 
Q 2709 -91 1959 -91 
Q 1206 -91 779 398 
Q 353 888 353 1747 
Q 353 2609 779 3096 
Q 1206 3584 1959 3584 
z
" transform="scale(0.015625)"/>
       <path id="DejaVuSans-73" d="M 2834 3397 
L 2834 2853 
Q 2591 2978 2328 3040 
Q 2066 3103 1784 3103 
Q 1356 3103 1142 2972 
Q 928 2841 928 2578 
Q 928 2378 1081 2264 
Q 1234 2150 1697 2047 
L 1894 2003 
Q 2506 1872 2764 1633 
Q 3022 1394 3022 966 
Q 3022 478 2636 193 
Q 2250 -91 1575 -91 
Q 1294 -91 989 -36 
Q 684 19 347 128 
L 347 722 
Q 666 556 975 473 
Q 1284 391 1588 391 
Q 1994 391 2212 530 
Q 2431 669 2431 922 
Q 2431 1156 2273 1281 
Q 2116 1406 1581 1522 
L 1381 1569 
Q 847 1681 609 1914 
Q 372 2147 372 2553 
Q 372 3047 722 3315 
Q 1072 3584 1716 3584 
Q 2034 3584 2315 3537 
Q 2597 3491 2834 3397 
z
" transform="scale(0.015625)"/>
      </defs>
      <use xlink:href="#DejaVuSans-47"/>
      <use xlink:href="#DejaVuSans-65" x="77.490234"/>
      <use xlink:href="#DejaVuSans-6e" x="139.013672"/>
      <use xlink:href="#DejaVuSans-65" x="202.392578"/>
      <use xlink:href="#DejaVuSans-72" x="263.916016"/>
      <use xlink:href="#DejaVuSans-61" x="305.029297"/>
      <use xlink:href="#DejaVuSans-74" x="366.308594"/>
      <use xlink:href="#DejaVuSans-69" x="405.517578"/>
      <use xlink:href="#DejaVuSans-6f" x="433.300781"/>
      <use xlink:href="#DejaVuSans-6e" x="494.482422"/>
      <use xlink:href="#DejaVuSans-73" x="557.861328"/>
     </g>
    </g>
   </g>
   <g id="matplotlib.axis_2">
    <g id="ytick_1">
     <g id="line2d_15">
      <path d="M 57.6 302.440785 
L 414.72 302.440785 
" clip-path="url(#pd76753141f)" style="fill: none; stroke: #b0b0b0; stroke-width: 0.8; stroke-linecap: square"/>
     </g>
     <g id="line2d_16">
      <defs>
       <path id="m0d5649a050" d="M 0 0 
L -3.5 0 
" style="stroke: #000000; stroke-width: 0.8"/>
      </defs>
      <g>
       <use xlink:href="#m0d5649a050" x="57.6" y="302.440785" style="stroke: #000000; stroke-width: 0.8"/>
      </g>
     </g>
     <g id="text_9">
      <!-- −120 -->
      <g transform="translate(23.132812 306.240004) scale(0.1 -0.1)">
       <defs>
        <path id="DejaVuSans-2212" d="M 678 2272 
L 4684 2272 
L 4684 1741 
L 678 1741 
L 678 2272 
z
" transform="scale(0.015625)"/>
       </defs>
       <use xlink:href="#DejaVuSans-2212"/>
       <use xlink:href="#DejaVuSans-31" x="83.789062"/>
       <use xlink:href="#DejaVuSans-32" x="147.412109"/>
       <use xlink:href="#DejaVuSans-30" x="211.035156"/>
      </g>
     </g>
    </g>
    <g id="ytick_2">
     <g id="line2d_17">
      <path d="M 57.6 250.50942 
L 414.72 250.50942 
" clip-path="url(#pd76753141f)" style="fill: none; stroke: #b0b0b0; stroke-width: 0.8; stroke-linecap: square"/>
     </g>
     <g id="line2d_18">
      <g>
       <use xlink:href="#m0d5649a050" x="57.6" y="250.50942" style="stroke: #000000; stroke-width: 0.8"/>
      </g>
     </g>
     <g id="text_10">
      <!-- −100 -->
      <g transform="translate(23.132812 254.308638) scale(0.1 -0.1)">
       <use xlink:href="#DejaVuSans-2212"/>
       <use xlink:href="#DejaVuSans-31" x="83.789062"/>
       <use xlink:href="#DejaVuSans-30" x="147.412109"/>
       <use xlink:href="#DejaVuSans-30" x="211.035156"/>
      </g>
     </g>
    </g>
    <g id="ytick_3">
     <g id="line2d_19">
      <path d="M 57.6 198.578055 
L 414.72 198.578055 
" clip-path="url(#pd76753141f)" style="fill: none; stroke: #b0b0b0; stroke-width: 0.8; stroke-linecap: square"/>
     </g>
     <g id="line2d_20">
      <g>
       <use xlink:href="#m0d5649a050" x="57.6" y="198.578055" style="stroke: #000000; stroke-width: 0.8"/>
      </g>
     </g>
     <g id="text_11">
      <!-- −80 -->
      <g transform="translate(29.495313 202.377273) scale(0.1 -0.1)">
       <defs>
        <path id="DejaVuSans-38" d="M 2034 2216 
Q 1584 2216 1326 1975 
Q 1069 1734 1069 1313 
Q 1069 891 1326 650 
Q 1584 409 2034 409 
Q 2484 409 2743 651 
Q 3003 894 3003 1313 
Q 3003 1734 2745 1975 
Q 2488 2216 2034 2216 
z
M 1403 2484 
Q 997 2584 770 2862 
Q 544 3141 544 3541 
Q 544 4100 942 4425 
Q 1341 4750 2034 4750 
Q 2731 4750 3128 4425 
Q 3525 4100 3525 3541 
Q 3525 3141 3298 2862 
Q 3072 2584 2669 2484 
Q 3125 2378 3379 2068 
Q 3634 1759 3634 1313 
Q 3634 634 3220 271 
Q 2806 -91 2034 -91 
Q 1263 -91 848 271 
Q 434 634 434 1313 
Q 434 1759 690 2068 
Q 947 2378 1403 2484 
z
M 1172 3481 
Q 1172 3119 1398 2916 
Q 1625 2713 2034 2713 
Q 2441 2713 2670 2916 
Q 2900 3119 2900 3481 
Q 2900 3844 2670 4047 
Q 2441 4250 2034 4250 
Q 1625 4250 1398 4047 
Q 1172 3844 1172 3481 
z
" transform="scale(0.015625)"/>
       </defs>
       <use xlink:href="#DejaVuSans-2212"/>
       <use xlink:href="#DejaVuSans-38" x="83.789062"/>
       <use xlink:href="#DejaVuSans-30" x="147.412109"/>
      </g>
     </g>
    </g>
    <g id="ytick_4">
     <g id="line2d_21">
      <path d="M 57.6 146.646689 
L 414.72 146.646689 
" clip-path="url(#pd76753141f)" style="fill: none; stroke: #b0b0b0; stroke-width: 0.8; stroke-linecap: square"/>
     </g>
     <g id="line2d_22">
      <g>
       <use xlink:href="#m0d5649a050" x="57.6" y="146.646689" style="stroke: #000000; stroke-width: 0.8"/>
      </g>
     </g>
     <g id="text_12">
      <!-- −60 -->
      <g transform="translate(29.495313 150.445908) scale(0.1 -0.1)">
       <defs>
        <path id="DejaVuSans-36" d="M 2113 2584 
Q 1688 2584 1439 2293 
Q 1191 2003 1191 1497 
Q 1191 994 1439 701 
Q 1688 409 2113 409 
Q 2538 409 2786 701 
Q 3034 994 3034 1497 
Q 3034 2003 2786 2293 
Q 2538 2584 2113 2584 
z
M 3366 4563 
L 3366 3988 
Q 3128 4100 2886 4159 
Q 2644 4219 2406 4219 
Q 1781 4219 1451 3797 
Q 1122 3375 1075 2522 
Q 1259 2794 1537 2939 
Q 1816 3084 2150 3084 
Q 2853 3084 3261 2657 
Q 3669 2231 3669 1497 
Q 3669 778 3244 343 
Q 2819 -91 2113 -91 
Q 1303 -91 875 529 
Q 447 1150 447 2328 
Q 447 3434 972 4092 
Q 1497 4750 2381 4750 
Q 2619 4750 2861 4703 
Q 3103 4656 3366 4563 
z
" transform="scale(0.015625)"/>
       </defs>
       <use xlink:href="#DejaVuSans-2212"/>
       <use xlink:href="#DejaVuSans-36" x="83.789062"/>
       <use xlink:href="#DejaVuSans-30" x="147.412109"/>
      </g>
     </g>
    </g>
    <g id="ytick_5">
     <g id="line2d_23">
      <path d="M 57.6 94.715324 
L 414.72 94.715324 
" clip-path="url(#pd76753141f)" style="fill: none; stroke: #b0b0b0; stroke-width: 0.8; stroke-linecap: square"/>
     </g>
     <g id="line2d_24">
      <g>
       <use xlink:href="#m0d5649a050" x="57.6" y="94.715324" style="stroke: #000000; stroke-width: 0.8"/>
      </g>
     </g>
     <g id="text_13">
      <!-- −40 -->
      <g transform="translate(29.495313 98.514543) scale(0.1 -0.1)">
       <defs>
        <path id="DejaVuSans-34" d="M 2419 4116 
L 825 1625 
L 2419 1625 
L 2419 4116 
z
M 2253 4666 
L 3047 4666 
L 3047 1625 
L 3713 1625 
L 3713 1100 
L 3047 1100 
L 3047 0 
L 2419 0 
L 2419 1100 
L 313 1100 
L 313 1709 
L 2253 4666 
z
" transform="scale(0.015625)"/>
       </defs>
       <use xlink:href="#DejaVuSans-2212"/>
       <use xlink:href="#DejaVuSans-34" x="83.789062"/>
       <use xlink:href="#DejaVuSans-30" x="147.412109"/>
      </g>
     </g>
    </g>
    <g id="ytick_6">
     <g id="line2d_25">
      <path d="M 57.6 42.783959 
L 414.72 42.783959 
" clip-path="url(#pd76753141f)" style="fill: none; stroke: #b0b0b0; stroke-width: 0.8; stroke-linecap: square"/>
     </g>
     <g id="line2d_26">
      <g>
       <use xlink:href="#m0d5649a050" x="57.6" y="42.783959" style="stroke: #000000; stroke-width: 0.8"/>
      </g>
     </g>
     <g id="text_14">
      <!-- −20 -->
      <g transform="translate(29.495313 46.583178) scale(0.1 -0.1)">
       <use xlink:href="#DejaVuSans-2212"/>
       <use xlink:href="#DejaVuSans-32" x="83.789062"/>
       <use xlink:href="#DejaVuSans-30" x="147.412109"/>
      </g>
     </g>
    </g>
    <g id="text_15">
     <!-- Fitness -->
     <g transform="translate(17.053125 191.845187) rotate(-90) scale(0.1 -0.1)">
      <defs>
       <path id="DejaVuSans-46" d="M 628 4666 
L 3309 4666 
L 3309 4134 
L 1259 4134 
L 1259 2759 
L 3109 2759 
L 3109 2228 
L 1259 2228 
L 1259 0 
L 628 0 
L 628 4666 
z
" transform="scale(0.015625)"/>
      </defs>
      <use xlink:href="#DejaVuSans-46"/>
      <use xlink:href="#DejaVuSans-69" x="50.269531"/>
      <use xlink:href="#DejaVuSans-74" x="78.052734"/>
      <use xlink:href="#DejaVuSans-6e" x="117.261719"/>
      <use xlink:href="#DejaVuSans-65" x="180.640625"/>
      <use xlink:href="#DejaVuSans-73" x="242.164062"/>
      <use xlink:href="#DejaVuSans-73" x="294.263672"/>
     </g>
    </g>
   </g>
   <g id="line2d_27">
    <path d="M 73.832727 255.655602 
L 74.918528 237.325343 
L 76.00433 230.089162 
L 77.090131 227.377924 
L 78.175932 223.655697 
L 79.261733 218.835059 
L 80.347534 216.554778 
L 81.433335 216.928206 
L 82.519137 210.82285 
L 83.604938 209.467017 
L 84.690739 206.6313 
L 85.77654 213.829757 
L 86.862341 209.917948 
L 87.948142 203.922719 
L 89.033943 209.465307 
L 91.205546 200.117886 
L 92.291347 205.885024 
L 93.377148 198.329335 
L 94.462949 203.031471 
L 95.54875 206.799431 
L 96.634552 212.132298 
L 97.720353 206.890506 
L 98.806154 211.079699 
L 99.891955 206.70109 
L 102.063557 194.859368 
L 103.149358 200.62625 
L 104.23516 201.957672 
L 105.320961 193.077857 
L 106.406762 201.77023 
L 107.492563 194.524664 
L 108.578364 209.998404 
L 109.664165 206.851778 
L 110.749967 199.665626 
L 111.835768 204.066637 
L 112.921569 200.315496 
L 114.00737 200.672921 
L 115.093171 200.447472 
L 116.178972 204.823696 
L 117.264773 199.589379 
L 118.350575 200.518621 
L 119.436376 204.810488 
L 120.522177 210.236292 
L 121.607978 195.247387 
L 122.693779 197.045694 
L 123.77958 192.378575 
L 124.865382 181.331584 
L 125.951183 196.779636 
L 127.036984 198.687485 
L 128.122785 211.227367 
L 129.208586 206.698214 
L 130.294387 203.815601 
L 131.380189 202.459977 
L 132.46599 197.790385 
L 133.551791 200.575363 
L 134.637592 195.68823 
L 135.723393 192.696023 
L 136.809194 196.921538 
L 137.894995 199.235771 
L 138.980797 190.944444 
L 140.066598 204.065834 
L 141.152399 189.627822 
L 142.2382 193.610624 
L 144.409802 203.247464 
L 145.495604 199.096255 
L 146.581405 206.467111 
L 147.667206 198.574922 
L 148.753007 194.372907 
L 149.838808 191.361524 
L 150.924609 201.290953 
L 152.01041 202.369083 
L 153.096212 191.368964 
L 154.182013 185.159267 
L 155.267814 200.373977 
L 156.353615 191.212051 
L 157.439416 195.2676 
L 158.525217 191.927071 
L 159.611019 202.61439 
L 160.69682 199.191816 
L 161.782621 191.722967 
L 162.868422 199.998427 
L 163.954223 193.433948 
L 165.040024 188.114015 
L 166.125825 187.941674 
L 167.211627 198.08067 
L 168.297428 190.358907 
L 169.383229 190.219615 
L 170.46903 197.724836 
L 171.554831 199.393026 
L 172.640632 196.623392 
L 173.726434 199.781731 
L 174.812235 199.818164 
L 175.898036 195.198995 
L 176.983837 197.844411 
L 179.155439 193.505113 
L 180.24124 191.7663 
L 181.327042 188.30616 
L 182.412843 190.734501 
L 183.498644 190.551511 
L 184.584445 200.95279 
L 185.670246 200.056462 
L 186.756047 199.923422 
L 187.841849 198.240418 
L 188.92765 197.375181 
L 190.013451 191.966652 
L 191.099252 191.916903 
L 192.185053 198.841524 
L 193.270854 197.592537 
L 194.356656 204.632201 
L 195.442457 204.512335 
L 196.528258 187.584048 
L 197.614059 198.512721 
L 198.69986 204.777248 
L 199.785661 199.382055 
L 200.871462 205.11072 
L 201.957264 190.362515 
L 203.043065 196.057041 
L 204.128866 191.364032 
L 205.214667 194.898756 
L 206.300468 196.350764 
L 207.386269 185.897068 
L 208.472071 195.207036 
L 209.557872 217.008357 
L 210.643673 206.252285 
L 211.729474 199.763529 
L 212.815275 200.644567 
L 213.901076 203.414196 
L 214.986877 197.79213 
L 216.072679 198.882218 
L 217.15848 194.452557 
L 218.244281 200.164035 
L 219.330082 198.819171 
L 220.415883 200.210233 
L 222.587486 205.263587 
L 223.673287 200.017624 
L 224.759088 197.280406 
L 225.844889 190.56183 
L 226.93069 206.447235 
L 228.016491 210.40629 
L 229.102292 197.931102 
L 230.188094 212.087903 
L 231.273895 219.336611 
L 232.359696 221.596168 
L 233.445497 208.971386 
L 234.531298 215.747879 
L 235.617099 215.730665 
L 236.702901 217.913553 
L 237.788702 216.486632 
L 238.874503 207.667372 
L 239.960304 201.667959 
L 241.046105 209.285838 
L 242.131906 212.440358 
L 243.217708 207.123681 
L 244.303509 204.646138 
L 245.38931 198.131791 
L 246.475111 200.473133 
L 247.560912 193.623589 
L 248.646713 182.899153 
L 249.732514 195.053868 
L 250.818316 191.584693 
L 251.904117 189.283743 
L 252.989918 190.431408 
L 254.075719 188.463432 
L 255.16152 201.282508 
L 256.247321 199.638554 
L 257.333123 188.044858 
L 258.418924 191.149902 
L 259.504725 190.717727 
L 260.590526 190.960751 
L 261.676327 193.032085 
L 262.762128 177.48728 
L 263.847929 192.361111 
L 264.933731 179.860004 
L 266.019532 191.01228 
L 267.105333 185.678663 
L 268.191134 176.713873 
L 269.276935 177.31076 
L 270.362736 168.887222 
L 271.448538 183.260558 
L 272.534339 179.222516 
L 273.62014 184.963652 
L 274.705941 177.137605 
L 275.791742 172.559521 
L 276.877543 176.609087 
L 277.963344 178.343563 
L 279.049146 172.817164 
L 280.134947 174.033154 
L 281.220748 176.890291 
L 282.306549 172.053036 
L 283.39235 184.460842 
L 284.478151 166.831206 
L 285.563953 158.596838 
L 286.649754 174.246113 
L 287.735555 160.354935 
L 288.821356 153.492822 
L 289.907157 174.492977 
L 290.992958 174.111816 
L 292.07876 171.634717 
L 293.164561 177.056294 
L 294.250362 178.002693 
L 295.336163 170.96825 
L 296.421964 157.941034 
L 297.507765 154.581474 
L 298.593566 164.310466 
L 299.679368 177.294706 
L 300.765169 166.455976 
L 301.85097 176.922752 
L 302.936771 167.318804 
L 304.022572 169.94127 
L 305.108373 169.233505 
L 306.194175 159.979986 
L 307.279976 168.055344 
L 308.365777 167.016243 
L 309.451578 168.077422 
L 310.537379 171.127512 
L 311.62318 179.567799 
L 312.708981 177.172311 
L 313.794783 160.821707 
L 314.880584 155.323501 
L 315.966385 159.798245 
L 317.052186 176.49134 
L 318.137987 179.03762 
L 319.223788 167.03666 
L 320.30959 170.068038 
L 321.395391 174.011779 
L 322.481192 160.982383 
L 323.566993 173.803334 
L 324.652794 156.779701 
L 325.738595 160.343299 
L 326.824396 180.040705 
L 327.910198 155.53618 
L 328.995999 163.198817 
L 330.0818 153.835863 
L 331.167601 152.500598 
L 332.253402 153.027012 
L 333.339203 179.7832 
L 334.425005 165.051833 
L 335.510806 165.073894 
L 336.596607 152.269711 
L 337.682408 155.213165 
L 338.768209 155.845046 
L 339.85401 154.130115 
L 340.939811 156.963865 
L 342.025613 183.517416 
L 343.111414 168.314255 
L 344.197215 161.929854 
L 345.283016 157.948179 
L 346.368817 146.98086 
L 348.54042 161.543001 
L 349.626221 154.172926 
L 350.712022 163.638074 
L 351.797823 161.389006 
L 352.883624 166.646103 
L 353.969425 159.906994 
L 355.055227 166.283629 
L 356.141028 166.172254 
L 357.226829 157.734422 
L 358.31263 164.060761 
L 359.398431 161.637253 
L 360.484232 168.398655 
L 361.570033 151.130969 
L 362.655835 160.320844 
L 363.741636 148.224879 
L 364.827437 168.499081 
L 365.913238 155.024669 
L 366.999039 157.143552 
L 368.08484 161.199987 
L 369.170642 164.41396 
L 370.256443 152.71045 
L 371.342244 160.173217 
L 372.428045 134.845822 
L 373.513846 165.475282 
L 374.599647 159.846222 
L 375.685448 141.070979 
L 376.77125 186.176941 
L 377.857051 156.596334 
L 378.942852 159.182685 
L 380.028653 153.895784 
L 381.114454 160.669932 
L 382.200255 184.978654 
L 383.286057 142.847441 
L 384.371858 152.877662 
L 385.457659 150.687343 
L 386.54346 160.930277 
L 387.629261 164.052414 
L 388.715062 145.624139 
L 389.800863 164.072569 
L 390.886665 153.908013 
L 391.972466 163.449561 
L 393.058267 167.159991 
L 394.144068 166.113745 
L 395.229869 159.089125 
L 397.401472 153.189847 
L 398.487273 148.20336 
L 398.487273 148.20336 
" clip-path="url(#pd76753141f)" style="fill: none; stroke: #0000ff; stroke-width: 1.5; stroke-linecap: square"/>
   </g>
   <g id="line2d_28">
    <path d="M 73.832727 295.488 
L 74.918528 280.099191 
L 76.00433 270.132484 
L 77.090131 265.770641 
L 78.175932 265.031273 
L 79.261733 259.47377 
L 80.347534 266.969649 
L 81.433335 262.597483 
L 82.519137 255.95854 
L 83.604938 259.451814 
L 84.690739 252.603755 
L 85.77654 261.770798 
L 86.862341 257.202087 
L 87.948142 258.542093 
L 89.033943 263.657579 
L 90.119745 254.985273 
L 91.205546 256.26399 
L 92.291347 259.011 
L 93.377148 253.100954 
L 94.462949 252.497794 
L 95.54875 262.007173 
L 96.634552 274.550051 
L 97.720353 257.7884 
L 98.806154 267.603586 
L 99.891955 264.296662 
L 100.977756 255.790691 
L 102.063557 251.010986 
L 103.149358 256.94872 
L 104.23516 259.232381 
L 105.320961 245.447213 
L 106.406762 251.093043 
L 107.492563 248.085913 
L 108.578364 269.562289 
L 110.749967 253.631945 
L 111.835768 256.610259 
L 112.921569 255.144771 
L 114.00737 255.364635 
L 115.093171 253.950236 
L 116.178972 260.972133 
L 117.264773 255.129152 
L 118.350575 255.384981 
L 119.436376 258.450232 
L 120.522177 266.220431 
L 121.607978 248.636774 
L 122.693779 248.73317 
L 123.77958 246.0149 
L 124.865382 233.67609 
L 125.951183 251.465389 
L 127.036984 247.649011 
L 128.122785 265.748698 
L 129.208586 258.826161 
L 130.294387 258.481234 
L 131.380189 262.009706 
L 132.46599 254.453747 
L 133.551791 255.028568 
L 134.637592 253.524308 
L 135.723393 245.1332 
L 136.809194 254.302642 
L 137.894995 249.850019 
L 138.980797 239.905569 
L 140.066598 266.170877 
L 141.152399 245.430674 
L 142.2382 246.855942 
L 143.324001 252.73044 
L 144.409802 260.365525 
L 145.495604 259.405385 
L 146.581405 262.579621 
L 147.667206 253.857852 
L 148.753007 249.467682 
L 149.838808 249.464297 
L 150.924609 259.132466 
L 152.01041 267.081329 
L 153.096212 250.308898 
L 154.182013 246.645036 
L 155.267814 258.570418 
L 156.353615 254.324874 
L 157.439416 250.957895 
L 158.525217 251.973364 
L 159.611019 266.171282 
L 160.69682 260.184865 
L 161.782621 251.423226 
L 162.868422 258.822885 
L 163.954223 255.749812 
L 165.040024 247.112003 
L 166.125825 248.009739 
L 167.211627 260.181665 
L 168.297428 251.177544 
L 169.383229 246.87934 
L 170.46903 257.036422 
L 171.554831 257.22056 
L 172.640632 254.13894 
L 173.726434 263.631715 
L 174.812235 259.849577 
L 175.898036 254.24898 
L 176.983837 252.435279 
L 178.069638 257.994979 
L 179.155439 253.242921 
L 180.24124 249.228938 
L 181.327042 247.535017 
L 182.412843 254.944043 
L 183.498644 249.876291 
L 184.584445 264.397454 
L 185.670246 254.157649 
L 186.756047 264.504575 
L 187.841849 261.593282 
L 188.92765 259.842459 
L 190.013451 249.962552 
L 191.099252 248.699519 
L 192.185053 255.617723 
L 193.270854 249.670334 
L 194.356656 262.837733 
L 195.442457 265.57977 
L 196.528258 245.523454 
L 197.614059 256.405572 
L 198.69986 263.214553 
L 199.785661 264.500746 
L 200.871462 264.458398 
L 201.957264 244.133519 
L 203.043065 258.012001 
L 204.128866 251.642291 
L 205.214667 254.444609 
L 206.300468 261.943688 
L 207.386269 243.71564 
L 208.472071 252.715827 
L 209.557872 281.875973 
L 210.643673 259.996987 
L 211.729474 249.340195 
L 212.815275 254.079827 
L 213.901076 257.707905 
L 214.986877 249.293245 
L 216.072679 256.318296 
L 217.15848 252.505623 
L 218.244281 262.053783 
L 219.330082 256.994357 
L 220.415883 260.42842 
L 221.501684 260.84299 
L 222.587486 264.35754 
L 223.673287 256.537082 
L 224.759088 256.610096 
L 225.844889 249.576685 
L 226.93069 260.177451 
L 228.016491 267.657699 
L 229.102292 253.408626 
L 230.188094 270.668684 
L 231.273895 272.34526 
L 232.359696 282.810819 
L 233.445497 271.719837 
L 234.531298 280.450387 
L 235.617099 275.162494 
L 236.702901 275.913408 
L 237.788702 275.960975 
L 238.874503 263.46747 
L 239.960304 259.270461 
L 241.046105 268.826421 
L 242.131906 275.327444 
L 243.217708 269.185753 
L 244.303509 266.853556 
L 245.38931 259.430974 
L 246.475111 265.938213 
L 247.560912 259.877318 
L 248.646713 246.196702 
L 249.732514 260.394587 
L 250.818316 257.163203 
L 251.904117 257.791143 
L 252.989918 260.863886 
L 254.075719 253.384424 
L 255.16152 277.461467 
L 256.247321 271.008553 
L 257.333123 258.019452 
L 258.418924 250.492139 
L 259.504725 260.111796 
L 260.590526 259.806155 
L 261.676327 256.206293 
L 262.762128 241.090527 
L 263.847929 259.034564 
L 264.933731 248.263406 
L 266.019532 260.116953 
L 267.105333 250.783369 
L 268.191134 243.74267 
L 269.276935 246.455598 
L 270.362736 230.958079 
L 271.448538 252.256389 
L 272.534339 244.672476 
L 273.62014 258.18895 
L 274.705941 244.50589 
L 275.791742 245.629837 
L 276.877543 248.013442 
L 277.963344 252.654152 
L 279.049146 243.578509 
L 280.134947 245.288249 
L 281.220748 251.777662 
L 282.306549 247.4695 
L 283.39235 259.027336 
L 284.478151 242.121537 
L 285.563953 230.87353 
L 286.649754 251.011397 
L 287.735555 228.609321 
L 288.821356 218.478964 
L 289.907157 246.789848 
L 290.992958 245.623172 
L 292.07876 242.631746 
L 293.164561 245.388596 
L 294.250362 247.763949 
L 295.336163 242.72555 
L 296.421964 225.876185 
L 297.507765 231.851472 
L 298.593566 229.442982 
L 299.679368 253.549522 
L 300.765169 241.247008 
L 301.85097 249.437249 
L 302.936771 237.752705 
L 304.022572 245.775147 
L 305.108373 246.663563 
L 306.194175 238.75853 
L 307.279976 242.504481 
L 308.365777 245.730313 
L 309.451578 241.493194 
L 310.537379 245.00389 
L 311.62318 258.442037 
L 312.708981 254.557639 
L 313.794783 238.322438 
L 314.880584 237.98932 
L 315.966385 233.671471 
L 317.052186 256.563042 
L 318.137987 257.828862 
L 319.223788 242.596504 
L 320.30959 251.595433 
L 321.395391 254.847578 
L 322.481192 239.729573 
L 323.566993 262.61709 
L 324.652794 239.505689 
L 325.738595 247.897775 
L 326.824396 268.77529 
L 327.910198 240.378674 
L 328.995999 248.560382 
L 330.0818 238.026215 
L 331.167601 241.76518 
L 332.253402 236.453111 
L 333.339203 261.633741 
L 334.425005 246.55175 
L 335.510806 247.426734 
L 336.596607 227.394637 
L 337.682408 236.857764 
L 338.768209 239.068697 
L 339.85401 233.273936 
L 340.939811 239.171234 
L 342.025613 270.447188 
L 343.111414 252.479969 
L 344.197215 250.810779 
L 345.283016 244.636954 
L 346.368817 228.219255 
L 347.454618 235.990566 
L 348.54042 250.188228 
L 349.626221 238.353668 
L 350.712022 253.386431 
L 351.797823 248.747568 
L 352.883624 250.427112 
L 353.969425 247.242867 
L 355.055227 256.426125 
L 356.141028 251.74099 
L 357.226829 241.900179 
L 358.31263 252.592478 
L 359.398431 250.571751 
L 360.484232 247.877071 
L 361.570033 237.229314 
L 362.655835 245.25249 
L 363.741636 229.55685 
L 364.827437 255.466924 
L 365.913238 241.531812 
L 366.999039 243.259142 
L 368.08484 247.734644 
L 369.170642 249.082755 
L 370.256443 228.647772 
L 371.342244 245.042032 
L 372.428045 216.123644 
L 373.513846 250.953685 
L 374.599647 237.636277 
L 375.685448 221.697663 
L 376.77125 267.600215 
L 377.857051 239.550911 
L 378.942852 238.624115 
L 380.028653 235.628765 
L 381.114454 237.763797 
L 382.200255 273.763645 
L 383.286057 215.824089 
L 384.371858 241.256407 
L 385.457659 233.666197 
L 386.54346 239.790896 
L 387.629261 248.411219 
L 388.715062 222.961986 
L 389.800863 250.680803 
L 390.886665 235.896954 
L 391.972466 252.595696 
L 393.058267 254.290487 
L 394.144068 252.888644 
L 395.229869 238.328168 
L 396.31567 241.011574 
L 398.487273 232.917086 
L 398.487273 232.917086 
" clip-path="url(#pd76753141f)" style="fill: none; stroke-dasharray: 9.6,2.4,1.5,2.4; stroke-dashoffset: 0; stroke: #008000; stroke-width: 1.5"/>
   </g>
   <g id="line2d_29">
    <path d="M 73.832727 215.823204 
L 74.918528 194.551494 
L 76.00433 190.04584 
L 77.090131 188.985207 
L 78.175932 182.28012 
L 79.261733 178.196349 
L 80.347534 166.139906 
L 81.433335 171.258929 
L 82.519137 165.68716 
L 83.604938 159.482221 
L 84.690739 160.658845 
L 85.77654 165.888715 
L 86.862341 162.633808 
L 87.948142 149.303346 
L 89.033943 155.273035 
L 90.119745 154.45272 
L 91.205546 143.971782 
L 92.291347 152.759048 
L 93.377148 143.557717 
L 94.462949 153.565148 
L 96.634552 149.714545 
L 97.720353 155.992612 
L 98.806154 154.555813 
L 99.891955 149.105517 
L 100.977756 145.638269 
L 102.063557 138.70775 
L 103.149358 144.303779 
L 104.23516 144.682962 
L 105.320961 140.708501 
L 106.406762 152.447417 
L 107.492563 140.963415 
L 108.578364 150.434518 
L 109.664165 151.826363 
L 110.749967 145.699308 
L 111.835768 151.523015 
L 112.921569 145.486221 
L 114.00737 145.981208 
L 115.093171 146.944708 
L 116.178972 148.67526 
L 117.264773 144.049607 
L 118.350575 145.652261 
L 119.436376 151.170744 
L 120.522177 154.252153 
L 121.607978 141.857999 
L 122.693779 145.358218 
L 123.77958 138.74225 
L 124.865382 128.987078 
L 125.951183 142.093884 
L 128.122785 156.706035 
L 129.208586 154.570266 
L 130.294387 149.149967 
L 131.380189 142.910248 
L 132.46599 141.127022 
L 133.551791 146.122159 
L 134.637592 137.852151 
L 135.723393 140.258847 
L 136.809194 139.540434 
L 137.894995 148.621523 
L 138.980797 141.983319 
L 140.066598 141.960791 
L 141.152399 133.824971 
L 142.2382 140.365305 
L 143.324001 143.968078 
L 144.409802 146.129404 
L 145.495604 138.787126 
L 146.581405 150.3546 
L 147.667206 143.291993 
L 148.753007 139.278133 
L 149.838808 133.258751 
L 150.924609 143.44944 
L 153.096212 132.42903 
L 154.182013 123.673497 
L 155.267814 142.177536 
L 156.353615 128.099227 
L 157.439416 139.577304 
L 158.525217 131.880778 
L 159.611019 139.057498 
L 160.69682 138.198766 
L 161.782621 132.022708 
L 162.868422 141.173969 
L 163.954223 131.118084 
L 165.040024 129.116028 
L 166.125825 127.873609 
L 167.211627 135.979675 
L 168.297428 129.540271 
L 169.383229 133.55989 
L 170.46903 138.41325 
L 171.554831 141.565492 
L 172.640632 139.107844 
L 173.726434 135.931747 
L 174.812235 139.786752 
L 175.898036 136.149009 
L 176.983837 143.253544 
L 178.069638 133.208467 
L 180.24124 134.303661 
L 181.327042 129.077304 
L 182.412843 126.524959 
L 183.498644 131.226731 
L 184.584445 137.508127 
L 185.670246 145.955275 
L 186.756047 135.34227 
L 187.841849 134.887555 
L 188.92765 134.907904 
L 190.013451 133.970752 
L 191.099252 135.134288 
L 192.185053 142.065326 
L 193.270854 145.514741 
L 194.356656 146.426668 
L 195.442457 143.4449 
L 196.528258 129.644643 
L 197.614059 140.61987 
L 198.69986 146.339942 
L 199.785661 134.263365 
L 200.871462 145.763042 
L 201.957264 136.591512 
L 203.043065 134.102081 
L 204.128866 131.085773 
L 205.214667 135.352903 
L 206.300468 130.757841 
L 207.386269 128.078496 
L 208.472071 137.698245 
L 209.557872 152.140741 
L 210.643673 152.507583 
L 211.729474 150.186862 
L 212.815275 147.209308 
L 213.901076 149.120487 
L 214.986877 146.291014 
L 217.15848 136.39949 
L 218.244281 138.274287 
L 219.330082 140.643984 
L 220.415883 139.992047 
L 221.501684 144.721955 
L 222.587486 146.169633 
L 223.673287 143.498167 
L 224.759088 137.950716 
L 225.844889 131.546975 
L 226.93069 152.717019 
L 228.016491 153.154881 
L 229.102292 142.453578 
L 230.188094 153.507122 
L 231.273895 166.327962 
L 232.359696 160.381517 
L 233.445497 146.222935 
L 235.617099 156.298835 
L 236.702901 159.913698 
L 237.788702 157.012288 
L 238.874503 151.867274 
L 239.960304 144.065457 
L 241.046105 149.745255 
L 242.131906 149.553271 
L 243.217708 145.061609 
L 244.303509 142.438721 
L 245.38931 136.832608 
L 246.475111 135.008054 
L 248.646713 119.601605 
L 249.732514 129.713149 
L 250.818316 126.006184 
L 251.904117 120.776343 
L 252.989918 119.998931 
L 254.075719 123.542439 
L 255.16152 125.10355 
L 256.247321 128.268555 
L 257.333123 118.070265 
L 258.418924 131.807664 
L 259.504725 121.323659 
L 260.590526 122.115348 
L 261.676327 129.857877 
L 262.762128 113.884033 
L 263.847929 125.687658 
L 264.933731 111.456603 
L 266.019532 121.907606 
L 267.105333 120.573957 
L 268.191134 109.685076 
L 270.362736 106.816366 
L 271.448538 114.264726 
L 272.534339 113.772555 
L 274.705941 109.769321 
L 275.791742 99.489206 
L 276.877543 105.204732 
L 277.963344 104.032974 
L 279.049146 102.055819 
L 280.134947 102.77806 
L 281.220748 102.00292 
L 282.306549 96.636572 
L 283.39235 109.894347 
L 284.478151 91.540875 
L 285.563953 86.320146 
L 286.649754 97.480828 
L 287.735555 92.10055 
L 288.821356 88.506679 
L 289.907157 102.196105 
L 290.992958 102.60046 
L 292.07876 100.637687 
L 293.164561 108.723991 
L 294.250362 108.241438 
L 296.421964 90.005883 
L 297.507765 77.311476 
L 298.593566 99.177949 
L 299.679368 101.03989 
L 300.765169 91.664945 
L 301.85097 104.408256 
L 302.936771 96.884903 
L 304.022572 94.107393 
L 305.108373 91.803448 
L 306.194175 81.201442 
L 307.279976 93.606206 
L 308.365777 88.302173 
L 309.451578 94.661651 
L 310.537379 97.251134 
L 311.62318 100.693562 
L 312.708981 99.786984 
L 313.794783 83.320976 
L 314.880584 72.657681 
L 315.966385 85.925019 
L 317.052186 96.419638 
L 318.137987 100.246379 
L 319.223788 91.476816 
L 320.30959 88.540642 
L 321.395391 93.17598 
L 322.481192 82.235192 
L 323.566993 84.989577 
L 324.652794 74.053713 
L 325.738595 72.788822 
L 326.824396 91.306119 
L 327.910198 70.693687 
L 328.995999 77.837253 
L 330.0818 69.645511 
L 331.167601 63.236017 
L 332.253402 69.600912 
L 333.339203 97.932659 
L 334.425005 83.551915 
L 335.510806 82.721054 
L 336.596607 77.144786 
L 337.682408 73.568565 
L 338.768209 72.621395 
L 339.85401 74.986294 
L 340.939811 74.756497 
L 342.025613 96.587644 
L 343.111414 84.14854 
L 344.197215 73.048929 
L 345.283016 71.259404 
L 346.368817 65.742464 
L 347.454618 72.121165 
L 348.54042 72.897774 
L 349.626221 69.992184 
L 350.712022 73.889718 
L 351.797823 74.030443 
L 352.883624 82.865094 
L 353.969425 72.571121 
L 355.055227 76.141133 
L 356.141028 80.603517 
L 357.226829 73.568666 
L 358.31263 75.529043 
L 359.398431 72.702756 
L 360.484232 88.920239 
L 361.570033 65.032623 
L 362.655835 75.389197 
L 363.741636 66.892908 
L 364.827437 81.531238 
L 365.913238 68.517527 
L 366.999039 71.027963 
L 368.08484 74.66533 
L 369.170642 79.745166 
L 370.256443 76.773128 
L 371.342244 75.304403 
L 372.428045 53.568 
L 373.513846 79.996878 
L 374.599647 82.056166 
L 375.685448 60.444296 
L 376.77125 104.753667 
L 377.857051 73.641757 
L 378.942852 79.741254 
L 380.028653 72.162804 
L 381.114454 83.576066 
L 382.200255 96.193664 
L 383.286057 69.870792 
L 384.371858 64.498916 
L 385.457659 67.70849 
L 386.54346 82.069657 
L 387.629261 79.693608 
L 388.715062 68.286293 
L 389.800863 77.464335 
L 390.886665 71.919071 
L 391.972466 74.303427 
L 393.058267 80.029496 
L 394.144068 79.338845 
L 395.229869 79.850081 
L 396.31567 71.053465 
L 397.401472 69.450932 
L 398.487273 63.489634 
L 398.487273 63.489634 
" clip-path="url(#pd76753141f)" style="fill: none; stroke-dasharray: 9.6,2.4,1.5,2.4; stroke-dashoffset: 0; stroke: #008000; stroke-width: 1.5"/>
   </g>
   <g id="line2d_30">
    <path d="M 73.832727 133.240261 
L 78.175932 133.240261 
L 79.261733 108.659002 
L 80.347534 92.681888 
L 89.033943 92.681888 
L 90.119745 86.729005 
L 121.607978 86.729005 
L 122.693779 78.568549 
L 129.208586 78.568549 
L 130.294387 77.097461 
L 133.551791 77.097461 
L 134.637592 75.632998 
L 170.46903 75.632998 
L 171.554831 69.878292 
L 225.844889 69.878292 
L 226.93069 70.316747 
L 233.445497 70.316747 
L 234.531298 69.865325 
L 241.046105 69.865325 
L 242.131906 68.351457 
L 243.217708 68.351457 
L 244.303509 65.472503 
L 245.38931 65.472503 
L 247.560912 62.860558 
L 263.847929 62.860558 
L 264.933731 61.052863 
L 281.220748 61.052863 
L 282.306549 60.257355 
L 301.85097 60.257355 
L 302.936771 58.699578 
L 304.022572 58.496837 
L 305.108373 58.496837 
L 306.194175 57.653583 
L 307.279976 57.587362 
L 308.365777 56.957686 
L 313.794783 56.945879 
L 314.880584 56.337076 
L 321.395391 56.337076 
L 322.481192 56.050031 
L 327.910198 56.050031 
L 328.995999 55.925808 
L 332.253402 55.925808 
L 333.339203 55.2031 
L 365.913238 55.2031 
L 366.999039 54.754099 
L 393.058267 54.754099 
L 394.144068 54.171997 
L 398.487273 54.171997 
L 398.487273 54.171997 
" clip-path="url(#pd76753141f)" style="fill: none; stroke: #ff0000; stroke-width: 1.5; stroke-linecap: square"/>
   </g>
   <g id="patch_3">
    <path d="M 57.6 307.584 
L 57.6 41.472 
" style="fill: none; stroke: #000000; stroke-width: 0.8; stroke-linejoin: miter; stroke-linecap: square"/>
   </g>
   <g id="patch_4">
    <path d="M 414.72 307.584 
L 414.72 41.472 
" style="fill: none; stroke: #000000; stroke-width: 0.8; stroke-linejoin: miter; stroke-linecap: square"/>
   </g>
   <g id="patch_5">
    <path d="M 57.6 307.584 
L 414.72 307.584 
" style="fill: none; stroke: #000000; stroke-width: 0.8; stroke-linejoin: miter; stroke-linecap: square"/>
   </g>
   <g id="patch_6">
    <path d="M 57.6 41.472 
L 414.72 41.472 
" style="fill: none; stroke: #000000; stroke-width: 0.8; stroke-linejoin: miter; stroke-linecap: square"/>
   </g>
   <g id="text_16">
    <!-- Population's average and best fitness -->
    <g transform="translate(123.529687 35.472) scale(0.12 -0.12)">
     <defs>
      <path id="DejaVuSans-50" d="M 1259 4147 
L 1259 2394 
L 2053 2394 
Q 2494 2394 2734 2622 
Q 2975 2850 2975 3272 
Q 2975 3691 2734 3919 
Q 2494 4147 2053 4147 
L 1259 4147 
z
M 628 4666 
L 2053 4666 
Q 2838 4666 3239 4311 
Q 3641 3956 3641 3272 
Q 3641 2581 3239 2228 
Q 2838 1875 2053 1875 
L 1259 1875 
L 1259 0 
L 628 0 
L 628 4666 
z
" transform="scale(0.015625)"/>
      <path id="DejaVuSans-70" d="M 1159 525 
L 1159 -1331 
L 581 -1331 
L 581 3500 
L 1159 3500 
L 1159 2969 
Q 1341 3281 1617 3432 
Q 1894 3584 2278 3584 
Q 2916 3584 3314 3078 
Q 3713 2572 3713 1747 
Q 3713 922 3314 415 
Q 2916 -91 2278 -91 
Q 1894 -91 1617 61 
Q 1341 213 1159 525 
z
M 3116 1747 
Q 3116 2381 2855 2742 
Q 2594 3103 2138 3103 
Q 1681 3103 1420 2742 
Q 1159 2381 1159 1747 
Q 1159 1113 1420 752 
Q 1681 391 2138 391 
Q 2594 391 2855 752 
Q 3116 1113 3116 1747 
z
" transform="scale(0.015625)"/>
      <path id="DejaVuSans-75" d="M 544 1381 
L 544 3500 
L 1119 3500 
L 1119 1403 
Q 1119 906 1312 657 
Q 1506 409 1894 409 
Q 2359 409 2629 706 
Q 2900 1003 2900 1516 
L 2900 3500 
L 3475 3500 
L 3475 0 
L 2900 0 
L 2900 538 
Q 2691 219 2414 64 
Q 2138 -91 1772 -91 
Q 1169 -91 856 284 
Q 544 659 544 1381 
z
M 1991 3584 
L 1991 3584 
z
" transform="scale(0.015625)"/>
      <path id="DejaVuSans-6c" d="M 603 4863 
L 1178 4863 
L 1178 0 
L 603 0 
L 603 4863 
z
" transform="scale(0.015625)"/>
      <path id="DejaVuSans-27" d="M 1147 4666 
L 1147 2931 
L 616 2931 
L 616 4666 
L 1147 4666 
z
" transform="scale(0.015625)"/>
      <path id="DejaVuSans-20" transform="scale(0.015625)"/>
      <path id="DejaVuSans-76" d="M 191 3500 
L 800 3500 
L 1894 563 
L 2988 3500 
L 3597 3500 
L 2284 0 
L 1503 0 
L 191 3500 
z
" transform="scale(0.015625)"/>
      <path id="DejaVuSans-67" d="M 2906 1791 
Q 2906 2416 2648 2759 
Q 2391 3103 1925 3103 
Q 1463 3103 1205 2759 
Q 947 2416 947 1791 
Q 947 1169 1205 825 
Q 1463 481 1925 481 
Q 2391 481 2648 825 
Q 2906 1169 2906 1791 
z
M 3481 434 
Q 3481 -459 3084 -895 
Q 2688 -1331 1869 -1331 
Q 1566 -1331 1297 -1286 
Q 1028 -1241 775 -1147 
L 775 -588 
Q 1028 -725 1275 -790 
Q 1522 -856 1778 -856 
Q 2344 -856 2625 -561 
Q 2906 -266 2906 331 
L 2906 616 
Q 2728 306 2450 153 
Q 2172 0 1784 0 
Q 1141 0 747 490 
Q 353 981 353 1791 
Q 353 2603 747 3093 
Q 1141 3584 1784 3584 
Q 2172 3584 2450 3431 
Q 2728 3278 2906 2969 
L 2906 3500 
L 3481 3500 
L 3481 434 
z
" transform="scale(0.015625)"/>
      <path id="DejaVuSans-64" d="M 2906 2969 
L 2906 4863 
L 3481 4863 
L 3481 0 
L 2906 0 
L 2906 525 
Q 2725 213 2448 61 
Q 2172 -91 1784 -91 
Q 1150 -91 751 415 
Q 353 922 353 1747 
Q 353 2572 751 3078 
Q 1150 3584 1784 3584 
Q 2172 3584 2448 3432 
Q 2725 3281 2906 2969 
z
M 947 1747 
Q 947 1113 1208 752 
Q 1469 391 1925 391 
Q 2381 391 2643 752 
Q 2906 1113 2906 1747 
Q 2906 2381 2643 2742 
Q 2381 3103 1925 3103 
Q 1469 3103 1208 2742 
Q 947 2381 947 1747 
z
" transform="scale(0.015625)"/>
      <path id="DejaVuSans-62" d="M 3116 1747 
Q 3116 2381 2855 2742 
Q 2594 3103 2138 3103 
Q 1681 3103 1420 2742 
Q 1159 2381 1159 1747 
Q 1159 1113 1420 752 
Q 1681 391 2138 391 
Q 2594 391 2855 752 
Q 3116 1113 3116 1747 
z
M 1159 2969 
Q 1341 3281 1617 3432 
Q 1894 3584 2278 3584 
Q 2916 3584 3314 3078 
Q 3713 2572 3713 1747 
Q 3713 922 3314 415 
Q 2916 -91 2278 -91 
Q 1894 -91 1617 61 
Q 1341 213 1159 525 
L 1159 0 
L 581 0 
L 581 4863 
L 1159 4863 
L 1159 2969 
z
" transform="scale(0.015625)"/>
      <path id="DejaVuSans-66" d="M 2375 4863 
L 2375 4384 
L 1825 4384 
Q 1516 4384 1395 4259 
Q 1275 4134 1275 3809 
L 1275 3500 
L 2222 3500 
L 2222 3053 
L 1275 3053 
L 1275 0 
L 697 0 
L 697 3053 
L 147 3053 
L 147 3500 
L 697 3500 
L 697 3744 
Q 697 4328 969 4595 
Q 1241 4863 1831 4863 
L 2375 4863 
z
" transform="scale(0.015625)"/>
     </defs>
     <use xlink:href="#DejaVuSans-50"/>
     <use xlink:href="#DejaVuSans-6f" x="56.677734"/>
     <use xlink:href="#DejaVuSans-70" x="117.859375"/>
     <use xlink:href="#DejaVuSans-75" x="181.335938"/>
     <use xlink:href="#DejaVuSans-6c" x="244.714844"/>
     <use xlink:href="#DejaVuSans-61" x="272.498047"/>
     <use xlink:href="#DejaVuSans-74" x="333.777344"/>
     <use xlink:href="#DejaVuSans-69" x="372.986328"/>
     <use xlink:href="#DejaVuSans-6f" x="400.769531"/>
     <use xlink:href="#DejaVuSans-6e" x="461.951172"/>
     <use xlink:href="#DejaVuSans-27" x="525.330078"/>
     <use xlink:href="#DejaVuSans-73" x="552.820312"/>
     <use xlink:href="#DejaVuSans-20" x="604.919922"/>
     <use xlink:href="#DejaVuSans-61" x="636.707031"/>
     <use xlink:href="#DejaVuSans-76" x="697.986328"/>
     <use xlink:href="#DejaVuSans-65" x="757.166016"/>
     <use xlink:href="#DejaVuSans-72" x="818.689453"/>
     <use xlink:href="#DejaVuSans-61" x="859.802734"/>
     <use xlink:href="#DejaVuSans-67" x="921.082031"/>
     <use xlink:href="#DejaVuSans-65" x="984.558594"/>
     <use xlink:href="#DejaVuSans-20" x="1046.082031"/>
     <use xlink:href="#DejaVuSans-61" x="1077.869141"/>
     <use xlink:href="#DejaVuSans-6e" x="1139.148438"/>
     <use xlink:href="#DejaVuSans-64" x="1202.527344"/>
     <use xlink:href="#DejaVuSans-20" x="1266.003906"/>
     <use xlink:href="#DejaVuSans-62" x="1297.791016"/>
     <use xlink:href="#DejaVuSans-65" x="1361.267578"/>
     <use xlink:href="#DejaVuSans-73" x="1422.791016"/>
     <use xlink:href="#DejaVuSans-74" x="1474.890625"/>
     <use xlink:href="#DejaVuSans-20" x="1514.099609"/>
     <use xlink:href="#DejaVuSans-66" x="1545.886719"/>
     <use xlink:href="#DejaVuSans-69" x="1581.091797"/>
     <use xlink:href="#DejaVuSans-74" x="1608.875"/>
     <use xlink:href="#DejaVuSans-6e" x="1648.083984"/>
     <use xlink:href="#DejaVuSans-65" x="1711.462891"/>
     <use xlink:href="#DejaVuSans-73" x="1772.986328"/>
     <use xlink:href="#DejaVuSans-73" x="1825.085938"/>
    </g>
   </g>
   <g id="legend_1">
    <g id="patch_7">
     <path d="M 334.779375 302.584 
L 407.72 302.584 
Q 409.72 302.584 409.72 300.584 
L 409.72 242.8715 
Q 409.72 240.8715 407.72 240.8715 
L 334.779375 240.8715 
Q 332.779375 240.8715 332.779375 242.8715 
L 332.779375 300.584 
Q 332.779375 302.584 334.779375 302.584 
z
" style="fill: #ffffff; opacity: 0.8; stroke: #cccccc; stroke-linejoin: miter"/>
    </g>
    <g id="line2d_31">
     <path d="M 336.779375 248.969937 
L 346.779375 248.969937 
L 356.779375 248.969937 
" style="fill: none; stroke: #0000ff; stroke-width: 1.5; stroke-linecap: square"/>
    </g>
    <g id="text_17">
     <!-- average -->
     <g transform="translate(364.779375 252.469937) scale(0.1 -0.1)">
      <use xlink:href="#DejaVuSans-61"/>
      <use xlink:href="#DejaVuSans-76" x="61.279297"/>
      <use xlink:href="#DejaVuSans-65" x="120.458984"/>
      <use xlink:href="#DejaVuSans-72" x="181.982422"/>
      <use xlink:href="#DejaVuSans-61" x="223.095703"/>
      <use xlink:href="#DejaVuSans-67" x="284.375"/>
      <use xlink:href="#DejaVuSans-65" x="347.851562"/>
     </g>
    </g>
    <g id="line2d_32">
     <path d="M 336.779375 263.648062 
L 346.779375 263.648062 
L 356.779375 263.648062 
" style="fill: none; stroke-dasharray: 9.6,2.4,1.5,2.4; stroke-dashoffset: 0; stroke: #008000; stroke-width: 1.5"/>
    </g>
    <g id="text_18">
     <!-- -1 sd -->
     <g transform="translate(364.779375 267.148062) scale(0.1 -0.1)">
      <defs>
       <path id="DejaVuSans-2d" d="M 313 2009 
L 1997 2009 
L 1997 1497 
L 313 1497 
L 313 2009 
z
" transform="scale(0.015625)"/>
      </defs>
      <use xlink:href="#DejaVuSans-2d"/>
      <use xlink:href="#DejaVuSans-31" x="36.083984"/>
      <use xlink:href="#DejaVuSans-20" x="99.707031"/>
      <use xlink:href="#DejaVuSans-73" x="131.494141"/>
      <use xlink:href="#DejaVuSans-64" x="183.59375"/>
     </g>
    </g>
    <g id="line2d_33">
     <path d="M 336.779375 278.326187 
L 346.779375 278.326187 
L 356.779375 278.326187 
" style="fill: none; stroke-dasharray: 9.6,2.4,1.5,2.4; stroke-dashoffset: 0; stroke: #008000; stroke-width: 1.5"/>
    </g>
    <g id="text_19">
     <!-- +1 sd -->
     <g transform="translate(364.779375 281.826187) scale(0.1 -0.1)">
      <defs>
       <path id="DejaVuSans-2b" d="M 2944 4013 
L 2944 2272 
L 4684 2272 
L 4684 1741 
L 2944 1741 
L 2944 0 
L 2419 0 
L 2419 1741 
L 678 1741 
L 678 2272 
L 2419 2272 
L 2419 4013 
L 2944 4013 
z
" transform="scale(0.015625)"/>
      </defs>
      <use xlink:href="#DejaVuSans-2b"/>
      <use xlink:href="#DejaVuSans-31" x="83.789062"/>
      <use xlink:href="#DejaVuSans-20" x="147.412109"/>
      <use xlink:href="#DejaVuSans-73" x="179.199219"/>
      <use xlink:href="#DejaVuSans-64" x="231.298828"/>
     </g>
    </g>
    <g id="line2d_34">
     <path d="M 336.779375 293.004312 
L 346.779375 293.004312 
L 356.779375 293.004312 
" style="fill: none; stroke: #ff0000; stroke-width: 1.5; stroke-linecap: square"/>
    </g>
    <g id="text_20">
     <!-- best -->
     <g transform="translate(364.779375 296.504312) scale(0.1 -0.1)">
      <use xlink:href="#DejaVuSans-62"/>
      <use xlink:href="#DejaVuSans-65" x="63.476562"/>
      <use xlink:href="#DejaVuSans-73" x="125"/>
      <use xlink:href="#DejaVuSans-74" x="177.099609"/>
     </g>
    </g>
   </g>
  </g>
 </g>
 <defs>
  <clipPath id="pd76753141f">
   <rect x="57.6" y="41.472" width="357.12" height="266.112"/>
  </clipPath>
 </defs>
</svg>
