<?xml version="1.0" encoding="utf-8" standalone="no"?>
<!DOCTYPE svg PUBLIC "-//W3C//DTD SVG 1.1//EN"
  "http://www.w3.org/Graphics/SVG/1.1/DTD/svg11.dtd">
<svg xmlns:xlink="http://www.w3.org/1999/xlink" width="460.8pt" height="345.6pt" viewBox="0 0 460.8 345.6" xmlns="http://www.w3.org/2000/svg" version="1.1">
 <metadata>
  <rdf:RDF xmlns:dc="http://purl.org/dc/elements/1.1/" xmlns:cc="http://creativecommons.org/ns#" xmlns:rdf="http://www.w3.org/1999/02/22-rdf-syntax-ns#">
   <cc:Work>
    <dc:type rdf:resource="http://purl.org/dc/dcmitype/StillImage"/>
    <dc:date>2023-12-19T02:23:18.451826</dc:date>
    <dc:format>image/svg+xml</dc:format>
    <dc:creator>
     <cc:Agent>
      <dc:title>Matplotlib v3.6.3, https://matplotlib.org/</dc:title>
     </cc:Agent>
    </dc:creator>
   </cc:Work>
  </rdf:RDF>
 </metadata>
 <defs>
  <style type="text/css">*{stroke-linejoin: round; stroke-linecap: butt}</style>
 </defs>
 <g id="figure_1">
  <g id="patch_1">
   <path d="M 0 345.6 
L 460.8 345.6 
L 460.8 0 
L 0 0 
z
" style="fill: #ffffff"/>
  </g>
  <g id="axes_1">
   <g id="patch_2">
    <path d="M 57.6 307.584 
L 414.72 307.584 
L 414.72 41.472 
L 57.6 41.472 
z
" style="fill: #ffffff"/>
   </g>
   <g id="matplotlib.axis_1">
    <g id="xtick_1">
     <g id="line2d_1">
      <path d="M 73.832727 307.584 
L 73.832727 41.472 
" clip-path="url(#pf017e93871)" style="fill: none; stroke: #b0b0b0; stroke-width: 0.8; stroke-linecap: square"/>
     </g>
     <g id="line2d_2">
      <defs>
       <path id="m0936caa037" d="M 0 0 
L 0 3.5 
" style="stroke: #000000; stroke-width: 0.8"/>
      </defs>
      <g>
       <use xlink:href="#m0936caa037" x="73.832727" y="307.584" style="stroke: #000000; stroke-width: 0.8"/>
      </g>
     </g>
     <g id="text_1">
      <!-- 0 -->
      <g transform="translate(70.651477 322.182437) scale(0.1 -0.1)">
       <defs>
        <path id="DejaVuSans-30" d="M 2034 4250 
Q 1547 4250 1301 3770 
Q 1056 3291 1056 2328 
Q 1056 1369 1301 889 
Q 1547 409 2034 409 
Q 2525 409 2770 889 
Q 3016 1369 3016 2328 
Q 3016 3291 2770 3770 
Q 2525 4250 2034 4250 
z
M 2034 4750 
Q 2819 4750 3233 4129 
Q 3647 3509 3647 2328 
Q 3647 1150 3233 529 
Q 2819 -91 2034 -91 
Q 1250 -91 836 529 
Q 422 1150 422 2328 
Q 422 3509 836 4129 
Q 1250 4750 2034 4750 
z
" transform="scale(0.015625)"/>
       </defs>
       <use xlink:href="#DejaVuSans-30"/>
      </g>
     </g>
    </g>
    <g id="xtick_2">
     <g id="line2d_3">
      <path d="M 128.122785 307.584 
L 128.122785 41.472 
" clip-path="url(#pf017e93871)" style="fill: none; stroke: #b0b0b0; stroke-width: 0.8; stroke-linecap: square"/>
     </g>
     <g id="line2d_4">
      <g>
       <use xlink:href="#m0936caa037" x="128.122785" y="307.584" style="stroke: #000000; stroke-width: 0.8"/>
      </g>
     </g>
     <g id="text_2">
      <!-- 50 -->
      <g transform="translate(121.760285 322.182437) scale(0.1 -0.1)">
       <defs>
        <path id="DejaVuSans-35" d="M 691 4666 
L 3169 4666 
L 3169 4134 
L 1269 4134 
L 1269 2991 
Q 1406 3038 1543 3061 
Q 1681 3084 1819 3084 
Q 2600 3084 3056 2656 
Q 3513 2228 3513 1497 
Q 3513 744 3044 326 
Q 2575 -91 1722 -91 
Q 1428 -91 1123 -41 
Q 819 9 494 109 
L 494 744 
Q 775 591 1075 516 
Q 1375 441 1709 441 
Q 2250 441 2565 725 
Q 2881 1009 2881 1497 
Q 2881 1984 2565 2268 
Q 2250 2553 1709 2553 
Q 1456 2553 1204 2497 
Q 953 2441 691 2322 
L 691 4666 
z
" transform="scale(0.015625)"/>
       </defs>
       <use xlink:href="#DejaVuSans-35"/>
       <use xlink:href="#DejaVuSans-30" x="63.623047"/>
      </g>
     </g>
    </g>
    <g id="xtick_3">
     <g id="line2d_5">
      <path d="M 182.412843 307.584 
L 182.412843 41.472 
" clip-path="url(#pf017e93871)" style="fill: none; stroke: #b0b0b0; stroke-width: 0.8; stroke-linecap: square"/>
     </g>
     <g id="line2d_6">
      <g>
       <use xlink:href="#m0936caa037" x="182.412843" y="307.584" style="stroke: #000000; stroke-width: 0.8"/>
      </g>
     </g>
     <g id="text_3">
      <!-- 100 -->
      <g transform="translate(172.869093 322.182437) scale(0.1 -0.1)">
       <defs>
        <path id="DejaVuSans-31" d="M 794 531 
L 1825 531 
L 1825 4091 
L 703 3866 
L 703 4441 
L 1819 4666 
L 2450 4666 
L 2450 531 
L 3481 531 
L 3481 0 
L 794 0 
L 794 531 
z
" transform="scale(0.015625)"/>
       </defs>
       <use xlink:href="#DejaVuSans-31"/>
       <use xlink:href="#DejaVuSans-30" x="63.623047"/>
       <use xlink:href="#DejaVuSans-30" x="127.246094"/>
      </g>
     </g>
    </g>
    <g id="xtick_4">
     <g id="line2d_7">
      <path d="M 236.702901 307.584 
L 236.702901 41.472 
" clip-path="url(#pf017e93871)" style="fill: none; stroke: #b0b0b0; stroke-width: 0.8; stroke-linecap: square"/>
     </g>
     <g id="line2d_8">
      <g>
       <use xlink:href="#m0936caa037" x="236.702901" y="307.584" style="stroke: #000000; stroke-width: 0.8"/>
      </g>
     </g>
     <g id="text_4">
      <!-- 150 -->
      <g transform="translate(227.159151 322.182437) scale(0.1 -0.1)">
       <use xlink:href="#DejaVuSans-31"/>
       <use xlink:href="#DejaVuSans-35" x="63.623047"/>
       <use xlink:href="#DejaVuSans-30" x="127.246094"/>
      </g>
     </g>
    </g>
    <g id="xtick_5">
     <g id="line2d_9">
      <path d="M 290.992958 307.584 
L 290.992958 41.472 
" clip-path="url(#pf017e93871)" style="fill: none; stroke: #b0b0b0; stroke-width: 0.8; stroke-linecap: square"/>
     </g>
     <g id="line2d_10">
      <g>
       <use xlink:href="#m0936caa037" x="290.992958" y="307.584" style="stroke: #000000; stroke-width: 0.8"/>
      </g>
     </g>
     <g id="text_5">
      <!-- 200 -->
      <g transform="translate(281.449208 322.182437) scale(0.1 -0.1)">
       <defs>
        <path id="DejaVuSans-32" d="M 1228 531 
L 3431 531 
L 3431 0 
L 469 0 
L 469 531 
Q 828 903 1448 1529 
Q 2069 2156 2228 2338 
Q 2531 2678 2651 2914 
Q 2772 3150 2772 3378 
Q 2772 3750 2511 3984 
Q 2250 4219 1831 4219 
Q 1534 4219 1204 4116 
Q 875 4013 500 3803 
L 500 4441 
Q 881 4594 1212 4672 
Q 1544 4750 1819 4750 
Q 2544 4750 2975 4387 
Q 3406 4025 3406 3419 
Q 3406 3131 3298 2873 
Q 3191 2616 2906 2266 
Q 2828 2175 2409 1742 
Q 1991 1309 1228 531 
z
" transform="scale(0.015625)"/>
       </defs>
       <use xlink:href="#DejaVuSans-32"/>
       <use xlink:href="#DejaVuSans-30" x="63.623047"/>
       <use xlink:href="#DejaVuSans-30" x="127.246094"/>
      </g>
     </g>
    </g>
    <g id="xtick_6">
     <g id="line2d_11">
      <path d="M 345.283016 307.584 
L 345.283016 41.472 
" clip-path="url(#pf017e93871)" style="fill: none; stroke: #b0b0b0; stroke-width: 0.8; stroke-linecap: square"/>
     </g>
     <g id="line2d_12">
      <g>
       <use xlink:href="#m0936caa037" x="345.283016" y="307.584" style="stroke: #000000; stroke-width: 0.8"/>
      </g>
     </g>
     <g id="text_6">
      <!-- 250 -->
      <g transform="translate(335.739266 322.182437) scale(0.1 -0.1)">
       <use xlink:href="#DejaVuSans-32"/>
       <use xlink:href="#DejaVuSans-35" x="63.623047"/>
       <use xlink:href="#DejaVuSans-30" x="127.246094"/>
      </g>
     </g>
    </g>
    <g id="xtick_7">
     <g id="line2d_13">
      <path d="M 399.573074 307.584 
L 399.573074 41.472 
" clip-path="url(#pf017e93871)" style="fill: none; stroke: #b0b0b0; stroke-width: 0.8; stroke-linecap: square"/>
     </g>
     <g id="line2d_14">
      <g>
       <use xlink:href="#m0936caa037" x="399.573074" y="307.584" style="stroke: #000000; stroke-width: 0.8"/>
      </g>
     </g>
     <g id="text_7">
      <!-- 300 -->
      <g transform="translate(390.029324 322.182437) scale(0.1 -0.1)">
       <defs>
        <path id="DejaVuSans-33" d="M 2597 2516 
Q 3050 2419 3304 2112 
Q 3559 1806 3559 1356 
Q 3559 666 3084 287 
Q 2609 -91 1734 -91 
Q 1441 -91 1130 -33 
Q 819 25 488 141 
L 488 750 
Q 750 597 1062 519 
Q 1375 441 1716 441 
Q 2309 441 2620 675 
Q 2931 909 2931 1356 
Q 2931 1769 2642 2001 
Q 2353 2234 1838 2234 
L 1294 2234 
L 1294 2753 
L 1863 2753 
Q 2328 2753 2575 2939 
Q 2822 3125 2822 3475 
Q 2822 3834 2567 4026 
Q 2313 4219 1838 4219 
Q 1578 4219 1281 4162 
Q 984 4106 628 3988 
L 628 4550 
Q 988 4650 1302 4700 
Q 1616 4750 1894 4750 
Q 2613 4750 3031 4423 
Q 3450 4097 3450 3541 
Q 3450 3153 3228 2886 
Q 3006 2619 2597 2516 
z
" transform="scale(0.015625)"/>
       </defs>
       <use xlink:href="#DejaVuSans-33"/>
       <use xlink:href="#DejaVuSans-30" x="63.623047"/>
       <use xlink:href="#DejaVuSans-30" x="127.246094"/>
      </g>
     </g>
    </g>
    <g id="text_8">
     <!-- Generations -->
     <g transform="translate(205.662344 335.860562) scale(0.1 -0.1)">
      <defs>
       <path id="DejaVuSans-47" d="M 3809 666 
L 3809 1919 
L 2778 1919 
L 2778 2438 
L 4434 2438 
L 4434 434 
Q 4069 175 3628 42 
Q 3188 -91 2688 -91 
Q 1594 -91 976 548 
Q 359 1188 359 2328 
Q 359 3472 976 4111 
Q 1594 4750 2688 4750 
Q 3144 4750 3555 4637 
Q 3966 4525 4313 4306 
L 4313 3634 
Q 3963 3931 3569 4081 
Q 3175 4231 2741 4231 
Q 1884 4231 1454 3753 
Q 1025 3275 1025 2328 
Q 1025 1384 1454 906 
Q 1884 428 2741 428 
Q 3075 428 3337 486 
Q 3600 544 3809 666 
z
" transform="scale(0.015625)"/>
       <path id="DejaVuSans-65" d="M 3597 1894 
L 3597 1613 
L 953 1613 
Q 991 1019 1311 708 
Q 1631 397 2203 397 
Q 2534 397 2845 478 
Q 3156 559 3463 722 
L 3463 178 
Q 3153 47 2828 -22 
Q 2503 -91 2169 -91 
Q 1331 -91 842 396 
Q 353 884 353 1716 
Q 353 2575 817 3079 
Q 1281 3584 2069 3584 
Q 2775 3584 3186 3129 
Q 3597 2675 3597 1894 
z
M 3022 2063 
Q 3016 2534 2758 2815 
Q 2500 3097 2075 3097 
Q 1594 3097 1305 2825 
Q 1016 2553 972 2059 
L 3022 2063 
z
" transform="scale(0.015625)"/>
       <path id="DejaVuSans-6e" d="M 3513 2113 
L 3513 0 
L 2938 0 
L 2938 2094 
Q 2938 2591 2744 2837 
Q 2550 3084 2163 3084 
Q 1697 3084 1428 2787 
Q 1159 2491 1159 1978 
L 1159 0 
L 581 0 
L 581 3500 
L 1159 3500 
L 1159 2956 
Q 1366 3272 1645 3428 
Q 1925 3584 2291 3584 
Q 2894 3584 3203 3211 
Q 3513 2838 3513 2113 
z
" transform="scale(0.015625)"/>
       <path id="DejaVuSans-72" d="M 2631 2963 
Q 2534 3019 2420 3045 
Q 2306 3072 2169 3072 
Q 1681 3072 1420 2755 
Q 1159 2438 1159 1844 
L 1159 0 
L 581 0 
L 581 3500 
L 1159 3500 
L 1159 2956 
Q 1341 3275 1631 3429 
Q 1922 3584 2338 3584 
Q 2397 3584 2469 3576 
Q 2541 3569 2628 3553 
L 2631 2963 
z
" transform="scale(0.015625)"/>
       <path id="DejaVuSans-61" d="M 2194 1759 
Q 1497 1759 1228 1600 
Q 959 1441 959 1056 
Q 959 750 1161 570 
Q 1363 391 1709 391 
Q 2188 391 2477 730 
Q 2766 1069 2766 1631 
L 2766 1759 
L 2194 1759 
z
M 3341 1997 
L 3341 0 
L 2766 0 
L 2766 531 
Q 2569 213 2275 61 
Q 1981 -91 1556 -91 
Q 1019 -91 701 211 
Q 384 513 384 1019 
Q 384 1609 779 1909 
Q 1175 2209 1959 2209 
L 2766 2209 
L 2766 2266 
Q 2766 2663 2505 2880 
Q 2244 3097 1772 3097 
Q 1472 3097 1187 3025 
Q 903 2953 641 2809 
L 641 3341 
Q 956 3463 1253 3523 
Q 1550 3584 1831 3584 
Q 2591 3584 2966 3190 
Q 3341 2797 3341 1997 
z
" transform="scale(0.015625)"/>
       <path id="DejaVuSans-74" d="M 1172 4494 
L 1172 3500 
L 2356 3500 
L 2356 3053 
L 1172 3053 
L 1172 1153 
Q 1172 725 1289 603 
Q 1406 481 1766 481 
L 2356 481 
L 2356 0 
L 1766 0 
Q 1100 0 847 248 
Q 594 497 594 1153 
L 594 3053 
L 172 3053 
L 172 3500 
L 594 3500 
L 594 4494 
L 1172 4494 
z
" transform="scale(0.015625)"/>
       <path id="DejaVuSans-69" d="M 603 3500 
L 1178 3500 
L 1178 0 
L 603 0 
L 603 3500 
z
M 603 4863 
L 1178 4863 
L 1178 4134 
L 603 4134 
L 603 4863 
z
" transform="scale(0.015625)"/>
       <path id="DejaVuSans-6f" d="M 1959 3097 
Q 1497 3097 1228 2736 
Q 959 2375 959 1747 
Q 959 1119 1226 758 
Q 1494 397 1959 397 
Q 2419 397 2687 759 
Q 2956 1122 2956 1747 
Q 2956 2369 2687 2733 
Q 2419 3097 1959 3097 
z
M 1959 3584 
Q 2709 3584 3137 3096 
Q 3566 2609 3566 1747 
Q 3566 888 3137 398 
Q 2709 -91 1959 -91 
Q 1206 -91 779 398 
Q 353 888 353 1747 
Q 353 2609 779 3096 
Q 1206 3584 1959 3584 
z
" transform="scale(0.015625)"/>
       <path id="DejaVuSans-73" d="M 2834 3397 
L 2834 2853 
Q 2591 2978 2328 3040 
Q 2066 3103 1784 3103 
Q 1356 3103 1142 2972 
Q 928 2841 928 2578 
Q 928 2378 1081 2264 
Q 1234 2150 1697 2047 
L 1894 2003 
Q 2506 1872 2764 1633 
Q 3022 1394 3022 966 
Q 3022 478 2636 193 
Q 2250 -91 1575 -91 
Q 1294 -91 989 -36 
Q 684 19 347 128 
L 347 722 
Q 666 556 975 473 
Q 1284 391 1588 391 
Q 1994 391 2212 530 
Q 2431 669 2431 922 
Q 2431 1156 2273 1281 
Q 2116 1406 1581 1522 
L 1381 1569 
Q 847 1681 609 1914 
Q 372 2147 372 2553 
Q 372 3047 722 3315 
Q 1072 3584 1716 3584 
Q 2034 3584 2315 3537 
Q 2597 3491 2834 3397 
z
" transform="scale(0.015625)"/>
      </defs>
      <use xlink:href="#DejaVuSans-47"/>
      <use xlink:href="#DejaVuSans-65" x="77.490234"/>
      <use xlink:href="#DejaVuSans-6e" x="139.013672"/>
      <use xlink:href="#DejaVuSans-65" x="202.392578"/>
      <use xlink:href="#DejaVuSans-72" x="263.916016"/>
      <use xlink:href="#DejaVuSans-61" x="305.029297"/>
      <use xlink:href="#DejaVuSans-74" x="366.308594"/>
      <use xlink:href="#DejaVuSans-69" x="405.517578"/>
      <use xlink:href="#DejaVuSans-6f" x="433.300781"/>
      <use xlink:href="#DejaVuSans-6e" x="494.482422"/>
      <use xlink:href="#DejaVuSans-73" x="557.861328"/>
     </g>
    </g>
   </g>
   <g id="matplotlib.axis_2">
    <g id="ytick_1">
     <g id="line2d_15">
      <path d="M 57.6 278.577383 
L 414.72 278.577383 
" clip-path="url(#pf017e93871)" style="fill: none; stroke: #b0b0b0; stroke-width: 0.8; stroke-linecap: square"/>
     </g>
     <g id="line2d_16">
      <defs>
       <path id="ma69b05854c" d="M 0 0 
L -3.5 0 
" style="stroke: #000000; stroke-width: 0.8"/>
      </defs>
      <g>
       <use xlink:href="#ma69b05854c" x="57.6" y="278.577383" style="stroke: #000000; stroke-width: 0.8"/>
      </g>
     </g>
     <g id="text_9">
      <!-- −40 -->
      <g transform="translate(29.495313 282.376602) scale(0.1 -0.1)">
       <defs>
        <path id="DejaVuSans-2212" d="M 678 2272 
L 4684 2272 
L 4684 1741 
L 678 1741 
L 678 2272 
z
" transform="scale(0.015625)"/>
        <path id="DejaVuSans-34" d="M 2419 4116 
L 825 1625 
L 2419 1625 
L 2419 4116 
z
M 2253 4666 
L 3047 4666 
L 3047 1625 
L 3713 1625 
L 3713 1100 
L 3047 1100 
L 3047 0 
L 2419 0 
L 2419 1100 
L 313 1100 
L 313 1709 
L 2253 4666 
z
" transform="scale(0.015625)"/>
       </defs>
       <use xlink:href="#DejaVuSans-2212"/>
       <use xlink:href="#DejaVuSans-34" x="83.789062"/>
       <use xlink:href="#DejaVuSans-30" x="147.412109"/>
      </g>
     </g>
    </g>
    <g id="ytick_2">
     <g id="line2d_17">
      <path d="M 57.6 231.855849 
L 414.72 231.855849 
" clip-path="url(#pf017e93871)" style="fill: none; stroke: #b0b0b0; stroke-width: 0.8; stroke-linecap: square"/>
     </g>
     <g id="line2d_18">
      <g>
       <use xlink:href="#ma69b05854c" x="57.6" y="231.855849" style="stroke: #000000; stroke-width: 0.8"/>
      </g>
     </g>
     <g id="text_10">
      <!-- −35 -->
      <g transform="translate(29.495313 235.655068) scale(0.1 -0.1)">
       <use xlink:href="#DejaVuSans-2212"/>
       <use xlink:href="#DejaVuSans-33" x="83.789062"/>
       <use xlink:href="#DejaVuSans-35" x="147.412109"/>
      </g>
     </g>
    </g>
    <g id="ytick_3">
     <g id="line2d_19">
      <path d="M 57.6 185.134314 
L 414.72 185.134314 
" clip-path="url(#pf017e93871)" style="fill: none; stroke: #b0b0b0; stroke-width: 0.8; stroke-linecap: square"/>
     </g>
     <g id="line2d_20">
      <g>
       <use xlink:href="#ma69b05854c" x="57.6" y="185.134314" style="stroke: #000000; stroke-width: 0.8"/>
      </g>
     </g>
     <g id="text_11">
      <!-- −30 -->
      <g transform="translate(29.495313 188.933533) scale(0.1 -0.1)">
       <use xlink:href="#DejaVuSans-2212"/>
       <use xlink:href="#DejaVuSans-33" x="83.789062"/>
       <use xlink:href="#DejaVuSans-30" x="147.412109"/>
      </g>
     </g>
    </g>
    <g id="ytick_4">
     <g id="line2d_21">
      <path d="M 57.6 138.412779 
L 414.72 138.412779 
" clip-path="url(#pf017e93871)" style="fill: none; stroke: #b0b0b0; stroke-width: 0.8; stroke-linecap: square"/>
     </g>
     <g id="line2d_22">
      <g>
       <use xlink:href="#ma69b05854c" x="57.6" y="138.412779" style="stroke: #000000; stroke-width: 0.8"/>
      </g>
     </g>
     <g id="text_12">
      <!-- −25 -->
      <g transform="translate(29.495313 142.211998) scale(0.1 -0.1)">
       <use xlink:href="#DejaVuSans-2212"/>
       <use xlink:href="#DejaVuSans-32" x="83.789062"/>
       <use xlink:href="#DejaVuSans-35" x="147.412109"/>
      </g>
     </g>
    </g>
    <g id="ytick_5">
     <g id="line2d_23">
      <path d="M 57.6 91.691245 
L 414.72 91.691245 
" clip-path="url(#pf017e93871)" style="fill: none; stroke: #b0b0b0; stroke-width: 0.8; stroke-linecap: square"/>
     </g>
     <g id="line2d_24">
      <g>
       <use xlink:href="#ma69b05854c" x="57.6" y="91.691245" style="stroke: #000000; stroke-width: 0.8"/>
      </g>
     </g>
     <g id="text_13">
      <!-- −20 -->
      <g transform="translate(29.495313 95.490464) scale(0.1 -0.1)">
       <use xlink:href="#DejaVuSans-2212"/>
       <use xlink:href="#DejaVuSans-32" x="83.789062"/>
       <use xlink:href="#DejaVuSans-30" x="147.412109"/>
      </g>
     </g>
    </g>
    <g id="ytick_6">
     <g id="line2d_25">
      <path d="M 57.6 44.96971 
L 414.72 44.96971 
" clip-path="url(#pf017e93871)" style="fill: none; stroke: #b0b0b0; stroke-width: 0.8; stroke-linecap: square"/>
     </g>
     <g id="line2d_26">
      <g>
       <use xlink:href="#ma69b05854c" x="57.6" y="44.96971" style="stroke: #000000; stroke-width: 0.8"/>
      </g>
     </g>
     <g id="text_14">
      <!-- −15 -->
      <g transform="translate(29.495313 48.768929) scale(0.1 -0.1)">
       <use xlink:href="#DejaVuSans-2212"/>
       <use xlink:href="#DejaVuSans-31" x="83.789062"/>
       <use xlink:href="#DejaVuSans-35" x="147.412109"/>
      </g>
     </g>
    </g>
    <g id="text_15">
     <!-- Fitness -->
     <g transform="translate(23.415625 191.845187) rotate(-90) scale(0.1 -0.1)">
      <defs>
       <path id="DejaVuSans-46" d="M 628 4666 
L 3309 4666 
L 3309 4134 
L 1259 4134 
L 1259 2759 
L 3109 2759 
L 3109 2228 
L 1259 2228 
L 1259 0 
L 628 0 
L 628 4666 
z
" transform="scale(0.015625)"/>
      </defs>
      <use xlink:href="#DejaVuSans-46"/>
      <use xlink:href="#DejaVuSans-69" x="50.269531"/>
      <use xlink:href="#DejaVuSans-74" x="78.052734"/>
      <use xlink:href="#DejaVuSans-6e" x="117.261719"/>
      <use xlink:href="#DejaVuSans-65" x="180.640625"/>
      <use xlink:href="#DejaVuSans-73" x="242.164062"/>
      <use xlink:href="#DejaVuSans-73" x="294.263672"/>
     </g>
    </g>
   </g>
   <g id="line2d_27">
    <path d="M 73.832727 250.551747 
L 76.00433 235.488625 
L 77.090131 236.742847 
L 78.175932 223.980198 
L 79.261733 224.338343 
L 80.347534 212.867823 
L 81.433335 209.415122 
L 82.519137 206.857888 
L 83.604938 207.561646 
L 84.690739 206.351107 
L 85.77654 212.565689 
L 86.862341 197.934412 
L 87.948142 209.552653 
L 89.033943 195.642561 
L 90.119745 204.093553 
L 91.205546 201.71903 
L 92.291347 200.86157 
L 93.377148 195.765004 
L 94.462949 191.503098 
L 95.54875 195.769617 
L 96.634552 190.75692 
L 97.720353 194.903246 
L 98.806154 182.756384 
L 99.891955 191.557522 
L 100.977756 194.534129 
L 102.063557 187.902321 
L 103.149358 191.256599 
L 104.23516 190.352371 
L 105.320961 194.752969 
L 106.406762 188.631899 
L 107.492563 186.635785 
L 108.578364 197.280409 
L 109.664165 190.526374 
L 110.749967 185.909412 
L 111.835768 189.990219 
L 112.921569 190.346313 
L 114.00737 196.863018 
L 115.093171 195.158715 
L 117.264773 183.088025 
L 118.350575 184.155659 
L 119.436376 186.120787 
L 120.522177 184.914376 
L 121.607978 184.002204 
L 122.693779 183.757821 
L 123.77958 182.541078 
L 124.865382 177.271888 
L 125.951183 181.054224 
L 127.036984 172.726429 
L 128.122785 178.176691 
L 129.208586 178.303541 
L 130.294387 166.308347 
L 131.380189 171.734037 
L 132.46599 180.712788 
L 133.551791 176.942737 
L 134.637592 181.496198 
L 135.723393 170.3779 
L 136.809194 179.696293 
L 137.894995 172.95422 
L 138.980797 171.797628 
L 140.066598 176.928376 
L 141.152399 174.536802 
L 142.2382 168.828963 
L 143.324001 164.634327 
L 144.409802 175.022991 
L 145.495604 177.223814 
L 146.581405 176.136646 
L 147.667206 167.533051 
L 148.753007 177.131877 
L 149.838808 180.252316 
L 152.01041 160.29586 
L 153.096212 179.1355 
L 154.182013 180.821651 
L 155.267814 173.94478 
L 156.353615 168.804714 
L 157.439416 187.385114 
L 158.525217 179.852661 
L 159.611019 171.481441 
L 160.69682 172.847299 
L 161.782621 177.689087 
L 162.868422 180.563319 
L 163.954223 175.918356 
L 165.040024 174.286071 
L 166.125825 173.232424 
L 167.211627 178.464641 
L 169.383229 170.353652 
L 170.46903 178.81051 
L 171.554831 182.061171 
L 172.640632 168.252153 
L 173.726434 172.285861 
L 174.812235 158.966756 
L 175.898036 161.088402 
L 176.983837 161.563829 
L 178.069638 166.433218 
L 179.155439 173.563392 
L 180.24124 176.65494 
L 181.327042 171.954543 
L 182.412843 171.425596 
L 183.498644 177.065329 
L 184.584445 162.821629 
L 185.670246 170.406291 
L 186.756047 163.617156 
L 187.841849 168.157416 
L 188.92765 164.167423 
L 190.013451 178.907065 
L 191.099252 169.398064 
L 192.185053 165.783092 
L 193.270854 179.1087 
L 194.356656 168.207646 
L 195.442457 169.579934 
L 196.528258 170.301791 
L 197.614059 177.871161 
L 198.69986 165.068401 
L 199.785661 177.54888 
L 200.871462 168.558842 
L 201.957264 172.538856 
L 203.043065 181.339248 
L 204.128866 177.723577 
L 205.214667 182.904646 
L 206.300468 172.259444 
L 208.472071 174.568021 
L 209.557872 174.628792 
L 210.643673 168.174848 
L 211.729474 168.682051 
L 212.815275 174.322661 
L 213.901076 179.06414 
L 214.986877 177.42415 
L 216.072679 162.1202 
L 217.15848 181.662253 
L 218.244281 183.591566 
L 219.330082 180.038661 
L 220.415883 168.153776 
L 221.501684 168.87324 
L 222.587486 172.94673 
L 223.673287 160.45908 
L 225.844889 172.788802 
L 226.93069 177.962357 
L 228.016491 168.562546 
L 230.188094 174.258343 
L 231.273895 170.519025 
L 232.359696 160.77129 
L 233.445497 170.842057 
L 234.531298 178.460406 
L 235.617099 164.715363 
L 236.702901 170.708163 
L 237.788702 165.891256 
L 238.874503 174.404586 
L 239.960304 169.381566 
L 241.046105 180.958662 
L 242.131906 177.893486 
L 243.217708 163.197302 
L 244.303509 171.049853 
L 245.38931 155.236408 
L 246.475111 159.444147 
L 247.560912 169.063196 
L 248.646713 165.491617 
L 249.732514 172.724862 
L 250.818316 171.883312 
L 251.904117 177.527407 
L 252.989918 189.136636 
L 254.075719 167.453934 
L 255.16152 169.78438 
L 256.247321 171.709073 
L 257.333123 168.811418 
L 258.418924 167.406588 
L 259.504725 160.179856 
L 260.590526 164.079461 
L 261.676327 170.73518 
L 262.762128 169.032654 
L 263.847929 166.143869 
L 264.933731 162.124936 
L 266.019532 165.503102 
L 267.105333 167.337144 
L 268.191134 167.866267 
L 269.276935 165.995682 
L 270.362736 167.090779 
L 271.448538 189.212477 
L 272.534339 184.486169 
L 273.62014 175.070689 
L 274.705941 171.707896 
L 275.791742 169.957655 
L 276.877543 171.213657 
L 277.963344 183.197652 
L 279.049146 183.082574 
L 280.134947 182.219067 
L 281.220748 165.601335 
L 283.39235 199.959472 
L 284.478151 190.549854 
L 285.563953 198.996764 
L 286.649754 201.958271 
L 288.821356 216.765484 
L 289.907157 218.30421 
L 290.992958 217.507494 
L 292.07876 223.621077 
L 294.250362 210.975543 
L 295.336163 211.875497 
L 296.421964 193.361848 
L 297.507765 218.991284 
L 298.593566 212.538821 
L 299.679368 200.069999 
L 300.765169 200.988474 
L 301.85097 214.021253 
L 302.936771 201.658953 
L 304.022572 208.004262 
L 306.194175 207.254628 
L 307.279976 204.062 
L 309.451578 213.28053 
L 310.537379 208.37873 
L 311.62318 206.310288 
L 312.708981 208.191651 
L 313.794783 217.680104 
L 314.880584 215.422325 
L 315.966385 215.459003 
L 317.052186 208.477356 
L 318.137987 210.841945 
L 319.223788 218.591814 
L 320.30959 215.3893 
L 321.395391 213.927212 
L 322.481192 208.488781 
L 323.566993 253.964585 
L 324.652794 239.216972 
L 325.738595 228.63264 
L 326.824396 225.840604 
L 327.910198 218.867878 
L 328.995999 215.638299 
L 330.0818 214.104229 
L 331.167601 202.231144 
L 332.253402 211.98975 
L 333.339203 205.960427 
L 334.425005 202.180156 
L 335.510806 197.696347 
L 336.596607 203.521175 
L 337.682408 194.036748 
L 338.768209 196.390962 
L 339.85401 194.796015 
L 340.939811 196.818606 
L 342.025613 192.985928 
L 343.111414 198.821091 
L 344.197215 196.613589 
L 345.283016 190.263534 
L 346.368817 198.943067 
L 347.454618 190.393091 
L 348.54042 196.618791 
L 349.626221 191.729743 
L 350.712022 190.377323 
L 351.797823 178.301586 
L 352.883624 196.752985 
L 353.969425 189.508458 
L 355.055227 187.972529 
L 356.141028 183.62234 
L 357.226829 182.190078 
L 358.31263 181.686473 
L 359.398431 174.423826 
L 360.484232 190.851315 
L 361.570033 181.315708 
L 362.655835 188.844457 
L 363.741636 184.941786 
L 364.827437 185.860218 
L 365.913238 188.051739 
L 366.999039 186.023942 
L 368.08484 185.71377 
L 369.170642 179.689588 
L 370.256443 176.670346 
L 371.342244 185.132313 
L 372.428045 173.742939 
L 373.513846 170.35956 
L 374.599647 176.616384 
L 375.685448 187.83911 
L 376.77125 179.238618 
L 377.857051 177.419904 
L 378.942852 171.382564 
L 380.028653 181.189959 
L 381.114454 169.762398 
L 382.200255 169.532306 
L 383.286057 175.083648 
L 384.371858 179.376527 
L 385.457659 169.147201 
L 386.54346 172.093505 
L 387.629261 172.829899 
L 388.715062 175.830938 
L 389.800863 174.208194 
L 390.886665 170.993396 
L 391.972466 176.481046 
L 393.058267 171.279137 
L 394.144068 182.701104 
L 395.229869 174.786346 
L 396.31567 177.785719 
L 397.401472 167.013898 
L 398.487273 173.950706 
L 398.487273 173.950706 
" clip-path="url(#pf017e93871)" style="fill: none; stroke: #0000ff; stroke-width: 1.5; stroke-linecap: square"/>
   </g>
   <g id="line2d_28">
    <path d="M 73.832727 285.89901 
L 74.918528 284.571147 
L 76.00433 275.622421 
L 77.090131 279.684638 
L 78.175932 263.828887 
L 79.261733 262.852339 
L 80.347534 256.544705 
L 81.433335 251.499307 
L 82.519137 248.816315 
L 83.604938 255.951632 
L 84.690739 253.571059 
L 85.77654 261.818101 
L 86.862341 238.343103 
L 87.948142 256.49624 
L 89.033943 240.566876 
L 90.119745 253.22224 
L 91.205546 247.852331 
L 92.291347 249.302198 
L 93.377148 247.005208 
L 94.462949 241.416559 
L 95.54875 249.337982 
L 96.634552 237.842712 
L 97.720353 247.211839 
L 98.806154 229.650991 
L 99.891955 246.301453 
L 100.977756 245.851145 
L 102.063557 238.527789 
L 103.149358 237.51144 
L 104.23516 238.580299 
L 105.320961 249.742982 
L 106.406762 240.202731 
L 107.492563 237.375191 
L 108.578364 252.911801 
L 109.664165 243.507059 
L 110.749967 237.84738 
L 111.835768 249.405686 
L 112.921569 243.766804 
L 114.00737 248.021213 
L 115.093171 249.855336 
L 116.178972 245.764781 
L 117.264773 234.329971 
L 118.350575 234.277936 
L 119.436376 242.516668 
L 120.522177 241.742631 
L 121.607978 240.383222 
L 122.693779 239.581253 
L 123.77958 241.413958 
L 124.865382 235.122643 
L 125.951183 240.261611 
L 127.036984 226.697241 
L 129.208586 237.260389 
L 130.294387 222.046043 
L 131.380189 222.447078 
L 132.46599 240.225203 
L 133.551791 232.349978 
L 134.637592 240.582651 
L 135.723393 224.800987 
L 136.809194 235.217703 
L 137.894995 233.198873 
L 138.980797 226.772208 
L 140.066598 228.514814 
L 141.152399 234.29008 
L 142.2382 229.459855 
L 143.324001 220.117283 
L 144.409802 232.197267 
L 145.495604 236.972759 
L 146.581405 234.3436 
L 147.667206 220.03019 
L 148.753007 238.792713 
L 149.838808 243.571313 
L 150.924609 228.372133 
L 152.01041 219.380152 
L 153.096212 238.959279 
L 154.182013 235.922353 
L 155.267814 236.163716 
L 156.353615 226.958646 
L 157.439416 253.364634 
L 158.525217 240.393443 
L 159.611019 225.228147 
L 160.69682 229.491821 
L 161.782621 236.386381 
L 162.868422 239.3953 
L 163.954223 230.454927 
L 166.125825 227.558623 
L 167.211627 238.601119 
L 168.297428 234.331461 
L 169.383229 233.051515 
L 171.554831 245.449678 
L 172.640632 227.361263 
L 173.726434 236.141688 
L 174.812235 219.898085 
L 175.898036 219.583007 
L 176.983837 222.176401 
L 178.069638 229.203962 
L 179.155439 230.819605 
L 180.24124 237.85336 
L 181.327042 229.198399 
L 183.498644 237.067919 
L 184.584445 224.43703 
L 185.670246 232.487316 
L 186.756047 222.70888 
L 187.841849 225.532679 
L 188.92765 225.00502 
L 190.013451 243.122197 
L 192.185053 221.900872 
L 193.270854 238.472924 
L 194.356656 230.219481 
L 195.442457 228.069392 
L 196.528258 231.744021 
L 197.614059 243.719695 
L 198.69986 220.298167 
L 199.785661 244.940848 
L 200.871462 229.210495 
L 201.957264 232.465376 
L 203.043065 249.437202 
L 204.128866 244.11571 
L 205.214667 245.356802 
L 206.300468 234.128983 
L 207.386269 236.419319 
L 208.472071 240.359009 
L 209.557872 239.935628 
L 210.643673 231.460061 
L 211.729474 228.164804 
L 212.815275 238.689261 
L 213.901076 245.381782 
L 214.986877 240.526346 
L 216.072679 224.926056 
L 217.15848 247.584817 
L 218.244281 246.896617 
L 219.330082 242.747466 
L 220.415883 230.676401 
L 221.501684 231.961789 
L 222.587486 236.992205 
L 223.673287 218.175752 
L 225.844889 242.66229 
L 226.93069 241.908886 
L 228.016491 230.756787 
L 229.102292 234.504499 
L 230.188094 240.08513 
L 232.359696 220.503039 
L 234.531298 244.320747 
L 235.617099 231.716047 
L 236.702901 236.601237 
L 237.788702 227.811489 
L 238.874503 237.496202 
L 239.960304 233.66224 
L 241.046105 244.427998 
L 242.131906 239.935714 
L 243.217708 224.928892 
L 244.303509 234.069408 
L 245.38931 210.671294 
L 246.475111 221.645651 
L 247.560912 230.661417 
L 248.646713 226.084789 
L 249.732514 230.725218 
L 250.818316 227.893212 
L 251.904117 235.563726 
L 252.989918 250.652555 
L 254.075719 226.432781 
L 255.16152 229.985043 
L 256.247321 237.707383 
L 257.333123 231.183178 
L 258.418924 231.925284 
L 259.504725 227.274288 
L 260.590526 227.570173 
L 261.676327 241.075817 
L 262.762128 235.786972 
L 263.847929 226.201751 
L 264.933731 228.411446 
L 266.019532 229.745652 
L 267.105333 232.191927 
L 268.191134 231.475592 
L 269.276935 228.527549 
L 270.362736 229.116224 
L 271.448538 254.68647 
L 272.534339 247.721753 
L 273.62014 235.302778 
L 274.705941 231.936614 
L 275.791742 236.308914 
L 276.877543 237.516923 
L 277.963344 252.13403 
L 279.049146 250.267155 
L 280.134947 249.166914 
L 281.220748 226.228216 
L 282.306549 250.298062 
L 283.39235 256.91476 
L 284.478151 243.42568 
L 285.563953 261.176296 
L 286.649754 255.12682 
L 287.735555 270.738998 
L 288.821356 277.769064 
L 290.992958 270.649861 
L 292.07876 289.513026 
L 293.164561 280.891943 
L 294.250362 267.213066 
L 295.336163 265.59742 
L 296.421964 250.279138 
L 297.507765 278.995212 
L 298.593566 273.79752 
L 299.679368 256.612641 
L 300.765169 262.579158 
L 301.85097 272.422152 
L 302.936771 258.30168 
L 304.022572 259.041715 
L 305.108373 259.406637 
L 306.194175 264.031769 
L 307.279976 259.018509 
L 308.365777 264.933769 
L 309.451578 271.745088 
L 310.537379 266.167049 
L 311.62318 265.830022 
L 312.708981 257.373305 
L 313.794783 268.079829 
L 315.966385 269.909388 
L 317.052186 263.431792 
L 318.137987 272.045368 
L 319.223788 271.854412 
L 321.395391 269.448831 
L 322.481192 261.521687 
L 323.566993 295.488 
L 324.652794 283.34168 
L 325.738595 273.280129 
L 326.824396 270.564207 
L 327.910198 261.125462 
L 328.995999 260.477321 
L 330.0818 260.788949 
L 331.167601 241.513743 
L 332.253402 257.893432 
L 333.339203 249.72487 
L 334.425005 247.767914 
L 335.510806 243.367225 
L 336.596607 252.187187 
L 337.682408 241.975936 
L 338.768209 246.289622 
L 339.85401 241.902975 
L 340.939811 242.661993 
L 342.025613 238.313214 
L 343.111414 250.930873 
L 344.197215 245.474814 
L 345.283016 239.152331 
L 346.368817 246.175422 
L 347.454618 236.834919 
L 348.54042 250.901449 
L 349.626221 238.950028 
L 350.712022 237.111899 
L 351.797823 223.63582 
L 352.883624 253.422123 
L 353.969425 241.513511 
L 355.055227 238.682564 
L 356.141028 234.203087 
L 357.226829 232.271583 
L 358.31263 233.215605 
L 359.398431 226.404237 
L 360.484232 245.614034 
L 361.570033 235.117419 
L 362.655835 244.729812 
L 363.741636 241.262849 
L 364.827437 236.87466 
L 365.913238 237.231296 
L 366.999039 236.753047 
L 368.08484 240.854939 
L 369.170642 235.821883 
L 370.256443 229.789507 
L 371.342244 239.891827 
L 372.428045 223.387817 
L 373.513846 222.407363 
L 374.599647 230.491937 
L 375.685448 240.113417 
L 376.77125 231.314622 
L 377.857051 227.06231 
L 378.942852 225.334447 
L 380.028653 237.298576 
L 381.114454 224.523318 
L 382.200255 222.253036 
L 383.286057 227.679233 
L 384.371858 236.750531 
L 385.457659 219.581175 
L 386.54346 224.026669 
L 387.629261 233.471042 
L 388.715062 230.922008 
L 389.800863 227.198373 
L 390.886665 226.821013 
L 391.972466 231.71344 
L 393.058267 224.464815 
L 394.144068 243.163093 
L 395.229869 230.924261 
L 396.31567 230.727981 
L 397.401472 221.377002 
L 398.487273 229.070975 
L 398.487273 229.070975 
" clip-path="url(#pf017e93871)" style="fill: none; stroke-dasharray: 9.6,2.4,1.5,2.4; stroke-dashoffset: 0; stroke: #008000; stroke-width: 1.5"/>
   </g>
   <g id="line2d_29">
    <path d="M 73.832727 215.204484 
L 74.918528 201.485053 
L 76.00433 195.354828 
L 77.090131 193.801056 
L 78.175932 184.13151 
L 79.261733 185.824347 
L 80.347534 169.19094 
L 81.433335 167.330937 
L 82.519137 164.899461 
L 83.604938 159.17166 
L 84.690739 159.131155 
L 85.77654 163.313277 
L 86.862341 157.52572 
L 87.948142 162.609066 
L 89.033943 150.718246 
L 90.119745 154.964866 
L 91.205546 155.585728 
L 92.291347 152.420942 
L 93.377148 144.5248 
L 94.462949 141.589637 
L 95.54875 142.201252 
L 96.634552 143.671129 
L 97.720353 142.594654 
L 98.806154 135.861776 
L 99.891955 136.813591 
L 100.977756 143.217112 
L 102.063557 137.276853 
L 103.149358 145.001758 
L 104.23516 142.124444 
L 105.320961 139.762956 
L 106.406762 137.061068 
L 107.492563 135.896379 
L 108.578364 141.649017 
L 109.664165 137.54569 
L 111.835768 130.574753 
L 112.921569 136.925821 
L 114.00737 145.704824 
L 115.093171 140.462093 
L 116.178972 132.532204 
L 117.264773 131.846079 
L 118.350575 134.033382 
L 119.436376 129.724906 
L 120.522177 128.086121 
L 121.607978 127.621186 
L 122.693779 127.934389 
L 124.865382 119.421134 
L 125.951183 121.846837 
L 127.036984 118.755617 
L 128.122785 124.429282 
L 129.208586 119.346694 
L 130.294387 110.570651 
L 131.380189 121.020996 
L 132.46599 121.200372 
L 133.551791 121.535495 
L 134.637592 122.409745 
L 135.723393 115.954813 
L 136.809194 124.174884 
L 137.894995 112.709567 
L 138.980797 116.823048 
L 140.066598 125.341938 
L 141.152399 114.783525 
L 142.2382 108.198071 
L 143.324001 109.151371 
L 144.409802 117.848714 
L 145.495604 117.474869 
L 146.581405 117.929692 
L 147.667206 115.035913 
L 148.753007 115.471041 
L 149.838808 116.93332 
L 150.924609 111.50791 
L 152.01041 101.211568 
L 153.096212 119.311722 
L 154.182013 125.720949 
L 155.267814 111.725844 
L 156.353615 110.650781 
L 157.439416 121.405594 
L 158.525217 119.311879 
L 160.69682 116.202777 
L 162.868422 121.731338 
L 163.954223 121.381785 
L 165.040024 119.576404 
L 167.211627 118.328164 
L 168.297428 114.37337 
L 169.383229 107.655789 
L 170.46903 118.554661 
L 171.554831 118.672665 
L 172.640632 109.143043 
L 173.726434 108.430033 
L 174.812235 98.035428 
L 175.898036 102.593796 
L 176.983837 100.951257 
L 178.069638 103.662473 
L 179.155439 116.307179 
L 181.327042 114.710688 
L 182.412843 109.810483 
L 183.498644 117.06274 
L 184.584445 101.206228 
L 185.670246 108.325266 
L 186.756047 104.525432 
L 187.841849 110.782154 
L 188.92765 103.329827 
L 190.013451 114.691933 
L 191.099252 106.562913 
L 192.185053 109.665313 
L 193.270854 119.744477 
L 194.356656 106.195812 
L 195.442457 111.090476 
L 196.528258 108.85956 
L 197.614059 112.022628 
L 198.69986 109.838636 
L 199.785661 110.156912 
L 200.871462 107.90719 
L 201.957264 112.612336 
L 203.043065 113.241294 
L 204.128866 111.331444 
L 205.214667 120.45249 
L 206.300468 110.389905 
L 207.386269 110.499953 
L 208.472071 108.777032 
L 209.557872 109.321957 
L 210.643673 104.889635 
L 211.729474 109.199298 
L 212.815275 109.956062 
L 213.901076 112.746499 
L 214.986877 114.321953 
L 216.072679 99.314344 
L 217.15848 115.739688 
L 218.244281 120.286516 
L 219.330082 117.329856 
L 220.415883 105.63115 
L 221.501684 105.784691 
L 222.587486 108.901254 
L 223.673287 102.742407 
L 224.759088 103.233038 
L 225.844889 102.915314 
L 226.93069 114.015828 
L 228.016491 106.368305 
L 229.102292 108.165624 
L 230.188094 108.431556 
L 231.273895 110.971982 
L 232.359696 101.039542 
L 233.445497 109.453017 
L 234.531298 112.600066 
L 235.617099 97.71468 
L 236.702901 104.81509 
L 237.788702 103.971022 
L 238.874503 111.31297 
L 239.960304 105.100892 
L 241.046105 117.489326 
L 242.131906 115.851258 
L 243.217708 101.465712 
L 244.303509 108.030299 
L 245.38931 99.801521 
L 246.475111 97.242644 
L 247.560912 107.464974 
L 248.646713 104.898445 
L 249.732514 114.724505 
L 250.818316 115.873411 
L 251.904117 119.491089 
L 252.989918 127.620717 
L 254.075719 108.475088 
L 255.16152 109.583718 
L 256.247321 105.710762 
L 257.333123 106.439657 
L 258.418924 102.887893 
L 259.504725 93.085424 
L 260.590526 100.588749 
L 261.676327 100.394542 
L 262.762128 102.278336 
L 263.847929 106.085987 
L 264.933731 95.838427 
L 266.019532 101.260552 
L 267.105333 102.482361 
L 268.191134 104.256942 
L 269.276935 103.463814 
L 270.362736 105.065335 
L 271.448538 123.738483 
L 272.534339 121.250584 
L 273.62014 114.8386 
L 274.705941 111.479179 
L 275.791742 103.606397 
L 276.877543 104.91039 
L 277.963344 114.261274 
L 279.049146 115.897994 
L 280.134947 115.27122 
L 281.220748 104.974453 
L 282.306549 116.080981 
L 283.39235 143.004185 
L 284.478151 137.674028 
L 285.563953 136.817231 
L 286.649754 148.789722 
L 287.735555 148.324798 
L 288.821356 155.761904 
L 289.907157 162.320465 
L 290.992958 164.365126 
L 292.07876 157.729128 
L 293.164561 153.447886 
L 294.250362 154.738021 
L 295.336163 158.153574 
L 296.421964 136.444558 
L 297.507765 158.987356 
L 299.679368 143.527356 
L 300.765169 139.39779 
L 301.85097 155.620353 
L 302.936771 145.016226 
L 304.022572 156.96681 
L 305.108373 155.789895 
L 306.194175 150.477488 
L 307.279976 149.105492 
L 308.365777 152.885371 
L 309.451578 154.815971 
L 311.62318 146.790553 
L 312.708981 159.009997 
L 313.794783 167.280379 
L 314.880584 161.895898 
L 315.966385 161.008617 
L 317.052186 153.52292 
L 318.137987 149.638522 
L 319.223788 165.329215 
L 320.30959 160.051597 
L 321.395391 158.405592 
L 322.481192 155.455875 
L 323.566993 212.44117 
L 324.652794 195.092265 
L 325.738595 183.985152 
L 326.824396 181.117002 
L 327.910198 176.610294 
L 328.995999 170.799278 
L 330.0818 167.41951 
L 331.167601 162.948545 
L 332.253402 166.086069 
L 333.339203 162.195984 
L 334.425005 156.592398 
L 335.510806 152.025469 
L 336.596607 154.855164 
L 337.682408 146.09756 
L 338.768209 146.492302 
L 339.85401 147.689054 
L 340.939811 150.975219 
L 342.025613 147.658642 
L 343.111414 146.711309 
L 344.197215 147.752364 
L 345.283016 141.374737 
L 346.368817 151.710712 
L 347.454618 143.951263 
L 348.54042 142.336133 
L 349.626221 144.509459 
L 350.712022 143.642747 
L 351.797823 132.967352 
L 352.883624 140.083846 
L 353.969425 137.503406 
L 355.055227 137.262495 
L 356.141028 133.041594 
L 357.226829 132.108573 
L 358.31263 130.15734 
L 359.398431 122.443415 
L 360.484232 136.088596 
L 361.570033 127.513997 
L 362.655835 132.959102 
L 363.741636 128.620722 
L 364.827437 134.845776 
L 365.913238 138.872181 
L 366.999039 135.294837 
L 368.08484 130.5726 
L 369.170642 123.557293 
L 370.256443 123.551184 
L 371.342244 130.372799 
L 373.513846 118.311757 
L 374.599647 122.740832 
L 375.685448 135.564804 
L 376.77125 127.162614 
L 377.857051 127.777499 
L 378.942852 117.43068 
L 380.028653 125.081342 
L 381.114454 115.001479 
L 382.200255 116.811576 
L 383.286057 122.488062 
L 384.371858 122.002523 
L 385.457659 118.713227 
L 386.54346 120.16034 
L 387.629261 112.188755 
L 388.715062 120.739868 
L 389.800863 121.218015 
L 390.886665 115.165779 
L 391.972466 121.248653 
L 393.058267 118.09346 
L 394.144068 122.239115 
L 395.229869 118.648432 
L 396.31567 124.843458 
L 397.401472 112.650795 
L 398.487273 118.830436 
L 398.487273 118.830436 
" clip-path="url(#pf017e93871)" style="fill: none; stroke-dasharray: 9.6,2.4,1.5,2.4; stroke-dashoffset: 0; stroke: #008000; stroke-width: 1.5"/>
   </g>
   <g id="line2d_30">
    <path d="M 73.832727 138.353586 
L 77.090131 138.353586 
L 78.175932 115.946615 
L 87.948142 115.946615 
L 89.033943 108.035963 
L 90.119745 108.035963 
L 91.205546 102.907304 
L 93.377148 102.907304 
L 94.462949 94.020183 
L 110.749967 94.020183 
L 111.835768 83.843853 
L 128.122785 83.843853 
L 129.208586 80.038906 
L 140.066598 80.038906 
L 141.152399 76.304722 
L 169.383229 76.304722 
L 170.46903 71.702711 
L 171.554831 68.594019 
L 173.726434 68.594019 
L 174.812235 65.554897 
L 175.898036 58.883119 
L 176.983837 58.883119 
L 178.069638 58.749885 
L 221.501684 58.664581 
L 222.587486 57.743061 
L 223.673287 57.28681 
L 224.759088 57.28681 
L 225.844889 56.177442 
L 226.93069 56.177442 
L 228.016491 53.568 
L 282.306549 53.568 
L 283.39235 63.617226 
L 322.481192 63.617226 
L 323.566993 141.560022 
L 324.652794 141.560022 
L 325.738595 133.02863 
L 331.167601 133.02863 
L 332.253402 130.283512 
L 334.425005 130.283512 
L 335.510806 118.884153 
L 336.596607 118.884153 
L 337.682408 104.195944 
L 350.712022 104.195944 
L 351.797823 96.566352 
L 368.08484 96.566352 
L 369.170642 94.231461 
L 371.342244 94.231461 
L 372.428045 91.624781 
L 373.513846 90.531782 
L 380.028653 90.531782 
L 381.114454 86.032496 
L 382.200255 85.913894 
L 385.457659 85.913894 
L 386.54346 83.938752 
L 391.972466 83.938752 
L 393.058267 82.455253 
L 396.31567 82.455253 
L 397.401472 76.487185 
L 398.487273 76.487185 
L 398.487273 76.487185 
" clip-path="url(#pf017e93871)" style="fill: none; stroke: #ff0000; stroke-width: 1.5; stroke-linecap: square"/>
   </g>
   <g id="patch_3">
    <path d="M 57.6 307.584 
L 57.6 41.472 
" style="fill: none; stroke: #000000; stroke-width: 0.8; stroke-linejoin: miter; stroke-linecap: square"/>
   </g>
   <g id="patch_4">
    <path d="M 414.72 307.584 
L 414.72 41.472 
" style="fill: none; stroke: #000000; stroke-width: 0.8; stroke-linejoin: miter; stroke-linecap: square"/>
   </g>
   <g id="patch_5">
    <path d="M 57.6 307.584 
L 414.72 307.584 
" style="fill: none; stroke: #000000; stroke-width: 0.8; stroke-linejoin: miter; stroke-linecap: square"/>
   </g>
   <g id="patch_6">
    <path d="M 57.6 41.472 
L 414.72 41.472 
" style="fill: none; stroke: #000000; stroke-width: 0.8; stroke-linejoin: miter; stroke-linecap: square"/>
   </g>
   <g id="text_16">
    <!-- Population's average and best fitness -->
    <g transform="translate(123.529687 35.472) scale(0.12 -0.12)">
     <defs>
      <path id="DejaVuSans-50" d="M 1259 4147 
L 1259 2394 
L 2053 2394 
Q 2494 2394 2734 2622 
Q 2975 2850 2975 3272 
Q 2975 3691 2734 3919 
Q 2494 4147 2053 4147 
L 1259 4147 
z
M 628 4666 
L 2053 4666 
Q 2838 4666 3239 4311 
Q 3641 3956 3641 3272 
Q 3641 2581 3239 2228 
Q 2838 1875 2053 1875 
L 1259 1875 
L 1259 0 
L 628 0 
L 628 4666 
z
" transform="scale(0.015625)"/>
      <path id="DejaVuSans-70" d="M 1159 525 
L 1159 -1331 
L 581 -1331 
L 581 3500 
L 1159 3500 
L 1159 2969 
Q 1341 3281 1617 3432 
Q 1894 3584 2278 3584 
Q 2916 3584 3314 3078 
Q 3713 2572 3713 1747 
Q 3713 922 3314 415 
Q 2916 -91 2278 -91 
Q 1894 -91 1617 61 
Q 1341 213 1159 525 
z
M 3116 1747 
Q 3116 2381 2855 2742 
Q 2594 3103 2138 3103 
Q 1681 3103 1420 2742 
Q 1159 2381 1159 1747 
Q 1159 1113 1420 752 
Q 1681 391 2138 391 
Q 2594 391 2855 752 
Q 3116 1113 3116 1747 
z
" transform="scale(0.015625)"/>
      <path id="DejaVuSans-75" d="M 544 1381 
L 544 3500 
L 1119 3500 
L 1119 1403 
Q 1119 906 1312 657 
Q 1506 409 1894 409 
Q 2359 409 2629 706 
Q 2900 1003 2900 1516 
L 2900 3500 
L 3475 3500 
L 3475 0 
L 2900 0 
L 2900 538 
Q 2691 219 2414 64 
Q 2138 -91 1772 -91 
Q 1169 -91 856 284 
Q 544 659 544 1381 
z
M 1991 3584 
L 1991 3584 
z
" transform="scale(0.015625)"/>
      <path id="DejaVuSans-6c" d="M 603 4863 
L 1178 4863 
L 1178 0 
L 603 0 
L 603 4863 
z
" transform="scale(0.015625)"/>
      <path id="DejaVuSans-27" d="M 1147 4666 
L 1147 2931 
L 616 2931 
L 616 4666 
L 1147 4666 
z
" transform="scale(0.015625)"/>
      <path id="DejaVuSans-20" transform="scale(0.015625)"/>
      <path id="DejaVuSans-76" d="M 191 3500 
L 800 3500 
L 1894 563 
L 2988 3500 
L 3597 3500 
L 2284 0 
L 1503 0 
L 191 3500 
z
" transform="scale(0.015625)"/>
      <path id="DejaVuSans-67" d="M 2906 1791 
Q 2906 2416 2648 2759 
Q 2391 3103 1925 3103 
Q 1463 3103 1205 2759 
Q 947 2416 947 1791 
Q 947 1169 1205 825 
Q 1463 481 1925 481 
Q 2391 481 2648 825 
Q 2906 1169 2906 1791 
z
M 3481 434 
Q 3481 -459 3084 -895 
Q 2688 -1331 1869 -1331 
Q 1566 -1331 1297 -1286 
Q 1028 -1241 775 -1147 
L 775 -588 
Q 1028 -725 1275 -790 
Q 1522 -856 1778 -856 
Q 2344 -856 2625 -561 
Q 2906 -266 2906 331 
L 2906 616 
Q 2728 306 2450 153 
Q 2172 0 1784 0 
Q 1141 0 747 490 
Q 353 981 353 1791 
Q 353 2603 747 3093 
Q 1141 3584 1784 3584 
Q 2172 3584 2450 3431 
Q 2728 3278 2906 2969 
L 2906 3500 
L 3481 3500 
L 3481 434 
z
" transform="scale(0.015625)"/>
      <path id="DejaVuSans-64" d="M 2906 2969 
L 2906 4863 
L 3481 4863 
L 3481 0 
L 2906 0 
L 2906 525 
Q 2725 213 2448 61 
Q 2172 -91 1784 -91 
Q 1150 -91 751 415 
Q 353 922 353 1747 
Q 353 2572 751 3078 
Q 1150 3584 1784 3584 
Q 2172 3584 2448 3432 
Q 2725 3281 2906 2969 
z
M 947 1747 
Q 947 1113 1208 752 
Q 1469 391 1925 391 
Q 2381 391 2643 752 
Q 2906 1113 2906 1747 
Q 2906 2381 2643 2742 
Q 2381 3103 1925 3103 
Q 1469 3103 1208 2742 
Q 947 2381 947 1747 
z
" transform="scale(0.015625)"/>
      <path id="DejaVuSans-62" d="M 3116 1747 
Q 3116 2381 2855 2742 
Q 2594 3103 2138 3103 
Q 1681 3103 1420 2742 
Q 1159 2381 1159 1747 
Q 1159 1113 1420 752 
Q 1681 391 2138 391 
Q 2594 391 2855 752 
Q 3116 1113 3116 1747 
z
M 1159 2969 
Q 1341 3281 1617 3432 
Q 1894 3584 2278 3584 
Q 2916 3584 3314 3078 
Q 3713 2572 3713 1747 
Q 3713 922 3314 415 
Q 2916 -91 2278 -91 
Q 1894 -91 1617 61 
Q 1341 213 1159 525 
L 1159 0 
L 581 0 
L 581 4863 
L 1159 4863 
L 1159 2969 
z
" transform="scale(0.015625)"/>
      <path id="DejaVuSans-66" d="M 2375 4863 
L 2375 4384 
L 1825 4384 
Q 1516 4384 1395 4259 
Q 1275 4134 1275 3809 
L 1275 3500 
L 2222 3500 
L 2222 3053 
L 1275 3053 
L 1275 0 
L 697 0 
L 697 3053 
L 147 3053 
L 147 3500 
L 697 3500 
L 697 3744 
Q 697 4328 969 4595 
Q 1241 4863 1831 4863 
L 2375 4863 
z
" transform="scale(0.015625)"/>
     </defs>
     <use xlink:href="#DejaVuSans-50"/>
     <use xlink:href="#DejaVuSans-6f" x="56.677734"/>
     <use xlink:href="#DejaVuSans-70" x="117.859375"/>
     <use xlink:href="#DejaVuSans-75" x="181.335938"/>
     <use xlink:href="#DejaVuSans-6c" x="244.714844"/>
     <use xlink:href="#DejaVuSans-61" x="272.498047"/>
     <use xlink:href="#DejaVuSans-74" x="333.777344"/>
     <use xlink:href="#DejaVuSans-69" x="372.986328"/>
     <use xlink:href="#DejaVuSans-6f" x="400.769531"/>
     <use xlink:href="#DejaVuSans-6e" x="461.951172"/>
     <use xlink:href="#DejaVuSans-27" x="525.330078"/>
     <use xlink:href="#DejaVuSans-73" x="552.820312"/>
     <use xlink:href="#DejaVuSans-20" x="604.919922"/>
     <use xlink:href="#DejaVuSans-61" x="636.707031"/>
     <use xlink:href="#DejaVuSans-76" x="697.986328"/>
     <use xlink:href="#DejaVuSans-65" x="757.166016"/>
     <use xlink:href="#DejaVuSans-72" x="818.689453"/>
     <use xlink:href="#DejaVuSans-61" x="859.802734"/>
     <use xlink:href="#DejaVuSans-67" x="921.082031"/>
     <use xlink:href="#DejaVuSans-65" x="984.558594"/>
     <use xlink:href="#DejaVuSans-20" x="1046.082031"/>
     <use xlink:href="#DejaVuSans-61" x="1077.869141"/>
     <use xlink:href="#DejaVuSans-6e" x="1139.148438"/>
     <use xlink:href="#DejaVuSans-64" x="1202.527344"/>
     <use xlink:href="#DejaVuSans-20" x="1266.003906"/>
     <use xlink:href="#DejaVuSans-62" x="1297.791016"/>
     <use xlink:href="#DejaVuSans-65" x="1361.267578"/>
     <use xlink:href="#DejaVuSans-73" x="1422.791016"/>
     <use xlink:href="#DejaVuSans-74" x="1474.890625"/>
     <use xlink:href="#DejaVuSans-20" x="1514.099609"/>
     <use xlink:href="#DejaVuSans-66" x="1545.886719"/>
     <use xlink:href="#DejaVuSans-69" x="1581.091797"/>
     <use xlink:href="#DejaVuSans-74" x="1608.875"/>
     <use xlink:href="#DejaVuSans-6e" x="1648.083984"/>
     <use xlink:href="#DejaVuSans-65" x="1711.462891"/>
     <use xlink:href="#DejaVuSans-73" x="1772.986328"/>
     <use xlink:href="#DejaVuSans-73" x="1825.085938"/>
    </g>
   </g>
   <g id="legend_1">
    <g id="patch_7">
     <path d="M 199.689687 302.584 
L 272.630313 302.584 
Q 274.630313 302.584 274.630313 300.584 
L 274.630313 242.8715 
Q 274.630313 240.8715 272.630313 240.8715 
L 199.689687 240.8715 
Q 197.689687 240.8715 197.689687 242.8715 
L 197.689687 300.584 
Q 197.689687 302.584 199.689687 302.584 
z
" style="fill: #ffffff; opacity: 0.8; stroke: #cccccc; stroke-linejoin: miter"/>
    </g>
    <g id="line2d_31">
     <path d="M 201.689687 248.969937 
L 211.689687 248.969937 
L 221.689687 248.969937 
" style="fill: none; stroke: #0000ff; stroke-width: 1.5; stroke-linecap: square"/>
    </g>
    <g id="text_17">
     <!-- average -->
     <g transform="translate(229.689687 252.469937) scale(0.1 -0.1)">
      <use xlink:href="#DejaVuSans-61"/>
      <use xlink:href="#DejaVuSans-76" x="61.279297"/>
      <use xlink:href="#DejaVuSans-65" x="120.458984"/>
      <use xlink:href="#DejaVuSans-72" x="181.982422"/>
      <use xlink:href="#DejaVuSans-61" x="223.095703"/>
      <use xlink:href="#DejaVuSans-67" x="284.375"/>
      <use xlink:href="#DejaVuSans-65" x="347.851562"/>
     </g>
    </g>
    <g id="line2d_32">
     <path d="M 201.689687 263.648062 
L 211.689687 263.648062 
L 221.689687 263.648062 
" style="fill: none; stroke-dasharray: 9.6,2.4,1.5,2.4; stroke-dashoffset: 0; stroke: #008000; stroke-width: 1.5"/>
    </g>
    <g id="text_18">
     <!-- -1 sd -->
     <g transform="translate(229.689687 267.148062) scale(0.1 -0.1)">
      <defs>
       <path id="DejaVuSans-2d" d="M 313 2009 
L 1997 2009 
L 1997 1497 
L 313 1497 
L 313 2009 
z
" transform="scale(0.015625)"/>
      </defs>
      <use xlink:href="#DejaVuSans-2d"/>
      <use xlink:href="#DejaVuSans-31" x="36.083984"/>
      <use xlink:href="#DejaVuSans-20" x="99.707031"/>
      <use xlink:href="#DejaVuSans-73" x="131.494141"/>
      <use xlink:href="#DejaVuSans-64" x="183.59375"/>
     </g>
    </g>
    <g id="line2d_33">
     <path d="M 201.689687 278.326187 
L 211.689687 278.326187 
L 221.689687 278.326187 
" style="fill: none; stroke-dasharray: 9.6,2.4,1.5,2.4; stroke-dashoffset: 0; stroke: #008000; stroke-width: 1.5"/>
    </g>
    <g id="text_19">
     <!-- +1 sd -->
     <g transform="translate(229.689687 281.826187) scale(0.1 -0.1)">
      <defs>
       <path id="DejaVuSans-2b" d="M 2944 4013 
L 2944 2272 
L 4684 2272 
L 4684 1741 
L 2944 1741 
L 2944 0 
L 2419 0 
L 2419 1741 
L 678 1741 
L 678 2272 
L 2419 2272 
L 2419 4013 
L 2944 4013 
z
" transform="scale(0.015625)"/>
      </defs>
      <use xlink:href="#DejaVuSans-2b"/>
      <use xlink:href="#DejaVuSans-31" x="83.789062"/>
      <use xlink:href="#DejaVuSans-20" x="147.412109"/>
      <use xlink:href="#DejaVuSans-73" x="179.199219"/>
      <use xlink:href="#DejaVuSans-64" x="231.298828"/>
     </g>
    </g>
    <g id="line2d_34">
     <path d="M 201.689687 293.004312 
L 211.689687 293.004312 
L 221.689687 293.004312 
" style="fill: none; stroke: #ff0000; stroke-width: 1.5; stroke-linecap: square"/>
    </g>
    <g id="text_20">
     <!-- best -->
     <g transform="translate(229.689687 296.504312) scale(0.1 -0.1)">
      <use xlink:href="#DejaVuSans-62"/>
      <use xlink:href="#DejaVuSans-65" x="63.476562"/>
      <use xlink:href="#DejaVuSans-73" x="125"/>
      <use xlink:href="#DejaVuSans-74" x="177.099609"/>
     </g>
    </g>
   </g>
  </g>
 </g>
 <defs>
  <clipPath id="pf017e93871">
   <rect x="57.6" y="41.472" width="357.12" height="266.112"/>
  </clipPath>
 </defs>
</svg>
