<?xml version="1.0" encoding="UTF-8" standalone="no"?>
<!DOCTYPE svg PUBLIC "-//W3C//DTD SVG 1.1//EN"
 "http://www.w3.org/Graphics/SVG/1.1/DTD/svg11.dtd">
<!-- Generated by graphviz version 9.0.0 (20230911.1827)
 -->
<!-- Pages: 1 -->
<svg width="708pt" height="429pt"
 viewBox="0.00 0.00 707.73 428.57" xmlns="http://www.w3.org/2000/svg" xmlns:xlink="http://www.w3.org/1999/xlink">
<g id="graph0" class="graph" transform="scale(1 1) rotate(0) translate(4 424.57)">
<polygon fill="white" stroke="none" points="-4,4 -4,-424.57 703.73,-424.57 703.73,4 -4,4"/>
<!-- &#45;1 -->
<g id="node1" class="node">
<title>&#45;1</title>
<polygon fill="lightgray" stroke="black" points="103.44,-350.91 79.94,-350.91 79.94,-331.66 103.44,-331.66 103.44,-350.91"/>
<text text-anchor="middle" x="91.69" y="-338.36" font-family="Times New Roman,serif" font-size="9.00">&#45;1</text>
</g>
<!-- 1122 -->
<g id="node21" class="node">
<title>1122</title>
<ellipse fill="white" stroke="black" cx="37.69" cy="-257.2" rx="24.04" ry="24.04"/>
<text text-anchor="middle" x="37.69" y="-254.27" font-family="Times New Roman,serif" font-size="9.00">1122</text>
</g>
<!-- &#45;1&#45;&gt;1122 -->
<g id="edge22" class="edge">
<title>&#45;1&#45;&gt;1122</title>
<path fill="none" stroke="red" stroke-width="0.3" d="M85.71,-331.18C78.62,-320.41 66.47,-301.94 56.16,-286.28"/>
<polygon fill="red" stroke="red" stroke-width="0.3" points="59.34,-284.74 50.92,-278.31 53.49,-288.59 59.34,-284.74"/>
</g>
<!-- 268 -->
<g id="node25" class="node">
<title>268</title>
<ellipse fill="white" stroke="black" cx="337.69" cy="-173.12" rx="20.86" ry="20.86"/>
<text text-anchor="middle" x="337.69" y="-170.19" font-family="Times New Roman,serif" font-size="9.00">268</text>
</g>
<!-- &#45;1&#45;&gt;268 -->
<g id="edge1" class="edge">
<title>&#45;1&#45;&gt;268</title>
<path fill="none" stroke="red" stroke-width="0.17" stroke-dasharray="1,5" d="M90.18,-331.45C87.27,-311.23 83.23,-261.16 108.69,-233.16 135.16,-204.05 250.34,-185.43 306.57,-177.91"/>
<polygon fill="red" stroke="red" stroke-width="0.17" points="306.96,-181.39 316.42,-176.63 306.05,-174.45 306.96,-181.39"/>
</g>
<!-- &#45;2 -->
<g id="node2" class="node">
<title>&#45;2</title>
<polygon fill="lightgray" stroke="black" points="91.44,-420.57 67.94,-420.57 67.94,-401.32 91.44,-401.32 91.44,-420.57"/>
<text text-anchor="middle" x="79.69" y="-408.02" font-family="Times New Roman,serif" font-size="9.00">&#45;2</text>
</g>
<!-- &#45;3 -->
<g id="node3" class="node">
<title>&#45;3</title>
<polygon fill="lightgray" stroke="black" points="141.44,-266.82 117.94,-266.82 117.94,-247.57 141.44,-247.57 141.44,-266.82"/>
<text text-anchor="middle" x="129.69" y="-254.27" font-family="Times New Roman,serif" font-size="9.00">&#45;3</text>
</g>
<!-- &#45;3&#45;&gt;268 -->
<g id="edge2" class="edge">
<title>&#45;3&#45;&gt;268</title>
<path fill="none" stroke="red" stroke-width="0.27" stroke-dasharray="1,5" d="M135.81,-247.48C139.6,-242.65 144.85,-236.89 150.69,-233.16 200.12,-201.56 267.72,-185.75 306.64,-178.79"/>
<polygon fill="red" stroke="red" stroke-width="0.27" points="307.14,-182.26 316.41,-177.13 305.97,-175.36 307.14,-182.26"/>
</g>
<!-- &#45;4 -->
<g id="node4" class="node">
<title>&#45;4</title>
<polygon fill="lightgray" stroke="black" points="183.44,-266.82 159.94,-266.82 159.94,-247.57 183.44,-247.57 183.44,-266.82"/>
<text text-anchor="middle" x="171.69" y="-254.27" font-family="Times New Roman,serif" font-size="9.00">&#45;4</text>
</g>
<!-- &#45;4&#45;&gt;268 -->
<g id="edge3" class="edge">
<title>&#45;4&#45;&gt;268</title>
<path fill="none" stroke="red" stroke-width="0.14" stroke-dasharray="1,5" d="M178.29,-247.2C182.09,-242.52 187.19,-237 192.69,-233.16 228.74,-208.01 277.11,-191.07 307.84,-182.01"/>
<polygon fill="red" stroke="red" stroke-width="0.14" points="308.69,-185.41 317.34,-179.29 306.77,-178.68 308.69,-185.41"/>
</g>
<!-- &#45;5 -->
<g id="node5" class="node">
<title>&#45;5</title>
<polygon fill="lightgray" stroke="black" points="225.44,-266.82 201.94,-266.82 201.94,-247.57 225.44,-247.57 225.44,-266.82"/>
<text text-anchor="middle" x="213.69" y="-254.27" font-family="Times New Roman,serif" font-size="9.00">&#45;5</text>
</g>
<!-- &#45;5&#45;&gt;268 -->
<g id="edge4" class="edge">
<title>&#45;5&#45;&gt;268</title>
<path fill="none" stroke="green" stroke-width="1.1" d="M220.51,-247.49C224.37,-242.89 229.46,-237.36 234.69,-233.16 257.56,-214.82 286.8,-198.63 308.28,-187.87"/>
<polygon fill="green" stroke="green" stroke-width="1.1" points="309.8,-191.03 317.24,-183.48 306.72,-184.74 309.8,-191.03"/>
</g>
<!-- &#45;6 -->
<g id="node6" class="node">
<title>&#45;6</title>
<polygon fill="lightgray" stroke="black" points="267.44,-266.82 243.94,-266.82 243.94,-247.57 267.44,-247.57 267.44,-266.82"/>
<text text-anchor="middle" x="255.69" y="-254.27" font-family="Times New Roman,serif" font-size="9.00">&#45;6</text>
</g>
<!-- &#45;6&#45;&gt;268 -->
<g id="edge5" class="edge">
<title>&#45;6&#45;&gt;268</title>
<path fill="none" stroke="red" stroke-width="0.33" stroke-dasharray="1,5" d="M263.74,-247.11C267.6,-242.82 272.32,-237.66 276.69,-233.16 289.12,-220.35 303.43,-206.46 315.07,-195.36"/>
<polygon fill="red" stroke="red" stroke-width="0.33" points="317.44,-197.94 322.28,-188.52 312.62,-192.86 317.44,-197.94"/>
</g>
<!-- &#45;7 -->
<g id="node7" class="node">
<title>&#45;7</title>
<polygon fill="lightgray" stroke="black" points="309.44,-266.82 285.94,-266.82 285.94,-247.57 309.44,-247.57 309.44,-266.82"/>
<text text-anchor="middle" x="297.69" y="-254.27" font-family="Times New Roman,serif" font-size="9.00">&#45;7</text>
</g>
<!-- &#45;7&#45;&gt;268 -->
<g id="edge6" class="edge">
<title>&#45;7&#45;&gt;268</title>
<path fill="none" stroke="green" stroke-width="0.44" stroke-dasharray="1,5" d="M302.13,-247.1C307.45,-236.18 316.62,-217.36 324.32,-201.56"/>
<polygon fill="green" stroke="green" stroke-width="0.44" points="327.35,-203.33 328.58,-192.81 321.05,-200.27 327.35,-203.33"/>
</g>
<!-- &#45;8 -->
<g id="node8" class="node">
<title>&#45;8</title>
<polygon fill="lightgray" stroke="black" points="49.44,-420.57 25.94,-420.57 25.94,-401.32 49.44,-401.32 49.44,-420.57"/>
<text text-anchor="middle" x="37.69" y="-408.02" font-family="Times New Roman,serif" font-size="9.00">&#45;8</text>
</g>
<!-- &#45;8&#45;&gt;1122 -->
<g id="edge32" class="edge">
<title>&#45;8&#45;&gt;1122</title>
<path fill="none" stroke="green" stroke-width="0.48" stroke-dasharray="1,5" d="M28.36,-401.05C20.33,-392.7 9.34,-379.42 4.69,-365.32 -2,-345.03 -0.7,-337.92 4.69,-317.24 7.49,-306.5 12.72,-295.65 18.2,-286.22"/>
<polygon fill="green" stroke="green" stroke-width="0.48" points="21.03,-288.3 23.31,-277.96 15.08,-284.63 21.03,-288.3"/>
</g>
<!-- 4966 -->
<g id="node24" class="node">
<title>4966</title>
<ellipse fill="white" stroke="black" cx="37.69" cy="-341.28" rx="24.04" ry="24.04"/>
<text text-anchor="middle" x="37.69" y="-338.36" font-family="Times New Roman,serif" font-size="9.00">4966</text>
</g>
<!-- &#45;8&#45;&gt;4966 -->
<g id="edge34" class="edge">
<title>&#45;8&#45;&gt;4966</title>
<path fill="none" stroke="red" stroke-width="0.25" d="M37.69,-401.1C37.69,-394.6 37.69,-385.3 37.69,-376.02"/>
<polygon fill="red" stroke="red" stroke-width="0.25" points="41.19,-376.07 37.69,-366.07 34.19,-376.07 41.19,-376.07"/>
</g>
<!-- &#45;8&#45;&gt;268 -->
<g id="edge7" class="edge">
<title>&#45;8&#45;&gt;268</title>
<path fill="none" stroke="red" stroke-width="1.38" d="M49.68,-404.83C102.18,-382.35 309.52,-293.1 318.69,-281.24 335.17,-259.94 339.19,-229.13 339.51,-206.02"/>
<polygon fill="red" stroke="red" stroke-width="1.38" points="343.01,-206.13 339.39,-196.17 336.01,-206.21 343.01,-206.13"/>
</g>
<!-- &#45;9 -->
<g id="node9" class="node">
<title>&#45;9</title>
<polygon fill="lightgray" stroke="black" points="389.44,-266.82 365.94,-266.82 365.94,-247.57 389.44,-247.57 389.44,-266.82"/>
<text text-anchor="middle" x="377.69" y="-254.27" font-family="Times New Roman,serif" font-size="9.00">&#45;9</text>
</g>
<!-- &#45;9&#45;&gt;268 -->
<g id="edge8" class="edge">
<title>&#45;9&#45;&gt;268</title>
<path fill="none" stroke="green" stroke-width="0.22" stroke-dasharray="1,5" d="M373.26,-247.1C367.88,-236.08 358.59,-217 350.85,-201.11"/>
<polygon fill="green" stroke="green" stroke-width="0.22" points="354.19,-199.98 346.66,-192.52 347.89,-203.04 354.19,-199.98"/>
</g>
<!-- &#45;10 -->
<g id="node10" class="node">
<title>&#45;10</title>
<polygon fill="lightgray" stroke="black" points="434.69,-350.91 406.69,-350.91 406.69,-331.66 434.69,-331.66 434.69,-350.91"/>
<text text-anchor="middle" x="420.69" y="-338.36" font-family="Times New Roman,serif" font-size="9.00">&#45;10</text>
</g>
<!-- 4000 -->
<g id="node22" class="node">
<title>4000</title>
<ellipse fill="white" stroke="black" cx="469.69" cy="-257.2" rx="24.04" ry="24.04"/>
<text text-anchor="middle" x="469.69" y="-254.27" font-family="Times New Roman,serif" font-size="9.00">4000</text>
</g>
<!-- &#45;10&#45;&gt;4000 -->
<g id="edge33" class="edge">
<title>&#45;10&#45;&gt;4000</title>
<path fill="none" stroke="red" stroke-width="0.1" stroke-dasharray="1,5" d="M426.12,-331.18C432.51,-320.48 443.44,-302.18 452.75,-286.59"/>
<polygon fill="red" stroke="red" stroke-width="0.1" points="455.51,-288.78 457.63,-278.4 449.5,-285.19 455.51,-288.78"/>
</g>
<!-- &#45;10&#45;&gt;268 -->
<g id="edge9" class="edge">
<title>&#45;10&#45;&gt;268</title>
<path fill="none" stroke="red" stroke-width="0.28" d="M420.6,-331.35C420.05,-312.17 416.78,-266.11 398.69,-233.16 389.9,-217.16 375.34,-202.82 362.65,-192.28"/>
<polygon fill="red" stroke="red" stroke-width="0.28" points="364.99,-189.67 354.98,-186.18 360.63,-195.14 364.99,-189.67"/>
</g>
<!-- &#45;11 -->
<g id="node11" class="node">
<title>&#45;11</title>
<polygon fill="lightgray" stroke="black" points="514.69,-182.74 486.69,-182.74 486.69,-163.49 514.69,-163.49 514.69,-182.74"/>
<text text-anchor="middle" x="500.69" y="-170.19" font-family="Times New Roman,serif" font-size="9.00">&#45;11</text>
</g>
<!-- 1 -->
<g id="node18" class="node">
<title>1</title>
<ellipse fill="lightblue" stroke="black" cx="470.69" cy="-98.58" rx="14.5" ry="14.5"/>
<text text-anchor="middle" x="470.69" y="-95.65" font-family="Times New Roman,serif" font-size="9.00">1</text>
</g>
<!-- &#45;11&#45;&gt;1 -->
<g id="edge21" class="edge">
<title>&#45;11&#45;&gt;1</title>
<path fill="none" stroke="red" stroke-width="1.19" d="M497.01,-163.22C492.91,-153.29 486.09,-136.81 480.43,-123.11"/>
<polygon fill="red" stroke="red" stroke-width="1.19" points="483.76,-122.03 476.71,-114.13 477.3,-124.7 483.76,-122.03"/>
</g>
<!-- 4674 -->
<g id="node23" class="node">
<title>4674</title>
<ellipse fill="white" stroke="black" cx="316.69" cy="-24.04" rx="24.04" ry="24.04"/>
<text text-anchor="middle" x="316.69" y="-21.12" font-family="Times New Roman,serif" font-size="9.00">4674</text>
</g>
<!-- &#45;11&#45;&gt;4674 -->
<g id="edge30" class="edge">
<title>&#45;11&#45;&gt;4674</title>
<path fill="none" stroke="red" stroke-width="0.15" d="M505.58,-163.08C514.16,-145.87 529.41,-107.96 511.69,-84.08 492.42,-58.11 401.15,-39.11 350.6,-30.38"/>
<polygon fill="red" stroke="red" stroke-width="0.15" points="351.43,-26.97 340.98,-28.76 350.26,-33.87 351.43,-26.97"/>
</g>
<!-- &#45;12 -->
<g id="node12" class="node">
<title>&#45;12</title>
<polygon fill="lightgray" stroke="black" points="137.69,-420.57 109.69,-420.57 109.69,-401.32 137.69,-401.32 137.69,-420.57"/>
<text text-anchor="middle" x="123.69" y="-408.02" font-family="Times New Roman,serif" font-size="9.00">&#45;12</text>
</g>
<!-- &#45;13 -->
<g id="node13" class="node">
<title>&#45;13</title>
<polygon fill="lightgray" stroke="black" points="183.69,-420.57 155.69,-420.57 155.69,-401.32 183.69,-401.32 183.69,-420.57"/>
<text text-anchor="middle" x="169.69" y="-408.02" font-family="Times New Roman,serif" font-size="9.00">&#45;13</text>
</g>
<!-- &#45;14 -->
<g id="node14" class="node">
<title>&#45;14</title>
<polygon fill="lightgray" stroke="black" points="577.69,-266.82 549.69,-266.82 549.69,-247.57 577.69,-247.57 577.69,-266.82"/>
<text text-anchor="middle" x="563.69" y="-254.27" font-family="Times New Roman,serif" font-size="9.00">&#45;14</text>
</g>
<!-- &#45;14&#45;&gt;268 -->
<g id="edge10" class="edge">
<title>&#45;14&#45;&gt;268</title>
<path fill="none" stroke="red" stroke-width="0.52" stroke-dasharray="1,5" d="M554.78,-247.29C549.59,-242.53 542.69,-236.89 535.69,-233.16 480.7,-203.88 409.2,-187.16 368.89,-179.42"/>
<polygon fill="red" stroke="red" stroke-width="0.52" points="369.64,-176 359.17,-177.62 368.36,-182.89 369.64,-176"/>
</g>
<!-- &#45;15 -->
<g id="node15" class="node">
<title>&#45;15</title>
<polygon fill="lightgray" stroke="black" points="509.69,-350.91 481.69,-350.91 481.69,-331.66 509.69,-331.66 509.69,-350.91"/>
<text text-anchor="middle" x="495.69" y="-338.36" font-family="Times New Roman,serif" font-size="9.00">&#45;15</text>
</g>
<!-- &#45;15&#45;&gt;4000 -->
<g id="edge28" class="edge">
<title>&#45;15&#45;&gt;4000</title>
<path fill="none" stroke="red" stroke-width="0.77" d="M492.81,-331.18C489.72,-321.44 484.65,-305.42 480.04,-290.87"/>
<polygon fill="red" stroke="red" stroke-width="0.77" points="483.5,-290.22 477.15,-281.74 476.83,-292.33 483.5,-290.22"/>
</g>
<!-- &#45;15&#45;&gt;268 -->
<g id="edge11" class="edge">
<title>&#45;15&#45;&gt;268</title>
<path fill="none" stroke="red" stroke-width="0.11" stroke-dasharray="1,5" d="M499.75,-331.23C507.97,-311.39 524.05,-263.48 502.69,-233.16 472.3,-190 407.32,-178.22 368.59,-175.11"/>
<polygon fill="red" stroke="red" stroke-width="0.11" points="369.26,-171.65 359.05,-174.48 368.79,-178.63 369.26,-171.65"/>
</g>
<!-- &#45;16 -->
<g id="node16" class="node">
<title>&#45;16</title>
<polygon fill="lightgray" stroke="black" points="645.69,-350.91 617.69,-350.91 617.69,-331.66 645.69,-331.66 645.69,-350.91"/>
<text text-anchor="middle" x="631.69" y="-338.36" font-family="Times New Roman,serif" font-size="9.00">&#45;16</text>
</g>
<!-- &#45;16&#45;&gt;268 -->
<g id="edge12" class="edge">
<title>&#45;16&#45;&gt;268</title>
<path fill="none" stroke="green" stroke-width="0.33" d="M630.64,-331.2C627.72,-310.46 617.63,-259.37 586.69,-233.16 569.99,-219.01 431.41,-191.65 368.52,-179.81"/>
<polygon fill="green" stroke="green" stroke-width="0.33" points="369.36,-176.4 358.89,-178 368.07,-183.28 369.36,-176.4"/>
</g>
<!-- 3383 -->
<g id="node26" class="node">
<title>3383</title>
<ellipse fill="white" stroke="black" cx="657.69" cy="-257.2" rx="24.04" ry="24.04"/>
<text text-anchor="middle" x="657.69" y="-254.27" font-family="Times New Roman,serif" font-size="9.00">3383</text>
</g>
<!-- &#45;16&#45;&gt;3383 -->
<g id="edge25" class="edge">
<title>&#45;16&#45;&gt;3383</title>
<path fill="none" stroke="red" stroke-width="0.71" stroke-dasharray="1,5" d="M634.57,-331.18C637.66,-321.44 642.73,-305.42 647.34,-290.87"/>
<polygon fill="red" stroke="red" stroke-width="0.71" points="650.58,-292.26 650.26,-281.66 643.9,-290.14 650.58,-292.26"/>
</g>
<!-- 0 -->
<g id="node17" class="node">
<title>0</title>
<ellipse fill="lightblue" stroke="black" cx="256.69" cy="-98.58" rx="14.5" ry="14.5"/>
<text text-anchor="middle" x="256.69" y="-95.65" font-family="Times New Roman,serif" font-size="9.00">0</text>
</g>
<!-- 0&#45;&gt;0 -->
<g id="edge17" class="edge">
<title>0&#45;&gt;0</title>
<path fill="none" stroke="green" stroke-width="0.63" stroke-dasharray="1,5" d="M266.67,-109.28C277.25,-115.97 289.19,-112.41 289.19,-98.58 289.19,-89.29 283.8,-84.63 277.06,-84.6"/>
<polygon fill="green" stroke="green" stroke-width="0.63" points="276.07,-81.24 267.59,-87.59 278.18,-87.92 276.07,-81.24"/>
</g>
<!-- 0&#45;&gt;4674 -->
<g id="edge36" class="edge">
<title>0&#45;&gt;4674</title>
<path fill="none" stroke="red" stroke-width="0.38" d="M265.54,-86.88C273.35,-77.44 285.05,-63.3 295.29,-50.92"/>
<polygon fill="red" stroke="red" stroke-width="0.38" points="297.7,-53.49 301.38,-43.55 292.31,-49.03 297.7,-53.49"/>
</g>
<!-- 0&#45;&gt;268 -->
<g id="edge24" class="edge">
<title>0&#45;&gt;268</title>
<path fill="none" stroke="green" stroke-width="0.73" stroke-dasharray="1,5" d="M269.02,-106.82C282.08,-116.44 302.3,-133.92 317.55,-148.37"/>
<polygon fill="green" stroke="green" stroke-width="0.73" points="315.03,-150.8 324.64,-155.25 319.9,-145.77 315.03,-150.8"/>
</g>
<!-- 1&#45;&gt;1 -->
<g id="edge18" class="edge">
<title>1&#45;&gt;1</title>
<path fill="none" stroke="red" stroke-width="0.37" stroke-dasharray="1,5" d="M480.67,-109.28C491.25,-115.97 503.19,-112.41 503.19,-98.58 503.19,-89.07 497.55,-84.41 490.58,-84.61"/>
<polygon fill="red" stroke="red" stroke-width="0.37" points="489.6,-81.25 481.2,-87.71 491.79,-87.9 489.6,-81.25"/>
</g>
<!-- 2 -->
<g id="node19" class="node">
<title>2</title>
<ellipse fill="lightblue" stroke="black" cx="358.69" cy="-98.58" rx="14.5" ry="14.5"/>
<text text-anchor="middle" x="358.69" y="-95.65" font-family="Times New Roman,serif" font-size="9.00">2</text>
</g>
<!-- 2&#45;&gt;2 -->
<g id="edge19" class="edge">
<title>2&#45;&gt;2</title>
<path fill="none" stroke="green" stroke-width="0.69" d="M368.67,-109.28C379.25,-115.97 391.19,-112.41 391.19,-98.58 391.19,-89.29 385.8,-84.63 379.06,-84.6"/>
<polygon fill="green" stroke="green" stroke-width="0.69" points="378.15,-81.22 369.67,-87.57 380.26,-87.89 378.15,-81.22"/>
</g>
<!-- 3 -->
<g id="node20" class="node">
<title>3</title>
<ellipse fill="lightblue" stroke="black" cx="423.69" cy="-98.58" rx="14.5" ry="14.5"/>
<text text-anchor="middle" x="423.69" y="-95.65" font-family="Times New Roman,serif" font-size="9.00">3</text>
</g>
<!-- 1122&#45;&gt;268 -->
<g id="edge23" class="edge">
<title>1122&#45;&gt;268</title>
<path fill="none" stroke="green" stroke-width="0.14" d="M57.17,-242.74C62.94,-239.21 69.39,-235.7 75.69,-233.16 155.63,-200.92 256.73,-184.45 306.75,-177.79"/>
<polygon fill="green" stroke="green" stroke-width="0.14" points="306.94,-181.3 316.41,-176.55 306.04,-174.35 306.94,-181.3"/>
</g>
<!-- 4000&#45;&gt;268 -->
<g id="edge29" class="edge">
<title>4000&#45;&gt;268</title>
<path fill="none" stroke="red" stroke-width="0.44" d="M449.36,-243.55C426.53,-229.36 389.4,-206.27 364.29,-190.65"/>
<polygon fill="red" stroke="red" stroke-width="0.44" points="366.21,-187.73 355.87,-185.42 362.51,-193.67 366.21,-187.73"/>
</g>
<!-- 4674&#45;&gt;268 -->
<g id="edge31" class="edge">
<title>4674&#45;&gt;268</title>
<path fill="none" stroke="green" stroke-width="0.28" d="M320.02,-48.33C323.62,-73.57 329.38,-113.93 333.34,-141.66"/>
<polygon fill="green" stroke="green" stroke-width="0.28" points="329.88,-142.15 334.75,-151.55 336.81,-141.16 329.88,-142.15"/>
</g>
<!-- 4966&#45;&gt;1122 -->
<g id="edge35" class="edge">
<title>4966&#45;&gt;1122</title>
<path fill="none" stroke="red" stroke-width="0.31" stroke-dasharray="1,5" d="M37.69,-316.98C37.69,-309.18 37.69,-300.33 37.69,-291.9"/>
<polygon fill="red" stroke="red" stroke-width="0.31" points="41.19,-292.03 37.69,-282.03 34.19,-292.03 41.19,-292.03"/>
</g>
<!-- 268&#45;&gt;0 -->
<g id="edge13" class="edge">
<title>268&#45;&gt;0</title>
<path fill="none" stroke="red" stroke-width="1.63" d="M320.38,-161.1C306.29,-150.15 286.89,-133.11 273.08,-119.73"/>
<polygon fill="red" stroke="red" stroke-width="1.63" points="275.83,-117.54 266.29,-112.93 270.88,-122.48 275.83,-117.54"/>
</g>
<!-- 268&#45;&gt;1 -->
<g id="edge14" class="edge">
<title>268&#45;&gt;1</title>
<path fill="none" stroke="red" stroke-width="0.17" d="M355.87,-162.38C377.55,-150.75 414.85,-130.65 446.69,-113.07 447.65,-112.54 448.64,-112 449.63,-111.45"/>
<polygon fill="red" stroke="red" stroke-width="0.17" points="451.26,-114.54 458.28,-106.61 447.85,-108.44 451.26,-114.54"/>
</g>
<!-- 268&#45;&gt;2 -->
<g id="edge15" class="edge">
<title>268&#45;&gt;2</title>
<path fill="none" stroke="red" stroke-width="2.66" d="M343.32,-152.68C345.68,-144.51 348.47,-134.89 351.02,-126.09"/>
<polygon fill="red" stroke="red" stroke-width="2.66" points="354.3,-127.32 353.72,-116.74 347.58,-125.37 354.3,-127.32"/>
</g>
<!-- 268&#45;&gt;3 -->
<g id="edge16" class="edge">
<title>268&#45;&gt;3</title>
<path fill="none" stroke="green" stroke-width="0.68" d="M353.47,-158.81C367.9,-146.64 389.28,-128.61 404.65,-115.64"/>
<polygon fill="green" stroke="green" stroke-width="0.68" points="406.74,-118.46 412.12,-109.34 402.22,-113.11 406.74,-118.46"/>
</g>
<!-- 268&#45;&gt;268 -->
<g id="edge20" class="edge">
<title>268&#45;&gt;268</title>
<path fill="none" stroke="red" stroke-width="0.38" stroke-dasharray="1,5" d="M354.47,-185.86C365.66,-189.45 376.55,-185.2 376.55,-173.12 376.55,-164.81 371.4,-160.21 364.55,-159.3"/>
<polygon fill="red" stroke="red" stroke-width="0.38" points="364.62,-155.78 355.05,-160.31 365.36,-162.74 364.62,-155.78"/>
</g>
<!-- 3383&#45;&gt;268 -->
<g id="edge26" class="edge">
<title>3383&#45;&gt;268</title>
<path fill="none" stroke="green" stroke-width="0.36" stroke-dasharray="1,5" d="M638.24,-242.67C632.47,-239.15 626.01,-235.65 619.69,-233.16 573.84,-215.07 431.43,-189.84 368.33,-179.18"/>
<polygon fill="green" stroke="green" stroke-width="0.36" points="369.18,-175.78 358.74,-177.57 368.02,-182.68 369.18,-175.78"/>
</g>
<!-- 3383&#45;&gt;3383 -->
<g id="edge27" class="edge">
<title>3383&#45;&gt;3383</title>
<path fill="none" stroke="green" stroke-width="0.48" stroke-dasharray="1,5" d="M677.15,-271.98C688.78,-275.26 699.73,-270.34 699.73,-257.2 699.73,-248.17 694.56,-243.02 687.54,-241.75"/>
<polygon fill="green" stroke="green" stroke-width="0.48" points="687.63,-238.23 677.87,-242.37 688.08,-245.22 687.63,-238.23"/>
</g>
<!-- 5148 -->
<g id="node27" class="node">
<title>5148</title>
<ellipse fill="white" stroke="black" cx="657.69" cy="-173.12" rx="24.04" ry="24.04"/>
<text text-anchor="middle" x="657.69" y="-170.19" font-family="Times New Roman,serif" font-size="9.00">5148</text>
</g>
<!-- 3383&#45;&gt;5148 -->
<g id="edge37" class="edge">
<title>3383&#45;&gt;5148</title>
<path fill="none" stroke="red" stroke-width="0.52" d="M657.69,-232.9C657.69,-225.19 657.69,-216.44 657.69,-208.09"/>
<polygon fill="red" stroke="red" stroke-width="0.52" points="661.19,-208.27 657.69,-198.27 654.19,-208.27 661.19,-208.27"/>
</g>
</g>
</svg>
