<?xml version="1.0" encoding="UTF-8" standalone="no"?>
<!DOCTYPE svg PUBLIC "-//W3C//DTD SVG 1.1//EN"
 "http://www.w3.org/Graphics/SVG/1.1/DTD/svg11.dtd">
<!-- Generated by graphviz version 9.0.0 (20230911.1827)
 -->
<!-- Pages: 1 -->
<svg width="1063pt" height="494pt"
 viewBox="0.00 0.00 1063.50 493.57" xmlns="http://www.w3.org/2000/svg" xmlns:xlink="http://www.w3.org/1999/xlink">
<g id="graph0" class="graph" transform="scale(1 1) rotate(0) translate(4 489.57)">
<polygon fill="white" stroke="none" points="-4,4 -4,-489.57 1059.5,-489.57 1059.5,4 -4,4"/>
<!-- &#45;1 -->
<g id="node1" class="node">
<title>&#45;1</title>
<polygon fill="lightgray" stroke="black" points="26.25,-412.72 2.75,-412.72 2.75,-393.47 26.25,-393.47 26.25,-412.72"/>
<text text-anchor="middle" x="14.5" y="-400.17" font-family="Times New Roman,serif" font-size="9.00">&#45;1</text>
</g>
<!-- 1 -->
<g id="node18" class="node">
<title>1</title>
<ellipse fill="lightblue" stroke="black" cx="14.5" cy="-325.37" rx="14.5" ry="14.5"/>
<text text-anchor="middle" x="14.5" y="-322.45" font-family="Times New Roman,serif" font-size="9.00">1</text>
</g>
<!-- &#45;1&#45;&gt;1 -->
<g id="edge8" class="edge">
<title>&#45;1&#45;&gt;1</title>
<path fill="none" stroke="red" stroke-width="0.67" d="M14.5,-393.11C14.5,-382.78 14.5,-365.41 14.5,-350.97"/>
<polygon fill="red" stroke="red" stroke-width="0.67" points="18,-351.24 14.5,-341.24 11,-351.24 18,-351.24"/>
</g>
<!-- &#45;2 -->
<g id="node2" class="node">
<title>&#45;2</title>
<polygon fill="lightgray" stroke="black" points="79.25,-412.72 55.75,-412.72 55.75,-393.47 79.25,-393.47 79.25,-412.72"/>
<text text-anchor="middle" x="67.5" y="-400.17" font-family="Times New Roman,serif" font-size="9.00">&#45;2</text>
</g>
<!-- &#45;2&#45;&gt;1 -->
<g id="edge14" class="edge">
<title>&#45;2&#45;&gt;1</title>
<path fill="none" stroke="red" stroke-width="0.47" stroke-dasharray="1,5" d="M61.21,-393.11C53.21,-381.69 39.18,-361.64 28.58,-346.49"/>
<polygon fill="red" stroke="red" stroke-width="0.47" points="31.51,-344.58 22.91,-338.4 25.78,-348.6 31.51,-344.58"/>
</g>
<!-- 7 -->
<g id="node24" class="node">
<title>7</title>
<ellipse fill="lightblue" stroke="black" cx="79.5" cy="-325.37" rx="14.5" ry="14.5"/>
<text text-anchor="middle" x="79.5" y="-322.45" font-family="Times New Roman,serif" font-size="9.00">7</text>
</g>
<!-- &#45;2&#45;&gt;7 -->
<g id="edge42" class="edge">
<title>&#45;2&#45;&gt;7</title>
<path fill="none" stroke="green" stroke-width="0.13" d="M68.92,-393.11C70.6,-382.52 73.45,-364.5 75.77,-349.86"/>
<polygon fill="green" stroke="green" stroke-width="0.13" points="79.2,-350.57 77.31,-340.14 72.29,-349.47 79.2,-350.57"/>
</g>
<!-- &#45;3 -->
<g id="node3" class="node">
<title>&#45;3</title>
<polygon fill="lightgray" stroke="black" points="1009.25,-485.57 985.75,-485.57 985.75,-466.32 1009.25,-466.32 1009.25,-485.57"/>
<text text-anchor="middle" x="997.5" y="-473.02" font-family="Times New Roman,serif" font-size="9.00">&#45;3</text>
</g>
<!-- 5 -->
<g id="node22" class="node">
<title>5</title>
<ellipse fill="lightblue" stroke="black" cx="1019.5" cy="-403.09" rx="14.5" ry="14.5"/>
<text text-anchor="middle" x="1019.5" y="-400.17" font-family="Times New Roman,serif" font-size="9.00">5</text>
</g>
<!-- &#45;3&#45;&gt;5 -->
<g id="edge27" class="edge">
<title>&#45;3&#45;&gt;5</title>
<path fill="none" stroke="red" stroke-width="0.15" d="M1000.28,-465.97C1003.32,-456.18 1008.31,-440.12 1012.44,-426.82"/>
<polygon fill="red" stroke="red" stroke-width="0.15" points="1015.69,-428.14 1015.32,-417.55 1009.01,-426.07 1015.69,-428.14"/>
</g>
<!-- &#45;4 -->
<g id="node4" class="node">
<title>&#45;4</title>
<polygon fill="lightgray" stroke="black" points="525.25,-485.57 501.75,-485.57 501.75,-466.32 525.25,-466.32 525.25,-485.57"/>
<text text-anchor="middle" x="513.5" y="-473.02" font-family="Times New Roman,serif" font-size="9.00">&#45;4</text>
</g>
<!-- 2 -->
<g id="node19" class="node">
<title>2</title>
<ellipse fill="lightblue" stroke="black" cx="289.5" cy="-325.37" rx="14.5" ry="14.5"/>
<text text-anchor="middle" x="289.5" y="-322.45" font-family="Times New Roman,serif" font-size="9.00">2</text>
</g>
<!-- &#45;4&#45;&gt;2 -->
<g id="edge2" class="edge">
<title>&#45;4&#45;&gt;2</title>
<path fill="none" stroke="red" stroke-width="0.4" d="M501.48,-471.24C482.94,-465.07 446.94,-451.27 422.5,-430.32 400.09,-411.11 406.66,-395.35 384.5,-375.87 363.2,-357.16 333.58,-343.18 313.11,-334.93"/>
<polygon fill="red" stroke="red" stroke-width="0.4" points="314.47,-331.71 303.88,-331.37 311.94,-338.24 314.47,-331.71"/>
</g>
<!-- 3 -->
<g id="node20" class="node">
<title>3</title>
<ellipse fill="lightblue" stroke="black" cx="557.5" cy="-247.65" rx="14.5" ry="14.5"/>
<text text-anchor="middle" x="557.5" y="-244.73" font-family="Times New Roman,serif" font-size="9.00">3</text>
</g>
<!-- &#45;4&#45;&gt;3 -->
<g id="edge10" class="edge">
<title>&#45;4&#45;&gt;3</title>
<path fill="none" stroke="green" stroke-width="0.9" d="M515.21,-465.92C518.53,-448.51 526.05,-409.05 532.5,-375.87 539.42,-340.2 547.55,-298.93 552.62,-273.3"/>
<polygon fill="green" stroke="green" stroke-width="0.9" points="556,-274.22 554.51,-263.73 549.14,-272.86 556,-274.22"/>
</g>
<!-- 4 -->
<g id="node21" class="node">
<title>4</title>
<ellipse fill="lightblue" stroke="black" cx="783.5" cy="-325.37" rx="14.5" ry="14.5"/>
<text text-anchor="middle" x="783.5" y="-322.45" font-family="Times New Roman,serif" font-size="9.00">4</text>
</g>
<!-- &#45;4&#45;&gt;4 -->
<g id="edge33" class="edge">
<title>&#45;4&#45;&gt;4</title>
<path fill="none" stroke="red" stroke-width="0.3" stroke-dasharray="1,5" d="M525.72,-468.35C539.55,-460.5 562.27,-446.42 578.5,-430.32 599.44,-409.53 592.56,-393.13 616.5,-375.87 660.09,-344.43 723.67,-332.78 758.45,-328.61"/>
<polygon fill="red" stroke="red" stroke-width="0.3" points="758.66,-332.1 768.22,-327.54 757.9,-325.15 758.66,-332.1"/>
</g>
<!-- 6 -->
<g id="node23" class="node">
<title>6</title>
<ellipse fill="lightblue" stroke="black" cx="359.5" cy="-169.93" rx="14.5" ry="14.5"/>
<text text-anchor="middle" x="359.5" y="-167.01" font-family="Times New Roman,serif" font-size="9.00">6</text>
</g>
<!-- &#45;4&#45;&gt;6 -->
<g id="edge7" class="edge">
<title>&#45;4&#45;&gt;6</title>
<path fill="none" stroke="green" stroke-width="1.21" d="M501.29,-474.25C443.62,-470.87 200.29,-455.2 178.5,-430.32 150.26,-398.06 122.59,-302.49 188.5,-220.43 223.44,-176.91 294.18,-170.16 332.82,-169.96"/>
<polygon fill="green" stroke="green" stroke-width="1.21" points="332.73,-173.46 342.77,-170.08 332.81,-166.46 332.73,-173.46"/>
</g>
<!-- 46018 -->
<g id="node28" class="node">
<title>46018</title>
<ellipse fill="white" stroke="black" cx="458.5" cy="-403.09" rx="27.22" ry="27.22"/>
<text text-anchor="middle" x="458.5" y="-400.17" font-family="Times New Roman,serif" font-size="9.00">46018</text>
</g>
<!-- &#45;4&#45;&gt;46018 -->
<g id="edge44" class="edge">
<title>&#45;4&#45;&gt;46018</title>
<path fill="none" stroke="green" stroke-width="0.39" d="M506.53,-465.97C500.16,-457.76 490.36,-445.14 481.28,-433.44"/>
<polygon fill="green" stroke="green" stroke-width="0.39" points="484.11,-431.38 475.22,-425.63 478.58,-435.68 484.11,-431.38"/>
</g>
<!-- 44559 -->
<g id="node30" class="node">
<title>44559</title>
<ellipse fill="white" stroke="black" cx="724.5" cy="-403.09" rx="27.22" ry="27.22"/>
<text text-anchor="middle" x="724.5" y="-400.17" font-family="Times New Roman,serif" font-size="9.00">44559</text>
</g>
<!-- &#45;4&#45;&gt;44559 -->
<g id="edge41" class="edge">
<title>&#45;4&#45;&gt;44559</title>
<path fill="none" stroke="green" stroke-width="0.33" d="M525.49,-473.48C554.61,-469.59 630.9,-457.4 688.5,-430.32 690.76,-429.25 693.03,-428.04 695.26,-426.72"/>
<polygon fill="green" stroke="green" stroke-width="0.33" points="696.72,-429.95 703.22,-421.58 692.92,-424.07 696.72,-429.95"/>
</g>
<!-- 43643 -->
<g id="node32" class="node">
<title>43643</title>
<ellipse fill="white" stroke="black" cx="652.5" cy="-403.09" rx="27.22" ry="27.22"/>
<text text-anchor="middle" x="652.5" y="-400.17" font-family="Times New Roman,serif" font-size="9.00">43643</text>
</g>
<!-- &#45;4&#45;&gt;43643 -->
<g id="edge34" class="edge">
<title>&#45;4&#45;&gt;43643</title>
<path fill="none" stroke="green" stroke-width="0.26" stroke-dasharray="1,5" d="M525.53,-470.11C544.28,-462.44 581.44,-446.66 611.5,-430.32 614.81,-428.51 618.21,-426.54 621.57,-424.52"/>
<polygon fill="green" stroke="green" stroke-width="0.26" points="623.31,-427.56 629.96,-419.31 619.61,-421.61 623.31,-427.56"/>
</g>
<!-- &#45;5 -->
<g id="node5" class="node">
<title>&#45;5</title>
<polygon fill="lightgray" stroke="black" points="331.25,-257.28 307.75,-257.28 307.75,-238.03 331.25,-238.03 331.25,-257.28"/>
<text text-anchor="middle" x="319.5" y="-244.73" font-family="Times New Roman,serif" font-size="9.00">&#45;5</text>
</g>
<!-- &#45;5&#45;&gt;6 -->
<g id="edge1" class="edge">
<title>&#45;5&#45;&gt;6</title>
<path fill="none" stroke="red" stroke-width="0.68" stroke-dasharray="1,5" d="M324.24,-237.67C330.06,-226.66 340.12,-207.62 348,-192.69"/>
<polygon fill="red" stroke="red" stroke-width="0.68" points="350.99,-194.54 352.56,-184.06 344.8,-191.27 350.99,-194.54"/>
</g>
<!-- &#45;6 -->
<g id="node6" class="node">
<title>&#45;6</title>
<polygon fill="lightgray" stroke="black" points="450.25,-335 426.75,-335 426.75,-315.75 450.25,-315.75 450.25,-335"/>
<text text-anchor="middle" x="438.5" y="-322.45" font-family="Times New Roman,serif" font-size="9.00">&#45;6</text>
</g>
<!-- 0 -->
<g id="node17" class="node">
<title>0</title>
<ellipse fill="lightblue" stroke="black" cx="279.5" cy="-14.5" rx="14.5" ry="14.5"/>
<text text-anchor="middle" x="279.5" y="-11.57" font-family="Times New Roman,serif" font-size="9.00">0</text>
</g>
<!-- &#45;6&#45;&gt;0 -->
<g id="edge46" class="edge">
<title>&#45;6&#45;&gt;0</title>
<path fill="none" stroke="green" stroke-width="0.9" stroke-dasharray="1,5" d="M450.54,-318.29C464.59,-310.43 487.07,-295.31 496.5,-274.88 506.63,-252.9 506.07,-242.65 496.5,-220.43 455.96,-126.4 348.71,-55.43 301.89,-27.94"/>
<polygon fill="green" stroke="green" stroke-width="0.9" points="303.71,-24.95 293.29,-23 300.22,-31.02 303.71,-24.95"/>
</g>
<!-- &#45;6&#45;&gt;3 -->
<g id="edge3" class="edge">
<title>&#45;6&#45;&gt;3</title>
<path fill="none" stroke="red" stroke-width="0.21" stroke-dasharray="1,5" d="M450.56,-319.02C468.54,-310.79 503.11,-293.93 529.5,-274.88 533.3,-272.13 537.14,-268.9 540.7,-265.67"/>
<polygon fill="red" stroke="red" stroke-width="0.21" points="542.88,-268.43 547.7,-258.99 538.05,-263.36 542.88,-268.43"/>
</g>
<!-- &#45;6&#45;&gt;6 -->
<g id="edge32" class="edge">
<title>&#45;6&#45;&gt;6</title>
<path fill="none" stroke="red" stroke-width="0.53" stroke-dasharray="1,5" d="M426.67,-318.07C412.76,-310 390.12,-294.67 378.5,-274.88 364.1,-250.36 360.17,-217.43 359.31,-195.26"/>
<polygon fill="red" stroke="red" stroke-width="0.53" points="362.82,-195.48 359.12,-185.55 355.82,-195.62 362.82,-195.48"/>
</g>
<!-- 46501 -->
<g id="node29" class="node">
<title>46501</title>
<ellipse fill="white" stroke="black" cx="414.5" cy="-247.65" rx="27.22" ry="27.22"/>
<text text-anchor="middle" x="414.5" y="-244.73" font-family="Times New Roman,serif" font-size="9.00">46501</text>
</g>
<!-- &#45;6&#45;&gt;46501 -->
<g id="edge47" class="edge">
<title>&#45;6&#45;&gt;46501</title>
<path fill="none" stroke="green" stroke-width="0.28" d="M435.65,-315.39C433.15,-307.49 429.34,-295.47 425.63,-283.8"/>
<polygon fill="green" stroke="green" stroke-width="0.28" points="429.07,-283.05 422.71,-274.57 422.4,-285.16 429.07,-283.05"/>
</g>
<!-- &#45;7 -->
<g id="node7" class="node">
<title>&#45;7</title>
<polygon fill="lightgray" stroke="black" points="257.25,-412.72 233.75,-412.72 233.75,-393.47 257.25,-393.47 257.25,-412.72"/>
<text text-anchor="middle" x="245.5" y="-400.17" font-family="Times New Roman,serif" font-size="9.00">&#45;7</text>
</g>
<!-- &#45;7&#45;&gt;2 -->
<g id="edge23" class="edge">
<title>&#45;7&#45;&gt;2</title>
<path fill="none" stroke="red" stroke-width="0.4" d="M250.72,-393.11C257.21,-381.93 268.52,-362.47 277.26,-347.44"/>
<polygon fill="red" stroke="red" stroke-width="0.4" points="280.24,-349.27 282.24,-338.86 274.19,-345.75 280.24,-349.27"/>
</g>
<!-- &#45;8 -->
<g id="node8" class="node">
<title>&#45;8</title>
<polygon fill="lightgray" stroke="black" points="949.25,-412.72 925.75,-412.72 925.75,-393.47 949.25,-393.47 949.25,-412.72"/>
<text text-anchor="middle" x="937.5" y="-400.17" font-family="Times New Roman,serif" font-size="9.00">&#45;8</text>
</g>
<!-- &#45;8&#45;&gt;3 -->
<g id="edge4" class="edge">
<title>&#45;8&#45;&gt;3</title>
<path fill="none" stroke="red" stroke-width="1.05" d="M927.43,-393.11C906.47,-374.88 855.95,-333.35 806.5,-310.88 729.58,-275.92 630,-258.61 583.53,-251.98"/>
<polygon fill="red" stroke="red" stroke-width="1.05" points="584.11,-248.53 573.72,-250.64 583.16,-255.47 584.11,-248.53"/>
</g>
<!-- &#45;8&#45;&gt;4 -->
<g id="edge12" class="edge">
<title>&#45;8&#45;&gt;4</title>
<path fill="none" stroke="green" stroke-width="0.12" stroke-dasharray="1,5" d="M930.52,-393.35C925.67,-387.74 918.79,-380.64 911.5,-375.87 878.23,-354.1 833.95,-339.69 807.15,-332.28"/>
<polygon fill="green" stroke="green" stroke-width="0.12" points="808.2,-328.94 797.64,-329.75 806.4,-335.7 808.2,-328.94"/>
</g>
<!-- &#45;9 -->
<g id="node9" class="node">
<title>&#45;9</title>
<polygon fill="lightgray" stroke="black" points="131.25,-412.72 107.75,-412.72 107.75,-393.47 131.25,-393.47 131.25,-412.72"/>
<text text-anchor="middle" x="119.5" y="-400.17" font-family="Times New Roman,serif" font-size="9.00">&#45;9</text>
</g>
<!-- &#45;9&#45;&gt;0 -->
<g id="edge11" class="edge">
<title>&#45;9&#45;&gt;0</title>
<path fill="none" stroke="green" stroke-width="0.37" d="M119.69,-393.1C120.2,-369.45 121.5,-303.53 121.5,-248.65 121.5,-248.65 121.5,-248.65 121.5,-168.93 121.5,-94.6 212.62,-44.67 256.46,-24.96"/>
<polygon fill="green" stroke="green" stroke-width="0.37" points="257.74,-28.22 265.51,-21.02 254.95,-21.8 257.74,-28.22"/>
</g>
<!-- &#45;9&#45;&gt;2 -->
<g id="edge21" class="edge">
<title>&#45;9&#45;&gt;2</title>
<path fill="none" stroke="red" stroke-width="0.13" d="M131.72,-396.65C160.11,-384 230.85,-352.49 267.18,-336.31"/>
<polygon fill="red" stroke="red" stroke-width="0.13" points="268.56,-339.53 276.27,-332.26 265.71,-333.13 268.56,-339.53"/>
</g>
<!-- &#45;9&#45;&gt;7 -->
<g id="edge29" class="edge">
<title>&#45;9&#45;&gt;7</title>
<path fill="none" stroke="red" stroke-width="0.78" d="M114.75,-393.11C108.93,-382.1 98.87,-363.06 90.99,-348.13"/>
<polygon fill="red" stroke="red" stroke-width="0.78" points="94.27,-346.84 86.5,-339.64 88.08,-350.11 94.27,-346.84"/>
</g>
<!-- &#45;10 -->
<g id="node10" class="node">
<title>&#45;10</title>
<polygon fill="lightgray" stroke="black" points="797.5,-412.72 769.5,-412.72 769.5,-393.47 797.5,-393.47 797.5,-412.72"/>
<text text-anchor="middle" x="783.5" y="-400.17" font-family="Times New Roman,serif" font-size="9.00">&#45;10</text>
</g>
<!-- &#45;10&#45;&gt;4 -->
<g id="edge17" class="edge">
<title>&#45;10&#45;&gt;4</title>
<path fill="none" stroke="green" stroke-width="0.46" stroke-dasharray="1,5" d="M783.5,-393.11C783.5,-382.68 783.5,-365.06 783.5,-350.54"/>
<polygon fill="green" stroke="green" stroke-width="0.46" points="787,-350.92 783.5,-340.92 780,-350.92 787,-350.92"/>
</g>
<!-- &#45;11 -->
<g id="node11" class="node">
<title>&#45;11</title>
<polygon fill="lightgray" stroke="black" points="883.5,-485.57 855.5,-485.57 855.5,-466.32 883.5,-466.32 883.5,-485.57"/>
<text text-anchor="middle" x="869.5" y="-473.02" font-family="Times New Roman,serif" font-size="9.00">&#45;11</text>
</g>
<!-- &#45;11&#45;&gt;4 -->
<g id="edge6" class="edge">
<title>&#45;11&#45;&gt;4</title>
<path fill="none" stroke="green" stroke-width="0.61" d="M873.64,-465.93C881.45,-447.51 896.05,-404.81 878.5,-375.87 863.4,-350.98 831.24,-338.02 808.53,-331.71"/>
<polygon fill="green" stroke="green" stroke-width="0.61" points="809.4,-328.32 798.85,-329.28 807.7,-335.11 809.4,-328.32"/>
</g>
<!-- &#45;11&#45;&gt;6 -->
<g id="edge24" class="edge">
<title>&#45;11&#45;&gt;6</title>
<path fill="none" stroke="red" stroke-width="0.16" d="M883.71,-472.55C904.38,-468.22 942.06,-456.94 958.5,-430.32 971.21,-409.72 970.61,-396.82 958.5,-375.87 919.93,-309.19 645.98,-232.6 603.5,-220.43 524.42,-197.78 428.07,-181.45 383.83,-174.57"/>
<polygon fill="red" stroke="red" stroke-width="0.16" points="384.64,-171.15 374.22,-173.09 383.58,-178.07 384.64,-171.15"/>
</g>
<!-- 40296 -->
<g id="node26" class="node">
<title>40296</title>
<ellipse fill="white" stroke="black" cx="842.5" cy="-403.09" rx="27.22" ry="27.22"/>
<text text-anchor="middle" x="842.5" y="-400.17" font-family="Times New Roman,serif" font-size="9.00">40296</text>
</g>
<!-- &#45;11&#45;&gt;40296 -->
<g id="edge50" class="edge">
<title>&#45;11&#45;&gt;40296</title>
<path fill="none" stroke="red" stroke-width="0.3" d="M866.08,-465.97C863.41,-458.97 859.52,-448.77 855.67,-438.67"/>
<polygon fill="red" stroke="red" stroke-width="0.3" points="859.03,-437.64 852.19,-429.54 852.48,-440.13 859.03,-437.64"/>
</g>
<!-- &#45;11&#45;&gt;44559 -->
<g id="edge39" class="edge">
<title>&#45;11&#45;&gt;44559</title>
<path fill="none" stroke="green" stroke-width="0.7" d="M855.23,-470.34C833.92,-463.19 792.81,-448.35 760.5,-430.32 758.47,-429.18 756.42,-427.95 754.38,-426.67"/>
<polygon fill="green" stroke="green" stroke-width="0.7" points="756.76,-424.05 746.51,-421.37 752.85,-429.86 756.76,-424.05"/>
</g>
<!-- &#45;12 -->
<g id="node12" class="node">
<title>&#45;12</title>
<polygon fill="lightgray" stroke="black" points="303.5,-412.72 275.5,-412.72 275.5,-393.47 303.5,-393.47 303.5,-412.72"/>
<text text-anchor="middle" x="289.5" y="-400.17" font-family="Times New Roman,serif" font-size="9.00">&#45;12</text>
</g>
<!-- &#45;12&#45;&gt;2 -->
<g id="edge19" class="edge">
<title>&#45;12&#45;&gt;2</title>
<path fill="none" stroke="red" stroke-width="0.68" d="M289.5,-393.11C289.5,-382.78 289.5,-365.41 289.5,-350.97"/>
<polygon fill="red" stroke="red" stroke-width="0.68" points="293,-351.25 289.5,-341.25 286,-351.25 293,-351.25"/>
</g>
<!-- &#45;13 -->
<g id="node13" class="node">
<title>&#45;13</title>
<polygon fill="lightgray" stroke="black" points="1055.5,-485.57 1027.5,-485.57 1027.5,-466.32 1055.5,-466.32 1055.5,-485.57"/>
<text text-anchor="middle" x="1041.5" y="-473.02" font-family="Times New Roman,serif" font-size="9.00">&#45;13</text>
</g>
<!-- &#45;13&#45;&gt;5 -->
<g id="edge13" class="edge">
<title>&#45;13&#45;&gt;5</title>
<path fill="none" stroke="red" stroke-width="0.55" d="M1038.71,-465.97C1035.73,-456.37 1030.88,-440.75 1026.8,-427.6"/>
<polygon fill="red" stroke="red" stroke-width="0.55" points="1030.16,-426.64 1023.85,-418.13 1023.48,-428.72 1030.16,-426.64"/>
</g>
<!-- &#45;14 -->
<g id="node14" class="node">
<title>&#45;14</title>
<polygon fill="lightgray" stroke="black" points="569.5,-412.72 541.5,-412.72 541.5,-393.47 569.5,-393.47 569.5,-412.72"/>
<text text-anchor="middle" x="555.5" y="-400.17" font-family="Times New Roman,serif" font-size="9.00">&#45;14</text>
</g>
<!-- &#45;14&#45;&gt;2 -->
<g id="edge28" class="edge">
<title>&#45;14&#45;&gt;2</title>
<path fill="none" stroke="green" stroke-width="0.34" stroke-dasharray="1,5" d="M541.22,-395.14C529.02,-389.4 510.9,-381.33 494.5,-375.87 430.51,-354.56 352.48,-338.29 313.74,-330.84"/>
<polygon fill="green" stroke="green" stroke-width="0.34" points="314.88,-327.5 304.4,-329.07 313.58,-334.37 314.88,-327.5"/>
</g>
<!-- &#45;14&#45;&gt;6 -->
<g id="edge22" class="edge">
<title>&#45;14&#45;&gt;6</title>
<path fill="none" stroke="green" stroke-width="0.45" stroke-dasharray="1,5" d="M560.73,-393.32C577,-364.82 623.08,-273.61 580.5,-220.43 556.17,-190.05 437.3,-177.06 384.66,-172.73"/>
<polygon fill="green" stroke="green" stroke-width="0.45" points="385.13,-169.25 374.89,-171.96 384.59,-176.23 385.13,-169.25"/>
</g>
<!-- &#45;15 -->
<g id="node15" class="node">
<title>&#45;15</title>
<polygon fill="lightgray" stroke="black" points="215.5,-412.72 187.5,-412.72 187.5,-393.47 215.5,-393.47 215.5,-412.72"/>
<text text-anchor="middle" x="201.5" y="-400.17" font-family="Times New Roman,serif" font-size="9.00">&#45;15</text>
</g>
<!-- &#45;15&#45;&gt;2 -->
<g id="edge16" class="edge">
<title>&#45;15&#45;&gt;2</title>
<path fill="none" stroke="red" stroke-width="0.22" stroke-dasharray="1,5" d="M208.34,-393.43C212.72,-388.12 218.65,-381.32 224.5,-375.87 238.65,-362.66 256.19,-349.47 269.48,-340.02"/>
<polygon fill="red" stroke="red" stroke-width="0.22" points="271.44,-342.93 277.63,-334.33 267.43,-337.19 271.44,-342.93"/>
</g>
<!-- &#45;15&#45;&gt;4 -->
<g id="edge25" class="edge">
<title>&#45;15&#45;&gt;4</title>
<path fill="none" stroke="red" stroke-width="0.48" stroke-dasharray="1,5" d="M206.73,-393.18C210.77,-387.19 216.94,-379.7 224.5,-375.87 272.55,-351.49 654.99,-332.28 758.01,-327.52"/>
<polygon fill="red" stroke="red" stroke-width="0.48" points="758.09,-331.02 767.92,-327.06 757.77,-324.02 758.09,-331.02"/>
</g>
<!-- &#45;15&#45;&gt;7 -->
<g id="edge18" class="edge">
<title>&#45;15&#45;&gt;7</title>
<path fill="none" stroke="red" stroke-width="0.31" stroke-dasharray="1,5" d="M187.02,-393.11C165.53,-379.77 125.07,-354.66 100.37,-339.33"/>
<polygon fill="red" stroke="red" stroke-width="0.31" points="102.49,-336.53 92.15,-334.23 98.8,-342.48 102.49,-336.53"/>
</g>
<!-- &#45;16 -->
<g id="node16" class="node">
<title>&#45;16</title>
<polygon fill="lightgray" stroke="black" points="487.5,-257.28 459.5,-257.28 459.5,-238.03 487.5,-238.03 487.5,-257.28"/>
<text text-anchor="middle" x="473.5" y="-244.73" font-family="Times New Roman,serif" font-size="9.00">&#45;16</text>
</g>
<!-- &#45;16&#45;&gt;6 -->
<g id="edge9" class="edge">
<title>&#45;16&#45;&gt;6</title>
<path fill="none" stroke="green" stroke-width="0.18" stroke-dasharray="1,5" d="M466.93,-237.67C462.66,-232.24 456.74,-225.42 450.5,-220.43 429.2,-203.41 401.22,-189.19 381.94,-180.42"/>
<polygon fill="green" stroke="green" stroke-width="0.18" points="383.54,-177.31 372.98,-176.46 380.71,-183.71 383.54,-177.31"/>
</g>
<!-- 1&#45;&gt;1 -->
<g id="edge20" class="edge">
<title>1&#45;&gt;1</title>
<path fill="none" stroke="red" stroke-width="0.41" stroke-dasharray="1,5" d="M24.48,-336.53C35.06,-343.51 46.99,-339.79 46.99,-325.37 46.99,-315.46 41.35,-310.6 34.39,-310.81"/>
<polygon fill="red" stroke="red" stroke-width="0.41" points="33.38,-307.45 25.07,-314.02 35.66,-314.07 33.38,-307.45"/>
</g>
<!-- 2&#45;&gt;2 -->
<g id="edge15" class="edge">
<title>2&#45;&gt;2</title>
<path fill="none" stroke="red" stroke-width="0.66" stroke-dasharray="1,5" d="M299.48,-336.53C310.06,-343.51 321.99,-339.79 321.99,-325.37 321.99,-315.68 316.6,-310.83 309.86,-310.8"/>
<polygon fill="red" stroke="red" stroke-width="0.66" points="308.82,-307.46 300.42,-313.91 311.01,-314.11 308.82,-307.46"/>
</g>
<!-- 21861 -->
<g id="node25" class="node">
<title>21861</title>
<ellipse fill="white" stroke="black" cx="224.5" cy="-247.65" rx="27.22" ry="27.22"/>
<text text-anchor="middle" x="224.5" y="-244.73" font-family="Times New Roman,serif" font-size="9.00">21861</text>
</g>
<!-- 2&#45;&gt;21861 -->
<g id="edge36" class="edge">
<title>2&#45;&gt;21861</title>
<path fill="none" stroke="green" stroke-width="0.11" stroke-dasharray="1,5" d="M280.46,-313.84C272.18,-304.2 259.54,-289.48 248.37,-276.47"/>
<polygon fill="green" stroke="green" stroke-width="0.11" points="251.29,-274.49 242.12,-269.19 245.98,-279.05 251.29,-274.49"/>
</g>
<!-- 44120 -->
<g id="node31" class="node">
<title>44120</title>
<ellipse fill="white" stroke="black" cx="279.5" cy="-92.21" rx="27.22" ry="27.22"/>
<text text-anchor="middle" x="279.5" y="-89.29" font-family="Times New Roman,serif" font-size="9.00">44120</text>
</g>
<!-- 2&#45;&gt;44120 -->
<g id="edge37" class="edge">
<title>2&#45;&gt;44120</title>
<path fill="none" stroke="green" stroke-width="0.14" d="M288.9,-310.61C287.39,-275.6 283.35,-182.26 281.09,-129.99"/>
<polygon fill="green" stroke="green" stroke-width="0.14" points="284.58,-129.85 280.65,-120.01 277.59,-130.15 284.58,-129.85"/>
</g>
<!-- 5&#45;&gt;5 -->
<g id="edge5" class="edge">
<title>5&#45;&gt;5</title>
<path fill="none" stroke="green" stroke-width="0.31" stroke-dasharray="1,5" d="M1029.81,-413.75C1040.31,-420.02 1051.99,-416.47 1051.99,-403.09 1051.99,-393.9 1046.47,-389.34 1039.61,-389.43"/>
<polygon fill="green" stroke="green" stroke-width="0.31" points="1038.8,-386.02 1030.27,-392.29 1040.85,-392.71 1038.8,-386.02"/>
</g>
<!-- 6&#45;&gt;44120 -->
<g id="edge43" class="edge">
<title>6&#45;&gt;44120</title>
<path fill="none" stroke="red" stroke-width="0.21" d="M349.36,-159.34C338.62,-149.18 321.21,-132.69 306.45,-118.73"/>
<polygon fill="red" stroke="red" stroke-width="0.21" points="308.92,-116.25 299.25,-111.92 304.11,-121.33 308.92,-116.25"/>
</g>
<!-- 21861&#45;&gt;6 -->
<g id="edge26" class="edge">
<title>21861&#45;&gt;6</title>
<path fill="none" stroke="green" stroke-width="0.35" stroke-dasharray="1,5" d="M248.01,-233.46C273.49,-219.18 313.77,-196.58 338.3,-182.82"/>
<polygon fill="green" stroke="green" stroke-width="0.35" points="339.69,-186.06 346.7,-178.11 336.26,-179.95 339.69,-186.06"/>
</g>
<!-- 40296&#45;&gt;4 -->
<g id="edge31" class="edge">
<title>40296&#45;&gt;4</title>
<path fill="none" stroke="green" stroke-width="0.2" d="M826.06,-381C817.34,-369.81 806.72,-356.18 798.27,-345.33"/>
<polygon fill="green" stroke="green" stroke-width="0.2" points="801.12,-343.3 792.22,-337.56 795.6,-347.6 801.12,-343.3"/>
</g>
<!-- 32362 -->
<g id="node27" class="node">
<title>32362</title>
<ellipse fill="white" stroke="black" cx="348.5" cy="-403.09" rx="27.22" ry="27.22"/>
<text text-anchor="middle" x="348.5" y="-400.17" font-family="Times New Roman,serif" font-size="9.00">32362</text>
</g>
<!-- 32362&#45;&gt;2 -->
<g id="edge30" class="edge">
<title>32362&#45;&gt;2</title>
<path fill="none" stroke="red" stroke-width="0.14" d="M332.06,-381C323.34,-369.81 312.72,-356.18 304.27,-345.33"/>
<polygon fill="red" stroke="red" stroke-width="0.14" points="307.06,-343.23 298.16,-337.49 301.54,-347.53 307.06,-343.23"/>
</g>
<!-- 46018&#45;&gt;2 -->
<g id="edge45" class="edge">
<title>46018&#45;&gt;2</title>
<path fill="none" stroke="green" stroke-width="0.17" d="M436.42,-386.83C430.42,-383 423.83,-379.08 417.5,-375.87 382.22,-358 338.89,-342.49 312.77,-333.8"/>
<polygon fill="green" stroke="green" stroke-width="0.17" points="314.17,-330.58 303.58,-330.79 311.99,-337.23 314.17,-330.58"/>
</g>
<!-- 46501&#45;&gt;6 -->
<g id="edge48" class="edge">
<title>46501&#45;&gt;6</title>
<path fill="none" stroke="red" stroke-width="0.21" d="M398.88,-225.16C390.94,-214.23 381.37,-201.04 373.64,-190.41"/>
<polygon fill="red" stroke="red" stroke-width="0.21" points="376.57,-188.48 367.86,-182.45 370.9,-192.59 376.57,-188.48"/>
</g>
<!-- 44559&#45;&gt;2 -->
<g id="edge40" class="edge">
<title>44559&#45;&gt;2</title>
<path fill="none" stroke="red" stroke-width="0.32" d="M704.24,-384.63C699.35,-381.22 693.96,-378.03 688.5,-375.87 670.96,-368.94 398.79,-338.45 314.31,-329.1"/>
<polygon fill="red" stroke="red" stroke-width="0.32" points="314.71,-325.63 304.38,-328.01 313.94,-332.58 314.71,-325.63"/>
</g>
<!-- 44120&#45;&gt;0 -->
<g id="edge49" class="edge">
<title>44120&#45;&gt;0</title>
<path fill="none" stroke="green" stroke-width="0.48" d="M279.5,-64.73C279.5,-56.62 279.5,-47.73 279.5,-39.77"/>
<polygon fill="green" stroke="green" stroke-width="0.48" points="283,-40.04 279.5,-30.04 276,-40.04 283,-40.04"/>
</g>
<!-- 44120&#45;&gt;21861 -->
<g id="edge38" class="edge">
<title>44120&#45;&gt;21861</title>
<path fill="none" stroke="green" stroke-width="0.31" d="M270.54,-118.2C261.39,-143.72 247.12,-183.54 236.89,-212.08"/>
<polygon fill="green" stroke="green" stroke-width="0.31" points="233.69,-210.62 233.61,-221.22 240.28,-212.99 233.69,-210.62"/>
</g>
<!-- 43643&#45;&gt;4 -->
<g id="edge35" class="edge">
<title>43643&#45;&gt;4</title>
<path fill="none" stroke="red" stroke-width="0.28" d="M673.84,-385.75C678.57,-382.35 683.63,-378.88 688.5,-375.87 712.59,-360.93 741.67,-346.24 761.26,-336.79"/>
<polygon fill="red" stroke="red" stroke-width="0.28" points="762.66,-340 770.18,-332.54 759.64,-333.68 762.66,-340"/>
</g>
</g>
</svg>
