<?xml version="1.0" encoding="UTF-8" standalone="no"?>
<!DOCTYPE svg PUBLIC "-//W3C//DTD SVG 1.1//EN"
 "http://www.w3.org/Graphics/SVG/1.1/DTD/svg11.dtd">
<!-- Generated by graphviz version 9.0.0 (20230911.1827)
 -->
<!-- Pages: 1 -->
<svg width="1544pt" height="176pt"
 viewBox="0.00 0.00 1543.89 176.32" xmlns="http://www.w3.org/2000/svg" xmlns:xlink="http://www.w3.org/1999/xlink">
<g id="graph0" class="graph" transform="scale(1 1) rotate(0) translate(4 172.32)">
<polygon fill="white" stroke="none" points="-4,4 -4,-172.32 1539.89,-172.32 1539.89,4 -4,4"/>
<!-- &#45;1 -->
<g id="node1" class="node">
<title>&#45;1</title>
<polygon fill="lightgray" stroke="black" points="868.57,-168.32 845.07,-168.32 845.07,-149.07 868.57,-149.07 868.57,-168.32"/>
<text text-anchor="middle" x="856.82" y="-155.77" font-family="Times New Roman,serif" font-size="9.00">&#45;1</text>
</g>
<!-- 0 -->
<g id="node17" class="node">
<title>0</title>
<ellipse fill="lightblue" stroke="black" cx="411.82" cy="-14.5" rx="14.5" ry="14.5"/>
<text text-anchor="middle" x="411.82" y="-11.57" font-family="Times New Roman,serif" font-size="9.00">0</text>
</g>
<!-- &#45;1&#45;&gt;0 -->
<g id="edge112" class="edge">
<title>&#45;1&#45;&gt;0</title>
<path fill="none" stroke="green" stroke-width="0.61" d="M844.63,-157.11C755.12,-152.78 202.46,-125.52 190.82,-113.07 176.22,-97.47 177.13,-81.4 190.82,-64.99 247.82,3.37 304.1,-59.22 387.82,-28.99 388.72,-28.66 389.63,-28.31 390.54,-27.92"/>
<polygon fill="green" stroke="green" stroke-width="0.61" points="391.79,-31.21 399.15,-23.59 388.65,-24.96 391.79,-31.21"/>
</g>
<!-- 1 -->
<g id="node18" class="node">
<title>1</title>
<ellipse fill="lightblue" stroke="black" cx="476.82" cy="-14.5" rx="14.5" ry="14.5"/>
<text text-anchor="middle" x="476.82" y="-11.57" font-family="Times New Roman,serif" font-size="9.00">1</text>
</g>
<!-- &#45;1&#45;&gt;1 -->
<g id="edge1" class="edge">
<title>&#45;1&#45;&gt;1</title>
<path fill="none" stroke="green" stroke-width="0.65" d="M844.68,-157.25C762.26,-154.11 287.23,-135.08 266.82,-113.07 252.29,-97.4 253.22,-81.48 266.82,-64.99 320.4,-0.04 373.77,-58 452.82,-28.99 453.72,-28.66 454.63,-28.3 455.54,-27.91"/>
<polygon fill="green" stroke="green" stroke-width="0.65" points="456.75,-31.22 464.1,-23.59 453.59,-24.97 456.75,-31.22"/>
</g>
<!-- 2 -->
<g id="node19" class="node">
<title>2</title>
<ellipse fill="lightblue" stroke="black" cx="978.82" cy="-14.5" rx="14.5" ry="14.5"/>
<text text-anchor="middle" x="978.82" y="-11.57" font-family="Times New Roman,serif" font-size="9.00">2</text>
</g>
<!-- &#45;1&#45;&gt;2 -->
<g id="edge2" class="edge">
<title>&#45;1&#45;&gt;2</title>
<path fill="none" stroke="red" stroke-width="0.32" d="M869.06,-152.02C871.89,-150.89 874.92,-149.83 877.82,-149.07 944.32,-131.87 1139.16,-164.4 1184.82,-113.07 1199.02,-97.11 1198.21,-81.64 1184.82,-64.99 1138.05,-6.84 1092.87,-48.43 1020.82,-28.99 1014.66,-27.33 1008.06,-25.32 1001.97,-23.37"/>
<polygon fill="red" stroke="red" stroke-width="0.32" points="1003.39,-20.15 992.8,-20.35 1001.2,-26.8 1003.39,-20.15"/>
</g>
<!-- 3 -->
<g id="node20" class="node">
<title>3</title>
<ellipse fill="lightblue" stroke="black" cx="812.82" cy="-14.5" rx="14.5" ry="14.5"/>
<text text-anchor="middle" x="812.82" y="-11.57" font-family="Times New Roman,serif" font-size="9.00">3</text>
</g>
<!-- &#45;1&#45;&gt;3 -->
<g id="edge3" class="edge">
<title>&#45;1&#45;&gt;3</title>
<path fill="none" stroke="red" stroke-width="0.54" d="M856.46,-148.74C855.55,-131.87 852.41,-94.45 841.82,-64.99 838.14,-54.78 832.34,-44.29 826.89,-35.61"/>
<polygon fill="red" stroke="red" stroke-width="0.54" points="829.89,-33.8 821.46,-27.37 824.04,-37.65 829.89,-33.8"/>
</g>
<!-- 4 -->
<g id="node21" class="node">
<title>4</title>
<ellipse fill="lightblue" stroke="black" cx="612.82" cy="-14.5" rx="14.5" ry="14.5"/>
<text text-anchor="middle" x="612.82" y="-11.57" font-family="Times New Roman,serif" font-size="9.00">4</text>
</g>
<!-- &#45;1&#45;&gt;4 -->
<g id="edge4" class="edge">
<title>&#45;1&#45;&gt;4</title>
<path fill="none" stroke="green" stroke-width="0.53" d="M844.84,-156.88C790.35,-153.05 567.73,-136.07 547.82,-113.07 533.83,-96.92 538.33,-84.14 547.82,-64.99 556.65,-47.16 575.32,-34.01 590.39,-25.77"/>
<polygon fill="green" stroke="green" stroke-width="0.53" points="591.6,-29.08 598.92,-21.42 588.42,-22.84 591.6,-29.08"/>
</g>
<!-- 5 -->
<g id="node22" class="node">
<title>5</title>
<ellipse fill="lightblue" stroke="black" cx="1043.82" cy="-14.5" rx="14.5" ry="14.5"/>
<text text-anchor="middle" x="1043.82" y="-11.57" font-family="Times New Roman,serif" font-size="9.00">5</text>
</g>
<!-- &#45;1&#45;&gt;5 -->
<g id="edge5" class="edge">
<title>&#45;1&#45;&gt;5</title>
<path fill="none" stroke="red" stroke-width="0.24" stroke-dasharray="1,5" d="M869.04,-151.92C871.87,-150.8 874.9,-149.76 877.82,-149.07 932.69,-136.2 1345.4,-154.32 1383.82,-113.07 1475.52,-14.62 1161.22,-13.21 1068.7,-14.86"/>
<polygon fill="red" stroke="red" stroke-width="0.24" points="1068.84,-11.35 1058.92,-15.06 1068.99,-18.35 1068.84,-11.35"/>
</g>
<!-- 6 -->
<g id="node23" class="node">
<title>6</title>
<ellipse fill="lightblue" stroke="black" cx="913.82" cy="-14.5" rx="14.5" ry="14.5"/>
<text text-anchor="middle" x="913.82" y="-11.57" font-family="Times New Roman,serif" font-size="9.00">6</text>
</g>
<!-- &#45;1&#45;&gt;6 -->
<g id="edge6" class="edge">
<title>&#45;1&#45;&gt;6</title>
<path fill="none" stroke="red" stroke-width="0.46" d="M869.07,-152.03C871.89,-150.91 874.92,-149.84 877.82,-149.07 940.2,-132.68 1123.13,-161.43 1165.82,-113.07 1179.96,-97.05 1179.59,-81.33 1165.82,-64.99 1135.3,-28.79 1001.8,-40.26 955.82,-28.99 949.77,-27.51 943.34,-25.61 937.36,-23.71"/>
<polygon fill="red" stroke="red" stroke-width="0.46" points="938.55,-20.41 927.96,-20.58 936.34,-27.06 938.55,-20.41"/>
</g>
<!-- 7 -->
<g id="node24" class="node">
<title>7</title>
<ellipse fill="lightblue" stroke="black" cx="364.82" cy="-14.5" rx="14.5" ry="14.5"/>
<text text-anchor="middle" x="364.82" y="-11.57" font-family="Times New Roman,serif" font-size="9.00">7</text>
</g>
<!-- &#45;1&#45;&gt;7 -->
<g id="edge7" class="edge">
<title>&#45;1&#45;&gt;7</title>
<path fill="none" stroke="green" stroke-width="0.22" d="M844.65,-157.17C741.57,-152.69 18.34,-121 10.82,-113.07 -3.89,-97.57 -3.21,-81.11 10.82,-64.99 53.82,-15.56 266.73,-14 340,-14.97"/>
<polygon fill="green" stroke="green" stroke-width="0.22" points="339.75,-18.47 349.81,-15.13 339.87,-11.47 339.75,-18.47"/>
</g>
<!-- 4218 -->
<g id="node27" class="node">
<title>4218</title>
<ellipse fill="white" stroke="black" cx="1350.82" cy="-89.03" rx="24.04" ry="24.04"/>
<text text-anchor="middle" x="1350.82" y="-86.11" font-family="Times New Roman,serif" font-size="9.00">4218</text>
</g>
<!-- &#45;1&#45;&gt;4218 -->
<g id="edge115" class="edge">
<title>&#45;1&#45;&gt;4218</title>
<path fill="none" stroke="green" stroke-width="0.34" d="M869.04,-151.94C871.87,-150.82 874.91,-149.78 877.82,-149.07 1066.43,-103.69 1128.3,-172.96 1312.82,-113.07 1316.05,-112.03 1319.29,-110.66 1322.44,-109.11"/>
<polygon fill="green" stroke="green" stroke-width="0.34" points="1324.04,-112.23 1331.09,-104.32 1320.65,-106.1 1324.04,-112.23"/>
</g>
<!-- &#45;2 -->
<g id="node2" class="node">
<title>&#45;2</title>
<polygon fill="lightgray" stroke="black" points="910.57,-168.32 887.07,-168.32 887.07,-149.07 910.57,-149.07 910.57,-168.32"/>
<text text-anchor="middle" x="898.82" y="-155.77" font-family="Times New Roman,serif" font-size="9.00">&#45;2</text>
</g>
<!-- &#45;2&#45;&gt;1 -->
<g id="edge8" class="edge">
<title>&#45;2&#45;&gt;1</title>
<path fill="none" stroke="green" stroke-width="1.25" d="M886.6,-151.9C883.77,-150.78 880.74,-149.75 877.82,-149.07 815.11,-134.66 343.88,-159.97 299.82,-113.07 285.18,-97.5 286.55,-81.74 299.82,-64.99 343.19,-10.23 387.73,-54.36 452.82,-28.99 453.33,-28.79 453.84,-28.58 454.36,-28.37"/>
<polygon fill="green" stroke="green" stroke-width="1.25" points="455.89,-31.52 463.25,-23.9 452.74,-25.26 455.89,-31.52"/>
</g>
<!-- &#45;2&#45;&gt;3 -->
<g id="edge9" class="edge">
<title>&#45;2&#45;&gt;3</title>
<path fill="none" stroke="green" stroke-width="0.36" stroke-dasharray="1,5" d="M896.53,-148.7C891.87,-131.45 880.15,-92.97 861.82,-64.99 853.53,-52.35 841.66,-40.25 831.67,-31.18"/>
<polygon fill="green" stroke="green" stroke-width="0.36" points="834.09,-28.65 824.26,-24.69 829.48,-33.91 834.09,-28.65"/>
</g>
<!-- &#45;2&#45;&gt;4 -->
<g id="edge10" class="edge">
<title>&#45;2&#45;&gt;4</title>
<path fill="none" stroke="red" stroke-width="0.21" d="M887,-152.26C884.05,-151.07 880.86,-149.91 877.82,-149.07 773.41,-120.29 716.87,-186.02 636.82,-113.07 616.43,-94.5 612.07,-61.64 611.72,-39.23"/>
<polygon fill="red" stroke="red" stroke-width="0.21" points="615.22,-39.53 611.81,-29.5 608.22,-39.46 615.22,-39.53"/>
</g>
<!-- &#45;2&#45;&gt;5 -->
<g id="edge11" class="edge">
<title>&#45;2&#45;&gt;5</title>
<path fill="none" stroke="green" stroke-width="0.12" d="M910.93,-157.24C993.21,-154.1 1467.45,-135.05 1487.82,-113.07 1502.35,-97.4 1502.07,-80.92 1487.82,-64.99 1459.64,-33.5 1157.73,-19.76 1068.51,-16.37"/>
<polygon fill="green" stroke="green" stroke-width="0.12" points="1068.8,-12.87 1058.68,-16 1068.54,-19.87 1068.8,-12.87"/>
</g>
<!-- &#45;2&#45;&gt;7 -->
<g id="edge12" class="edge">
<title>&#45;2&#45;&gt;7</title>
<path fill="none" stroke="red" stroke-width="0.21" d="M886.61,-151.86C883.78,-150.74 880.74,-149.72 877.82,-149.07 832.52,-139.12 75.9,-146.57 43.82,-113.07 -43.98,-21.41 250.28,-15.1 339.78,-15.25"/>
<polygon fill="red" stroke="red" stroke-width="0.21" points="339.53,-18.74 349.55,-15.29 339.57,-11.74 339.53,-18.74"/>
</g>
<!-- 4263 -->
<g id="node25" class="node">
<title>4263</title>
<ellipse fill="white" stroke="black" cx="1454.82" cy="-89.03" rx="24.04" ry="24.04"/>
<text text-anchor="middle" x="1454.82" y="-86.11" font-family="Times New Roman,serif" font-size="9.00">4263</text>
</g>
<!-- &#45;2&#45;&gt;4263 -->
<g id="edge119" class="edge">
<title>&#45;2&#45;&gt;4263</title>
<path fill="none" stroke="red" stroke-width="0.15" d="M910.71,-157.41C978.65,-155.64 1318.14,-145.28 1416.82,-113.07 1420.15,-111.99 1423.49,-110.56 1426.73,-108.95"/>
<polygon fill="red" stroke="red" stroke-width="0.15" points="1428.3,-112.09 1435.34,-104.17 1424.9,-105.97 1428.3,-112.09"/>
</g>
<!-- &#45;3 -->
<g id="node3" class="node">
<title>&#45;3</title>
<polygon fill="lightgray" stroke="black" points="950.57,-98.66 927.07,-98.66 927.07,-79.41 950.57,-79.41 950.57,-98.66"/>
<text text-anchor="middle" x="938.82" y="-86.11" font-family="Times New Roman,serif" font-size="9.00">&#45;3</text>
</g>
<!-- &#45;3&#45;&gt;0 -->
<g id="edge13" class="edge">
<title>&#45;3&#45;&gt;0</title>
<path fill="none" stroke="green" stroke-width="0.1" d="M926.68,-84.57C908.42,-79.49 872.73,-70.07 841.82,-64.99 670.92,-36.91 623.49,-63.69 453.82,-28.99 447.57,-27.71 440.94,-25.84 434.84,-23.89"/>
<polygon fill="green" stroke="green" stroke-width="0.1" points="435.98,-20.58 425.38,-20.69 433.73,-27.21 435.98,-20.58"/>
</g>
<!-- &#45;3&#45;&gt;1 -->
<g id="edge14" class="edge">
<title>&#45;3&#45;&gt;1</title>
<path fill="none" stroke="green" stroke-width="0.33" stroke-dasharray="1,5" d="M926.65,-84.73C908.35,-79.87 872.62,-70.72 841.82,-64.99 775.88,-52.72 572.91,-27.32 501.77,-18.55"/>
<polygon fill="green" stroke="green" stroke-width="0.33" points="502.38,-15.1 492.02,-17.35 501.52,-22.05 502.38,-15.1"/>
</g>
<!-- &#45;3&#45;&gt;2 -->
<g id="edge15" class="edge">
<title>&#45;3&#45;&gt;2</title>
<path fill="none" stroke="green" stroke-width="0.15" d="M943.72,-79.14C949.58,-68.53 959.55,-50.43 967.37,-36.25"/>
<polygon fill="green" stroke="green" stroke-width="0.15" points="970.27,-38.25 972.03,-27.8 964.14,-34.87 970.27,-38.25"/>
</g>
<!-- &#45;3&#45;&gt;3 -->
<g id="edge16" class="edge">
<title>&#45;3&#45;&gt;3</title>
<path fill="none" stroke="red" stroke-width="0.18" d="M930.16,-79.3C925.32,-74.7 919.02,-69.17 912.82,-64.99 887.96,-48.26 856.63,-33.68 835.73,-24.75"/>
<polygon fill="red" stroke="red" stroke-width="0.18" points="837.2,-21.58 826.62,-20.95 834.5,-28.04 837.2,-21.58"/>
</g>
<!-- &#45;3&#45;&gt;4 -->
<g id="edge17" class="edge">
<title>&#45;3&#45;&gt;4</title>
<path fill="none" stroke="green" stroke-width="0.27" d="M926.59,-85.04C908.21,-80.57 872.37,-71.92 841.82,-64.99 767.35,-48.1 678.96,-29.37 637.11,-20.58"/>
<polygon fill="green" stroke="green" stroke-width="0.27" points="637.95,-17.18 627.44,-18.55 636.51,-24.03 637.95,-17.18"/>
</g>
<!-- &#45;3&#45;&gt;5 -->
<g id="edge18" class="edge">
<title>&#45;3&#45;&gt;5</title>
<path fill="none" stroke="green" stroke-width="0.12" d="M950.86,-79.71C968.76,-67.35 1002.57,-43.99 1024.1,-29.11"/>
<polygon fill="green" stroke="green" stroke-width="0.12" points="1025.85,-32.16 1032.09,-23.6 1021.87,-26.4 1025.85,-32.16"/>
</g>
<!-- &#45;3&#45;&gt;6 -->
<g id="edge19" class="edge">
<title>&#45;3&#45;&gt;6</title>
<path fill="none" stroke="red" stroke-width="0.88" d="M935.75,-79.14C932.35,-69.27 926.72,-52.93 922.01,-39.28"/>
<polygon fill="red" stroke="red" stroke-width="0.88" points="925.35,-38.22 918.78,-29.91 918.73,-40.5 925.35,-38.22"/>
</g>
<!-- &#45;4 -->
<g id="node4" class="node">
<title>&#45;4</title>
<polygon fill="lightgray" stroke="black" points="420.57,-98.66 397.07,-98.66 397.07,-79.41 420.57,-79.41 420.57,-98.66"/>
<text text-anchor="middle" x="408.82" y="-86.11" font-family="Times New Roman,serif" font-size="9.00">&#45;4</text>
</g>
<!-- &#45;4&#45;&gt;0 -->
<g id="edge20" class="edge">
<title>&#45;4&#45;&gt;0</title>
<path fill="none" stroke="red" stroke-width="0.37" d="M409.19,-79.14C409.59,-69.35 410.26,-53.19 410.82,-39.61"/>
<polygon fill="red" stroke="red" stroke-width="0.37" points="414.3,-40.14 411.22,-30 407.31,-39.85 414.3,-40.14"/>
</g>
<!-- &#45;4&#45;&gt;1 -->
<g id="edge21" class="edge">
<title>&#45;4&#45;&gt;1</title>
<path fill="none" stroke="red" stroke-width="0.3" d="M416.95,-79.02C420.83,-74.75 425.54,-69.59 429.82,-64.99 439.78,-54.28 451.06,-42.39 460.08,-32.95"/>
<polygon fill="red" stroke="red" stroke-width="0.3" points="462.34,-35.65 466.72,-26 457.28,-30.81 462.34,-35.65"/>
</g>
<!-- &#45;4&#45;&gt;2 -->
<g id="edge22" class="edge">
<title>&#45;4&#45;&gt;2</title>
<path fill="none" stroke="red" stroke-width="0.18" d="M414.3,-79.24C418,-74.13 423.38,-68.1 429.82,-64.99 535.11,-14.12 842.77,-62.47 954.82,-28.99 955.87,-28.68 956.93,-28.31 957.98,-27.9"/>
<polygon fill="red" stroke="red" stroke-width="0.18" points="959.38,-31.11 966.83,-23.58 956.31,-24.82 959.38,-31.11"/>
</g>
<!-- &#45;4&#45;&gt;3 -->
<g id="edge23" class="edge">
<title>&#45;4&#45;&gt;3</title>
<path fill="none" stroke="green" stroke-width="0.48" d="M414.71,-78.91C418.42,-73.95 423.67,-68.19 429.82,-64.99 461.63,-48.43 707.84,-24.97 787.82,-17.72"/>
<polygon fill="green" stroke="green" stroke-width="0.48" points="788,-21.22 797.64,-16.83 787.37,-14.25 788,-21.22"/>
</g>
<!-- &#45;4&#45;&gt;4 -->
<g id="edge24" class="edge">
<title>&#45;4&#45;&gt;4</title>
<path fill="none" stroke="red" stroke-width="0.32" d="M414.88,-79.22C418.65,-74.36 423.9,-68.6 429.82,-64.99 480.74,-33.92 551.29,-22.03 588.15,-17.74"/>
<polygon fill="red" stroke="red" stroke-width="0.32" points="588.39,-21.24 597.96,-16.69 587.65,-14.28 588.39,-21.24"/>
</g>
<!-- &#45;4&#45;&gt;6 -->
<g id="edge25" class="edge">
<title>&#45;4&#45;&gt;6</title>
<path fill="none" stroke="green" stroke-width="0.71" d="M414.32,-79.28C418.03,-74.18 423.41,-68.15 429.82,-64.99 514.62,-23.16 760.36,-43.4 853.82,-28.99 865.44,-27.2 878.17,-24.45 888.9,-21.9"/>
<polygon fill="green" stroke="green" stroke-width="0.71" points="889.69,-25.31 898.57,-19.52 888.02,-18.51 889.69,-25.31"/>
</g>
<!-- &#45;4&#45;&gt;7 -->
<g id="edge26" class="edge">
<title>&#45;4&#45;&gt;7</title>
<path fill="none" stroke="red" stroke-width="0.27" d="M403.42,-79.14C396.95,-68.46 385.88,-50.22 377.25,-36"/>
<polygon fill="red" stroke="red" stroke-width="0.27" points="380.4,-34.44 372.22,-27.7 374.42,-38.07 380.4,-34.44"/>
</g>
<!-- &#45;5 -->
<g id="node5" class="node">
<title>&#45;5</title>
<polygon fill="lightgray" stroke="black" points="462.57,-98.66 439.07,-98.66 439.07,-79.41 462.57,-79.41 462.57,-98.66"/>
<text text-anchor="middle" x="450.82" y="-86.11" font-family="Times New Roman,serif" font-size="9.00">&#45;5</text>
</g>
<!-- &#45;5&#45;&gt;0 -->
<g id="edge27" class="edge">
<title>&#45;5&#45;&gt;0</title>
<path fill="none" stroke="green" stroke-width="0.29" d="M446.04,-79.14C440.42,-68.69 430.9,-50.99 423.33,-36.9"/>
<polygon fill="green" stroke="green" stroke-width="0.29" points="426.49,-35.4 418.68,-28.25 420.33,-38.72 426.49,-35.4"/>
</g>
<!-- &#45;5&#45;&gt;1 -->
<g id="edge28" class="edge">
<title>&#45;5&#45;&gt;1</title>
<path fill="none" stroke="green" stroke-width="0.21" d="M454.01,-79.14C457.65,-68.97 463.75,-51.94 468.73,-38.05"/>
<polygon fill="green" stroke="green" stroke-width="0.21" points="471.92,-39.54 472,-28.95 465.33,-37.18 471.92,-39.54"/>
</g>
<!-- &#45;5&#45;&gt;2 -->
<g id="edge29" class="edge">
<title>&#45;5&#45;&gt;2</title>
<path fill="none" stroke="red" stroke-width="0.25" d="M462.95,-84.55C481.21,-79.45 516.89,-70 547.82,-64.99 727.07,-35.93 781.35,-82.7 954.82,-28.99 955.87,-28.67 956.92,-28.29 957.97,-27.88"/>
<polygon fill="red" stroke="red" stroke-width="0.25" points="959.28,-31.13 966.71,-23.58 956.2,-24.85 959.28,-31.13"/>
</g>
<!-- &#45;5&#45;&gt;3 -->
<g id="edge30" class="edge">
<title>&#45;5&#45;&gt;3</title>
<path fill="none" stroke="green" stroke-width="0.71" d="M463.02,-84.93C481.37,-80.32 517.17,-71.49 547.82,-64.99 635.61,-46.38 740.56,-27.88 787.71,-19.77"/>
<polygon fill="green" stroke="green" stroke-width="0.71" points="788.08,-23.25 797.35,-18.12 786.9,-16.35 788.08,-23.25"/>
</g>
<!-- &#45;5&#45;&gt;4 -->
<g id="edge31" class="edge">
<title>&#45;5&#45;&gt;4</title>
<path fill="none" stroke="green" stroke-width="0.26" stroke-dasharray="1,5" d="M459.3,-79.02C464.09,-74.34 470.39,-68.82 476.82,-64.99 513.19,-43.33 560.59,-28.74 588.75,-21.3"/>
<polygon fill="green" stroke="green" stroke-width="0.26" points="589.34,-24.76 598.16,-18.9 587.6,-17.98 589.34,-24.76"/>
</g>
<!-- &#45;5&#45;&gt;6 -->
<g id="edge32" class="edge">
<title>&#45;5&#45;&gt;6</title>
<path fill="none" stroke="green" stroke-width="0.33" stroke-dasharray="1,5" d="M462.97,-84.66C481.25,-79.71 516.97,-70.45 547.82,-64.99 682.66,-41.13 718.83,-52.05 853.82,-28.99 865.66,-26.97 878.68,-24.12 889.56,-21.56"/>
<polygon fill="green" stroke="green" stroke-width="0.33" points="890.21,-25 899.11,-19.25 888.57,-18.19 890.21,-25"/>
</g>
<!-- &#45;5&#45;&gt;7 -->
<g id="edge33" class="edge">
<title>&#45;5&#45;&gt;7</title>
<path fill="none" stroke="green" stroke-width="0.69" stroke-dasharray="1,5" d="M443.39,-79.15C439.52,-74.71 434.61,-69.38 429.82,-64.99 415.67,-52.04 398.34,-38.97 385.13,-29.51"/>
<polygon fill="green" stroke="green" stroke-width="0.69" points="387.39,-26.82 377.2,-23.92 383.36,-32.54 387.39,-26.82"/>
</g>
<!-- &#45;6 -->
<g id="node6" class="node">
<title>&#45;6</title>
<polygon fill="lightgray" stroke="black" points="702.57,-98.66 679.07,-98.66 679.07,-79.41 702.57,-79.41 702.57,-98.66"/>
<text text-anchor="middle" x="690.82" y="-86.11" font-family="Times New Roman,serif" font-size="9.00">&#45;6</text>
</g>
<!-- &#45;6&#45;&gt;0 -->
<g id="edge34" class="edge">
<title>&#45;6&#45;&gt;0</title>
<path fill="none" stroke="red" stroke-width="0.34" d="M678.78,-85.15C636.95,-75.1 497.96,-41.57 453.82,-28.99 447.68,-27.24 441.1,-25.21 435,-23.25"/>
<polygon fill="red" stroke="red" stroke-width="0.34" points="436.44,-20.04 425.85,-20.26 434.27,-26.69 436.44,-20.04"/>
</g>
<!-- &#45;6&#45;&gt;1 -->
<g id="edge35" class="edge">
<title>&#45;6&#45;&gt;1</title>
<path fill="none" stroke="red" stroke-width="0.16" stroke-dasharray="1,5" d="M678.7,-83.93C644.25,-72.25 545.31,-38.71 499.99,-23.35"/>
<polygon fill="red" stroke="red" stroke-width="0.16" points="501.25,-20.08 490.66,-20.19 499.01,-26.71 501.25,-20.08"/>
</g>
<!-- &#45;6&#45;&gt;2 -->
<g id="edge36" class="edge">
<title>&#45;6&#45;&gt;2</title>
<path fill="none" stroke="green" stroke-width="0.61" d="M696.73,-78.95C700.45,-74.01 705.7,-68.25 711.82,-64.99 808.18,-13.67 851.52,-64.34 954.82,-28.99 955.73,-28.68 956.64,-28.33 957.56,-27.96"/>
<polygon fill="green" stroke="green" stroke-width="0.61" points="958.79,-31.26 966.19,-23.67 955.67,-24.99 958.79,-31.26"/>
</g>
<!-- &#45;6&#45;&gt;3 -->
<g id="edge37" class="edge">
<title>&#45;6&#45;&gt;3</title>
<path fill="none" stroke="red" stroke-width="0.96" d="M697.53,-79.18C701.35,-74.55 706.45,-69.02 711.82,-64.99 735.78,-47.01 767.3,-32.8 788.71,-24.31"/>
<polygon fill="red" stroke="red" stroke-width="0.96" points="789.73,-27.66 797.81,-20.81 787.22,-21.13 789.73,-27.66"/>
</g>
<!-- &#45;6&#45;&gt;4 -->
<g id="edge38" class="edge">
<title>&#45;6&#45;&gt;4</title>
<path fill="none" stroke="red" stroke-width="0.44" d="M681.25,-79.14C668.71,-67.48 646.47,-46.79 630.75,-32.17"/>
<polygon fill="red" stroke="red" stroke-width="0.44" points="633.4,-29.85 623.69,-25.61 628.63,-34.98 633.4,-29.85"/>
</g>
<!-- &#45;6&#45;&gt;5 -->
<g id="edge39" class="edge">
<title>&#45;6&#45;&gt;5</title>
<path fill="none" stroke="red" stroke-width="0.49" d="M696.35,-79.35C700.08,-74.28 705.46,-68.25 711.82,-64.99 834.44,-2.08 888.75,-71.6 1019.82,-28.99 1020.73,-28.69 1021.65,-28.36 1022.57,-28"/>
<polygon fill="red" stroke="red" stroke-width="0.49" points="1023.94,-31.22 1031.37,-23.67 1020.85,-24.94 1023.94,-31.22"/>
</g>
<!-- &#45;6&#45;&gt;6 -->
<g id="edge40" class="edge">
<title>&#45;6&#45;&gt;6</title>
<path fill="none" stroke="red" stroke-width="0.48" stroke-dasharray="1,5" d="M696.85,-79.17C700.61,-74.29 705.86,-68.53 711.82,-64.99 719.54,-60.41 837.21,-33.07 889.31,-21.1"/>
<polygon fill="red" stroke="red" stroke-width="0.48" points="889.98,-24.54 898.94,-18.89 888.41,-17.71 889.98,-24.54"/>
</g>
<!-- &#45;6&#45;&gt;7 -->
<g id="edge41" class="edge">
<title>&#45;6&#45;&gt;7</title>
<path fill="none" stroke="red" stroke-width="0.16" d="M678.62,-84.89C660.29,-80.22 624.5,-71.32 593.82,-64.99 503.22,-46.29 475.93,-60.11 388.82,-28.99 387.78,-28.62 386.74,-28.21 385.7,-27.77"/>
<polygon fill="red" stroke="red" stroke-width="0.16" points="387.37,-24.69 376.87,-23.3 384.21,-30.94 387.37,-24.69"/>
</g>
<!-- &#45;7 -->
<g id="node7" class="node">
<title>&#45;7</title>
<polygon fill="lightgray" stroke="black" points="1110.57,-98.66 1087.07,-98.66 1087.07,-79.41 1110.57,-79.41 1110.57,-98.66"/>
<text text-anchor="middle" x="1098.82" y="-86.11" font-family="Times New Roman,serif" font-size="9.00">&#45;7</text>
</g>
<!-- &#45;7&#45;&gt;0 -->
<g id="edge42" class="edge">
<title>&#45;7&#45;&gt;0</title>
<path fill="none" stroke="green" stroke-width="0.27" stroke-dasharray="1,5" d="M1086.96,-82.13C1075.28,-76.63 1056.79,-68.73 1039.82,-64.99 784.99,-8.85 710.25,-77.28 453.82,-28.99 447.55,-27.81 440.91,-25.97 434.82,-24.02"/>
<polygon fill="green" stroke="green" stroke-width="0.27" points="436.2,-20.8 425.61,-20.88 433.94,-27.42 436.2,-20.8"/>
</g>
<!-- &#45;7&#45;&gt;2 -->
<g id="edge43" class="edge">
<title>&#45;7&#45;&gt;2</title>
<path fill="none" stroke="red" stroke-width="1.1" d="M1089.64,-78.92C1084.86,-74.43 1078.77,-69.11 1072.82,-64.99 1050.24,-49.38 1022.15,-35.2 1002.59,-26.05"/>
<polygon fill="red" stroke="red" stroke-width="1.1" points="1004.22,-22.95 993.67,-21.97 1001.31,-29.32 1004.22,-22.95"/>
</g>
<!-- &#45;7&#45;&gt;3 -->
<g id="edge44" class="edge">
<title>&#45;7&#45;&gt;3</title>
<path fill="none" stroke="green" stroke-width="0.48" d="M1086.81,-82.7C1075.03,-77.62 1056.45,-70.02 1039.82,-64.99 967.67,-43.19 879.9,-26.84 837.75,-19.6"/>
<polygon fill="green" stroke="green" stroke-width="0.48" points="838.53,-16.19 828.08,-17.97 837.36,-23.09 838.53,-16.19"/>
</g>
<!-- &#45;7&#45;&gt;5 -->
<g id="edge45" class="edge">
<title>&#45;7&#45;&gt;5</title>
<path fill="none" stroke="green" stroke-width="0.14" stroke-dasharray="1,5" d="M1092.07,-79.14C1083.68,-68.07 1069.12,-48.87 1058.19,-34.44"/>
<polygon fill="green" stroke="green" stroke-width="0.14" points="1061.19,-32.62 1052.36,-26.77 1055.62,-36.85 1061.19,-32.62"/>
</g>
<!-- &#45;7&#45;&gt;6 -->
<g id="edge46" class="edge">
<title>&#45;7&#45;&gt;6</title>
<path fill="none" stroke="green" stroke-width="0.21" d="M1090.87,-79.35C1086.05,-74.53 1079.55,-68.77 1072.82,-64.99 1025.38,-38.35 1007.72,-45.31 955.82,-28.99 949.73,-27.08 943.16,-24.98 937.07,-23.02"/>
<polygon fill="green" stroke="green" stroke-width="0.21" points="938.32,-19.75 927.73,-20.01 936.17,-26.41 938.32,-19.75"/>
</g>
<!-- &#45;8 -->
<g id="node8" class="node">
<title>&#45;8</title>
<polygon fill="lightgray" stroke="black" points="1030.57,-98.66 1007.07,-98.66 1007.07,-79.41 1030.57,-79.41 1030.57,-98.66"/>
<text text-anchor="middle" x="1018.82" y="-86.11" font-family="Times New Roman,serif" font-size="9.00">&#45;8</text>
</g>
<!-- &#45;8&#45;&gt;1 -->
<g id="edge47" class="edge">
<title>&#45;8&#45;&gt;1</title>
<path fill="none" stroke="green" stroke-width="0.16" d="M1006.93,-82.26C995.23,-76.86 976.72,-69.03 959.82,-64.99 799.12,-26.58 754.08,-46.79 589.82,-28.99 559.3,-25.68 524.19,-21.42 501.32,-18.58"/>
<polygon fill="green" stroke="green" stroke-width="0.16" points="502.03,-15.14 491.67,-17.37 501.16,-22.09 502.03,-15.14"/>
</g>
<!-- &#45;8&#45;&gt;2 -->
<g id="edge48" class="edge">
<title>&#45;8&#45;&gt;2</title>
<path fill="none" stroke="red" stroke-width="0.12" d="M1013.91,-79.14C1008.06,-68.53 998.08,-50.43 990.26,-36.25"/>
<polygon fill="red" stroke="red" stroke-width="0.12" points="993.48,-34.83 985.58,-27.77 987.35,-38.21 993.48,-34.83"/>
</g>
<!-- &#45;8&#45;&gt;3 -->
<g id="edge49" class="edge">
<title>&#45;8&#45;&gt;3</title>
<path fill="none" stroke="red" stroke-width="0.54" d="M1010.91,-79.27C1006.1,-74.43 999.6,-68.67 992.82,-64.99 965.81,-50.35 880.11,-30.25 837.44,-20.81"/>
<polygon fill="red" stroke="red" stroke-width="0.54" points="838.42,-17.44 827.9,-18.72 836.92,-24.28 838.42,-17.44"/>
</g>
<!-- &#45;8&#45;&gt;4 -->
<g id="edge50" class="edge">
<title>&#45;8&#45;&gt;4</title>
<path fill="none" stroke="red" stroke-width="0.17" d="M1006.89,-82.43C995.16,-77.15 976.62,-69.41 959.82,-64.99 841.5,-33.89 695.01,-21.11 637.57,-17.06"/>
<polygon fill="red" stroke="red" stroke-width="0.17" points="638.08,-13.59 627.86,-16.4 637.6,-20.57 638.08,-13.59"/>
</g>
<!-- &#45;8&#45;&gt;5 -->
<g id="edge51" class="edge">
<title>&#45;8&#45;&gt;5</title>
<path fill="none" stroke="red" stroke-width="0.51" d="M1021.88,-79.14C1025.35,-69.07 1031.14,-52.27 1035.9,-38.46"/>
<polygon fill="red" stroke="red" stroke-width="0.51" points="1039.09,-39.96 1039.04,-29.37 1032.47,-37.68 1039.09,-39.96"/>
</g>
<!-- &#45;8&#45;&gt;6 -->
<g id="edge52" class="edge">
<title>&#45;8&#45;&gt;6</title>
<path fill="none" stroke="red" stroke-width="0.15" d="M1009.51,-79.11C1004.69,-74.66 998.61,-69.33 992.82,-64.99 974.08,-50.97 951.3,-36.99 935.03,-27.49"/>
<polygon fill="red" stroke="red" stroke-width="0.15" points="936.88,-24.52 926.47,-22.55 933.38,-30.58 936.88,-24.52"/>
</g>
<!-- &#45;9 -->
<g id="node9" class="node">
<title>&#45;9</title>
<polygon fill="lightgray" stroke="black" points="332.57,-98.66 309.07,-98.66 309.07,-79.41 332.57,-79.41 332.57,-98.66"/>
<text text-anchor="middle" x="320.82" y="-86.11" font-family="Times New Roman,serif" font-size="9.00">&#45;9</text>
</g>
<!-- &#45;9&#45;&gt;0 -->
<g id="edge53" class="edge">
<title>&#45;9&#45;&gt;0</title>
<path fill="none" stroke="green" stroke-width="0.8" d="M328.18,-79.07C332.03,-74.62 336.95,-69.29 341.82,-64.99 357.13,-51.46 376.16,-38.2 390.51,-28.82"/>
<polygon fill="green" stroke="green" stroke-width="0.8" points="392.05,-31.99 398.58,-23.64 388.27,-26.1 392.05,-31.99"/>
</g>
<!-- &#45;9&#45;&gt;1 -->
<g id="edge54" class="edge">
<title>&#45;9&#45;&gt;1</title>
<path fill="none" stroke="red" stroke-width="0.48" d="M326.95,-79.33C330.75,-74.51 336,-68.75 341.82,-64.99 385.41,-36.89 405.31,-49.8 452.82,-28.99 453.7,-28.61 454.59,-28.2 455.48,-27.77"/>
<polygon fill="red" stroke="red" stroke-width="0.48" points="456.99,-30.93 464.21,-23.18 453.73,-24.74 456.99,-30.93"/>
</g>
<!-- &#45;9&#45;&gt;3 -->
<g id="edge55" class="edge">
<title>&#45;9&#45;&gt;3</title>
<path fill="none" stroke="green" stroke-width="0.27" stroke-dasharray="1,5" d="M326.34,-79.32C330.06,-74.24 335.44,-68.22 341.82,-64.99 361.93,-54.82 693.32,-25.74 787.84,-17.62"/>
<polygon fill="green" stroke="green" stroke-width="0.27" points="788.09,-21.12 797.75,-16.78 787.49,-14.14 788.09,-21.12"/>
</g>
<!-- &#45;9&#45;&gt;4 -->
<g id="edge56" class="edge">
<title>&#45;9&#45;&gt;4</title>
<path fill="none" stroke="green" stroke-width="0.14" d="M326.77,-79.03C330.51,-74.11 335.76,-68.35 341.82,-64.99 363.37,-53.04 525.83,-28.26 588.38,-19.05"/>
<polygon fill="green" stroke="green" stroke-width="0.14" points="588.59,-22.55 597.98,-17.64 587.57,-15.63 588.59,-22.55"/>
</g>
<!-- &#45;9&#45;&gt;5 -->
<g id="edge57" class="edge">
<title>&#45;9&#45;&gt;5</title>
<path fill="none" stroke="green" stroke-width="0.18" d="M326.28,-79.2C329.98,-74.08 335.36,-68.05 341.82,-64.99 478.17,-0.4 874.93,-71.07 1019.82,-28.99 1020.87,-28.68 1021.93,-28.32 1022.99,-27.92"/>
<polygon fill="green" stroke="green" stroke-width="0.18" points="1024.38,-31.14 1031.85,-23.62 1021.32,-24.84 1024.38,-31.14"/>
</g>
<!-- &#45;9&#45;&gt;7 -->
<g id="edge58" class="edge">
<title>&#45;9&#45;&gt;7</title>
<path fill="none" stroke="green" stroke-width="0.29" d="M326.21,-79.14C332.69,-68.46 343.75,-50.22 352.38,-36"/>
<polygon fill="green" stroke="green" stroke-width="0.29" points="355.2,-38.09 357.4,-27.73 349.22,-34.46 355.2,-38.09"/>
</g>
<!-- &#45;10 -->
<g id="node10" class="node">
<title>&#45;10</title>
<polygon fill="lightgray" stroke="black" points="378.82,-98.66 350.82,-98.66 350.82,-79.41 378.82,-79.41 378.82,-98.66"/>
<text text-anchor="middle" x="364.82" y="-86.11" font-family="Times New Roman,serif" font-size="9.00">&#45;10</text>
</g>
<!-- &#45;10&#45;&gt;0 -->
<g id="edge59" class="edge">
<title>&#45;10&#45;&gt;0</title>
<path fill="none" stroke="red" stroke-width="0.92" d="M370.58,-79.14C377.37,-68.67 388.87,-50.91 398,-36.82"/>
<polygon fill="red" stroke="red" stroke-width="0.92" points="400.88,-38.81 403.38,-28.52 395.01,-35.01 400.88,-38.81"/>
</g>
<!-- &#45;10&#45;&gt;1 -->
<g id="edge60" class="edge">
<title>&#45;10&#45;&gt;1</title>
<path fill="none" stroke="green" stroke-width="0.78" d="M372.39,-79.34C376.65,-74.75 382.22,-69.21 387.82,-64.99 414.19,-45.11 423.98,-45.08 452.82,-28.99 453.54,-28.59 454.27,-28.18 455.01,-27.77"/>
<polygon fill="green" stroke="green" stroke-width="0.78" points="456.58,-30.9 463.58,-22.96 453.15,-24.8 456.58,-30.9"/>
</g>
<!-- &#45;10&#45;&gt;4 -->
<g id="edge61" class="edge">
<title>&#45;10&#45;&gt;4</title>
<path fill="none" stroke="red" stroke-width="0.26" d="M371.56,-79.12C375.72,-74.23 381.47,-68.47 387.82,-64.99 422.45,-46.01 537.57,-26.85 588.37,-19.09"/>
<polygon fill="red" stroke="red" stroke-width="0.26" points="588.7,-22.58 598.07,-17.63 587.66,-15.66 588.7,-22.58"/>
</g>
<!-- &#45;10&#45;&gt;5 -->
<g id="edge62" class="edge">
<title>&#45;10&#45;&gt;5</title>
<path fill="none" stroke="green" stroke-width="0.24" d="M370.99,-79.2C375.11,-74.08 381.01,-68.04 387.82,-64.99 516.17,-7.43 884.8,-68.49 1019.82,-28.99 1020.87,-28.68 1021.93,-28.32 1022.99,-27.92"/>
<polygon fill="green" stroke="green" stroke-width="0.24" points="1024.29,-31.18 1031.75,-23.66 1021.23,-24.88 1024.29,-31.18"/>
</g>
<!-- &#45;10&#45;&gt;6 -->
<g id="edge63" class="edge">
<title>&#45;10&#45;&gt;6</title>
<path fill="none" stroke="red" stroke-width="0.4" d="M371.01,-79.25C375.14,-74.14 381.04,-68.11 387.82,-64.99 482.15,-21.53 751.11,-44.43 853.82,-28.99 865.7,-27.21 878.72,-24.38 889.59,-21.78"/>
<polygon fill="red" stroke="red" stroke-width="0.4" points="890.16,-25.24 899.03,-19.44 888.48,-18.45 890.16,-25.24"/>
</g>
<!-- &#45;10&#45;&gt;7 -->
<g id="edge64" class="edge">
<title>&#45;10&#45;&gt;7</title>
<path fill="none" stroke="green" stroke-width="0.21" stroke-dasharray="1,5" d="M364.82,-79.14C364.82,-69.35 364.82,-53.19 364.82,-39.61"/>
<polygon fill="green" stroke="green" stroke-width="0.21" points="368.32,-39.76 364.82,-29.76 361.32,-39.76 368.32,-39.76"/>
</g>
<!-- &#45;11 -->
<g id="node11" class="node">
<title>&#45;11</title>
<polygon fill="lightgray" stroke="black" points="748.82,-98.66 720.82,-98.66 720.82,-79.41 748.82,-79.41 748.82,-98.66"/>
<text text-anchor="middle" x="734.82" y="-86.11" font-family="Times New Roman,serif" font-size="9.00">&#45;11</text>
</g>
<!-- &#45;11&#45;&gt;0 -->
<g id="edge65" class="edge">
<title>&#45;11&#45;&gt;0</title>
<path fill="none" stroke="red" stroke-width="0.23" stroke-dasharray="1,5" d="M728.17,-78.93C724.04,-73.98 718.29,-68.22 711.82,-64.99 608.2,-13.34 566.68,-54.8 453.82,-28.99 447.6,-27.57 440.98,-25.64 434.88,-23.69"/>
<polygon fill="red" stroke="red" stroke-width="0.23" points="436.2,-20.44 425.61,-20.59 433.98,-27.08 436.2,-20.44"/>
</g>
<!-- &#45;11&#45;&gt;1 -->
<g id="edge66" class="edge">
<title>&#45;11&#45;&gt;1</title>
<path fill="none" stroke="red" stroke-width="0.39" d="M728.09,-79.1C723.93,-74.2 718.18,-68.44 711.82,-64.99 675.54,-45.32 554.83,-26.47 501.97,-18.94"/>
<polygon fill="red" stroke="red" stroke-width="0.39" points="502.47,-15.47 492.08,-17.55 501.49,-22.41 502.47,-15.47"/>
</g>
<!-- &#45;11&#45;&gt;2 -->
<g id="edge67" class="edge">
<title>&#45;11&#45;&gt;2</title>
<path fill="none" stroke="green" stroke-width="0.56" d="M749.17,-81.97C761.41,-76.95 779.56,-69.88 795.82,-64.99 865.21,-44.14 887.2,-55.02 954.82,-28.99 955.72,-28.65 956.62,-28.27 957.53,-27.87"/>
<polygon fill="green" stroke="green" stroke-width="0.56" points="958.87,-31.12 966.19,-23.46 955.69,-24.88 958.87,-31.12"/>
</g>
<!-- &#45;11&#45;&gt;3 -->
<g id="edge68" class="edge">
<title>&#45;11&#45;&gt;3</title>
<path fill="none" stroke="green" stroke-width="0.29" d="M744.38,-79.14C756.92,-67.48 779.17,-46.79 794.89,-32.17"/>
<polygon fill="green" stroke="green" stroke-width="0.29" points="797.17,-34.82 802.11,-25.45 792.41,-29.7 797.17,-34.82"/>
</g>
<!-- &#45;11&#45;&gt;4 -->
<g id="edge69" class="edge">
<title>&#45;11&#45;&gt;4</title>
<path fill="none" stroke="green" stroke-width="0.33" d="M727.31,-79.24C723.08,-74.63 717.5,-69.09 711.82,-64.99 687.82,-47.68 656.87,-33.29 636.02,-24.56"/>
<polygon fill="green" stroke="green" stroke-width="0.33" points="637.45,-21.37 626.86,-20.83 634.8,-27.85 637.45,-21.37"/>
</g>
<!-- &#45;11&#45;&gt;5 -->
<g id="edge70" class="edge">
<title>&#45;11&#45;&gt;5</title>
<path fill="none" stroke="red" stroke-width="1.96" d="M749.09,-81.7C761.29,-76.52 779.41,-69.36 795.82,-64.99 893.26,-39.04 924.62,-62.22 1019.82,-28.99 1020.08,-28.9 1020.34,-28.81 1020.6,-28.71"/>
<polygon fill="red" stroke="red" stroke-width="1.96" points="1021.83,-32 1029.33,-24.52 1018.8,-25.69 1021.83,-32"/>
</g>
<!-- &#45;11&#45;&gt;6 -->
<g id="edge71" class="edge">
<title>&#45;11&#45;&gt;6</title>
<path fill="none" stroke="green" stroke-width="0.33" d="M749.16,-82.22C780.1,-69.68 853.33,-40.01 890.82,-24.81"/>
<polygon fill="green" stroke="green" stroke-width="0.33" points="891.97,-28.13 899.92,-21.13 889.34,-21.64 891.97,-28.13"/>
</g>
<!-- &#45;11&#45;&gt;7 -->
<g id="edge72" class="edge">
<title>&#45;11&#45;&gt;7</title>
<path fill="none" stroke="green" stroke-width="0.26" d="M728.59,-79.33C724.45,-74.25 718.54,-68.23 711.82,-64.99 581.67,-2.34 526.31,-73.28 388.82,-28.99 387.77,-28.65 386.72,-28.27 385.67,-27.85"/>
<polygon fill="green" stroke="green" stroke-width="0.26" points="387.46,-24.83 376.95,-23.53 384.36,-31.1 387.46,-24.83"/>
</g>
<!-- &#45;12 -->
<g id="node12" class="node">
<title>&#45;12</title>
<polygon fill="lightgray" stroke="black" points="1156.82,-98.66 1128.82,-98.66 1128.82,-79.41 1156.82,-79.41 1156.82,-98.66"/>
<text text-anchor="middle" x="1142.82" y="-86.11" font-family="Times New Roman,serif" font-size="9.00">&#45;12</text>
</g>
<!-- &#45;12&#45;&gt;2 -->
<g id="edge73" class="edge">
<title>&#45;12&#45;&gt;2</title>
<path fill="none" stroke="red" stroke-width="0.59" stroke-dasharray="1,5" d="M1135.51,-78.95C1131.33,-74.25 1125.75,-68.73 1119.82,-64.99 1109.63,-58.57 1040.05,-35.43 1002.59,-23.2"/>
<polygon fill="red" stroke="red" stroke-width="0.59" points="1003.97,-19.97 993.38,-20.2 1001.8,-26.62 1003.97,-19.97"/>
</g>
<!-- &#45;12&#45;&gt;3 -->
<g id="edge74" class="edge">
<title>&#45;12&#45;&gt;3</title>
<path fill="none" stroke="red" stroke-width="0.61" stroke-dasharray="1,5" d="M1136.15,-78.97C1132.01,-74.04 1126.26,-68.28 1119.82,-64.99 1028.01,-18.23 992.47,-45.77 890.82,-28.99 873.1,-26.07 853.14,-22.61 837.85,-19.93"/>
<polygon fill="red" stroke="red" stroke-width="0.61" points="838.55,-16.5 828.09,-18.21 837.33,-23.39 838.55,-16.5"/>
</g>
<!-- &#45;12&#45;&gt;4 -->
<g id="edge75" class="edge">
<title>&#45;12&#45;&gt;4</title>
<path fill="none" stroke="red" stroke-width="0.78" d="M1136.6,-79.3C1132.47,-74.21 1126.56,-68.18 1119.82,-64.99 1097.8,-54.58 738.24,-25.43 638.37,-17.51"/>
<polygon fill="red" stroke="red" stroke-width="0.78" points="638.94,-14.04 628.69,-16.74 638.38,-21.02 638.94,-14.04"/>
</g>
<!-- &#45;12&#45;&gt;5 -->
<g id="edge76" class="edge">
<title>&#45;12&#45;&gt;5</title>
<path fill="none" stroke="green" stroke-width="1.36" d="M1134.7,-79.05C1130.47,-74.6 1125.08,-69.27 1119.82,-64.99 1102.9,-51.26 1082.06,-37.91 1066.48,-28.54"/>
<polygon fill="green" stroke="green" stroke-width="1.36" points="1068.36,-25.58 1057.97,-23.52 1064.8,-31.61 1068.36,-25.58"/>
</g>
<!-- &#45;12&#45;&gt;6 -->
<g id="edge77" class="edge">
<title>&#45;12&#45;&gt;6</title>
<path fill="none" stroke="green" stroke-width="0.54" d="M1136.08,-79.12C1131.91,-74.23 1126.16,-68.47 1119.82,-64.99 1054.37,-29.14 1027.87,-48.43 955.82,-28.99 949.81,-27.37 943.38,-25.42 937.41,-23.51"/>
<polygon fill="green" stroke="green" stroke-width="0.54" points="938.7,-20.25 928.11,-20.45 936.52,-26.9 938.7,-20.25"/>
</g>
<!-- &#45;13 -->
<g id="node13" class="node">
<title>&#45;13</title>
<polygon fill="lightgray" stroke="black" points="832.82,-98.66 804.82,-98.66 804.82,-79.41 832.82,-79.41 832.82,-98.66"/>
<text text-anchor="middle" x="818.82" y="-86.11" font-family="Times New Roman,serif" font-size="9.00">&#45;13</text>
</g>
<!-- &#45;13&#45;&gt;0 -->
<g id="edge78" class="edge">
<title>&#45;13&#45;&gt;0</title>
<path fill="none" stroke="red" stroke-width="0.95" stroke-dasharray="1,5" d="M804.59,-81.53C792.42,-76.24 774.31,-69.02 757.82,-64.99 625.65,-32.71 586.76,-57.94 453.82,-28.99 447.89,-27.7 441.61,-25.92 435.76,-24.07"/>
<polygon fill="red" stroke="red" stroke-width="0.95" points="437.22,-20.86 426.62,-21 434.99,-27.5 437.22,-20.86"/>
</g>
<!-- &#45;13&#45;&gt;2 -->
<g id="edge79" class="edge">
<title>&#45;13&#45;&gt;2</title>
<path fill="none" stroke="red" stroke-width="0.13" stroke-dasharray="1,5" d="M832.93,-82.46C857.88,-72.5 911.25,-50.63 954.82,-28.99 955.8,-28.5 956.8,-27.99 957.81,-27.47"/>
<polygon fill="red" stroke="red" stroke-width="0.13" points="959.46,-30.56 966.57,-22.7 956.11,-24.41 959.46,-30.56"/>
</g>
<!-- &#45;13&#45;&gt;4 -->
<g id="edge80" class="edge">
<title>&#45;13&#45;&gt;4</title>
<path fill="none" stroke="red" stroke-width="0.32" d="M804.32,-82.41C791.99,-77.66 773.8,-70.74 757.82,-64.99 715.2,-49.67 665.14,-32.84 636.38,-23.28"/>
<polygon fill="red" stroke="red" stroke-width="0.32" points="637.51,-19.97 626.92,-20.14 635.31,-26.61 637.51,-19.97"/>
</g>
<!-- &#45;13&#45;&gt;5 -->
<g id="edge81" class="edge">
<title>&#45;13&#45;&gt;5</title>
<path fill="none" stroke="red" stroke-width="0.13" stroke-dasharray="1,5" d="M832.84,-85.07C866.11,-77.79 952.12,-57.53 1019.82,-28.99 1020.83,-28.56 1021.86,-28.1 1022.88,-27.62"/>
<polygon fill="red" stroke="red" stroke-width="0.13" points="1024.46,-30.74 1031.7,-23.01 1021.22,-24.54 1024.46,-30.74"/>
</g>
<!-- &#45;13&#45;&gt;6 -->
<g id="edge82" class="edge">
<title>&#45;13&#45;&gt;6</title>
<path fill="none" stroke="green" stroke-width="0.18" d="M830.47,-79.14C846.45,-66.93 875.38,-44.84 894.6,-30.17"/>
<polygon fill="green" stroke="green" stroke-width="0.18" points="896.63,-33.03 902.45,-24.18 892.38,-27.46 896.63,-33.03"/>
</g>
<!-- &#45;13&#45;&gt;7 -->
<g id="edge83" class="edge">
<title>&#45;13&#45;&gt;7</title>
<path fill="none" stroke="green" stroke-width="0.18" d="M804.61,-81.44C792.45,-76.1 774.35,-68.85 757.82,-64.99 597.35,-27.55 546,-78.43 388.82,-28.99 387.77,-28.66 386.71,-28.28 385.66,-27.86"/>
<polygon fill="green" stroke="green" stroke-width="0.18" points="387.35,-24.79 376.83,-23.51 384.26,-31.07 387.35,-24.79"/>
</g>
<!-- &#45;14 -->
<g id="node14" class="node">
<title>&#45;14</title>
<polygon fill="lightgray" stroke="black" points="647.82,-168.32 619.82,-168.32 619.82,-149.07 647.82,-149.07 647.82,-168.32"/>
<text text-anchor="middle" x="633.82" y="-155.77" font-family="Times New Roman,serif" font-size="9.00">&#45;14</text>
</g>
<!-- &#45;14&#45;&gt;0 -->
<g id="edge84" class="edge">
<title>&#45;14&#45;&gt;0</title>
<path fill="none" stroke="red" stroke-width="0.33" d="M619.47,-157.75C533.06,-157.91 84.2,-156.62 43.82,-113.07 29.29,-97.4 29.51,-80.87 43.82,-64.99 95.26,-7.88 314.58,-52.31 387.82,-28.99 388.87,-28.66 389.92,-28.28 390.97,-27.86"/>
<polygon fill="red" stroke="red" stroke-width="0.33" points="392.18,-31.16 399.59,-23.6 389.08,-24.88 392.18,-31.16"/>
</g>
<!-- &#45;14&#45;&gt;2 -->
<g id="edge85" class="edge">
<title>&#45;14&#45;&gt;2</title>
<path fill="none" stroke="red" stroke-width="0.41" d="M648.06,-157.04C730.92,-153.17 1147.74,-132.73 1165.82,-113.07 1180.28,-97.34 1178.98,-81.82 1165.82,-64.99 1124.91,-12.69 1084.69,-47.16 1020.82,-28.99 1014.83,-27.29 1008.42,-25.31 1002.44,-23.4"/>
<polygon fill="red" stroke="red" stroke-width="0.41" points="1003.55,-20.07 992.96,-20.3 1001.38,-26.73 1003.55,-20.07"/>
</g>
<!-- &#45;14&#45;&gt;3 -->
<g id="edge86" class="edge">
<title>&#45;14&#45;&gt;3</title>
<path fill="none" stroke="green" stroke-width="0.3" d="M648.06,-155.86C672.94,-152.01 724.79,-140.98 757.82,-113.07 781.41,-93.14 796.9,-60.38 805.26,-38.38"/>
<polygon fill="green" stroke="green" stroke-width="0.3" points="808.45,-39.85 808.55,-29.26 801.86,-37.48 808.45,-39.85"/>
</g>
<!-- &#45;14&#45;&gt;4 -->
<g id="edge87" class="edge">
<title>&#45;14&#45;&gt;4</title>
<path fill="none" stroke="red" stroke-width="0.42" stroke-dasharray="1,5" d="M619.34,-157.23C593.25,-155.51 538.82,-147.71 514.82,-113.07 502.65,-95.51 503.62,-83.19 514.82,-64.99 530.68,-39.2 564.59,-26.36 588.04,-20.33"/>
<polygon fill="red" stroke="red" stroke-width="0.42" points="588.72,-23.76 597.67,-18.09 587.14,-16.95 588.72,-23.76"/>
</g>
<!-- &#45;14&#45;&gt;5 -->
<g id="edge88" class="edge">
<title>&#45;14&#45;&gt;5</title>
<path fill="none" stroke="green" stroke-width="0.18" d="M648.29,-157.08C733.45,-153.34 1166.05,-133.42 1184.82,-113.07 1199.31,-97.37 1197.18,-82.43 1184.82,-64.99 1158.4,-27.72 1101.61,-18.3 1068.73,-16.06"/>
<polygon fill="green" stroke="green" stroke-width="0.18" points="1069.01,-12.57 1058.85,-15.56 1068.66,-19.56 1069.01,-12.57"/>
</g>
<!-- &#45;14&#45;&gt;6 -->
<g id="edge89" class="edge">
<title>&#45;14&#45;&gt;6</title>
<path fill="none" stroke="red" stroke-width="0.44" d="M648.14,-157.23C717.13,-154.85 1013.08,-142.91 1039.82,-113.07 1054.08,-97.16 1051.85,-82.65 1039.82,-64.99 1033.76,-56.1 971.94,-34.62 937.2,-23.1"/>
<polygon fill="red" stroke="red" stroke-width="0.44" points="938.6,-19.87 928.01,-20.07 936.42,-26.52 938.6,-19.87"/>
</g>
<!-- &#45;14&#45;&gt;7 -->
<g id="edge90" class="edge">
<title>&#45;14&#45;&gt;7</title>
<path fill="none" stroke="red" stroke-width="0.14" stroke-dasharray="1,5" d="M619.42,-157.78C531.67,-158.1 71.23,-157.66 29.82,-113.07 -60.41,-15.94 248.47,-13.57 340.01,-14.93"/>
<polygon fill="red" stroke="red" stroke-width="0.14" points="339.78,-18.42 349.84,-15.1 339.91,-11.43 339.78,-18.42"/>
</g>
<!-- 4115 -->
<g id="node26" class="node">
<title>4115</title>
<ellipse fill="white" stroke="black" cx="76.82" cy="-89.03" rx="24.04" ry="24.04"/>
<text text-anchor="middle" x="76.82" y="-86.11" font-family="Times New Roman,serif" font-size="9.00">4115</text>
</g>
<!-- &#45;14&#45;&gt;4115 -->
<g id="edge113" class="edge">
<title>&#45;14&#45;&gt;4115</title>
<path fill="none" stroke="red" stroke-width="0.14" d="M619.59,-157.35C546.47,-155.42 212.61,-144.99 114.82,-113.07 111.49,-111.99 108.15,-110.56 104.9,-108.95"/>
<polygon fill="red" stroke="red" stroke-width="0.14" points="106.71,-105.96 96.27,-104.16 103.31,-112.08 106.71,-105.96"/>
</g>
<!-- &#45;15 -->
<g id="node15" class="node">
<title>&#45;15</title>
<polygon fill="lightgray" stroke="black" points="1230.82,-168.32 1202.82,-168.32 1202.82,-149.07 1230.82,-149.07 1230.82,-168.32"/>
<text text-anchor="middle" x="1216.82" y="-155.77" font-family="Times New Roman,serif" font-size="9.00">&#45;15</text>
</g>
<!-- &#45;15&#45;&gt;0 -->
<g id="edge91" class="edge">
<title>&#45;15&#45;&gt;0</title>
<path fill="none" stroke="green" stroke-width="0.21" d="M1202.32,-157.27C1086.54,-153.81 316.08,-130.15 299.82,-113.07 285.08,-97.6 287.91,-82.73 299.82,-64.99 323.37,-29.91 349.77,-47.38 387.82,-28.99 388.81,-28.51 389.81,-28.01 390.82,-27.49"/>
<polygon fill="green" stroke="green" stroke-width="0.21" points="392.35,-30.65 399.48,-22.81 389.02,-24.49 392.35,-30.65"/>
</g>
<!-- &#45;15&#45;&gt;2 -->
<g id="edge92" class="edge">
<title>&#45;15&#45;&gt;2</title>
<path fill="none" stroke="green" stroke-width="0.19" stroke-dasharray="1,5" d="M1230.92,-157.93C1301.12,-158.66 1606.15,-156.68 1520.82,-64.99 1482.87,-24.22 1075.5,-39.59 1020.82,-28.99 1014.56,-27.78 1007.92,-25.93 1001.82,-23.98"/>
<polygon fill="green" stroke="green" stroke-width="0.19" points="1003.09,-20.71 992.5,-20.8 1000.83,-27.34 1003.09,-20.71"/>
</g>
<!-- &#45;15&#45;&gt;3 -->
<g id="edge93" class="edge">
<title>&#45;15&#45;&gt;3</title>
<path fill="none" stroke="red" stroke-width="0.14" stroke-dasharray="1,5" d="M1202.54,-158.05C1165.73,-158.31 1065.73,-154.86 997.82,-113.07 974.62,-98.8 982.09,-80.67 959.82,-64.99 921.8,-38.23 868.21,-25.05 837.33,-19.31"/>
<polygon fill="red" stroke="red" stroke-width="0.14" points="838.08,-15.89 827.62,-17.61 836.87,-22.78 838.08,-15.89"/>
</g>
<!-- &#45;15&#45;&gt;4 -->
<g id="edge94" class="edge">
<title>&#45;15&#45;&gt;4</title>
<path fill="none" stroke="red" stroke-width="0.73" d="M1202.47,-157.32C1120.77,-155.02 716.18,-142.26 669.82,-113.07 662.57,-108.51 638.67,-64.74 624.22,-37.4"/>
<polygon fill="red" stroke="red" stroke-width="0.73" points="627.47,-36.04 619.72,-28.82 621.27,-39.3 627.47,-36.04"/>
</g>
<!-- &#45;15&#45;&gt;5 -->
<g id="edge95" class="edge">
<title>&#45;15&#45;&gt;5</title>
<path fill="none" stroke="red" stroke-width="1.03" d="M1231.12,-157.84C1299.52,-158.07 1586.67,-153.84 1506.82,-64.99 1477.43,-32.3 1163.76,-19.43 1070.09,-16.3"/>
<polygon fill="red" stroke="red" stroke-width="1.03" points="1070.27,-12.8 1060.16,-15.98 1070.05,-19.8 1070.27,-12.8"/>
</g>
<!-- &#45;15&#45;&gt;6 -->
<g id="edge96" class="edge">
<title>&#45;15&#45;&gt;6</title>
<path fill="none" stroke="red" stroke-width="0.32" d="M1231.14,-157.55C1296.98,-156.4 1564.21,-146.73 1487.82,-64.99 1447.36,-21.71 1014.01,-40.14 955.82,-28.99 949.55,-27.79 942.92,-25.94 936.82,-24"/>
<polygon fill="red" stroke="red" stroke-width="0.32" points="938.28,-20.8 927.68,-20.88 936.02,-27.42 938.28,-20.8"/>
</g>
<!-- &#45;15&#45;&gt;7 -->
<g id="edge97" class="edge">
<title>&#45;15&#45;&gt;7</title>
<path fill="none" stroke="green" stroke-width="0.32" d="M1202.47,-157.29C1086.21,-153.9 302.36,-130.42 285.82,-113.07 271.07,-97.61 275.47,-83.69 285.82,-64.99 297.52,-43.84 322.46,-30.53 341.2,-23.1"/>
<polygon fill="green" stroke="green" stroke-width="0.32" points="342.21,-26.46 350.4,-19.73 339.81,-19.88 342.21,-26.46"/>
</g>
<!-- &#45;15&#45;&gt;4263 -->
<g id="edge117" class="edge">
<title>&#45;15&#45;&gt;4263</title>
<path fill="none" stroke="green" stroke-width="0.3" d="M1230.86,-156.16C1264.17,-152.17 1350.14,-139.88 1416.82,-113.07 1419.97,-111.81 1423.16,-110.3 1426.28,-108.66"/>
<polygon fill="green" stroke="green" stroke-width="0.3" points="1427.98,-111.72 1434.94,-103.73 1424.52,-105.63 1427.98,-111.72"/>
</g>
<!-- &#45;16 -->
<g id="node16" class="node">
<title>&#45;16</title>
<polygon fill="lightgray" stroke="black" points="584.82,-98.66 556.82,-98.66 556.82,-79.41 584.82,-79.41 584.82,-98.66"/>
<text text-anchor="middle" x="570.82" y="-86.11" font-family="Times New Roman,serif" font-size="9.00">&#45;16</text>
</g>
<!-- &#45;16&#45;&gt;0 -->
<g id="edge98" class="edge">
<title>&#45;16&#45;&gt;0</title>
<path fill="none" stroke="green" stroke-width="0.27" d="M556.43,-81.47C528.58,-68.76 467.14,-40.74 434.02,-25.63"/>
<polygon fill="green" stroke="green" stroke-width="0.27" points="435.65,-22.52 425.1,-21.55 432.74,-28.89 435.65,-22.52"/>
</g>
<!-- &#45;16&#45;&gt;1 -->
<g id="edge99" class="edge">
<title>&#45;16&#45;&gt;1</title>
<path fill="none" stroke="red" stroke-width="0.32" stroke-dasharray="1,5" d="M559.29,-79.14C543.63,-67.05 515.41,-45.28 496.4,-30.61"/>
<polygon fill="red" stroke="red" stroke-width="0.32" points="498.59,-27.87 488.53,-24.53 494.31,-33.41 498.59,-27.87"/>
</g>
<!-- &#45;16&#45;&gt;2 -->
<g id="edge100" class="edge">
<title>&#45;16&#45;&gt;2</title>
<path fill="none" stroke="red" stroke-width="0.57" d="M585.15,-84.21C604.32,-79.2 639.42,-70.43 669.82,-64.99 795.49,-42.49 833.58,-69.03 954.82,-28.99 955.73,-28.69 956.65,-28.35 957.57,-27.99"/>
<polygon fill="red" stroke="red" stroke-width="0.57" points="958.83,-31.26 966.25,-23.7 955.74,-24.99 958.83,-31.26"/>
</g>
<!-- &#45;16&#45;&gt;3 -->
<g id="edge101" class="edge">
<title>&#45;16&#45;&gt;3</title>
<path fill="none" stroke="green" stroke-width="0.51" d="M585.23,-83.71C625.34,-71.69 738.59,-37.74 788.58,-22.76"/>
<polygon fill="green" stroke="green" stroke-width="0.51" points="789.47,-26.15 798.05,-19.92 787.46,-19.44 789.47,-26.15"/>
</g>
<!-- &#45;16&#45;&gt;4 -->
<g id="edge102" class="edge">
<title>&#45;16&#45;&gt;4</title>
<path fill="none" stroke="red" stroke-width="0.45" stroke-dasharray="1,5" d="M575.97,-79.14C582.05,-68.63 592.39,-50.78 600.57,-36.65"/>
<polygon fill="red" stroke="red" stroke-width="0.45" points="603.48,-38.6 605.47,-28.19 597.43,-35.09 603.48,-38.6"/>
</g>
<!-- &#45;16&#45;&gt;5 -->
<g id="edge103" class="edge">
<title>&#45;16&#45;&gt;5</title>
<path fill="none" stroke="green" stroke-width="0.21" stroke-dasharray="1,5" d="M585.13,-84.1C604.28,-78.98 639.36,-70.08 669.82,-64.99 824.06,-39.22 870.77,-76.3 1019.82,-28.99 1020.87,-28.66 1021.92,-28.28 1022.97,-27.86"/>
<polygon fill="green" stroke="green" stroke-width="0.21" points="1024.35,-31.08 1031.76,-23.52 1021.25,-24.8 1024.35,-31.08"/>
</g>
<!-- &#45;16&#45;&gt;7 -->
<g id="edge104" class="edge">
<title>&#45;16&#45;&gt;7</title>
<path fill="none" stroke="red" stroke-width="0.32" d="M556.77,-84.5C525.76,-76.48 449.36,-55.52 388.82,-28.99 387.81,-28.55 386.79,-28.08 385.77,-27.59"/>
<polygon fill="red" stroke="red" stroke-width="0.32" points="387.7,-24.65 377.22,-23.07 384.43,-30.84 387.7,-24.65"/>
</g>
<!-- 0&#45;&gt;0 -->
<g id="edge105" class="edge">
<title>0&#45;&gt;0</title>
<path fill="none" stroke="green" stroke-width="0.26" d="M421.8,-25.19C432.38,-31.89 444.31,-28.33 444.31,-14.5 444.31,-4.77 438.41,-0.12 431.23,-0.55"/>
<polygon fill="green" stroke="green" stroke-width="0.26" points="430.49,2.9 422.17,-3.67 432.77,-3.72 430.49,2.9"/>
</g>
<!-- 1&#45;&gt;1 -->
<g id="edge106" class="edge">
<title>1&#45;&gt;1</title>
<path fill="none" stroke="green" stroke-width="0.42" d="M486.8,-25.19C497.38,-31.89 509.31,-28.33 509.31,-14.5 509.31,-4.99 503.67,-0.33 496.71,-0.53"/>
<polygon fill="green" stroke="green" stroke-width="0.42" points="495.8,2.86 487.41,-3.6 498,-3.79 495.8,2.86"/>
</g>
<!-- 2&#45;&gt;2 -->
<g id="edge107" class="edge">
<title>2&#45;&gt;2</title>
<path fill="none" stroke="red" stroke-width="0.46" d="M988.8,-25.19C999.38,-31.89 1011.31,-28.33 1011.31,-14.5 1011.31,-4.99 1005.67,-0.33 998.71,-0.53"/>
<polygon fill="red" stroke="red" stroke-width="0.46" points="997.85,2.88 989.46,-3.58 1000.05,-3.77 997.85,2.88"/>
</g>
<!-- 3&#45;&gt;3 -->
<g id="edge108" class="edge">
<title>3&#45;&gt;3</title>
<path fill="none" stroke="red" stroke-width="0.74" stroke-dasharray="1,5" d="M822.8,-25.19C833.38,-31.89 845.31,-28.33 845.31,-14.5 845.31,-5.2 839.93,-0.54 833.18,-0.52"/>
<polygon fill="red" stroke="red" stroke-width="0.74" points="832.34,2.89 823.86,-3.46 834.45,-3.79 832.34,2.89"/>
</g>
<!-- 4&#45;&gt;4 -->
<g id="edge109" class="edge">
<title>4&#45;&gt;4</title>
<path fill="none" stroke="green" stroke-width="0.18" d="M622.8,-25.19C633.38,-31.89 645.31,-28.33 645.31,-14.5 645.31,-4.77 639.41,-0.12 632.23,-0.55"/>
<polygon fill="green" stroke="green" stroke-width="0.18" points="631.38,2.86 623.06,-3.71 633.66,-3.76 631.38,2.86"/>
</g>
<!-- 5&#45;&gt;5 -->
<g id="edge110" class="edge">
<title>5&#45;&gt;5</title>
<path fill="none" stroke="green" stroke-width="0.43" d="M1053.8,-25.19C1064.38,-31.89 1076.31,-28.33 1076.31,-14.5 1076.31,-4.99 1070.67,-0.33 1063.71,-0.53"/>
<polygon fill="green" stroke="green" stroke-width="0.43" points="1062.81,2.86 1054.41,-3.6 1065,-3.78 1062.81,2.86"/>
</g>
<!-- 6&#45;&gt;6 -->
<g id="edge111" class="edge">
<title>6&#45;&gt;6</title>
<path fill="none" stroke="green" stroke-width="0.49" d="M923.8,-25.19C934.38,-31.89 946.31,-28.33 946.31,-14.5 946.31,-4.99 940.67,-0.33 933.71,-0.53"/>
<polygon fill="green" stroke="green" stroke-width="0.49" points="932.9,2.89 924.5,-3.57 935.09,-3.76 932.9,2.89"/>
</g>
<!-- 4263&#45;&gt;2 -->
<g id="edge118" class="edge">
<title>4263&#45;&gt;2</title>
<path fill="none" stroke="green" stroke-width="0.13" d="M1432.45,-79.4C1418.64,-74.42 1400.43,-68.47 1383.82,-64.99 1225.13,-31.78 1179.55,-61.98 1020.82,-28.99 1014.57,-27.69 1007.95,-25.81 1001.85,-23.86"/>
<polygon fill="green" stroke="green" stroke-width="0.13" points="1003.03,-20.57 992.43,-20.68 1000.78,-27.2 1003.03,-20.57"/>
</g>
<!-- 4115&#45;&gt;0 -->
<g id="edge114" class="edge">
<title>4115&#45;&gt;0</title>
<path fill="none" stroke="red" stroke-width="0.49" d="M96.16,-74.2C101.92,-70.67 108.41,-67.24 114.82,-64.99 230.27,-24.4 271.71,-67.68 387.82,-28.99 388.73,-28.69 389.65,-28.35 390.56,-27.98"/>
<polygon fill="red" stroke="red" stroke-width="0.49" points="391.94,-31.2 399.35,-23.64 388.84,-24.93 391.94,-31.2"/>
</g>
<!-- 4218&#45;&gt;5 -->
<g id="edge116" class="edge">
<title>4218&#45;&gt;5</title>
<path fill="none" stroke="green" stroke-width="0.49" d="M1331.4,-74.41C1325.64,-70.88 1319.16,-67.41 1312.82,-64.99 1227.15,-32.4 1117.74,-20.82 1069.09,-17.09"/>
<polygon fill="green" stroke="green" stroke-width="0.49" points="1069.57,-13.62 1059.34,-16.39 1069.07,-20.6 1069.57,-13.62"/>
</g>
</g>
</svg>
