<?xml version="1.0" encoding="UTF-8" standalone="no"?>
<!DOCTYPE svg PUBLIC "-//W3C//DTD SVG 1.1//EN"
 "http://www.w3.org/Graphics/SVG/1.1/DTD/svg11.dtd">
<!-- Generated by graphviz version 9.0.0 (20230911.1827)
 -->
<!-- Pages: 1 -->
<svg width="826pt" height="279pt"
 viewBox="0.00 0.00 825.79 279.50" xmlns="http://www.w3.org/2000/svg" xmlns:xlink="http://www.w3.org/1999/xlink">
<g id="graph0" class="graph" transform="scale(1 1) rotate(0) translate(4 275.5)">
<polygon fill="white" stroke="none" points="-4,4 -4,-275.5 821.79,-275.5 821.79,4 -4,4"/>
<!-- &#45;1 -->
<g id="node1" class="node">
<title>&#45;1</title>
<polygon fill="lightgray" stroke="black" points="697.5,-201.83 674,-201.83 674,-182.58 697.5,-182.58 697.5,-201.83"/>
<text text-anchor="middle" x="685.75" y="-189.28" font-family="Times New Roman,serif" font-size="9.00">&#45;1</text>
</g>
<!-- 42 -->
<g id="node23" class="node">
<title>42</title>
<ellipse fill="white" stroke="black" cx="401.75" cy="-108.12" rx="17.68" ry="17.68"/>
<text text-anchor="middle" x="401.75" y="-105.2" font-family="Times New Roman,serif" font-size="9.00">42</text>
</g>
<!-- &#45;1&#45;&gt;42 -->
<g id="edge1" class="edge">
<title>&#45;1&#45;&gt;42</title>
<path fill="none" stroke="green" stroke-width="0.8" d="M679.81,-182.18C676.08,-177.25 670.83,-171.49 664.75,-168.17 580.88,-122.35 544.16,-160.07 452.75,-132.17 444.09,-129.52 434.98,-125.75 426.89,-122.02"/>
<polygon fill="green" stroke="green" stroke-width="0.8" points="428.59,-118.96 418.06,-117.77 425.55,-125.26 428.59,-118.96"/>
</g>
<!-- &#45;2 -->
<g id="node2" class="node">
<title>&#45;2</title>
<polygon fill="lightgray" stroke="black" points="371.5,-201.83 348,-201.83 348,-182.58 371.5,-182.58 371.5,-201.83"/>
<text text-anchor="middle" x="359.75" y="-189.28" font-family="Times New Roman,serif" font-size="9.00">&#45;2</text>
</g>
<!-- 40 -->
<g id="node21" class="node">
<title>40</title>
<ellipse fill="white" stroke="black" cx="300.75" cy="-108.12" rx="17.68" ry="17.68"/>
<text text-anchor="middle" x="300.75" y="-105.2" font-family="Times New Roman,serif" font-size="9.00">40</text>
</g>
<!-- &#45;2&#45;&gt;40 -->
<g id="edge2" class="edge">
<title>&#45;2&#45;&gt;40</title>
<path fill="none" stroke="red" stroke-width="0.18" d="M353.21,-182.11C344.47,-169.95 328.7,-148.01 316.73,-131.35"/>
<polygon fill="red" stroke="red" stroke-width="0.18" points="319.7,-129.5 311.03,-123.42 314.02,-133.58 319.7,-129.5"/>
</g>
<!-- &#45;2&#45;&gt;42 -->
<g id="edge3" class="edge">
<title>&#45;2&#45;&gt;42</title>
<path fill="none" stroke="red" stroke-width="0.3" d="M364.41,-182.11C370.37,-170.46 380.93,-149.81 389.31,-133.44"/>
<polygon fill="red" stroke="red" stroke-width="0.3" points="392.29,-135.3 393.73,-124.8 386.06,-132.11 392.29,-135.3"/>
</g>
<!-- &#45;3 -->
<g id="node3" class="node">
<title>&#45;3</title>
<polygon fill="lightgray" stroke="black" points="145.5,-201.83 122,-201.83 122,-182.58 145.5,-182.58 145.5,-201.83"/>
<text text-anchor="middle" x="133.75" y="-189.28" font-family="Times New Roman,serif" font-size="9.00">&#45;3</text>
</g>
<!-- 3 -->
<g id="node20" class="node">
<title>3</title>
<ellipse fill="lightblue" stroke="black" cx="206.75" cy="-24.04" rx="14.5" ry="14.5"/>
<text text-anchor="middle" x="206.75" y="-21.12" font-family="Times New Roman,serif" font-size="9.00">3</text>
</g>
<!-- &#45;3&#45;&gt;3 -->
<g id="edge43" class="edge">
<title>&#45;3&#45;&gt;3</title>
<path fill="none" stroke="green" stroke-width="0.22" d="M137.67,-182.27C148.83,-156.89 180.94,-83.78 197.15,-46.89"/>
<polygon fill="green" stroke="green" stroke-width="0.22" points="200.32,-48.38 201.14,-37.81 193.91,-45.56 200.32,-48.38"/>
</g>
<!-- &#45;3&#45;&gt;40 -->
<g id="edge4" class="edge">
<title>&#45;3&#45;&gt;40</title>
<path fill="none" stroke="red" stroke-width="0.11" d="M140.35,-182.21C144.14,-177.53 149.24,-172 154.75,-168.17 192.45,-141.93 243.55,-124.7 274.22,-115.96"/>
<polygon fill="red" stroke="red" stroke-width="0.11" points="274.93,-119.39 283.64,-113.36 273.07,-112.64 274.93,-119.39"/>
</g>
<!-- &#45;3&#45;&gt;42 -->
<g id="edge5" class="edge">
<title>&#45;3&#45;&gt;42</title>
<path fill="none" stroke="red" stroke-width="0.39" d="M139.71,-182.22C143.45,-177.3 148.7,-171.54 154.75,-168.17 230.18,-126.07 262.93,-156.73 345.75,-132.17 355.96,-129.14 366.87,-124.9 376.31,-120.88"/>
<polygon fill="red" stroke="red" stroke-width="0.39" points="377.61,-124.13 385.35,-116.9 374.79,-117.72 377.61,-124.13"/>
</g>
<!-- &#45;4 -->
<g id="node4" class="node">
<title>&#45;4</title>
<polygon fill="lightgray" stroke="black" points="23.5,-201.83 0,-201.83 0,-182.58 23.5,-182.58 23.5,-201.83"/>
<text text-anchor="middle" x="11.75" y="-189.28" font-family="Times New Roman,serif" font-size="9.00">&#45;4</text>
</g>
<!-- &#45;4&#45;&gt;3 -->
<g id="edge42" class="edge">
<title>&#45;4&#45;&gt;3</title>
<path fill="none" stroke="red" stroke-width="0.37" d="M19.25,-182.4C23.13,-177.98 28.04,-172.64 32.75,-168.17 85.62,-117.92 153.78,-64.93 186.91,-39.86"/>
<polygon fill="red" stroke="red" stroke-width="0.37" points="188.96,-42.7 194.84,-33.89 184.75,-37.11 188.96,-42.7"/>
</g>
<!-- &#45;4&#45;&gt;40 -->
<g id="edge6" class="edge">
<title>&#45;4&#45;&gt;40</title>
<path fill="none" stroke="green" stroke-width="0.27" d="M17.75,-182.29C21.5,-177.39 26.75,-171.63 32.75,-168.17 111.33,-122.73 221.38,-112.22 272.54,-109.82"/>
<polygon fill="green" stroke="green" stroke-width="0.27" points="272.55,-113.32 282.4,-109.43 272.27,-106.33 272.55,-113.32"/>
</g>
<!-- &#45;4&#45;&gt;42 -->
<g id="edge7" class="edge">
<title>&#45;4&#45;&gt;42</title>
<path fill="none" stroke="green" stroke-width="0.19" d="M17.28,-182.52C21.01,-177.45 26.39,-171.42 32.75,-168.17 157.4,-104.36 210.16,-167.14 345.75,-132.17 356.18,-129.48 367.22,-125.25 376.73,-121.15"/>
<polygon fill="green" stroke="green" stroke-width="0.19" points="378.04,-124.4 385.72,-117.1 375.17,-118.01 378.04,-124.4"/>
</g>
<!-- &#45;5 -->
<g id="node5" class="node">
<title>&#45;5</title>
<polygon fill="lightgray" stroke="black" points="413.5,-201.83 390,-201.83 390,-182.58 413.5,-182.58 413.5,-201.83"/>
<text text-anchor="middle" x="401.75" y="-189.28" font-family="Times New Roman,serif" font-size="9.00">&#45;5</text>
</g>
<!-- &#45;5&#45;&gt;40 -->
<g id="edge8" class="edge">
<title>&#45;5&#45;&gt;40</title>
<path fill="none" stroke="green" stroke-width="0.41" d="M394.35,-182.29C390.49,-177.85 385.57,-172.52 380.75,-168.17 362.69,-151.88 340.27,-135.63 323.77,-124.32"/>
<polygon fill="green" stroke="green" stroke-width="0.41" points="326.02,-121.62 315.78,-118.92 322.1,-127.42 326.02,-121.62"/>
</g>
<!-- &#45;5&#45;&gt;42 -->
<g id="edge9" class="edge">
<title>&#45;5&#45;&gt;42</title>
<path fill="none" stroke="red" stroke-width="1.46" d="M401.75,-182.11C401.75,-171.61 401.75,-153.81 401.75,-138.42"/>
<polygon fill="red" stroke="red" stroke-width="1.46" points="405.25,-138.48 401.75,-128.48 398.25,-138.48 405.25,-138.48"/>
</g>
<!-- &#45;6 -->
<g id="node6" class="node">
<title>&#45;6</title>
<polygon fill="lightgray" stroke="black" points="497.5,-201.83 474,-201.83 474,-182.58 497.5,-182.58 497.5,-201.83"/>
<text text-anchor="middle" x="485.75" y="-189.28" font-family="Times New Roman,serif" font-size="9.00">&#45;6</text>
</g>
<!-- &#45;6&#45;&gt;40 -->
<g id="edge10" class="edge">
<title>&#45;6&#45;&gt;40</title>
<path fill="none" stroke="green" stroke-width="0.29" d="M479.21,-182.12C475.43,-177.42 470.33,-171.89 464.75,-168.17 452.98,-160.31 370.83,-132.41 327.45,-117.95"/>
<polygon fill="green" stroke="green" stroke-width="0.29" points="328.58,-114.64 317.99,-114.8 326.37,-121.28 328.58,-114.64"/>
</g>
<!-- 3144 -->
<g id="node22" class="node">
<title>3144</title>
<ellipse fill="white" stroke="black" cx="485.75" cy="-108.12" rx="24.04" ry="24.04"/>
<text text-anchor="middle" x="485.75" y="-105.2" font-family="Times New Roman,serif" font-size="9.00">3144</text>
</g>
<!-- &#45;6&#45;&gt;3144 -->
<g id="edge45" class="edge">
<title>&#45;6&#45;&gt;3144</title>
<path fill="none" stroke="red" stroke-width="0.58" d="M485.75,-182.11C485.75,-172.66 485.75,-157.31 485.75,-143.11"/>
<polygon fill="red" stroke="red" stroke-width="0.58" points="489.25,-143.48 485.75,-133.48 482.25,-143.48 489.25,-143.48"/>
</g>
<!-- &#45;6&#45;&gt;42 -->
<g id="edge11" class="edge">
<title>&#45;6&#45;&gt;42</title>
<path fill="none" stroke="red" stroke-width="0.31" stroke-dasharray="1,5" d="M478.13,-182.52C474.21,-178.14 469.31,-172.79 464.75,-168.17 450.94,-154.16 434.73,-138.99 422.21,-127.54"/>
<polygon fill="red" stroke="red" stroke-width="0.31" points="424.68,-125.06 414.93,-120.92 419.97,-130.24 424.68,-125.06"/>
</g>
<!-- &#45;7 -->
<g id="node7" class="node">
<title>&#45;7</title>
<polygon fill="lightgray" stroke="black" points="65.5,-201.83 42,-201.83 42,-182.58 65.5,-182.58 65.5,-201.83"/>
<text text-anchor="middle" x="53.75" y="-189.28" font-family="Times New Roman,serif" font-size="9.00">&#45;7</text>
</g>
<!-- &#45;7&#45;&gt;40 -->
<g id="edge12" class="edge">
<title>&#45;7&#45;&gt;40</title>
<path fill="none" stroke="green" stroke-width="0.23" d="M61.65,-182.43C66.45,-177.58 72.95,-171.82 79.75,-168.17 143.77,-133.77 229.18,-118.38 272.7,-112.4"/>
<polygon fill="green" stroke="green" stroke-width="0.23" points="273.02,-115.89 282.48,-111.12 272.11,-108.95 273.02,-115.89"/>
</g>
<!-- &#45;8 -->
<g id="node8" class="node">
<title>&#45;8</title>
<polygon fill="lightgray" stroke="black" points="597.5,-271.5 574,-271.5 574,-252.25 597.5,-252.25 597.5,-271.5"/>
<text text-anchor="middle" x="585.75" y="-258.95" font-family="Times New Roman,serif" font-size="9.00">&#45;8</text>
</g>
<!-- &#45;8&#45;&gt;40 -->
<g id="edge13" class="edge">
<title>&#45;8&#45;&gt;40</title>
<path fill="none" stroke="red" stroke-width="0.5" stroke-dasharray="1,5" d="M573.56,-260.68C502.59,-259.43 144.74,-251.4 112.75,-216.25 98.37,-200.44 100.1,-185.39 112.75,-168.17 149.64,-117.92 229.26,-109.29 272.09,-108.49"/>
<polygon fill="red" stroke="red" stroke-width="0.5" points="271.9,-111.99 281.88,-108.44 271.87,-104.99 271.9,-111.99"/>
</g>
<!-- &#45;8&#45;&gt;42 -->
<g id="edge14" class="edge">
<title>&#45;8&#45;&gt;42</title>
<path fill="none" stroke="red" stroke-width="0.31" stroke-dasharray="1,5" d="M597.66,-260.64C622.88,-259.42 681.4,-252.62 706.75,-216.25 718.97,-198.72 720.76,-184.3 706.75,-168.17 669.37,-125.12 507.5,-148.06 452.75,-132.17 443.86,-129.59 434.53,-125.73 426.31,-121.92"/>
<polygon fill="red" stroke="red" stroke-width="0.31" points="427.89,-118.79 417.37,-117.57 424.83,-125.09 427.89,-118.79"/>
</g>
<!-- 4328 -->
<g id="node24" class="node">
<title>4328</title>
<ellipse fill="white" stroke="black" cx="585.75" cy="-192.21" rx="24.04" ry="24.04"/>
<text text-anchor="middle" x="585.75" y="-189.28" font-family="Times New Roman,serif" font-size="9.00">4328</text>
</g>
<!-- &#45;8&#45;&gt;4328 -->
<g id="edge49" class="edge">
<title>&#45;8&#45;&gt;4328</title>
<path fill="none" stroke="green" stroke-width="0.36" d="M585.75,-252.03C585.75,-245.52 585.75,-236.23 585.75,-226.94"/>
<polygon fill="green" stroke="green" stroke-width="0.36" points="589.25,-227.17 585.75,-217.17 582.25,-227.17 589.25,-227.17"/>
</g>
<!-- &#45;9 -->
<g id="node9" class="node">
<title>&#45;9</title>
<polygon fill="lightgray" stroke="black" points="455.5,-201.83 432,-201.83 432,-182.58 455.5,-182.58 455.5,-201.83"/>
<text text-anchor="middle" x="443.75" y="-189.28" font-family="Times New Roman,serif" font-size="9.00">&#45;9</text>
</g>
<!-- &#45;9&#45;&gt;40 -->
<g id="edge15" class="edge">
<title>&#45;9&#45;&gt;40</title>
<path fill="none" stroke="green" stroke-width="0.11" stroke-dasharray="1,5" d="M437.05,-182.35C433.22,-177.71 428.13,-172.18 422.75,-168.17 392.62,-145.68 352.57,-128.26 326.73,-118.34"/>
<polygon fill="green" stroke="green" stroke-width="0.11" points="327.99,-115.08 317.4,-114.86 325.54,-121.64 327.99,-115.08"/>
</g>
<!-- &#45;9&#45;&gt;42 -->
<g id="edge16" class="edge">
<title>&#45;9&#45;&gt;42</title>
<path fill="none" stroke="green" stroke-width="0.46" d="M439.09,-182.11C433.19,-170.56 422.76,-150.19 414.43,-133.9"/>
<polygon fill="green" stroke="green" stroke-width="0.46" points="417.55,-132.33 409.88,-125.02 411.32,-135.52 417.55,-132.33"/>
</g>
<!-- &#45;10 -->
<g id="node10" class="node">
<title>&#45;10</title>
<polygon fill="lightgray" stroke="black" points="655.75,-201.83 627.75,-201.83 627.75,-182.58 655.75,-182.58 655.75,-201.83"/>
<text text-anchor="middle" x="641.75" y="-189.28" font-family="Times New Roman,serif" font-size="9.00">&#45;10</text>
</g>
<!-- &#45;10&#45;&gt;40 -->
<g id="edge17" class="edge">
<title>&#45;10&#45;&gt;40</title>
<path fill="none" stroke="green" stroke-width="0.3" d="M635.1,-182.13C630.96,-177.18 625.21,-171.42 618.75,-168.17 520.84,-118.87 481.63,-156.53 374.75,-132.17 358.6,-128.48 340.87,-123.01 326.81,-118.33"/>
<polygon fill="green" stroke="green" stroke-width="0.3" points="328.32,-115.15 317.73,-115.24 326.07,-121.77 328.32,-115.15"/>
</g>
<!-- &#45;10&#45;&gt;42 -->
<g id="edge18" class="edge">
<title>&#45;10&#45;&gt;42</title>
<path fill="none" stroke="green" stroke-width="0.28" d="M635.01,-182.29C630.85,-177.4 625.1,-171.63 618.75,-168.17 552.5,-131.98 524.44,-155.84 452.75,-132.17 443.96,-129.26 434.65,-125.33 426.42,-121.54"/>
<polygon fill="green" stroke="green" stroke-width="0.28" points="427.95,-118.39 417.42,-117.24 424.94,-124.7 427.95,-118.39"/>
</g>
<!-- 3227 -->
<g id="node27" class="node">
<title>3227</title>
<ellipse fill="white" stroke="black" cx="641.75" cy="-108.12" rx="24.04" ry="24.04"/>
<text text-anchor="middle" x="641.75" y="-105.2" font-family="Times New Roman,serif" font-size="9.00">3227</text>
</g>
<!-- &#45;10&#45;&gt;3227 -->
<g id="edge46" class="edge">
<title>&#45;10&#45;&gt;3227</title>
<path fill="none" stroke="green" stroke-width="0.13" d="M641.75,-182.11C641.75,-172.57 641.75,-157.01 641.75,-142.7"/>
<polygon fill="green" stroke="green" stroke-width="0.13" points="645.25,-142.8 641.75,-132.8 638.25,-142.8 645.25,-142.8"/>
</g>
<!-- &#45;11 -->
<g id="node11" class="node">
<title>&#45;11</title>
<polygon fill="lightgray" stroke="black" points="237.75,-201.83 209.75,-201.83 209.75,-182.58 237.75,-182.58 237.75,-201.83"/>
<text text-anchor="middle" x="223.75" y="-189.28" font-family="Times New Roman,serif" font-size="9.00">&#45;11</text>
</g>
<!-- &#45;11&#45;&gt;40 -->
<g id="edge19" class="edge">
<title>&#45;11&#45;&gt;40</title>
<path fill="none" stroke="red" stroke-width="0.2" stroke-dasharray="1,5" d="M232.28,-182.11C244.24,-169.37 266.27,-145.88 282.12,-128.98"/>
<polygon fill="red" stroke="red" stroke-width="0.2" points="284.41,-131.66 288.7,-121.97 279.31,-126.87 284.41,-131.66"/>
</g>
<!-- &#45;11&#45;&gt;42 -->
<g id="edge20" class="edge">
<title>&#45;11&#45;&gt;42</title>
<path fill="none" stroke="green" stroke-width="0.81" d="M231.08,-182.15C235.26,-177.46 240.84,-171.93 246.75,-168.17 286.23,-143 302.09,-149.08 345.75,-132.17 355.47,-128.4 366.07,-124.09 375.4,-120.23"/>
<polygon fill="green" stroke="green" stroke-width="0.81" points="376.64,-123.51 384.52,-116.43 373.94,-117.05 376.64,-123.51"/>
</g>
<!-- &#45;12 -->
<g id="node12" class="node">
<title>&#45;12</title>
<polygon fill="lightgray" stroke="black" points="191.75,-201.83 163.75,-201.83 163.75,-182.58 191.75,-182.58 191.75,-201.83"/>
<text text-anchor="middle" x="177.75" y="-189.28" font-family="Times New Roman,serif" font-size="9.00">&#45;12</text>
</g>
<!-- &#45;12&#45;&gt;40 -->
<g id="edge21" class="edge">
<title>&#45;12&#45;&gt;40</title>
<path fill="none" stroke="green" stroke-width="0.25" d="M185.79,-182.13C190,-177.65 195.39,-172.32 200.75,-168.17 224.68,-149.6 254.95,-132.5 275.89,-121.53"/>
<polygon fill="green" stroke="green" stroke-width="0.25" points="277.45,-124.67 284.73,-116.97 274.24,-118.44 277.45,-124.67"/>
</g>
<!-- &#45;13 -->
<g id="node13" class="node">
<title>&#45;13</title>
<polygon fill="lightgray" stroke="black" points="283.75,-201.83 255.75,-201.83 255.75,-182.58 283.75,-182.58 283.75,-201.83"/>
<text text-anchor="middle" x="269.75" y="-189.28" font-family="Times New Roman,serif" font-size="9.00">&#45;13</text>
</g>
<!-- &#45;13&#45;&gt;40 -->
<g id="edge22" class="edge">
<title>&#45;13&#45;&gt;40</title>
<path fill="none" stroke="red" stroke-width="0.25" stroke-dasharray="1,5" d="M273.19,-182.11C277.49,-170.7 285.06,-150.68 291.17,-134.49"/>
<polygon fill="red" stroke="red" stroke-width="0.25" points="294.36,-135.96 294.62,-125.37 287.81,-133.48 294.36,-135.96"/>
</g>
<!-- &#45;13&#45;&gt;42 -->
<g id="edge23" class="edge">
<title>&#45;13&#45;&gt;42</title>
<path fill="none" stroke="red" stroke-width="0.21" d="M277.31,-182.49C281.56,-177.9 287.13,-172.36 292.75,-168.17 319.34,-148.31 353.44,-130.96 376.36,-120.29"/>
<polygon fill="red" stroke="red" stroke-width="0.21" points="377.8,-123.48 385.45,-116.14 374.9,-117.11 377.8,-123.48"/>
</g>
<!-- &#45;14 -->
<g id="node14" class="node">
<title>&#45;14</title>
<polygon fill="lightgray" stroke="black" points="543.75,-201.83 515.75,-201.83 515.75,-182.58 543.75,-182.58 543.75,-201.83"/>
<text text-anchor="middle" x="529.75" y="-189.28" font-family="Times New Roman,serif" font-size="9.00">&#45;14</text>
</g>
<!-- &#45;14&#45;&gt;42 -->
<g id="edge24" class="edge">
<title>&#45;14&#45;&gt;42</title>
<path fill="none" stroke="green" stroke-width="0.21" stroke-dasharray="1,5" d="M522.16,-182.53C517.9,-177.94 512.33,-172.4 506.75,-168.17 481.36,-148.89 448.97,-131.64 426.93,-120.83"/>
<polygon fill="green" stroke="green" stroke-width="0.21" points="428.69,-117.79 418.16,-116.61 425.65,-124.1 428.69,-117.79"/>
</g>
<!-- &#45;15 -->
<g id="node15" class="node">
<title>&#45;15</title>
<polygon fill="lightgray" stroke="black" points="781.75,-201.83 753.75,-201.83 753.75,-182.58 781.75,-182.58 781.75,-201.83"/>
<text text-anchor="middle" x="767.75" y="-189.28" font-family="Times New Roman,serif" font-size="9.00">&#45;15</text>
</g>
<!-- &#45;15&#45;&gt;40 -->
<g id="edge25" class="edge">
<title>&#45;15&#45;&gt;40</title>
<path fill="none" stroke="red" stroke-width="0.38" stroke-dasharray="1,5" d="M753.53,-184.66C741.37,-179.35 723.27,-172.11 706.75,-168.17 562.39,-133.67 520.06,-162.37 374.75,-132.17 358.69,-128.83 341.14,-123.44 327.17,-118.72"/>
<polygon fill="red" stroke="red" stroke-width="0.38" points="328.4,-115.44 317.8,-115.47 326.1,-122.05 328.4,-115.44"/>
</g>
<!-- &#45;15&#45;&gt;42 -->
<g id="edge26" class="edge">
<title>&#45;15&#45;&gt;42</title>
<path fill="none" stroke="red" stroke-width="0.15" d="M759.78,-182.54C754.59,-177.48 747.38,-171.45 739.75,-168.17 621.68,-117.32 576.49,-167.02 452.75,-132.17 443.74,-129.63 434.29,-125.74 426.01,-121.87"/>
<polygon fill="red" stroke="red" stroke-width="0.15" points="427.64,-118.78 417.12,-117.53 424.57,-125.07 427.64,-118.78"/>
</g>
<!-- 2926 -->
<g id="node25" class="node">
<title>2926</title>
<ellipse fill="white" stroke="black" cx="767.75" cy="-24.04" rx="24.04" ry="24.04"/>
<text text-anchor="middle" x="767.75" y="-21.12" font-family="Times New Roman,serif" font-size="9.00">2926</text>
</g>
<!-- &#45;15&#45;&gt;2926 -->
<g id="edge44" class="edge">
<title>&#45;15&#45;&gt;2926</title>
<path fill="none" stroke="red" stroke-width="0.11" stroke-dasharray="1,5" d="M766.38,-182.43C764.66,-170.93 761.81,-150.1 760.75,-132.17 759.49,-110.83 759.49,-105.42 760.75,-84.08 761.25,-75.66 762.14,-66.59 763.13,-58.16"/>
<polygon fill="red" stroke="red" stroke-width="0.11" points="766.58,-58.77 764.34,-48.42 759.63,-57.91 766.58,-58.77"/>
</g>
<!-- 3671 -->
<g id="node26" class="node">
<title>3671</title>
<ellipse fill="white" stroke="black" cx="793.75" cy="-108.12" rx="24.04" ry="24.04"/>
<text text-anchor="middle" x="793.75" y="-105.2" font-family="Times New Roman,serif" font-size="9.00">3671</text>
</g>
<!-- &#45;15&#45;&gt;3671 -->
<g id="edge47" class="edge">
<title>&#45;15&#45;&gt;3671</title>
<path fill="none" stroke="red" stroke-width="0.21" d="M770.63,-182.11C773.75,-172.27 778.89,-156.03 783.54,-141.37"/>
<polygon fill="red" stroke="red" stroke-width="0.21" points="786.86,-142.45 786.55,-131.86 780.19,-140.34 786.86,-142.45"/>
</g>
<!-- &#45;16 -->
<g id="node16" class="node">
<title>&#45;16</title>
<polygon fill="lightgray" stroke="black" points="329.75,-201.83 301.75,-201.83 301.75,-182.58 329.75,-182.58 329.75,-201.83"/>
<text text-anchor="middle" x="315.75" y="-189.28" font-family="Times New Roman,serif" font-size="9.00">&#45;16</text>
</g>
<!-- &#45;16&#45;&gt;40 -->
<g id="edge27" class="edge">
<title>&#45;16&#45;&gt;40</title>
<path fill="none" stroke="green" stroke-width="0.24" d="M314.09,-182.11C312.06,-171.02 308.54,-151.77 305.63,-135.83"/>
<polygon fill="green" stroke="green" stroke-width="0.24" points="309.13,-135.52 303.89,-126.31 302.25,-136.78 309.13,-135.52"/>
</g>
<!-- &#45;16&#45;&gt;42 -->
<g id="edge28" class="edge">
<title>&#45;16&#45;&gt;42</title>
<path fill="none" stroke="green" stroke-width="0.36" d="M324.64,-182.17C328.88,-177.89 334.04,-172.73 338.75,-168.17 352.88,-154.48 369.08,-139.3 381.52,-127.77"/>
<polygon fill="green" stroke="green" stroke-width="0.36" points="383.72,-130.49 388.68,-121.13 378.97,-125.36 383.72,-130.49"/>
</g>
<!-- 0 -->
<g id="node17" class="node">
<title>0</title>
<ellipse fill="lightblue" stroke="black" cx="365.75" cy="-24.04" rx="14.5" ry="14.5"/>
<text text-anchor="middle" x="365.75" y="-21.12" font-family="Times New Roman,serif" font-size="9.00">0</text>
</g>
<!-- 0&#45;&gt;0 -->
<g id="edge36" class="edge">
<title>0&#45;&gt;0</title>
<path fill="none" stroke="red" stroke-width="1.38" d="M375.06,-35.62C385.8,-43.83 398.25,-39.97 398.25,-24.04 398.25,-13.59 392.89,-8.33 386.17,-8.28"/>
<polygon fill="red" stroke="red" stroke-width="1.38" points="385.14,-4.92 377.02,-11.73 387.61,-11.47 385.14,-4.92"/>
</g>
<!-- 1 -->
<g id="node18" class="node">
<title>1</title>
<ellipse fill="lightblue" stroke="black" cx="300.75" cy="-24.04" rx="14.5" ry="14.5"/>
<text text-anchor="middle" x="300.75" y="-21.12" font-family="Times New Roman,serif" font-size="9.00">1</text>
</g>
<!-- 1&#45;&gt;1 -->
<g id="edge37" class="edge">
<title>1&#45;&gt;1</title>
<path fill="none" stroke="red" stroke-width="1.16" d="M310.06,-35.62C320.8,-43.83 333.25,-39.97 333.25,-24.04 333.25,-13.34 327.63,-8.09 320.69,-8.28"/>
<polygon fill="red" stroke="red" stroke-width="1.16" points="319.72,-4.9 311.7,-11.82 322.29,-11.41 319.72,-4.9"/>
</g>
<!-- 2 -->
<g id="node19" class="node">
<title>2</title>
<ellipse fill="lightblue" stroke="black" cx="430.75" cy="-24.04" rx="14.5" ry="14.5"/>
<text text-anchor="middle" x="430.75" y="-21.12" font-family="Times New Roman,serif" font-size="9.00">2</text>
</g>
<!-- 2&#45;&gt;2 -->
<g id="edge38" class="edge">
<title>2&#45;&gt;2</title>
<path fill="none" stroke="red" stroke-width="1.36" d="M440.06,-35.62C450.8,-43.83 463.25,-39.97 463.25,-24.04 463.25,-13.59 457.89,-8.33 451.17,-8.28"/>
<polygon fill="red" stroke="red" stroke-width="1.36" points="450.11,-4.94 441.99,-11.74 452.58,-11.48 450.11,-4.94"/>
</g>
<!-- 3&#45;&gt;3 -->
<g id="edge39" class="edge">
<title>3&#45;&gt;3</title>
<path fill="none" stroke="red" stroke-width="0.65" d="M216.06,-35.62C226.8,-43.83 239.25,-39.97 239.25,-24.04 239.25,-13.09 233.37,-7.84 226.2,-8.3"/>
<polygon fill="red" stroke="red" stroke-width="0.65" points="224.89,-5.06 216.97,-12.09 227.55,-11.53 224.89,-5.06"/>
</g>
<!-- 40&#45;&gt;0 -->
<g id="edge29" class="edge">
<title>40&#45;&gt;0</title>
<path fill="none" stroke="green" stroke-width="0.35" d="M311.48,-93.57C322.21,-80.02 338.8,-59.07 350.82,-43.9"/>
<polygon fill="green" stroke="green" stroke-width="0.35" points="353.49,-46.17 356.95,-36.15 348,-41.82 353.49,-46.17"/>
</g>
<!-- 40&#45;&gt;1 -->
<g id="edge30" class="edge">
<title>40&#45;&gt;1</title>
<path fill="none" stroke="red" stroke-width="0.15" stroke-dasharray="1,5" d="M300.75,-90.12C300.75,-78.19 300.75,-62.07 300.75,-48.86"/>
<polygon fill="red" stroke="red" stroke-width="0.15" points="304.25,-49.25 300.75,-39.25 297.25,-49.25 304.25,-49.25"/>
</g>
<!-- 40&#45;&gt;3 -->
<g id="edge31" class="edge">
<title>40&#45;&gt;3</title>
<path fill="none" stroke="green" stroke-width="0.6" d="M287.68,-95.71C271.55,-81.63 244.01,-57.58 225.6,-41.5"/>
<polygon fill="green" stroke="green" stroke-width="0.6" points="227.9,-38.87 218.07,-34.93 223.3,-44.14 227.9,-38.87"/>
</g>
<!-- 40&#45;&gt;40 -->
<g id="edge40" class="edge">
<title>40&#45;&gt;40</title>
<path fill="none" stroke="green" stroke-width="0.44" d="M313.18,-121.08C324.41,-127.39 336.43,-123.07 336.43,-108.12 336.43,-97.62 330.48,-92.36 323.05,-92.36"/>
<polygon fill="green" stroke="green" stroke-width="0.44" points="322.49,-88.88 313.83,-94.98 324.4,-95.61 322.49,-88.88"/>
</g>
<!-- 42&#45;&gt;0 -->
<g id="edge32" class="edge">
<title>42&#45;&gt;0</title>
<path fill="none" stroke="green" stroke-width="0.25" d="M394.98,-91.69C389.47,-79.13 381.63,-61.25 375.46,-47.17"/>
<polygon fill="green" stroke="green" stroke-width="0.25" points="378.69,-45.83 371.47,-38.07 372.28,-48.64 378.69,-45.83"/>
</g>
<!-- 42&#45;&gt;1 -->
<g id="edge33" class="edge">
<title>42&#45;&gt;1</title>
<path fill="none" stroke="red" stroke-width="0.16" d="M388.55,-96.39C370.95,-82.1 339.72,-56.71 319.64,-40.39"/>
<polygon fill="red" stroke="red" stroke-width="0.16" points="321.95,-37.76 311.98,-34.17 317.53,-43.19 321.95,-37.76"/>
</g>
<!-- 42&#45;&gt;2 -->
<g id="edge34" class="edge">
<title>42&#45;&gt;2</title>
<path fill="none" stroke="green" stroke-width="0.2" d="M407.48,-90.91C411.82,-78.62 417.84,-61.58 422.67,-47.91"/>
<polygon fill="green" stroke="green" stroke-width="0.2" points="425.95,-49.13 425.98,-38.54 419.35,-46.8 425.95,-49.13"/>
</g>
<!-- 42&#45;&gt;3 -->
<g id="edge35" class="edge">
<title>42&#45;&gt;3</title>
<path fill="none" stroke="red" stroke-width="0.67" d="M385.46,-100.27C350.9,-85.72 270.15,-51.73 230.11,-34.88"/>
<polygon fill="red" stroke="red" stroke-width="0.67" points="231.48,-31.65 220.91,-31 228.77,-38.11 231.48,-31.65"/>
</g>
<!-- 42&#45;&gt;42 -->
<g id="edge41" class="edge">
<title>42&#45;&gt;42</title>
<path fill="none" stroke="red" stroke-width="0.13" d="M414.18,-121.08C425.41,-127.39 437.43,-123.07 437.43,-108.12 437.43,-97.38 431.22,-92.13 423.56,-92.37"/>
<polygon fill="red" stroke="red" stroke-width="0.13" points="422.95,-88.89 414.37,-95.11 424.95,-95.6 422.95,-88.89"/>
</g>
<!-- 4328&#45;&gt;42 -->
<g id="edge50" class="edge">
<title>4328&#45;&gt;42</title>
<path fill="none" stroke="green" stroke-width="0.16" d="M567.09,-176.91C562.54,-173.79 557.59,-170.67 552.75,-168.17 510.8,-146.46 496.53,-149.9 452.75,-132.17 444.21,-128.71 434.99,-124.64 426.77,-120.9"/>
<polygon fill="green" stroke="green" stroke-width="0.16" points="428.45,-117.82 417.9,-116.82 425.52,-124.18 428.45,-117.82"/>
</g>
<!-- 3671&#45;&gt;2926 -->
<g id="edge48" class="edge">
<title>3671&#45;&gt;2926</title>
<path fill="none" stroke="green" stroke-width="0.31" d="M786.65,-84.7C783.98,-76.28 780.89,-66.54 778,-57.4"/>
<polygon fill="green" stroke="green" stroke-width="0.31" points="781.34,-56.37 774.99,-47.89 774.67,-58.48 781.34,-56.37"/>
</g>
</g>
</svg>
