<?xml version="1.0" encoding="UTF-8" standalone="no"?>
<!DOCTYPE svg PUBLIC "-//W3C//DTD SVG 1.1//EN"
 "http://www.w3.org/Graphics/SVG/1.1/DTD/svg11.dtd">
<!-- Generated by graphviz version 9.0.0 (20230911.1827)
 -->
<!-- Pages: 1 -->
<svg width="690pt" height="92pt"
 viewBox="0.00 0.00 689.75 92.24" xmlns="http://www.w3.org/2000/svg" xmlns:xlink="http://www.w3.org/1999/xlink">
<g id="graph0" class="graph" transform="scale(1 1) rotate(0) translate(4 88.24)">
<polygon fill="white" stroke="none" points="-4,4 -4,-88.24 685.75,-88.24 685.75,4 -4,4"/>
<!-- &#45;1 -->
<g id="node1" class="node">
<title>&#45;1</title>
<polygon fill="lightgray" stroke="black" points="23.5,-84.24 0,-84.24 0,-64.99 23.5,-64.99 23.5,-84.24"/>
<text text-anchor="middle" x="11.75" y="-71.69" font-family="Times New Roman,serif" font-size="9.00">&#45;1</text>
</g>
<!-- 0 -->
<g id="node17" class="node">
<title>0</title>
<ellipse fill="lightblue" stroke="black" cx="99.75" cy="-14.5" rx="14.5" ry="14.5"/>
<text text-anchor="middle" x="99.75" y="-11.57" font-family="Times New Roman,serif" font-size="9.00">0</text>
</g>
<!-- &#45;1&#45;&gt;0 -->
<g id="edge37" class="edge">
<title>&#45;1&#45;&gt;0</title>
<path fill="none" stroke="green" stroke-width="0.67" d="M23.99,-65.53C38.25,-56.11 62.05,-40.39 79.18,-29.08"/>
<polygon fill="green" stroke="green" stroke-width="0.67" points="80.64,-32.31 87.05,-23.88 76.78,-26.47 80.64,-32.31"/>
</g>
<!-- &#45;2 -->
<g id="node2" class="node">
<title>&#45;2</title>
<polygon fill="lightgray" stroke="black" points="111.5,-84.24 88,-84.24 88,-64.99 111.5,-64.99 111.5,-84.24"/>
<text text-anchor="middle" x="99.75" y="-71.69" font-family="Times New Roman,serif" font-size="9.00">&#45;2</text>
</g>
<!-- &#45;2&#45;&gt;0 -->
<g id="edge20" class="edge">
<title>&#45;2&#45;&gt;0</title>
<path fill="none" stroke="green" stroke-width="0.34" stroke-dasharray="1,5" d="M99.75,-64.54C99.75,-57.82 99.75,-48.34 99.75,-39.5"/>
<polygon fill="green" stroke="green" stroke-width="0.34" points="103.25,-39.78 99.75,-29.78 96.25,-39.78 103.25,-39.78"/>
</g>
<!-- 2 -->
<g id="node19" class="node">
<title>2</title>
<ellipse fill="lightblue" stroke="black" cx="251.75" cy="-14.5" rx="14.5" ry="14.5"/>
<text text-anchor="middle" x="251.75" y="-11.57" font-family="Times New Roman,serif" font-size="9.00">2</text>
</g>
<!-- &#45;2&#45;&gt;2 -->
<g id="edge10" class="edge">
<title>&#45;2&#45;&gt;2</title>
<path fill="none" stroke="red" stroke-width="0.38" stroke-dasharray="1,5" d="M111.69,-68.56C114.64,-67.36 117.8,-66.1 120.75,-64.99 167.34,-47.53 181.14,-48.88 226.75,-28.99 227.95,-28.47 229.16,-27.91 230.38,-27.33"/>
<polygon fill="red" stroke="red" stroke-width="0.38" points="231.69,-30.6 238.98,-22.91 228.48,-24.37 231.69,-30.6"/>
</g>
<!-- 5 -->
<g id="node22" class="node">
<title>5</title>
<ellipse fill="lightblue" stroke="black" cx="185.75" cy="-14.5" rx="14.5" ry="14.5"/>
<text text-anchor="middle" x="185.75" y="-11.57" font-family="Times New Roman,serif" font-size="9.00">5</text>
</g>
<!-- &#45;2&#45;&gt;5 -->
<g id="edge40" class="edge">
<title>&#45;2&#45;&gt;5</title>
<path fill="none" stroke="red" stroke-width="0.23" stroke-dasharray="1,5" d="M111.71,-65.53C125.57,-56.17 148.65,-40.57 165.36,-29.27"/>
<polygon fill="red" stroke="red" stroke-width="0.23" points="167.28,-32.2 173.61,-23.7 163.36,-26.4 167.28,-32.2"/>
</g>
<!-- &#45;3 -->
<g id="node3" class="node">
<title>&#45;3</title>
<polygon fill="lightgray" stroke="black" points="593.5,-84.24 570,-84.24 570,-64.99 593.5,-64.99 593.5,-84.24"/>
<text text-anchor="middle" x="581.75" y="-71.69" font-family="Times New Roman,serif" font-size="9.00">&#45;3</text>
</g>
<!-- 3 -->
<g id="node20" class="node">
<title>3</title>
<ellipse fill="lightblue" stroke="black" cx="497.75" cy="-14.5" rx="14.5" ry="14.5"/>
<text text-anchor="middle" x="497.75" y="-11.57" font-family="Times New Roman,serif" font-size="9.00">3</text>
</g>
<!-- &#45;3&#45;&gt;3 -->
<g id="edge11" class="edge">
<title>&#45;3&#45;&gt;3</title>
<path fill="none" stroke="green" stroke-width="0.12" stroke-dasharray="1,5" d="M569.71,-65.29C556.16,-55.91 533.93,-40.53 517.76,-29.34"/>
<polygon fill="green" stroke="green" stroke-width="0.12" points="519.86,-26.54 509.64,-23.73 515.88,-32.29 519.86,-26.54"/>
</g>
<!-- &#45;4 -->
<g id="node4" class="node">
<title>&#45;4</title>
<polygon fill="lightgray" stroke="black" points="551.5,-84.24 528,-84.24 528,-64.99 551.5,-64.99 551.5,-84.24"/>
<text text-anchor="middle" x="539.75" y="-71.69" font-family="Times New Roman,serif" font-size="9.00">&#45;4</text>
</g>
<!-- 1 -->
<g id="node18" class="node">
<title>1</title>
<ellipse fill="lightblue" stroke="black" cx="623.75" cy="-14.5" rx="14.5" ry="14.5"/>
<text text-anchor="middle" x="623.75" y="-11.57" font-family="Times New Roman,serif" font-size="9.00">1</text>
</g>
<!-- &#45;4&#45;&gt;1 -->
<g id="edge17" class="edge">
<title>&#45;4&#45;&gt;1</title>
<path fill="none" stroke="red" stroke-width="0.17" d="M551.79,-65.29C565.34,-55.91 587.57,-40.53 603.74,-29.34"/>
<polygon fill="red" stroke="red" stroke-width="0.17" points="605.56,-32.34 611.79,-23.77 601.58,-26.58 605.56,-32.34"/>
</g>
<!-- &#45;4&#45;&gt;2 -->
<g id="edge2" class="edge">
<title>&#45;4&#45;&gt;2</title>
<path fill="none" stroke="green" stroke-width="0.17" stroke-dasharray="1,5" d="M527.92,-68.2C524.97,-67.01 521.79,-65.85 518.75,-64.99 421.26,-37.57 392.24,-52.55 293.75,-28.99 287.55,-27.51 280.93,-25.56 274.84,-23.61"/>
<polygon fill="green" stroke="green" stroke-width="0.17" points="276.06,-20.33 265.47,-20.49 273.85,-26.97 276.06,-20.33"/>
</g>
<!-- &#45;4&#45;&gt;3 -->
<g id="edge39" class="edge">
<title>&#45;4&#45;&gt;3</title>
<path fill="none" stroke="red" stroke-width="0.14" d="M533.19,-64.54C527.48,-56.63 519.01,-44.91 511.78,-34.91"/>
<polygon fill="red" stroke="red" stroke-width="0.14" points="514.66,-32.92 505.97,-26.87 508.99,-37.02 514.66,-32.92"/>
</g>
<!-- 6 -->
<g id="node23" class="node">
<title>6</title>
<ellipse fill="lightblue" stroke="black" cx="450.75" cy="-14.5" rx="14.5" ry="14.5"/>
<text text-anchor="middle" x="450.75" y="-11.57" font-family="Times New Roman,serif" font-size="9.00">6</text>
</g>
<!-- &#45;4&#45;&gt;6 -->
<g id="edge5" class="edge">
<title>&#45;4&#45;&gt;6</title>
<path fill="none" stroke="green" stroke-width="0.57" d="M527.75,-65.78C513.33,-56.37 488.92,-40.42 471.45,-29.01"/>
<polygon fill="green" stroke="green" stroke-width="0.57" points="473.57,-26.22 463.29,-23.68 469.75,-32.08 473.57,-26.22"/>
</g>
<!-- &#45;5 -->
<g id="node5" class="node">
<title>&#45;5</title>
<polygon fill="lightgray" stroke="black" points="509.5,-84.24 486,-84.24 486,-64.99 509.5,-64.99 509.5,-84.24"/>
<text text-anchor="middle" x="497.75" y="-71.69" font-family="Times New Roman,serif" font-size="9.00">&#45;5</text>
</g>
<!-- &#45;5&#45;&gt;3 -->
<g id="edge3" class="edge">
<title>&#45;5&#45;&gt;3</title>
<path fill="none" stroke="green" stroke-width="0.45" d="M497.75,-64.54C497.75,-57.89 497.75,-48.54 497.75,-39.79"/>
<polygon fill="green" stroke="green" stroke-width="0.45" points="501.25,-39.95 497.75,-29.95 494.25,-39.95 501.25,-39.95"/>
</g>
<!-- &#45;5&#45;&gt;6 -->
<g id="edge23" class="edge">
<title>&#45;5&#45;&gt;6</title>
<path fill="none" stroke="green" stroke-width="0.27" stroke-dasharray="1,5" d="M490.41,-64.54C483.87,-56.45 474.11,-44.38 465.9,-34.23"/>
<polygon fill="green" stroke="green" stroke-width="0.27" points="468.75,-32.19 459.74,-26.61 463.31,-36.59 468.75,-32.19"/>
</g>
<!-- &#45;6 -->
<g id="node6" class="node">
<title>&#45;6</title>
<polygon fill="lightgray" stroke="black" points="329.5,-84.24 306,-84.24 306,-64.99 329.5,-64.99 329.5,-84.24"/>
<text text-anchor="middle" x="317.75" y="-71.69" font-family="Times New Roman,serif" font-size="9.00">&#45;6</text>
</g>
<!-- &#45;6&#45;&gt;2 -->
<g id="edge28" class="edge">
<title>&#45;6&#45;&gt;2</title>
<path fill="none" stroke="green" stroke-width="0.22" d="M307.44,-64.54C297.42,-55.72 282,-42.14 269.93,-31.5"/>
<polygon fill="green" stroke="green" stroke-width="0.22" points="272.28,-28.91 262.46,-24.93 267.65,-34.16 272.28,-28.91"/>
</g>
<!-- &#45;6&#45;&gt;3 -->
<g id="edge44" class="edge">
<title>&#45;6&#45;&gt;3</title>
<path fill="none" stroke="red" stroke-width="0.26" stroke-dasharray="1,5" d="M329.64,-68.42C332.59,-67.22 335.76,-66 338.75,-64.99 397.59,-45.15 416.23,-52.39 473.75,-28.99 474.77,-28.58 475.8,-28.13 476.83,-27.65"/>
<polygon fill="red" stroke="red" stroke-width="0.26" points="478.22,-30.87 485.48,-23.16 475,-24.66 478.22,-30.87"/>
</g>
<!-- 4 -->
<g id="node21" class="node">
<title>4</title>
<ellipse fill="lightblue" stroke="black" cx="363.75" cy="-14.5" rx="14.5" ry="14.5"/>
<text text-anchor="middle" x="363.75" y="-11.57" font-family="Times New Roman,serif" font-size="9.00">4</text>
</g>
<!-- &#45;6&#45;&gt;4 -->
<g id="edge43" class="edge">
<title>&#45;6&#45;&gt;4</title>
<path fill="none" stroke="red" stroke-width="0.3" stroke-dasharray="1,5" d="M324.94,-64.54C331.33,-56.45 340.89,-44.38 348.92,-34.23"/>
<polygon fill="red" stroke="red" stroke-width="0.3" points="351.47,-36.66 354.93,-26.64 345.98,-32.31 351.47,-36.66"/>
</g>
<!-- &#45;6&#45;&gt;5 -->
<g id="edge46" class="edge">
<title>&#45;6&#45;&gt;5</title>
<path fill="none" stroke="red" stroke-width="0.14" stroke-dasharray="1,5" d="M305.57,-68.25C283.42,-58.5 236.24,-37.73 208.14,-25.35"/>
<polygon fill="red" stroke="red" stroke-width="0.14" points="209.83,-22.28 199.27,-21.45 207.01,-28.68 209.83,-22.28"/>
</g>
<!-- 7 -->
<g id="node24" class="node">
<title>7</title>
<ellipse fill="lightblue" stroke="black" cx="316.75" cy="-14.5" rx="14.5" ry="14.5"/>
<text text-anchor="middle" x="316.75" y="-11.57" font-family="Times New Roman,serif" font-size="9.00">7</text>
</g>
<!-- &#45;6&#45;&gt;7 -->
<g id="edge32" class="edge">
<title>&#45;6&#45;&gt;7</title>
<path fill="none" stroke="green" stroke-width="0.43" stroke-dasharray="1,5" d="M317.59,-64.54C317.48,-57.89 317.32,-48.54 317.17,-39.79"/>
<polygon fill="green" stroke="green" stroke-width="0.43" points="320.67,-39.85 317,-29.91 313.67,-39.97 320.67,-39.85"/>
</g>
<!-- &#45;7 -->
<g id="node7" class="node">
<title>&#45;7</title>
<polygon fill="lightgray" stroke="black" points="241.5,-84.24 218,-84.24 218,-64.99 241.5,-64.99 241.5,-84.24"/>
<text text-anchor="middle" x="229.75" y="-71.69" font-family="Times New Roman,serif" font-size="9.00">&#45;7</text>
</g>
<!-- &#45;7&#45;&gt;2 -->
<g id="edge1" class="edge">
<title>&#45;7&#45;&gt;2</title>
<path fill="none" stroke="green" stroke-width="0.26" stroke-dasharray="1,5" d="M233.19,-64.54C235.89,-57.41 239.76,-47.17 243.27,-37.89"/>
<polygon fill="green" stroke="green" stroke-width="0.26" points="246.46,-39.35 246.73,-28.76 239.92,-36.87 246.46,-39.35"/>
</g>
<!-- &#45;7&#45;&gt;3 -->
<g id="edge30" class="edge">
<title>&#45;7&#45;&gt;3</title>
<path fill="none" stroke="green" stroke-width="1.43" d="M241.58,-68.21C244.53,-67.01 247.72,-65.85 250.75,-64.99 347.38,-37.74 378.97,-62.11 473.75,-28.99 474.27,-28.81 474.79,-28.62 475.31,-28.42"/>
<polygon fill="green" stroke="green" stroke-width="1.43" points="476.54,-31.71 483.99,-24.18 473.47,-25.42 476.54,-31.71"/>
</g>
<!-- &#45;7&#45;&gt;5 -->
<g id="edge38" class="edge">
<title>&#45;7&#45;&gt;5</title>
<path fill="none" stroke="red" stroke-width="0.13" stroke-dasharray="1,5" d="M222.88,-64.54C216.83,-56.55 207.84,-44.67 200.22,-34.61"/>
<polygon fill="red" stroke="red" stroke-width="0.13" points="203.17,-32.71 194.35,-26.85 197.59,-36.94 203.17,-32.71"/>
</g>
<!-- &#45;8 -->
<g id="node8" class="node">
<title>&#45;8</title>
<polygon fill="lightgray" stroke="black" points="153.5,-84.24 130,-84.24 130,-64.99 153.5,-64.99 153.5,-84.24"/>
<text text-anchor="middle" x="141.75" y="-71.69" font-family="Times New Roman,serif" font-size="9.00">&#45;8</text>
</g>
<!-- &#45;8&#45;&gt;0 -->
<g id="edge29" class="edge">
<title>&#45;8&#45;&gt;0</title>
<path fill="none" stroke="red" stroke-width="0.42" d="M135.19,-64.54C129.54,-56.71 121.18,-45.15 114,-35.21"/>
<polygon fill="red" stroke="red" stroke-width="0.42" points="116.92,-33.27 108.22,-27.22 111.24,-37.37 116.92,-33.27"/>
</g>
<!-- &#45;8&#45;&gt;5 -->
<g id="edge21" class="edge">
<title>&#45;8&#45;&gt;5</title>
<path fill="none" stroke="red" stroke-width="0.18" d="M148.62,-64.54C154.67,-56.55 163.66,-44.67 171.28,-34.61"/>
<polygon fill="red" stroke="red" stroke-width="0.18" points="173.85,-37.01 177.1,-26.92 168.27,-32.78 173.85,-37.01"/>
</g>
<!-- &#45;8&#45;&gt;6 -->
<g id="edge8" class="edge">
<title>&#45;8&#45;&gt;6</title>
<path fill="none" stroke="green" stroke-width="0.41" stroke-dasharray="1,5" d="M153.57,-68.18C156.52,-66.98 159.71,-65.83 162.75,-64.99 267.59,-36.12 298.55,-52.35 404.75,-28.99 412.09,-27.38 419.98,-25.22 427.11,-23.11"/>
<polygon fill="green" stroke="green" stroke-width="0.41" points="428.07,-26.48 436.6,-20.19 426.01,-19.78 428.07,-26.48"/>
</g>
<!-- &#45;9 -->
<g id="node9" class="node">
<title>&#45;9</title>
<polygon fill="lightgray" stroke="black" points="635.5,-84.24 612,-84.24 612,-64.99 635.5,-64.99 635.5,-84.24"/>
<text text-anchor="middle" x="623.75" y="-71.69" font-family="Times New Roman,serif" font-size="9.00">&#45;9</text>
</g>
<!-- &#45;9&#45;&gt;1 -->
<g id="edge14" class="edge">
<title>&#45;9&#45;&gt;1</title>
<path fill="none" stroke="red" stroke-width="1.17" d="M623.75,-64.54C623.75,-58.19 623.75,-49.37 623.75,-40.96"/>
<polygon fill="red" stroke="red" stroke-width="1.17" points="627.25,-41.04 623.75,-31.04 620.25,-41.04 627.25,-41.04"/>
</g>
<!-- &#45;9&#45;&gt;4 -->
<g id="edge12" class="edge">
<title>&#45;9&#45;&gt;4</title>
<path fill="none" stroke="red" stroke-width="0.18" stroke-dasharray="1,5" d="M611.9,-68.3C608.95,-67.1 605.77,-65.91 602.75,-64.99 526.8,-41.81 505.49,-45.18 427.75,-28.99 414.51,-26.23 399.73,-23.12 387.72,-20.58"/>
<polygon fill="red" stroke="red" stroke-width="0.18" points="388.75,-17.22 378.25,-18.57 387.3,-24.07 388.75,-17.22"/>
</g>
<!-- &#45;10 -->
<g id="node10" class="node">
<title>&#45;10</title>
<polygon fill="lightgray" stroke="black" points="681.75,-84.24 653.75,-84.24 653.75,-64.99 681.75,-64.99 681.75,-84.24"/>
<text text-anchor="middle" x="667.75" y="-71.69" font-family="Times New Roman,serif" font-size="9.00">&#45;10</text>
</g>
<!-- &#45;10&#45;&gt;1 -->
<g id="edge47" class="edge">
<title>&#45;10&#45;&gt;1</title>
<path fill="none" stroke="green" stroke-width="0.4" d="M660.88,-64.54C654.89,-56.63 646.02,-44.91 638.45,-34.91"/>
<polygon fill="green" stroke="green" stroke-width="0.4" points="641.42,-33.04 632.6,-27.18 635.84,-37.27 641.42,-33.04"/>
</g>
<!-- &#45;10&#45;&gt;3 -->
<g id="edge25" class="edge">
<title>&#45;10&#45;&gt;3</title>
<path fill="none" stroke="red" stroke-width="0.78" d="M653.67,-68.25C650.73,-67.15 647.64,-66.02 644.75,-64.99 601.75,-49.69 551.25,-32.95 522.03,-23.39"/>
<polygon fill="red" stroke="red" stroke-width="0.78" points="523.3,-20.12 512.7,-20.35 521.12,-26.78 523.3,-20.12"/>
</g>
<!-- &#45;11 -->
<g id="node11" class="node">
<title>&#45;11</title>
<polygon fill="lightgray" stroke="black" points="287.75,-84.24 259.75,-84.24 259.75,-64.99 287.75,-64.99 287.75,-84.24"/>
<text text-anchor="middle" x="273.75" y="-71.69" font-family="Times New Roman,serif" font-size="9.00">&#45;11</text>
</g>
<!-- &#45;11&#45;&gt;0 -->
<g id="edge19" class="edge">
<title>&#45;11&#45;&gt;0</title>
<path fill="none" stroke="green" stroke-width="0.96" d="M259.67,-68.23C256.73,-67.14 253.65,-66.01 250.75,-64.99 206.4,-49.42 154.2,-32.65 124.24,-23.17"/>
<polygon fill="green" stroke="green" stroke-width="0.96" points="125.53,-19.91 114.94,-20.24 123.43,-26.59 125.53,-19.91"/>
</g>
<!-- &#45;11&#45;&gt;2 -->
<g id="edge27" class="edge">
<title>&#45;11&#45;&gt;2</title>
<path fill="none" stroke="green" stroke-width="0.25" d="M270.31,-64.54C267.61,-57.41 263.74,-47.17 260.23,-37.89"/>
<polygon fill="green" stroke="green" stroke-width="0.25" points="263.58,-36.86 256.77,-28.75 257.03,-39.34 263.58,-36.86"/>
</g>
<!-- &#45;11&#45;&gt;3 -->
<g id="edge16" class="edge">
<title>&#45;11&#45;&gt;3</title>
<path fill="none" stroke="green" stroke-width="0.25" stroke-dasharray="1,5" d="M288.23,-67.79C291.03,-66.78 293.96,-65.79 296.75,-64.99 373.91,-42.83 398.52,-57 473.75,-28.99 474.78,-28.61 475.82,-28.18 476.86,-27.73"/>
<polygon fill="green" stroke="green" stroke-width="0.25" points="478.24,-30.95 485.56,-23.29 475.07,-24.72 478.24,-30.95"/>
</g>
<!-- &#45;11&#45;&gt;4 -->
<g id="edge26" class="edge">
<title>&#45;11&#45;&gt;4</title>
<path fill="none" stroke="green" stroke-width="0.52" d="M287.81,-64.54C302.66,-54.95 326.22,-39.73 343.17,-28.79"/>
<polygon fill="green" stroke="green" stroke-width="0.52" points="344.64,-32 351.14,-23.64 340.84,-26.12 344.64,-32"/>
</g>
<!-- &#45;11&#45;&gt;7 -->
<g id="edge49" class="edge">
<title>&#45;11&#45;&gt;7</title>
<path fill="none" stroke="green" stroke-width="0.53" stroke-dasharray="1,5" d="M280.47,-64.54C286.26,-56.71 294.81,-45.15 302.16,-35.21"/>
<polygon fill="green" stroke="green" stroke-width="0.53" points="304.85,-37.46 307.99,-27.34 299.22,-33.3 304.85,-37.46"/>
</g>
<!-- &#45;12 -->
<g id="node12" class="node">
<title>&#45;12</title>
<polygon fill="lightgray" stroke="black" points="375.75,-84.24 347.75,-84.24 347.75,-64.99 375.75,-64.99 375.75,-84.24"/>
<text text-anchor="middle" x="361.75" y="-71.69" font-family="Times New Roman,serif" font-size="9.00">&#45;12</text>
</g>
<!-- &#45;12&#45;&gt;4 -->
<g id="edge22" class="edge">
<title>&#45;12&#45;&gt;4</title>
<path fill="none" stroke="red" stroke-width="0.44" d="M362.06,-64.54C362.29,-57.89 362.61,-48.54 362.91,-39.79"/>
<polygon fill="red" stroke="red" stroke-width="0.44" points="366.41,-40.04 363.25,-29.93 359.41,-39.8 366.41,-40.04"/>
</g>
<!-- &#45;12&#45;&gt;5 -->
<g id="edge15" class="edge">
<title>&#45;12&#45;&gt;5</title>
<path fill="none" stroke="green" stroke-width="0.35" d="M347.68,-68.22C344.74,-67.13 341.65,-66 338.75,-64.99 314.4,-56.49 245.5,-34.48 209.04,-22.89"/>
<polygon fill="green" stroke="green" stroke-width="0.35" points="210.37,-19.64 199.78,-19.94 208.25,-26.31 210.37,-19.64"/>
</g>
<!-- &#45;12&#45;&gt;6 -->
<g id="edge33" class="edge">
<title>&#45;12&#45;&gt;6</title>
<path fill="none" stroke="green" stroke-width="0.34" d="M375.66,-64.54C390.34,-54.95 413.64,-39.73 430.39,-28.79"/>
<polygon fill="green" stroke="green" stroke-width="0.34" points="432.04,-31.9 438.5,-23.5 428.21,-26.04 432.04,-31.9"/>
</g>
<!-- &#45;13 -->
<g id="node13" class="node">
<title>&#45;13</title>
<polygon fill="lightgray" stroke="black" points="199.75,-84.24 171.75,-84.24 171.75,-64.99 199.75,-64.99 199.75,-84.24"/>
<text text-anchor="middle" x="185.75" y="-71.69" font-family="Times New Roman,serif" font-size="9.00">&#45;13</text>
</g>
<!-- &#45;13&#45;&gt;2 -->
<g id="edge6" class="edge">
<title>&#45;13&#45;&gt;2</title>
<path fill="none" stroke="red" stroke-width="0.65" d="M196.06,-64.54C205.98,-55.8 221.2,-42.4 233.22,-31.81"/>
<polygon fill="red" stroke="red" stroke-width="0.65" points="235.36,-34.6 240.55,-25.36 230.73,-29.34 235.36,-34.6"/>
</g>
<!-- &#45;13&#45;&gt;4 -->
<g id="edge9" class="edge">
<title>&#45;13&#45;&gt;4</title>
<path fill="none" stroke="green" stroke-width="0.7" d="M199.79,-68.12C202.73,-67.03 205.83,-65.94 208.75,-64.99 266.19,-46.37 283.91,-51.96 339.75,-28.99 340.51,-28.68 341.28,-28.35 342.05,-28"/>
<polygon fill="green" stroke="green" stroke-width="0.7" points="343.6,-31.14 350.88,-23.44 340.39,-24.92 343.6,-31.14"/>
</g>
<!-- &#45;13&#45;&gt;5 -->
<g id="edge48" class="edge">
<title>&#45;13&#45;&gt;5</title>
<path fill="none" stroke="red" stroke-width="0.47" d="M185.75,-64.54C185.75,-57.89 185.75,-48.54 185.75,-39.79"/>
<polygon fill="red" stroke="red" stroke-width="0.47" points="189.25,-39.99 185.75,-29.99 182.25,-39.99 189.25,-39.99"/>
</g>
<!-- &#45;14 -->
<g id="node14" class="node">
<title>&#45;14</title>
<polygon fill="lightgray" stroke="black" points="69.75,-84.24 41.75,-84.24 41.75,-64.99 69.75,-64.99 69.75,-84.24"/>
<text text-anchor="middle" x="55.75" y="-71.69" font-family="Times New Roman,serif" font-size="9.00">&#45;14</text>
</g>
<!-- &#45;14&#45;&gt;0 -->
<g id="edge13" class="edge">
<title>&#45;14&#45;&gt;0</title>
<path fill="none" stroke="red" stroke-width="0.19" stroke-dasharray="1,5" d="M62.62,-64.54C68.67,-56.55 77.66,-44.67 85.28,-34.61"/>
<polygon fill="red" stroke="red" stroke-width="0.19" points="87.85,-37.01 91.1,-26.93 82.27,-32.79 87.85,-37.01"/>
</g>
<!-- &#45;14&#45;&gt;5 -->
<g id="edge36" class="edge">
<title>&#45;14&#45;&gt;5</title>
<path fill="none" stroke="green" stroke-width="0.7" d="M70.16,-67.17C92.59,-57.15 136.04,-37.72 162.81,-25.75"/>
<polygon fill="green" stroke="green" stroke-width="0.7" points="164.16,-28.98 171.86,-21.71 161.3,-22.59 164.16,-28.98"/>
</g>
<!-- &#45;15 -->
<g id="node15" class="node">
<title>&#45;15</title>
<polygon fill="lightgray" stroke="black" points="467.75,-84.24 439.75,-84.24 439.75,-64.99 467.75,-64.99 467.75,-84.24"/>
<text text-anchor="middle" x="453.75" y="-71.69" font-family="Times New Roman,serif" font-size="9.00">&#45;15</text>
</g>
<!-- &#45;15&#45;&gt;2 -->
<g id="edge41" class="edge">
<title>&#45;15&#45;&gt;2</title>
<path fill="none" stroke="green" stroke-width="0.19" d="M439.72,-68.1C436.78,-67.01 433.68,-65.92 430.75,-64.99 370.75,-45.91 354.19,-46.63 293.75,-28.99 287.63,-27.2 281.04,-25.15 274.95,-23.2"/>
<polygon fill="green" stroke="green" stroke-width="0.19" points="276.17,-19.91 265.58,-20.15 274,-26.57 276.17,-19.91"/>
</g>
<!-- &#45;15&#45;&gt;4 -->
<g id="edge31" class="edge">
<title>&#45;15&#45;&gt;4</title>
<path fill="none" stroke="red" stroke-width="0.24" stroke-dasharray="1,5" d="M439.69,-64.54C424.84,-54.95 401.28,-39.73 384.33,-28.79"/>
<polygon fill="red" stroke="red" stroke-width="0.24" points="386.3,-25.89 376,-23.41 382.51,-31.77 386.3,-25.89"/>
</g>
<!-- &#45;15&#45;&gt;6 -->
<g id="edge24" class="edge">
<title>&#45;15&#45;&gt;6</title>
<path fill="none" stroke="red" stroke-width="0.45" d="M453.28,-64.54C452.94,-57.89 452.46,-48.54 452,-39.79"/>
<polygon fill="red" stroke="red" stroke-width="0.45" points="455.51,-39.75 451.5,-29.94 448.52,-40.11 455.51,-39.75"/>
</g>
<!-- &#45;15&#45;&gt;7 -->
<g id="edge35" class="edge">
<title>&#45;15&#45;&gt;7</title>
<path fill="none" stroke="green" stroke-width="1.47" d="M439.52,-68.28C413.45,-58.44 359.03,-37.69 340.75,-28.99 340.25,-28.76 339.75,-28.51 339.25,-28.27"/>
<polygon fill="green" stroke="green" stroke-width="1.47" points="341.22,-25.35 330.75,-23.73 337.93,-31.53 341.22,-25.35"/>
</g>
<!-- &#45;16 -->
<g id="node16" class="node">
<title>&#45;16</title>
<polygon fill="lightgray" stroke="black" points="421.75,-84.24 393.75,-84.24 393.75,-64.99 421.75,-64.99 421.75,-84.24"/>
<text text-anchor="middle" x="407.75" y="-71.69" font-family="Times New Roman,serif" font-size="9.00">&#45;16</text>
</g>
<!-- &#45;16&#45;&gt;3 -->
<g id="edge4" class="edge">
<title>&#45;16&#45;&gt;3</title>
<path fill="none" stroke="red" stroke-width="0.16" d="M421.81,-64.54C436.8,-54.86 460.66,-39.45 477.63,-28.49"/>
<polygon fill="red" stroke="red" stroke-width="0.16" points="479.1,-31.71 485.6,-23.34 475.3,-25.83 479.1,-31.71"/>
</g>
<!-- &#45;16&#45;&gt;5 -->
<g id="edge42" class="edge">
<title>&#45;16&#45;&gt;5</title>
<path fill="none" stroke="red" stroke-width="0.56" d="M393.74,-68.03C390.8,-66.95 387.69,-65.88 384.75,-64.99 316.62,-44.45 297.41,-47.66 228.75,-28.99 222.62,-27.32 216.04,-25.35 209.93,-23.44"/>
<polygon fill="red" stroke="red" stroke-width="0.56" points="211.02,-20.12 200.43,-20.41 208.89,-26.79 211.02,-20.12"/>
</g>
<!-- 0&#45;&gt;0 -->
<g id="edge7" class="edge">
<title>0&#45;&gt;0</title>
<path fill="none" stroke="red" stroke-width="0.29" d="M111.41,-23.91C121.54,-28.2 132.25,-25.06 132.25,-14.5 132.25,-7.56 127.63,-3.83 121.6,-3.29"/>
<polygon fill="red" stroke="red" stroke-width="0.29" points="121.08,0.17 111.84,-5.01 122.3,-6.72 121.08,0.17"/>
</g>
<!-- 2&#45;&gt;2 -->
<g id="edge18" class="edge">
<title>2&#45;&gt;2</title>
<path fill="none" stroke="green" stroke-width="0.35" d="M263.41,-23.91C273.54,-28.2 284.25,-25.06 284.25,-14.5 284.25,-7.56 279.63,-3.83 273.6,-3.29"/>
<polygon fill="green" stroke="green" stroke-width="0.35" points="273.18,0.19 263.93,-4.99 274.39,-6.71 273.18,0.19"/>
</g>
<!-- 4&#45;&gt;4 -->
<g id="edge34" class="edge">
<title>4&#45;&gt;4</title>
<path fill="none" stroke="green" stroke-width="0.39" stroke-dasharray="1,5" d="M375.41,-23.91C385.54,-28.2 396.25,-25.06 396.25,-14.5 396.25,-7.56 391.63,-3.83 385.6,-3.29"/>
<polygon fill="green" stroke="green" stroke-width="0.39" points="385.23,0.2 375.99,-4.98 386.44,-6.7 385.23,0.2"/>
</g>
<!-- 5&#45;&gt;5 -->
<g id="edge45" class="edge">
<title>5&#45;&gt;5</title>
<path fill="none" stroke="green" stroke-width="0.74" stroke-dasharray="1,5" d="M197.41,-23.91C207.54,-28.2 218.25,-25.06 218.25,-14.5 218.25,-7.73 213.85,-4 208.03,-3.33"/>
<polygon fill="green" stroke="green" stroke-width="0.74" points="207.81,0.18 198.52,-4.9 208.95,-6.73 207.81,0.18"/>
</g>
</g>
</svg>
