<?xml version="1.0" encoding="UTF-8" standalone="no"?>
<!DOCTYPE svg PUBLIC "-//W3C//DTD SVG 1.1//EN"
 "http://www.w3.org/Graphics/SVG/1.1/DTD/svg11.dtd">
<!-- Generated by graphviz version 9.0.0 (20230911.1827)
 -->
<!-- Pages: 1 -->
<svg width="1192pt" height="183pt"
 viewBox="0.00 0.00 1191.84 182.96" xmlns="http://www.w3.org/2000/svg" xmlns:xlink="http://www.w3.org/1999/xlink">
<g id="graph0" class="graph" transform="scale(1 1) rotate(0) translate(4 178.96)">
<polygon fill="white" stroke="none" points="-4,4 -4,-178.96 1187.84,-178.96 1187.84,4 -4,4"/>
<!-- &#45;1 -->
<g id="node1" class="node">
<title>&#45;1</title>
<polygon fill="lightgray" stroke="black" points="75.97,-102.11 52.47,-102.11 52.47,-82.86 75.97,-82.86 75.97,-102.11"/>
<text text-anchor="middle" x="64.22" y="-89.56" font-family="Times New Roman,serif" font-size="9.00">&#45;1</text>
</g>
<!-- 1 -->
<g id="node18" class="node">
<title>1</title>
<ellipse fill="lightblue" stroke="black" cx="436.22" cy="-14.77" rx="14.5" ry="14.5"/>
<text text-anchor="middle" x="436.22" y="-11.84" font-family="Times New Roman,serif" font-size="9.00">1</text>
</g>
<!-- &#45;1&#45;&gt;1 -->
<g id="edge16" class="edge">
<title>&#45;1&#45;&gt;1</title>
<path fill="none" stroke="red" stroke-width="0.34" d="M69.04,-82.45C72.67,-76.55 78.23,-69.25 85.22,-65.26 88.8,-63.22 332.61,-29.88 411.73,-19.1"/>
<polygon fill="red" stroke="red" stroke-width="0.34" points="411.81,-22.62 421.25,-17.8 410.87,-15.68 411.81,-22.62"/>
</g>
<!-- 3 -->
<g id="node20" class="node">
<title>3</title>
<ellipse fill="lightblue" stroke="black" cx="108.22" cy="-14.77" rx="14.5" ry="14.5"/>
<text text-anchor="middle" x="108.22" y="-11.84" font-family="Times New Roman,serif" font-size="9.00">3</text>
</g>
<!-- &#45;1&#45;&gt;3 -->
<g id="edge43" class="edge">
<title>&#45;1&#45;&gt;3</title>
<path fill="none" stroke="green" stroke-width="0.55" d="M69.44,-82.5C75.94,-71.32 87.25,-51.86 95.98,-36.83"/>
<polygon fill="green" stroke="green" stroke-width="0.55" points="98.85,-38.85 100.85,-28.45 92.8,-35.34 98.85,-38.85"/>
</g>
<!-- 5 -->
<g id="node22" class="node">
<title>5</title>
<ellipse fill="lightblue" stroke="black" cx="61.22" cy="-14.77" rx="14.5" ry="14.5"/>
<text text-anchor="middle" x="61.22" y="-11.84" font-family="Times New Roman,serif" font-size="9.00">5</text>
</g>
<!-- &#45;1&#45;&gt;5 -->
<g id="edge28" class="edge">
<title>&#45;1&#45;&gt;5</title>
<path fill="none" stroke="red" stroke-width="0.26" d="M63.87,-82.5C63.45,-72.08 62.75,-54.46 62.18,-39.94"/>
<polygon fill="red" stroke="red" stroke-width="0.26" points="65.68,-39.85 61.78,-30 58.68,-40.13 65.68,-39.85"/>
</g>
<!-- 6 -->
<g id="node23" class="node">
<title>6</title>
<ellipse fill="lightblue" stroke="black" cx="311.22" cy="-14.77" rx="14.5" ry="14.5"/>
<text text-anchor="middle" x="311.22" y="-11.84" font-family="Times New Roman,serif" font-size="9.00">6</text>
</g>
<!-- &#45;1&#45;&gt;6 -->
<g id="edge39" class="edge">
<title>&#45;1&#45;&gt;6</title>
<path fill="none" stroke="red" stroke-width="0.14" stroke-dasharray="1,5" d="M69.08,-82.53C72.74,-76.67 78.3,-69.37 85.22,-65.26 163.63,-18.69 201.38,-60.04 287.22,-29.26 288.26,-28.89 289.3,-28.48 290.34,-28.03"/>
<polygon fill="red" stroke="red" stroke-width="0.14" points="291.85,-31.19 299.2,-23.55 288.69,-24.94 291.85,-31.19"/>
</g>
<!-- &#45;2 -->
<g id="node2" class="node">
<title>&#45;2</title>
<polygon fill="lightgray" stroke="black" points="813.97,-102.11 790.47,-102.11 790.47,-82.86 813.97,-82.86 813.97,-102.11"/>
<text text-anchor="middle" x="802.22" y="-89.56" font-family="Times New Roman,serif" font-size="9.00">&#45;2</text>
</g>
<!-- &#45;2&#45;&gt;1 -->
<g id="edge1" class="edge">
<title>&#45;2&#45;&gt;1</title>
<path fill="none" stroke="green" stroke-width="0.54" d="M797.4,-82.45C793.77,-76.56 788.21,-69.25 781.22,-65.26 726.35,-33.92 531.35,-20.77 461.41,-16.99"/>
<polygon fill="green" stroke="green" stroke-width="0.54" points="461.93,-13.52 451.76,-16.49 461.56,-20.51 461.93,-13.52"/>
</g>
<!-- 2 -->
<g id="node19" class="node">
<title>2</title>
<ellipse fill="lightblue" stroke="black" cx="686.22" cy="-14.77" rx="14.5" ry="14.5"/>
<text text-anchor="middle" x="686.22" y="-11.84" font-family="Times New Roman,serif" font-size="9.00">2</text>
</g>
<!-- &#45;2&#45;&gt;2 -->
<g id="edge7" class="edge">
<title>&#45;2&#45;&gt;2</title>
<path fill="none" stroke="green" stroke-width="0.29" stroke-dasharray="1,5" d="M796.4,-82.43C792.57,-76.97 787.17,-70.15 781.22,-65.26 759.22,-47.18 729.55,-33.02 709.26,-24.56"/>
<polygon fill="green" stroke="green" stroke-width="0.29" points="710.84,-21.43 700.26,-20.93 708.22,-27.92 710.84,-21.43"/>
</g>
<!-- 4 -->
<g id="node21" class="node">
<title>4</title>
<ellipse fill="lightblue" stroke="black" cx="848.22" cy="-14.77" rx="14.5" ry="14.5"/>
<text text-anchor="middle" x="848.22" y="-11.84" font-family="Times New Roman,serif" font-size="9.00">4</text>
</g>
<!-- &#45;2&#45;&gt;4 -->
<g id="edge24" class="edge">
<title>&#45;2&#45;&gt;4</title>
<path fill="none" stroke="red" stroke-width="0.7" stroke-dasharray="1,5" d="M807.68,-82.5C814.47,-71.32 826.29,-51.86 835.42,-36.83"/>
<polygon fill="red" stroke="red" stroke-width="0.7" points="838.21,-38.99 840.41,-28.63 832.23,-35.36 838.21,-38.99"/>
</g>
<!-- &#45;3 -->
<g id="node3" class="node">
<title>&#45;3</title>
<polygon fill="lightgray" stroke="black" points="365.97,-102.11 342.47,-102.11 342.47,-82.86 365.97,-82.86 365.97,-102.11"/>
<text text-anchor="middle" x="354.22" y="-89.56" font-family="Times New Roman,serif" font-size="9.00">&#45;3</text>
</g>
<!-- &#45;3&#45;&gt;1 -->
<g id="edge23" class="edge">
<title>&#45;3&#45;&gt;1</title>
<path fill="none" stroke="red" stroke-width="0.64" stroke-dasharray="1,5" d="M360.41,-82.83C364.38,-77.52 369.79,-70.72 375.22,-65.26 387.94,-52.46 403.8,-39.68 416.16,-30.31"/>
<polygon fill="red" stroke="red" stroke-width="0.64" points="418.11,-33.22 424.04,-24.44 413.93,-27.6 418.11,-33.22"/>
</g>
<!-- &#45;3&#45;&gt;6 -->
<g id="edge30" class="edge">
<title>&#45;3&#45;&gt;6</title>
<path fill="none" stroke="green" stroke-width="0.6" stroke-dasharray="1,5" d="M349.12,-82.5C342.81,-71.38 331.85,-52.08 323.33,-37.09"/>
<polygon fill="green" stroke="green" stroke-width="0.6" points="326.59,-35.75 318.61,-28.78 320.51,-39.2 326.59,-35.75"/>
</g>
<!-- &#45;4 -->
<g id="node4" class="node">
<title>&#45;4</title>
<polygon fill="lightgray" stroke="black" points="157.97,-174.96 134.47,-174.96 134.47,-155.71 157.97,-155.71 157.97,-174.96"/>
<text text-anchor="middle" x="146.22" y="-162.41" font-family="Times New Roman,serif" font-size="9.00">&#45;4</text>
</g>
<!-- 0 -->
<g id="node17" class="node">
<title>0</title>
<ellipse fill="lightblue" stroke="black" cx="799.22" cy="-14.77" rx="14.5" ry="14.5"/>
<text text-anchor="middle" x="799.22" y="-11.84" font-family="Times New Roman,serif" font-size="9.00">0</text>
</g>
<!-- &#45;4&#45;&gt;0 -->
<g id="edge12" class="edge">
<title>&#45;4&#45;&gt;0</title>
<path fill="none" stroke="red" stroke-width="0.3" d="M158.3,-164.05C250.81,-161.86 843.81,-146.74 869.22,-119.71 885.8,-102.08 880.35,-86.75 869.22,-65.26 863.92,-55.02 839.38,-39.04 820.84,-28.02"/>
<polygon fill="red" stroke="red" stroke-width="0.3" points="822.63,-25.01 812.22,-23 819.1,-31.06 822.63,-25.01"/>
</g>
<!-- &#45;4&#45;&gt;3 -->
<g id="edge6" class="edge">
<title>&#45;4&#45;&gt;3</title>
<path fill="none" stroke="red" stroke-width="0.17" stroke-dasharray="1,5" d="M134.14,-164.64C106.65,-164.6 39.52,-160.16 10.22,-119.71 -3.97,-100.11 -2.61,-85.78 10.22,-65.26 29.62,-34.25 51.82,-46.23 84.22,-29.26 85.19,-28.75 86.19,-28.22 87.19,-27.69"/>
<polygon fill="red" stroke="red" stroke-width="0.17" points="88.79,-30.8 95.86,-22.9 85.41,-24.67 88.79,-30.8"/>
</g>
<!-- &#45;4&#45;&gt;6 -->
<g id="edge42" class="edge">
<title>&#45;4&#45;&gt;6</title>
<path fill="none" stroke="green" stroke-width="0.12" d="M145.12,-155.34C143.3,-136.17 141.92,-90.95 165.22,-65.26 203.2,-23.39 235.14,-51.26 287.22,-29.26 288.23,-28.83 289.26,-28.37 290.28,-27.89"/>
<polygon fill="green" stroke="green" stroke-width="0.12" points="291.88,-31.01 299.11,-23.27 288.63,-24.81 291.88,-31.01"/>
</g>
<!-- 7 -->
<g id="node24" class="node">
<title>7</title>
<ellipse fill="lightblue" stroke="black" cx="264.22" cy="-14.77" rx="14.5" ry="14.5"/>
<text text-anchor="middle" x="264.22" y="-11.84" font-family="Times New Roman,serif" font-size="9.00">7</text>
</g>
<!-- &#45;4&#45;&gt;7 -->
<g id="edge17" class="edge">
<title>&#45;4&#45;&gt;7</title>
<path fill="none" stroke="red" stroke-width="0.54" stroke-dasharray="1,5" d="M133.98,-163.23C111.43,-160.45 63.76,-150.99 43.22,-119.71 29.94,-99.48 28.09,-84.15 43.22,-65.26 55.53,-49.9 183.81,-28.28 239.1,-19.6"/>
<polygon fill="red" stroke="red" stroke-width="0.54" points="239.56,-23.07 248.91,-18.08 238.49,-16.15 239.56,-23.07"/>
</g>
<!-- 22252 -->
<g id="node26" class="node">
<title>22252</title>
<ellipse fill="white" stroke="black" cx="609.22" cy="-92.49" rx="27.22" ry="27.22"/>
<text text-anchor="middle" x="609.22" y="-89.56" font-family="Times New Roman,serif" font-size="9.00">22252</text>
</g>
<!-- &#45;4&#45;&gt;22252 -->
<g id="edge52" class="edge">
<title>&#45;4&#45;&gt;22252</title>
<path fill="none" stroke="green" stroke-width="0.63" d="M158.38,-163.91C219.59,-161.67 494.25,-150.05 573.22,-119.71 575.45,-118.85 577.66,-117.82 579.84,-116.67"/>
<polygon fill="green" stroke="green" stroke-width="0.63" points="581.51,-119.75 588.18,-111.52 577.83,-113.79 581.51,-119.75"/>
</g>
<!-- &#45;5 -->
<g id="node5" class="node">
<title>&#45;5</title>
<polygon fill="lightgray" stroke="black" points="720.97,-174.96 697.47,-174.96 697.47,-155.71 720.97,-155.71 720.97,-174.96"/>
<text text-anchor="middle" x="709.22" y="-162.41" font-family="Times New Roman,serif" font-size="9.00">&#45;5</text>
</g>
<!-- &#45;5&#45;&gt;0 -->
<g id="edge31" class="edge">
<title>&#45;5&#45;&gt;0</title>
<path fill="none" stroke="red" stroke-width="0.41" stroke-dasharray="1,5" d="M721.08,-159.02C724.03,-157.82 727.21,-156.63 730.22,-155.71 804.88,-132.78 852.98,-180.33 902.22,-119.71 917.48,-100.93 915.21,-85.68 902.22,-65.26 881.94,-33.39 859.1,-45.97 825.22,-29.26 823.85,-28.59 822.45,-27.89 821.03,-27.17"/>
<polygon fill="red" stroke="red" stroke-width="0.41" points="822.9,-24.2 812.41,-22.74 819.71,-30.42 822.9,-24.2"/>
</g>
<!-- &#45;5&#45;&gt;4 -->
<g id="edge26" class="edge">
<title>&#45;5&#45;&gt;4</title>
<path fill="none" stroke="red" stroke-width="0.11" stroke-dasharray="1,5" d="M721.45,-158.59C724.28,-157.47 727.31,-156.42 730.22,-155.71 818,-134.3 1074.22,-186.37 1135.22,-119.71 1151.56,-101.86 1150.81,-83.77 1135.22,-65.26 1101.66,-25.41 936.15,-17.65 872.88,-16.13"/>
<polygon fill="red" stroke="red" stroke-width="0.11" points="873.21,-12.64 863.14,-15.93 873.06,-19.64 873.21,-12.64"/>
</g>
<!-- &#45;5&#45;&gt;5 -->
<g id="edge18" class="edge">
<title>&#45;5&#45;&gt;5</title>
<path fill="none" stroke="green" stroke-width="0.26" stroke-dasharray="1,5" d="M697.18,-164.49C610.96,-165.48 89.68,-169.38 43.22,-119.71 22.31,-97.35 36.38,-59.89 48.66,-36.57"/>
<polygon fill="green" stroke="green" stroke-width="0.26" points="51.7,-38.31 53.52,-27.87 45.59,-34.89 51.7,-38.31"/>
</g>
<!-- &#45;5&#45;&gt;6 -->
<g id="edge10" class="edge">
<title>&#45;5&#45;&gt;6</title>
<path fill="none" stroke="green" stroke-width="0.28" stroke-dasharray="1,5" d="M697.26,-164.12C627.63,-162.76 276.58,-154.23 245.22,-119.71 228.95,-101.8 234.4,-86.91 245.22,-65.26 250.16,-55.39 273.07,-39.46 290.53,-28.35"/>
<polygon fill="green" stroke="green" stroke-width="0.28" points="292.05,-31.53 298.68,-23.26 288.35,-25.59 292.05,-31.53"/>
</g>
<!-- 27187 -->
<g id="node27" class="node">
<title>27187</title>
<ellipse fill="white" stroke="black" cx="1099.22" cy="-92.49" rx="27.22" ry="27.22"/>
<text text-anchor="middle" x="1099.22" y="-89.56" font-family="Times New Roman,serif" font-size="9.00">27187</text>
</g>
<!-- &#45;5&#45;&gt;27187 -->
<g id="edge56" class="edge">
<title>&#45;5&#45;&gt;27187</title>
<path fill="none" stroke="green" stroke-width="0.1" d="M721.46,-158.63C724.29,-157.51 727.32,-156.45 730.22,-155.71 874.5,-119.07 924.36,-173.35 1063.22,-119.71 1065.79,-118.72 1068.34,-117.49 1070.83,-116.12"/>
<polygon fill="green" stroke="green" stroke-width="0.1" points="1072.24,-119.37 1078.86,-111.09 1068.53,-113.43 1072.24,-119.37"/>
</g>
<!-- &#45;6 -->
<g id="node6" class="node">
<title>&#45;6</title>
<polygon fill="lightgray" stroke="black" points="407.97,-102.11 384.47,-102.11 384.47,-82.86 407.97,-82.86 407.97,-102.11"/>
<text text-anchor="middle" x="396.22" y="-89.56" font-family="Times New Roman,serif" font-size="9.00">&#45;6</text>
</g>
<!-- &#45;6&#45;&gt;1 -->
<g id="edge21" class="edge">
<title>&#45;6&#45;&gt;1</title>
<path fill="none" stroke="green" stroke-width="1.03" stroke-dasharray="1,5" d="M400.97,-82.5C406.73,-71.6 416.65,-52.82 424.5,-37.95"/>
<polygon fill="green" stroke="green" stroke-width="1.03" points="427.46,-39.84 429.04,-29.36 421.27,-36.57 427.46,-39.84"/>
</g>
<!-- &#45;6&#45;&gt;2 -->
<g id="edge40" class="edge">
<title>&#45;6&#45;&gt;2</title>
<path fill="none" stroke="green" stroke-width="0.7" d="M408.14,-85.31C419.85,-79.45 438.38,-70.74 455.22,-65.26 528.12,-41.53 617.72,-26.07 660.77,-19.45"/>
<polygon fill="green" stroke="green" stroke-width="0.7" points="661.21,-22.92 670.58,-17.97 660.17,-16 661.21,-22.92"/>
</g>
<!-- &#45;6&#45;&gt;4 -->
<g id="edge13" class="edge">
<title>&#45;6&#45;&gt;4</title>
<path fill="none" stroke="red" stroke-width="0.88" d="M408.46,-84.65C420.1,-78.49 438.31,-69.72 455.22,-65.26 613.69,-23.44 665.09,-75.86 822.22,-29.26 823.56,-28.86 824.92,-28.39 826.27,-27.87"/>
<polygon fill="red" stroke="red" stroke-width="0.88" points="827.41,-31.2 834.98,-23.79 824.44,-24.87 827.41,-31.2"/>
</g>
<!-- &#45;6&#45;&gt;6 -->
<g id="edge3" class="edge">
<title>&#45;6&#45;&gt;6</title>
<path fill="none" stroke="red" stroke-width="0.26" stroke-dasharray="1,5" d="M390.08,-82.79C386.12,-77.46 380.71,-70.66 375.22,-65.26 361.55,-51.82 344.26,-38.64 331.1,-29.27"/>
<polygon fill="red" stroke="red" stroke-width="0.26" points="333.27,-26.51 323.07,-23.65 329.26,-32.25 333.27,-26.51"/>
</g>
<!-- &#45;6&#45;&gt;7 -->
<g id="edge9" class="edge">
<title>&#45;6&#45;&gt;7</title>
<path fill="none" stroke="green" stroke-width="0.12" d="M390.89,-82.74C387.09,-77.13 381.56,-70.02 375.22,-65.26 341.76,-40.14 325.86,-47.55 288.22,-29.26 287.23,-28.78 286.23,-28.28 285.22,-27.76"/>
<polygon fill="green" stroke="green" stroke-width="0.12" points="286.9,-24.69 276.44,-23 283.56,-30.84 286.9,-24.69"/>
</g>
<!-- &#45;7 -->
<g id="node7" class="node">
<title>&#45;7</title>
<polygon fill="lightgray" stroke="black" points="197.97,-102.11 174.47,-102.11 174.47,-82.86 197.97,-82.86 197.97,-102.11"/>
<text text-anchor="middle" x="186.22" y="-89.56" font-family="Times New Roman,serif" font-size="9.00">&#45;7</text>
</g>
<!-- &#45;7&#45;&gt;1 -->
<g id="edge4" class="edge">
<title>&#45;7&#45;&gt;1</title>
<path fill="none" stroke="red" stroke-width="0.1" d="M198.19,-85.47C209.94,-79.72 228.5,-71.1 245.22,-65.26 304.09,-44.71 375.81,-28.36 412.34,-20.63"/>
<polygon fill="red" stroke="red" stroke-width="0.1" points="412.86,-24.09 421.93,-18.63 411.43,-17.24 412.86,-24.09"/>
</g>
<!-- &#45;7&#45;&gt;3 -->
<g id="edge49" class="edge">
<title>&#45;7&#45;&gt;3</title>
<path fill="none" stroke="green" stroke-width="0.11" stroke-dasharray="1,5" d="M176.97,-82.5C164.34,-70.25 141.48,-48.06 125.61,-32.64"/>
<polygon fill="green" stroke="green" stroke-width="0.11" points="128.19,-30.27 118.57,-25.82 123.31,-35.29 128.19,-30.27"/>
</g>
<!-- &#45;7&#45;&gt;6 -->
<g id="edge29" class="edge">
<title>&#45;7&#45;&gt;6</title>
<path fill="none" stroke="green" stroke-width="0.62" stroke-dasharray="1,5" d="M193.76,-82.44C198.63,-76.99 205.33,-70.17 212.22,-65.26 242.34,-43.82 254.42,-46.33 287.22,-29.26 288.07,-28.82 288.94,-28.36 289.82,-27.89"/>
<polygon fill="green" stroke="green" stroke-width="0.62" points="291.21,-31.12 298.28,-23.24 287.83,-24.99 291.21,-31.12"/>
</g>
<!-- &#45;8 -->
<g id="node8" class="node">
<title>&#45;8</title>
<polygon fill="lightgray" stroke="black" points="117.97,-102.11 94.47,-102.11 94.47,-82.86 117.97,-82.86 117.97,-102.11"/>
<text text-anchor="middle" x="106.22" y="-89.56" font-family="Times New Roman,serif" font-size="9.00">&#45;8</text>
</g>
<!-- &#45;8&#45;&gt;0 -->
<g id="edge45" class="edge">
<title>&#45;8&#45;&gt;0</title>
<path fill="none" stroke="green" stroke-width="0.52" stroke-dasharray="1,5" d="M118.42,-84.52C130.05,-78.26 148.24,-69.44 165.22,-65.26 408.27,-5.5 478.87,-60.37 727.22,-29.26 743.15,-27.27 760.88,-23.96 774.76,-21.11"/>
<polygon fill="green" stroke="green" stroke-width="0.52" points="775.12,-24.62 784.18,-19.13 773.68,-17.77 775.12,-24.62"/>
</g>
<!-- &#45;8&#45;&gt;3 -->
<g id="edge2" class="edge">
<title>&#45;8&#45;&gt;3</title>
<path fill="none" stroke="red" stroke-width="0.45" d="M106.46,-82.5C106.73,-72.08 107.2,-54.46 107.58,-39.94"/>
<polygon fill="red" stroke="red" stroke-width="0.45" points="111.07,-40.38 107.84,-30.29 104.07,-40.2 111.07,-40.38"/>
</g>
<!-- &#45;8&#45;&gt;7 -->
<g id="edge25" class="edge">
<title>&#45;8&#45;&gt;7</title>
<path fill="none" stroke="green" stroke-width="0.27" d="M113.18,-82.72C118.02,-77.1 124.9,-70 132.22,-65.26 166.69,-42.96 212.66,-28.64 240.26,-21.41"/>
<polygon fill="green" stroke="green" stroke-width="0.27" points="240.97,-24.84 249.81,-19 239.26,-18.05 240.97,-24.84"/>
</g>
<!-- &#45;9 -->
<g id="node9" class="node">
<title>&#45;9</title>
<polygon fill="lightgray" stroke="black" points="277.97,-102.11 254.47,-102.11 254.47,-82.86 277.97,-82.86 277.97,-102.11"/>
<text text-anchor="middle" x="266.22" y="-89.56" font-family="Times New Roman,serif" font-size="9.00">&#45;9</text>
</g>
<!-- &#45;9&#45;&gt;1 -->
<g id="edge19" class="edge">
<title>&#45;9&#45;&gt;1</title>
<path fill="none" stroke="red" stroke-width="0.32" d="M271.45,-82.59C275.19,-76.91 280.71,-69.79 287.22,-65.26 326.04,-38.24 380.7,-25.11 411.89,-19.45"/>
<polygon fill="red" stroke="red" stroke-width="0.32" points="412.12,-22.96 421.39,-17.83 410.95,-16.06 412.12,-22.96"/>
</g>
<!-- &#45;9&#45;&gt;2 -->
<g id="edge5" class="edge">
<title>&#45;9&#45;&gt;2</title>
<path fill="none" stroke="green" stroke-width="0.25" stroke-dasharray="1,5" d="M271.01,-82.41C274.64,-76.5 280.19,-69.19 287.22,-65.26 319.99,-46.95 579.41,-24.47 661.45,-17.75"/>
<polygon fill="green" stroke="green" stroke-width="0.25" points="661.53,-21.25 671.22,-16.96 660.97,-14.28 661.53,-21.25"/>
</g>
<!-- &#45;9&#45;&gt;5 -->
<g id="edge35" class="edge">
<title>&#45;9&#45;&gt;5</title>
<path fill="none" stroke="red" stroke-width="0.39" stroke-dasharray="1,5" d="M254.21,-85.59C242.42,-79.93 223.84,-71.38 207.22,-65.26 154.17,-45.74 137.3,-51.26 85.22,-29.26 84.33,-28.89 83.44,-28.49 82.54,-28.07"/>
<polygon fill="red" stroke="red" stroke-width="0.39" points="84.17,-24.97 73.68,-23.45 80.93,-31.18 84.17,-24.97"/>
</g>
<!-- &#45;9&#45;&gt;7 -->
<g id="edge47" class="edge">
<title>&#45;9&#45;&gt;7</title>
<path fill="none" stroke="red" stroke-width="0.14" d="M265.98,-82.5C265.71,-71.97 265.23,-54.11 264.85,-39.51"/>
<polygon fill="red" stroke="red" stroke-width="0.14" points="268.36,-39.72 264.59,-29.82 261.36,-39.91 268.36,-39.72"/>
</g>
<!-- &#45;10 -->
<g id="node10" class="node">
<title>&#45;10</title>
<polygon fill="lightgray" stroke="black" points="813.22,-174.96 785.22,-174.96 785.22,-155.71 813.22,-155.71 813.22,-174.96"/>
<text text-anchor="middle" x="799.22" y="-162.41" font-family="Times New Roman,serif" font-size="9.00">&#45;10</text>
</g>
<!-- &#45;11 -->
<g id="node11" class="node">
<title>&#45;11</title>
<polygon fill="lightgray" stroke="black" points="767.22,-174.96 739.22,-174.96 739.22,-155.71 767.22,-155.71 767.22,-174.96"/>
<text text-anchor="middle" x="753.22" y="-162.41" font-family="Times New Roman,serif" font-size="9.00">&#45;11</text>
</g>
<!-- &#45;11&#45;&gt;1 -->
<g id="edge46" class="edge">
<title>&#45;11&#45;&gt;1</title>
<path fill="none" stroke="green" stroke-width="0.27" d="M738.78,-158.35C735.98,-157.35 733.03,-156.41 730.22,-155.71 670.42,-140.79 499.89,-162.17 455.22,-119.71 433.87,-99.41 431.83,-63.69 433.27,-39.87"/>
<polygon fill="green" stroke="green" stroke-width="0.27" points="436.75,-40.23 434.12,-29.97 429.78,-39.63 436.75,-40.23"/>
</g>
<!-- &#45;11&#45;&gt;4 -->
<g id="edge37" class="edge">
<title>&#45;11&#45;&gt;4</title>
<path fill="none" stroke="green" stroke-width="0.26" d="M767.64,-158.26C770.45,-157.27 773.39,-156.36 776.22,-155.71 861.49,-136.18 1109.26,-184.33 1168.22,-119.71 1253.93,-25.77 962.48,-16.43 873.33,-15.74"/>
<polygon fill="green" stroke="green" stroke-width="0.26" points="873.46,-12.24 863.44,-15.7 873.42,-19.24 873.46,-12.24"/>
</g>
<!-- 34522 -->
<g id="node29" class="node">
<title>34522</title>
<ellipse fill="white" stroke="black" cx="537.22" cy="-92.49" rx="27.22" ry="27.22"/>
<text text-anchor="middle" x="537.22" y="-89.56" font-family="Times New Roman,serif" font-size="9.00">34522</text>
</g>
<!-- &#45;11&#45;&gt;34522 -->
<g id="edge60" class="edge">
<title>&#45;11&#45;&gt;34522</title>
<path fill="none" stroke="green" stroke-width="0.3" d="M739.21,-158.74C736.27,-157.66 733.16,-156.59 730.22,-155.71 661.66,-135.09 638.37,-149.39 573.22,-119.71 570.88,-118.64 568.54,-117.41 566.24,-116.08"/>
<polygon fill="green" stroke="green" stroke-width="0.3" points="568.34,-113.26 558.04,-110.78 564.54,-119.14 568.34,-113.26"/>
</g>
<!-- &#45;12 -->
<g id="node12" class="node">
<title>&#45;12</title>
<polygon fill="lightgray" stroke="black" points="860.22,-102.11 832.22,-102.11 832.22,-82.86 860.22,-82.86 860.22,-102.11"/>
<text text-anchor="middle" x="846.22" y="-89.56" font-family="Times New Roman,serif" font-size="9.00">&#45;12</text>
</g>
<!-- &#45;12&#45;&gt;0 -->
<g id="edge62" class="edge">
<title>&#45;12&#45;&gt;0</title>
<path fill="none" stroke="red" stroke-width="0.21" d="M840.64,-82.5C833.64,-71.21 821.39,-51.49 812.03,-36.4"/>
<polygon fill="red" stroke="red" stroke-width="0.21" points="815.06,-34.64 806.81,-27.99 809.11,-38.33 815.06,-34.64"/>
</g>
<!-- &#45;12&#45;&gt;2 -->
<g id="edge15" class="edge">
<title>&#45;12&#45;&gt;2</title>
<path fill="none" stroke="red" stroke-width="0.17" stroke-dasharray="1,5" d="M840.1,-82.41C835.91,-76.81 829.92,-69.84 823.22,-65.26 787.84,-41.12 739.31,-27.26 710.52,-20.64"/>
<polygon fill="red" stroke="red" stroke-width="0.17" points="711.29,-17.23 700.77,-18.51 709.79,-24.07 711.29,-17.23"/>
</g>
<!-- &#45;13 -->
<g id="node13" class="node">
<title>&#45;13</title>
<polygon fill="lightgray" stroke="black" points="982.22,-102.11 954.22,-102.11 954.22,-82.86 982.22,-82.86 982.22,-102.11"/>
<text text-anchor="middle" x="968.22" y="-89.56" font-family="Times New Roman,serif" font-size="9.00">&#45;13</text>
</g>
<!-- &#45;13&#45;&gt;0 -->
<g id="edge41" class="edge">
<title>&#45;13&#45;&gt;0</title>
<path fill="none" stroke="red" stroke-width="0.38" stroke-dasharray="1,5" d="M960.69,-82.61C955.46,-76.94 948.05,-69.83 940.22,-65.26 893.96,-38.28 874.73,-49.68 825.22,-29.26 823.81,-28.68 822.37,-28.05 820.94,-27.39"/>
<polygon fill="red" stroke="red" stroke-width="0.38" points="822.73,-24.37 812.21,-23.06 819.62,-30.64 822.73,-24.37"/>
</g>
<!-- &#45;13&#45;&gt;4 -->
<g id="edge20" class="edge">
<title>&#45;13&#45;&gt;4</title>
<path fill="none" stroke="green" stroke-width="1.33" d="M959.9,-82.6C954.58,-77.2 947.36,-70.39 940.22,-65.26 918.51,-49.66 891.3,-35.62 872.12,-26.51"/>
<polygon fill="green" stroke="green" stroke-width="1.33" points="873.7,-23.38 863.16,-22.35 870.76,-29.73 873.7,-23.38"/>
</g>
<!-- &#45;14 -->
<g id="node14" class="node">
<title>&#45;14</title>
<polygon fill="lightgray" stroke="black" points="492.22,-102.11 464.22,-102.11 464.22,-82.86 492.22,-82.86 492.22,-102.11"/>
<text text-anchor="middle" x="478.22" y="-89.56" font-family="Times New Roman,serif" font-size="9.00">&#45;14</text>
</g>
<!-- &#45;14&#45;&gt;0 -->
<g id="edge22" class="edge">
<title>&#45;14&#45;&gt;0</title>
<path fill="none" stroke="green" stroke-width="0.27" d="M483.71,-82.48C487.79,-76.61 493.9,-69.3 501.22,-65.26 590.27,-16.11 627,-46.63 727.22,-29.26 743.04,-26.52 760.77,-23.2 774.67,-20.54"/>
<polygon fill="green" stroke="green" stroke-width="0.27" points="775.33,-23.98 784.49,-18.65 774.01,-17.1 775.33,-23.98"/>
</g>
<!-- &#45;14&#45;&gt;1 -->
<g id="edge32" class="edge">
<title>&#45;14&#45;&gt;1</title>
<path fill="none" stroke="red" stroke-width="0.15" stroke-dasharray="1,5" d="M473.24,-82.5C467.01,-71.28 456.16,-51.72 447.81,-36.66"/>
<polygon fill="red" stroke="red" stroke-width="0.15" points="451.02,-35.24 443.11,-28.19 444.9,-38.63 451.02,-35.24"/>
</g>
<!-- &#45;14&#45;&gt;6 -->
<g id="edge36" class="edge">
<title>&#45;14&#45;&gt;6</title>
<path fill="none" stroke="green" stroke-width="0.42" stroke-dasharray="1,5" d="M463.98,-85.03C434.84,-71.81 368.19,-41.6 333.35,-25.8"/>
<polygon fill="green" stroke="green" stroke-width="0.42" points="335.16,-22.78 324.61,-21.84 332.27,-29.15 335.16,-22.78"/>
</g>
<!-- &#45;15 -->
<g id="node15" class="node">
<title>&#45;15</title>
<polygon fill="lightgray" stroke="black" points="324.22,-102.11 296.22,-102.11 296.22,-82.86 324.22,-82.86 324.22,-102.11"/>
<text text-anchor="middle" x="310.22" y="-89.56" font-family="Times New Roman,serif" font-size="9.00">&#45;15</text>
</g>
<!-- &#45;15&#45;&gt;0 -->
<g id="edge48" class="edge">
<title>&#45;15&#45;&gt;0</title>
<path fill="none" stroke="red" stroke-width="0.43" stroke-dasharray="1,5" d="M315.45,-82.58C319.5,-76.59 325.67,-69.11 333.22,-65.26 411.57,-25.37 640.14,-41.37 727.22,-29.26 743.12,-27.05 760.85,-23.74 774.74,-20.95"/>
<polygon fill="red" stroke="red" stroke-width="0.43" points="775.21,-24.42 784.3,-18.98 773.8,-17.57 775.21,-24.42"/>
</g>
<!-- &#45;15&#45;&gt;3 -->
<g id="edge8" class="edge">
<title>&#45;15&#45;&gt;3</title>
<path fill="none" stroke="red" stroke-width="0.17" stroke-dasharray="1,5" d="M304.4,-82.49C300.25,-76.77 294.2,-69.64 287.22,-65.26 237.96,-34.36 169.27,-22.43 132.98,-18.08"/>
<polygon fill="red" stroke="red" stroke-width="0.17" points="133.39,-14.61 123.07,-16.99 132.62,-21.57 133.39,-14.61"/>
</g>
<!-- &#45;15&#45;&gt;4 -->
<g id="edge11" class="edge">
<title>&#45;15&#45;&gt;4</title>
<path fill="none" stroke="red" stroke-width="0.27" stroke-dasharray="1,5" d="M315.43,-82.54C319.47,-76.53 325.63,-69.04 333.22,-65.26 430.75,-16.68 717.39,-58.97 822.22,-29.26 823.87,-28.79 825.53,-28.22 827.18,-27.57"/>
<polygon fill="red" stroke="red" stroke-width="0.27" points="828.3,-30.91 835.84,-23.47 825.3,-24.58 828.3,-30.91"/>
</g>
<!-- &#45;15&#45;&gt;6 -->
<g id="edge51" class="edge">
<title>&#45;15&#45;&gt;6</title>
<path fill="none" stroke="red" stroke-width="0.29" d="M310.34,-82.5C310.48,-72.08 310.71,-54.46 310.9,-39.94"/>
<polygon fill="red" stroke="red" stroke-width="0.29" points="314.4,-40.1 311.03,-30.05 307.4,-40 314.4,-40.1"/>
</g>
<!-- &#45;15&#45;&gt;7 -->
<g id="edge27" class="edge">
<title>&#45;15&#45;&gt;7</title>
<path fill="none" stroke="green" stroke-width="1.18" d="M304.76,-82.5C298.1,-71.53 286.6,-52.6 277.54,-37.69"/>
<polygon fill="green" stroke="green" stroke-width="1.18" points="280.6,-35.98 272.41,-29.25 274.61,-39.61 280.6,-35.98"/>
</g>
<!-- &#45;16 -->
<g id="node16" class="node">
<title>&#45;16</title>
<polygon fill="lightgray" stroke="black" points="700.22,-102.11 672.22,-102.11 672.22,-82.86 700.22,-82.86 700.22,-102.11"/>
<text text-anchor="middle" x="686.22" y="-89.56" font-family="Times New Roman,serif" font-size="9.00">&#45;16</text>
</g>
<!-- &#45;16&#45;&gt;2 -->
<g id="edge34" class="edge">
<title>&#45;16&#45;&gt;2</title>
<path fill="none" stroke="red" stroke-width="0.19" stroke-dasharray="1,5" d="M686.22,-82.5C686.22,-71.97 686.22,-54.11 686.22,-39.51"/>
<polygon fill="red" stroke="red" stroke-width="0.19" points="689.72,-39.9 686.22,-29.9 682.72,-39.9 689.72,-39.9"/>
</g>
<!-- &#45;16&#45;&gt;4 -->
<g id="edge14" class="edge">
<title>&#45;16&#45;&gt;4</title>
<path fill="none" stroke="red" stroke-width="0.48" stroke-dasharray="1,5" d="M692.1,-82.57C696.27,-76.89 702.33,-69.77 709.22,-65.26 753.32,-36.39 773.54,-49.48 822.22,-29.26 823.63,-28.68 825.07,-28.04 826.5,-27.38"/>
<polygon fill="red" stroke="red" stroke-width="0.48" points="827.68,-30.7 835.08,-23.12 824.57,-24.43 827.68,-30.7"/>
</g>
<!-- &#45;16&#45;&gt;6 -->
<g id="edge38" class="edge">
<title>&#45;16&#45;&gt;6</title>
<path fill="none" stroke="green" stroke-width="0.47" d="M680.75,-82.44C676.68,-76.54 670.57,-69.23 663.22,-65.26 659.59,-63.3 416.11,-30.04 336.27,-19.17"/>
<polygon fill="green" stroke="green" stroke-width="0.47" points="336.81,-15.71 326.43,-17.83 335.87,-22.65 336.81,-15.71"/>
</g>
<!-- 2&#45;&gt;2 -->
<g id="edge44" class="edge">
<title>2&#45;&gt;2</title>
<path fill="none" stroke="green" stroke-width="0.13" stroke-dasharray="1,5" d="M696.2,-25.92C706.78,-32.9 718.72,-29.19 718.72,-14.77 718.72,-4.63 712.82,0.22 705.64,-0.22"/>
<polygon fill="green" stroke="green" stroke-width="0.13" points="704.61,3.13 696.38,-3.55 706.98,-3.46 704.61,3.13"/>
</g>
<!-- 3&#45;&gt;3 -->
<g id="edge33" class="edge">
<title>3&#45;&gt;3</title>
<path fill="none" stroke="green" stroke-width="0.24" stroke-dasharray="1,5" d="M118.2,-25.92C128.78,-32.9 140.72,-29.19 140.72,-14.77 140.72,-4.63 134.82,0.22 127.64,-0.22"/>
<polygon fill="green" stroke="green" stroke-width="0.24" points="126.77,3.19 118.54,-3.49 129.14,-3.4 126.77,3.19"/>
</g>
<!-- 21280 -->
<g id="node25" class="node">
<title>21280</title>
<ellipse fill="white" stroke="black" cx="1027.22" cy="-92.49" rx="27.22" ry="27.22"/>
<text text-anchor="middle" x="1027.22" y="-89.56" font-family="Times New Roman,serif" font-size="9.00">21280</text>
</g>
<!-- 21280&#45;&gt;4 -->
<g id="edge50" class="edge">
<title>21280&#45;&gt;4</title>
<path fill="none" stroke="green" stroke-width="0.37" d="M1006.2,-74.59C1001.44,-71.22 996.29,-67.91 991.22,-65.26 951.58,-44.55 901.42,-29.5 872.26,-21.74"/>
<polygon fill="green" stroke="green" stroke-width="0.37" points="873.29,-18.39 862.73,-19.26 871.53,-25.16 873.29,-18.39"/>
</g>
<!-- 22252&#45;&gt;0 -->
<g id="edge53" class="edge">
<title>22252&#45;&gt;0</title>
<path fill="none" stroke="red" stroke-width="0.57" d="M633.44,-79.07C642.66,-74.51 653.34,-69.45 663.22,-65.26 701.86,-48.9 747.96,-32.82 775.34,-23.62"/>
<polygon fill="red" stroke="red" stroke-width="0.57" points="776.33,-26.98 784.71,-20.5 774.12,-20.34 776.33,-26.98"/>
</g>
<!-- 22252&#45;&gt;1 -->
<g id="edge59" class="edge">
<title>22252&#45;&gt;1</title>
<path fill="none" stroke="green" stroke-width="0.24" d="M588.17,-74.64C583.41,-71.27 578.27,-67.95 573.22,-65.26 535.59,-45.28 488.15,-30.16 460.12,-22.16"/>
<polygon fill="green" stroke="green" stroke-width="0.24" points="461.31,-18.86 450.74,-19.55 459.43,-25.6 461.31,-18.86"/>
</g>
<!-- 22252&#45;&gt;22252 -->
<g id="edge58" class="edge">
<title>22252&#45;&gt;22252</title>
<path fill="none" stroke="red" stroke-width="0.24" d="M633.41,-105.87C644.64,-107.34 654.44,-102.87 654.44,-92.49 654.44,-85.51 650.02,-81.2 643.71,-79.57"/>
<polygon fill="red" stroke="red" stroke-width="0.24" points="643.93,-76.08 633.78,-79.11 643.6,-83.07 643.93,-76.08"/>
</g>
<!-- 27187&#45;&gt;4 -->
<g id="edge57" class="edge">
<title>27187&#45;&gt;4</title>
<path fill="none" stroke="red" stroke-width="0.19" d="M1078.79,-74.44C1073.91,-71 1068.57,-67.7 1063.22,-65.26 998.42,-35.71 914.32,-22.97 873.15,-18.22"/>
<polygon fill="red" stroke="red" stroke-width="0.19" points="873.56,-14.74 863.24,-17.13 872.8,-21.7 873.56,-14.74"/>
</g>
<!-- 22773 -->
<g id="node28" class="node">
<title>22773</title>
<ellipse fill="white" stroke="black" cx="745.22" cy="-92.49" rx="27.22" ry="27.22"/>
<text text-anchor="middle" x="745.22" y="-89.56" font-family="Times New Roman,serif" font-size="9.00">22773</text>
</g>
<!-- 22773&#45;&gt;1 -->
<g id="edge55" class="edge">
<title>22773&#45;&gt;1</title>
<path fill="none" stroke="green" stroke-width="0.22" d="M724.87,-74.25C719.99,-70.83 714.62,-67.57 709.22,-65.26 623.18,-28.43 510.48,-19 461.15,-16.59"/>
<polygon fill="green" stroke="green" stroke-width="0.22" points="461.56,-13.1 451.42,-16.17 461.26,-20.1 461.56,-13.1"/>
</g>
<!-- 22773&#45;&gt;4 -->
<g id="edge54" class="edge">
<title>22773&#45;&gt;4</title>
<path fill="none" stroke="green" stroke-width="0.61" d="M767.06,-75.43C785.27,-62.04 810.97,-43.15 828.54,-30.23"/>
<polygon fill="green" stroke="green" stroke-width="0.61" points="830.18,-33.37 836.17,-24.63 826.04,-27.73 830.18,-33.37"/>
</g>
<!-- 34522&#45;&gt;1 -->
<g id="edge61" class="edge">
<title>34522&#45;&gt;1</title>
<path fill="none" stroke="green" stroke-width="0.35" d="M515.8,-75.43C498.05,-62.12 473.03,-43.36 455.8,-30.45"/>
<polygon fill="green" stroke="green" stroke-width="0.35" points="458.11,-27.8 448.01,-24.61 453.91,-33.4 458.11,-27.8"/>
</g>
</g>
</svg>
