<?xml version="1.0" encoding="UTF-8" standalone="no"?>
<!DOCTYPE svg PUBLIC "-//W3C//DTD SVG 1.1//EN"
 "http://www.w3.org/Graphics/SVG/1.1/DTD/svg11.dtd">
<!-- Generated by graphviz version 9.0.0 (20230911.1827)
 -->
<!-- Pages: 1 -->
<svg width="758pt" height="254pt"
 viewBox="0.00 0.00 758.02 254.04" xmlns="http://www.w3.org/2000/svg" xmlns:xlink="http://www.w3.org/1999/xlink">
<g id="graph0" class="graph" transform="scale(1 1) rotate(0) translate(4 250.04)">
<polygon fill="white" stroke="none" points="-4,4 -4,-250.04 754.02,-250.04 754.02,4 -4,4"/>
<!-- &#45;1 -->
<g id="node1" class="node">
<title>&#45;1</title>
<polygon fill="lightgray" stroke="black" points="665.77,-179.56 642.27,-179.56 642.27,-160.31 665.77,-160.31 665.77,-179.56"/>
<text text-anchor="middle" x="654.02" y="-167.01" font-family="Times New Roman,serif" font-size="9.00">&#45;1</text>
</g>
<!-- 10 -->
<g id="node22" class="node">
<title>10</title>
<ellipse fill="white" stroke="black" cx="417.02" cy="-95.4" rx="17.68" ry="17.68"/>
<text text-anchor="middle" x="417.02" y="-92.47" font-family="Times New Roman,serif" font-size="9.00">10</text>
</g>
<!-- &#45;1&#45;&gt;10 -->
<g id="edge1" class="edge">
<title>&#45;1&#45;&gt;10</title>
<path fill="none" stroke="red" stroke-width="0.74" d="M646.64,-160.11C642.93,-156.2 638.14,-151.86 633.02,-149.07 571.66,-115.68 489.1,-103.18 445.99,-98.71"/>
<polygon fill="red" stroke="red" stroke-width="0.74" points="446.33,-95.23 436.04,-97.77 445.67,-102.2 446.33,-95.23"/>
</g>
<!-- &#45;2 -->
<g id="node2" class="node">
<title>&#45;2</title>
<polygon fill="lightgray" stroke="black" points="363.77,-179.56 340.27,-179.56 340.27,-160.31 363.77,-160.31 363.77,-179.56"/>
<text text-anchor="middle" x="352.02" y="-167.01" font-family="Times New Roman,serif" font-size="9.00">&#45;2</text>
</g>
<!-- 8 -->
<g id="node21" class="node">
<title>8</title>
<ellipse fill="white" stroke="black" cx="330.02" cy="-95.4" rx="14.5" ry="14.5"/>
<text text-anchor="middle" x="330.02" y="-92.47" font-family="Times New Roman,serif" font-size="9.00">8</text>
</g>
<!-- &#45;2&#45;&gt;8 -->
<g id="edge2" class="edge">
<title>&#45;2&#45;&gt;8</title>
<path fill="none" stroke="red" stroke-width="0.21" d="M349.32,-160.04C346.29,-150.03 341.24,-133.37 337.06,-119.61"/>
<polygon fill="red" stroke="red" stroke-width="0.21" points="340.43,-118.66 334.18,-110.11 333.73,-120.69 340.43,-118.66"/>
</g>
<!-- &#45;2&#45;&gt;10 -->
<g id="edge3" class="edge">
<title>&#45;2&#45;&gt;10</title>
<path fill="none" stroke="green" stroke-width="0.73" d="M359.99,-160.04C369.43,-149.51 385.45,-131.63 398.11,-117.5"/>
<polygon fill="green" stroke="green" stroke-width="0.73" points="400.67,-119.89 404.74,-110.11 395.46,-115.22 400.67,-119.89"/>
</g>
<!-- &#45;3 -->
<g id="node3" class="node">
<title>&#45;3</title>
<polygon fill="lightgray" stroke="black" points="405.77,-179.56 382.27,-179.56 382.27,-160.31 405.77,-160.31 405.77,-179.56"/>
<text text-anchor="middle" x="394.02" y="-167.01" font-family="Times New Roman,serif" font-size="9.00">&#45;3</text>
</g>
<!-- &#45;3&#45;&gt;8 -->
<g id="edge4" class="edge">
<title>&#45;3&#45;&gt;8</title>
<path fill="none" stroke="green" stroke-width="0.31" d="M386.17,-160.04C376.24,-148.78 358.88,-129.11 346.09,-114.61"/>
<polygon fill="green" stroke="green" stroke-width="0.31" points="348.73,-112.3 339.48,-107.12 343.48,-116.94 348.73,-112.3"/>
</g>
<!-- &#45;3&#45;&gt;10 -->
<g id="edge5" class="edge">
<title>&#45;3&#45;&gt;10</title>
<path fill="none" stroke="red" stroke-width="0.43" d="M396.84,-160.04C399.8,-150.73 404.57,-135.65 408.74,-122.52"/>
<polygon fill="red" stroke="red" stroke-width="0.43" points="412.02,-123.75 411.71,-113.16 405.35,-121.63 412.02,-123.75"/>
</g>
<!-- &#45;4 -->
<g id="node4" class="node">
<title>&#45;4</title>
<polygon fill="lightgray" stroke="black" points="447.77,-179.56 424.27,-179.56 424.27,-160.31 447.77,-160.31 447.77,-179.56"/>
<text text-anchor="middle" x="436.02" y="-167.01" font-family="Times New Roman,serif" font-size="9.00">&#45;4</text>
</g>
<!-- &#45;4&#45;&gt;8 -->
<g id="edge6" class="edge">
<title>&#45;4&#45;&gt;8</title>
<path fill="none" stroke="red" stroke-width="0.37" d="M427.39,-160.01C423.72,-156.43 419.32,-152.38 415.02,-149.07 394.59,-133.35 369.26,-118.14 351.59,-108.14"/>
<polygon fill="red" stroke="red" stroke-width="0.37" points="353.58,-105.24 343.14,-103.43 350.17,-111.36 353.58,-105.24"/>
</g>
<!-- &#45;4&#45;&gt;10 -->
<g id="edge7" class="edge">
<title>&#45;4&#45;&gt;10</title>
<path fill="none" stroke="green" stroke-width="0.63" d="M433.69,-160.04C431.29,-150.88 427.43,-136.14 424.03,-123.16"/>
<polygon fill="green" stroke="green" stroke-width="0.63" points="427.49,-122.53 421.57,-113.75 420.72,-124.31 427.49,-122.53"/>
</g>
<!-- &#45;5 -->
<g id="node5" class="node">
<title>&#45;5</title>
<polygon fill="lightgray" stroke="black" points="489.77,-179.56 466.27,-179.56 466.27,-160.31 489.77,-160.31 489.77,-179.56"/>
<text text-anchor="middle" x="478.02" y="-167.01" font-family="Times New Roman,serif" font-size="9.00">&#45;5</text>
</g>
<!-- &#45;5&#45;&gt;8 -->
<g id="edge8" class="edge">
<title>&#45;5&#45;&gt;8</title>
<path fill="none" stroke="red" stroke-width="1.23" stroke-dasharray="1,5" d="M470.04,-160.06C466.35,-156.32 461.74,-152.13 457.02,-149.07 424.2,-127.79 381.35,-112.17 354.76,-103.68"/>
<polygon fill="red" stroke="red" stroke-width="1.23" points="356.16,-100.45 345.57,-100.84 354.09,-107.14 356.16,-100.45"/>
</g>
<!-- &#45;5&#45;&gt;10 -->
<g id="edge9" class="edge">
<title>&#45;5&#45;&gt;10</title>
<path fill="none" stroke="red" stroke-width="0.4" stroke-dasharray="1,5" d="M470.54,-160.04C461.66,-149.48 446.55,-131.51 434.65,-117.35"/>
<polygon fill="red" stroke="red" stroke-width="0.4" points="437.58,-115.41 428.47,-110.01 432.22,-119.91 437.58,-115.41"/>
</g>
<!-- &#45;6 -->
<g id="node6" class="node">
<title>&#45;6</title>
<polygon fill="lightgray" stroke="black" points="531.77,-179.56 508.27,-179.56 508.27,-160.31 531.77,-160.31 531.77,-179.56"/>
<text text-anchor="middle" x="520.02" y="-167.01" font-family="Times New Roman,serif" font-size="9.00">&#45;6</text>
</g>
<!-- &#45;6&#45;&gt;8 -->
<g id="edge10" class="edge">
<title>&#45;6&#45;&gt;8</title>
<path fill="none" stroke="red" stroke-width="0.18" stroke-dasharray="1,5" d="M512.17,-159.85C508.5,-156.07 503.87,-151.91 499.02,-149.07 486.25,-141.6 397.02,-115.55 353.62,-103.11"/>
<polygon fill="red" stroke="red" stroke-width="0.18" points="354.73,-99.79 344.16,-100.4 352.81,-106.52 354.73,-99.79"/>
</g>
<!-- &#45;6&#45;&gt;10 -->
<g id="edge11" class="edge">
<title>&#45;6&#45;&gt;10</title>
<path fill="none" stroke="green" stroke-width="0.39" d="M511.36,-160.05C507.69,-156.47 503.29,-152.42 499.02,-149.07 480.36,-134.46 457.57,-120.07 440.76,-110.03"/>
<polygon fill="green" stroke="green" stroke-width="0.39" points="443.01,-107.29 432.61,-105.23 439.45,-113.33 443.01,-107.29"/>
</g>
<!-- &#45;7 -->
<g id="node7" class="node">
<title>&#45;7</title>
<polygon fill="lightgray" stroke="black" points="99.77,-179.56 76.27,-179.56 76.27,-160.31 99.77,-160.31 99.77,-179.56"/>
<text text-anchor="middle" x="88.02" y="-167.01" font-family="Times New Roman,serif" font-size="9.00">&#45;7</text>
</g>
<!-- &#45;7&#45;&gt;8 -->
<g id="edge12" class="edge">
<title>&#45;7&#45;&gt;8</title>
<path fill="none" stroke="green" stroke-width="0.15" d="M95.4,-160.1C99.11,-156.18 103.9,-151.84 109.02,-149.07 174.29,-113.78 262.98,-101.91 305.42,-98.1"/>
<polygon fill="green" stroke="green" stroke-width="0.15" points="305.5,-101.6 315.18,-97.29 304.93,-94.63 305.5,-101.6"/>
</g>
<!-- &#45;7&#45;&gt;10 -->
<g id="edge13" class="edge">
<title>&#45;7&#45;&gt;10</title>
<path fill="none" stroke="red" stroke-width="0.23" d="M95.29,-159.87C98.97,-155.9 103.77,-151.59 109.02,-149.07 215.01,-98.26 256.91,-141.26 371.02,-113.07 377.63,-111.44 384.6,-109.2 391.06,-106.89"/>
<polygon fill="red" stroke="red" stroke-width="0.23" points="392.22,-110.19 400.35,-103.4 389.76,-103.64 392.22,-110.19"/>
</g>
<!-- &#45;8 -->
<g id="node8" class="node">
<title>&#45;8</title>
<polygon fill="lightgray" stroke="black" points="141.77,-179.56 118.27,-179.56 118.27,-160.31 141.77,-160.31 141.77,-179.56"/>
<text text-anchor="middle" x="130.02" y="-167.01" font-family="Times New Roman,serif" font-size="9.00">&#45;8</text>
</g>
<!-- &#45;8&#45;&gt;8 -->
<g id="edge14" class="edge">
<title>&#45;8&#45;&gt;8</title>
<path fill="none" stroke="red" stroke-width="0.26" d="M137.86,-159.81C141.52,-156.03 146.15,-151.88 151.02,-149.07 201.67,-119.95 269.79,-105.72 305.63,-99.85"/>
<polygon fill="red" stroke="red" stroke-width="0.26" points="305.93,-103.35 315.27,-98.35 304.85,-96.43 305.93,-103.35"/>
</g>
<!-- &#45;8&#45;&gt;10 -->
<g id="edge15" class="edge">
<title>&#45;8&#45;&gt;10</title>
<path fill="none" stroke="green" stroke-width="0.39" d="M137.31,-159.93C141.01,-155.98 145.81,-151.66 151.02,-149.07 239.81,-105.1 275.15,-138.07 371.02,-113.07 377.6,-111.36 384.57,-109.09 391.03,-106.77"/>
<polygon fill="green" stroke="green" stroke-width="0.39" points="391.96,-110.16 400.1,-103.38 389.51,-103.6 391.96,-110.16"/>
</g>
<!-- &#45;9 -->
<g id="node9" class="node">
<title>&#45;9</title>
<polygon fill="lightgray" stroke="black" points="183.77,-179.56 160.27,-179.56 160.27,-160.31 183.77,-160.31 183.77,-179.56"/>
<text text-anchor="middle" x="172.02" y="-167.01" font-family="Times New Roman,serif" font-size="9.00">&#45;9</text>
</g>
<!-- &#45;9&#45;&gt;8 -->
<g id="edge16" class="edge">
<title>&#45;9&#45;&gt;8</title>
<path fill="none" stroke="red" stroke-width="0.1" d="M179.97,-160C183.65,-156.25 188.27,-152.07 193.02,-149.07 229.7,-125.96 278.12,-110.31 306.49,-102.4"/>
<polygon fill="red" stroke="red" stroke-width="0.1" points="307.08,-105.87 315.82,-99.88 305.26,-99.11 307.08,-105.87"/>
</g>
<!-- &#45;9&#45;&gt;10 -->
<g id="edge17" class="edge">
<title>&#45;9&#45;&gt;10</title>
<path fill="none" stroke="red" stroke-width="0.31" d="M179.36,-160.02C183.06,-156.08 187.86,-151.75 193.02,-149.07 264.67,-111.91 293.31,-134.89 371.02,-113.07 377.57,-111.24 384.52,-108.92 390.98,-106.6"/>
<polygon fill="red" stroke="red" stroke-width="0.31" points="392.02,-109.95 400.17,-103.18 389.58,-103.38 392.02,-109.95"/>
</g>
<!-- &#45;10 -->
<g id="node10" class="node">
<title>&#45;10</title>
<polygon fill="lightgray" stroke="black" points="750.02,-179.56 722.02,-179.56 722.02,-160.31 750.02,-160.31 750.02,-179.56"/>
<text text-anchor="middle" x="736.02" y="-167.01" font-family="Times New Roman,serif" font-size="9.00">&#45;10</text>
</g>
<!-- &#45;10&#45;&gt;10 -->
<g id="edge18" class="edge">
<title>&#45;10&#45;&gt;10</title>
<path fill="none" stroke="green" stroke-width="0.28" d="M725.52,-159.81C720.52,-155.93 714.29,-151.71 708.02,-149.07 617,-110.8 498.5,-100.31 445.19,-97.45"/>
<polygon fill="green" stroke="green" stroke-width="0.28" points="445.42,-93.96 435.26,-96.97 445.08,-100.95 445.42,-93.96"/>
</g>
<!-- 651 -->
<g id="node23" class="node">
<title>651</title>
<ellipse fill="white" stroke="black" cx="587.02" cy="-20.86" rx="20.86" ry="20.86"/>
<text text-anchor="middle" x="587.02" y="-17.93" font-family="Times New Roman,serif" font-size="9.00">651</text>
</g>
<!-- &#45;10&#45;&gt;651 -->
<g id="edge47" class="edge">
<title>&#45;10&#45;&gt;651</title>
<path fill="none" stroke="red" stroke-width="0.2" d="M727.15,-160.17C704.08,-137.41 641.74,-75.87 608.53,-43.09"/>
<polygon fill="red" stroke="red" stroke-width="0.2" points="611.32,-40.92 601.74,-36.39 606.4,-45.9 611.32,-40.92"/>
</g>
<!-- &#45;11 -->
<g id="node11" class="node">
<title>&#45;11</title>
<polygon fill="lightgray" stroke="black" points="230.02,-179.56 202.02,-179.56 202.02,-160.31 230.02,-160.31 230.02,-179.56"/>
<text text-anchor="middle" x="216.02" y="-167.01" font-family="Times New Roman,serif" font-size="9.00">&#45;11</text>
</g>
<!-- &#45;11&#45;&gt;8 -->
<g id="edge19" class="edge">
<title>&#45;11&#45;&gt;8</title>
<path fill="none" stroke="green" stroke-width="0.29" d="M225.54,-160.01C229.56,-156.43 234.38,-152.38 239.02,-149.07 261.46,-133.1 289.06,-117.66 307.94,-107.67"/>
<polygon fill="green" stroke="green" stroke-width="0.29" points="309.56,-110.77 316.81,-103.05 306.32,-104.57 309.56,-110.77"/>
</g>
<!-- &#45;11&#45;&gt;10 -->
<g id="edge20" class="edge">
<title>&#45;11&#45;&gt;10</title>
<path fill="none" stroke="red" stroke-width="0.11" d="M224.29,-160.19C228.39,-156.3 233.62,-151.95 239.02,-149.07 292.7,-120.5 313.06,-131.45 371.02,-113.07 377.66,-110.97 384.76,-108.5 391.35,-106.12"/>
<polygon fill="red" stroke="red" stroke-width="0.11" points="392.19,-109.54 400.37,-102.81 389.77,-102.97 392.19,-109.54"/>
</g>
<!-- &#45;12 -->
<g id="node12" class="node">
<title>&#45;12</title>
<polygon fill="lightgray" stroke="black" points="578.02,-179.56 550.02,-179.56 550.02,-160.31 578.02,-160.31 578.02,-179.56"/>
<text text-anchor="middle" x="564.02" y="-167.01" font-family="Times New Roman,serif" font-size="9.00">&#45;12</text>
</g>
<!-- &#45;12&#45;&gt;8 -->
<g id="edge21" class="edge">
<title>&#45;12&#45;&gt;8</title>
<path fill="none" stroke="green" stroke-width="0.21" d="M555.8,-160.11C551.7,-156.2 546.47,-151.86 541.02,-149.07 479.61,-117.64 456.83,-130.32 390.02,-113.07 377.96,-109.96 364.61,-106.27 353.57,-103.16"/>
<polygon fill="green" stroke="green" stroke-width="0.21" points="354.69,-99.84 344.11,-100.47 352.77,-106.57 354.69,-99.84"/>
</g>
<!-- &#45;12&#45;&gt;10 -->
<g id="edge22" class="edge">
<title>&#45;12&#45;&gt;10</title>
<path fill="none" stroke="green" stroke-width="0.14" stroke-dasharray="1,5" d="M555.14,-160.12C551.07,-156.39 546.04,-152.2 541.02,-149.07 509.47,-129.43 469.31,-113.87 443.39,-104.9"/>
<polygon fill="green" stroke="green" stroke-width="0.14" points="444.66,-101.64 434.07,-101.75 442.42,-108.27 444.66,-101.64"/>
</g>
<!-- &#45;12&#45;&gt;651 -->
<g id="edge46" class="edge">
<title>&#45;12&#45;&gt;651</title>
<path fill="none" stroke="red" stroke-width="0.1" stroke-dasharray="1,5" d="M565.39,-160.17C568.66,-139.27 577.04,-85.68 582.36,-51.67"/>
<polygon fill="red" stroke="red" stroke-width="0.1" points="585.79,-52.38 583.88,-41.96 578.88,-51.3 585.79,-52.38"/>
</g>
<!-- &#45;13 -->
<g id="node13" class="node">
<title>&#45;13</title>
<polygon fill="lightgray" stroke="black" points="276.02,-179.56 248.02,-179.56 248.02,-160.31 276.02,-160.31 276.02,-179.56"/>
<text text-anchor="middle" x="262.02" y="-167.01" font-family="Times New Roman,serif" font-size="9.00">&#45;13</text>
</g>
<!-- &#45;13&#45;&gt;8 -->
<g id="edge23" class="edge">
<title>&#45;13&#45;&gt;8</title>
<path fill="none" stroke="green" stroke-width="0.27" d="M270.36,-160.04C281.01,-148.68 299.7,-128.74 313.33,-114.2"/>
<polygon fill="green" stroke="green" stroke-width="0.27" points="315.74,-116.76 320.02,-107.07 310.63,-111.97 315.74,-116.76"/>
</g>
<!-- &#45;13&#45;&gt;10 -->
<g id="edge24" class="edge">
<title>&#45;13&#45;&gt;10</title>
<path fill="none" stroke="red" stroke-width="0.57" d="M270.87,-160.06C274.94,-156.33 279.97,-152.14 285.02,-149.07 294.43,-143.36 354.82,-120.03 390.58,-106.41"/>
<polygon fill="red" stroke="red" stroke-width="0.57" points="391.46,-109.82 399.56,-102.99 388.97,-103.28 391.46,-109.82"/>
</g>
<!-- &#45;14 -->
<g id="node14" class="node">
<title>&#45;14</title>
<polygon fill="lightgray" stroke="black" points="51.02,-246.04 23.02,-246.04 23.02,-226.79 51.02,-226.79 51.02,-246.04"/>
<text text-anchor="middle" x="37.02" y="-233.49" font-family="Times New Roman,serif" font-size="9.00">&#45;14</text>
</g>
<!-- &#45;14&#45;&gt;8 -->
<g id="edge25" class="edge">
<title>&#45;14&#45;&gt;8</title>
<path fill="none" stroke="red" stroke-width="0.1" stroke-dasharray="1,5" d="M28.86,-226.54C14.31,-209.64 -12.82,-172.41 7.02,-149.07 45.53,-103.77 236.98,-97.33 305.55,-96.49"/>
<polygon fill="red" stroke="red" stroke-width="0.1" points="305.33,-100 315.3,-96.4 305.27,-93 305.33,-100"/>
</g>
<!-- &#45;14&#45;&gt;10 -->
<g id="edge26" class="edge">
<title>&#45;14&#45;&gt;10</title>
<path fill="none" stroke="green" stroke-width="0.41" stroke-dasharray="1,5" d="M51.34,-235.56C141.75,-236.27 631.05,-237.94 675.02,-190.79 743.52,-117.33 524.73,-100.85 444.96,-97.32"/>
<polygon fill="green" stroke="green" stroke-width="0.41" points="445.42,-93.84 435.29,-96.93 445.14,-100.83 445.42,-93.84"/>
</g>
<!-- 533 -->
<g id="node24" class="node">
<title>533</title>
<ellipse fill="white" stroke="black" cx="37.02" cy="-169.93" rx="20.86" ry="20.86"/>
<text text-anchor="middle" x="37.02" y="-167.01" font-family="Times New Roman,serif" font-size="9.00">533</text>
</g>
<!-- &#45;14&#45;&gt;533 -->
<g id="edge44" class="edge">
<title>&#45;14&#45;&gt;533</title>
<path fill="none" stroke="green" stroke-width="0.11" d="M37.02,-226.45C37.02,-219.86 37.02,-210.5 37.02,-201.34"/>
<polygon fill="green" stroke="green" stroke-width="0.11" points="40.52,-201.4 37.02,-191.4 33.52,-201.4 40.52,-201.4"/>
</g>
<!-- &#45;15 -->
<g id="node15" class="node">
<title>&#45;15</title>
<polygon fill="lightgray" stroke="black" points="624.02,-179.56 596.02,-179.56 596.02,-160.31 624.02,-160.31 624.02,-179.56"/>
<text text-anchor="middle" x="610.02" y="-167.01" font-family="Times New Roman,serif" font-size="9.00">&#45;15</text>
</g>
<!-- &#45;15&#45;&gt;8 -->
<g id="edge27" class="edge">
<title>&#45;15&#45;&gt;8</title>
<path fill="none" stroke="green" stroke-width="0.4" stroke-dasharray="1,5" d="M601.86,-159.98C597.78,-156.04 592.54,-151.72 587.02,-149.07 506.74,-110.64 476.77,-133.01 390.02,-113.07 378.01,-110.31 364.8,-106.7 353.84,-103.55"/>
<polygon fill="green" stroke="green" stroke-width="0.4" points="354.91,-100.22 344.33,-100.76 352.94,-106.94 354.91,-100.22"/>
</g>
<!-- &#45;15&#45;&gt;10 -->
<g id="edge28" class="edge">
<title>&#45;15&#45;&gt;10</title>
<path fill="none" stroke="red" stroke-width="0.17" d="M601.28,-159.87C597.24,-156.1 592.19,-151.94 587.02,-149.07 540.37,-123.2 479.33,-108.27 444.52,-101.29"/>
<polygon fill="red" stroke="red" stroke-width="0.17" points="445.34,-97.88 434.86,-99.42 444.01,-104.75 445.34,-97.88"/>
</g>
<!-- &#45;15&#45;&gt;651 -->
<g id="edge48" class="edge">
<title>&#45;15&#45;&gt;651</title>
<path fill="none" stroke="green" stroke-width="0.23" d="M608.65,-160.17C605.38,-139.27 597,-85.68 591.68,-51.67"/>
<polygon fill="green" stroke="green" stroke-width="0.23" points="595.2,-51.5 590.2,-42.16 588.28,-52.58 595.2,-51.5"/>
</g>
<!-- &#45;16 -->
<g id="node16" class="node">
<title>&#45;16</title>
<polygon fill="lightgray" stroke="black" points="322.02,-179.56 294.02,-179.56 294.02,-160.31 322.02,-160.31 322.02,-179.56"/>
<text text-anchor="middle" x="308.02" y="-167.01" font-family="Times New Roman,serif" font-size="9.00">&#45;16</text>
</g>
<!-- &#45;16&#45;&gt;8 -->
<g id="edge29" class="edge">
<title>&#45;16&#45;&gt;8</title>
<path fill="none" stroke="red" stroke-width="0.12" d="M310.72,-160.04C313.79,-149.93 318.91,-133.05 323.1,-119.21"/>
<polygon fill="red" stroke="red" stroke-width="0.12" points="326.35,-120.56 325.9,-109.98 319.65,-118.53 326.35,-120.56"/>
</g>
<!-- &#45;16&#45;&gt;10 -->
<g id="edge30" class="edge">
<title>&#45;16&#45;&gt;10</title>
<path fill="none" stroke="green" stroke-width="0.3" d="M317.58,-160.07C321.61,-156.5 326.42,-152.44 331.02,-149.07 350.94,-134.52 374.99,-120.03 392.58,-109.94"/>
<polygon fill="green" stroke="green" stroke-width="0.3" points="394.26,-113.01 401.24,-105.04 390.81,-106.92 394.26,-113.01"/>
</g>
<!-- 0 -->
<g id="node17" class="node">
<title>0</title>
<ellipse fill="lightblue" stroke="black" cx="287.02" cy="-20.86" rx="14.5" ry="14.5"/>
<text text-anchor="middle" x="287.02" y="-17.93" font-family="Times New Roman,serif" font-size="9.00">0</text>
</g>
<!-- 0&#45;&gt;0 -->
<g id="edge38" class="edge">
<title>0&#45;&gt;0</title>
<path fill="none" stroke="green" stroke-width="0.15" d="M297,-31.56C307.58,-38.26 319.52,-34.69 319.52,-20.86 319.52,-11.14 313.62,-6.49 306.44,-6.91"/>
<polygon fill="green" stroke="green" stroke-width="0.15" points="305.53,-3.52 297.21,-10.09 307.81,-10.14 305.53,-3.52"/>
</g>
<!-- 1 -->
<g id="node18" class="node">
<title>1</title>
<ellipse fill="lightblue" stroke="black" cx="352.02" cy="-20.86" rx="14.5" ry="14.5"/>
<text text-anchor="middle" x="352.02" y="-17.93" font-family="Times New Roman,serif" font-size="9.00">1</text>
</g>
<!-- 1&#45;&gt;1 -->
<g id="edge39" class="edge">
<title>1&#45;&gt;1</title>
<path fill="none" stroke="red" stroke-width="0.31" stroke-dasharray="1,5" d="M362,-31.56C372.58,-38.26 384.52,-34.69 384.52,-20.86 384.52,-11.35 378.88,-6.69 371.91,-6.89"/>
<polygon fill="red" stroke="red" stroke-width="0.31" points="370.85,-3.55 362.45,-10.01 373.05,-10.2 370.85,-3.55"/>
</g>
<!-- 2 -->
<g id="node19" class="node">
<title>2</title>
<ellipse fill="lightblue" stroke="black" cx="417.02" cy="-20.86" rx="14.5" ry="14.5"/>
<text text-anchor="middle" x="417.02" y="-17.93" font-family="Times New Roman,serif" font-size="9.00">2</text>
</g>
<!-- 2&#45;&gt;2 -->
<g id="edge40" class="edge">
<title>2&#45;&gt;2</title>
<path fill="none" stroke="green" stroke-width="0.69" d="M427,-31.56C437.58,-38.26 449.52,-34.69 449.52,-20.86 449.52,-11.57 444.13,-6.91 437.39,-6.88"/>
<polygon fill="green" stroke="green" stroke-width="0.69" points="436.47,-3.5 427.99,-9.85 438.58,-10.18 436.47,-3.5"/>
</g>
<!-- 3 -->
<g id="node20" class="node">
<title>3</title>
<ellipse fill="lightblue" stroke="black" cx="482.02" cy="-20.86" rx="14.5" ry="14.5"/>
<text text-anchor="middle" x="482.02" y="-17.93" font-family="Times New Roman,serif" font-size="9.00">3</text>
</g>
<!-- 3&#45;&gt;3 -->
<g id="edge41" class="edge">
<title>3&#45;&gt;3</title>
<path fill="none" stroke="green" stroke-width="0.15" d="M492,-31.56C502.58,-38.26 514.52,-34.69 514.52,-20.86 514.52,-11.14 508.62,-6.49 501.44,-6.91"/>
<polygon fill="green" stroke="green" stroke-width="0.15" points="500.53,-3.52 492.22,-10.09 502.82,-10.14 500.53,-3.52"/>
</g>
<!-- 8&#45;&gt;0 -->
<g id="edge31" class="edge">
<title>8&#45;&gt;0</title>
<path fill="none" stroke="green" stroke-width="0.25" d="M322.92,-82.42C316.47,-71.54 306.82,-55.26 299.15,-42.32"/>
<polygon fill="green" stroke="green" stroke-width="0.25" points="302.3,-40.76 294.19,-33.94 296.27,-44.33 302.3,-40.76"/>
</g>
<!-- 8&#45;&gt;1 -->
<g id="edge32" class="edge">
<title>8&#45;&gt;1</title>
<path fill="none" stroke="green" stroke-width="0.2" d="M334.06,-81.09C337.13,-70.97 341.43,-56.79 345.05,-44.85"/>
<polygon fill="green" stroke="green" stroke-width="0.2" points="348.37,-45.96 347.92,-35.37 341.67,-43.93 348.37,-45.96"/>
</g>
<!-- 8&#45;&gt;2 -->
<g id="edge33" class="edge">
<title>8&#45;&gt;2</title>
<path fill="none" stroke="green" stroke-width="0.29" d="M340.69,-85.5C355.04,-73.54 380.79,-52.07 398.37,-37.41"/>
<polygon fill="green" stroke="green" stroke-width="0.29" points="400.49,-40.2 405.93,-31.1 396.01,-34.82 400.49,-40.2"/>
</g>
<!-- 8&#45;&gt;8 -->
<g id="edge42" class="edge">
<title>8&#45;&gt;8</title>
<path fill="none" stroke="green" stroke-width="0.15" d="M340,-106.09C350.58,-112.79 362.52,-109.23 362.52,-95.4 362.52,-85.67 356.62,-81.02 349.44,-81.45"/>
<polygon fill="green" stroke="green" stroke-width="0.15" points="348.53,-78.06 340.21,-84.63 350.81,-84.68 348.53,-78.06"/>
</g>
<!-- 10&#45;&gt;0 -->
<g id="edge34" class="edge">
<title>10&#45;&gt;0</title>
<path fill="none" stroke="red" stroke-width="0.98" d="M401.6,-85.79C378.66,-72.99 335.45,-48.88 309.15,-34.21"/>
<polygon fill="red" stroke="red" stroke-width="0.98" points="311.07,-31.27 300.63,-29.45 307.66,-37.38 311.07,-31.27"/>
</g>
<!-- 10&#45;&gt;1 -->
<g id="edge35" class="edge">
<title>10&#45;&gt;1</title>
<path fill="none" stroke="green" stroke-width="1.21" d="M405.4,-81.43C395.29,-70.15 380.51,-53.65 369.07,-40.88"/>
<polygon fill="green" stroke="green" stroke-width="1.21" points="371.94,-38.84 362.66,-33.73 366.73,-43.52 371.94,-38.84"/>
</g>
<!-- 10&#45;&gt;2 -->
<g id="edge36" class="edge">
<title>10&#45;&gt;2</title>
<path fill="none" stroke="red" stroke-width="1.35" d="M417.02,-77.57C417.02,-68.63 417.02,-57.44 417.02,-47.44"/>
<polygon fill="red" stroke="red" stroke-width="1.35" points="420.52,-47.72 417.02,-37.72 413.52,-47.72 420.52,-47.72"/>
</g>
<!-- 10&#45;&gt;3 -->
<g id="edge37" class="edge">
<title>10&#45;&gt;3</title>
<path fill="none" stroke="green" stroke-width="0.65" d="M428.64,-81.43C438.85,-70.04 453.82,-53.33 465.31,-40.51"/>
<polygon fill="green" stroke="green" stroke-width="0.65" points="467.89,-42.88 471.95,-33.09 462.67,-38.21 467.89,-42.88"/>
</g>
<!-- 10&#45;&gt;10 -->
<g id="edge43" class="edge">
<title>10&#45;&gt;10</title>
<path fill="none" stroke="red" stroke-width="0.48" stroke-dasharray="1,5" d="M430.57,-107.41C441.46,-112.21 452.7,-108.21 452.7,-95.4 452.7,-86.79 447.63,-82.16 440.99,-81.5"/>
<polygon fill="red" stroke="red" stroke-width="0.48" points="440.5,-78.04 431.28,-83.26 441.74,-84.92 440.5,-78.04"/>
</g>
<!-- 10&#45;&gt;651 -->
<g id="edge49" class="edge">
<title>10&#45;&gt;651</title>
<path fill="none" stroke="green" stroke-width="0.16" d="M433.32,-87.44C462.31,-75.07 523.14,-49.12 558.97,-33.83"/>
<polygon fill="green" stroke="green" stroke-width="0.16" points="559.89,-37.24 567.72,-30.1 557.15,-30.8 559.89,-37.24"/>
</g>
<!-- 533&#45;&gt;8 -->
<g id="edge45" class="edge">
<title>533&#45;&gt;8</title>
<path fill="none" stroke="red" stroke-width="0.21" d="M53.51,-156.38C57.74,-153.63 62.4,-150.98 67.02,-149.07 150.09,-114.81 257.36,-102.27 305.15,-98.17"/>
<polygon fill="red" stroke="red" stroke-width="0.21" points="305.2,-101.68 314.88,-97.39 304.63,-94.7 305.2,-101.68"/>
</g>
</g>
</svg>
