<?xml version="1.0" encoding="utf-8" standalone="no"?>
<!DOCTYPE svg PUBLIC "-//W3C//DTD SVG 1.1//EN"
  "http://www.w3.org/Graphics/SVG/1.1/DTD/svg11.dtd">
<svg xmlns:xlink="http://www.w3.org/1999/xlink" width="460.8pt" height="345.6pt" viewBox="0 0 460.8 345.6" xmlns="http://www.w3.org/2000/svg" version="1.1">
 <metadata>
  <rdf:RDF xmlns:dc="http://purl.org/dc/elements/1.1/" xmlns:cc="http://creativecommons.org/ns#" xmlns:rdf="http://www.w3.org/1999/02/22-rdf-syntax-ns#">
   <cc:Work>
    <dc:type rdf:resource="http://purl.org/dc/dcmitype/StillImage"/>
    <dc:date>2023-12-23T18:41:11.872264</dc:date>
    <dc:format>image/svg+xml</dc:format>
    <dc:creator>
     <cc:Agent>
      <dc:title>Matplotlib v3.6.3, https://matplotlib.org/</dc:title>
     </cc:Agent>
    </dc:creator>
   </cc:Work>
  </rdf:RDF>
 </metadata>
 <defs>
  <style type="text/css">*{stroke-linejoin: round; stroke-linecap: butt}</style>
 </defs>
 <g id="figure_1">
  <g id="patch_1">
   <path d="M 0 345.6 
L 460.8 345.6 
L 460.8 0 
L 0 0 
z
" style="fill: #ffffff"/>
  </g>
  <g id="axes_1">
   <g id="patch_2">
    <path d="M 57.6 307.584 
L 414.72 307.584 
L 414.72 41.472 
L 57.6 41.472 
z
" style="fill: #ffffff"/>
   </g>
   <g id="PolyCollection_1">
    <path d="M 73.832727 55.655571 
L 73.832727 307.584 
L 77.112066 307.584 
L 80.391405 307.584 
L 83.670744 307.584 
L 86.950083 307.584 
L 90.229421 307.584 
L 93.50876 307.584 
L 96.788099 307.584 
L 100.067438 307.584 
L 103.346777 307.584 
L 106.626116 307.584 
L 109.905455 307.584 
L 113.184793 307.584 
L 116.464132 307.584 
L 119.743471 307.584 
L 123.02281 307.584 
L 126.302149 307.584 
L 129.581488 307.584 
L 132.860826 307.584 
L 136.140165 307.584 
L 139.419504 307.584 
L 142.698843 307.584 
L 145.978182 307.584 
L 149.257521 307.584 
L 152.53686 307.584 
L 155.816198 307.584 
L 159.095537 307.584 
L 162.374876 307.584 
L 165.654215 307.584 
L 168.933554 307.584 
L 172.212893 307.584 
L 175.492231 307.584 
L 178.77157 307.584 
L 182.050909 307.584 
L 185.330248 307.584 
L 188.609587 307.584 
L 191.888926 307.584 
L 195.168264 307.584 
L 198.447603 307.584 
L 201.726942 307.584 
L 205.006281 307.584 
L 208.28562 307.584 
L 211.564959 307.584 
L 214.844298 307.584 
L 218.123636 307.584 
L 221.402975 307.584 
L 224.682314 307.584 
L 227.961653 307.584 
L 231.240992 307.584 
L 234.520331 307.584 
L 237.799669 307.584 
L 241.079008 307.584 
L 244.358347 307.584 
L 247.637686 307.584 
L 250.917025 307.584 
L 254.196364 307.584 
L 257.475702 307.584 
L 260.755041 307.584 
L 264.03438 307.584 
L 267.313719 307.584 
L 270.593058 307.584 
L 273.872397 307.584 
L 277.151736 307.584 
L 280.431074 307.584 
L 283.710413 307.584 
L 286.989752 307.584 
L 290.269091 307.584 
L 293.54843 307.584 
L 296.827769 307.584 
L 300.107107 307.584 
L 303.386446 307.584 
L 306.665785 307.584 
L 309.945124 307.584 
L 313.224463 307.584 
L 316.503802 307.584 
L 319.78314 307.584 
L 323.062479 307.584 
L 326.341818 307.584 
L 329.621157 307.584 
L 332.900496 307.584 
L 336.179835 307.584 
L 339.459174 307.584 
L 342.738512 307.584 
L 346.017851 307.584 
L 349.29719 307.584 
L 352.576529 307.584 
L 355.855868 307.584 
L 359.135207 307.584 
L 362.414545 307.584 
L 365.693884 307.584 
L 368.973223 307.584 
L 372.252562 307.584 
L 375.531901 307.584 
L 378.81124 307.584 
L 382.090579 307.584 
L 385.369917 307.584 
L 388.649256 307.584 
L 391.928595 307.584 
L 395.207934 307.584 
L 398.487273 307.584 
L 398.487273 307.584 
L 398.487273 307.584 
L 395.207934 307.584 
L 391.928595 307.584 
L 388.649256 307.584 
L 385.369917 307.584 
L 382.090579 307.584 
L 378.81124 307.584 
L 375.531901 307.584 
L 372.252562 307.584 
L 368.973223 307.584 
L 365.693884 307.584 
L 362.414545 307.584 
L 359.135207 307.584 
L 355.855868 307.584 
L 352.576529 307.584 
L 349.29719 307.584 
L 346.017851 307.584 
L 342.738512 307.584 
L 339.459174 307.584 
L 336.179835 307.584 
L 332.900496 307.584 
L 329.621157 282.391157 
L 326.341818 279.871873 
L 323.062479 278.360302 
L 319.78314 277.352588 
L 316.503802 277.352588 
L 313.224463 275.841018 
L 309.945124 275.337161 
L 306.665785 276.848732 
L 303.386446 275.841018 
L 300.107107 274.833304 
L 296.827769 271.810163 
L 293.54843 269.290879 
L 290.269091 263.244596 
L 286.989752 256.694457 
L 283.710413 249.136604 
L 280.431074 242.586465 
L 277.151736 243.594179 
L 273.872397 244.601893 
L 270.593058 245.10575 
L 267.313719 245.609606 
L 264.03438 244.601893 
L 260.755041 245.10575 
L 257.475702 243.594179 
L 254.196364 227.470759 
L 250.917025 221.928334 
L 247.637686 218.401336 
L 244.358347 219.40905 
L 241.079008 219.40905 
L 237.799669 221.928334 
L 234.520331 209.331913 
L 231.240992 175.573503 
L 227.961653 179.604358 
L 224.682314 197.743205 
L 221.402975 182.627499 
L 218.123636 179.100501 
L 214.844298 180.108215 
L 211.564959 181.115928 
L 208.28562 183.131356 
L 205.006281 175.069646 
L 201.726942 180.108215 
L 198.447603 179.604358 
L 195.168264 184.13907 
L 191.888926 180.612072 
L 188.609587 179.604358 
L 185.330248 179.100501 
L 182.050909 181.115928 
L 178.77157 181.115928 
L 175.492231 181.115928 
L 172.212893 181.619785 
L 168.933554 182.627499 
L 165.654215 181.115928 
L 162.374876 181.619785 
L 159.095537 181.115928 
L 155.816198 180.612072 
L 152.53686 180.108215 
L 149.257521 184.642926 
L 145.978182 180.612072 
L 142.698843 178.596644 
L 139.419504 176.07736 
L 136.140165 180.612072 
L 132.860826 182.627499 
L 129.581488 177.58893 
L 126.302149 185.146783 
L 123.02281 190.689209 
L 119.743471 138.288095 
L 116.464132 177.58893 
L 113.184793 169.023364 
L 109.905455 251.655889 
L 106.626116 249.136604 
L 103.346777 253.671316 
L 100.067438 125.691674 
L 96.788099 55.655571 
L 93.50876 55.655571 
L 90.229421 55.655571 
L 86.950083 55.655571 
L 83.670744 55.655571 
L 80.391405 55.655571 
L 77.112066 55.655571 
L 73.832727 55.655571 
z
" clip-path="url(#pcfa0fb3a6e)" style="fill: #1f77b4"/>
   </g>
   <g id="PolyCollection_2">
    <path d="M 73.832727 55.655571 
L 73.832727 55.655571 
L 77.112066 55.655571 
L 80.391405 55.655571 
L 83.670744 55.655571 
L 86.950083 55.655571 
L 90.229421 55.655571 
L 93.50876 55.655571 
L 96.788099 55.655571 
L 100.067438 125.691674 
L 103.346777 253.671316 
L 106.626116 249.136604 
L 109.905455 251.655889 
L 113.184793 169.023364 
L 116.464132 177.58893 
L 119.743471 138.288095 
L 123.02281 190.689209 
L 126.302149 185.146783 
L 129.581488 177.58893 
L 132.860826 182.627499 
L 136.140165 180.612072 
L 139.419504 176.07736 
L 142.698843 178.596644 
L 145.978182 180.612072 
L 149.257521 184.642926 
L 152.53686 180.108215 
L 155.816198 180.612072 
L 159.095537 181.115928 
L 162.374876 181.619785 
L 165.654215 181.115928 
L 168.933554 182.627499 
L 172.212893 181.619785 
L 175.492231 181.115928 
L 178.77157 181.115928 
L 182.050909 181.115928 
L 185.330248 179.100501 
L 188.609587 179.604358 
L 191.888926 180.612072 
L 195.168264 184.13907 
L 198.447603 179.604358 
L 201.726942 180.108215 
L 205.006281 175.069646 
L 208.28562 183.131356 
L 211.564959 181.115928 
L 214.844298 180.108215 
L 218.123636 179.100501 
L 221.402975 182.627499 
L 224.682314 197.743205 
L 227.961653 179.604358 
L 231.240992 175.573503 
L 234.520331 209.331913 
L 237.799669 221.928334 
L 241.079008 219.40905 
L 244.358347 219.40905 
L 247.637686 218.401336 
L 250.917025 221.928334 
L 254.196364 227.470759 
L 257.475702 243.594179 
L 260.755041 245.10575 
L 264.03438 244.601893 
L 267.313719 245.609606 
L 270.593058 245.10575 
L 273.872397 244.601893 
L 277.151736 243.594179 
L 280.431074 242.586465 
L 283.710413 249.136604 
L 286.989752 256.694457 
L 290.269091 263.244596 
L 293.54843 269.290879 
L 296.827769 271.810163 
L 300.107107 274.833304 
L 303.386446 275.841018 
L 306.665785 276.848732 
L 309.945124 275.337161 
L 313.224463 275.841018 
L 316.503802 277.352588 
L 319.78314 277.352588 
L 323.062479 278.360302 
L 326.341818 279.871873 
L 329.621157 282.391157 
L 332.900496 307.584 
L 336.179835 307.584 
L 339.459174 307.584 
L 342.738512 307.584 
L 346.017851 307.584 
L 349.29719 307.584 
L 352.576529 307.584 
L 355.855868 307.584 
L 359.135207 307.584 
L 362.414545 307.584 
L 365.693884 307.584 
L 368.973223 307.584 
L 372.252562 307.584 
L 375.531901 307.584 
L 378.81124 307.584 
L 382.090579 307.584 
L 385.369917 307.584 
L 388.649256 307.584 
L 391.928595 307.584 
L 395.207934 307.584 
L 398.487273 307.584 
L 398.487273 307.584 
L 398.487273 307.584 
L 395.207934 307.584 
L 391.928595 282.391157 
L 388.649256 285.414298 
L 385.369917 284.910441 
L 382.090579 283.902728 
L 378.81124 282.895014 
L 375.531901 281.8873 
L 372.252562 281.383443 
L 368.973223 282.895014 
L 365.693884 283.398871 
L 362.414545 282.895014 
L 359.135207 281.383443 
L 355.855868 281.383443 
L 352.576529 280.879586 
L 349.29719 280.879586 
L 346.017851 278.864159 
L 342.738512 280.37573 
L 339.459174 282.391157 
L 336.179835 281.383443 
L 332.900496 279.871873 
L 329.621157 255.686744 
L 326.341818 250.144318 
L 323.062479 246.113463 
L 319.78314 247.625034 
L 316.503802 244.098036 
L 313.224463 241.074895 
L 309.945124 241.578751 
L 306.665785 242.082608 
L 303.386446 242.082608 
L 300.107107 239.059467 
L 296.827769 224.447618 
L 293.54843 222.936048 
L 290.269091 215.378195 
L 286.989752 188.673781 
L 283.710413 181.619785 
L 280.431074 156.426942 
L 277.151736 159.95394 
L 273.872397 153.403801 
L 270.593058 163.480938 
L 267.313719 161.969368 
L 264.03438 181.115928 
L 260.755041 151.388374 
L 257.475702 168.519507 
L 254.196364 109.568254 
L 250.917025 114.102966 
L 247.637686 137.784239 
L 244.358347 129.722529 
L 241.079008 116.62225 
L 237.799669 111.583682 
L 234.520331 98.98726 
L 231.240992 61.701853 
L 227.961653 55.655571 
L 224.682314 55.655571 
L 221.402975 55.655571 
L 218.123636 55.655571 
L 214.844298 55.655571 
L 211.564959 55.655571 
L 208.28562 55.655571 
L 205.006281 55.655571 
L 201.726942 55.655571 
L 198.447603 55.655571 
L 195.168264 55.655571 
L 191.888926 55.655571 
L 188.609587 55.655571 
L 185.330248 55.655571 
L 182.050909 55.655571 
L 178.77157 55.655571 
L 175.492231 55.655571 
L 172.212893 55.655571 
L 168.933554 55.655571 
L 165.654215 55.655571 
L 162.374876 55.655571 
L 159.095537 55.655571 
L 155.816198 55.655571 
L 152.53686 55.655571 
L 149.257521 55.655571 
L 145.978182 55.655571 
L 142.698843 55.655571 
L 139.419504 55.655571 
L 136.140165 55.655571 
L 132.860826 55.655571 
L 129.581488 55.655571 
L 126.302149 55.655571 
L 123.02281 55.655571 
L 119.743471 55.655571 
L 116.464132 55.655571 
L 113.184793 55.655571 
L 109.905455 55.655571 
L 106.626116 55.655571 
L 103.346777 55.655571 
L 100.067438 55.655571 
L 96.788099 55.655571 
L 93.50876 55.655571 
L 90.229421 55.655571 
L 86.950083 55.655571 
L 83.670744 55.655571 
L 80.391405 55.655571 
L 77.112066 55.655571 
L 73.832727 55.655571 
z
" clip-path="url(#pcfa0fb3a6e)" style="fill: #ff7f0e"/>
   </g>
   <g id="PolyCollection_3">
    <path d="M 73.832727 55.655571 
L 73.832727 55.655571 
L 77.112066 55.655571 
L 80.391405 55.655571 
L 83.670744 55.655571 
L 86.950083 55.655571 
L 90.229421 55.655571 
L 93.50876 55.655571 
L 96.788099 55.655571 
L 100.067438 55.655571 
L 103.346777 55.655571 
L 106.626116 55.655571 
L 109.905455 55.655571 
L 113.184793 55.655571 
L 116.464132 55.655571 
L 119.743471 55.655571 
L 123.02281 55.655571 
L 126.302149 55.655571 
L 129.581488 55.655571 
L 132.860826 55.655571 
L 136.140165 55.655571 
L 139.419504 55.655571 
L 142.698843 55.655571 
L 145.978182 55.655571 
L 149.257521 55.655571 
L 152.53686 55.655571 
L 155.816198 55.655571 
L 159.095537 55.655571 
L 162.374876 55.655571 
L 165.654215 55.655571 
L 168.933554 55.655571 
L 172.212893 55.655571 
L 175.492231 55.655571 
L 178.77157 55.655571 
L 182.050909 55.655571 
L 185.330248 55.655571 
L 188.609587 55.655571 
L 191.888926 55.655571 
L 195.168264 55.655571 
L 198.447603 55.655571 
L 201.726942 55.655571 
L 205.006281 55.655571 
L 208.28562 55.655571 
L 211.564959 55.655571 
L 214.844298 55.655571 
L 218.123636 55.655571 
L 221.402975 55.655571 
L 224.682314 55.655571 
L 227.961653 55.655571 
L 231.240992 61.701853 
L 234.520331 98.98726 
L 237.799669 111.583682 
L 241.079008 116.62225 
L 244.358347 129.722529 
L 247.637686 137.784239 
L 250.917025 114.102966 
L 254.196364 109.568254 
L 257.475702 168.519507 
L 260.755041 151.388374 
L 264.03438 181.115928 
L 267.313719 161.969368 
L 270.593058 163.480938 
L 273.872397 153.403801 
L 277.151736 159.95394 
L 280.431074 156.426942 
L 283.710413 181.619785 
L 286.989752 188.673781 
L 290.269091 215.378195 
L 293.54843 222.936048 
L 296.827769 224.447618 
L 300.107107 239.059467 
L 303.386446 242.082608 
L 306.665785 242.082608 
L 309.945124 241.578751 
L 313.224463 241.074895 
L 316.503802 244.098036 
L 319.78314 247.625034 
L 323.062479 246.113463 
L 326.341818 250.144318 
L 329.621157 255.686744 
L 332.900496 279.871873 
L 336.179835 281.383443 
L 339.459174 282.391157 
L 342.738512 280.37573 
L 346.017851 278.864159 
L 349.29719 280.879586 
L 352.576529 280.879586 
L 355.855868 281.383443 
L 359.135207 281.383443 
L 362.414545 282.895014 
L 365.693884 283.398871 
L 368.973223 282.895014 
L 372.252562 281.383443 
L 375.531901 281.8873 
L 378.81124 282.895014 
L 382.090579 283.902728 
L 385.369917 284.910441 
L 388.649256 285.414298 
L 391.928595 282.391157 
L 395.207934 307.584 
L 398.487273 307.584 
L 398.487273 307.584 
L 398.487273 307.584 
L 395.207934 307.584 
L 391.928595 282.391157 
L 388.649256 285.414298 
L 385.369917 284.910441 
L 382.090579 283.902728 
L 378.81124 282.895014 
L 375.531901 281.8873 
L 372.252562 281.383443 
L 368.973223 282.895014 
L 365.693884 283.398871 
L 362.414545 282.895014 
L 359.135207 281.383443 
L 355.855868 281.383443 
L 352.576529 259.213742 
L 349.29719 259.717598 
L 346.017851 258.206028 
L 342.738512 259.717598 
L 339.459174 260.725312 
L 336.179835 260.725312 
L 332.900496 260.221455 
L 329.621157 234.524755 
L 326.341818 228.478473 
L 323.062479 223.943761 
L 319.78314 227.974616 
L 316.503802 232.509328 
L 313.224463 227.974616 
L 309.945124 217.897479 
L 306.665785 217.897479 
L 303.386446 216.385909 
L 300.107107 223.943761 
L 296.827769 209.331913 
L 293.54843 198.750918 
L 290.269091 186.658354 
L 286.989752 150.884517 
L 283.710413 145.342091 
L 280.431074 122.668533 
L 277.151736 113.599109 
L 273.872397 117.629964 
L 270.593058 116.62225 
L 267.313719 115.11068 
L 264.03438 111.583682 
L 260.755041 107.04897 
L 257.475702 94.452549 
L 254.196364 60.190282 
L 250.917025 55.655571 
L 247.637686 55.655571 
L 244.358347 55.655571 
L 241.079008 56.159427 
L 237.799669 56.159427 
L 234.520331 56.159427 
L 231.240992 55.655571 
L 227.961653 55.655571 
L 224.682314 55.655571 
L 221.402975 55.655571 
L 218.123636 55.655571 
L 214.844298 55.655571 
L 211.564959 55.655571 
L 208.28562 55.655571 
L 205.006281 55.655571 
L 201.726942 55.655571 
L 198.447603 55.655571 
L 195.168264 55.655571 
L 191.888926 55.655571 
L 188.609587 55.655571 
L 185.330248 55.655571 
L 182.050909 55.655571 
L 178.77157 55.655571 
L 175.492231 55.655571 
L 172.212893 55.655571 
L 168.933554 55.655571 
L 165.654215 55.655571 
L 162.374876 55.655571 
L 159.095537 55.655571 
L 155.816198 55.655571 
L 152.53686 55.655571 
L 149.257521 55.655571 
L 145.978182 55.655571 
L 142.698843 55.655571 
L 139.419504 55.655571 
L 136.140165 55.655571 
L 132.860826 55.655571 
L 129.581488 55.655571 
L 126.302149 55.655571 
L 123.02281 55.655571 
L 119.743471 55.655571 
L 116.464132 55.655571 
L 113.184793 55.655571 
L 109.905455 55.655571 
L 106.626116 55.655571 
L 103.346777 55.655571 
L 100.067438 55.655571 
L 96.788099 55.655571 
L 93.50876 55.655571 
L 90.229421 55.655571 
L 86.950083 55.655571 
L 83.670744 55.655571 
L 80.391405 55.655571 
L 77.112066 55.655571 
L 73.832727 55.655571 
z
" clip-path="url(#pcfa0fb3a6e)" style="fill: #2ca02c"/>
   </g>
   <g id="PolyCollection_4">
    <path d="M 73.832727 55.655571 
L 73.832727 55.655571 
L 77.112066 55.655571 
L 80.391405 55.655571 
L 83.670744 55.655571 
L 86.950083 55.655571 
L 90.229421 55.655571 
L 93.50876 55.655571 
L 96.788099 55.655571 
L 100.067438 55.655571 
L 103.346777 55.655571 
L 106.626116 55.655571 
L 109.905455 55.655571 
L 113.184793 55.655571 
L 116.464132 55.655571 
L 119.743471 55.655571 
L 123.02281 55.655571 
L 126.302149 55.655571 
L 129.581488 55.655571 
L 132.860826 55.655571 
L 136.140165 55.655571 
L 139.419504 55.655571 
L 142.698843 55.655571 
L 145.978182 55.655571 
L 149.257521 55.655571 
L 152.53686 55.655571 
L 155.816198 55.655571 
L 159.095537 55.655571 
L 162.374876 55.655571 
L 165.654215 55.655571 
L 168.933554 55.655571 
L 172.212893 55.655571 
L 175.492231 55.655571 
L 178.77157 55.655571 
L 182.050909 55.655571 
L 185.330248 55.655571 
L 188.609587 55.655571 
L 191.888926 55.655571 
L 195.168264 55.655571 
L 198.447603 55.655571 
L 201.726942 55.655571 
L 205.006281 55.655571 
L 208.28562 55.655571 
L 211.564959 55.655571 
L 214.844298 55.655571 
L 218.123636 55.655571 
L 221.402975 55.655571 
L 224.682314 55.655571 
L 227.961653 55.655571 
L 231.240992 55.655571 
L 234.520331 56.159427 
L 237.799669 56.159427 
L 241.079008 56.159427 
L 244.358347 55.655571 
L 247.637686 55.655571 
L 250.917025 55.655571 
L 254.196364 60.190282 
L 257.475702 94.452549 
L 260.755041 107.04897 
L 264.03438 111.583682 
L 267.313719 115.11068 
L 270.593058 116.62225 
L 273.872397 117.629964 
L 277.151736 113.599109 
L 280.431074 122.668533 
L 283.710413 145.342091 
L 286.989752 150.884517 
L 290.269091 186.658354 
L 293.54843 198.750918 
L 296.827769 209.331913 
L 300.107107 223.943761 
L 303.386446 216.385909 
L 306.665785 217.897479 
L 309.945124 217.897479 
L 313.224463 227.974616 
L 316.503802 232.509328 
L 319.78314 227.974616 
L 323.062479 223.943761 
L 326.341818 228.478473 
L 329.621157 234.524755 
L 332.900496 260.221455 
L 336.179835 260.725312 
L 339.459174 260.725312 
L 342.738512 259.717598 
L 346.017851 258.206028 
L 349.29719 259.717598 
L 352.576529 259.213742 
L 355.855868 281.383443 
L 359.135207 281.383443 
L 362.414545 282.895014 
L 365.693884 283.398871 
L 368.973223 282.895014 
L 372.252562 281.383443 
L 375.531901 281.8873 
L 378.81124 282.895014 
L 382.090579 283.902728 
L 385.369917 284.910441 
L 388.649256 285.414298 
L 391.928595 282.391157 
L 395.207934 307.584 
L 398.487273 307.584 
L 398.487273 307.584 
L 398.487273 307.584 
L 395.207934 307.584 
L 391.928595 282.391157 
L 388.649256 264.756167 
L 385.369917 263.748453 
L 382.090579 263.244596 
L 378.81124 262.74074 
L 375.531901 259.717598 
L 372.252562 257.702171 
L 368.973223 258.709885 
L 365.693884 259.717598 
L 362.414545 259.717598 
L 359.135207 258.709885 
L 355.855868 258.206028 
L 352.576529 237.547897 
L 349.29719 238.55561 
L 346.017851 237.547897 
L 342.738512 238.55561 
L 339.459174 237.04404 
L 336.179835 237.547897 
L 332.900496 236.036326 
L 329.621157 212.355054 
L 326.341818 204.797201 
L 323.062479 190.689209 
L 319.78314 190.689209 
L 316.503802 195.727777 
L 313.224463 197.239348 
L 309.945124 187.162211 
L 306.665785 184.642926 
L 303.386446 181.619785 
L 300.107107 182.627499 
L 296.827769 173.054219 
L 293.54843 168.01565 
L 290.269091 166.50408 
L 286.989752 112.087539 
L 283.710413 88.910123 
L 280.431074 62.709567 
L 277.151736 55.655571 
L 273.872397 55.655571 
L 270.593058 55.151714 
L 267.313719 55.655571 
L 264.03438 55.655571 
L 260.755041 55.655571 
L 257.475702 56.159427 
L 254.196364 55.655571 
L 250.917025 55.655571 
L 247.637686 55.655571 
L 244.358347 55.655571 
L 241.079008 56.159427 
L 237.799669 56.159427 
L 234.520331 56.159427 
L 231.240992 55.655571 
L 227.961653 55.655571 
L 224.682314 55.655571 
L 221.402975 55.655571 
L 218.123636 55.655571 
L 214.844298 55.655571 
L 211.564959 55.655571 
L 208.28562 55.655571 
L 205.006281 55.655571 
L 201.726942 55.655571 
L 198.447603 55.655571 
L 195.168264 55.655571 
L 191.888926 55.655571 
L 188.609587 55.655571 
L 185.330248 55.655571 
L 182.050909 55.655571 
L 178.77157 55.655571 
L 175.492231 55.655571 
L 172.212893 55.655571 
L 168.933554 55.655571 
L 165.654215 55.655571 
L 162.374876 55.655571 
L 159.095537 55.655571 
L 155.816198 55.655571 
L 152.53686 55.655571 
L 149.257521 55.655571 
L 145.978182 55.655571 
L 142.698843 55.655571 
L 139.419504 55.655571 
L 136.140165 55.655571 
L 132.860826 55.655571 
L 129.581488 55.655571 
L 126.302149 55.655571 
L 123.02281 55.655571 
L 119.743471 55.655571 
L 116.464132 55.655571 
L 113.184793 55.655571 
L 109.905455 55.655571 
L 106.626116 55.655571 
L 103.346777 55.655571 
L 100.067438 55.655571 
L 96.788099 55.655571 
L 93.50876 55.655571 
L 90.229421 55.655571 
L 86.950083 55.655571 
L 83.670744 55.655571 
L 80.391405 55.655571 
L 77.112066 55.655571 
L 73.832727 55.655571 
z
" clip-path="url(#pcfa0fb3a6e)" style="fill: #d62728"/>
   </g>
   <g id="PolyCollection_5">
    <path d="M 73.832727 55.655571 
L 73.832727 55.655571 
L 77.112066 55.655571 
L 80.391405 55.655571 
L 83.670744 55.655571 
L 86.950083 55.655571 
L 90.229421 55.655571 
L 93.50876 55.655571 
L 96.788099 55.655571 
L 100.067438 55.655571 
L 103.346777 55.655571 
L 106.626116 55.655571 
L 109.905455 55.655571 
L 113.184793 55.655571 
L 116.464132 55.655571 
L 119.743471 55.655571 
L 123.02281 55.655571 
L 126.302149 55.655571 
L 129.581488 55.655571 
L 132.860826 55.655571 
L 136.140165 55.655571 
L 139.419504 55.655571 
L 142.698843 55.655571 
L 145.978182 55.655571 
L 149.257521 55.655571 
L 152.53686 55.655571 
L 155.816198 55.655571 
L 159.095537 55.655571 
L 162.374876 55.655571 
L 165.654215 55.655571 
L 168.933554 55.655571 
L 172.212893 55.655571 
L 175.492231 55.655571 
L 178.77157 55.655571 
L 182.050909 55.655571 
L 185.330248 55.655571 
L 188.609587 55.655571 
L 191.888926 55.655571 
L 195.168264 55.655571 
L 198.447603 55.655571 
L 201.726942 55.655571 
L 205.006281 55.655571 
L 208.28562 55.655571 
L 211.564959 55.655571 
L 214.844298 55.655571 
L 218.123636 55.655571 
L 221.402975 55.655571 
L 224.682314 55.655571 
L 227.961653 55.655571 
L 231.240992 55.655571 
L 234.520331 56.159427 
L 237.799669 56.159427 
L 241.079008 56.159427 
L 244.358347 55.655571 
L 247.637686 55.655571 
L 250.917025 55.655571 
L 254.196364 55.655571 
L 257.475702 56.159427 
L 260.755041 55.655571 
L 264.03438 55.655571 
L 267.313719 55.655571 
L 270.593058 55.151714 
L 273.872397 55.655571 
L 277.151736 55.655571 
L 280.431074 62.709567 
L 283.710413 88.910123 
L 286.989752 112.087539 
L 290.269091 166.50408 
L 293.54843 168.01565 
L 296.827769 173.054219 
L 300.107107 182.627499 
L 303.386446 181.619785 
L 306.665785 184.642926 
L 309.945124 187.162211 
L 313.224463 197.239348 
L 316.503802 195.727777 
L 319.78314 190.689209 
L 323.062479 190.689209 
L 326.341818 204.797201 
L 329.621157 212.355054 
L 332.900496 236.036326 
L 336.179835 237.547897 
L 339.459174 237.04404 
L 342.738512 238.55561 
L 346.017851 237.547897 
L 349.29719 238.55561 
L 352.576529 237.547897 
L 355.855868 258.206028 
L 359.135207 258.709885 
L 362.414545 259.717598 
L 365.693884 259.717598 
L 368.973223 258.709885 
L 372.252562 257.702171 
L 375.531901 259.717598 
L 378.81124 262.74074 
L 382.090579 263.244596 
L 385.369917 263.748453 
L 388.649256 264.756167 
L 391.928595 282.391157 
L 395.207934 307.584 
L 398.487273 307.584 
L 398.487273 275.841018 
L 398.487273 275.841018 
L 395.207934 276.344875 
L 391.928595 258.206028 
L 388.649256 242.586465 
L 385.369917 241.074895 
L 382.090579 240.067181 
L 378.81124 239.059467 
L 375.531901 235.532469 
L 372.252562 233.013185 
L 368.973223 234.524755 
L 365.693884 235.028612 
L 362.414545 234.524755 
L 359.135207 233.517042 
L 355.855868 228.98233 
L 352.576529 209.835769 
L 349.29719 212.355054 
L 346.017851 212.858911 
L 342.738512 215.882052 
L 339.459174 209.835769 
L 336.179835 213.362767 
L 332.900496 212.355054 
L 329.621157 190.185352 
L 326.341818 187.162211 
L 323.062479 164.488652 
L 319.78314 162.977082 
L 316.503802 167.511793 
L 313.224463 166.000223 
L 309.945124 158.44237 
L 306.665785 154.411515 
L 303.386446 150.884517 
L 300.107107 149.876803 
L 296.827769 136.272668 
L 293.54843 129.218672 
L 290.269091 131.737956 
L 286.989752 87.398553 
L 283.710413 56.159427 
L 280.431074 55.655571 
L 277.151736 55.655571 
L 273.872397 55.655571 
L 270.593058 55.151714 
L 267.313719 55.655571 
L 264.03438 55.655571 
L 260.755041 55.655571 
L 257.475702 56.159427 
L 254.196364 55.655571 
L 250.917025 55.655571 
L 247.637686 55.655571 
L 244.358347 55.655571 
L 241.079008 56.159427 
L 237.799669 56.159427 
L 234.520331 56.159427 
L 231.240992 55.655571 
L 227.961653 55.655571 
L 224.682314 55.655571 
L 221.402975 55.655571 
L 218.123636 55.655571 
L 214.844298 55.655571 
L 211.564959 55.655571 
L 208.28562 55.655571 
L 205.006281 55.655571 
L 201.726942 55.655571 
L 198.447603 55.655571 
L 195.168264 55.655571 
L 191.888926 55.655571 
L 188.609587 55.655571 
L 185.330248 55.655571 
L 182.050909 55.655571 
L 178.77157 55.655571 
L 175.492231 55.655571 
L 172.212893 55.655571 
L 168.933554 55.655571 
L 165.654215 55.655571 
L 162.374876 55.655571 
L 159.095537 55.655571 
L 155.816198 55.655571 
L 152.53686 55.655571 
L 149.257521 55.655571 
L 145.978182 55.655571 
L 142.698843 55.655571 
L 139.419504 55.655571 
L 136.140165 55.655571 
L 132.860826 55.655571 
L 129.581488 55.655571 
L 126.302149 55.655571 
L 123.02281 55.655571 
L 119.743471 55.655571 
L 116.464132 55.655571 
L 113.184793 55.655571 
L 109.905455 55.655571 
L 106.626116 55.655571 
L 103.346777 55.655571 
L 100.067438 55.655571 
L 96.788099 55.655571 
L 93.50876 55.655571 
L 90.229421 55.655571 
L 86.950083 55.655571 
L 83.670744 55.655571 
L 80.391405 55.655571 
L 77.112066 55.655571 
L 73.832727 55.655571 
z
" clip-path="url(#pcfa0fb3a6e)" style="fill: #9467bd"/>
   </g>
   <g id="PolyCollection_6">
    <path d="M 73.832727 55.655571 
L 73.832727 55.655571 
L 77.112066 55.655571 
L 80.391405 55.655571 
L 83.670744 55.655571 
L 86.950083 55.655571 
L 90.229421 55.655571 
L 93.50876 55.655571 
L 96.788099 55.655571 
L 100.067438 55.655571 
L 103.346777 55.655571 
L 106.626116 55.655571 
L 109.905455 55.655571 
L 113.184793 55.655571 
L 116.464132 55.655571 
L 119.743471 55.655571 
L 123.02281 55.655571 
L 126.302149 55.655571 
L 129.581488 55.655571 
L 132.860826 55.655571 
L 136.140165 55.655571 
L 139.419504 55.655571 
L 142.698843 55.655571 
L 145.978182 55.655571 
L 149.257521 55.655571 
L 152.53686 55.655571 
L 155.816198 55.655571 
L 159.095537 55.655571 
L 162.374876 55.655571 
L 165.654215 55.655571 
L 168.933554 55.655571 
L 172.212893 55.655571 
L 175.492231 55.655571 
L 178.77157 55.655571 
L 182.050909 55.655571 
L 185.330248 55.655571 
L 188.609587 55.655571 
L 191.888926 55.655571 
L 195.168264 55.655571 
L 198.447603 55.655571 
L 201.726942 55.655571 
L 205.006281 55.655571 
L 208.28562 55.655571 
L 211.564959 55.655571 
L 214.844298 55.655571 
L 218.123636 55.655571 
L 221.402975 55.655571 
L 224.682314 55.655571 
L 227.961653 55.655571 
L 231.240992 55.655571 
L 234.520331 56.159427 
L 237.799669 56.159427 
L 241.079008 56.159427 
L 244.358347 55.655571 
L 247.637686 55.655571 
L 250.917025 55.655571 
L 254.196364 55.655571 
L 257.475702 56.159427 
L 260.755041 55.655571 
L 264.03438 55.655571 
L 267.313719 55.655571 
L 270.593058 55.151714 
L 273.872397 55.655571 
L 277.151736 55.655571 
L 280.431074 55.655571 
L 283.710413 56.159427 
L 286.989752 87.398553 
L 290.269091 131.737956 
L 293.54843 129.218672 
L 296.827769 136.272668 
L 300.107107 149.876803 
L 303.386446 150.884517 
L 306.665785 154.411515 
L 309.945124 158.44237 
L 313.224463 166.000223 
L 316.503802 167.511793 
L 319.78314 162.977082 
L 323.062479 164.488652 
L 326.341818 187.162211 
L 329.621157 190.185352 
L 332.900496 212.355054 
L 336.179835 213.362767 
L 339.459174 209.835769 
L 342.738512 215.882052 
L 346.017851 212.858911 
L 349.29719 212.355054 
L 352.576529 209.835769 
L 355.855868 228.98233 
L 359.135207 233.517042 
L 362.414545 234.524755 
L 365.693884 235.028612 
L 368.973223 234.524755 
L 372.252562 233.013185 
L 375.531901 235.532469 
L 378.81124 239.059467 
L 382.090579 240.067181 
L 385.369917 241.074895 
L 388.649256 242.586465 
L 391.928595 258.206028 
L 395.207934 276.344875 
L 398.487273 275.841018 
L 398.487273 247.625034 
L 398.487273 247.625034 
L 395.207934 249.136604 
L 391.928595 236.540183 
L 388.649256 220.92062 
L 385.369917 219.912907 
L 382.090579 219.912907 
L 378.81124 220.92062 
L 375.531901 218.401336 
L 372.252562 211.851197 
L 368.973223 212.858911 
L 365.693884 213.866624 
L 362.414545 213.866624 
L 359.135207 211.851197 
L 355.855868 207.820342 
L 352.576529 191.696922 
L 349.29719 191.696922 
L 346.017851 192.200779 
L 342.738512 194.216207 
L 339.459174 187.162211 
L 336.179835 189.177638 
L 332.900496 186.658354 
L 329.621157 167.007936 
L 326.341818 162.977082 
L 323.062479 138.791952 
L 319.78314 135.264954 
L 316.503802 140.303523 
L 313.224463 137.280382 
L 309.945124 130.226386 
L 306.665785 127.203245 
L 303.386446 126.195531 
L 300.107107 130.730243 
L 296.827769 115.11068 
L 293.54843 110.072111 
L 290.269091 107.04897 
L 286.989752 60.190282 
L 283.710413 55.655571 
L 280.431074 55.655571 
L 277.151736 55.655571 
L 273.872397 55.655571 
L 270.593058 55.151714 
L 267.313719 55.655571 
L 264.03438 55.655571 
L 260.755041 55.655571 
L 257.475702 56.159427 
L 254.196364 55.655571 
L 250.917025 55.655571 
L 247.637686 55.655571 
L 244.358347 55.655571 
L 241.079008 56.159427 
L 237.799669 56.159427 
L 234.520331 56.159427 
L 231.240992 55.655571 
L 227.961653 55.655571 
L 224.682314 55.655571 
L 221.402975 55.655571 
L 218.123636 55.655571 
L 214.844298 55.655571 
L 211.564959 55.655571 
L 208.28562 55.655571 
L 205.006281 55.655571 
L 201.726942 55.655571 
L 198.447603 55.655571 
L 195.168264 55.655571 
L 191.888926 55.655571 
L 188.609587 55.655571 
L 185.330248 55.655571 
L 182.050909 55.655571 
L 178.77157 55.655571 
L 175.492231 55.655571 
L 172.212893 55.655571 
L 168.933554 55.655571 
L 165.654215 55.655571 
L 162.374876 55.655571 
L 159.095537 55.655571 
L 155.816198 55.655571 
L 152.53686 55.655571 
L 149.257521 55.655571 
L 145.978182 55.655571 
L 142.698843 55.655571 
L 139.419504 55.655571 
L 136.140165 55.655571 
L 132.860826 55.655571 
L 129.581488 55.655571 
L 126.302149 55.655571 
L 123.02281 55.655571 
L 119.743471 55.655571 
L 116.464132 55.655571 
L 113.184793 55.655571 
L 109.905455 55.655571 
L 106.626116 55.655571 
L 103.346777 55.655571 
L 100.067438 55.655571 
L 96.788099 55.655571 
L 93.50876 55.655571 
L 90.229421 55.655571 
L 86.950083 55.655571 
L 83.670744 55.655571 
L 80.391405 55.655571 
L 77.112066 55.655571 
L 73.832727 55.655571 
z
" clip-path="url(#pcfa0fb3a6e)" style="fill: #8c564b"/>
   </g>
   <g id="PolyCollection_7">
    <path d="M 73.832727 55.655571 
L 73.832727 55.655571 
L 77.112066 55.655571 
L 80.391405 55.655571 
L 83.670744 55.655571 
L 86.950083 55.655571 
L 90.229421 55.655571 
L 93.50876 55.655571 
L 96.788099 55.655571 
L 100.067438 55.655571 
L 103.346777 55.655571 
L 106.626116 55.655571 
L 109.905455 55.655571 
L 113.184793 55.655571 
L 116.464132 55.655571 
L 119.743471 55.655571 
L 123.02281 55.655571 
L 126.302149 55.655571 
L 129.581488 55.655571 
L 132.860826 55.655571 
L 136.140165 55.655571 
L 139.419504 55.655571 
L 142.698843 55.655571 
L 145.978182 55.655571 
L 149.257521 55.655571 
L 152.53686 55.655571 
L 155.816198 55.655571 
L 159.095537 55.655571 
L 162.374876 55.655571 
L 165.654215 55.655571 
L 168.933554 55.655571 
L 172.212893 55.655571 
L 175.492231 55.655571 
L 178.77157 55.655571 
L 182.050909 55.655571 
L 185.330248 55.655571 
L 188.609587 55.655571 
L 191.888926 55.655571 
L 195.168264 55.655571 
L 198.447603 55.655571 
L 201.726942 55.655571 
L 205.006281 55.655571 
L 208.28562 55.655571 
L 211.564959 55.655571 
L 214.844298 55.655571 
L 218.123636 55.655571 
L 221.402975 55.655571 
L 224.682314 55.655571 
L 227.961653 55.655571 
L 231.240992 55.655571 
L 234.520331 56.159427 
L 237.799669 56.159427 
L 241.079008 56.159427 
L 244.358347 55.655571 
L 247.637686 55.655571 
L 250.917025 55.655571 
L 254.196364 55.655571 
L 257.475702 56.159427 
L 260.755041 55.655571 
L 264.03438 55.655571 
L 267.313719 55.655571 
L 270.593058 55.151714 
L 273.872397 55.655571 
L 277.151736 55.655571 
L 280.431074 55.655571 
L 283.710413 55.655571 
L 286.989752 60.190282 
L 290.269091 107.04897 
L 293.54843 110.072111 
L 296.827769 115.11068 
L 300.107107 130.730243 
L 303.386446 126.195531 
L 306.665785 127.203245 
L 309.945124 130.226386 
L 313.224463 137.280382 
L 316.503802 140.303523 
L 319.78314 135.264954 
L 323.062479 138.791952 
L 326.341818 162.977082 
L 329.621157 167.007936 
L 332.900496 186.658354 
L 336.179835 189.177638 
L 339.459174 187.162211 
L 342.738512 194.216207 
L 346.017851 192.200779 
L 349.29719 191.696922 
L 352.576529 191.696922 
L 355.855868 207.820342 
L 359.135207 211.851197 
L 362.414545 213.866624 
L 365.693884 213.866624 
L 368.973223 212.858911 
L 372.252562 211.851197 
L 375.531901 218.401336 
L 378.81124 220.92062 
L 382.090579 219.912907 
L 385.369917 219.912907 
L 388.649256 220.92062 
L 391.928595 236.540183 
L 395.207934 249.136604 
L 398.487273 247.625034 
L 398.487273 219.912907 
L 398.487273 219.912907 
L 395.207934 221.928334 
L 391.928595 213.362767 
L 388.649256 199.758632 
L 385.369917 198.247062 
L 382.090579 197.743205 
L 378.81124 198.247062 
L 375.531901 194.720064 
L 372.252562 187.162211 
L 368.973223 190.185352 
L 365.693884 191.696922 
L 362.414545 192.200779 
L 359.135207 188.169924 
L 355.855868 184.13907 
L 352.576529 168.519507 
L 349.29719 170.031078 
L 346.017851 170.534934 
L 342.738512 171.542648 
L 339.459174 164.992509 
L 336.179835 160.457797 
L 332.900496 162.977082 
L 329.621157 139.295809 
L 326.341818 140.303523 
L 323.062479 105.5374 
L 319.78314 110.072111 
L 316.503802 110.575968 
L 313.224463 110.575968 
L 309.945124 102.514258 
L 306.665785 98.98726 
L 303.386446 98.483404 
L 300.107107 99.491117 
L 296.827769 88.406266 
L 293.54843 82.359984 
L 290.269091 72.786704 
L 286.989752 55.151714 
L 283.710413 55.655571 
L 280.431074 55.655571 
L 277.151736 55.655571 
L 273.872397 55.655571 
L 270.593058 55.151714 
L 267.313719 55.655571 
L 264.03438 55.655571 
L 260.755041 55.655571 
L 257.475702 56.159427 
L 254.196364 55.655571 
L 250.917025 55.655571 
L 247.637686 55.655571 
L 244.358347 55.655571 
L 241.079008 56.159427 
L 237.799669 56.159427 
L 234.520331 56.159427 
L 231.240992 55.655571 
L 227.961653 55.655571 
L 224.682314 55.655571 
L 221.402975 55.655571 
L 218.123636 55.655571 
L 214.844298 55.655571 
L 211.564959 55.655571 
L 208.28562 55.655571 
L 205.006281 55.655571 
L 201.726942 55.655571 
L 198.447603 55.655571 
L 195.168264 55.655571 
L 191.888926 55.655571 
L 188.609587 55.655571 
L 185.330248 55.655571 
L 182.050909 55.655571 
L 178.77157 55.655571 
L 175.492231 55.655571 
L 172.212893 55.655571 
L 168.933554 55.655571 
L 165.654215 55.655571 
L 162.374876 55.655571 
L 159.095537 55.655571 
L 155.816198 55.655571 
L 152.53686 55.655571 
L 149.257521 55.655571 
L 145.978182 55.655571 
L 142.698843 55.655571 
L 139.419504 55.655571 
L 136.140165 55.655571 
L 132.860826 55.655571 
L 129.581488 55.655571 
L 126.302149 55.655571 
L 123.02281 55.655571 
L 119.743471 55.655571 
L 116.464132 55.655571 
L 113.184793 55.655571 
L 109.905455 55.655571 
L 106.626116 55.655571 
L 103.346777 55.655571 
L 100.067438 55.655571 
L 96.788099 55.655571 
L 93.50876 55.655571 
L 90.229421 55.655571 
L 86.950083 55.655571 
L 83.670744 55.655571 
L 80.391405 55.655571 
L 77.112066 55.655571 
L 73.832727 55.655571 
z
" clip-path="url(#pcfa0fb3a6e)" style="fill: #e377c2"/>
   </g>
   <g id="PolyCollection_8">
    <path d="M 73.832727 55.655571 
L 73.832727 55.655571 
L 77.112066 55.655571 
L 80.391405 55.655571 
L 83.670744 55.655571 
L 86.950083 55.655571 
L 90.229421 55.655571 
L 93.50876 55.655571 
L 96.788099 55.655571 
L 100.067438 55.655571 
L 103.346777 55.655571 
L 106.626116 55.655571 
L 109.905455 55.655571 
L 113.184793 55.655571 
L 116.464132 55.655571 
L 119.743471 55.655571 
L 123.02281 55.655571 
L 126.302149 55.655571 
L 129.581488 55.655571 
L 132.860826 55.655571 
L 136.140165 55.655571 
L 139.419504 55.655571 
L 142.698843 55.655571 
L 145.978182 55.655571 
L 149.257521 55.655571 
L 152.53686 55.655571 
L 155.816198 55.655571 
L 159.095537 55.655571 
L 162.374876 55.655571 
L 165.654215 55.655571 
L 168.933554 55.655571 
L 172.212893 55.655571 
L 175.492231 55.655571 
L 178.77157 55.655571 
L 182.050909 55.655571 
L 185.330248 55.655571 
L 188.609587 55.655571 
L 191.888926 55.655571 
L 195.168264 55.655571 
L 198.447603 55.655571 
L 201.726942 55.655571 
L 205.006281 55.655571 
L 208.28562 55.655571 
L 211.564959 55.655571 
L 214.844298 55.655571 
L 218.123636 55.655571 
L 221.402975 55.655571 
L 224.682314 55.655571 
L 227.961653 55.655571 
L 231.240992 55.655571 
L 234.520331 56.159427 
L 237.799669 56.159427 
L 241.079008 56.159427 
L 244.358347 55.655571 
L 247.637686 55.655571 
L 250.917025 55.655571 
L 254.196364 55.655571 
L 257.475702 56.159427 
L 260.755041 55.655571 
L 264.03438 55.655571 
L 267.313719 55.655571 
L 270.593058 55.151714 
L 273.872397 55.655571 
L 277.151736 55.655571 
L 280.431074 55.655571 
L 283.710413 55.655571 
L 286.989752 55.151714 
L 290.269091 72.786704 
L 293.54843 82.359984 
L 296.827769 88.406266 
L 300.107107 99.491117 
L 303.386446 98.483404 
L 306.665785 98.98726 
L 309.945124 102.514258 
L 313.224463 110.575968 
L 316.503802 110.575968 
L 319.78314 110.072111 
L 323.062479 105.5374 
L 326.341818 140.303523 
L 329.621157 139.295809 
L 332.900496 162.977082 
L 336.179835 160.457797 
L 339.459174 164.992509 
L 342.738512 171.542648 
L 346.017851 170.534934 
L 349.29719 170.031078 
L 352.576529 168.519507 
L 355.855868 184.13907 
L 359.135207 188.169924 
L 362.414545 192.200779 
L 365.693884 191.696922 
L 368.973223 190.185352 
L 372.252562 187.162211 
L 375.531901 194.720064 
L 378.81124 198.247062 
L 382.090579 197.743205 
L 385.369917 198.247062 
L 388.649256 199.758632 
L 391.928595 213.362767 
L 395.207934 221.928334 
L 398.487273 219.912907 
L 398.487273 191.696922 
L 398.487273 191.696922 
L 395.207934 194.216207 
L 391.928595 190.689209 
L 388.649256 179.100501 
L 385.369917 177.085074 
L 382.090579 175.069646 
L 378.81124 174.061932 
L 375.531901 170.031078 
L 372.252562 163.480938 
L 368.973223 166.000223 
L 365.693884 166.50408 
L 362.414545 167.511793 
L 359.135207 163.480938 
L 355.855868 158.946227 
L 352.576529 144.838235 
L 349.29719 145.342091 
L 346.017851 146.853662 
L 342.738512 148.365233 
L 339.459174 142.31895 
L 336.179835 136.272668 
L 332.900496 138.288095 
L 329.621157 115.11068 
L 326.341818 113.095252 
L 323.062479 87.398553 
L 319.78314 89.917837 
L 316.503802 89.917837 
L 313.224463 84.375412 
L 309.945124 74.802131 
L 306.665785 70.771276 
L 303.386446 69.259706 
L 300.107107 70.771276 
L 296.827769 55.655571 
L 293.54843 55.151714 
L 290.269091 55.655571 
L 286.989752 55.151714 
L 283.710413 55.655571 
L 280.431074 55.655571 
L 277.151736 55.655571 
L 273.872397 55.655571 
L 270.593058 55.151714 
L 267.313719 55.655571 
L 264.03438 55.655571 
L 260.755041 55.655571 
L 257.475702 56.159427 
L 254.196364 55.655571 
L 250.917025 55.655571 
L 247.637686 55.655571 
L 244.358347 55.655571 
L 241.079008 56.159427 
L 237.799669 56.159427 
L 234.520331 56.159427 
L 231.240992 55.655571 
L 227.961653 55.655571 
L 224.682314 55.655571 
L 221.402975 55.655571 
L 218.123636 55.655571 
L 214.844298 55.655571 
L 211.564959 55.655571 
L 208.28562 55.655571 
L 205.006281 55.655571 
L 201.726942 55.655571 
L 198.447603 55.655571 
L 195.168264 55.655571 
L 191.888926 55.655571 
L 188.609587 55.655571 
L 185.330248 55.655571 
L 182.050909 55.655571 
L 178.77157 55.655571 
L 175.492231 55.655571 
L 172.212893 55.655571 
L 168.933554 55.655571 
L 165.654215 55.655571 
L 162.374876 55.655571 
L 159.095537 55.655571 
L 155.816198 55.655571 
L 152.53686 55.655571 
L 149.257521 55.655571 
L 145.978182 55.655571 
L 142.698843 55.655571 
L 139.419504 55.655571 
L 136.140165 55.655571 
L 132.860826 55.655571 
L 129.581488 55.655571 
L 126.302149 55.655571 
L 123.02281 55.655571 
L 119.743471 55.655571 
L 116.464132 55.655571 
L 113.184793 55.655571 
L 109.905455 55.655571 
L 106.626116 55.655571 
L 103.346777 55.655571 
L 100.067438 55.655571 
L 96.788099 55.655571 
L 93.50876 55.655571 
L 90.229421 55.655571 
L 86.950083 55.655571 
L 83.670744 55.655571 
L 80.391405 55.655571 
L 77.112066 55.655571 
L 73.832727 55.655571 
z
" clip-path="url(#pcfa0fb3a6e)" style="fill: #7f7f7f"/>
   </g>
   <g id="PolyCollection_9">
    <path d="M 73.832727 55.655571 
L 73.832727 55.655571 
L 77.112066 55.655571 
L 80.391405 55.655571 
L 83.670744 55.655571 
L 86.950083 55.655571 
L 90.229421 55.655571 
L 93.50876 55.655571 
L 96.788099 55.655571 
L 100.067438 55.655571 
L 103.346777 55.655571 
L 106.626116 55.655571 
L 109.905455 55.655571 
L 113.184793 55.655571 
L 116.464132 55.655571 
L 119.743471 55.655571 
L 123.02281 55.655571 
L 126.302149 55.655571 
L 129.581488 55.655571 
L 132.860826 55.655571 
L 136.140165 55.655571 
L 139.419504 55.655571 
L 142.698843 55.655571 
L 145.978182 55.655571 
L 149.257521 55.655571 
L 152.53686 55.655571 
L 155.816198 55.655571 
L 159.095537 55.655571 
L 162.374876 55.655571 
L 165.654215 55.655571 
L 168.933554 55.655571 
L 172.212893 55.655571 
L 175.492231 55.655571 
L 178.77157 55.655571 
L 182.050909 55.655571 
L 185.330248 55.655571 
L 188.609587 55.655571 
L 191.888926 55.655571 
L 195.168264 55.655571 
L 198.447603 55.655571 
L 201.726942 55.655571 
L 205.006281 55.655571 
L 208.28562 55.655571 
L 211.564959 55.655571 
L 214.844298 55.655571 
L 218.123636 55.655571 
L 221.402975 55.655571 
L 224.682314 55.655571 
L 227.961653 55.655571 
L 231.240992 55.655571 
L 234.520331 56.159427 
L 237.799669 56.159427 
L 241.079008 56.159427 
L 244.358347 55.655571 
L 247.637686 55.655571 
L 250.917025 55.655571 
L 254.196364 55.655571 
L 257.475702 56.159427 
L 260.755041 55.655571 
L 264.03438 55.655571 
L 267.313719 55.655571 
L 270.593058 55.151714 
L 273.872397 55.655571 
L 277.151736 55.655571 
L 280.431074 55.655571 
L 283.710413 55.655571 
L 286.989752 55.151714 
L 290.269091 55.655571 
L 293.54843 55.151714 
L 296.827769 55.655571 
L 300.107107 70.771276 
L 303.386446 69.259706 
L 306.665785 70.771276 
L 309.945124 74.802131 
L 313.224463 84.375412 
L 316.503802 89.917837 
L 319.78314 89.917837 
L 323.062479 87.398553 
L 326.341818 113.095252 
L 329.621157 115.11068 
L 332.900496 138.288095 
L 336.179835 136.272668 
L 339.459174 142.31895 
L 342.738512 148.365233 
L 346.017851 146.853662 
L 349.29719 145.342091 
L 352.576529 144.838235 
L 355.855868 158.946227 
L 359.135207 163.480938 
L 362.414545 167.511793 
L 365.693884 166.50408 
L 368.973223 166.000223 
L 372.252562 163.480938 
L 375.531901 170.031078 
L 378.81124 174.061932 
L 382.090579 175.069646 
L 385.369917 177.085074 
L 388.649256 179.100501 
L 391.928595 190.689209 
L 395.207934 194.216207 
L 398.487273 191.696922 
L 398.487273 167.511793 
L 398.487273 167.511793 
L 395.207934 169.527221 
L 391.928595 171.542648 
L 388.649256 161.969368 
L 385.369917 160.457797 
L 382.090579 158.946227 
L 378.81124 158.946227 
L 375.531901 147.861376 
L 372.252562 142.822807 
L 368.973223 146.853662 
L 365.693884 146.853662 
L 362.414545 147.357519 
L 359.135207 142.822807 
L 355.855868 138.791952 
L 352.576529 128.210958 
L 349.29719 125.691674 
L 346.017851 128.210958 
L 342.738512 129.218672 
L 339.459174 125.691674 
L 336.179835 123.17239 
L 332.900496 125.691674 
L 329.621157 88.910123 
L 326.341818 103.521972 
L 323.062479 73.290561 
L 319.78314 63.213423 
L 316.503802 55.151714 
L 313.224463 54.647857 
L 309.945124 55.151714 
L 306.665785 55.151714 
L 303.386446 55.655571 
L 300.107107 55.655571 
L 296.827769 55.151714 
L 293.54843 55.151714 
L 290.269091 55.655571 
L 286.989752 55.151714 
L 283.710413 55.655571 
L 280.431074 55.655571 
L 277.151736 55.655571 
L 273.872397 55.655571 
L 270.593058 55.151714 
L 267.313719 55.655571 
L 264.03438 55.655571 
L 260.755041 55.655571 
L 257.475702 56.159427 
L 254.196364 55.655571 
L 250.917025 55.655571 
L 247.637686 55.655571 
L 244.358347 55.655571 
L 241.079008 56.159427 
L 237.799669 56.159427 
L 234.520331 56.159427 
L 231.240992 55.655571 
L 227.961653 55.655571 
L 224.682314 55.655571 
L 221.402975 55.655571 
L 218.123636 55.655571 
L 214.844298 55.655571 
L 211.564959 55.655571 
L 208.28562 55.655571 
L 205.006281 55.655571 
L 201.726942 55.655571 
L 198.447603 55.655571 
L 195.168264 55.655571 
L 191.888926 55.655571 
L 188.609587 55.655571 
L 185.330248 55.655571 
L 182.050909 55.655571 
L 178.77157 55.655571 
L 175.492231 55.655571 
L 172.212893 55.655571 
L 168.933554 55.655571 
L 165.654215 55.655571 
L 162.374876 55.655571 
L 159.095537 55.655571 
L 155.816198 55.655571 
L 152.53686 55.655571 
L 149.257521 55.655571 
L 145.978182 55.655571 
L 142.698843 55.655571 
L 139.419504 55.655571 
L 136.140165 55.655571 
L 132.860826 55.655571 
L 129.581488 55.655571 
L 126.302149 55.655571 
L 123.02281 55.655571 
L 119.743471 55.655571 
L 116.464132 55.655571 
L 113.184793 55.655571 
L 109.905455 55.655571 
L 106.626116 55.655571 
L 103.346777 55.655571 
L 100.067438 55.655571 
L 96.788099 55.655571 
L 93.50876 55.655571 
L 90.229421 55.655571 
L 86.950083 55.655571 
L 83.670744 55.655571 
L 80.391405 55.655571 
L 77.112066 55.655571 
L 73.832727 55.655571 
z
" clip-path="url(#pcfa0fb3a6e)" style="fill: #bcbd22"/>
   </g>
   <g id="PolyCollection_10">
    <path d="M 73.832727 55.655571 
L 73.832727 55.655571 
L 77.112066 55.655571 
L 80.391405 55.655571 
L 83.670744 55.655571 
L 86.950083 55.655571 
L 90.229421 55.655571 
L 93.50876 55.655571 
L 96.788099 55.655571 
L 100.067438 55.655571 
L 103.346777 55.655571 
L 106.626116 55.655571 
L 109.905455 55.655571 
L 113.184793 55.655571 
L 116.464132 55.655571 
L 119.743471 55.655571 
L 123.02281 55.655571 
L 126.302149 55.655571 
L 129.581488 55.655571 
L 132.860826 55.655571 
L 136.140165 55.655571 
L 139.419504 55.655571 
L 142.698843 55.655571 
L 145.978182 55.655571 
L 149.257521 55.655571 
L 152.53686 55.655571 
L 155.816198 55.655571 
L 159.095537 55.655571 
L 162.374876 55.655571 
L 165.654215 55.655571 
L 168.933554 55.655571 
L 172.212893 55.655571 
L 175.492231 55.655571 
L 178.77157 55.655571 
L 182.050909 55.655571 
L 185.330248 55.655571 
L 188.609587 55.655571 
L 191.888926 55.655571 
L 195.168264 55.655571 
L 198.447603 55.655571 
L 201.726942 55.655571 
L 205.006281 55.655571 
L 208.28562 55.655571 
L 211.564959 55.655571 
L 214.844298 55.655571 
L 218.123636 55.655571 
L 221.402975 55.655571 
L 224.682314 55.655571 
L 227.961653 55.655571 
L 231.240992 55.655571 
L 234.520331 56.159427 
L 237.799669 56.159427 
L 241.079008 56.159427 
L 244.358347 55.655571 
L 247.637686 55.655571 
L 250.917025 55.655571 
L 254.196364 55.655571 
L 257.475702 56.159427 
L 260.755041 55.655571 
L 264.03438 55.655571 
L 267.313719 55.655571 
L 270.593058 55.151714 
L 273.872397 55.655571 
L 277.151736 55.655571 
L 280.431074 55.655571 
L 283.710413 55.655571 
L 286.989752 55.151714 
L 290.269091 55.655571 
L 293.54843 55.151714 
L 296.827769 55.151714 
L 300.107107 55.655571 
L 303.386446 55.655571 
L 306.665785 55.151714 
L 309.945124 55.151714 
L 313.224463 54.647857 
L 316.503802 55.151714 
L 319.78314 63.213423 
L 323.062479 73.290561 
L 326.341818 103.521972 
L 329.621157 88.910123 
L 332.900496 125.691674 
L 336.179835 123.17239 
L 339.459174 125.691674 
L 342.738512 129.218672 
L 346.017851 128.210958 
L 349.29719 125.691674 
L 352.576529 128.210958 
L 355.855868 138.791952 
L 359.135207 142.822807 
L 362.414545 147.357519 
L 365.693884 146.853662 
L 368.973223 146.853662 
L 372.252562 142.822807 
L 375.531901 147.861376 
L 378.81124 158.946227 
L 382.090579 158.946227 
L 385.369917 160.457797 
L 388.649256 161.969368 
L 391.928595 171.542648 
L 395.207934 169.527221 
L 398.487273 167.511793 
L 398.487273 137.784239 
L 398.487273 137.784239 
L 395.207934 140.303523 
L 391.928595 147.357519 
L 388.649256 139.295809 
L 385.369917 136.272668 
L 382.090579 135.264954 
L 378.81124 134.761097 
L 375.531901 132.74567 
L 372.252562 122.668533 
L 368.973223 122.668533 
L 365.693884 122.164676 
L 362.414545 121.660819 
L 359.135207 119.645392 
L 355.855868 113.095252 
L 352.576529 103.018115 
L 349.29719 99.994974 
L 346.017851 101.002688 
L 342.738512 103.521972 
L 339.459174 98.98726 
L 336.179835 104.025829 
L 332.900496 101.506545 
L 329.621157 73.290561 
L 326.341818 81.856127 
L 323.062479 64.724994 
L 319.78314 56.159427 
L 316.503802 55.151714 
L 313.224463 54.647857 
L 309.945124 55.151714 
L 306.665785 55.151714 
L 303.386446 55.655571 
L 300.107107 55.655571 
L 296.827769 55.151714 
L 293.54843 55.151714 
L 290.269091 55.655571 
L 286.989752 55.151714 
L 283.710413 55.655571 
L 280.431074 55.655571 
L 277.151736 55.655571 
L 273.872397 55.655571 
L 270.593058 55.151714 
L 267.313719 55.655571 
L 264.03438 55.655571 
L 260.755041 55.655571 
L 257.475702 56.159427 
L 254.196364 55.655571 
L 250.917025 55.655571 
L 247.637686 55.655571 
L 244.358347 55.655571 
L 241.079008 56.159427 
L 237.799669 56.159427 
L 234.520331 56.159427 
L 231.240992 55.655571 
L 227.961653 55.655571 
L 224.682314 55.655571 
L 221.402975 55.655571 
L 218.123636 55.655571 
L 214.844298 55.655571 
L 211.564959 55.655571 
L 208.28562 55.655571 
L 205.006281 55.655571 
L 201.726942 55.655571 
L 198.447603 55.655571 
L 195.168264 55.655571 
L 191.888926 55.655571 
L 188.609587 55.655571 
L 185.330248 55.655571 
L 182.050909 55.655571 
L 178.77157 55.655571 
L 175.492231 55.655571 
L 172.212893 55.655571 
L 168.933554 55.655571 
L 165.654215 55.655571 
L 162.374876 55.655571 
L 159.095537 55.655571 
L 155.816198 55.655571 
L 152.53686 55.655571 
L 149.257521 55.655571 
L 145.978182 55.655571 
L 142.698843 55.655571 
L 139.419504 55.655571 
L 136.140165 55.655571 
L 132.860826 55.655571 
L 129.581488 55.655571 
L 126.302149 55.655571 
L 123.02281 55.655571 
L 119.743471 55.655571 
L 116.464132 55.655571 
L 113.184793 55.655571 
L 109.905455 55.655571 
L 106.626116 55.655571 
L 103.346777 55.655571 
L 100.067438 55.655571 
L 96.788099 55.655571 
L 93.50876 55.655571 
L 90.229421 55.655571 
L 86.950083 55.655571 
L 83.670744 55.655571 
L 80.391405 55.655571 
L 77.112066 55.655571 
L 73.832727 55.655571 
z
" clip-path="url(#pcfa0fb3a6e)" style="fill: #17becf"/>
   </g>
   <g id="PolyCollection_11">
    <path d="M 73.832727 55.655571 
L 73.832727 55.655571 
L 77.112066 55.655571 
L 80.391405 55.655571 
L 83.670744 55.655571 
L 86.950083 55.655571 
L 90.229421 55.655571 
L 93.50876 55.655571 
L 96.788099 55.655571 
L 100.067438 55.655571 
L 103.346777 55.655571 
L 106.626116 55.655571 
L 109.905455 55.655571 
L 113.184793 55.655571 
L 116.464132 55.655571 
L 119.743471 55.655571 
L 123.02281 55.655571 
L 126.302149 55.655571 
L 129.581488 55.655571 
L 132.860826 55.655571 
L 136.140165 55.655571 
L 139.419504 55.655571 
L 142.698843 55.655571 
L 145.978182 55.655571 
L 149.257521 55.655571 
L 152.53686 55.655571 
L 155.816198 55.655571 
L 159.095537 55.655571 
L 162.374876 55.655571 
L 165.654215 55.655571 
L 168.933554 55.655571 
L 172.212893 55.655571 
L 175.492231 55.655571 
L 178.77157 55.655571 
L 182.050909 55.655571 
L 185.330248 55.655571 
L 188.609587 55.655571 
L 191.888926 55.655571 
L 195.168264 55.655571 
L 198.447603 55.655571 
L 201.726942 55.655571 
L 205.006281 55.655571 
L 208.28562 55.655571 
L 211.564959 55.655571 
L 214.844298 55.655571 
L 218.123636 55.655571 
L 221.402975 55.655571 
L 224.682314 55.655571 
L 227.961653 55.655571 
L 231.240992 55.655571 
L 234.520331 56.159427 
L 237.799669 56.159427 
L 241.079008 56.159427 
L 244.358347 55.655571 
L 247.637686 55.655571 
L 250.917025 55.655571 
L 254.196364 55.655571 
L 257.475702 56.159427 
L 260.755041 55.655571 
L 264.03438 55.655571 
L 267.313719 55.655571 
L 270.593058 55.151714 
L 273.872397 55.655571 
L 277.151736 55.655571 
L 280.431074 55.655571 
L 283.710413 55.655571 
L 286.989752 55.151714 
L 290.269091 55.655571 
L 293.54843 55.151714 
L 296.827769 55.151714 
L 300.107107 55.655571 
L 303.386446 55.655571 
L 306.665785 55.151714 
L 309.945124 55.151714 
L 313.224463 54.647857 
L 316.503802 55.151714 
L 319.78314 56.159427 
L 323.062479 64.724994 
L 326.341818 81.856127 
L 329.621157 73.290561 
L 332.900496 101.506545 
L 336.179835 104.025829 
L 339.459174 98.98726 
L 342.738512 103.521972 
L 346.017851 101.002688 
L 349.29719 99.994974 
L 352.576529 103.018115 
L 355.855868 113.095252 
L 359.135207 119.645392 
L 362.414545 121.660819 
L 365.693884 122.164676 
L 368.973223 122.668533 
L 372.252562 122.668533 
L 375.531901 132.74567 
L 378.81124 134.761097 
L 382.090579 135.264954 
L 385.369917 136.272668 
L 388.649256 139.295809 
L 391.928595 147.357519 
L 395.207934 140.303523 
L 398.487273 137.784239 
L 398.487273 137.784239 
L 398.487273 137.784239 
L 395.207934 140.303523 
L 391.928595 123.676247 
L 388.649256 117.126107 
L 385.369917 115.11068 
L 382.090579 114.606823 
L 378.81124 113.599109 
L 375.531901 112.087539 
L 372.252562 102.514258 
L 368.973223 101.506545 
L 365.693884 101.506545 
L 362.414545 100.498831 
L 359.135207 97.979547 
L 355.855868 89.41398 
L 352.576529 78.832986 
L 349.29719 78.329129 
L 346.017851 78.832986 
L 342.738512 80.344557 
L 339.459174 75.305988 
L 336.179835 76.817559 
L 332.900496 72.786704 
L 329.621157 65.228851 
L 326.341818 61.197996 
L 323.062479 55.655571 
L 319.78314 56.159427 
L 316.503802 55.151714 
L 313.224463 54.647857 
L 309.945124 55.151714 
L 306.665785 55.151714 
L 303.386446 55.655571 
L 300.107107 55.655571 
L 296.827769 55.151714 
L 293.54843 55.151714 
L 290.269091 55.655571 
L 286.989752 55.151714 
L 283.710413 55.655571 
L 280.431074 55.655571 
L 277.151736 55.655571 
L 273.872397 55.655571 
L 270.593058 55.151714 
L 267.313719 55.655571 
L 264.03438 55.655571 
L 260.755041 55.655571 
L 257.475702 56.159427 
L 254.196364 55.655571 
L 250.917025 55.655571 
L 247.637686 55.655571 
L 244.358347 55.655571 
L 241.079008 56.159427 
L 237.799669 56.159427 
L 234.520331 56.159427 
L 231.240992 55.655571 
L 227.961653 55.655571 
L 224.682314 55.655571 
L 221.402975 55.655571 
L 218.123636 55.655571 
L 214.844298 55.655571 
L 211.564959 55.655571 
L 208.28562 55.655571 
L 205.006281 55.655571 
L 201.726942 55.655571 
L 198.447603 55.655571 
L 195.168264 55.655571 
L 191.888926 55.655571 
L 188.609587 55.655571 
L 185.330248 55.655571 
L 182.050909 55.655571 
L 178.77157 55.655571 
L 175.492231 55.655571 
L 172.212893 55.655571 
L 168.933554 55.655571 
L 165.654215 55.655571 
L 162.374876 55.655571 
L 159.095537 55.655571 
L 155.816198 55.655571 
L 152.53686 55.655571 
L 149.257521 55.655571 
L 145.978182 55.655571 
L 142.698843 55.655571 
L 139.419504 55.655571 
L 136.140165 55.655571 
L 132.860826 55.655571 
L 129.581488 55.655571 
L 126.302149 55.655571 
L 123.02281 55.655571 
L 119.743471 55.655571 
L 116.464132 55.655571 
L 113.184793 55.655571 
L 109.905455 55.655571 
L 106.626116 55.655571 
L 103.346777 55.655571 
L 100.067438 55.655571 
L 96.788099 55.655571 
L 93.50876 55.655571 
L 90.229421 55.655571 
L 86.950083 55.655571 
L 83.670744 55.655571 
L 80.391405 55.655571 
L 77.112066 55.655571 
L 73.832727 55.655571 
z
" clip-path="url(#pcfa0fb3a6e)" style="fill: #1f77b4"/>
   </g>
   <g id="PolyCollection_12">
    <path d="M 73.832727 55.655571 
L 73.832727 55.655571 
L 77.112066 55.655571 
L 80.391405 55.655571 
L 83.670744 55.655571 
L 86.950083 55.655571 
L 90.229421 55.655571 
L 93.50876 55.655571 
L 96.788099 55.655571 
L 100.067438 55.655571 
L 103.346777 55.655571 
L 106.626116 55.655571 
L 109.905455 55.655571 
L 113.184793 55.655571 
L 116.464132 55.655571 
L 119.743471 55.655571 
L 123.02281 55.655571 
L 126.302149 55.655571 
L 129.581488 55.655571 
L 132.860826 55.655571 
L 136.140165 55.655571 
L 139.419504 55.655571 
L 142.698843 55.655571 
L 145.978182 55.655571 
L 149.257521 55.655571 
L 152.53686 55.655571 
L 155.816198 55.655571 
L 159.095537 55.655571 
L 162.374876 55.655571 
L 165.654215 55.655571 
L 168.933554 55.655571 
L 172.212893 55.655571 
L 175.492231 55.655571 
L 178.77157 55.655571 
L 182.050909 55.655571 
L 185.330248 55.655571 
L 188.609587 55.655571 
L 191.888926 55.655571 
L 195.168264 55.655571 
L 198.447603 55.655571 
L 201.726942 55.655571 
L 205.006281 55.655571 
L 208.28562 55.655571 
L 211.564959 55.655571 
L 214.844298 55.655571 
L 218.123636 55.655571 
L 221.402975 55.655571 
L 224.682314 55.655571 
L 227.961653 55.655571 
L 231.240992 55.655571 
L 234.520331 56.159427 
L 237.799669 56.159427 
L 241.079008 56.159427 
L 244.358347 55.655571 
L 247.637686 55.655571 
L 250.917025 55.655571 
L 254.196364 55.655571 
L 257.475702 56.159427 
L 260.755041 55.655571 
L 264.03438 55.655571 
L 267.313719 55.655571 
L 270.593058 55.151714 
L 273.872397 55.655571 
L 277.151736 55.655571 
L 280.431074 55.655571 
L 283.710413 55.655571 
L 286.989752 55.151714 
L 290.269091 55.655571 
L 293.54843 55.151714 
L 296.827769 55.151714 
L 300.107107 55.655571 
L 303.386446 55.655571 
L 306.665785 55.151714 
L 309.945124 55.151714 
L 313.224463 54.647857 
L 316.503802 55.151714 
L 319.78314 56.159427 
L 323.062479 55.655571 
L 326.341818 61.197996 
L 329.621157 65.228851 
L 332.900496 72.786704 
L 336.179835 76.817559 
L 339.459174 75.305988 
L 342.738512 80.344557 
L 346.017851 78.832986 
L 349.29719 78.329129 
L 352.576529 78.832986 
L 355.855868 89.41398 
L 359.135207 97.979547 
L 362.414545 100.498831 
L 365.693884 101.506545 
L 368.973223 101.506545 
L 372.252562 102.514258 
L 375.531901 112.087539 
L 378.81124 113.599109 
L 382.090579 114.606823 
L 385.369917 115.11068 
L 388.649256 117.126107 
L 391.928595 123.676247 
L 395.207934 140.303523 
L 398.487273 137.784239 
L 398.487273 106.545113 
L 398.487273 106.545113 
L 395.207934 109.568254 
L 391.928595 98.483404 
L 388.649256 93.948692 
L 385.369917 92.437121 
L 382.090579 92.437121 
L 378.81124 90.925551 
L 375.531901 88.910123 
L 372.252562 78.329129 
L 368.973223 77.825272 
L 365.693884 77.321416 
L 362.414545 77.321416 
L 359.135207 75.305988 
L 355.855868 69.259706 
L 352.576529 58.174855 
L 349.29719 55.655571 
L 346.017851 54.647857 
L 342.738512 54.647857 
L 339.459174 56.159427 
L 336.179835 55.655571 
L 332.900496 55.655571 
L 329.621157 55.655571 
L 326.341818 55.151714 
L 323.062479 55.655571 
L 319.78314 56.159427 
L 316.503802 55.151714 
L 313.224463 54.647857 
L 309.945124 55.151714 
L 306.665785 55.151714 
L 303.386446 55.655571 
L 300.107107 55.655571 
L 296.827769 55.151714 
L 293.54843 55.151714 
L 290.269091 55.655571 
L 286.989752 55.151714 
L 283.710413 55.655571 
L 280.431074 55.655571 
L 277.151736 55.655571 
L 273.872397 55.655571 
L 270.593058 55.151714 
L 267.313719 55.655571 
L 264.03438 55.655571 
L 260.755041 55.655571 
L 257.475702 56.159427 
L 254.196364 55.655571 
L 250.917025 55.655571 
L 247.637686 55.655571 
L 244.358347 55.655571 
L 241.079008 56.159427 
L 237.799669 56.159427 
L 234.520331 56.159427 
L 231.240992 55.655571 
L 227.961653 55.655571 
L 224.682314 55.655571 
L 221.402975 55.655571 
L 218.123636 55.655571 
L 214.844298 55.655571 
L 211.564959 55.655571 
L 208.28562 55.655571 
L 205.006281 55.655571 
L 201.726942 55.655571 
L 198.447603 55.655571 
L 195.168264 55.655571 
L 191.888926 55.655571 
L 188.609587 55.655571 
L 185.330248 55.655571 
L 182.050909 55.655571 
L 178.77157 55.655571 
L 175.492231 55.655571 
L 172.212893 55.655571 
L 168.933554 55.655571 
L 165.654215 55.655571 
L 162.374876 55.655571 
L 159.095537 55.655571 
L 155.816198 55.655571 
L 152.53686 55.655571 
L 149.257521 55.655571 
L 145.978182 55.655571 
L 142.698843 55.655571 
L 139.419504 55.655571 
L 136.140165 55.655571 
L 132.860826 55.655571 
L 129.581488 55.655571 
L 126.302149 55.655571 
L 123.02281 55.655571 
L 119.743471 55.655571 
L 116.464132 55.655571 
L 113.184793 55.655571 
L 109.905455 55.655571 
L 106.626116 55.655571 
L 103.346777 55.655571 
L 100.067438 55.655571 
L 96.788099 55.655571 
L 93.50876 55.655571 
L 90.229421 55.655571 
L 86.950083 55.655571 
L 83.670744 55.655571 
L 80.391405 55.655571 
L 77.112066 55.655571 
L 73.832727 55.655571 
z
" clip-path="url(#pcfa0fb3a6e)" style="fill: #ff7f0e"/>
   </g>
   <g id="PolyCollection_13">
    <path d="M 73.832727 55.655571 
L 73.832727 55.655571 
L 77.112066 55.655571 
L 80.391405 55.655571 
L 83.670744 55.655571 
L 86.950083 55.655571 
L 90.229421 55.655571 
L 93.50876 55.655571 
L 96.788099 55.655571 
L 100.067438 55.655571 
L 103.346777 55.655571 
L 106.626116 55.655571 
L 109.905455 55.655571 
L 113.184793 55.655571 
L 116.464132 55.655571 
L 119.743471 55.655571 
L 123.02281 55.655571 
L 126.302149 55.655571 
L 129.581488 55.655571 
L 132.860826 55.655571 
L 136.140165 55.655571 
L 139.419504 55.655571 
L 142.698843 55.655571 
L 145.978182 55.655571 
L 149.257521 55.655571 
L 152.53686 55.655571 
L 155.816198 55.655571 
L 159.095537 55.655571 
L 162.374876 55.655571 
L 165.654215 55.655571 
L 168.933554 55.655571 
L 172.212893 55.655571 
L 175.492231 55.655571 
L 178.77157 55.655571 
L 182.050909 55.655571 
L 185.330248 55.655571 
L 188.609587 55.655571 
L 191.888926 55.655571 
L 195.168264 55.655571 
L 198.447603 55.655571 
L 201.726942 55.655571 
L 205.006281 55.655571 
L 208.28562 55.655571 
L 211.564959 55.655571 
L 214.844298 55.655571 
L 218.123636 55.655571 
L 221.402975 55.655571 
L 224.682314 55.655571 
L 227.961653 55.655571 
L 231.240992 55.655571 
L 234.520331 56.159427 
L 237.799669 56.159427 
L 241.079008 56.159427 
L 244.358347 55.655571 
L 247.637686 55.655571 
L 250.917025 55.655571 
L 254.196364 55.655571 
L 257.475702 56.159427 
L 260.755041 55.655571 
L 264.03438 55.655571 
L 267.313719 55.655571 
L 270.593058 55.151714 
L 273.872397 55.655571 
L 277.151736 55.655571 
L 280.431074 55.655571 
L 283.710413 55.655571 
L 286.989752 55.151714 
L 290.269091 55.655571 
L 293.54843 55.151714 
L 296.827769 55.151714 
L 300.107107 55.655571 
L 303.386446 55.655571 
L 306.665785 55.151714 
L 309.945124 55.151714 
L 313.224463 54.647857 
L 316.503802 55.151714 
L 319.78314 56.159427 
L 323.062479 55.655571 
L 326.341818 55.151714 
L 329.621157 55.655571 
L 332.900496 55.655571 
L 336.179835 55.655571 
L 339.459174 56.159427 
L 342.738512 54.647857 
L 346.017851 54.647857 
L 349.29719 55.655571 
L 352.576529 58.174855 
L 355.855868 69.259706 
L 359.135207 75.305988 
L 362.414545 77.321416 
L 365.693884 77.321416 
L 368.973223 77.825272 
L 372.252562 78.329129 
L 375.531901 88.910123 
L 378.81124 90.925551 
L 382.090579 92.437121 
L 385.369917 92.437121 
L 388.649256 93.948692 
L 391.928595 98.483404 
L 395.207934 109.568254 
L 398.487273 106.545113 
L 398.487273 79.8407 
L 398.487273 79.8407 
L 395.207934 82.359984 
L 391.928595 75.305988 
L 388.649256 72.282847 
L 385.369917 71.275133 
L 382.090579 71.77899 
L 378.81124 69.259706 
L 375.531901 67.748135 
L 372.252562 57.670998 
L 368.973223 56.663284 
L 365.693884 55.655571 
L 362.414545 56.159427 
L 359.135207 56.159427 
L 355.855868 56.159427 
L 352.576529 56.159427 
L 349.29719 55.655571 
L 346.017851 54.647857 
L 342.738512 54.647857 
L 339.459174 56.159427 
L 336.179835 55.655571 
L 332.900496 55.655571 
L 329.621157 55.655571 
L 326.341818 55.151714 
L 323.062479 55.655571 
L 319.78314 56.159427 
L 316.503802 55.151714 
L 313.224463 54.647857 
L 309.945124 55.151714 
L 306.665785 55.151714 
L 303.386446 55.655571 
L 300.107107 55.655571 
L 296.827769 55.151714 
L 293.54843 55.151714 
L 290.269091 55.655571 
L 286.989752 55.151714 
L 283.710413 55.655571 
L 280.431074 55.655571 
L 277.151736 55.655571 
L 273.872397 55.655571 
L 270.593058 55.151714 
L 267.313719 55.655571 
L 264.03438 55.655571 
L 260.755041 55.655571 
L 257.475702 56.159427 
L 254.196364 55.655571 
L 250.917025 55.655571 
L 247.637686 55.655571 
L 244.358347 55.655571 
L 241.079008 56.159427 
L 237.799669 56.159427 
L 234.520331 56.159427 
L 231.240992 55.655571 
L 227.961653 55.655571 
L 224.682314 55.655571 
L 221.402975 55.655571 
L 218.123636 55.655571 
L 214.844298 55.655571 
L 211.564959 55.655571 
L 208.28562 55.655571 
L 205.006281 55.655571 
L 201.726942 55.655571 
L 198.447603 55.655571 
L 195.168264 55.655571 
L 191.888926 55.655571 
L 188.609587 55.655571 
L 185.330248 55.655571 
L 182.050909 55.655571 
L 178.77157 55.655571 
L 175.492231 55.655571 
L 172.212893 55.655571 
L 168.933554 55.655571 
L 165.654215 55.655571 
L 162.374876 55.655571 
L 159.095537 55.655571 
L 155.816198 55.655571 
L 152.53686 55.655571 
L 149.257521 55.655571 
L 145.978182 55.655571 
L 142.698843 55.655571 
L 139.419504 55.655571 
L 136.140165 55.655571 
L 132.860826 55.655571 
L 129.581488 55.655571 
L 126.302149 55.655571 
L 123.02281 55.655571 
L 119.743471 55.655571 
L 116.464132 55.655571 
L 113.184793 55.655571 
L 109.905455 55.655571 
L 106.626116 55.655571 
L 103.346777 55.655571 
L 100.067438 55.655571 
L 96.788099 55.655571 
L 93.50876 55.655571 
L 90.229421 55.655571 
L 86.950083 55.655571 
L 83.670744 55.655571 
L 80.391405 55.655571 
L 77.112066 55.655571 
L 73.832727 55.655571 
z
" clip-path="url(#pcfa0fb3a6e)" style="fill: #2ca02c"/>
   </g>
   <g id="PolyCollection_14">
    <path d="M 73.832727 55.655571 
L 73.832727 55.655571 
L 77.112066 55.655571 
L 80.391405 55.655571 
L 83.670744 55.655571 
L 86.950083 55.655571 
L 90.229421 55.655571 
L 93.50876 55.655571 
L 96.788099 55.655571 
L 100.067438 55.655571 
L 103.346777 55.655571 
L 106.626116 55.655571 
L 109.905455 55.655571 
L 113.184793 55.655571 
L 116.464132 55.655571 
L 119.743471 55.655571 
L 123.02281 55.655571 
L 126.302149 55.655571 
L 129.581488 55.655571 
L 132.860826 55.655571 
L 136.140165 55.655571 
L 139.419504 55.655571 
L 142.698843 55.655571 
L 145.978182 55.655571 
L 149.257521 55.655571 
L 152.53686 55.655571 
L 155.816198 55.655571 
L 159.095537 55.655571 
L 162.374876 55.655571 
L 165.654215 55.655571 
L 168.933554 55.655571 
L 172.212893 55.655571 
L 175.492231 55.655571 
L 178.77157 55.655571 
L 182.050909 55.655571 
L 185.330248 55.655571 
L 188.609587 55.655571 
L 191.888926 55.655571 
L 195.168264 55.655571 
L 198.447603 55.655571 
L 201.726942 55.655571 
L 205.006281 55.655571 
L 208.28562 55.655571 
L 211.564959 55.655571 
L 214.844298 55.655571 
L 218.123636 55.655571 
L 221.402975 55.655571 
L 224.682314 55.655571 
L 227.961653 55.655571 
L 231.240992 55.655571 
L 234.520331 56.159427 
L 237.799669 56.159427 
L 241.079008 56.159427 
L 244.358347 55.655571 
L 247.637686 55.655571 
L 250.917025 55.655571 
L 254.196364 55.655571 
L 257.475702 56.159427 
L 260.755041 55.655571 
L 264.03438 55.655571 
L 267.313719 55.655571 
L 270.593058 55.151714 
L 273.872397 55.655571 
L 277.151736 55.655571 
L 280.431074 55.655571 
L 283.710413 55.655571 
L 286.989752 55.151714 
L 290.269091 55.655571 
L 293.54843 55.151714 
L 296.827769 55.151714 
L 300.107107 55.655571 
L 303.386446 55.655571 
L 306.665785 55.151714 
L 309.945124 55.151714 
L 313.224463 54.647857 
L 316.503802 55.151714 
L 319.78314 56.159427 
L 323.062479 55.655571 
L 326.341818 55.151714 
L 329.621157 55.655571 
L 332.900496 55.655571 
L 336.179835 55.655571 
L 339.459174 56.159427 
L 342.738512 54.647857 
L 346.017851 54.647857 
L 349.29719 55.655571 
L 352.576529 56.159427 
L 355.855868 56.159427 
L 359.135207 56.159427 
L 362.414545 56.159427 
L 365.693884 55.655571 
L 368.973223 56.663284 
L 372.252562 57.670998 
L 375.531901 67.748135 
L 378.81124 69.259706 
L 382.090579 71.77899 
L 385.369917 71.275133 
L 388.649256 72.282847 
L 391.928595 75.305988 
L 395.207934 82.359984 
L 398.487273 79.8407 
L 398.487273 54.647857 
L 398.487273 54.647857 
L 395.207934 55.655571 
L 391.928595 54.647857 
L 388.649256 54.647857 
L 385.369917 54.144 
L 382.090579 56.159427 
L 378.81124 55.151714 
L 375.531901 56.159427 
L 372.252562 56.663284 
L 368.973223 56.663284 
L 365.693884 55.655571 
L 362.414545 56.159427 
L 359.135207 56.159427 
L 355.855868 56.159427 
L 352.576529 56.159427 
L 349.29719 55.655571 
L 346.017851 54.647857 
L 342.738512 54.647857 
L 339.459174 56.159427 
L 336.179835 55.655571 
L 332.900496 55.655571 
L 329.621157 55.655571 
L 326.341818 55.151714 
L 323.062479 55.655571 
L 319.78314 56.159427 
L 316.503802 55.151714 
L 313.224463 54.647857 
L 309.945124 55.151714 
L 306.665785 55.151714 
L 303.386446 55.655571 
L 300.107107 55.655571 
L 296.827769 55.151714 
L 293.54843 55.151714 
L 290.269091 55.655571 
L 286.989752 55.151714 
L 283.710413 55.655571 
L 280.431074 55.655571 
L 277.151736 55.655571 
L 273.872397 55.655571 
L 270.593058 55.151714 
L 267.313719 55.655571 
L 264.03438 55.655571 
L 260.755041 55.655571 
L 257.475702 56.159427 
L 254.196364 55.655571 
L 250.917025 55.655571 
L 247.637686 55.655571 
L 244.358347 55.655571 
L 241.079008 56.159427 
L 237.799669 56.159427 
L 234.520331 56.159427 
L 231.240992 55.655571 
L 227.961653 55.655571 
L 224.682314 55.655571 
L 221.402975 55.655571 
L 218.123636 55.655571 
L 214.844298 55.655571 
L 211.564959 55.655571 
L 208.28562 55.655571 
L 205.006281 55.655571 
L 201.726942 55.655571 
L 198.447603 55.655571 
L 195.168264 55.655571 
L 191.888926 55.655571 
L 188.609587 55.655571 
L 185.330248 55.655571 
L 182.050909 55.655571 
L 178.77157 55.655571 
L 175.492231 55.655571 
L 172.212893 55.655571 
L 168.933554 55.655571 
L 165.654215 55.655571 
L 162.374876 55.655571 
L 159.095537 55.655571 
L 155.816198 55.655571 
L 152.53686 55.655571 
L 149.257521 55.655571 
L 145.978182 55.655571 
L 142.698843 55.655571 
L 139.419504 55.655571 
L 136.140165 55.655571 
L 132.860826 55.655571 
L 129.581488 55.655571 
L 126.302149 55.655571 
L 123.02281 55.655571 
L 119.743471 55.655571 
L 116.464132 55.655571 
L 113.184793 55.655571 
L 109.905455 55.655571 
L 106.626116 55.655571 
L 103.346777 55.655571 
L 100.067438 55.655571 
L 96.788099 55.655571 
L 93.50876 55.655571 
L 90.229421 55.655571 
L 86.950083 55.655571 
L 83.670744 55.655571 
L 80.391405 55.655571 
L 77.112066 55.655571 
L 73.832727 55.655571 
z
" clip-path="url(#pcfa0fb3a6e)" style="fill: #d62728"/>
   </g>
   <g id="matplotlib.axis_1">
    <g id="xtick_1">
     <g id="line2d_1">
      <defs>
       <path id="m0f6952c8da" d="M 0 0 
L 0 3.5 
" style="stroke: #000000; stroke-width: 0.8"/>
      </defs>
      <g>
       <use xlink:href="#m0f6952c8da" x="73.832727" y="307.584" style="stroke: #000000; stroke-width: 0.8"/>
      </g>
     </g>
     <g id="text_1">
      <!-- 0 -->
      <g transform="translate(70.651477 322.182437) scale(0.1 -0.1)">
       <defs>
        <path id="DejaVuSans-30" d="M 2034 4250 
Q 1547 4250 1301 3770 
Q 1056 3291 1056 2328 
Q 1056 1369 1301 889 
Q 1547 409 2034 409 
Q 2525 409 2770 889 
Q 3016 1369 3016 2328 
Q 3016 3291 2770 3770 
Q 2525 4250 2034 4250 
z
M 2034 4750 
Q 2819 4750 3233 4129 
Q 3647 3509 3647 2328 
Q 3647 1150 3233 529 
Q 2819 -91 2034 -91 
Q 1250 -91 836 529 
Q 422 1150 422 2328 
Q 422 3509 836 4129 
Q 1250 4750 2034 4750 
z
" transform="scale(0.015625)"/>
       </defs>
       <use xlink:href="#DejaVuSans-30"/>
      </g>
     </g>
    </g>
    <g id="xtick_2">
     <g id="line2d_2">
      <g>
       <use xlink:href="#m0f6952c8da" x="139.419504" y="307.584" style="stroke: #000000; stroke-width: 0.8"/>
      </g>
     </g>
     <g id="text_2">
      <!-- 20 -->
      <g transform="translate(133.057004 322.182437) scale(0.1 -0.1)">
       <defs>
        <path id="DejaVuSans-32" d="M 1228 531 
L 3431 531 
L 3431 0 
L 469 0 
L 469 531 
Q 828 903 1448 1529 
Q 2069 2156 2228 2338 
Q 2531 2678 2651 2914 
Q 2772 3150 2772 3378 
Q 2772 3750 2511 3984 
Q 2250 4219 1831 4219 
Q 1534 4219 1204 4116 
Q 875 4013 500 3803 
L 500 4441 
Q 881 4594 1212 4672 
Q 1544 4750 1819 4750 
Q 2544 4750 2975 4387 
Q 3406 4025 3406 3419 
Q 3406 3131 3298 2873 
Q 3191 2616 2906 2266 
Q 2828 2175 2409 1742 
Q 1991 1309 1228 531 
z
" transform="scale(0.015625)"/>
       </defs>
       <use xlink:href="#DejaVuSans-32"/>
       <use xlink:href="#DejaVuSans-30" x="63.623047"/>
      </g>
     </g>
    </g>
    <g id="xtick_3">
     <g id="line2d_3">
      <g>
       <use xlink:href="#m0f6952c8da" x="205.006281" y="307.584" style="stroke: #000000; stroke-width: 0.8"/>
      </g>
     </g>
     <g id="text_3">
      <!-- 40 -->
      <g transform="translate(198.643781 322.182437) scale(0.1 -0.1)">
       <defs>
        <path id="DejaVuSans-34" d="M 2419 4116 
L 825 1625 
L 2419 1625 
L 2419 4116 
z
M 2253 4666 
L 3047 4666 
L 3047 1625 
L 3713 1625 
L 3713 1100 
L 3047 1100 
L 3047 0 
L 2419 0 
L 2419 1100 
L 313 1100 
L 313 1709 
L 2253 4666 
z
" transform="scale(0.015625)"/>
       </defs>
       <use xlink:href="#DejaVuSans-34"/>
       <use xlink:href="#DejaVuSans-30" x="63.623047"/>
      </g>
     </g>
    </g>
    <g id="xtick_4">
     <g id="line2d_4">
      <g>
       <use xlink:href="#m0f6952c8da" x="270.593058" y="307.584" style="stroke: #000000; stroke-width: 0.8"/>
      </g>
     </g>
     <g id="text_4">
      <!-- 60 -->
      <g transform="translate(264.230558 322.182437) scale(0.1 -0.1)">
       <defs>
        <path id="DejaVuSans-36" d="M 2113 2584 
Q 1688 2584 1439 2293 
Q 1191 2003 1191 1497 
Q 1191 994 1439 701 
Q 1688 409 2113 409 
Q 2538 409 2786 701 
Q 3034 994 3034 1497 
Q 3034 2003 2786 2293 
Q 2538 2584 2113 2584 
z
M 3366 4563 
L 3366 3988 
Q 3128 4100 2886 4159 
Q 2644 4219 2406 4219 
Q 1781 4219 1451 3797 
Q 1122 3375 1075 2522 
Q 1259 2794 1537 2939 
Q 1816 3084 2150 3084 
Q 2853 3084 3261 2657 
Q 3669 2231 3669 1497 
Q 3669 778 3244 343 
Q 2819 -91 2113 -91 
Q 1303 -91 875 529 
Q 447 1150 447 2328 
Q 447 3434 972 4092 
Q 1497 4750 2381 4750 
Q 2619 4750 2861 4703 
Q 3103 4656 3366 4563 
z
" transform="scale(0.015625)"/>
       </defs>
       <use xlink:href="#DejaVuSans-36"/>
       <use xlink:href="#DejaVuSans-30" x="63.623047"/>
      </g>
     </g>
    </g>
    <g id="xtick_5">
     <g id="line2d_5">
      <g>
       <use xlink:href="#m0f6952c8da" x="336.179835" y="307.584" style="stroke: #000000; stroke-width: 0.8"/>
      </g>
     </g>
     <g id="text_5">
      <!-- 80 -->
      <g transform="translate(329.817335 322.182437) scale(0.1 -0.1)">
       <defs>
        <path id="DejaVuSans-38" d="M 2034 2216 
Q 1584 2216 1326 1975 
Q 1069 1734 1069 1313 
Q 1069 891 1326 650 
Q 1584 409 2034 409 
Q 2484 409 2743 651 
Q 3003 894 3003 1313 
Q 3003 1734 2745 1975 
Q 2488 2216 2034 2216 
z
M 1403 2484 
Q 997 2584 770 2862 
Q 544 3141 544 3541 
Q 544 4100 942 4425 
Q 1341 4750 2034 4750 
Q 2731 4750 3128 4425 
Q 3525 4100 3525 3541 
Q 3525 3141 3298 2862 
Q 3072 2584 2669 2484 
Q 3125 2378 3379 2068 
Q 3634 1759 3634 1313 
Q 3634 634 3220 271 
Q 2806 -91 2034 -91 
Q 1263 -91 848 271 
Q 434 634 434 1313 
Q 434 1759 690 2068 
Q 947 2378 1403 2484 
z
M 1172 3481 
Q 1172 3119 1398 2916 
Q 1625 2713 2034 2713 
Q 2441 2713 2670 2916 
Q 2900 3119 2900 3481 
Q 2900 3844 2670 4047 
Q 2441 4250 2034 4250 
Q 1625 4250 1398 4047 
Q 1172 3844 1172 3481 
z
" transform="scale(0.015625)"/>
       </defs>
       <use xlink:href="#DejaVuSans-38"/>
       <use xlink:href="#DejaVuSans-30" x="63.623047"/>
      </g>
     </g>
    </g>
    <g id="xtick_6">
     <g id="line2d_6">
      <g>
       <use xlink:href="#m0f6952c8da" x="401.766612" y="307.584" style="stroke: #000000; stroke-width: 0.8"/>
      </g>
     </g>
     <g id="text_6">
      <!-- 100 -->
      <g transform="translate(392.222862 322.182437) scale(0.1 -0.1)">
       <defs>
        <path id="DejaVuSans-31" d="M 794 531 
L 1825 531 
L 1825 4091 
L 703 3866 
L 703 4441 
L 1819 4666 
L 2450 4666 
L 2450 531 
L 3481 531 
L 3481 0 
L 794 0 
L 794 531 
z
" transform="scale(0.015625)"/>
       </defs>
       <use xlink:href="#DejaVuSans-31"/>
       <use xlink:href="#DejaVuSans-30" x="63.623047"/>
       <use xlink:href="#DejaVuSans-30" x="127.246094"/>
      </g>
     </g>
    </g>
    <g id="text_7">
     <!-- Generations -->
     <g transform="translate(205.662344 335.860562) scale(0.1 -0.1)">
      <defs>
       <path id="DejaVuSans-47" d="M 3809 666 
L 3809 1919 
L 2778 1919 
L 2778 2438 
L 4434 2438 
L 4434 434 
Q 4069 175 3628 42 
Q 3188 -91 2688 -91 
Q 1594 -91 976 548 
Q 359 1188 359 2328 
Q 359 3472 976 4111 
Q 1594 4750 2688 4750 
Q 3144 4750 3555 4637 
Q 3966 4525 4313 4306 
L 4313 3634 
Q 3963 3931 3569 4081 
Q 3175 4231 2741 4231 
Q 1884 4231 1454 3753 
Q 1025 3275 1025 2328 
Q 1025 1384 1454 906 
Q 1884 428 2741 428 
Q 3075 428 3337 486 
Q 3600 544 3809 666 
z
" transform="scale(0.015625)"/>
       <path id="DejaVuSans-65" d="M 3597 1894 
L 3597 1613 
L 953 1613 
Q 991 1019 1311 708 
Q 1631 397 2203 397 
Q 2534 397 2845 478 
Q 3156 559 3463 722 
L 3463 178 
Q 3153 47 2828 -22 
Q 2503 -91 2169 -91 
Q 1331 -91 842 396 
Q 353 884 353 1716 
Q 353 2575 817 3079 
Q 1281 3584 2069 3584 
Q 2775 3584 3186 3129 
Q 3597 2675 3597 1894 
z
M 3022 2063 
Q 3016 2534 2758 2815 
Q 2500 3097 2075 3097 
Q 1594 3097 1305 2825 
Q 1016 2553 972 2059 
L 3022 2063 
z
" transform="scale(0.015625)"/>
       <path id="DejaVuSans-6e" d="M 3513 2113 
L 3513 0 
L 2938 0 
L 2938 2094 
Q 2938 2591 2744 2837 
Q 2550 3084 2163 3084 
Q 1697 3084 1428 2787 
Q 1159 2491 1159 1978 
L 1159 0 
L 581 0 
L 581 3500 
L 1159 3500 
L 1159 2956 
Q 1366 3272 1645 3428 
Q 1925 3584 2291 3584 
Q 2894 3584 3203 3211 
Q 3513 2838 3513 2113 
z
" transform="scale(0.015625)"/>
       <path id="DejaVuSans-72" d="M 2631 2963 
Q 2534 3019 2420 3045 
Q 2306 3072 2169 3072 
Q 1681 3072 1420 2755 
Q 1159 2438 1159 1844 
L 1159 0 
L 581 0 
L 581 3500 
L 1159 3500 
L 1159 2956 
Q 1341 3275 1631 3429 
Q 1922 3584 2338 3584 
Q 2397 3584 2469 3576 
Q 2541 3569 2628 3553 
L 2631 2963 
z
" transform="scale(0.015625)"/>
       <path id="DejaVuSans-61" d="M 2194 1759 
Q 1497 1759 1228 1600 
Q 959 1441 959 1056 
Q 959 750 1161 570 
Q 1363 391 1709 391 
Q 2188 391 2477 730 
Q 2766 1069 2766 1631 
L 2766 1759 
L 2194 1759 
z
M 3341 1997 
L 3341 0 
L 2766 0 
L 2766 531 
Q 2569 213 2275 61 
Q 1981 -91 1556 -91 
Q 1019 -91 701 211 
Q 384 513 384 1019 
Q 384 1609 779 1909 
Q 1175 2209 1959 2209 
L 2766 2209 
L 2766 2266 
Q 2766 2663 2505 2880 
Q 2244 3097 1772 3097 
Q 1472 3097 1187 3025 
Q 903 2953 641 2809 
L 641 3341 
Q 956 3463 1253 3523 
Q 1550 3584 1831 3584 
Q 2591 3584 2966 3190 
Q 3341 2797 3341 1997 
z
" transform="scale(0.015625)"/>
       <path id="DejaVuSans-74" d="M 1172 4494 
L 1172 3500 
L 2356 3500 
L 2356 3053 
L 1172 3053 
L 1172 1153 
Q 1172 725 1289 603 
Q 1406 481 1766 481 
L 2356 481 
L 2356 0 
L 1766 0 
Q 1100 0 847 248 
Q 594 497 594 1153 
L 594 3053 
L 172 3053 
L 172 3500 
L 594 3500 
L 594 4494 
L 1172 4494 
z
" transform="scale(0.015625)"/>
       <path id="DejaVuSans-69" d="M 603 3500 
L 1178 3500 
L 1178 0 
L 603 0 
L 603 3500 
z
M 603 4863 
L 1178 4863 
L 1178 4134 
L 603 4134 
L 603 4863 
z
" transform="scale(0.015625)"/>
       <path id="DejaVuSans-6f" d="M 1959 3097 
Q 1497 3097 1228 2736 
Q 959 2375 959 1747 
Q 959 1119 1226 758 
Q 1494 397 1959 397 
Q 2419 397 2687 759 
Q 2956 1122 2956 1747 
Q 2956 2369 2687 2733 
Q 2419 3097 1959 3097 
z
M 1959 3584 
Q 2709 3584 3137 3096 
Q 3566 2609 3566 1747 
Q 3566 888 3137 398 
Q 2709 -91 1959 -91 
Q 1206 -91 779 398 
Q 353 888 353 1747 
Q 353 2609 779 3096 
Q 1206 3584 1959 3584 
z
" transform="scale(0.015625)"/>
       <path id="DejaVuSans-73" d="M 2834 3397 
L 2834 2853 
Q 2591 2978 2328 3040 
Q 2066 3103 1784 3103 
Q 1356 3103 1142 2972 
Q 928 2841 928 2578 
Q 928 2378 1081 2264 
Q 1234 2150 1697 2047 
L 1894 2003 
Q 2506 1872 2764 1633 
Q 3022 1394 3022 966 
Q 3022 478 2636 193 
Q 2250 -91 1575 -91 
Q 1294 -91 989 -36 
Q 684 19 347 128 
L 347 722 
Q 666 556 975 473 
Q 1284 391 1588 391 
Q 1994 391 2212 530 
Q 2431 669 2431 922 
Q 2431 1156 2273 1281 
Q 2116 1406 1581 1522 
L 1381 1569 
Q 847 1681 609 1914 
Q 372 2147 372 2553 
Q 372 3047 722 3315 
Q 1072 3584 1716 3584 
Q 2034 3584 2315 3537 
Q 2597 3491 2834 3397 
z
" transform="scale(0.015625)"/>
      </defs>
      <use xlink:href="#DejaVuSans-47"/>
      <use xlink:href="#DejaVuSans-65" x="77.490234"/>
      <use xlink:href="#DejaVuSans-6e" x="139.013672"/>
      <use xlink:href="#DejaVuSans-65" x="202.392578"/>
      <use xlink:href="#DejaVuSans-72" x="263.916016"/>
      <use xlink:href="#DejaVuSans-61" x="305.029297"/>
      <use xlink:href="#DejaVuSans-74" x="366.308594"/>
      <use xlink:href="#DejaVuSans-69" x="405.517578"/>
      <use xlink:href="#DejaVuSans-6f" x="433.300781"/>
      <use xlink:href="#DejaVuSans-6e" x="494.482422"/>
      <use xlink:href="#DejaVuSans-73" x="557.861328"/>
     </g>
    </g>
   </g>
   <g id="matplotlib.axis_2">
    <g id="ytick_1">
     <g id="line2d_7">
      <defs>
       <path id="m42404af082" d="M 0 0 
L -3.5 0 
" style="stroke: #000000; stroke-width: 0.8"/>
      </defs>
      <g>
       <use xlink:href="#m42404af082" x="57.6" y="307.584" style="stroke: #000000; stroke-width: 0.8"/>
      </g>
     </g>
     <g id="text_8">
      <!-- 0 -->
      <g transform="translate(44.2375 311.383219) scale(0.1 -0.1)">
       <use xlink:href="#DejaVuSans-30"/>
      </g>
     </g>
    </g>
    <g id="ytick_2">
     <g id="line2d_8">
      <g>
       <use xlink:href="#m42404af082" x="57.6" y="257.198314" style="stroke: #000000; stroke-width: 0.8"/>
      </g>
     </g>
     <g id="text_9">
      <!-- 100 -->
      <g transform="translate(31.5125 260.997533) scale(0.1 -0.1)">
       <use xlink:href="#DejaVuSans-31"/>
       <use xlink:href="#DejaVuSans-30" x="63.623047"/>
       <use xlink:href="#DejaVuSans-30" x="127.246094"/>
      </g>
     </g>
    </g>
    <g id="ytick_3">
     <g id="line2d_9">
      <g>
       <use xlink:href="#m42404af082" x="57.6" y="206.812628" style="stroke: #000000; stroke-width: 0.8"/>
      </g>
     </g>
     <g id="text_10">
      <!-- 200 -->
      <g transform="translate(31.5125 210.611847) scale(0.1 -0.1)">
       <use xlink:href="#DejaVuSans-32"/>
       <use xlink:href="#DejaVuSans-30" x="63.623047"/>
       <use xlink:href="#DejaVuSans-30" x="127.246094"/>
      </g>
     </g>
    </g>
    <g id="ytick_4">
     <g id="line2d_10">
      <g>
       <use xlink:href="#m42404af082" x="57.6" y="156.426942" style="stroke: #000000; stroke-width: 0.8"/>
      </g>
     </g>
     <g id="text_11">
      <!-- 300 -->
      <g transform="translate(31.5125 160.226161) scale(0.1 -0.1)">
       <defs>
        <path id="DejaVuSans-33" d="M 2597 2516 
Q 3050 2419 3304 2112 
Q 3559 1806 3559 1356 
Q 3559 666 3084 287 
Q 2609 -91 1734 -91 
Q 1441 -91 1130 -33 
Q 819 25 488 141 
L 488 750 
Q 750 597 1062 519 
Q 1375 441 1716 441 
Q 2309 441 2620 675 
Q 2931 909 2931 1356 
Q 2931 1769 2642 2001 
Q 2353 2234 1838 2234 
L 1294 2234 
L 1294 2753 
L 1863 2753 
Q 2328 2753 2575 2939 
Q 2822 3125 2822 3475 
Q 2822 3834 2567 4026 
Q 2313 4219 1838 4219 
Q 1578 4219 1281 4162 
Q 984 4106 628 3988 
L 628 4550 
Q 988 4650 1302 4700 
Q 1616 4750 1894 4750 
Q 2613 4750 3031 4423 
Q 3450 4097 3450 3541 
Q 3450 3153 3228 2886 
Q 3006 2619 2597 2516 
z
" transform="scale(0.015625)"/>
       </defs>
       <use xlink:href="#DejaVuSans-33"/>
       <use xlink:href="#DejaVuSans-30" x="63.623047"/>
       <use xlink:href="#DejaVuSans-30" x="127.246094"/>
      </g>
     </g>
    </g>
    <g id="ytick_5">
     <g id="line2d_11">
      <g>
       <use xlink:href="#m42404af082" x="57.6" y="106.041256" style="stroke: #000000; stroke-width: 0.8"/>
      </g>
     </g>
     <g id="text_12">
      <!-- 400 -->
      <g transform="translate(31.5125 109.840475) scale(0.1 -0.1)">
       <use xlink:href="#DejaVuSans-34"/>
       <use xlink:href="#DejaVuSans-30" x="63.623047"/>
       <use xlink:href="#DejaVuSans-30" x="127.246094"/>
      </g>
     </g>
    </g>
    <g id="ytick_6">
     <g id="line2d_12">
      <g>
       <use xlink:href="#m42404af082" x="57.6" y="55.655571" style="stroke: #000000; stroke-width: 0.8"/>
      </g>
     </g>
     <g id="text_13">
      <!-- 500 -->
      <g transform="translate(31.5125 59.454789) scale(0.1 -0.1)">
       <defs>
        <path id="DejaVuSans-35" d="M 691 4666 
L 3169 4666 
L 3169 4134 
L 1269 4134 
L 1269 2991 
Q 1406 3038 1543 3061 
Q 1681 3084 1819 3084 
Q 2600 3084 3056 2656 
Q 3513 2228 3513 1497 
Q 3513 744 3044 326 
Q 2575 -91 1722 -91 
Q 1428 -91 1123 -41 
Q 819 9 494 109 
L 494 744 
Q 775 591 1075 516 
Q 1375 441 1709 441 
Q 2250 441 2565 725 
Q 2881 1009 2881 1497 
Q 2881 1984 2565 2268 
Q 2250 2553 1709 2553 
Q 1456 2553 1204 2497 
Q 953 2441 691 2322 
L 691 4666 
z
" transform="scale(0.015625)"/>
       </defs>
       <use xlink:href="#DejaVuSans-35"/>
       <use xlink:href="#DejaVuSans-30" x="63.623047"/>
       <use xlink:href="#DejaVuSans-30" x="127.246094"/>
      </g>
     </g>
    </g>
    <g id="text_14">
     <!-- Size per Species -->
     <g transform="translate(25.432812 215.520969) rotate(-90) scale(0.1 -0.1)">
      <defs>
       <path id="DejaVuSans-53" d="M 3425 4513 
L 3425 3897 
Q 3066 4069 2747 4153 
Q 2428 4238 2131 4238 
Q 1616 4238 1336 4038 
Q 1056 3838 1056 3469 
Q 1056 3159 1242 3001 
Q 1428 2844 1947 2747 
L 2328 2669 
Q 3034 2534 3370 2195 
Q 3706 1856 3706 1288 
Q 3706 609 3251 259 
Q 2797 -91 1919 -91 
Q 1588 -91 1214 -16 
Q 841 59 441 206 
L 441 856 
Q 825 641 1194 531 
Q 1563 422 1919 422 
Q 2459 422 2753 634 
Q 3047 847 3047 1241 
Q 3047 1584 2836 1778 
Q 2625 1972 2144 2069 
L 1759 2144 
Q 1053 2284 737 2584 
Q 422 2884 422 3419 
Q 422 4038 858 4394 
Q 1294 4750 2059 4750 
Q 2388 4750 2728 4690 
Q 3069 4631 3425 4513 
z
" transform="scale(0.015625)"/>
       <path id="DejaVuSans-7a" d="M 353 3500 
L 3084 3500 
L 3084 2975 
L 922 459 
L 3084 459 
L 3084 0 
L 275 0 
L 275 525 
L 2438 3041 
L 353 3041 
L 353 3500 
z
" transform="scale(0.015625)"/>
       <path id="DejaVuSans-20" transform="scale(0.015625)"/>
       <path id="DejaVuSans-70" d="M 1159 525 
L 1159 -1331 
L 581 -1331 
L 581 3500 
L 1159 3500 
L 1159 2969 
Q 1341 3281 1617 3432 
Q 1894 3584 2278 3584 
Q 2916 3584 3314 3078 
Q 3713 2572 3713 1747 
Q 3713 922 3314 415 
Q 2916 -91 2278 -91 
Q 1894 -91 1617 61 
Q 1341 213 1159 525 
z
M 3116 1747 
Q 3116 2381 2855 2742 
Q 2594 3103 2138 3103 
Q 1681 3103 1420 2742 
Q 1159 2381 1159 1747 
Q 1159 1113 1420 752 
Q 1681 391 2138 391 
Q 2594 391 2855 752 
Q 3116 1113 3116 1747 
z
" transform="scale(0.015625)"/>
       <path id="DejaVuSans-63" d="M 3122 3366 
L 3122 2828 
Q 2878 2963 2633 3030 
Q 2388 3097 2138 3097 
Q 1578 3097 1268 2742 
Q 959 2388 959 1747 
Q 959 1106 1268 751 
Q 1578 397 2138 397 
Q 2388 397 2633 464 
Q 2878 531 3122 666 
L 3122 134 
Q 2881 22 2623 -34 
Q 2366 -91 2075 -91 
Q 1284 -91 818 406 
Q 353 903 353 1747 
Q 353 2603 823 3093 
Q 1294 3584 2113 3584 
Q 2378 3584 2631 3529 
Q 2884 3475 3122 3366 
z
" transform="scale(0.015625)"/>
      </defs>
      <use xlink:href="#DejaVuSans-53"/>
      <use xlink:href="#DejaVuSans-69" x="63.476562"/>
      <use xlink:href="#DejaVuSans-7a" x="91.259766"/>
      <use xlink:href="#DejaVuSans-65" x="143.75"/>
      <use xlink:href="#DejaVuSans-20" x="205.273438"/>
      <use xlink:href="#DejaVuSans-70" x="237.060547"/>
      <use xlink:href="#DejaVuSans-65" x="300.537109"/>
      <use xlink:href="#DejaVuSans-72" x="362.060547"/>
      <use xlink:href="#DejaVuSans-20" x="403.173828"/>
      <use xlink:href="#DejaVuSans-53" x="434.960938"/>
      <use xlink:href="#DejaVuSans-70" x="498.4375"/>
      <use xlink:href="#DejaVuSans-65" x="561.914062"/>
      <use xlink:href="#DejaVuSans-63" x="623.4375"/>
      <use xlink:href="#DejaVuSans-69" x="678.417969"/>
      <use xlink:href="#DejaVuSans-65" x="706.201172"/>
      <use xlink:href="#DejaVuSans-73" x="767.724609"/>
     </g>
    </g>
   </g>
   <g id="patch_3">
    <path d="M 57.6 307.584 
L 57.6 41.472 
" style="fill: none; stroke: #000000; stroke-width: 0.8; stroke-linejoin: miter; stroke-linecap: square"/>
   </g>
   <g id="patch_4">
    <path d="M 414.72 307.584 
L 414.72 41.472 
" style="fill: none; stroke: #000000; stroke-width: 0.8; stroke-linejoin: miter; stroke-linecap: square"/>
   </g>
   <g id="patch_5">
    <path d="M 57.6 307.584 
L 414.72 307.584 
" style="fill: none; stroke: #000000; stroke-width: 0.8; stroke-linejoin: miter; stroke-linecap: square"/>
   </g>
   <g id="patch_6">
    <path d="M 57.6 41.472 
L 414.72 41.472 
" style="fill: none; stroke: #000000; stroke-width: 0.8; stroke-linejoin: miter; stroke-linecap: square"/>
   </g>
   <g id="text_15">
    <!-- Speciation -->
    <g transform="translate(204.714375 35.472) scale(0.12 -0.12)">
     <use xlink:href="#DejaVuSans-53"/>
     <use xlink:href="#DejaVuSans-70" x="63.476562"/>
     <use xlink:href="#DejaVuSans-65" x="126.953125"/>
     <use xlink:href="#DejaVuSans-63" x="188.476562"/>
     <use xlink:href="#DejaVuSans-69" x="243.457031"/>
     <use xlink:href="#DejaVuSans-61" x="271.240234"/>
     <use xlink:href="#DejaVuSans-74" x="332.519531"/>
     <use xlink:href="#DejaVuSans-69" x="371.728516"/>
     <use xlink:href="#DejaVuSans-6f" x="399.511719"/>
     <use xlink:href="#DejaVuSans-6e" x="460.693359"/>
    </g>
   </g>
  </g>
 </g>
 <defs>
  <clipPath id="pcfa0fb3a6e">
   <rect x="57.6" y="41.472" width="357.12" height="266.112"/>
  </clipPath>
 </defs>
</svg>
